<svg xmlns="http://www.w3.org/2000/svg" xmlns:xlink="http://www.w3.org/1999/xlink" width="232.535" height="134" viewBox="0 0 232.535 134"><defs><style>.a,.b,.i,.j{fill:#205df5;}.a{opacity:0.5;}.c,.h{fill:none;stroke:#535461;stroke-miterlimit:10;}.d{opacity:0.1;}.e{fill:url(#a);}.f{fill:#535461;}.g{fill:#fff;}.h{stroke-width:2px;}.i{opacity:0.7;}.j{opacity:0.8;}.k{fill:url(#b);}.l{fill:#fec3be;}.m{fill:#8b416f;}.n{fill:#4d4981;}.o{opacity:0.05;}.p{fill:#fd6f8d;}.q{fill:#784f69;}</style><linearGradient id="a" x1="0.5" y1="1" x2="0.5" gradientUnits="objectBoundingBox"><stop offset="0" stop-color="gray" stop-opacity="0.251"/><stop offset="0.54" stop-color="gray" stop-opacity="0.122"/><stop offset="1" stop-color="gray" stop-opacity="0.102"/></linearGradient><linearGradient id="b" y1="1" y2="0" xlink:href="#a"/></defs><g transform="translate(-0.003 -0.06)"><path class="a" d="M185.616,517.465c-14.059-4.858-30.134-8.97-43.269-1.989a9.718,9.718,0,0,0-4.2,3.656c-2.369,4.361,1.4,10.015-.439,14.625s-8.743,6.93-8.178,11.853a6.871,6.871,0,0,0,1.667,3.456c5.145,6.286,14.578,6.922,22.551,5.362s15.77-4.794,23.887-4.387c7.8.4,14.976,4.144,22.122,7.293,12.048,5.323,26.12,9.143,38.158,3.793,5.516-2.452,10.076-6.627,15.356-9.543A37.8,37.8,0,0,1,276.6,547.3c5.362.756,10.481,2.657,15.729,3.968,11.919,2.976,24.36,2.879,36.642,2.762a24.55,24.55,0,0,0,6.8-.7c3.244-.975,5.921-3.22,8.5-5.416,3.386-2.883,6.952-6.052,8.044-10.364,1.289-5.119-1.38-10.559-5.338-14.037s-9.018-5.379-13.957-7.212a6.326,6.326,0,0,0-3.768-.566,5.14,5.14,0,0,0-2.121,1.358c-3.505,3.373-6.467,9.079-11.246,8.163a10.675,10.675,0,0,1-4.453-2.61c-7.21-5.85-16.908-10.366-25.61-7.134-6.364,2.364-10.856,8.436-17.306,10.578-4.587,1.526-9.572.865-14.4,1.163-7.02.429-13.852,2.91-20.882,2.759-17.925-.385-32.859-17.525-50.711-15.892a5.221,5.221,0,0,0-3.783,1.555" transform="translate(-127.91 -429.645)"/><path class="b" d="M254.49,464.342s-14.9,8.992,12.572,22.841c0,0,6.052-11.237-.639-20.4a9.018,9.018,0,0,0-11.7-2.564Z" transform="translate(-219.388 -392.826)"/><path class="c" d="M267.73,467.52s12.753,9.75,12.4,23.022" transform="translate(-232.451 -396.192)"/><path class="b" d="M913.48,388.795c3.018,11.034-9.855,42.47-9.855,42.47s-27.085-20.506-30.1-31.54a20.718,20.718,0,1,1,39.957-10.932Z" transform="translate(-689.929 -324.769)"/><path class="d" d="M913.48,388.795c3.018,11.034-9.855,42.47-9.855,42.47s-27.085-20.506-30.1-31.54a20.718,20.718,0,1,1,39.957-10.932Z" transform="translate(-689.929 -324.769)"/><path class="c" d="M936.21,378.27s16.86,25.452,15.6,56.982" transform="translate(-737.993 -328.696)"/><path class="b" d="M1015.847,517.114s-15.288-8.317-13.352,22.383c0,0,12.753-.456,17.279-10.859a9.018,9.018,0,0,0-3.7-11.395Z" transform="translate(-787.993 -432.921)"/><path class="c" d="M1016.623,520.52s-1.974,15.936-13.6,22.329" transform="translate(-788.518 -436.273)"/><path class="b" d="M127.039,502.282s-14.9,8.989,12.567,22.831c0,0,6.052-11.237-.639-20.4a9.019,9.019,0,0,0-11.7-2.564Z" transform="translate(-123 -421.511)"/><path class="c" d="M140.26,505.49s12.753,9.75,12.4,23.022" transform="translate(-136.051 -424.907)"/><path class="e" d="M393.976,309.515H378.316a5.222,5.222,0,0,0,.546-2.333v-71.31a5.243,5.243,0,0,0-5.243-5.243H252.4a5.243,5.243,0,0,0-5.243,5.243v71.312a5.221,5.221,0,0,0,.546,2.333H231.487a1.387,1.387,0,0,0-1.387,1.394v1.119a7.756,7.756,0,0,0,7.756,7.756H387.607a7.756,7.756,0,0,0,7.756-7.756v-1.119a1.387,1.387,0,0,0-1.387-1.4Zm-96.5,4.436-1.35-1.523h33.339l-1.487,1.526Z" transform="translate(-203.993 -217.042)"/><rect class="f" width="128.726" height="79.945" rx="23.26" transform="translate(44.647 14.597)"/><rect class="g" width="123.034" height="65.311" transform="translate(47.357 26.25)"/><circle class="g" cx="1.085" cy="1.085" r="1.085" transform="translate(107.791 19.474)"/><path class="f" d="M337.671,551.08l-4.227,4.336h-29.8l-3.819-4.336h-60.69a1.355,1.355,0,0,0-1.355,1.355v1.092a7.58,7.58,0,0,0,7.58,7.58H391.719a7.58,7.58,0,0,0,7.58-7.58v-1.092a1.355,1.355,0,0,0-1.355-1.355Z" transform="translate(-209.801 -459.385)"/><path class="h" d="M258.77,124.19v55.554h91.867" transform="translate(-195.694 -93.874)"/><rect class="a" width="9.484" height="14.634" transform="translate(71.205 69.069)"/><rect class="i" width="9.484" height="27.643" transform="translate(87.465 56.06)"/><rect class="a" width="9.484" height="19.782" transform="translate(103.725 63.918)"/><rect class="j" width="9.484" height="31.979" transform="translate(119.985 51.724)"/><rect class="b" width="9.484" height="43.36" transform="translate(136.245 40.341)"/><path class="h" d="M311.02,169.972l16.531-14.9,16.26,14.091,15.99-17.072,16.26-6.776" transform="translate(-235.208 -109.846)"/><circle class="b" cx="1.896" cy="1.896" r="1.896" transform="translate(73.915 58.229)"/><circle class="b" cx="1.896" cy="1.896" r="1.896" transform="translate(106.436 57.145)"/><circle class="b" cx="1.896" cy="1.896" r="1.896" transform="translate(122.966 40.344)"/><circle class="b" cx="1.896" cy="1.896" r="1.896" transform="translate(90.446 43.052)"/><circle class="b" cx="1.896" cy="1.896" r="1.896" transform="translate(138.956 33.567)"/><path class="k" d="M818.048,269.139a9.507,9.507,0,0,0-3.656-.575,18.615,18.615,0,0,1-5.545-3.052,40.014,40.014,0,0,0-.119-4.685c-.919-10.449,1.148-17.337,1.148-17.337a34.253,34.253,0,0,0,1.445-9.616c.1.2.163.314.163.314a32.375,32.375,0,0,1,2.384-10.079.807.807,0,0,0,.107-.039l1.072-2.545a2.21,2.21,0,0,0,.2-.47l.173-.4-.051-.022c.017-.066.034-.136.051-.207h0a95.641,95.641,0,0,0,1.219-9.772,12.723,12.723,0,0,0-2.525-11.7l-7.405-6.371a.939.939,0,0,1,.073.261l-.061-.054c-.1-.3-.219-.658-.331-1.068a6.259,6.259,0,0,0,2.391-3.588,11.228,11.228,0,0,0,.11-2.681l-.122-3.074a9.755,9.755,0,0,0-.183-1.792,5.964,5.964,0,0,0-5.565-4.256,20.34,20.34,0,0,0-2.389.127,16.073,16.073,0,0,1-1.95.041.351.351,0,0,1-.21-.056.307.307,0,0,1-.09-.212,1.058,1.058,0,0,1,.258-.792.974.974,0,0,1,.336-.193l-.178.041a.976.976,0,0,1,.293-.158,5.676,5.676,0,0,0-1.848.67,2.385,2.385,0,0,0-.431.363,1.884,1.884,0,0,0-.624,1.16,2.159,2.159,0,0,1-.658-.975.975.975,0,0,1,0-.473q-.066.08-.127.166v-.051a4.928,4.928,0,0,0-.975,1.984.773.773,0,0,1-.175-.57q-.055.172-.1.344a.792.792,0,0,1,0-.229,7.85,7.85,0,0,0-.383,2.725c0,.921.409,2.357,1.4,2.681.051.017.1.029.156.041a6.2,6.2,0,0,0,4.18,9.467q.024.168.046.353h.039c.027.244.049.512.063.785a5.278,5.278,0,0,1-.814.653,6.712,6.712,0,0,1-2.71.9,8.068,8.068,0,0,0-3.259.975,6.136,6.136,0,0,0-2.9,2.793c-.682,1.95-4.441,4.985-6.961,5.362l-.9-.051-.066-.02v.017l-.219-.012h-.071v.012l-.227-.012s-.022.1-.054.29a22.452,22.452,0,0,1-7.466-4.826c-3.9-3.542-9.177-2.844-11.212-2.4a.349.349,0,0,0-.093.646,11.319,11.319,0,0,0,2.681,1.18s-1.219,1.275.078,1.95a.941.941,0,0,0,.975-.1c.629-.461,2.377.583,4.909,1.126,0,0,7.147,7.4,10.7,8.531a5.109,5.109,0,0,0,.271.47l.219-.017v.017h.093l.027.244s5.518-.29,7.312-2.294a2.874,2.874,0,0,0,.349-.373L788.4,232.768h.017L788.4,233h1.411a53.2,53.2,0,0,1-.383,8.887v15.731s-.073,1.384,2.8,3.412a107.5,107.5,0,0,1,8.707,6.749l.349.3c-.529,4.814-1.635,13.786-2.559,14.12l.57.1c-.975,1.236-3.744,4.631-4.587,4.721-1.034.115-1.723,1.723,0,2.067a19.307,19.307,0,0,0,10.237-1.009,1.562,1.562,0,0,0,.975-1.662l-.334-2.535a.355.355,0,0,1,.146.154c.229.69,0-.919,0-.919a71.83,71.83,0,0,0,2.22-9.262l3.412,2.949s.068-.085.188-.244c.836,1.9,2.328,5.777,1.994,8.619-.458,3.9,3.9.458,3.444-1.838-.37-1.857,1.287-9.73,1.933-12.675A1.309,1.309,0,0,0,818.048,269.139Z" transform="translate(-606.645 -175.07)"/><path class="l" d="M784.168,275.791s-3.251-.561-8.073-4.933c-3.815-3.459-8.96-2.779-10.944-2.342a.339.339,0,0,0-.09.629,11.081,11.081,0,0,0,2.628,1.153s-1.2,1.243.076,1.909a.919.919,0,0,0,.96-.093c.614-.449,2.32.57,4.794,1.1,0,0,9.643,9.979,11.885,8.287Z" transform="translate(-608.426 -245.419)"/><path class="l" d="M912.11,228.871s.9,3.812,0,6.5l4.036.561,3.588-1.794v-2.355a16.168,16.168,0,0,1-1.233-7.736Z" transform="translate(-719.767 -212.066)"/><path class="m" d="M959,562.013s2.925,5.718,2.467,9.53,3.812.448,3.364-1.794c-.363-1.813,1.255-9.506,1.887-12.368a1.277,1.277,0,0,0-.848-1.489c-1.348-.444-3.6-.987-4.738-.156C959.456,556.968,959,562.013,959,562.013Z" transform="translate(-755.228 -462.579)"/><path class="m" d="M895.353,607.546s-3.812,4.933-4.821,5.045-1.682,1.682,0,2.018a18.852,18.852,0,0,0,9.994-.975,1.526,1.526,0,0,0,.958-1.623l-.643-4.8Z" transform="translate(-702.673 -501.833)"/><path class="n" d="M876.249,393.78l-3.656.487a53.513,53.513,0,0,1-.044,12.853v15.356s-.071,1.353,2.737,3.32a104.963,104.963,0,0,1,8.5,6.581l10.174,8.814s4.036-4.933,3.476-7.849c0,0-6.727-2.13-7.624-5.606-.514-1.989-3.122-3.656-5.258-4.7a6.537,6.537,0,0,1-3.5-7.42,5.715,5.715,0,0,1,.573-1.441,93.856,93.856,0,0,0,4.373-10.2l-4.933-9.4Z" transform="translate(-689.849 -340.425)"/><path class="o" d="M876.249,393.78l-3.656.487a53.513,53.513,0,0,1-.044,12.853v15.356s-.071,1.353,2.737,3.32a104.963,104.963,0,0,1,8.5,6.581l10.174,8.814s4.036-4.933,3.476-7.849c0,0-6.727-2.13-7.624-5.606-.514-1.989-3.122-3.656-5.258-4.7a6.537,6.537,0,0,1-3.5-7.42,5.715,5.715,0,0,1,.573-1.441,93.856,93.856,0,0,0,4.373-10.2l-4.933-9.4Z" transform="translate(-689.849 -340.425)"/><path class="n" d="M898.708,446.614s6.615,1.121,6.839,1.794,0-.9,0-.9,3.812-11.549,2.925-21.749,1.121-16.93,1.121-16.93,2.355-7.624,1.009-12-15.473-2.467-15.473-2.467,4.933,11.549,4.821,17.043c0,0,.561,16.594,1.57,18.5C901.511,429.9,899.942,446.158,898.708,446.614Z" transform="translate(-706.926 -340.557)"/><path class="g" d="M882.067,255.79s.673,4.144,7.4,2.355l-4.475,34.083s-13.006.448-12.894-1.121l2.681-20.628Z" transform="translate(-689.507 -236.07)"/><path class="d" d="M860.321,254.87a5.465,5.465,0,0,1-3.239,1.538,7.88,7.88,0,0,0-3.183.946,5.954,5.954,0,0,0-2.827,2.728c-.785,2.242-5.718,5.942-7.961,5.158l.785,6.727s6.391-.336,7.512-2.8l-1.9,24.006h1.682s.9-6.5,1.57-7.849,2.018-8.746,2.13-10.539,1.794-12.109,3.251-13.893l2.194-5.326Z" transform="translate(-667.585 -235.374)"/><path class="d" d="M859.633,256.25a6.939,6.939,0,0,1-3.464,1.426,7.88,7.88,0,0,0-3.181.951,5.955,5.955,0,0,0-2.828,2.728c-.785,2.242-5.718,5.942-7.961,5.158l.785,6.727s6.391-.336,7.512-2.8l-1.906,23.992h1.682s.9-6.5,1.57-7.849,2.018-8.746,2.13-10.539,1.794-12.109,3.252-13.893l2.408-5.226Z" transform="translate(-666.897 -236.417)"/><path class="p" d="M859.625,255.33a6.94,6.94,0,0,1-3.464,1.426,7.879,7.879,0,0,0-3.183.946,5.954,5.954,0,0,0-2.827,2.728c-.785,2.242-5.718,5.942-7.961,5.158l.785,6.727s6.391-.336,7.512-2.8l-1.9,24.006h1.682s.9-6.5,1.57-7.849,2.018-8.746,2.13-10.539,1.794-12.109,3.252-13.893l2.411-5.214Z" transform="translate(-666.89 -235.722)"/><path class="d" d="M918.221,228.4a11.356,11.356,0,0,1,.28-2.971l-6.391,4.821s.154.651.271,1.6a6.1,6.1,0,0,0,.975.078C915.574,231.933,917.17,230.2,918.221,228.4Z" transform="translate(-719.767 -213.11)"/><circle class="l" cx="6.055" cy="6.055" r="6.055" transform="translate(187.522 6.38)"/><path class="d" d="M890.043,186.41a7.661,7.661,0,0,1,.487-3,.748.748,0,0,0,.127.975,4.8,4.8,0,0,1,1.521-2.7.824.824,0,0,0-.546,1.029,2.341,2.341,0,0,0,.748,1.053,1.881,1.881,0,0,1,.924-1.592,5.544,5.544,0,0,1,1.8-.653,1.046,1.046,0,0,0-.692,1.072.3.3,0,0,0,.09.207.344.344,0,0,0,.2.054,15.7,15.7,0,0,0,1.894-.041,19.859,19.859,0,0,1,2.333-.124,5.819,5.819,0,0,1,5.433,4.144,9.519,9.519,0,0,1,.178,1.75l.12,3a10.962,10.962,0,0,1-.107,2.623,5.557,5.557,0,0,1-2.854,3.773c-.88-1.275-.958-2.913-1.262-4.431a2.242,2.242,0,0,0-.38-.975.856.856,0,0,0-.938-.317.539.539,0,0,0-.2.858c-.244.288-.7.073-.975-.183a5.236,5.236,0,0,1-1.519-2.713c-.11-.522-.219-1.165-.731-1.343a1.361,1.361,0,0,0-.541-.037c-1.068.073-2.737.514-3.771.176C890.443,188.713,890.043,187.309,890.043,186.41Z" transform="translate(-703.074 -179.91)"/><path class="q" d="M890.5,185.95a7.666,7.666,0,0,1,.487-3,.748.748,0,0,0,.127.975,4.8,4.8,0,0,1,1.521-2.7.824.824,0,0,0-.546,1.029,2.341,2.341,0,0,0,.748,1.053,1.881,1.881,0,0,1,.924-1.592,5.542,5.542,0,0,1,1.8-.653,1.046,1.046,0,0,0-.692,1.072.3.3,0,0,0,.09.207.343.343,0,0,0,.2.054,15.69,15.69,0,0,0,1.894-.041,19.861,19.861,0,0,1,2.333-.124,5.819,5.819,0,0,1,5.433,4.144,9.53,9.53,0,0,1,.178,1.75l.119,3a10.975,10.975,0,0,1-.107,2.623,5.558,5.558,0,0,1-2.854,3.773c-.88-1.275-.958-2.913-1.263-4.431a2.242,2.242,0,0,0-.38-.975.856.856,0,0,0-.938-.317.539.539,0,0,0-.2.858c-.244.288-.7.073-.975-.183a5.235,5.235,0,0,1-1.518-2.713c-.11-.522-.219-1.165-.731-1.343a1.361,1.361,0,0,0-.541-.037c-1.068.073-2.737.514-3.771.176C890.9,188.251,890.5,186.849,890.5,185.95Z" transform="translate(-703.422 -179.562)"/><path class="d" d="M840.259,297.42s-.9,4.144.785,6.727l.953-.078-.519-6.581Z" transform="translate(-665.248 -267.553)"/><path class="p" d="M841.259,297.42s-.9,4.144.785,6.727l.953-.078-.519-6.581Z" transform="translate(-666.005 -267.553)"/><path class="d" d="M916.675,251l7.232,6.223a12.457,12.457,0,0,1,2.467,11.436s-.785,10.315-1.682,10.764c0,0-3.139,6.279-3.364,12.221,0,0-4.2-8.465-6.111-3.308a8.887,8.887,0,0,1-6.337,5.886l2.467-30.507S917.572,252.9,916.675,251Z" transform="translate(-717.324 -232.447)"/><path class="p" d="M917.595,251l7.232,6.223a12.457,12.457,0,0,1,2.467,11.436s-.785,10.315-1.682,10.764c0,0-3.139,6.279-3.364,12.221,0,0-4.429-8.914-6.337-3.756a10.144,10.144,0,0,1-6.111,6.337l2.467-30.495S918.492,252.9,917.595,251Z" transform="translate(-718.02 -232.447)"/><path class="l" d="M940.217,358.145s1.794-1.233,4.709,2.13l-7.176,13.006-2.411-3.639S940.442,359.6,940.217,358.145Z" transform="translate(-737.335 -313.309)"/><path class="d" d="M948.22,355.906s3.968,4.456,5.516,3.741l1.433-3.337L949.79,354Z" transform="translate(-747.075 -310.342)"/><path class="p" d="M948.22,354.986s3.968,4.456,5.516,3.741l1.433-3.337-5.379-2.311Z" transform="translate(-747.075 -309.646)"/><path class="d" d="M934.177,402.51s1.889,3.871,2.9,4.095l-1.462,1.682-2.13-4.036Z" transform="translate(-735.928 -347.028)"/><path class="n" d="M933.7,403s1.889,3.871,2.9,4.095l-1.463,1.682L933,404.733Z" transform="translate(-735.565 -347.398)"/><path class="d" d="M948.433,304.78s.224,8.073-.673,11.1" transform="translate(-746.728 -273.119)"/><path class="d" d="M876,306.35s1.345-.448,1.345-1.57" transform="translate(-692.459 -273.119)"/><path class="h" d="M194.453,316.76a45.233,45.233,0,0,0-2.194,28.867c4.2,15.646,2.864,34.368-1.321,39" transform="translate(-174.295 -282.179)"/><circle class="b" cx="1.762" cy="1.762" r="1.762" transform="translate(18.395 32.822)"/><path class="h" d="M194.79,347.869s6.625,1.194,8.387-1.219" transform="translate(-177.289 -304.783)"/><path class="h" d="M180.5,345.514s-3.985-4.409-3.766-7.054" transform="translate(-163.627 -298.589)"/><path class="h" d="M190.82,381.634s3.624.955,6.932-6.094" transform="translate(-174.287 -326.631)"/><path class="h" d="M169.931,395.017s-9.018-5.8-7.919-9.547" transform="translate(-152.43 -334.141)"/><path class="h" d="M200.57,417.382s6.318-5.606,5.657-11.122" transform="translate(-181.66 -349.863)"/><path class="h" d="M179.173,450s-8.044-2.247-7.8-5.772" transform="translate(-159.576 -378.579)"/><path class="h" d="M205.69,463.556s5.067-4.695,5.728-7.556" transform="translate(-185.532 -387.48)"/><path class="h" d="M190.321,491.353s-5.2-6.069-5.421-9.153" transform="translate(-169.81 -407.294)"/><path class="h" d="M207.14,510.737s5.818-6.464,6.257-9.547" transform="translate(-186.629 -421.655)"/><circle class="b" cx="1.762" cy="1.762" r="1.762" transform="translate(11.344 38.55)"/><circle class="b" cx="1.762" cy="1.762" r="1.762" transform="translate(9.362 63.889)"/><circle class="b" cx="1.762" cy="1.762" r="1.762" transform="translate(7.819 49.567)"/><circle class="b" cx="1.762" cy="1.762" r="1.762" transform="translate(24.126 40.092)"/><circle class="b" cx="1.762" cy="1.762" r="1.762" transform="translate(24.126 67.194)"/><circle class="b" cx="1.762" cy="1.762" r="1.762" transform="translate(21.262 47.144)"/><circle class="b" cx="1.762" cy="1.762" r="1.762" transform="translate(24.786 78.875)"/><circle class="b" cx="1.762" cy="1.762" r="1.762" transform="translate(12.887 74.246)"/><circle class="b" cx="1.762" cy="1.762" r="1.762" transform="translate(23.024 54.634)"/></g></svg>