<svg id="Component_5_1" data-name="Component 5 – 1" xmlns="http://www.w3.org/2000/svg" width="165.61" height="192.935" viewBox="0 0 165.61 192.935">
  <path id="Path_635" data-name="Path 635" d="M72.568,1.213C80.026-1.559,89.105.825,96.859,4.3c24.352,10.923,42.092,31.659,56.187,52.784,5.1,7.649,9.951,15.636,11.869,24.175,3.906,17.381-6.282,35.374-23.61,41.679-5.893,2.146-12.366,3.026-18.85,3.517-11.529.873-23.466.527-34.9-2.708A110.573,110.573,0,0,1,64.28,113.612C43.614,102.134,24.74,87.228,11.151,69.02,5.19,61.034.148,52.031,0,42.816s5.86-18.474,15.74-20.041c4.085-.647,8.406.026,12.621.72,6.206,1.022,12.5,2.1,18.632,1.651,6.338-.464,14.582-2.941,15.738-8.992C63.956,9.658,65.12,3.982,72.568,1.213Z" transform="matrix(0.259, -0.966, 0.966, 0.259, 0, 160.099)" fill="#00a0c6" opacity="0.1"/>
  <g id="undraw_profile_6l1l" transform="translate(10.61 38.291)">
    <line id="Line_10" data-name="Line 10" x2="24.886" transform="translate(0 111.125)" fill="none" stroke="#3f3d56" stroke-miterlimit="10" stroke-width="1"/>
    <rect id="Rectangle_282" data-name="Rectangle 282" width="110.487" height="74.808" rx="19.398" transform="translate(36.429 19.152)" fill="#f2f2f2"/>
    <rect id="Rectangle_283" data-name="Rectangle 283" width="110.487" height="74.808" rx="19.398" transform="translate(33.056 14.43)" fill="none" stroke="#3f3d56" stroke-miterlimit="10" stroke-width="1"/>
    <line id="Line_11" data-name="Line 11" x2="110.487" transform="translate(33.056 21.602)" fill="none" stroke="#3f3d56" stroke-miterlimit="10" stroke-width="1"/>
    <rect id="Rectangle_284" data-name="Rectangle 284" width="30.133" height="4.647" rx="2.324" transform="translate(99.094 38.416)" fill="#00a0c6" opacity="0.3"/>
    <rect id="Rectangle_285" data-name="Rectangle 285" width="41.676" height="3.748" rx="1.874" transform="translate(93.322 51.309)" fill="#00a0c6" opacity="0.3"/>
    <rect id="Rectangle_286" data-name="Rectangle 286" width="41.676" height="3.748" rx="1.874" transform="translate(93.322 61.503)" fill="#00a0c6" opacity="0.3"/>
    <rect id="Rectangle_287" data-name="Rectangle 287" width="41.676" height="3.748" rx="1.874" transform="translate(93.322 71.697)" fill="#00a0c6" opacity="0.3"/>
    <rect id="Rectangle_288" data-name="Rectangle 288" width="30.133" height="4.647" rx="2.324" transform="translate(100.593 36.917)" fill="none" stroke="#3f3d56" stroke-miterlimit="10" stroke-width="1"/>
    <rect id="Rectangle_289" data-name="Rectangle 289" width="41.676" height="3.748" rx="1.874" transform="translate(94.821 49.81)" fill="none" stroke="#3f3d56" stroke-miterlimit="10" stroke-width="1"/>
    <rect id="Rectangle_290" data-name="Rectangle 290" width="41.676" height="3.748" rx="1.874" transform="translate(94.821 60.004)" fill="none" stroke="#3f3d56" stroke-miterlimit="10" stroke-width="1"/>
    <rect id="Rectangle_291" data-name="Rectangle 291" width="41.676" height="3.748" rx="1.874" transform="translate(94.821 70.198)" fill="none" stroke="#3f3d56" stroke-miterlimit="10" stroke-width="1"/>
    <circle id="Ellipse_84" data-name="Ellipse 84" cx="2.249" cy="2.249" r="2.249" transform="translate(39.203 16.678)" fill="#00a0c6" opacity="0.3"/>
    <circle id="Ellipse_85" data-name="Ellipse 85" cx="2.249" cy="2.249" r="2.249" transform="translate(45.499 16.678)" fill="#00a0c6" opacity="0.3"/>
    <circle id="Ellipse_86" data-name="Ellipse 86" cx="2.249" cy="2.249" r="2.249" transform="translate(51.796 16.678)" fill="#00a0c6" opacity="0.3"/>
    <circle id="Ellipse_87" data-name="Ellipse 87" cx="2.249" cy="2.249" r="2.249" transform="translate(40.102 15.779)" fill="none" stroke="#3f3d56" stroke-miterlimit="10" stroke-width="1"/>
    <circle id="Ellipse_88" data-name="Ellipse 88" cx="2.249" cy="2.249" r="2.249" transform="translate(46.399 15.779)" fill="none" stroke="#3f3d56" stroke-miterlimit="10" stroke-width="1"/>
    <circle id="Ellipse_89" data-name="Ellipse 89" cx="2.249" cy="2.249" r="2.249" transform="translate(52.695 15.779)" fill="none" stroke="#3f3d56" stroke-miterlimit="10" stroke-width="1"/>
    <path id="Path_384" data-name="Path 384" d="M505.26,568.922a22.353,22.353,0,0,1-.35-5.751s-1.9-8.363-3.4-9.143h0c-.023.029-.75.982-.842,3.931a12.125,12.125,0,0,1-1.154,4.962,43.966,43.966,0,0,1,.147,6Z" transform="translate(-437.295 -482.833)" fill="#00a0c6"/>
    <path id="Path_385" data-name="Path 385" d="M414.113,298.379H379.564A3.564,3.564,0,0,0,376,301.943v46.092a3.564,3.564,0,0,0,3.564,3.564h12.121c-.4-1.679-.908-4.3-.4-6.124h0c.024-.085.049-.169.077-.25a9.518,9.518,0,0,0,.344-3.651,7.587,7.587,0,0,0,0-3.183c-.374-1.747-.637-3.464-.637-3.464a22.383,22.383,0,0,1-.026-3.724c0-.031.009-.061.013-.091l-.1-.023s.531-2.4.718-3.932c.044-.361.1-.819.165-1.306a3.141,3.141,0,0,1-.509-.129c-1.685-.593-2.216-5.96-2.216-5.96v-1.7s-.562-2.606,1.4-3.76a22.87,22.87,0,0,1,2.7-1.437l.043-.031a1.659,1.659,0,0,0,.493-.635q0-.064,0-.128a3.046,3.046,0,0,0-.859-1.648l-1.03-1.238a1.209,1.209,0,0,1-.265-.43.991.991,0,0,1-.028-.27q0-.05,0-.1.008-.461.025-.923c.01-.269.077-.608.34-.663.137-.029.318.021.39-.1a.235.235,0,0,0,.018-.159s0,.008,0,.012l0-.015a3.365,3.365,0,0,1-.1-.658.877.877,0,0,1,.042-.3c.152-.446.677-.629,1.141-.713a1.98,1.98,0,0,0,1.276-.527,4.059,4.059,0,0,1,.253-.356.994.994,0,0,1,.475-.239,2.623,2.623,0,0,1,1.725.153,1.52,1.52,0,0,0,.7.225c.256-.016.474-.2.726-.24a1.033,1.033,0,0,1,1,.6,1.477,1.477,0,0,1,.185.753,1.036,1.036,0,0,1-.264.711c-.175.186-.437.314-.51.559-.03.1-.023.207-.049.308,0,.013-.009.024-.013.036l.015.018a3.183,3.183,0,0,1-1.549,4.95c0,.032,0,.063,0,.095a1.375,1.375,0,0,0,.426,1.059l2.78,1.14s1.674-.2,2.278,2.3a4.322,4.322,0,0,1,.1,1.268,3.782,3.782,0,0,0,.458,1.9c.686,1.373.53,4.525-.874,4.837a4.468,4.468,0,0,1-1.9.157l0,.055c.022.591.232,5.692,1,6.309.211.171.171.286,0,.364h0s0,.033,0,.092a6.439,6.439,0,0,0,.652,2.6c.593.936.531,6.335.531,6.335l.405,3.183a7.083,7.083,0,0,0,0,2.309,51.26,51.26,0,0,1,.435,5.782h10.424a3.564,3.564,0,0,0,3.564-3.564V301.943A3.564,3.564,0,0,0,414.113,298.379Z" transform="translate(-332.3 -265.51)" fill="#00a0c6"/>
    <rect id="Rectangle_292" data-name="Rectangle 292" width="41.676" height="53.22" rx="20.838" transform="translate(40.102 28.822)" fill="none" stroke="#3f3d56" stroke-miterlimit="10" stroke-width="1"/>
    <path id="Path_386" data-name="Path 386" d="M175.278,399.774s-1.4-.413-1.7.036.409,3.71.409,3.71l3.08.187-1.075-2.714Z" transform="translate(-160.163 -351.557)" fill="#2f2e41"/>
    <path id="Path_387" data-name="Path 387" d="M100.109,579.347s2.8,6.153.644,5.96-3-5.96-3-5.96Z" transform="translate(-95.77 -504.357)" fill="#a0616a"/>
    <path id="Path_388" data-name="Path 388" d="M233.635,571.843s-1.229,6.648.818,5.938,1.464-6.508,1.464-6.508Z" transform="translate(-210.966 -497.493)" fill="#a0616a"/>
    <path id="Path_389" data-name="Path 389" d="M147.005,384.073s-.032,3.093,1.16,3.254-.676,1.8-.676,1.8l-2.126.419-3.06-.225-1.353-1.74s2.384-1.128,1.353-4.639Z" transform="translate(-132.486 -337.399)" fill="#a0616a"/>
    <path id="Path_390" data-name="Path 390" d="M147.005,384.073s-.032,3.093,1.16,3.254-.676,1.8-.676,1.8l-2.126.419-3.06-.225-1.353-1.74s2.384-1.128,1.353-4.639Z" transform="translate(-132.486 -337.399)" opacity="0.1"/>
    <path id="Path_391" data-name="Path 391" d="M139.45,564.917s1.514,3.254.322,13.465c0,0,.354,3.608.064,4.284s-2.674,9.857-2.674,9.857-3.06.677-3.479-1.353c0,0,.419-2.9.387-3.35s.676-5.38.676-5.38l-1.45-9.535-1.1,8.6a10.581,10.581,0,0,1-.354,3.028c-.354.548,0,11.565,0,11.565s1,1.675-.515,1.707-2.867-.032-3-1.1a9.881,9.881,0,0,0-.515-2.77c-.322-.644-.741-8.021-.644-10.6s-2.126-15.817-1.417-17.2S139.45,564.917,139.45,564.917Z" transform="translate(-119.455 -492.085)" fill="#2f2e41"/>
    <circle id="Ellipse_90" data-name="Ellipse 90" cx="3.866" cy="3.866" r="3.866" transform="translate(9.01 40.103)" fill="#a0616a"/>
    <path id="Path_392" data-name="Path 392" d="M133.277,408.106a6.114,6.114,0,0,0,5.766.354s1.128-.548,1.031-1.385,2.352,6.733,2.352,6.733l2.48,13.176-.129,5.38s-1.1-.548-4.51.676-8.988-1.385-8.988-1.385l.193-13.82.193-8.053.515-1.772S132.439,407.526,133.277,408.106Z" transform="translate(-124.266 -357.856)" fill="#f2f2f2"/>
    <path id="Path_393" data-name="Path 393" d="M182.063,399.877s.569-.092,1.117.777a4.656,4.656,0,0,0,1.836,1.417s3.125.193,3.576,1.868a41.584,41.584,0,0,1,2.126,8.182c.548,4.22,1.643,10.953,1.8,11.5s-.225,2.223.225,2.738-3.189.515-3.189.515-.322-2.641-.548-2.641-.161,1.772.064,3.06-1.643,0-1.643,0-1.45-5.9-2.835-11.21-2.191-8.247-1.933-9.439.966-4.607.451-4.929S182.063,399.877,182.063,399.877Z" transform="translate(-167.437 -351.789)" fill="#2f2e41"/>
    <path id="Path_394" data-name="Path 394" d="M98.779,399.874a35.093,35.093,0,0,0-2.968,1.972c-2.126,1.514-3.576,2.674-3.576,2.674s-.838.644-1.353,4.478-1.675,13.755-1.224,15.012a4.9,4.9,0,0,1,.451,2.738c-.161.741,3.382.709,3.447.548s-.1-3.093.064-3.157a6.737,6.737,0,0,1,1.192,3.254,3.781,3.781,0,0,0,2.448,2.706c.419,0,2.577-8.73,2.609-14.69s-.709-10.985-1.256-11.694S98.779,399.874,98.779,399.874Z" transform="translate(-88.798 -351.789)" fill="#2f2e41"/>
    <path id="Path_395" data-name="Path 395" d="M172.617,730.5a.908.908,0,0,1,1.16-.483,1.566,1.566,0,0,0,1.514-.58s.483-.065.161.548-.58,1.031-.58,1.031,1.933,4.413.676,5.476a2.694,2.694,0,0,1-2.706.419,4.26,4.26,0,0,1-1.353-3.64,5.885,5.885,0,0,0-.838-2.191c-.773-1.353-1.353-3.415-.419-3.8a5.061,5.061,0,0,1,1.175-.4s-.437,2,.692,2.7Z" transform="translate(-156.97 -629.768)" fill="#3f3d56"/>
    <path id="Path_396" data-name="Path 396" d="M143.575,774.547s-.773-1.45.515-1.611,2.674-.258,2.609.419-.226,1.707-.226,1.707l.226.741a7.5,7.5,0,0,0,.29,2.062c.225.225,1.45,2.158-1.16,2.158s-3.382-.29-3.157-.9a24.843,24.843,0,0,0,.29-3.64Z" transform="translate(-133.92 -668.824)" fill="#3f3d56"/>
    <path id="Path_397" data-name="Path 397" d="M132.2,335.246s1.8.483,2.738.677.838-.354.838-.354,1.224.161,1.16.032.515-.805-.161-1.578a1.485,1.485,0,0,1-.483-1.353h-.58l-.161-.225h-.9a5.557,5.557,0,0,0-2.448,0c-1.772.258-4.188.322-4.381,1.385s-1.192,2.384-.838,3,2.384,3.125,2.577,4.188,1.1,1.3,1.063.634-.934-2.985-.161-3.082S132.557,336.5,132.2,335.246Z" transform="translate(-120.551 -294.37)" fill="#2f2e41"/>
    <path id="Path_398" data-name="Path 398" d="M1001.078,86.584a3.445,3.445,0,0,0-2.97,2.076c-.743,1.8.214,3.9,1.649,5.213a28.03,28.03,0,0,0,4.954,3.041,13.279,13.279,0,0,1,5.4,5.508,8.149,8.149,0,0,1-.078,7.518c-1.228,2.087-3.462,3.336-5.592,4.488" transform="translate(-860.925 -85.466)" fill="none" stroke="#3f3d56" stroke-miterlimit="10" stroke-width="1"/>
    <ellipse id="Ellipse_91" data-name="Ellipse 91" cx="3" cy="1" rx="3" ry="1" transform="translate(139)" fill="#00a0c6"/>
    <ellipse id="Ellipse_92" data-name="Ellipse 92" cx="2.5" cy="1.5" rx="2.5" ry="1.5" transform="translate(141 8)" fill="#00a0c6"/>
    <ellipse id="Ellipse_93" data-name="Ellipse 93" cx="2.5" cy="1" rx="2.5" ry="1" transform="translate(137 10)" fill="#00a0c6"/>
    <ellipse id="Ellipse_94" data-name="Ellipse 94" cx="3" cy="1.5" rx="3" ry="1.5" transform="translate(144 17)" fill="#00a0c6"/>
    <ellipse id="Ellipse_95" data-name="Ellipse 95" cx="2.5" cy="1.5" rx="2.5" ry="1.5" transform="translate(150 17)" fill="#00a0c6"/>
  </g>
</svg>
