<svg id="Component_1_1" data-name="Component 1 – 1" xmlns="http://www.w3.org/2000/svg" xmlns:xlink="http://www.w3.org/1999/xlink" width="200.027" height="166.73" viewBox="0 0 200.027 166.73">
  <defs>
    <linearGradient id="linear-gradient" x1="0.5" y1="1" x2="0.5" gradientUnits="objectBoundingBox">
      <stop offset="0" stop-color="gray" stop-opacity="0.251"/>
      <stop offset="0.54" stop-color="gray" stop-opacity="0.122"/>
      <stop offset="1" stop-color="gray" stop-opacity="0.102"/>
    </linearGradient>
  </defs>
  <ellipse id="Ellipse_11" data-name="Ellipse 11" cx="20.435" cy="2.014" rx="20.435" ry="2.014" transform="translate(121.731 162.701)" fill="#00a0c6" opacity="0.1"/>
  <path id="Path_20" data-name="Path 20" d="M185.621,37.968c9-3.345,19.957-.468,29.314,3.728,29.388,13.183,50.8,38.207,67.808,63.7,6.159,9.231,12.009,18.869,14.324,29.175,4.714,20.975-7.582,42.69-28.493,50.3-7.111,2.59-14.924,3.652-22.749,4.244-13.914,1.054-28.32.636-42.122-3.268-9.843-2.79-19.154-7.277-28.085-12.234C150.678,159.762,127.9,141.773,111.5,119.8c-7.193-9.638-13.278-20.5-13.454-31.624s7.072-22.294,18.995-24.185c4.93-.781,10.144.032,15.231.869,7.49,1.233,15.082,2.531,22.486,1.993,7.649-.56,17.6-3.549,18.993-10.851C175.228,48.16,176.633,41.31,185.621,37.968Z" transform="translate(-98.044 -35.529)" fill="#00a0c6" opacity="0.1"/>
  <path id="Path_21" data-name="Path 21" d="M341.327,800.37s9.616-.58,8.482,6.159a1.641,1.641,0,0,1-.855,1.731s-.016-.5-.986-.331a4.342,4.342,0,0,1-1.044.052,2.178,2.178,0,0,1-1.277-.528h0s-2.7-1.116-3.754-5.535c0,0-.779-.963-.747-1.211l1.622.693a2.912,2.912,0,0,0-.118,2.144s.052-2.1.365-2.052c.062.01.843.4.843.4s-.954,2.038-.235,3.521c0,0-.273-2.513.532-3.373l1.144.667a5.036,5.036,0,0,0-.359,3.824s-.2-2.636.6-3.662l1.036.8s-1.048,2.076-.408,3.5c0,0,.082-3.071.632-3.3a6.21,6.21,0,0,1,1.044,1.128s-.717,1.506-.273,2.3c0,0,.273-2.044.5-2.054a6.833,6.833,0,0,1,1,2.283,4.931,4.931,0,0,0-.779-2.413,2.719,2.719,0,0,1,1.383.715s-.141-.958-1.6-1.042a6.272,6.272,0,0,0-.947-1.09,5.923,5.923,0,0,1,2.339.271,2.626,2.626,0,0,0-2.606-.494l-1.022-.833a8.408,8.408,0,0,1,2.73.028s-.934-.8-3-.217l-1.112-.665a10.055,10.055,0,0,1,2.608-.225,4,4,0,0,0-2.935.046l-.8-.357s1.2-.235,1.548-.273.369-.133.369-.133a4.146,4.146,0,0,0-2.25.249A9.242,9.242,0,0,1,341.327,800.37Z" transform="translate(-292.707 -647.182)" fill="#00a0c6"/>
  <ellipse id="Ellipse_12" data-name="Ellipse 12" cx="6.807" cy="1.15" rx="6.807" ry="1.15" transform="translate(48.438 160.517)" fill="#00a0c6" opacity="0.1"/>
  <path id="Path_22" data-name="Path 22" d="M276.984,777.642s5.422-.327,4.782,3.473a.922.922,0,0,1-.48.976s-.01-.281-.556-.185a2.418,2.418,0,0,1-.588.028,1.208,1.208,0,0,1-.721-.3h0a4.323,4.323,0,0,1-2.12-3.122s-.438-.544-.422-.683l.917.4a1.647,1.647,0,0,0-.068,1.21s.03-1.186.2-1.158c.036,0,.476.229.476.229a2.717,2.717,0,0,0-.131,1.993s-.155-1.417.3-1.9l.644.376a2.846,2.846,0,0,0-.2,2.156,4.046,4.046,0,0,1,.337-2.064l.584.454a2.737,2.737,0,0,0-.229,1.974s.046-1.731.357-1.861a3.551,3.551,0,0,1,.588.636s-.4.849-.153,1.3c0,0,.153-1.152.281-1.158a3.808,3.808,0,0,1,.56,1.287,2.788,2.788,0,0,0-.438-1.361,1.52,1.52,0,0,1,.779.4s-.078-.54-.9-.588a3.527,3.527,0,0,0-.532-.614,3.329,3.329,0,0,1,1.319.151,1.483,1.483,0,0,0-1.47-.279l-.576-.47a4.769,4.769,0,0,1,1.54.016,1.874,1.874,0,0,0-1.7-.121l-.626-.377a5.691,5.691,0,0,1,1.469-.125,2.248,2.248,0,0,0-1.654.026l-.448-.2s.675-.134.873-.154.209-.076.209-.076a2.352,2.352,0,0,0-1.269.142A5.252,5.252,0,0,1,276.984,777.642Z" transform="translate(-241.245 -628.986)" fill="#00a0c6"/>
  <ellipse id="Ellipse_13" data-name="Ellipse 13" cx="3.838" cy="0.65" rx="3.838" ry="0.65" transform="translate(35.636 152.784)" fill="#00a0c6" opacity="0.1"/>
  <path id="Path_23" data-name="Path 23" d="M946.337,795.965s6.546-.4,5.778,4.184a1.124,1.124,0,0,1-.582,1.18s-.012-.341-.671-.225a2.954,2.954,0,0,1-.711.034,1.466,1.466,0,0,1-.869-.359h0s-1.841-.759-2.557-3.768c0,0-.53-.655-.508-.823l1.1.47a1.986,1.986,0,0,0-.08,1.461s.036-1.431.247-1.395c.044,0,.574.275.574.275a3.259,3.259,0,0,0-.16,2.391s-.185-1.709.363-2.3l.777.452a3.429,3.429,0,0,0-.243,2.6,4.934,4.934,0,0,1,.4-2.493l.705.55a3.373,3.373,0,0,0-.279,2.391s.058-2.088.432-2.247a4.3,4.3,0,0,1,.709.767s-.488,1.026-.185,1.568c0,0,.185-1.395.339-1.395a4.631,4.631,0,0,1,.677,1.554,3.348,3.348,0,0,0-.528-1.642,1.851,1.851,0,0,1,.941.486s-.1-.652-1.094-.709a4.242,4.242,0,0,0-.642-.741,4.026,4.026,0,0,1,1.594.183,1.794,1.794,0,0,0-1.775-.335l-.7-.568a5.741,5.741,0,0,1,1.859.018,2.262,2.262,0,0,0-2.046-.147l-.757-.452a6.9,6.9,0,0,1,1.775-.153,2.714,2.714,0,0,0-1.992.032l-.542-.243s.815-.161,1.054-.185.251-.092.251-.092a2.83,2.83,0,0,0-1.53.169A6.629,6.629,0,0,1,946.337,795.965Z" transform="translate(-777.215 -643.657)" fill="#00a0c6"/>
  <ellipse id="Ellipse_14" data-name="Ellipse 14" cx="4.633" cy="0.783" rx="4.633" ry="0.783" transform="translate(168.996 157.297)" fill="#00a0c6" opacity="0.1"/>
  <path id="Path_24" data-name="Path 24" d="M723.7,426.542a14.238,14.238,0,0,1-.217-2.124c0-.855-1.162-1.612-1.162-1.612s-.717-1.66-1.2-1.9a14.634,14.634,0,0,1-1.955-2.417,1.975,1.975,0,0,0-.444-1.172,16.793,16.793,0,0,1-1.21-1.825h0c-.2-.243-.1-.414-.4-1.831-.016-.074-.034-.146-.056-.213a.28.28,0,0,0-.032-.092,2.391,2.391,0,0,0,.564-2.477,1,1,0,0,0-.283-.438c-.337-.275-.875-.161-1.221-.422l.369-1.63c.088-.4.133-.9-.215-1.118a1.81,1.81,0,0,0-.41-.137,1.936,1.936,0,0,1-1.1-1.439,4.927,4.927,0,0,1-.119-1.793c.068-.578.237-1.14.3-1.72a4.721,4.721,0,0,0-.731-3.057,2.351,2.351,0,0,0-.966-.913c-.368-.165-.8-.2-1.142-.4-.741-.472-.7-1.594-1.3-2.238a2.557,2.557,0,0,0-2.5-.42,7.555,7.555,0,0,1-2.606.5c-.57-.064-1.1-.323-1.676-.383a1.764,1.764,0,0,0-.49.022v-.018a1.063,1.063,0,0,0-.911.711,1.09,1.09,0,0,0-.028.291c0,.233.056.476.06.7a.666.666,0,0,1-.161.492c-.114.122-.281.185-.4.311a.5.5,0,0,0-.145.367c0,.355.442.667.739.811h.012c-.08.08-.159.163-.233.249a5.247,5.247,0,0,0-1.319,3.485,5.32,5.32,0,0,0,3.236,4.858l-.042.13a7.42,7.42,0,0,1-.293.753,1.493,1.493,0,0,0-1.251.14,3.161,3.161,0,0,1-1.981.293,26.9,26.9,0,0,0-3.636-.367c-.249.1-.741-.341-1.062.245s-.47.9-.8,1.05-.891.61-.815.707-.817.683-.817.683a4.062,4.062,0,0,1-1.212.9,7.119,7.119,0,0,0-1.385.709l-1.09.853s-.815.123-.568-.438-.446-1.269-.446-1.269a20.141,20.141,0,0,1-1.385-3.387,17.234,17.234,0,0,0-1.138-3.053l-.14-.014-.064-.181c-.209-.588-.48-1.309-.687-1.732-.4-.807-.643-.891-.643-.891s-4.8-3.6-7.914-2.5,5.689,4.37,6.48,4.712a1.494,1.494,0,0,1,.616.958,4.1,4.1,0,0,0-1.7,1.532s1.9,4.222,1.955,5.272a20.258,20.258,0,0,0,1.311,3.985,2.779,2.779,0,0,0,3.016,2.05s3.513.646,4.28,0a6.071,6.071,0,0,1,1.831-1.225,1.444,1.444,0,0,0,.691-.488s-1.162,7.323-1.732,7.958-5.605,8.857-3.8,10.327a36.126,36.126,0,0,0,4.525,2.989c.153.076.614-.691,1.271-1.236v.424c.012,2.925.4,7.372.932,8.369.8,1.465.47,4.3.47,4.3a3.388,3.388,0,0,0,1.337.321c.024.1.052.2.078.3a39.79,39.79,0,0,0,1.5,4.874,19.824,19.824,0,0,1,.939,4.274,29.681,29.681,0,0,1,.2,3.636,21.421,21.421,0,0,0,.49,3.188h0c-.2,2.289-.578,6.7-.642,8.3h0v.116c0,.018,0,.036,0,.054v.1h0a1.488,1.488,0,0,0,.012.3.974.974,0,0,1-.034.454,7.91,7.91,0,0,1-.536,1.279,6.117,6.117,0,0,0-.239.618,1.116,1.116,0,0,0-.578.821c-.247.952-.618,3.587-.618,3.587a6.493,6.493,0,0,1-.444,1.979,2.04,2.04,0,0,0,1.508,2.953,3.046,3.046,0,0,0,3.017-1.116l-.074-6.392v-.012a.958.958,0,0,0,.11-.173v-.016c.014-.03.03-.062.044-.1l.018-.048.032-.078a.113.113,0,0,1,0-.028,4.225,4.225,0,0,0,.179-1.9v-.269a.76.76,0,0,1,.012-.132v-.024l.012-.078v-.034a.147.147,0,0,1,.016-.08.078.078,0,0,1,0-.02c.02-.092.044-.2.07-.287v-.022l.03-.1h0c.03-.1.064-.2.1-.307v-.02a.278.278,0,0,1,.034-.094v-.012c.036-.1.074-.2.11-.283l.01-.026.032-.08.01-.024.076-.177h0l.584,1.8a4.555,4.555,0,0,1,.149,1.66c-.173.317.2,1.636.444,1.66l-.229,1.66a25.415,25.415,0,0,0-.221,2.76c-.016.106-.032.2-.044.263a5.989,5.989,0,0,0,.223,2.17c1.953,2.309,4.28.179,4.28.179s.271-1.221,0-1.465-.149-1.124-.149-1.124.124-2.174.147-3.76a4.969,4.969,0,0,0-1.3-2.989l-.074.066a4.691,4.691,0,0,1-.458-1.672c.1-.562-.273-6.494-.273-6.494a35.128,35.128,0,0,0,.088-4.782h0c.032-.269.062-.534.092-.8.15-1.275.271-2.365.319-2.937h0v-.068c.012-.153.018-.263.016-.315,0-.2,0-.426.02-.675.046-.685.153-1.449.153-1.449l.518-3.15a9.845,9.845,0,0,1,.966-2.391l.068-.108h0c.022-.038.044-.08.068-.124l.01-.018c.022-.042.046-.086.068-.131l.01-.018c.08-.157.165-.339.255-.538,0-.016.014-.03.02-.046l.068-.151a.155.155,0,0,1,.026-.06c.01-.02.042-.1.064-.151a.578.578,0,0,0,.026-.062c.026-.06.054-.121.08-.185L710,451.8c.018-.046.038-.092.058-.138l.048-.122c.014-.03.026-.06.038-.09l.054-.137c0-.02.018-.042.026-.062.142-.353.277-.7.4-1.018h0l.11-.287c1.267.078,2.128.147,2.128.147a29.2,29.2,0,0,0,.271-4.734,17.606,17.606,0,0,1,.313-3.786c.018-.1.034-.185.05-.265l.034.028c.62.488,1.064-1.124,1.064-1.124s-.167-1.5-.4-3.328l-.024-.181a9.36,9.36,0,0,0,1.082.165s.2-.018.472-.052a13.066,13.066,0,0,0,2.379,1.076l1.317-2.431a9.874,9.874,0,0,1,.867-1.441,13.14,13.14,0,0,0,1.781-2.343,8.251,8.251,0,0,1,.964-2.736A6.038,6.038,0,0,0,723.7,426.542Zm-5.491,1.855c-.52.219-1.014,1.441-1.038,1.807s-.57,1.977-1.138,2.172a7.583,7.583,0,0,0-1.684,1.247c-.163.014-.349.036-.542.068a18.962,18.962,0,0,0-.57-3.073c-.4-.733.436-3.076.436-3.076s.082-2.367.6-2.929.4-1.979.4-1.979.123-.586.173-.853.735,0,.741,0h0a3.242,3.242,0,0,1,1.534,1.829,10.5,10.5,0,0,0,1.658,3s-.223.659,0,1S718.727,428.178,718.207,428.4Z" transform="translate(-561.099 -322.608)" fill="url(#linear-gradient)"/>
  <path id="Path_25" data-name="Path 25" d="M707,450.117a3.985,3.985,0,0,1,3.985-1.877v2.851h-1.731l-1.355-.343Z" transform="translate(-585.663 -365.192)" fill="#4c4981"/>
  <path id="Path_26" data-name="Path 26" d="M707,450.117a3.985,3.985,0,0,1,3.985-1.877v2.851h-1.731l-1.355-.343Z" transform="translate(-585.663 -365.192)" opacity="0.1"/>
  <path id="Path_27" data-name="Path 27" d="M687.132,426.98l-2.122,1.486s-.018-.3-.072-.7c-.106-.769-.343-1.923-.855-2.146-.779-.343-9.453-3.606-6.376-4.7s7.8,2.5,7.8,2.5.243.084.631.887c.2.422.472,1.142.678,1.73C687,426.559,687.132,426.98,687.132,426.98Z" transform="translate(-561.681 -343.176)" fill="#ae6e79"/>
  <path id="Path_28" data-name="Path 28" d="M712.36,431.624l.241-.114.677.773-.554,1.182-.944-.379.219-.944Z" transform="translate(-569.956 -345.53)" fill="#4c4981"/>
  <path id="Path_29" data-name="Path 29" d="M788.154,811s-.61-.072-.853.879-.609,3.587-.609,3.587a6.482,6.482,0,0,1-.438,1.974c-.293.367-.584,2.656,1.486,2.947a3,3,0,0,0,2.973-1.114l-.073-6.39Z" transform="translate(-648.96 -655.699)" fill="#444053"/>
  <path id="Path_30" data-name="Path 30" d="M820.044,812.44a4.958,4.958,0,0,1,1.279,2.977c-.024,1.582-.148,3.752-.148,3.752s-.12.879.148,1.122,0,1.462,0,1.462-2.291,2.126-4.216-.179a6.1,6.1,0,0,1-.219-2.166c.155-.849.59-4.665.59-4.665Z" transform="translate(-673.626 -656.857)" fill="#444053"/>
  <path id="Path_31" data-name="Path 31" d="M800.627,660.821a40.681,40.681,0,0,1-1.877,4.531,9.751,9.751,0,0,0-.948,2.391l-.512,3.142a17.558,17.558,0,0,0-.172,2.12c.024.707-1.267,11.013-1.267,11.013l-2.047,2.608a6.686,6.686,0,0,0-.755,2.59,3.763,3.763,0,0,1-.4,2.339s-.048,2.391-.121,2.923.269,2.049,0,2.315-3.85.147-3.948-.293a13.021,13.021,0,0,1,.439-2.559l.317-2.046s.634-1.12.488-1.487.267-1.217.291-1.291.683-1.267.562-1.729.767-10.294.767-10.294l2.509-17.616Z" transform="translate(-650.981 -534.375)" fill="#ae6e79"/>
  <path id="Path_32" data-name="Path 32" d="M800.627,660.837s-.2.554-.472,1.281a24.788,24.788,0,0,1-1.4,3.25,9.889,9.889,0,0,0-.95,2.391l-.512,3.144a17.678,17.678,0,0,0-.169,2.12c0,.279-.187,2.058-.426,4.109-.369,3.134-.841,6.9-.841,6.9l-2.047,2.608s-.1.2-.233.514a4.774,4.774,0,0,0-.522,2.068,3.777,3.777,0,0,1-.4,2.339s-.05,2.391-.121,2.923.269,2.046,0,2.315-3.85.147-3.948-.291a13.049,13.049,0,0,1,.439-2.558l.317-2.048s.634-1.12.486-1.487.269-1.218.293-1.291.683-1.267.562-1.73c-.094-.353.4-6.125.628-8.863.078-.861.127-1.421.127-1.421l2.158-15.155.175-1.221.175-1.239Z" transform="translate(-650.981 -534.391)" opacity="0.1"/>
  <path id="Path_33" data-name="Path 33" d="M795.56,702.332c.022.269-3.437.66-3.931.367s0-3.923,0-3.923l.225-1.656c-.241-.026-.608-1.341-.438-1.658a4.64,4.64,0,0,0-.146-1.656l-.574-1.793-.351-1.1a48.758,48.758,0,0,1-1.907-7.522,21.821,21.821,0,0,1-.482-3.176,30.09,30.09,0,0,0-.2-3.63,20.612,20.612,0,0,0-.924-4.264,40.177,40.177,0,0,1-1.482-4.864c-.219-.843-.371-1.449-.371-1.449s3.682-.309,5.916-.416c1.026-.05,1.747-.056,1.664.028a3.029,3.029,0,0,0-.1,1.176,30.713,30.713,0,0,0,.49,5.4,18.653,18.653,0,0,1,.536,4.7,14.836,14.836,0,0,0-.1,2.437,10.976,10.976,0,0,1,.43,2.644,35.812,35.812,0,0,1-.084,4.76s.365,5.922.267,6.482.779,2.315.779,2.656.243,2.656.243,2.656S795.544,702.065,795.56,702.332Z" transform="translate(-648.106 -539.241)" fill="#ae6e79"/>
  <path id="Path_34" data-name="Path 34" d="M811.008,451.468l-.418.452-.273.295-1.594,1.714-4.119.464-2.192-.586-.542-.146s0-1.1.1-2.419c.14-1.692.472-3.746,1.267-4.306a3.166,3.166,0,0,0,.927-1.174,6.586,6.586,0,0,0,.4-.984c.016-.044.028-.086.042-.129a11,11,0,0,0,.387-1.807s.526-.291,1.257-.63c1.907-.891,5.2-2.12,4.055.63a10.822,10.822,0,0,0-.431,1.235c-.018.062-.034.123-.048.183a4,4,0,0,0,.155,2.971h0a1.832,1.832,0,0,0,.165.253,1.326,1.326,0,0,0,.277.281l.474,3.011.04.249Z" transform="translate(-661.63 -359.551)" fill="#ae6e79"/>
  <path id="Path_35" data-name="Path 35" d="M821.121,443.58c-.217.522.105-.426,0,0-.869.618-2.915,2.377-4.065,2.377a3.2,3.2,0,0,1-1.676-.442,10.861,10.861,0,0,0,.428-1.935S822.7,439.778,821.121,443.58Z" transform="translate(-672.448 -360.14)" opacity="0.1"/>
  <path id="Path_36" data-name="Path 36" d="M810.3,412.952a5.316,5.316,0,0,1-4.756,5.282c-.183.018-.369.03-.556.03a5.312,5.312,0,1,1,5.312-5.312Z" transform="translate(-659.877 -332.715)" fill="#ae6e79"/>
  <path id="Path_37" data-name="Path 37" d="M803.94,499.679l-.757,1.975s-.616.026-1.576.056c-3.242.1-10.385.235-10.7-.6a2.113,2.113,0,0,1-.112-.656,12.847,12.847,0,0,1,.55-3.218s.341-3.9.341-4.069-.293-2.9-.293-2.9l.586-2.192,1.632-1.146s.731,1.122,1.17,1.217a3.04,3.04,0,0,1,1.024.636s1.437.877,1.9.389,4.069-2.632,4.069-2.632l1.9,2.1Z" transform="translate(-652.758 -395.893)" opacity="0.1"/>
  <path id="Path_38" data-name="Path 38" d="M803.964,501.2l-.757,1.973s-.616.028-1.576.058h-.094c-.414.014-.889.028-1.395.038a59.99,59.99,0,0,1-7.98-.2c-.7-.1-1.154-.243-1.229-.438a1.755,1.755,0,0,1-.088-.363c-.012-.092-.02-.2-.024-.293a12.843,12.843,0,0,1,.55-3.218s.341-3.9.341-4.069-.293-2.9-.293-2.9l.586-2.192,1.122-.785.51-.359a7.66,7.66,0,0,0,.56.737,1.49,1.49,0,0,0,.61.48,3.048,3.048,0,0,1,1.024.636s1.437.877,1.9.389a36.948,36.948,0,0,1,3.557-2.325c.311-.189.512-.307.512-.307l.255.283,1.646,1.813Z" transform="translate(-652.782 -397.111)" fill="#fff"/>
  <path id="Path_39" data-name="Path 39" d="M718.834,448.38l-2.122,1.487s-.018-.3-.072-.7a4.3,4.3,0,0,0,1.869-1.734C718.7,447.96,718.834,448.38,718.834,448.38Z" transform="translate(-593.382 -364.576)" opacity="0.1"/>
  <path id="Path_40" data-name="Path 40" d="M718.522,454.21l-.462-.123a4.017,4.017,0,0,1-1.2.9,6.973,6.973,0,0,0-1.363.705l-1.074.853s-.8.124-.56-.438-.438-1.267-.438-1.267a20.1,20.1,0,0,1-1.365-3.387,17.03,17.03,0,0,0-1.128-3.045s-1.415,2.754-4,1.877c0,0,1.877,4.214,1.925,5.262a20.23,20.23,0,0,0,1.291,3.971,2.751,2.751,0,0,0,2.973,2.048s3.461.644,4.216,0a6.111,6.111,0,0,1,1.793-1.223,1.479,1.479,0,0,0,.682-.486v-2.9Z" transform="translate(-585.615 -365.361)" fill="#4c4981"/>
  <path id="Path_41" data-name="Path 41" d="M743.3,491.33s.61,2.267.219,2.51Z" transform="translate(-614.73 -399.729)" opacity="0.1"/>
  <path id="Path_42" data-name="Path 42" d="M801.616,559.1c-3.242.1-10.385.233-10.7-.6a2.116,2.116,0,0,1-.111-.656l10.59.558Z" transform="translate(-652.766 -452.995)" opacity="0.1"/>
  <path id="Path_43" data-name="Path 43" d="M797.768,660.821s-.2.554-.472,1.281c-1.345-.082-3.126-.167-4.818-.179-.6,0-1.184,0-1.737.02a13.1,13.1,0,0,0-2.839.315,7.531,7.531,0,0,1-2.531.327c-.219-.843-.371-1.449-.371-1.449s3.682-.309,5.916-.416l.175-1.239Z" transform="translate(-648.122 -534.375)" opacity="0.1"/>
  <path id="Path_44" data-name="Path 44" d="M790.955,571.588l-.415.877s-.058.261-.131.675a17.271,17.271,0,0,0-.307,3.786,29.957,29.957,0,0,1-.269,4.726s-8.966-.755-11.6,0-3.925,0-3.925,0,.319-2.825-.462-4.288c-.532-1-.906-5.444-.919-8.369a7.378,7.378,0,0,1,.237-2.578c.536-.657,2.825-7.237,2.825-7.237l.522.028,1.395.074,7.93.418,1.245.066.132.4Z" transform="translate(-638.457 -454.06)" fill="#444053"/>
  <path id="Path_45" data-name="Path 45" d="M868.485,592.821l.074.781s-3.927-1.279-3.728-2.852,0-1.395,0-1.395l3.156.267Z" transform="translate(-712.04 -478.218)" fill="#4c4981"/>
  <path id="Path_46" data-name="Path 46" d="M868.485,592.821l.074.781s-3.927-1.279-3.728-2.852,0-1.395,0-1.395l3.156.267Z" transform="translate(-712.04 -478.218)" opacity="0.1"/>
  <path id="Path_47" data-name="Path 47" d="M754.056,491.943a3.5,3.5,0,0,0,1.383.719.9.9,0,0,1-.4-.2c-.281-.2-.548-.417-.819-.628a2.57,2.57,0,0,0-.761-.526A4.2,4.2,0,0,0,754.056,491.943Z" transform="translate(-622.866 -399.713)" opacity="0.1"/>
  <path id="Path_48" data-name="Path 48" d="M752.4,495.728a1.758,1.758,0,0,1,.3.48,2.905,2.905,0,0,1-.022,1.508l-.63-1.518c-.11-.259-.219-.518-.351-.765-.058-.106-.421-.546-.379-.638C751.438,494.536,752.287,495.582,752.4,495.728Z" transform="translate(-621.155 -402.471)" opacity="0.1"/>
  <path id="Path_49" data-name="Path 49" d="M834.783,539.686a2.029,2.029,0,0,0,1.146-.536c-.648.082-1.261.337-1.9.47a2.82,2.82,0,0,1-1.77-.163A4.352,4.352,0,0,0,834.783,539.686Z" transform="translate(-685.965 -438.021)" opacity="0.1"/>
  <path id="Path_50" data-name="Path 50" d="M822.966,511.707a.444.444,0,0,1-.329-.082q-.729-.418-1.438-.873a9.562,9.562,0,0,1-1.409-.972A7.167,7.167,0,0,0,822.966,511.707Z" transform="translate(-675.98 -414.503)" opacity="0.1"/>
  <path id="Path_51" data-name="Path 51" d="M837.185,543.456a3.035,3.035,0,0,0,.761-.062,1.021,1.021,0,0,0,.626-.41.357.357,0,0,0-.265.042,4.472,4.472,0,0,1-2.447.293A3.531,3.531,0,0,0,837.185,543.456Z" transform="translate(-688.847 -441.083)" opacity="0.1"/>
  <path id="Path_52" data-name="Path 52" d="M794.426,601.321a7.991,7.991,0,0,1-1.556.3,9.4,9.4,0,0,1-1.231-.024l-1.993-.126-1-.064c-.118,0-.6,0-.361-.237.12-.116.785-.042.957-.048q.5-.016,1-.018c.659,0,1.321,0,1.98.04C792.962,601.186,793.689,601.242,794.426,601.321Z" transform="translate(-650.703 -487.635)" opacity="0.1"/>
  <path id="Path_53" data-name="Path 53" d="M789.415,606.375a8.039,8.039,0,0,0-1.124.231,7.489,7.489,0,0,1-1.176.046,6.556,6.556,0,0,1-2.265-.462C786.37,606.268,787.895,606.314,789.415,606.375Z" transform="translate(-648.002 -491.703)" opacity="0.1"/>
  <path id="Path_54" data-name="Path 54" d="M783.552,612.1a3.28,3.28,0,0,1,.434.119,5.1,5.1,0,0,0,2.59-.183,1.521,1.521,0,0,1-.982.546,4.557,4.557,0,0,1-1.913.07c-.2-.04-.7-.112-.8-.319C782.721,612.032,783.365,612.074,783.552,612.1Z" transform="translate(-646.406 -496.387)" opacity="0.1"/>
  <path id="Path_55" data-name="Path 55" d="M804.963,618.488a6.515,6.515,0,0,1,.745.2,6.3,6.3,0,0,0,2.879-.3,13.4,13.4,0,0,1,3.485-.323,3.45,3.45,0,0,0-.747.245c-.269.082-.542.157-.815.225-.536.131-1.08.239-1.628.317a16.728,16.728,0,0,1-3.342.145,4.843,4.843,0,0,1-1.831-.233A2.018,2.018,0,0,1,804.963,618.488Z" transform="translate(-663.104 -501.2)" opacity="0.1"/>
  <path id="Path_56" data-name="Path 56" d="M780.673,464.874a12.872,12.872,0,0,1-.317,3.268c-.116.319-.295.907-.49,1.566-.213.731-.446,1.55-.626,2.192s-.3,1.072-.3,1.072-.823,6.7-1.036,9.9a.788.788,0,0,1-.012.167c-.012.179-.032.367-.062.56-.474,3.172-3.21,8.064-4.128,8.454a2.731,2.731,0,0,0-.773.532,7.379,7.379,0,0,1,.237-2.578c.536-.657,2.826-7.237,2.826-7.237l.522.028c-.012-.092-.02-.2-.024-.293a12.847,12.847,0,0,1,.55-3.218s.341-3.9.341-4.069-.293-2.9-.293-2.9l.586-2.192,1.122-.785c.14-1.692.472-3.746,1.267-4.306a3.167,3.167,0,0,0,.926-1.174c.157.022-.13-.118-.13-.118Z" transform="translate(-638.457 -377.636)" opacity="0.1"/>
  <path id="Path_57" data-name="Path 57" d="M756.654,462.806a1.451,1.451,0,0,0-1.233.139,3.083,3.083,0,0,1-1.951.293,26.452,26.452,0,0,0-3.587-.367c-.249.1-.731-.341-1.048.245s-.462.9-.779,1.046-.879.61-.8.707-.8.681-.8.681l1.777,5.778s-1.146,7.309-1.706,7.942-5.531,8.845-3.752,10.307a35.4,35.4,0,0,0,4.459,2.989c.2.1.9-1.218,1.875-1.632s4-5.9,4.184-9.016,1.048-10.062,1.048-10.062,1.048-3.8,1.413-4.826a12.87,12.87,0,0,0,.317-3.268Z" transform="translate(-614.009 -376.826)" fill="#4c4981"/>
  <path id="Path_58" data-name="Path 58" d="M842.563,502.155l-.414.877s-.058.261-.131.675a.373.373,0,0,1-.2-.09c-.61-.488-4.184-4.166-4.362-7.432-.125-2.409-.066-4.485-.026-5.41.012-.291.024-.466.024-.5h0s2.778-3.364,2.461-4.555-1.048-7.572-1.048-7.572l-.108-.837-.185-1.415-.442-3.423.458.108a1.33,1.33,0,0,0,.277.281l.474,3.011,1.646,1.813.269,11.039-.757,1.973s-.616.028-1.576.058h-.094Z" transform="translate(-690.065 -384.627)" opacity="0.1"/>
  <path id="Path_59" data-name="Path 59" d="M845.169,483.348s-.682-.269-.729,0-.171.851-.171.851.121,1.415-.4,1.975-.6,2.923-.6,2.923-.821,2.339-.432,3.07a19.706,19.706,0,0,1,.58,3.188c.139,1,.277,2.09.4,3.09.221,1.817.386,3.322.386,3.322s-.44,1.608-1.05,1.12-4.184-4.166-4.36-7.432c-.12-2.293-.072-4.286-.032-5.268.016-.416.032-.652.032-.652s2.777-3.363,2.461-4.557-1.048-7.572-1.048-7.572l-.128-.986-.138-1.06-.032-.233-.44-3.387h0a15.149,15.149,0,0,1,3.172,1,10.9,10.9,0,0,0,2.59.877,1.949,1.949,0,0,1,1.383,1.419c.022.068.038.139.054.213.293,1.415.2,1.584.4,1.829S845.169,483.348,845.169,483.348Z" transform="translate(-691.137 -384.042)" fill="#4c4981"/>
  <path id="Path_60" data-name="Path 60" d="M854.579,593.34c-1-.2-2.475-.66-2.441-1.676.03-.95,1.174-1.293,2.04-1.415C854.318,591.242,854.455,592.34,854.579,593.34Z" transform="translate(-701.881 -478.939)" opacity="0.1"/>
  <path id="Path_61" data-name="Path 61" d="M858.254,591.969c-.04.086-.2.159-.426.225a11.522,11.522,0,0,1-1.62.265s-3.387-.269-3.339-1.805c.036-1.1,1.566-1.4,2.425-1.461a5.573,5.573,0,0,1,.572-.024S858.4,591.654,858.254,591.969Z" transform="translate(-702.466 -478.073)" fill="#ae6e79"/>
  <path id="Path_62" data-name="Path 62" d="M867.264,591.969c-.04.086-.2.159-.426.225-.883-1.182-2.114-2.7-2.718-2.831l.183-.169a5.573,5.573,0,0,1,.572-.024S867.41,591.654,867.264,591.969Z" transform="translate(-711.477 -478.073)" opacity="0.1"/>
  <path id="Path_63" data-name="Path 63" d="M867,497.69l1,.147a17.344,17.344,0,0,0,1.2,1.827,1.992,1.992,0,0,1,.438,1.17,14.967,14.967,0,0,0,1.925,2.411c.462.243,1.169,1.9,1.169,1.9s1.146.755,1.146,1.608a14.333,14.333,0,0,0,.219,2.12,6.016,6.016,0,0,1-.657,2.391,8.162,8.162,0,0,0-.951,2.726,12.9,12.9,0,0,1-1.753,2.339,9.9,9.9,0,0,0-.853,1.439l-1.291,2.437s-2.73-4.021-3.728-4.24a7.843,7.843,0,0,1,1.68-1.267c.56-.2,1.1-1.793,1.122-2.168s.512-1.584,1.022-1.793.781-.438.562-.781a1.456,1.456,0,0,1,0-1,10.524,10.524,0,0,1-1.634-2.989,3.253,3.253,0,0,0-1.51-1.827l-.755-1.853Z" transform="translate(-712.069 -404.822)" fill="#4c4981"/>
  <path id="Path_64" data-name="Path 64" d="M890.151,540.345a3.162,3.162,0,0,1,1.967-.745,2.4,2.4,0,0,0-1.287.5,3.057,3.057,0,0,0-.357.454c-.115.165-1.056,1.361-1.2,1.172C889.045,541.453,889.962,540.507,890.151,540.345Z" transform="translate(-731.592 -438.381)" opacity="0.1"/>
  <path id="Path_65" data-name="Path 65" d="M882.73,521.967a.842.842,0,0,0,.7-.492,2.764,2.764,0,0,0,.217-.865,12.853,12.853,0,0,1,.3-1.481.686.686,0,0,0-.042-.6,2.016,2.016,0,0,0-.215-.442,2.657,2.657,0,0,0-.3.93c-.092.331-.175.664-.255,1C883.084,520.176,882.754,521.967,882.73,521.967Z" transform="translate(-726.378 -421.157)" opacity="0.1"/>
  <path id="Path_66" data-name="Path 66" d="M820.506,423.7a2.058,2.058,0,0,1-.337.347c-.4.317-.927.584-.977,1.084a1.162,1.162,0,0,1-.06.48c-.127.219-.44.2-.689.157a1.2,1.2,0,0,1-.584-.215c-.261-.223-.285-.622-.484-.9a1.229,1.229,0,0,0-1-.44c-.372-.012-.743.072-1.116.088a3.069,3.069,0,0,1-.715-.048,2.272,2.272,0,0,1-.231-.048,2.97,2.97,0,0,1-.486-.165,2.15,2.15,0,0,1-.237-.111,3.149,3.149,0,0,1-.687-.478,1.71,1.71,0,0,1-.638-1.293c.018-.3.156-.586.2-.887a2.779,2.779,0,0,0-1.042-2.289c-.247-.245-.51-.482-.757-.731a3.645,3.645,0,0,1-.891-1.271,3.784,3.784,0,0,1-.159-1.594,11,11,0,0,0,.046-1.638c-.183-1.937-1.837-3.421-3.491-4.228l-.074-.038a5.31,5.31,0,1,1,7.143,7.771c-.018.062-.034.124-.048.183a4,4,0,0,0,.155,2.971h0a15.15,15.15,0,0,1,3.172,1,10.9,10.9,0,0,0,2.59.877A1.949,1.949,0,0,1,820.506,423.7Z" transform="translate(-665.017 -332.728)" opacity="0.1"/>
  <path id="Path_67" data-name="Path 67" d="M803.761,398.583c.11-.126.275-.189.386-.311.345-.375,0-.986.126-1.48a1.23,1.23,0,0,1,1.371-.729c.562.058,1.088.317,1.65.381a7.26,7.26,0,0,0,2.568-.5,2.47,2.47,0,0,1,2.465.418c.586.652.546,1.761,1.275,2.234a7.237,7.237,0,0,0,1.126.4,2.315,2.315,0,0,1,.953.911,4.772,4.772,0,0,1,.721,3.051c-.062.578-.229,1.14-.3,1.718a5,5,0,0,0,.12,1.793,1.911,1.911,0,0,0,1.082,1.435,1.822,1.822,0,0,1,.4.138c.345.215.3.721.211,1.116l-.354,1.636c.341.259.871.147,1.2.42a1,1,0,0,1,.279.438,2.391,2.391,0,0,1-.715,2.618c-.4.317-.927.584-.976,1.082a1.124,1.124,0,0,1-.06.48c-.125.219-.44.2-.689.158a1.2,1.2,0,0,1-.582-.215c-.263-.223-.285-.622-.484-.9a1.233,1.233,0,0,0-1-.44c-.375-.012-.743.072-1.118.09a3.3,3.3,0,0,1-2.349-.849,1.715,1.715,0,0,1-.64-1.3c.018-.3.155-.586.2-.887a2.788,2.788,0,0,0-1.042-2.289,6.074,6.074,0,0,1-1.65-2c-.379-1.014-.012-2.146-.114-3.222-.183-1.939-1.835-3.421-3.491-4.23C803.96,399.552,803.332,399.071,803.761,398.583Z" transform="translate(-663.029 -323.237)" fill="#444053"/>
  <path id="Path_68" data-name="Path 68" d="M816.729,416.362c-.263-.225-.285-.622-.484-.9a1.238,1.238,0,0,0-1-.442c-.375-.012-.745.072-1.118.09a3.294,3.294,0,0,1-2.357-.851,1.709,1.709,0,0,1-.638-1.293c.018-.3.156-.588.2-.887a2.783,2.783,0,0,0-1.042-2.291,6.1,6.1,0,0,1-1.65-2c-.377-1.012,0-2.144-.111-3.222-.185-1.939-1.837-3.421-3.491-4.23-.387-.189-1.014-.67-.586-1.158.108-.126.273-.189.385-.311.345-.373,0-.986.127-1.479a.818.818,0,0,1,.125-.273,1.062,1.062,0,0,0-.9.711c-.122.494.219,1.106-.126,1.48-.112.122-.277.185-.387.309-.428.488.2.97.586,1.158,1.656.809,3.307,2.293,3.491,4.23.1,1.078-.265,2.21.114,3.224a6.012,6.012,0,0,0,1.65,2,2.759,2.759,0,0,1,1.042,2.289,7.644,7.644,0,0,0-.2.887,1.71,1.71,0,0,0,.64,1.293,3.286,3.286,0,0,0,2.355.851c.375-.018.743-.1,1.118-.09a1.24,1.24,0,0,1,1,.442c.2.281.221.679.484.9a1.2,1.2,0,0,0,.582.213c.249.046.564.062.689-.155a.539.539,0,0,0,.056-.287A1.144,1.144,0,0,1,816.729,416.362Z" transform="translate(-662.966 -324.283)" opacity="0.1"/>
  <path id="Path_69" data-name="Path 69" d="M588.972,111.847H575.189V98.266h13.792Zm-.2-20.477H575.389c0-21.1,20.061-19.872,20.061-33.224A13.306,13.306,0,0,0,582.076,44.9,13.65,13.65,0,0,0,568.7,58.356H555.33a26.746,26.746,0,0,1,53.492-.209c0,16.7-20.059,18.6-20.059,33.224Z" transform="translate(-464.214 -31.61)" fill="#00a0c6"/>
  <path id="Path_70" data-name="Path 70" d="M344.363,330.726h-3.555v-3.511h3.555Zm-.054-5.28h-3.447c0-5.44,5.171-5.123,5.171-8.568a3.431,3.431,0,0,0-3.447-3.417,3.521,3.521,0,0,0-3.439,3.467H335.7a6.9,6.9,0,1,1,13.791-.054c-.011,4.3-5.182,4.794-5.182,8.564Z" transform="translate(-288.346 -254.534)" fill="#00a0c6" opacity="0.1"/>
  <path id="Path_71" data-name="Path 71" d="M479.379,453.168h-3.555v-3.5h3.555Zm-.052-5.278H475.88c0-5.442,5.171-5.123,5.171-8.568a3.429,3.429,0,0,0-3.447-3.415,3.521,3.521,0,0,0-3.457,3.471H470.7a6.9,6.9,0,1,1,13.791-.054C484.5,443.628,479.327,444.12,479.327,447.89Z" transform="translate(-396.447 -352.585)" fill="#00a0c6" opacity="0.1"/>
  <path id="Path_72" data-name="Path 72" d="M571.144,259.382h-2.576v-2.533h2.576Zm-.038-3.828h-2.5c0-3.941,3.748-3.712,3.748-6.207a2.487,2.487,0,0,0-2.5-2.475,2.55,2.55,0,0,0-2.5,2.515h-2.5a5,5,0,0,1,9.995-.04C574.85,252.466,571.107,252.822,571.107,255.554Z" transform="translate(-471.845 -201.977)" fill="#00a0c6" opacity="0.1"/>
  <path id="Path_73" data-name="Path 73" d="M802.93,303.865h-1.456V302.43h1.456Zm-.022-2.162h-1.421c0-2.228,2.118-2.1,2.118-3.509A1.395,1.395,0,0,0,802.2,296.8a1.442,1.442,0,0,0-1.413,1.421H799.37a2.825,2.825,0,0,1,5.649-.022C805.027,299.949,802.909,300.158,802.909,301.7Z" transform="translate(-659.628 -242.885)" fill="#00a0c6" opacity="0.1"/>
  <path id="Path_74" data-name="Path 74" d="M914.723,631.335h-1.457V629.9h1.457Zm-.022-2.162h-1.413c0-2.23,2.12-2.1,2.12-3.509A1.4,1.4,0,0,0,914,624.27a1.441,1.441,0,0,0-1.413,1.421H911.17a2.825,2.825,0,0,1,5.649-.022c.008,1.76-2.11,1.961-2.11,3.5Z" transform="translate(-749.152 -505.106)" fill="#00a0c6" opacity="0.1"/>
</svg>
