<svg id="undraw_Savings_dwkw" xmlns="http://www.w3.org/2000/svg" xmlns:xlink="http://www.w3.org/1999/xlink" width="222.343" height="159.661" viewBox="0 0 222.343 159.661">
  <defs>
    <linearGradient id="linear-gradient" x1="0.5" y1="1" x2="0.5" gradientUnits="objectBoundingBox">
      <stop offset="0" stop-color="gray" stop-opacity="0.251"/>
      <stop offset="0.535" stop-color="gray" stop-opacity="0.122"/>
      <stop offset="1" stop-color="gray" stop-opacity="0.102"/>
    </linearGradient>
  </defs>
  <ellipse id="Ellipse_34" data-name="Ellipse 34" cx="111.171" cy="13.513" rx="111.171" ry="13.513" transform="translate(0 132.635)" fill="#00a0c6" opacity="0.1"/>
  <path id="Path_126" data-name="Path 126" d="M997.486,708.694s5.8-7.378,5.329-14.7a14.217,14.217,0,0,1,2.237-8.711,23.916,23.916,0,0,1,2.724-3.42" transform="translate(-807.265 -555.922)" fill="none" stroke="#535461" stroke-miterlimit="10" stroke-width="2"/>
  <path id="Path_127" data-name="Path 127" d="M1047.353,653.594c-.409,1.025.261,4.736.261,4.736s3.041-2.231,3.45-3.256a2,2,0,1,0-3.71-1.48Z" transform="translate(-847.108 -532.266)" fill="#00a0c6"/>
  <path id="Path_128" data-name="Path 128" d="M1020.925,671.439c.214,1.082,2.793,3.834,2.793,3.834s1.34-3.525,1.126-4.608a2,2,0,0,0-3.919.774Z" transform="translate(-826.011 -545.659)" fill="#00a0c6"/>
  <path id="Path_129" data-name="Path 129" d="M1000.275,716.706c.731.826,4.346,1.9,4.346,1.9s-.623-3.72-1.354-4.546a2,2,0,1,0-2.992,2.647Z" transform="translate(-809.098 -581.174)" fill="#00a0c6"/>
  <path id="Path_130" data-name="Path 130" d="M995.231,758.1c.581.938,3.963,2.607,3.963,2.607s.014-3.771-.566-4.709a2,2,0,1,0-3.4,2.1Z" transform="translate(-805.218 -614.555)" fill="#00a0c6"/>
  <path id="Path_131" data-name="Path 131" d="M1035.223,693.65c-1.02.421-4.739-.206-4.739-.206s2.2-3.067,3.215-3.487a2,2,0,0,1,1.524,3.693Z" transform="translate(-833.7 -562.283)" fill="#00a0c6"/>
  <path id="Path_132" data-name="Path 132" d="M1028.9,740.121c-1.1.1-4.46-1.614-4.46-1.614s3.012-2.269,4.111-2.365a2,2,0,1,1,.349,3.98Z" transform="translate(-828.855 -599.398)" fill="#00a0c6"/>
  <path id="Path_133" data-name="Path 133" d="M1014.542,785.088c-1.067.281-4.669-.837-4.669-.837s2.586-2.746,3.653-3.026a2,2,0,1,1,1.016,3.864Z" transform="translate(-817.188 -635.468)" fill="#00a0c6"/>
  <path id="Path_134" data-name="Path 134" d="M1047.353,653.594c-.409,1.025.261,4.736.261,4.736s3.041-2.231,3.45-3.256a2,2,0,1,0-3.71-1.48Z" transform="translate(-847.108 -532.266)" opacity="0.25"/>
  <path id="Path_135" data-name="Path 135" d="M1020.925,671.439c.214,1.082,2.793,3.834,2.793,3.834s1.34-3.525,1.126-4.608a2,2,0,0,0-3.919.774Z" transform="translate(-826.011 -545.659)" opacity="0.25"/>
  <path id="Path_136" data-name="Path 136" d="M1000.275,716.706c.731.826,4.346,1.9,4.346,1.9s-.623-3.72-1.354-4.546a2,2,0,1,0-2.992,2.647Z" transform="translate(-809.098 -581.174)" opacity="0.25"/>
  <path id="Path_137" data-name="Path 137" d="M995.231,758.1c.581.938,3.963,2.607,3.963,2.607s.014-3.771-.566-4.709a2,2,0,1,0-3.4,2.1Z" transform="translate(-805.218 -614.555)" opacity="0.25"/>
  <path id="Path_138" data-name="Path 138" d="M1035.223,693.65c-1.02.421-4.739-.206-4.739-.206s2.2-3.067,3.215-3.487a2,2,0,0,1,1.524,3.693Z" transform="translate(-833.7 -562.283)" opacity="0.25"/>
  <path id="Path_139" data-name="Path 139" d="M1028.9,740.121c-1.1.1-4.46-1.614-4.46-1.614s3.012-2.269,4.111-2.365a2,2,0,1,1,.349,3.98Z" transform="translate(-828.855 -599.398)" opacity="0.25"/>
  <path id="Path_140" data-name="Path 140" d="M1014.542,785.088c-1.067.281-4.669-.837-4.669-.837s2.586-2.746,3.653-3.026a2,2,0,1,1,1.016,3.864Z" transform="translate(-817.188 -635.468)" opacity="0.25"/>
  <path id="Path_141" data-name="Path 141" d="M997.733,733.219s8.291-4.4,10.828-11.278a14.216,14.216,0,0,1,5.575-7.057,23.907,23.907,0,0,1,3.877-2.023" transform="translate(-807.463 -580.754)" fill="none" stroke="#535461" stroke-miterlimit="10" stroke-width="2"/>
  <path id="Path_142" data-name="Path 142" d="M1101.108,688.81c-.789.771-1.681,4.435-1.681,4.435s3.684-.807,4.473-1.578a2,2,0,1,0-2.792-2.857Z" transform="translate(-888.933 -561.03)" fill="#00a0c6"/>
  <path id="Path_143" data-name="Path 143" d="M1074.173,694.43c-.243,1.076,1,4.637,1,4.637s2.654-2.68,2.9-3.756a2,2,0,0,0-3.9-.881Z" transform="translate(-868.675 -564.741)" fill="#00a0c6"/>
  <path id="Path_144" data-name="Path 144" d="M1036.878,727.443c.333,1.052,3.2,3.5,3.2,3.5s.937-3.653.6-4.7a2,2,0,1,0-3.808,1.207Z" transform="translate(-838.747 -590.352)" fill="#00a0c6"/>
  <path id="Path_145" data-name="Path 145" d="M1015.493,763.247c.151,1.093,2.567,3.989,2.567,3.989s1.542-3.442,1.391-4.535a2,2,0,1,0-3.957.546Z" transform="translate(-821.675 -619.3)" fill="#00a0c6"/>
  <path id="Path_146" data-name="Path 146" d="M1076.184,723.763c-1.1-.029-4.249-2.108-4.249-2.108s3.25-1.914,4.353-1.885a2,2,0,0,1-.1,3.994Z" transform="translate(-866.907 -586.289)" fill="#00a0c6"/>
  <path id="Path_147" data-name="Path 147" d="M1053.635,764.267c-1.043-.357-3.423-3.283-3.423-3.283s3.674-.854,4.717-.5a2,2,0,1,1-1.294,3.779Z" transform="translate(-849.504 -618.839)" fill="#00a0c6"/>
  <path id="Path_148" data-name="Path 148" d="M1021.116,799.319c-1.089-.176-3.929-2.657-3.929-2.657s3.476-1.462,4.565-1.286a2,2,0,1,1-.637,3.944Z" transform="translate(-823.048 -646.846)" fill="#00a0c6"/>
  <path id="Path_149" data-name="Path 149" d="M277.088,67.5c-10.985-.381-21.448-3.928-31.439-7.808s-19.887-8.179-30.609-10.235c-6.9-1.322-14.783-1.509-20.34,2.188-5.347,3.558-7.075,9.7-8,15.4-.7,4.288-1.11,8.8.805,12.815,1.33,2.787,3.69,5.129,5.323,7.8,5.68,9.288,1.665,20.742-4.49,29.811-2.888,4.254-6.237,8.313-8.465,12.841s-3.259,9.718-1.31,14.338c1.932,4.579,6.537,8.018,11.525,10.437C200.215,160,212.154,161.4,223.8,162.2c25.77,1.763,51.678,1,77.516.235,9.562-.283,19.167-.57,28.573-2.048,5.224-.821,10.617-2.124,14.409-5.27a12.068,12.068,0,0,0,2.782-15.765c-5.411-8.4-20.373-10.487-24.155-19.5-2.082-4.962.056-10.49,3.082-15.092,6.49-9.873,17.369-18.534,17.942-29.818.394-7.75-4.836-15.512-12.922-19.179-8.476-3.844-20.229-3.36-26.482,3C298.1,65.315,286.787,67.836,277.088,67.5Z" transform="translate(-150.376 -48.59)" fill="#00a0c6" opacity="0.1"/>
  <ellipse id="Ellipse_35" data-name="Ellipse 35" cx="7.469" cy="7.928" rx="7.469" ry="7.928" transform="translate(100.433 124.231)" fill="#fbd56f"/>
  <ellipse id="Ellipse_36" data-name="Ellipse 36" cx="7.469" cy="7.928" rx="7.469" ry="7.928" transform="translate(100.433 124.231)" opacity="0.1"/>
  <ellipse id="Ellipse_37" data-name="Ellipse 37" cx="7.469" cy="7.752" rx="7.469" ry="7.752" transform="translate(101.722 124.584)" fill="#fbd56f"/>
  <path id="Path_150" data-name="Path 150" d="M601.045,746.878l-.777-.433a9.41,9.41,0,0,0-.245,2.6.539.539,0,0,0,.4.465c1.787.444,10.306,2.335,16.164-.329a.538.538,0,0,0,.311-.432,8.049,8.049,0,0,0-.284-2.3C616.4,745.87,601.045,746.878,601.045,746.878Z" transform="translate(-488.829 -607.517)" fill="#fbd56f"/>
  <path id="Path_151" data-name="Path 151" d="M601.045,746.878l-.777-.433a9.41,9.41,0,0,0-.245,2.6.539.539,0,0,0,.4.465c1.787.444,10.306,2.335,16.164-.329a.538.538,0,0,0,.311-.432,8.049,8.049,0,0,0-.284-2.3C616.4,745.87,601.045,746.878,601.045,746.878Z" transform="translate(-488.829 -607.517)" opacity="0.1"/>
  <ellipse id="Ellipse_38" data-name="Ellipse 38" cx="8.175" cy="1.843" rx="8.175" ry="1.843" transform="translate(111.44 137.085)" fill="#fbd56f"/>
  <path id="Path_152" data-name="Path 152" d="M616.751,733.206l-.777-.433a9.413,9.413,0,0,0-.245,2.6.539.539,0,0,0,.4.465c1.787.444,10.306,2.335,16.164-.329a.537.537,0,0,0,.311-.432,8.047,8.047,0,0,0-.284-2.3C632.106,732.2,616.751,733.206,616.751,733.206Z" transform="translate(-501.411 -596.564)" fill="#fbd56f"/>
  <path id="Path_153" data-name="Path 153" d="M616.751,733.206l-.777-.433a9.413,9.413,0,0,0-.245,2.6.539.539,0,0,0,.4.465c1.787.444,10.306,2.335,16.164-.329a.537.537,0,0,0,.311-.432,8.047,8.047,0,0,0-.284-2.3C632.106,732.2,616.751,733.206,616.751,733.206Z" transform="translate(-501.411 -596.564)" opacity="0.1"/>
  <ellipse id="Ellipse_39" data-name="Ellipse 39" cx="8.175" cy="1.843" rx="8.175" ry="1.843" transform="translate(114.563 134.366)" fill="#fbd56f"/>
  <path id="Path_154" data-name="Path 154" d="M630.636,715.237l-.777-.432a9.417,9.417,0,0,0-.245,2.6.539.539,0,0,0,.4.465c1.787.444,10.306,2.335,16.164-.329a.538.538,0,0,0,.311-.432,8.044,8.044,0,0,0-.284-2.3C645.991,714.23,630.636,715.237,630.636,715.237Z" transform="translate(-512.534 -582.169)" fill="#fbd56f"/>
  <path id="Path_155" data-name="Path 155" d="M630.636,715.237l-.777-.432a9.417,9.417,0,0,0-.245,2.6.539.539,0,0,0,.4.465c1.787.444,10.306,2.335,16.164-.329a.538.538,0,0,0,.311-.432,8.044,8.044,0,0,0-.284-2.3C645.991,714.23,630.636,715.237,630.636,715.237Z" transform="translate(-512.534 -582.169)" opacity="0.1"/>
  <ellipse id="Ellipse_40" data-name="Ellipse 40" cx="8.175" cy="1.843" rx="8.175" ry="1.843" transform="translate(117.324 130.793)" fill="#fbd56f"/>
  <path id="Path_156" data-name="Path 156" d="M615.259,696.532l-.777-.433a9.416,9.416,0,0,0-.245,2.6.539.539,0,0,0,.4.465c1.787.444,10.306,2.335,16.164-.329a.537.537,0,0,0,.311-.432,8.043,8.043,0,0,0-.284-2.3C630.615,695.525,615.259,696.532,615.259,696.532Z" transform="translate(-500.216 -567.184)" fill="#fbd56f"/>
  <path id="Path_157" data-name="Path 157" d="M615.259,696.532l-.777-.433a9.416,9.416,0,0,0-.245,2.6.539.539,0,0,0,.4.465c1.787.444,10.306,2.335,16.164-.329a.537.537,0,0,0,.311-.432,8.043,8.043,0,0,0-.284-2.3C630.615,695.525,615.259,696.532,615.259,696.532Z" transform="translate(-500.216 -567.184)" opacity="0.1"/>
  <ellipse id="Ellipse_41" data-name="Ellipse 41" cx="8.175" cy="1.843" rx="8.175" ry="1.843" transform="translate(114.267 127.073)" fill="#fbd56f"/>
  <path id="Path_158" data-name="Path 158" d="M649.851,681.521l-.777-.433a9.417,9.417,0,0,0-.245,2.6.538.538,0,0,0,.4.465c1.787.444,10.306,2.335,16.164-.329a.537.537,0,0,0,.311-.432,8.046,8.046,0,0,0-.284-2.3C665.206,680.513,649.851,681.521,649.851,681.521Z" transform="translate(-527.928 -555.158)" fill="#fbd56f"/>
  <path id="Path_159" data-name="Path 159" d="M649.851,681.521l-.777-.433a9.417,9.417,0,0,0-.245,2.6.538.538,0,0,0,.4.465c1.787.444,10.306,2.335,16.164-.329a.537.537,0,0,0,.311-.432,8.046,8.046,0,0,0-.284-2.3C665.206,680.513,649.851,681.521,649.851,681.521Z" transform="translate(-527.928 -555.158)" opacity="0.1"/>
  <ellipse id="Ellipse_42" data-name="Ellipse 42" cx="8.175" cy="1.843" rx="8.175" ry="1.843" transform="translate(121.146 124.087)" fill="#fbd56f"/>
  <path id="Path_160" data-name="Path 160" d="M626.479,671.431,625.7,671a9.412,9.412,0,0,0-.245,2.6.538.538,0,0,0,.4.465c1.787.444,10.306,2.335,16.164-.329a.538.538,0,0,0,.311-.432,8.046,8.046,0,0,0-.284-2.3C641.835,670.424,626.479,671.431,626.479,671.431Z" transform="translate(-509.204 -547.075)" fill="#fbd56f"/>
  <path id="Path_161" data-name="Path 161" d="M626.479,671.431,625.7,671a9.412,9.412,0,0,0-.245,2.6.538.538,0,0,0,.4.465c1.787.444,10.306,2.335,16.164-.329a.538.538,0,0,0,.311-.432,8.046,8.046,0,0,0-.284-2.3C641.835,670.424,626.479,671.431,626.479,671.431Z" transform="translate(-509.204 -547.075)" opacity="0.1"/>
  <ellipse id="Ellipse_43" data-name="Ellipse 43" cx="8.175" cy="1.843" rx="8.175" ry="1.843" transform="translate(116.498 122.081)" fill="#fbd56f"/>
  <path id="Path_162" data-name="Path 162" d="M642.083,651.953l-.777-.433a9.417,9.417,0,0,0-.245,2.6.539.539,0,0,0,.4.465c1.787.444,10.306,2.335,16.164-.329a.537.537,0,0,0,.311-.432,8.049,8.049,0,0,0-.284-2.3C657.438,650.946,642.083,651.953,642.083,651.953Z" transform="translate(-521.705 -531.471)" fill="#fbd56f"/>
  <path id="Path_163" data-name="Path 163" d="M642.083,651.953l-.777-.433a9.417,9.417,0,0,0-.245,2.6.539.539,0,0,0,.4.465c1.787.444,10.306,2.335,16.164-.329a.537.537,0,0,0,.311-.432,8.049,8.049,0,0,0-.284-2.3C657.438,650.946,642.083,651.953,642.083,651.953Z" transform="translate(-521.705 -531.471)" opacity="0.1"/>
  <ellipse id="Ellipse_44" data-name="Ellipse 44" cx="8.175" cy="1.843" rx="8.175" ry="1.843" transform="translate(119.601 118.207)" fill="#fbd56f"/>
  <path id="Path_164" data-name="Path 164" d="M649.78,628.833,649,628.4a9.409,9.409,0,0,0-.245,2.6.538.538,0,0,0,.4.465c1.787.444,10.306,2.335,16.164-.329a.537.537,0,0,0,.311-.432,8.052,8.052,0,0,0-.284-2.3C665.135,627.826,649.78,628.833,649.78,628.833Z" transform="translate(-527.871 -512.949)" fill="#fbd56f"/>
  <path id="Path_165" data-name="Path 165" d="M649.78,628.833,649,628.4a9.409,9.409,0,0,0-.245,2.6.538.538,0,0,0,.4.465c1.787.444,10.306,2.335,16.164-.329a.537.537,0,0,0,.311-.432,8.052,8.052,0,0,0-.284-2.3C665.135,627.826,649.78,628.833,649.78,628.833Z" transform="translate(-527.871 -512.949)" opacity="0.1"/>
  <ellipse id="Ellipse_45" data-name="Ellipse 45" cx="8.175" cy="1.843" rx="8.175" ry="1.843" transform="translate(121.132 113.609)" fill="#fbd56f"/>
  <path id="Path_166" data-name="Path 166" d="M719.174,752.24l-.777-.433a9.416,9.416,0,0,0-.245,2.6.538.538,0,0,0,.4.465c1.787.444,10.306,2.335,16.164-.329a.538.538,0,0,0,.311-.432,8.049,8.049,0,0,0-.284-2.3C734.53,751.233,719.174,752.24,719.174,752.24Z" transform="translate(-583.465 -611.813)" fill="#fbd56f"/>
  <path id="Path_167" data-name="Path 167" d="M719.174,752.24l-.777-.433a9.416,9.416,0,0,0-.245,2.6.538.538,0,0,0,.4.465c1.787.444,10.306,2.335,16.164-.329a.538.538,0,0,0,.311-.432,8.049,8.049,0,0,0-.284-2.3C734.53,751.233,719.174,752.24,719.174,752.24Z" transform="translate(-583.465 -611.813)" opacity="0.1"/>
  <ellipse id="Ellipse_46" data-name="Ellipse 46" cx="8.175" cy="1.843" rx="8.175" ry="1.843" transform="translate(134.933 138.152)" fill="#fbd56f"/>
  <path id="Path_168" data-name="Path 168" d="M733.059,734.271l-.777-.432a9.41,9.41,0,0,0-.245,2.6.539.539,0,0,0,.4.465c1.787.444,10.306,2.335,16.164-.329a.538.538,0,0,0,.311-.432,8.047,8.047,0,0,0-.284-2.3C748.415,733.264,733.059,734.271,733.059,734.271Z" transform="translate(-594.588 -597.418)" fill="#fbd56f"/>
  <path id="Path_169" data-name="Path 169" d="M733.059,734.271l-.777-.432a9.41,9.41,0,0,0-.245,2.6.539.539,0,0,0,.4.465c1.787.444,10.306,2.335,16.164-.329a.538.538,0,0,0,.311-.432,8.047,8.047,0,0,0-.284-2.3C748.415,733.264,733.059,734.271,733.059,734.271Z" transform="translate(-594.588 -597.418)" opacity="0.1"/>
  <ellipse id="Ellipse_47" data-name="Ellipse 47" cx="8.175" cy="1.843" rx="8.175" ry="1.843" transform="translate(137.694 134.578)" fill="#fbd56f"/>
  <path id="Path_170" data-name="Path 170" d="M717.683,715.566l-.777-.433a9.41,9.41,0,0,0-.245,2.6.538.538,0,0,0,.4.465c1.787.444,10.306,2.335,16.164-.329a.537.537,0,0,0,.311-.432,8.048,8.048,0,0,0-.284-2.3C733.038,714.559,717.683,715.566,717.683,715.566Z" transform="translate(-582.27 -582.432)" fill="#fbd56f"/>
  <path id="Path_171" data-name="Path 171" d="M717.683,715.566l-.777-.433a9.41,9.41,0,0,0-.245,2.6.538.538,0,0,0,.4.465c1.787.444,10.306,2.335,16.164-.329a.537.537,0,0,0,.311-.432,8.048,8.048,0,0,0-.284-2.3C733.038,714.559,717.683,715.566,717.683,715.566Z" transform="translate(-582.27 -582.432)" opacity="0.1"/>
  <ellipse id="Ellipse_48" data-name="Ellipse 48" cx="8.175" cy="1.843" rx="8.175" ry="1.843" transform="translate(134.636 130.858)" fill="#fbd56f"/>
  <path id="Path_172" data-name="Path 172" d="M752.274,700.554l-.777-.433a9.418,9.418,0,0,0-.245,2.6.538.538,0,0,0,.4.465c1.787.444,10.306,2.335,16.164-.329a.537.537,0,0,0,.311-.432,8.045,8.045,0,0,0-.284-2.3C767.629,699.547,752.274,700.554,752.274,700.554Z" transform="translate(-609.982 -570.406)" fill="#fbd56f"/>
  <path id="Path_173" data-name="Path 173" d="M752.274,700.554l-.777-.433a9.418,9.418,0,0,0-.245,2.6.538.538,0,0,0,.4.465c1.787.444,10.306,2.335,16.164-.329a.537.537,0,0,0,.311-.432,8.045,8.045,0,0,0-.284-2.3C767.629,699.547,752.274,700.554,752.274,700.554Z" transform="translate(-609.982 -570.406)" opacity="0.1"/>
  <ellipse id="Ellipse_49" data-name="Ellipse 49" cx="8.175" cy="1.843" rx="8.175" ry="1.843" transform="translate(141.515 127.873)" fill="#fbd56f"/>
  <path id="Path_174" data-name="Path 174" d="M728.9,690.465l-.777-.432a9.416,9.416,0,0,0-.245,2.6.538.538,0,0,0,.4.465c1.787.444,10.306,2.335,16.164-.328a.538.538,0,0,0,.311-.432,8.051,8.051,0,0,0-.284-2.3C744.258,689.458,728.9,690.465,728.9,690.465Z" transform="translate(-591.258 -562.324)" fill="#fbd56f"/>
  <path id="Path_175" data-name="Path 175" d="M728.9,690.465l-.777-.432a9.416,9.416,0,0,0-.245,2.6.538.538,0,0,0,.4.465c1.787.444,10.306,2.335,16.164-.328a.538.538,0,0,0,.311-.432,8.051,8.051,0,0,0-.284-2.3C744.258,689.458,728.9,690.465,728.9,690.465Z" transform="translate(-591.258 -562.324)" opacity="0.1"/>
  <ellipse id="Ellipse_50" data-name="Ellipse 50" cx="8.175" cy="1.843" rx="8.175" ry="1.843" transform="translate(136.867 125.866)" fill="#fbd56f"/>
  <path id="Path_176" data-name="Path 176" d="M744.506,670.987l-.777-.432a9.415,9.415,0,0,0-.245,2.6.538.538,0,0,0,.4.465c1.787.444,10.306,2.335,16.164-.328a.538.538,0,0,0,.312-.432,8.043,8.043,0,0,0-.284-2.3C759.862,669.98,744.506,670.987,744.506,670.987Z" transform="translate(-603.759 -546.719)" fill="#fbd56f"/>
  <path id="Path_177" data-name="Path 177" d="M744.506,670.987l-.777-.432a9.415,9.415,0,0,0-.245,2.6.538.538,0,0,0,.4.465c1.787.444,10.306,2.335,16.164-.328a.538.538,0,0,0,.312-.432,8.043,8.043,0,0,0-.284-2.3C759.862,669.98,744.506,670.987,744.506,670.987Z" transform="translate(-603.759 -546.719)" opacity="0.1"/>
  <ellipse id="Ellipse_51" data-name="Ellipse 51" cx="8.175" cy="1.843" rx="8.175" ry="1.843" transform="translate(139.971 121.992)" fill="#fbd56f"/>
  <path id="Path_178" data-name="Path 178" d="M752.2,647.867l-.777-.433a9.409,9.409,0,0,0-.245,2.6.538.538,0,0,0,.4.465c1.787.444,10.306,2.335,16.164-.329a.537.537,0,0,0,.311-.432,8.044,8.044,0,0,0-.284-2.3C767.558,646.86,752.2,647.867,752.2,647.867Z" transform="translate(-609.925 -528.197)" fill="#fbd56f"/>
  <path id="Path_179" data-name="Path 179" d="M752.2,647.867l-.777-.433a9.409,9.409,0,0,0-.245,2.6.538.538,0,0,0,.4.465c1.787.444,10.306,2.335,16.164-.329a.537.537,0,0,0,.311-.432,8.044,8.044,0,0,0-.284-2.3C767.558,646.86,752.2,647.867,752.2,647.867Z" transform="translate(-609.925 -528.197)" opacity="0.1"/>
  <ellipse id="Ellipse_52" data-name="Ellipse 52" cx="8.175" cy="1.843" rx="8.175" ry="1.843" transform="translate(141.501 117.394)" fill="#fbd56f"/>
  <path id="Path_180" data-name="Path 180" d="M792.355,422.581c-1.138-.04-1.179-.481-2.642-1.243a15.168,15.168,0,0,1-3.015-2.684l-.218-.236.387-.008s-.366-3.208-.041-3.97.081-5.294.081-5.294.2-3.449-.163-4.251.122-5.936.122-5.936.325-3.048.406-9.264-3.577-6.417-3.577-6.417-.488-.038-1.228-.108l-.222-.021c.48-1,.759-1.755.759-1.755s-.61-5.815-.772-6.818-1.138-5.133-1.138-5.133-.691-1.765-1.1-3.008a10.155,10.155,0,0,0-1.626-2.687,49.744,49.744,0,0,0-2.8-4.973c-.283-.3-.68-.673-1.024-.99l-.179-.164a7.246,7.246,0,0,0,.145-1.373,18.614,18.614,0,0,1-2.439-2.807,16.5,16.5,0,0,0-2.317-2.647s-1.219-2.246-2.6-2.286a11.273,11.273,0,0,0-1.957.059c.284-1.05.619-2.151.921-3.1l.1-.309a6.96,6.96,0,0,0,2.5-3.02c.029-.065.055-.131.081-.2.015,0,.029,0,.044,0a1.1,1.1,0,0,0,.171-.015c.455-.078.84-.592.63-1a.149.149,0,0,0,.132.073c.152-.005.337-.224.372-.417.006-.034.01-.067.015-.1s.013-.084.018-.126.008-.079.011-.119.007-.082.009-.123,0-.077,0-.115,0-.088,0-.132,0-.071,0-.106c0-.054-.007-.107-.012-.161,0-.022,0-.044-.005-.066v0a3.594,3.594,0,0,0-.131-.647c-.224-.745-.7-1.485-.514-2.242,0-.008.006-.016.008-.024h0a6.576,6.576,0,0,1,.97-1.539c.03-.05.056-.1.081-.154l.015-.028c.019-.039.035-.079.051-.119s.022-.051.032-.077.024-.071.035-.106.021-.065.03-.1.016-.063.023-.095.018-.077.026-.115.009-.056.014-.083c.007-.044.013-.088.018-.132,0-.024,0-.048.006-.072,0-.049.007-.1.008-.148,0-.02,0-.04,0-.059q0-.081,0-.162l0-.049q-.006-.086-.018-.172c0-.008,0-.017,0-.025v0a2.89,2.89,0,0,0-.582-1.382,3.562,3.562,0,0,0-2.925-1.265,4.9,4.9,0,0,1-.92.017,3.039,3.039,0,0,1-1.348-.712l-3.4-2.622a4.2,4.2,0,0,0-1.287-.765,1.437,1.437,0,0,0-1.414.255c-.637.629-.232,1.711-.488,2.564a2.491,2.491,0,0,1-1.674,1.489c-.739.25-1.529.3-2.288.485a1.263,1.263,0,0,0-.612.281,1.185,1.185,0,0,0-.266.853,4.6,4.6,0,0,0,.529,2.169c.143.272.317.548.47.827l.037.069c.017.032.034.064.05.1q.04.078.076.157c.01.023.019.045.029.068s.031.074.046.112l.026.071c.015.044.029.088.042.132a1.467,1.467,0,0,1,.022.8,2.97,2.97,0,0,1-.75,1.1,2.141,2.141,0,0,0-.5.93v.008a.745.745,0,0,0-.009.245c0,.01,0,.02,0,.03a.433.433,0,0,0,.015.054c0,.013.01.025.016.037a.337.337,0,0,0,.021.042.318.318,0,0,0,.052.061l.029.021a.336.336,0,0,0,.052.032l.035.015a.484.484,0,0,0,.083.023l.023.005a.768.768,0,0,0,.131.006l.039,0a1.235,1.235,0,0,0,.125-.016l.046-.008a1.977,1.977,0,0,0,.192-.049,4.3,4.3,0,0,0,.664-.263c0,.024,0,.049,0,.073,0,.042,0,.086,0,.128a6.759,6.759,0,0,0,.439,2.3,6.949,6.949,0,0,0,2.12,2.928q-.018.1-.039.209c-.2.962-.606,1.927-.858,1.852a3.447,3.447,0,0,0-.754-.083c-.077,0-.151,0-.222,0h0a3.013,3.013,0,0,0-.691,0,.746.746,0,0,1-.3-.042,4.123,4.123,0,0,0-2.03-.114c-1.406.288-3.543.815-4.129,1.445a13.144,13.144,0,0,0-3.658,5.9s-.732,2.446-1.3,2.767a3.787,3.787,0,0,1,.386-.174,1.031,1.031,0,0,1-.3.334,4.479,4.479,0,0,1,.64-.267c-.444,2.613.213,10.087.213,10.087s-.528,1.289.163,2.051a3.864,3.864,0,0,1,.748,1.659l-.1.156h0c-.366.567-.855,1.307-1.176,1.714-.569.722-.406,3.008-.406,3.008a3.185,3.185,0,0,1-.528,1.484c-.406.4-.325,1.885-.325,1.885l-1.057,3.89s-.975.882-.975,1.283a5.271,5.271,0,0,1-.772,1.524s-1.179,1.925,0,1.644a3.7,3.7,0,0,0,1.19-.6v.029c0,.071,0,.142,0,.215-.033,2.1.2,5.047,1.741,5.047,2.4,0,8.576,2.847,8.576,2.847a4.143,4.143,0,0,0,2.967.642s-3.007,3.008-2.926,4.251-1.707,3.289-1.707,3.289L744.6,413.518a8.274,8.274,0,0,0,.4,2.211c-.026.023-.053.045-.079.068-2.124,1.94-2.309,5.782-2.309,5.782l-.488,1.965,7.4,3.249s9.592.2,11.258-.241,1.3-2.286-.894-2.647-2.723-1.323-3.455-1.765a34.67,34.67,0,0,1-3.334-3.44l-.048-.054.252-1.4c.488-.241,1.219-2.647,1.219-2.647s0-.962.488-1.243,1.5-3.168,1.5-3.168,2.195-3.65,2.073-4.131,1.585-2.928,1.585-2.928,2.886-2.807,2.764-3.309,2.317-3.068,2.317-3.068a8.138,8.138,0,0,0,2.158-2.485c.219-.035.455-.073.7-.115,3.191-.523,8.494-1.469,9.087-1.732.813-.361.65,1.243.325,2.607s-.569,7.9-.2,8.743a5.265,5.265,0,0,1,.2,2.206l-.488,7.339.325,1.564s-1.1.882-.65,1.4.041,2.767.041,2.767c.038-.014.084-.028.135-.042-.039.088-.076.178-.11.274a13.19,13.19,0,0,0-.269,4.741v2.326s11.258.2,13.737.2,5.893-1.2,6.1-2.166S793.493,422.622,792.355,422.581Zm-32.02-41.752-.737.062A6.124,6.124,0,0,1,760.335,380.83Zm4.5-30.784c.1-.464.229-.963.367-1.475Zm1.391,31.908a2.984,2.984,0,0,1-2.19,0l-.005,0a23.234,23.234,0,0,1,.366-3.97c.325-1.163.772-3.289.772-3.289a43.065,43.065,0,0,1,.732-4.251c.366-1.324,1.788-8.7,2.52-9.184a.771.771,0,0,1,1.138.361s.109,0,.292-.022q.052.115.117.245a60.4,60.4,0,0,0,3.411,5.352,5.861,5.861,0,0,1,1.87,1.845,12.2,12.2,0,0,1,.894,3.89s1.544,6.056,2.276,6.9c.366.421.2.672-.05.817a3.6,3.6,0,0,0-1.283,1.185c-.1.165-.214.347-.326.54-.28-.065-.53-.132-.739-.2C774.025,381.5,767.319,381.473,766.222,381.955Z" transform="translate(-600.8 -271.308)" fill="url(#linear-gradient)"/>
  <path id="Path_181" data-name="Path 181" d="M922.743,789.519v2.307s11.016.2,13.442.2,5.767-1.193,5.965-2.147-2.784-1.75-3.9-1.79-1.153-.477-2.585-1.233a14.906,14.906,0,0,1-2.95-2.661c-.705-.769-1.225-1.4-1.225-1.4s-5.926-.119-7.636.835a2.067,2.067,0,0,0-.85,1.184A13.246,13.246,0,0,0,922.743,789.519Z" transform="translate(-747.305 -636.778)" fill="#434175"/>
  <path id="Path_182" data-name="Path 182" d="M924.472,784.817c1.243-.432,8.516-.6,9.712-.624-.706-.769-1.226-1.4-1.226-1.4s-5.926-.119-7.636.835A2.069,2.069,0,0,0,924.472,784.817Z" transform="translate(-748.771 -636.778)" opacity="0.1"/>
  <path id="Path_183" data-name="Path 183" d="M763.77,601.632l.643.388.241.146.935.563c5,3.012,18.633,11.178,19.379,11.112.2-.017.783-.1,1.595-.237.215-.035.445-.072.689-.114,3.123-.519,8.312-1.456,8.892-1.717.8-.358.636,1.233.318,2.585s-.557,7.835-.2,8.67a5.29,5.29,0,0,1,.2,2.187l-.477,7.278.318,1.551s-1.074.875-.636,1.392.04,2.744.04,2.744c1.273-.477,9.9-.636,9.9-.636s-.358-3.182-.04-3.937.08-5.25.08-5.25.2-3.42-.159-4.216.119-5.886.119-5.886.318-3.022.4-9.187-3.5-6.363-3.5-6.363-.477-.037-1.2-.107a53.313,53.313,0,0,1-5.358-.739,8.909,8.909,0,0,1-.957-.254c-1.949-.663-8.511-.69-9.585-.212a2.884,2.884,0,0,1-2.143,0l0,0-.835-1.352-7.977.68-.845.072-7.853.67-.54.046Z" transform="translate(-620.029 -490.371)" fill="#565387"/>
  <path id="Path_184" data-name="Path 184" d="M919.762,615.057c2.317,1.129,4.528-2.875,5.559-5.134a53.34,53.34,0,0,1-5.358-.739C918.925,610.926,917.541,613.975,919.762,615.057Z" transform="translate(-744.046 -497.696)" opacity="0.1"/>
  <path id="Path_185" data-name="Path 185" d="M889.552,486.955a2.43,2.43,0,0,0,.281.778,59.994,59.994,0,0,0,3.338,5.307A5.765,5.765,0,0,1,895,494.869a12.231,12.231,0,0,1,.875,3.858s1.511,6.005,2.227,6.84c.358.418.2.667-.049.811a3.542,3.542,0,0,0-1.255,1.175c-1.043,1.677-2.708,5-.366,6.144,3.182,1.551,6.164-6.578,6.164-6.578s-.6-5.767-.756-6.761-1.114-5.091-1.114-5.091-.676-1.75-1.074-2.983a10.087,10.087,0,0,0-1.591-2.665,49.544,49.544,0,0,0-2.744-4.931c-.277-.3-.665-.667-1-.982-.389-.364-.709-.649-.709-.649S889.512,486,889.552,486.955Z" transform="translate(-720.796 -396.652)" fill="#ee8e9e"/>
  <path id="Path_186" data-name="Path 186" d="M753.971,778.793l7.238,3.221s9.386.2,11.016-.239,1.273-2.267-.875-2.625a6.388,6.388,0,0,1-3.38-1.75,34.173,34.173,0,0,1-3.262-3.411c-.512-.582-.874-1-.874-1a4.593,4.593,0,0,0-5.25-2.863,3.953,3.953,0,0,0-1.877.988c-2.078,1.924-2.259,5.733-2.259,5.733Z" transform="translate(-612.179 -626.53)" fill="#434175"/>
  <path id="Path_187" data-name="Path 187" d="M768.213,601.525l.935.563c5,3.012,18.633,11.178,19.379,11.112.2-.017.783-.1,1.595-.237.215-.035.445-.072.689-.114l.027-.045a9.142,9.142,0,0,0,.911-2.229c.835-3.181-3.3-5.607-3.3-5.607l-.875-.68c-.994-1.674-8.153-3.257-8.153-3.257l-.923-.62L778,600.08l-.13-.087-1.12-.752-5.608.4-1.666,1.071-.176.113-.618.4Z" transform="translate(-623.589 -489.73)" opacity="0.1"/>
  <path id="Path_188" data-name="Path 188" d="M767.729,771.111c1.523,5.266,7.882,3.546,7.882,3.546l.119-.667c-.512-.582-.874-1-.874-1a4.593,4.593,0,0,0-5.25-2.863A3.953,3.953,0,0,0,767.729,771.111Z" transform="translate(-623.201 -626.53)" opacity="0.1"/>
  <path id="Path_189" data-name="Path 189" d="M752.5,611.058c2.347,0,8.391,2.824,8.391,2.824a4.01,4.01,0,0,0,2.9.636s-2.943,2.983-2.864,4.216-1.67,3.261-1.67,3.261l-5.409,10.7c.4,7.6,8.193,5.488,8.193,5.488l.318-1.79c.477-.239,1.193-2.625,1.193-2.625s0-.954.477-1.233,1.472-3.142,1.472-3.142,2.148-3.619,2.028-4.1,1.551-2.9,1.551-2.9,2.824-2.784,2.7-3.281,2.267-3.042,2.267-3.042a8.031,8.031,0,0,0,2.112-2.464,9.142,9.142,0,0,0,.911-2.229c.673-2.562-1.879-4.635-2.9-5.344-.247-.172-.4-.264-.4-.264l-.875-.68c-.452-.762-2.179-1.5-3.928-2.087-1.261-.421-2.535-.759-3.349-.962-.538-.134-.876-.208-.876-.208l-.923-.62-.324-.218-.3-.2-1.12-.753-2.5.177-3.112.221-1.665,1.071-.794.511-3.109,2s-.082.765-.108,1.792c0,.08,0,.16,0,.243C750.76,608.132,750.983,611.058,752.5,611.058Z" transform="translate(-609.63 -490.371)" fill="#565387"/>
  <path id="Path_190" data-name="Path 190" d="M819.562,415.9l.835,2.983s1.471,5.13,1.63,5.488a56.579,56.579,0,0,0,4.176,4.056c.159.08,2.26,1.273,2.26,1.273s.166-6.562.007-8.471a5.461,5.461,0,0,1,.1-1.25A47.065,47.065,0,0,1,830,414.6c.445-1.416.815-2.478.815-2.478s-9.306-.4-8.988.517a3.269,3.269,0,0,1-.035,1.5c-.192.954-.592,1.911-.84,1.837a3.332,3.332,0,0,0-.738-.082C819.874,415.885,819.562,415.9,819.562,415.9Z" transform="translate(-664.726 -339.754)" fill="#ee8e9e"/>
  <path id="Path_191" data-name="Path 191" d="M830.785,414.141a6.883,6.883,0,0,0,8.208.457c.445-1.416.815-2.478.815-2.478s-9.306-.4-8.988.517A3.268,3.268,0,0,1,830.785,414.141Z" transform="translate(-673.716 -339.754)" opacity="0.1"/>
  <path id="Path_192" data-name="Path 192" d="M832.128,367.162a6.851,6.851,0,0,1-.344,2.148,5.591,5.591,0,0,1-.2.527,6.881,6.881,0,0,1-12.784-.266,6.784,6.784,0,0,1-.43-2.281c0-.042,0-.086,0-.127a6.88,6.88,0,1,1,13.76,0Z" transform="translate(-663.768 -298.294)" fill="#ee8e9e"/>
  <path id="Path_193" data-name="Path 193" d="M819.562,431.438l.835,2.983s1.471,5.13,1.63,5.488a56.582,56.582,0,0,0,4.176,4.057c.159.079,2.26,1.273,2.26,1.273s.166-6.562.007-8.471a5.461,5.461,0,0,1,.1-1.25l-.541,2.2.04,4.414.318.239-.716,1.074v-.8s-2.545-2.466-2.943-3.5a17.37,17.37,0,0,0-1.829-2.906,23.594,23.594,0,0,1-1.67-3.218,5.134,5.134,0,0,0-1.016-1.593C819.874,431.425,819.562,431.438,819.562,431.438Z" transform="translate(-664.726 -355.294)" opacity="0.1"/>
  <path id="Path_194" data-name="Path 194" d="M889.552,486.955a2.429,2.429,0,0,0,.281.778,4.908,4.908,0,0,0,4.484-4.026c-.389-.364-.709-.649-.709-.649S889.512,486,889.552,486.955Z" transform="translate(-720.796 -396.652)" opacity="0.1"/>
  <path id="Path_195" data-name="Path 195" d="M750.8,606.053c.8-.568,1.566-1.343,2.022-1.557a8.788,8.788,0,0,0,1.71-1.352s.262-.178.665-.414a8.035,8.035,0,0,1,2.875-1.137c.83-.069,3.589-.246,5.759-.381,1.57-.1,2.831-.176,2.831-.176s2.585-.915,3.7-.318a11.7,11.7,0,0,0,2.505.915s0-.087,0-.236l0,0-.835-1.352-8.823.752-1.12-.752-5.608.4-1.666,1.071-1.437.123.643.388-3.108,2S750.821,604.907,750.8,606.053Z" transform="translate(-609.641 -490.371)" opacity="0.1"/>
  <path id="Path_196" data-name="Path 196" d="M742.908,470.4a3.606,3.606,0,0,0,1.164-.593h0c.8-.567,1.562-1.339,2.017-1.553a8.788,8.788,0,0,0,1.71-1.352,10.053,10.053,0,0,1,3.539-1.551c.39-.033,1.207-.089,2.187-.153,1-.067,2.179-.142,3.247-.208l1.686-.106,1.471-.091s2.585-.915,3.7-.318a11.691,11.691,0,0,0,2.506.915,23.346,23.346,0,0,1,.358-3.937c.318-1.153.756-3.261.756-3.261s.358-2.9.716-4.216,1.75-8.63,2.466-9.107,1.114.358,1.114.358a5.02,5.02,0,0,0,4.852-5.329,18.381,18.381,0,0,1-2.386-2.784,16.3,16.3,0,0,0-2.267-2.625s-1.193-2.227-2.545-2.267a10.879,10.879,0,0,0-1.915.059l-1.147,4.674.04,4.414.318.239-.716,1.074v-.8s-2.545-2.466-2.943-3.5A17.36,17.36,0,0,0,761,435.479a23.574,23.574,0,0,1-1.67-3.218c-.04-.477-1.153-1.756-1.153-1.756a2.9,2.9,0,0,0-.676,0,.723.723,0,0,1-.3-.041,3.983,3.983,0,0,0-1.987-.113c-1.375.286-3.467.808-4.041,1.433a13.051,13.051,0,0,0-3.579,5.846l7.715,2.784-.66,1.255-6.141,11.67s-.2.332-.48.765h0c-.358.562-.837,1.3-1.151,1.7-.557.716-.4,2.983-.4,2.983a3.185,3.185,0,0,1-.517,1.471c-.4.4-.318,1.869-.318,1.869l-1.034,3.858s-.954.875-.954,1.273a5.253,5.253,0,0,1-.755,1.511S741.754,470.678,742.908,470.4Z" transform="translate(-602.905 -354.366)" fill="#434175"/>
  <path id="Path_197" data-name="Path 197" d="M936.608,646.435s-2.505.835-3.182,2.028S936.608,646.435,936.608,646.435Z" transform="translate(-755.881 -527.539)" opacity="0.1"/>
  <path id="Path_198" data-name="Path 198" d="M930.331,633.237c-.079.119-3.431,3.483-3.221,4.3S930.331,633.237,930.331,633.237Z" transform="translate(-750.877 -516.965)" opacity="0.1"/>
  <path id="Path_199" data-name="Path 199" d="M834.351,645.235s-3.738,1.763-4.056,2.532S834.351,645.235,834.351,645.235Z" transform="translate(-673.31 -526.577)" opacity="0.1"/>
  <path id="Path_200" data-name="Path 200" d="M833.973,656.634s-3.374,1.432-3.834,1.79S833.973,656.634,833.973,656.634Z" transform="translate(-673.171 -535.709)" opacity="0.1"/>
  <path id="Path_201" data-name="Path 201" d="M831.867,671.131s-1.494,1.114-2.318.239S831.867,671.131,831.867,671.131Z" transform="translate(-672.616 -547.144)" opacity="0.1"/>
  <path id="Path_202" data-name="Path 202" d="M843.716,526.051c-.08.119-5.051,9.068-6.364,9.744S843.716,526.051,843.716,526.051Z" transform="translate(-678.856 -431.096)" opacity="0.1"/>
  <path id="Path_203" data-name="Path 203" d="M845.733,543.049c0,.2-4.852,10.579-5.647,10.7S845.733,543.049,845.733,543.049Z" transform="translate(-681.113 -444.713)" opacity="0.1"/>
  <path id="Path_204" data-name="Path 204" d="M762.3,576.644s-2.343,5-3.261,5.289S762.3,576.644,762.3,576.644Z" transform="translate(-616.134 -471.628)" opacity="0.1"/>
  <path id="Path_205" data-name="Path 205" d="M768.394,565.446s-.808,1.75-1.3,1.75S768.394,565.446,768.394,565.446Z" transform="translate(-622.624 -462.656)" opacity="0.1"/>
  <path id="Path_206" data-name="Path 206" d="M832.128,367.162a6.851,6.851,0,0,1-.344,2.148,5.583,5.583,0,0,1-.2.527,2.023,2.023,0,0,1-.964-.424,2.387,2.387,0,0,1-.722-.772,9.642,9.642,0,0,1-.352-1,2.336,2.336,0,0,0-1.887-1.43.733.733,0,0,1-.583.994,1.423,1.423,0,0,1-1.191-.531c-.308-.332-.531-.736-.837-1.068a1.423,1.423,0,0,0-1.191-.531,2.726,2.726,0,0,0-1.034.587,1,1,0,0,1-1.114.135c-.179-.133-.266-.36-.438-.505-.439-.368-1.124.012-1.448.487a3.843,3.843,0,0,1-1.452,1.513c0-.042,0-.086,0-.127a6.88,6.88,0,0,1,13.76,0Z" transform="translate(-663.768 -298.294)" opacity="0.1"/>
  <path id="Path_207" data-name="Path 207" d="M813.544,341.971c.324-.476,1.007-.856,1.448-.486.171.143.258.37.437.5a1,1,0,0,0,1.114-.136,2.708,2.708,0,0,1,1.033-.587,1.419,1.419,0,0,1,1.191.531c.307.332.53.736.838,1.068a1.419,1.419,0,0,0,1.191.53.732.732,0,0,0,.582-.994,2.337,2.337,0,0,1,1.887,1.43,9.642,9.642,0,0,0,.352,1,2.382,2.382,0,0,0,.723.771,1.712,1.712,0,0,0,1.253.416c.446-.078.823-.588.616-.991.142.216.448-.085.495-.34a3.638,3.638,0,0,0-.092-1.679,4.51,4.51,0,0,1-.5-2.223,6.247,6.247,0,0,1,.957-1.548,2.8,2.8,0,0,0-.263-3.047,3.465,3.465,0,0,0-2.863-1.255,4.732,4.732,0,0,1-.9.017,2.961,2.961,0,0,1-1.32-.706l-3.331-2.6a4.1,4.1,0,0,0-1.259-.759,1.392,1.392,0,0,0-1.384.253c-.624.624-.227,1.7-.478,2.543a2.449,2.449,0,0,1-1.638,1.477c-.723.247-1.5.3-2.239.481a1.229,1.229,0,0,0-.6.279,1.185,1.185,0,0,0-.26.846,4.607,4.607,0,0,0,.517,2.151c.386.742,1,1.5.781,2.312a2.945,2.945,0,0,1-.734,1.091c-.63.724-.842,1.794.343,1.42A3.428,3.428,0,0,0,813.544,341.971Z" transform="translate(-657.488 -274.688)" fill="#434175"/>
  <g id="Group_4" data-name="Group 4" transform="translate(153.045 61.769)" opacity="0.1">
    <path id="Path_208" data-name="Path 208" d="M826.945,382.807c-.046.255-.352.556-.494.34.207.4-.17.913-.616.991a1.711,1.711,0,0,1-1.253-.416,2.38,2.38,0,0,1-.723-.771,9.63,9.63,0,0,1-.352-1,2.337,2.337,0,0,0-1.887-1.43.731.731,0,0,1-.582.994,1.418,1.418,0,0,1-1.191-.53c-.308-.332-.53-.736-.838-1.068a1.419,1.419,0,0,0-1.191-.531,2.707,2.707,0,0,0-1.033.587,1,1,0,0,1-1.114.136c-.178-.134-.266-.361-.437-.5-.441-.37-1.125.01-1.448.486a3.429,3.429,0,0,1-2.105,1.773c-.375.118-.609.091-.735-.023-.25.575-.136,1.081.735.807a3.429,3.429,0,0,0,2.105-1.773c.323-.476,1.007-.856,1.448-.486.171.143.258.37.437.5a1,1,0,0,0,1.114-.136,2.707,2.707,0,0,1,1.033-.587,1.419,1.419,0,0,1,1.191.531c.307.332.53.736.838,1.068a1.418,1.418,0,0,0,1.191.53.731.731,0,0,0,.582-.994,2.337,2.337,0,0,1,1.887,1.43,9.642,9.642,0,0,0,.352,1,2.38,2.38,0,0,0,.723.771,1.711,1.711,0,0,0,1.253.416c.446-.078.823-.588.616-.991.142.216.448-.085.494-.34a3.634,3.634,0,0,0,.036-1.04C826.972,382.637,826.961,382.722,826.945,382.807Z" transform="translate(-810.774 -375.356)"/>
    <path id="Path_209" data-name="Path 209" d="M811.84,363.2c0-.01.007-.02.01-.03.216-.808-.4-1.57-.781-2.312a4.608,4.608,0,0,1-.494-1.68,2.24,2.24,0,0,0-.023.313,4.608,4.608,0,0,0,.517,2.151A8.12,8.12,0,0,1,811.84,363.2Z" transform="translate(-810.552 -359.182)"/>
    <path id="Path_210" data-name="Path 210" d="M889.674,365.643a6.238,6.238,0,0,0-.957,1.548,1.728,1.728,0,0,0,.007.762,6.535,6.535,0,0,1,.95-1.526,2.614,2.614,0,0,0,.306-1.679A2.464,2.464,0,0,1,889.674,365.643Z" transform="translate(-873.141 -363.641)"/>
  </g>
  <path id="Path_211" data-name="Path 211" d="M770.757,500h0a6.071,6.071,0,0,1,.122.666s3.142,7.357,3.54,7.795c.122.134.584.8,1.164,1.648.21.308.435.641.666.983,1.2,1.785,2.545,3.812,2.545,3.812l2.943,2.585s6.4.512,8.437-1.565c-.247-.172-.4-.264-.4-.264l-.875-.68c-.452-.762-2.179-1.5-3.928-2.087-1.612.012-2.93.142-2.93.142l-.419-1.1-.437-1.152-2.225-5.857s-1.435-7.4-1.912-7.755-.358-1.471-.358-1.471.875-3.142.557-3.579.517-3.659.517-3.659a3.332,3.332,0,0,0-.382-.893l-6.14,11.67S771.033,499.57,770.757,500Z" transform="translate(-625.626 -400.267)" opacity="0.1"/>
  <path id="Path_212" data-name="Path 212" d="M773.2,477.253s-.835,3.221-.517,3.659-.557,3.579-.557,3.579-.119,1.113.358,1.471,1.912,7.755,1.912,7.755l3.081,8.113s9.642-.954,8.648,2.068-8.948,2.386-8.948,2.386l-2.943-2.585s-3.977-6.005-4.375-6.443-3.54-7.795-3.54-7.795a4.754,4.754,0,0,0-.835-2.227c-.676-.756-.159-2.034-.159-2.034s-.835-9.619.04-10.772S772.281,473.794,773.2,477.253Z" transform="translate(-620.983 -389.298)" fill="#ee8e9e"/>
  <path id="Path_213" data-name="Path 213" d="M766.348,458.254l-2.505,1.511s-.716,2.426-1.273,2.744c0,0,5.011-2.784,8.789,3.619a1.449,1.449,0,0,1,.4-1.233c.517-.4.4-2.108.4-2.108a6.873,6.873,0,0,0,.358-.835C772.87,461.077,771,456.066,766.348,458.254Z" transform="translate(-619.068 -376.343)" opacity="0.1"/>
  <path id="Path_214" data-name="Path 214" d="M765.948,457.454l-2.506,1.511s-.716,2.426-1.272,2.744c0,0,5.011-2.784,8.789,3.619a1.449,1.449,0,0,1,.4-1.233c.517-.4.4-2.108.4-2.108a6.83,6.83,0,0,0,.358-.835C772.47,460.277,770.6,455.266,765.948,457.454Z" transform="translate(-618.747 -375.702)" fill="#434175"/>
  <ellipse id="Ellipse_53" data-name="Ellipse 53" cx="7.469" cy="7.928" rx="7.469" ry="7.928" transform="translate(117.4 135.542)" fill="#fbd56f"/>
  <ellipse id="Ellipse_54" data-name="Ellipse 54" cx="7.469" cy="7.928" rx="7.469" ry="7.928" transform="translate(117.4 135.542)" opacity="0.1"/>
  <ellipse id="Ellipse_55" data-name="Ellipse 55" cx="7.469" cy="7.752" rx="7.469" ry="7.752" transform="translate(118.689 135.896)" fill="#fbd56f"/>
  <ellipse id="Ellipse_56" data-name="Ellipse 56" cx="9.225" cy="1.559" rx="9.225" ry="1.559" transform="translate(8.702 144.709)" fill="#00a0c6"/>
  <path id="Path_215" data-name="Path 215" d="M115.932,754.119a2.679,2.679,0,0,0,.88-1.327,1.18,1.18,0,0,0-.615-1.352,1.727,1.727,0,0,0-1.625.57,2.173,2.173,0,0,1-1.58.762,2.4,2.4,0,0,0,.744-2.251.939.939,0,0,0-.207-.457c-.313-.335-.881-.191-1.257.073-1.193.839-1.526,2.46-1.532,3.919a7.414,7.414,0,0,1-.022-1.614,1.656,1.656,0,0,0-.606-1.428,1.827,1.827,0,0,0-.925-.217,1.912,1.912,0,0,0-1.5.426,1.491,1.491,0,0,0,.059,1.842,5.81,5.81,0,0,0,1.552,1.243,3.443,3.443,0,0,1,1.109,1.058,1.045,1.045,0,0,1,.082.189h3.362A9.375,9.375,0,0,0,115.932,754.119Z" transform="translate(-94.19 -610.402)" fill="#00a0c6"/>
  <path id="Path_216" data-name="Path 216" d="M513.879,727.321a8.049,8.049,0,0,1,1,1.826c.067.168.132.344.194.529.994,2.97-.581,6.532-1.031,6.148s-1.853-1.1-2.124-.1a5.748,5.748,0,0,1-1.273,2.026c-1.826,1.836-3.478-.148-4.563-2.2a19.825,19.825,0,0,1-.944-2.085c-.241-.63-.379-1.064-.379-1.064l7.6-6.479A4.5,4.5,0,0,1,513.879,727.321Z" transform="translate(-412.528 -591.222)" fill="#00a0c6"/>
  <path id="Path_217" data-name="Path 217" d="M453.615,748.153a8.044,8.044,0,0,1,1,1.826c.067.168.132.344.194.529.994,2.97-.581,6.532-1.031,6.148s-1.853-1.1-2.124-.1a5.749,5.749,0,0,1-1.273,2.026c-1.826,1.836-3.478-.148-4.563-2.2a19.857,19.857,0,0,1-.944-2.085c-.241-.63-.379-1.065-.379-1.065l7.6-6.479A4.5,4.5,0,0,1,453.615,748.153Z" transform="translate(-364.249 -607.911)" fill="#00a0c6"/>
  <path id="Path_218" data-name="Path 218" d="M323.031,774.326a8.045,8.045,0,0,1-.4,2.044c-.056.172-.118.349-.188.531-1.13,2.921-4.616,4.658-4.717,4.075s-.727-2.027-1.575-1.429a5.749,5.749,0,0,1-2.273.747c-2.578.249-2.584-2.334-2.111-4.6a19.9,19.9,0,0,1,.6-2.208c.216-.638.388-1.062.388-1.062l9.989-.135A4.5,4.5,0,0,1,323.031,774.326Z" transform="translate(-257.73 -628.36)" fill="#00a0c6"/>
  <path id="Path_219" data-name="Path 219" d="M258.132,757.958a8.041,8.041,0,0,1-.4,2.044c-.056.172-.118.349-.188.531-1.13,2.921-4.616,4.658-4.717,4.075s-.727-2.027-1.575-1.429a5.749,5.749,0,0,1-2.273.747c-2.578.249-2.584-2.334-2.11-4.6a19.867,19.867,0,0,1,.6-2.208c.216-.638.388-1.062.388-1.062l9.989-.135A4.5,4.5,0,0,1,258.132,757.958Z" transform="translate(-205.738 -615.247)" fill="#00a0c6"/>
  <path id="Path_220" data-name="Path 220" d="M513.879,727.321a8.049,8.049,0,0,1,1,1.826c.067.168.132.344.194.529.994,2.97-.581,6.532-1.031,6.148s-1.853-1.1-2.124-.1a5.748,5.748,0,0,1-1.273,2.026c-1.826,1.836-3.478-.148-4.563-2.2a19.825,19.825,0,0,1-.944-2.085c-.241-.63-.379-1.064-.379-1.064l7.6-6.479A4.5,4.5,0,0,1,513.879,727.321Z" transform="translate(-412.528 -591.222)" opacity="0.2" style="isolation: isolate"/>
  <path id="Path_221" data-name="Path 221" d="M453.615,748.153a8.044,8.044,0,0,1,1,1.826c.067.168.132.344.194.529.994,2.97-.581,6.532-1.031,6.148s-1.853-1.1-2.124-.1a5.749,5.749,0,0,1-1.273,2.026c-1.826,1.836-3.478-.148-4.563-2.2a19.857,19.857,0,0,1-.944-2.085c-.241-.63-.379-1.065-.379-1.065l7.6-6.479A4.5,4.5,0,0,1,453.615,748.153Z" transform="translate(-364.249 -607.911)" opacity="0.2" style="isolation: isolate"/>
  <path id="Path_222" data-name="Path 222" d="M323.031,774.326a8.045,8.045,0,0,1-.4,2.044c-.056.172-.118.349-.188.531-1.13,2.921-4.616,4.658-4.717,4.075s-.727-2.027-1.575-1.429a5.749,5.749,0,0,1-2.273.747c-2.578.249-2.584-2.334-2.111-4.6a19.9,19.9,0,0,1,.6-2.208c.216-.638.388-1.062.388-1.062l9.989-.135A4.5,4.5,0,0,1,323.031,774.326Z" transform="translate(-257.73 -628.36)" opacity="0.2" style="isolation: isolate"/>
  <path id="Path_223" data-name="Path 223" d="M258.132,757.958a8.041,8.041,0,0,1-.4,2.044c-.056.172-.118.349-.188.531-1.13,2.921-4.616,4.658-4.717,4.075s-.727-2.027-1.575-1.429a5.749,5.749,0,0,1-2.273.747c-2.578.249-2.584-2.334-2.11-4.6a19.867,19.867,0,0,1,.6-2.208c.216-.638.388-1.062.388-1.062l9.989-.135A4.5,4.5,0,0,1,258.132,757.958Z" transform="translate(-205.738 -615.247)" opacity="0.2" style="isolation: isolate"/>
  <path id="Path_224" data-name="Path 224" d="M244.274,351.438c0,26.681-9.026,48.31-50.677,48.31-27.988,0-49.642-6.954-50.677-48.31-.668-26.672,22.689-48.31,50.677-48.31S244.274,324.757,244.274,351.438Z" transform="translate(-122.639 -252.507)" fill="#00a0c6"/>
  <path id="Path_225" data-name="Path 225" d="M349.994,307.369h0Z" transform="translate(-288.543 -255.904)" opacity="0.2" style="isolation: isolate"/>
  <path id="Path_226" data-name="Path 226" d="M350.206,306.947c.129-.021.383-.056.753-.084l-.824.1.044-.009Z" transform="translate(-288.656 -255.499)" opacity="0.2" style="isolation: isolate"/>
  <path id="Path_227" data-name="Path 227" d="M391,324.052l-3.7,1.332a82.613,82.613,0,0,0-6.077-7.244,59.357,59.357,0,0,0-7.7-6.894c-9.471-7.019-16.8-7.2-19.216-7.018l5.56-.654a45.208,45.208,0,0,1,14.928,5.4,49.32,49.32,0,0,1,8.971,6.627A43.864,43.864,0,0,1,391,324.052Z" transform="translate(-292 -252.864)" opacity="0.2" style="isolation: isolate"/>
  <path id="Path_228" data-name="Path 228" d="M360.943,335.138s-4.883-16.276-.74-20.715c0,0,6.51-2.219,11.393,10.357Z" transform="translate(-295.386 -261.435)" opacity="0.2" style="isolation: isolate"/>
  <path id="Path_229" data-name="Path 229" d="M494.962,305.548s12.949-11,18.677-8.99c0,0,4.645,5.073-4.915,14.592Z" transform="translate(-404.68 -247.046)" fill="#00a0c6"/>
  <path id="Path_230" data-name="Path 230" d="M494.962,305.548s12.949-11,18.677-8.99c0,0,4.645,5.073-4.915,14.592Z" transform="translate(-404.68 -247.046)" opacity="0.2" style="isolation: isolate"/>
  <path id="Path_231" data-name="Path 231" d="M556.739,503.012c0,14.341-10.291,25.672-19.975,25.672s-15.092-11.33-15.092-25.672,7.866-25.407,17.534-25.968C554.52,476.157,556.739,488.671,556.739,503.012Z" transform="translate(-426.078 -391.8)" fill="#00a0c6"/>
  <path id="Path_232" data-name="Path 232" d="M556.739,503.012c0,14.341-10.291,25.672-19.975,25.672s-15.092-11.33-15.092-25.672,7.866-25.407,17.534-25.968C554.52,476.157,556.739,488.671,556.739,503.012Z" transform="translate(-426.078 -391.8)" opacity="0.2" style="isolation: isolate"/>
  <ellipse id="Ellipse_57" data-name="Ellipse 57" cx="3.255" cy="4.143" rx="3.255" ry="4.143" transform="translate(106.839 109.215)" fill="#00a0c6"/>
  <ellipse id="Ellipse_58" data-name="Ellipse 58" cx="3.255" cy="4.143" rx="3.255" ry="4.143" transform="translate(118.38 105.664)" fill="#00a0c6"/>
  <path id="Path_233" data-name="Path 233" d="M461.808,327.362a5.908,5.908,0,0,1-.632,2.672,5.678,5.678,0,0,1-2.548,2.542,59.36,59.36,0,0,0-7.7-6.894,5.8,5.8,0,0,1,1.273-2.276,5.455,5.455,0,0,1,4.045-1.812A5.666,5.666,0,0,1,461.808,327.362Z" transform="translate(-369.407 -267.3)" fill="#fad46f"/>
</svg>
