<svg xmlns="http://www.w3.org/2000/svg" xmlns:xlink="http://www.w3.org/1999/xlink" width="216.273" height="164" viewBox="0 0 216.273 164"><defs><style>.a,.e,.l,.m{fill:#205df5;}.b{fill:#444053;}.c,.d,.k{fill:none;}.c,.d{stroke:#444053;}.c,.d,.j,.k{stroke-miterlimit:10;}.d{stroke-width:0.75px;}.e,.q,.x{opacity:0.1;}.f{fill:url(#a);}.g{fill:#fff;}.h,.i,.n{fill:#5a5773;}.h{opacity:0.04;}.j{fill:#f4f4f7;}.j,.k{stroke:#5a5773;}.j,.k,.l,.n{opacity:0.2;}.k{stroke-dasharray:12;}.m{opacity:0.5;}.o{fill:url(#b);}.p{fill:#2d293d;}.r{fill:#575988;}.s,.t{opacity:0.05;}.u{fill:#ffcdd3;}.v{fill:#dce6f2;}.w{fill:#656691;}.y{fill:#ffd037;}.z{fill:#65617d;}.aa{fill:#9d9cb5;}</style><linearGradient id="a" x1="0.5" y1="1" x2="0.5" gradientUnits="objectBoundingBox"><stop offset="0" stop-color="gray" stop-opacity="0.251"/><stop offset="0.54" stop-color="gray" stop-opacity="0.122"/><stop offset="1" stop-color="gray" stop-opacity="0.102"/></linearGradient><linearGradient id="b" x1="0.5" y1="1.009" x2="0.5" y2="-0.002" xlink:href="#a"/></defs><g transform="translate(0 -0.003)"><path class="a" d="M100.185,47s-.751,2.932,4.5,11.22,4.888,9.462,4.585,11.832-.285,3.668-3.337,6.578c0,0-9.143,3-10.365,4.874s2.019,8.677,2.019,8.677,3.114,8.266-8.067,11.438c0,0-8.749.012-11.175,1.939,0,0,.939-3.355-1.979-8.288s1.1-9.743,1.1-9.743,3.237-1.782,5.292-1.92,2.707-1.078,1.385-3.44c0,0-1.912-1-4.559,1.138s-4.624,3.656-6.931,3.476a9.1,9.1,0,0,1-7.754-5.42c-2.159-4.268-3.295-10.3-4.912-13.056A11.611,11.611,0,0,0,57.5,62.947s2.043,1.551,9.1-3.714,10.736-3.012,10.736-3.012S83,57.744,83.911,67.74c0,0,1.648,9.526,5,3.755,0,0-1.134-3.249-3.4-8.033s3.8-9.287,8.24-10.794A12.081,12.081,0,0,0,100.185,47Z" transform="translate(-57.5 -45.327)"/><path class="b" d="M88.41,137.132l-.02-.05c1.4-.582,7.832,2.9,12.978,5.932l-.028.046C94.081,138.79,89.488,136.685,88.41,137.132Z" transform="translate(-82.233 -117.402)"/><path class="b" d="M152.83,166.88l.056-.03c4.11,2.422,9.042,5.5,12.735,7.991.351.237.716.472,1.088.694l-.058.094c-.373-.223-.74-.458-1.092-.7C161.87,172.437,156.938,169.3,152.83,166.88Z" transform="translate(-133.828 -141.287)"/><path class="b" d="M221.63,210.3l.092-.072c7.409,4.447,17.832,3.389,17.924,3.389l-1.15,1.306C238.4,214.93,229.091,214.779,221.63,210.3Z" transform="translate(-188.914 -176.02)"/><path class="c" d="M192.377,80.61s-2.426,6.755-.582,11.515S189.8,108.68,189.8,108.68s-1.274,4.961-3.323,6.2c0,0-2.972,3.69-4.714,4.112s-5.749,4.166-5.643,6.237" transform="translate(-152.475 -72.238)"/><path class="c" d="M257.046,83s-1.71,3.468-4.256,3.438" transform="translate(-213.863 -74.151)"/><path class="c" d="M261.443,105.62s-1.035,4.77-7.443,6.1" transform="translate(-214.831 -92.262)"/><path class="c" d="M266.514,141.28A10.273,10.273,0,0,1,257,145.524" transform="translate(-217.233 -120.814)"/><path class="c" d="M261.867,186.69s-5.675,3.718-9.967,1.676" transform="translate(-213.15 -157.173)"/><path class="c" d="M237.56,83s1.483,3.137,3.124,2.193" transform="translate(-201.668 -74.151)"/><path class="c" d="M210.32,106.91s1.993,4.21,8.23,3.47" transform="translate(-179.858 -93.295)"/><path class="c" d="M207.3,138.67s5.486,3.333,9.935,2.43" transform="translate(-177.44 -118.725)"/><path class="c" d="M221.79,172.52s4.341,3.462,6.379,2.667" transform="translate(-189.042 -145.827)"/><path class="c" d="M216.69,185.47s1.174,3.638.02,4.325" transform="translate(-184.958 -156.196)"/><path class="c" d="M197.4,202.271s2.238-2.223,1.615-2.631" transform="translate(-169.514 -167.541)"/><path class="c" d="M174.416,120.22s1.959,9.307-.586,11.818" transform="translate(-150.642 -103.952)"/><path class="c" d="M135.67,194.92s8.868-5.695,9.642-9.06" transform="translate(-120.088 -156.508)"/><path class="c" d="M109.9,180.584s8.342-3.889,10.6-7.614" transform="translate(-99.455 -146.187)"/><path class="d" d="M138,105.26s4.036,6.733,1.515,11.446" transform="translate(-121.954 -91.974)"/><path class="d" d="M96.25,160.762s6.179-2.5,7.429-4.912" transform="translate(-88.526 -132.48)"/><path class="d" d="M102.79,115.56s2.067,3.811,1.1,5.468" transform="translate(-93.762 -100.221)"/><path class="c" d="M210.23,227.91s5.581-.747,6.179.71" transform="translate(-179.786 -190.023)"/><path class="c" d="M239.787,252.064s-.3-6.1-3.787-8.464" transform="translate(-200.419 -202.739)"/><path class="c" d="M178.22,241s5.858.692,7.929,4.513" transform="translate(-154.157 -200.657)"/><path class="c" d="M213.955,277.612a7.973,7.973,0,0,0-3.375-7.632" transform="translate(-180.066 -223.86)"/><path class="c" d="M157.05,268.069s4.86-.249,7.463,2.061" transform="translate(-137.207 -222.324)"/><path class="c" d="M183.732,295.49s-.454-3.548-1.722-4.22" transform="translate(-157.191 -240.907)"/><path class="e" d="M205.092,77.966c-10.937,5.5-22.9,7.9-34.562,9.753s-23.435,3.275-34.929,7.142c-7.391,2.488-15.2,6.516-18.847,12.775-3.512,6.01-2.215,12.418-.357,18,1.4,4.2,3.189,8.45,7.008,11.017,2.655,1.782,6.1,2.617,9,4.134,10.068,5.272,11.7,17.639,10.078,29.015-.761,5.336-2.069,10.742-2.051,15.972s1.527,10.413,5.677,13.5c4.114,3.062,10.291,3.684,16.345,3.189,12.3-1,24.669-6.1,36.45-11.579,26.085-12.133,51.071-26.6,76-41.028,9.221-5.34,18.484-10.706,26.974-17.031,4.714-3.512,9.369-7.547,11.545-12.375,2.773-6.127.658-12.8-4.931-15.56-9.369-4.624-25.032,1.473-33.111-4.567-4.463-3.325-5.045-9.408-4.318-15.119,1.559-12.271,8-25.8,3.084-36.179-3.377-7.132-12.263-11.282-21.966-10.256-10.166,1.076-21.432,7.76-24.462,16.77C224.6,64.826,214.749,73.1,205.092,77.966Z" transform="translate(-103.175 -38.62)"/><ellipse class="e" cx="19.955" cy="4.929" rx="19.955" ry="4.929" transform="translate(108.183 146.828)"/><rect class="f" width="189.431" height="107.306" rx="12.49" transform="translate(26.842 27.054)"/><rect class="g" width="188.851" height="105.44" rx="12.49" transform="translate(27.143 28.563)"/><rect class="g" width="188.851" height="105.44" rx="12.49" transform="translate(27.143 28.563)"/><rect class="h" width="188.851" height="105.44" rx="12.49" transform="translate(27.143 28.563)"/><path class="i" d="M381.572,175.83H194.639a.959.959,0,0,0-.959.959v4.058H382.531v-4.058a.959.959,0,0,0-.959-.959Z" transform="translate(-166.535 -148.477)"/><g transform="translate(29.619 28.563)"><circle class="g" cx="1.296" cy="1.296" r="1.296"/><circle class="g" cx="1.296" cy="1.296" r="1.296" transform="translate(3.488)"/><circle class="g" cx="1.296" cy="1.296" r="1.296" transform="translate(6.977)"/></g><rect class="e" width="157.472" height="60.597" rx="10.19" transform="translate(39.785 55.71)"/><rect class="g" width="157.472" height="60.597" rx="10.19" transform="matrix(1, 0.025, -0.025, 1, 43.624, 49.786)"/><line class="j" x2="109.696" y2="2.789" transform="translate(67.179 62.644)"/><line class="j" x2="109.696" y2="2.789" transform="translate(66.961 71.214)"/><line class="j" x2="109.696" y2="2.789" transform="translate(66.744 79.781)"/><line class="j" x2="109.698" y2="2.789" transform="translate(66.525 88.35)"/><line class="k" x1="0.277" y2="10.893" transform="translate(76.218 86.277)"/><line class="j" x2="109.696" y2="2.787" transform="translate(66.308 96.919)"/><line class="k" y1="16.24" x2="0.413" transform="translate(88.625 81.246)"/><path class="l" d="M524.827,384.426a6.782,6.782,0,0,1-5.035-2.079,19.719,19.719,0,0,1-2.94-4.1c-.269-.452-.548-.919-.829-1.369a14.841,14.841,0,0,0-4.652-4.969,8.857,8.857,0,0,0-1.979-.9,1.4,1.4,0,0,1-1.258.855h-.066a1.4,1.4,0,0,1-1.345-1.21,6.068,6.068,0,0,0-1.836.377,11.214,11.214,0,0,0-4.264,3.454c-1.455,1.678-2.858,3.438-4.166,5.234q-.4.544-.8,1.094a29.882,29.882,0,0,1-4.784,5.629c-2.547,2.161-5.611,3.092-8.2,2.492-3.1-.72-5.32-3.46-6.9-5.769-.2-.3-.4-.6-.614-.9-1.479-2.193-3.008-4.459-5.264-5.781a8.911,8.911,0,0,0-9.767.712,17.588,17.588,0,0,0-3.251,3.857c-.327.474-.666.965-1.015,1.435-1.794,2.41-3.6,3.718-5.551,4a10.553,10.553,0,0,1-2.326,0c-.514-.036-1.046-.076-1.567-.062a7.533,7.533,0,0,0-6.293,3.921l-.275,11.473,86.173,2.193.482-18.982a1.2,1.2,0,0,1-1.678-.6Z" transform="translate(-363.636 -304.464)"/><line class="k" x1="0.684" y2="26.93" transform="translate(101.364 70.881)"/><line class="k" x1="0.431" y2="16.937" transform="translate(113.635 81.184)"/><line class="k" x1="0.387" y2="15.255" transform="translate(125.631 83.171)"/><line class="k" x1="0.742" y2="29.192" transform="translate(136.875 69.519)"/><line class="k" x1="0.775" y2="30.512" transform="translate(148.645 68.501)"/><line class="k" x1="0.494" y2="19.379" transform="translate(162.001 79.972)"/><path class="a" d="M778.615,364.117a1.4,1.4,0,0,0-2.35.793,1.347,1.347,0,0,0-.016.239.707.707,0,0,0,.012.159,1.4,1.4,0,0,0,.417.819,1.37,1.37,0,0,0,.929.4h.066a1.4,1.4,0,0,0,.979-.427,1.43,1.43,0,0,0,.281-.427,1.381,1.381,0,0,0,.1-.389,1.11,1.11,0,0,0,0-.181A1.4,1.4,0,0,0,778.615,364.117Zm-.07,1.435a.9.9,0,0,1-.181.261,1,1,0,0,1-1.7-.514.832.832,0,0,1-.018-.157.956.956,0,0,1,.024-.239,1,1,0,0,1,.953-.777h.046a1,1,0,0,1,.971.975v.062A.927.927,0,0,1,778.545,365.553Z" transform="translate(-632.979 -298.922)"/><circle class="a" cx="1.196" cy="1.196" r="1.196" transform="translate(161.311 78.515)"/><path class="a" d="M506.689,369.878a.838.838,0,0,0,.018.157c-.135,0-.271,0-.4.01a6.1,6.1,0,0,0-1.838.377,11.236,11.236,0,0,0-4.266,3.454c-1.455,1.676-2.858,3.438-4.168,5.232-.265.363-.526.73-.8,1.1a30.093,30.093,0,0,1-4.784,5.629c-2.549,2.159-5.615,3.09-8.2,2.49-3.1-.718-5.316-3.46-6.911-5.769-.2-.3-.411-.6-.614-.9-1.481-2.193-3.012-4.459-5.268-5.781a8.91,8.91,0,0,0-9.767.712,18.006,18.006,0,0,0-3.245,3.855c-.329.474-.668.967-1.017,1.435-1.794,2.41-3.6,3.717-5.553,4a10.681,10.681,0,0,1-2.326,0,15.236,15.236,0,0,0-1.569-.062,7.519,7.519,0,0,0-6.536,4.409l-.367-.159a7.933,7.933,0,0,1,6.891-4.648,14.848,14.848,0,0,1,1.611.064,10.375,10.375,0,0,0,2.239,0c1.84-.265,3.57-1.523,5.29-3.843.345-.464.682-.953,1.009-1.425a18.131,18.131,0,0,1,3.331-3.941,9.191,9.191,0,0,1,10.218-.743c2.336,1.369,3.893,3.674,5.4,5.9.2.3.4.6.612.9,1.545,2.248,3.7,4.918,6.67,5.605,2.464.572,5.4-.327,7.854-2.406a29.635,29.635,0,0,0,4.714-5.557q.392-.55.8-1.1c1.318-1.794,2.727-3.572,4.186-5.26a11.5,11.5,0,0,1,4.427-3.564,6.528,6.528,0,0,1,1.981-.4c.134,0,.271-.012.4,0a.957.957,0,0,0-.018.229Z" transform="translate(-363.019 -303.658)"/><path class="a" d="M804.741,384.586c-2.338.873-4.81-.431-6.217-1.814a19.729,19.729,0,0,1-2.94-4.1c-.269-.451-.548-.919-.831-1.367a14.814,14.814,0,0,0-4.654-4.971,8.888,8.888,0,0,0-1.979-.9c-.128-.042-.257-.078-.4-.112a.926.926,0,0,0,.1-.389c.131.034.261.072.4.112a9.235,9.235,0,0,1,2.087.953,15.155,15.155,0,0,1,4.784,5.1c.285.454.564.923.837,1.379a19.336,19.336,0,0,0,2.876,4.017c1.322,1.3,3.636,2.533,5.8,1.726Z" transform="translate(-642.164 -304.688)"/><rect class="m" width="4.066" height="1.794" rx="0.897" transform="matrix(1, 0.025, -0.025, 1, 67.222, 60.857)"/><rect class="a" width="4.066" height="1.794" rx="0.897" transform="matrix(1, 0.025, -0.025, 1, 67.001, 69.424)"/><rect class="m" width="4.066" height="1.794" rx="0.897" transform="matrix(1, 0.025, -0.025, 1, 66.783, 77.995)"/><rect class="m" width="4.066" height="1.794" rx="0.897" transform="matrix(1, 0.025, -0.025, 1, 66.565, 86.562)"/><rect class="m" width="4.066" height="1.794" rx="0.897" transform="matrix(1, 0.025, -0.025, 1, 66.347, 95.131)"/><rect class="m" width="4.066" height="1.794" rx="0.897" transform="matrix(1, 0.025, -0.025, 1, 73.888, 98.912)"/><rect class="m" width="4.066" height="1.794" rx="0.897" transform="matrix(1, 0.025, -0.025, 1, 86.541, 99.234)"/><rect class="a" width="4.066" height="1.794" rx="0.897" transform="translate(98.829 100.094) rotate(1.718)"/><rect class="m" width="4.066" height="1.794" rx="0.897" transform="matrix(1, 0.025, -0.025, 1, 111.551, 99.871)"/><rect class="m" width="4.066" height="1.794" rx="0.897" transform="matrix(1, 0.025, -0.025, 1, 123.545, 100.179)"/><rect class="a" width="4.066" height="1.794" rx="0.897" transform="matrix(1, 0.025, -0.025, 1, 134.789, 100.463)"/><rect class="a" width="4.066" height="1.794" rx="0.897" transform="matrix(1, 0.025, -0.025, 1, 146.644, 100.765)"/><rect class="a" width="4.066" height="1.794" rx="0.897" transform="translate(159.481 101.915) rotate(1.718)"/><path class="a" d="M1029.2,642.877a1.973,1.973,0,1,1-1.4.578,1.974,1.974,0,0,1,1.4-.578m0-.307a2.282,2.282,0,1,0,2.282,2.278A2.282,2.282,0,0,0,1029.2,642.57Z" transform="translate(-833.684 -522.181)"/><path class="a" d="M1035.3,651.679l.12-.159a.634.634,0,0,0,.437.181c.2,0,.357-.1.357-.263s-.146-.291-.548-.291v-.183c.359,0,.494-.12.494-.275s-.122-.229-.3-.229a.584.584,0,0,0-.377.154l-.128-.154a.8.8,0,0,1,.514-.2c.309,0,.538.149.538.411,0,.183-.134.3-.329.371v.01a.429.429,0,0,1,.383.4c0,.283-.267.454-.586.454A.772.772,0,0,1,1035.3,651.679Z" transform="translate(-840.394 -528.339)"/><path class="i" d="M1076.492,643.547a1.973,1.973,0,1,1-1.4.578,1.974,1.974,0,0,1,1.4-.578m0-.307a2.28,2.28,0,1,0,1.615.668A2.282,2.282,0,0,0,1076.492,643.24Z" transform="translate(-871.548 -522.718)"/><path class="i" d="M1082.383,651.224a2.446,2.446,0,0,1,.014-.319h-.014c-.056.086-.12.171-.175.257l-.4.52h1.078v.209h-1.358v-.167l.809-1.064h.3v1.694h-.247Z" transform="translate(-877.409 -528.659)"/><path class="i" d="M1059.308,647.91a.209.209,0,0,1,.293,0l1.029,1.033a.2.2,0,0,1,0,.287l-1.013,1.017a.208.208,0,1,1-.295-.293l.869-.877-.883-.873a.2.2,0,0,1,0-.295Z" transform="translate(-859.564 -526.409)"/><path class="i" d="M1050.77,645.008a2.242,2.242,0,1,0,2.239-2.238A2.242,2.242,0,0,0,1050.77,645.008Zm.345,0a1.9,1.9,0,1,1,.556,1.34A1.878,1.878,0,0,1,1051.115,645.008Z" transform="translate(-852.78 -522.342)"/><rect class="n" width="45.296" height="4.754" rx="2.377" transform="translate(33.107 37.686)"/><path class="o" d="M548.64,385.929c-.331-1.2-.546-2.252-.546-2.252a4.692,4.692,0,0,0-.614-2.282l-.012-.329h0l-.094-2.432a8.277,8.277,0,0,1,.564-1.3c.411-.781-.136-3.564-.136-3.564s-1.776-3.885-1.477-6.4-3.759-10.993-3.759-10.993a10.866,10.866,0,0,1,.255-2.474,2.021,2.021,0,0,0,.028-.518v-.044a19.085,19.085,0,0,0-1.543-4.694l-.052-5.906a17.34,17.34,0,0,0-.841-8.129c-.536-1.611-.891-2.9-1.122-3.9-.026-.112-.052-.221-.074-.325,2.791-.536,4.906-.973,4.906-.973s-1.884-6.727-3.026-7.874-2.163-4.846-2.163-4.846-.755-4.774.112-6.211a9.354,9.354,0,0,0,.907-3.859s2.045-1.611,2.282-2.3a11.275,11.275,0,0,0,.586-3.042c-.03-.807-.323-1.517-.251-1.945s-.692-2.013-.371-2.791a2.106,2.106,0,0,0,.112-.741v-.032a10.362,10.362,0,0,0-.261-1.983,5.634,5.634,0,0,0-2.125-1.035l-.054-.179-.139-.48c-.072-.044-.142-.082-.211-.116l-.012-.173-.046-.688.269-1.555c.542-2.721-3.068-2.99-3.068-2.99a1.884,1.884,0,0,0-1.054-.853c-.734-.227.036,4.058.385,4.32a16.466,16.466,0,0,1,1.5,2.169h0l.064.106a1.883,1.883,0,0,0-.157.179l.173.931.026.142a3.929,3.929,0,0,0-.536,1,2.1,2.1,0,0,1,.586,1.509,4.686,4.686,0,0,0,.289,1.858c-.04-.044-.522-.526-.979-.387s-1.734.576-1.734.576-.959.2-.863.417-.614,1.172-.614,1.172l-2.687-2.358c-.028-.072-.058-.144-.084-.219a6.047,6.047,0,0,1-.267-1.066,6.092,6.092,0,0,0,.819-.3,1.793,1.793,0,0,0,.7-.486,2.807,2.807,0,0,0,.375-1.134,16.8,16.8,0,0,1,.879-2.181,6.991,6.991,0,0,0,.367-3.857,2.556,2.556,0,0,0-.44-1.112c-.447-.566-1.222-.773-1.794-1.216s-.965-1.138-1.628-1.463a3.113,3.113,0,0,0-1.973-.092,10.585,10.585,0,0,0-3.636,1.473,1.886,1.886,0,0,1-1.212.45,1.643,1.643,0,0,1-.911-.616.05.05,0,0,1,.01-.036l-.03-.034a4.568,4.568,0,0,0-.327,1.955,2.044,2.044,0,0,0,.024.311.393.393,0,0,0,.01.108.677.677,0,0,1,0,.09h0a.535.535,0,0,1-.014.138,1.007,1.007,0,0,1-.229.361,2.074,2.074,0,0,0-.2.3.34.34,0,0,1,.032-.106,1.531,1.531,0,0,0-.237.827.812.812,0,0,0,.217.576,2.821,2.821,0,0,0,.437.325,4.8,4.8,0,0,0-.044.867,5.007,5.007,0,0,0,2.607,4.186l.1.219a6.225,6.225,0,0,1,.58,2.809,1.243,1.243,0,0,1-.024.2c-.032.036-.062.074-.09.112h0s-4.28.2-5.322-.668-2.458,2.326-2.458,2.326-1.523.357-1.84.072-2.107.038-2.107.038a3.877,3.877,0,0,0-2.713-.873,7.9,7.9,0,0,0-2-1.017h0l-.048-.016h0a2.2,2.2,0,0,0-.971-.086,19.674,19.674,0,0,1-2.821-2.569c-.65-.911-3.708-4.262-3.721-4.276l-.014-.169-.052-.5a2.035,2.035,0,0,1-.261.032q-.026-.074-.066-.173a9.6,9.6,0,0,0-.676-1.4s-.024-.638.156-.8a10.958,10.958,0,0,0-.173-2.492s-2.067-4.361-3.64-.985c0,0-3.129,2.266-.337,4.656,0,0,1.1.478,1.264.885.11.265.5,1,.769,1.487l.118.219-.03.026.056.415.022.161c-.5.309-.829.608-.738.819a4.768,4.768,0,0,1,.351,1.134s3.907,4.527,4.467,6.5c0,0,10.226,5.557,13.531,5.856l-.454,2.99a24.146,24.146,0,0,0-.04,2.424c.068.63-.259,3.538-.259,3.538s-.4,4.268-.865,4.88-.275,3.155-.275,3.155a21.376,21.376,0,0,1-.518,3.634,9.253,9.253,0,0,0,0,3.612s-1.519,3.885,2.37,1.142c0,0,1.955-.2,4.208-.361v.225c0,.291.012.6.022.937.054,2.193.157,5.2.343,7.481.331,4.025,1.866,11.96,1.866,11.96l.154,4.009a5.449,5.449,0,0,0-.07,1.15,7.447,7.447,0,0,0,1.234,3.971l.411,2.663a10.054,10.054,0,0,1,.841,2.791,1.463,1.463,0,0,1-.02.257,1.839,1.839,0,0,0-.02.411,22.545,22.545,0,0,0,.849,4.092s.157,2.926.6,3.08c.381.132-.437,1.706-.68,2.161a.43.43,0,0,0-.02-.084l-.05.09a2.056,2.056,0,0,0-.11.745,1.066,1.066,0,0,0,.526,1.011c.853.478,1.318.885.616,1.082a7.656,7.656,0,0,0-.765.2l-.04-.1a.466.466,0,0,0-.253.5,2.157,2.157,0,0,0,.3.983,10.569,10.569,0,0,0,1.272,2.119l.335-.052a1.678,1.678,0,0,1-.181.371,1.4,1.4,0,0,1-.478.458,1.527,1.527,0,0,1-.6.229,1.688,1.688,0,0,0-1.22.652,1.293,1.293,0,0,0,.231,2.007l3.177.961s5.42.494,5.087-.706-.546-2.252-.546-2.252a4.811,4.811,0,0,0-.52-2.129,2.434,2.434,0,0,0-.2-.309l.189-.03s.293-2.689.8-3.217c.116-.124.14-.213.11-.283.048-.148-.092-.227-.271-.269-.012.036-.024.07-.034.108a2.523,2.523,0,0,0-.512-.036s-.229-1.4.321-1.926a.532.532,0,0,0,.094-.421,2.268,2.268,0,0,0-.08-.568s-.012.022-.02.034a20.749,20.749,0,0,0-1.385-3.243,4.042,4.042,0,0,1,.239-1.794c.331-.522-.311-6.917-.311-6.917a20.992,20.992,0,0,0-.439-4.531,5.118,5.118,0,0,1,.353-3.159.436.436,0,0,0-.014-.092.1.1,0,0,0,.01-.022s-.026-.2-.07-.486v.03c-.12-.817-.345-2.3-.494-2.978-.213-.969-.173-5.647-.173-5.647l.714-2.025,1.535,3.389,1.666,4.527a3.9,3.9,0,0,1,.831,1.92v.45a2.728,2.728,0,0,0,.518,1.617s.478,2.149,1.112,2.677a2.474,2.474,0,0,1,.678,1.595,27.107,27.107,0,0,0,1.238,3.65,5.674,5.674,0,0,1,.4,2.123h0v.114s.147,1.118.179,2.063v.311a3.321,3.321,0,0,1-.062.767.067.067,0,0,1-.012.044v-.159a8.047,8.047,0,0,0-.149,1.965,5.044,5.044,0,0,0,.961,3.219c1.236,1.314,1.975,1.114,1.975,1.114s-.5,1.72-1.2,2.087a.355.355,0,0,0-.072.05.572.572,0,0,0-.022-.1.823.823,0,0,0-.181.64,4.54,4.54,0,0,0,.965,2.484,1.405,1.405,0,0,0,.6.323,1.012,1.012,0,0,1-.108.072,2.127,2.127,0,0,1-.237.124,1.149,1.149,0,0,1-.355.108,1.678,1.678,0,0,0-1.218.652,1.29,1.29,0,0,0,.229,2.005l3.179.961S548.973,387.128,548.64,385.929Z" transform="translate(-407.675 -235.004)"/><path class="p" d="M647.017,785.576l-3.076-.957a1.318,1.318,0,0,1-.225-2.007,1.614,1.614,0,0,1,1.178-.652,1.423,1.423,0,0,0,.572-.227,1.363,1.363,0,0,0,.464-.458,2.259,2.259,0,0,0,.3-1.186s3.295-1.1,4.244-.163a2.454,2.454,0,0,1,.427.576,4.945,4.945,0,0,1,.508,2.125s.209,1.052.532,2.252S647.017,785.576,647.017,785.576Z" transform="translate(-526.575 -631.853)"/><path class="p" d="M721.282,775.174l-3.078-.965a1.319,1.319,0,0,1-.225-2.007,1.6,1.6,0,0,1,1.178-.65,1.079,1.079,0,0,0,.343-.108,1.878,1.878,0,0,0,.231-.122,1.92,1.92,0,0,0,.763-1.645s3.295-1.1,4.246-.163a2.421,2.421,0,0,1,.335.421,4.825,4.825,0,0,1,.6,2.286s.211,1.055.532,2.253S721.282,775.174,721.282,775.174Z" transform="translate(-586.035 -623.518)"/><path class="q" d="M660.825,779.883a2.453,2.453,0,0,1,.427.576h0l-4.971.771a2.259,2.259,0,0,0,.3-1.186S659.876,778.943,660.825,779.883Z" transform="translate(-536.924 -631.82)"/><path class="q" d="M732.605,769.936l.036.935c-.726,1.31-4.495,1.174-5.611.574a1.879,1.879,0,0,0,.231-.122,1.92,1.92,0,0,0,.763-1.644s3.295-1.1,4.246-.163A2.426,2.426,0,0,1,732.605,769.936Z" transform="translate(-593.572 -623.519)"/><path class="r" d="M648.205,554.607a8.333,8.333,0,0,0-.544,1.3l.13,3.353c-.8,1.433-5.228,1.136-5.852.4s-1.336-2.711-.67-3.078,1.152-2.083,1.152-2.083-.716.2-1.914-1.116-.975-4.341-.8-5.071a15.562,15.562,0,0,0-.124-3.141,6.285,6.285,0,0,0-.383-2.237,27.683,27.683,0,0,1-1.2-3.652,2.513,2.513,0,0,0-.656-1.595,7.284,7.284,0,0,1-1.08-2.679,2.79,2.79,0,0,1-.494-1.808,3.711,3.711,0,0,0-.807-2.181l-1.619-4.527L631.86,523.1l-.688,2.025s-.032,4.676.175,5.645.562,3.55.562,3.55a5.225,5.225,0,0,0-.347,3.157,21.6,21.6,0,0,1,.429,4.533s.63,6.395.309,6.917a4.134,4.134,0,0,0-.227,1.794s1.884,3.668,1.351,4.2-.309,1.924-.309,1.924,1.2-.046.7.484-.767,3.217-.767,3.217l-5.109.8a10.655,10.655,0,0,1-1.234-2.121c-.74-1.545.074-1.405.75-1.595s.229-.6-.6-1.082-.4-1.643-.4-1.643,1.15-2.127.72-2.28-.586-3.08-.586-3.08-.983-3.448-.8-4.385-.8-3.157-.8-3.157l-.4-2.663a7.355,7.355,0,0,1-1.148-5.023l-.159-4.118s-1.495-7.933-1.82-11.96c-.2-2.579-.313-6.1-.361-8.3-.028-1.236-.038-2.053-.038-2.053l18.263-2.615a15.183,15.183,0,0,0,.436,2.711c.225,1,.57,2.292,1.092,3.9a17.92,17.92,0,0,1,.823,8.129l.058,5.906s1.764,3.885,1.477,5.256a11.319,11.319,0,0,0-.237,2.472s3.939,8.478,3.654,11,1.435,6.4,1.435,6.4S648.6,553.825,648.205,554.607Z" transform="translate(-508.733 -412.242)"/><path class="s" d="M700.34,640.059l5.553-.959S702.864,642.449,700.34,640.059Z" transform="translate(-572.202 -519.403)"/><path class="q" d="M719.425,611.9s.267,1.965-.915,2.755C718.51,614.655,720.663,614.232,719.425,611.9Z" transform="translate(-586.75 -497.625)"/><path class="q" d="M694.189,580.45s-4.519,4.021-6.227,3.767S694.189,580.45,694.189,580.45Z" transform="translate(-562.098 -472.444)"/><path class="q" d="M651.666,654.29s-3.516.939-3.568,2.368S651.666,654.29,651.666,654.29Z" transform="translate(-530.373 -531.565)"/><path class="s" d="M658.088,742.93s-4.971,1.126-3.526,1.708a23.968,23.968,0,0,0,3.8,1S659.978,745.663,658.088,742.93Z" transform="translate(-535.338 -602.536)"/><g class="t" transform="translate(112.351 95.5)"><path d="M648.163,753.918a1,1,0,0,1-.484-.708l-.048.092s-.425,1.164.4,1.642c.1.054.183.108.269.161.146-.034.307-.06.458-.106C649.438,754.8,648.99,754.4,648.163,753.918Z" transform="translate(-642.262 -706.268)"/><path d="M682.1,750.305c.134-.134.116-.458.016-.875a2.347,2.347,0,0,0-.237,1.24A.973.973,0,0,1,682.1,750.305Z" transform="translate(-669.772 -703.241)"/><path d="M673.979,648a5.782,5.782,0,0,0-.279,1.573,6.2,6.2,0,0,1,.347-1.088S674.021,648.3,673.979,648Z" transform="translate(-663.223 -622.029)"/><path d="M731.886,632.766a1.994,1.994,0,0,0,.03-.466c-.052.321-.084.616-.106.875C731.832,633.038,731.858,632.906,731.886,632.766Z" transform="translate(-709.75 -609.459)"/><path d="M676.966,719.947a2.784,2.784,0,0,0,.09-.947,3.215,3.215,0,0,0-.2,1.2A1.142,1.142,0,0,1,676.966,719.947Z" transform="translate(-665.749 -678.877)"/><path d="M655.123,763.7a16.594,16.594,0,0,0-.484,2.629l-5.109.8A10.539,10.539,0,0,1,648.3,765c-.064-.135-.118-.257-.159-.369-.3.154-.411.476.03,1.4a10.744,10.744,0,0,0,1.232,2.121l5.109-.8s.279-2.689.769-3.219C655.517,763.877,655.352,763.76,655.123,763.7Z" transform="translate(-642.547 -714.667)"/><path d="M626.642,559.382s.155,2.928.586,3.082h0c.2-.494.321-.959.128-1.027-.431-.154-.586-3.082-.586-3.082s-.983-3.446-.8-4.385-.8-3.157-.8-3.157l-.4-2.661a7.366,7.366,0,0,1-1.128-5.015l-.159-4.116s-1.495-7.933-1.82-11.96c-.2-2.577-.313-6.1-.361-8.3,0-.4-.016-.75-.022-1.047l-.146.02s0,.817.036,2.053c.05,2.193.154,5.725.363,8.3.325,4.026,1.82,11.96,1.82,11.96l.146,4.114a7.366,7.366,0,0,0,1.128,5.015l.4,2.663s.979,2.215.8,3.155S626.642,559.382,626.642,559.382Z" transform="translate(-621.14 -517.71)"/><path d="M722.115,764.433a4.917,4.917,0,0,1-.891-1.983c-.506.492.167,2.3.759,3.01.624.741,5.055,1.039,5.85-.4l-.032-.809C726.7,765.438,722.7,765.135,722.115,764.433Z" transform="translate(-701.132 -713.666)"/><path d="M755.654,746.972a8.329,8.329,0,0,0-.544,1.3l.022.6a9.107,9.107,0,0,1,.4-.867,2.593,2.593,0,0,0,.146-1.058A.13.13,0,0,0,755.654,746.972Z" transform="translate(-728.406 -701.247)"/><path d="M716.472,726.805a8.4,8.4,0,0,0,.379-1.025s-.716.2-1.914-1.116c-.871-.957-1-2.82-.919-4.044-.185.73-.409,3.755.8,5.069A2.989,2.989,0,0,0,716.472,726.805Z" transform="translate(-695.387 -680.174)"/><path d="M680.692,612.095a23.2,23.2,0,0,1,.181,2.512,3.28,3.28,0,0,1,.072-.4,14.965,14.965,0,0,0-.124-3.14,6.3,6.3,0,0,0-.383-2.239,27.683,27.683,0,0,1-1.2-3.652,2.517,2.517,0,0,0-.656-1.595,7.3,7.3,0,0,1-1.084-2.673,2.777,2.777,0,0,1-.494-1.808,3.719,3.719,0,0,0-.8-2.179l-1.633-4.535L673.088,589l-.688,2.033v.646l.558-1.644,1.491,3.389,1.621,4.529a3.656,3.656,0,0,1,.8,2.179,2.79,2.79,0,0,0,.494,1.81,7.307,7.307,0,0,0,1.08,2.679,2.529,2.529,0,0,1,.658,1.595,28.613,28.613,0,0,0,1.2,3.652A6.491,6.491,0,0,1,680.692,612.095Z" transform="translate(-662.182 -574.79)"/></g><path class="u" d="M699.572,296.974l-.259,1.563.046.688.032.508-1.762.251-.213-.359h0a17.2,17.2,0,0,0-1.459-2.171c-.339-.261-1.088-4.547-.377-4.32a1.862,1.862,0,0,1,1.021.855S700.094,294.255,699.572,296.974Z" transform="translate(-568.152 -242.393)"/><path class="q" d="M707.955,323.513l-1.762.251-.213-.359h0a1.565,1.565,0,0,1,1.943-.4Z" transform="translate(-576.717 -266.173)"/><path class="v" d="M708.075,324.982l-2.314.63-.064-.345-.167-.931a1.611,1.611,0,0,1,2.248-.4l.135.472Z" transform="translate(-576.357 -266.818)"/><path class="u" d="M504.648,291.081l-2.44,1.435s-.1-.2-.245-.462c-.255-.488-.638-1.224-.745-1.487-.163-.4-1.224-.889-1.224-.889-2.7-2.392.321-4.654.321-4.654,1.517-3.375,3.524,1,3.524,1a11.294,11.294,0,0,1,.169,2.492c-.173.165-.15.8-.15.8a9.336,9.336,0,0,1,.656,1.4C504.6,290.937,504.648,291.081,504.648,291.081Z" transform="translate(-410.891 -234.881)"/><path class="q" d="M517.075,319.082l-2.44,1.435s-.1-.2-.245-.462c.341-.307,1.549-1.367,1.961-1.338a3.167,3.167,0,0,0,.6,0C517.029,318.939,517.075,319.082,517.075,319.082Z" transform="translate(-423.317 -262.882)"/><path class="v" d="M517.7,320.375l-2.747,1.487-.08-.6-.056-.415s1.571-1.453,2.051-1.419a2.567,2.567,0,0,0,.732-.03l.052.5Z" transform="translate(-423.662 -263.429)"/><path class="u" d="M643.809,327.715s-12.159,1.848-9.907,1.019a3.059,3.059,0,0,0,2.25-2.739,6.262,6.262,0,0,0-.562-2.809,12.161,12.161,0,0,0-1.178-2.165s9.139-5.5,7.459-.757a7.441,7.441,0,0,0-.445,2.232,6.208,6.208,0,0,0,.325,2.231,6.672,6.672,0,0,0,2.057,2.988Z" transform="translate(-518.784 -262.579)"/><path class="q" d="M645.063,320.262a7.443,7.443,0,0,0-.445,2.233c-.851.773-1.818.761-3.056.809-.953.036-1.993.307-2.775-.122a12.163,12.163,0,0,0-1.178-2.165S646.743,315.524,645.063,320.262Z" transform="translate(-521.976 -262.577)"/><circle class="u" cx="5.055" cy="5.055" r="5.055" transform="translate(114.177 50.951)"/><path class="q" d="M643.809,351.544s-12.159,1.848-9.907,1.019a3.059,3.059,0,0,0,2.25-2.739,6.88,6.88,0,0,1,2.561-1.487,3.667,3.667,0,0,1,2.213-.122,3.049,3.049,0,0,1,.819.343A6.672,6.672,0,0,0,643.809,351.544Z" transform="translate(-518.784 -286.408)"/><path class="q" d="M708.748,327.864l-2.314.63-.064-.345a2.067,2.067,0,0,1,2.217-.855Z" transform="translate(-577.03 -269.7)"/><path class="q" d="M517.927,322.4l-2.747,1.487-.08-.6a20.469,20.469,0,0,1,2.779-1.359Z" transform="translate(-423.886 -265.455)"/><path class="q" d="M639.813,507.961c-4.7.929-11.4,2.161-12.476,1.876a31.233,31.233,0,0,0-6.179.082c-.028-1.236-.038-2.053-.038-2.053l18.263-2.615A14.678,14.678,0,0,0,639.813,507.961Z" transform="translate(-508.773 -412.234)"/><path class="w" d="M556.764,360.555s-15.474,3.273-17.166,2.829-10.252.437-10.252.437c-3.763,2.737-2.3-1.144-2.3-1.144a9.488,9.488,0,0,1-.012-3.612,22.118,22.118,0,0,0,.5-3.632s-.183-2.543.261-3.155.831-4.878.831-4.878.313-2.9.247-3.538.034-2.424.034-2.424l.437-2.99c-3.189-.3-13.1-5.872-13.1-5.872-.544-1.977-4.331-6.506-4.331-6.506a4.832,4.832,0,0,0-.341-1.134c-.281-.67,3.486-2.175,3.486-2.175s2.978,3.371,3.608,4.282a19.334,19.334,0,0,0,2.735,2.571,2.1,2.1,0,0,1,.939.088.27.27,0,0,1,.05.014h0a7.646,7.646,0,0,1,1.943,1.019,3.688,3.688,0,0,1,2.625.877s1.73-.321,2.039-.036,1.782-.068,1.782-.068,1.365-3.2,2.376-2.324,5.153.674,5.153.674a6.115,6.115,0,0,1,2.675-1.637,3.668,3.668,0,0,1,2.213-.122,2.863,2.863,0,0,1,.891.4l2.607,2.364s.686-.961.6-1.17.835-.415.835-.415,1.216-.431,1.678-.574.909.343.947.387a5,5,0,0,1-.281-1.858,2.2,2.2,0,0,0-.568-1.509c1.345-3.708,4.816-.779,4.816-.779a6.98,6.98,0,0,1,.147,2.757c-.311.777.431,2.364.363,2.791s.213,1.14.245,1.945a11.246,11.246,0,0,1-.574,3.028c-.235.7-2.193,2.294-2.193,2.294a9.581,9.581,0,0,1-.871,3.857c-.837,1.433-.1,6.211-.1,6.211s1,3.7,2.1,4.85S556.764,360.555,556.764,360.555Z" transform="translate(-421.047 -266.12)"/><path class="q" d="M610.2,366.482s-.52-1.383-.951-1.493a10.1,10.1,0,0,1-1.252-.5l.253-.534s1.613.377,1.884.833A3.693,3.693,0,0,1,610.2,366.482Z" transform="translate(-498.268 -299.099)"/><path class="q" d="M560.271,358.579c-.07.429-3.831.955-3.831.955l1.836-1.993h0l.048.016h0A7.647,7.647,0,0,1,560.271,358.579Z" transform="translate(-456.986 -293.967)"/><circle class="r" cx="0.339" cy="0.339" r="0.339" transform="translate(91.792 58.869)"/><circle class="r" cx="0.339" cy="0.339" r="0.339" transform="translate(92.253 59.531)"/><circle class="r" cx="0.339" cy="0.339" r="0.339" transform="translate(92.701 60.141)"/><circle class="r" cx="0.339" cy="0.339" r="0.339" transform="translate(93.174 60.802)"/><circle class="r" cx="0.277" cy="0.277" r="0.277" transform="translate(133.241 59.288)"/><circle class="r" cx="0.277" cy="0.277" r="0.277" transform="translate(133.307 59.911)"/><circle class="r" cx="0.277" cy="0.277" r="0.277" transform="translate(133.369 60.535)"/><path class="q" d="M621.379,434.349c-.042-.05,9.991,11.665,17.143,4.4C638.53,438.747,626.855,440.79,621.379,434.349Z" transform="translate(-508.98 -355.466)"/><path class="q" d="M595,466.919s5.731-.064,6.393,1.559l.066,1.714a1.092,1.092,0,0,1-1.064.042c-.6-.291-4.118-1.916-5.306-1.023Z" transform="translate(-487.859 -381.543)"/><path class="w" d="M595.55,466.9s5.482-.062,6.113,1.487l.064,1.633a1.05,1.05,0,0,1-1.019.04c-.564-.275-3.939-1.826-5.075-.973Z" transform="translate(-488.3 -381.527)"/><path class="q" d="M608.29,404a18.466,18.466,0,0,0,2.368,3.721,14.914,14.914,0,0,0,3.606,3.225S608.418,404.773,608.29,404Z" transform="translate(-498.5 -331.166)"/><path class="q" d="M597.61,370.94s1.114,4.086,3.63,5.392Z" transform="translate(-489.949 -304.696)"/><path class="q" d="M590.1,373.3c-.028-.076-.724,3.293,3.369,4.983C593.472,378.29,591.742,377.776,590.1,373.3Z" transform="translate(-483.89 -306.588)"/><path class="q" d="M715.224,354.588a28.312,28.312,0,0,1,2.613,1.812S716.43,354.466,715.224,354.588Z" transform="translate(-584.118 -291.599)"/><path class="p" d="M631.807,296.546a1.059,1.059,0,0,0,.421.666,1.028,1.028,0,0,0,.48.088,10.263,10.263,0,0,0,4.549-.6,1.718,1.718,0,0,0,.678-.488,2.833,2.833,0,0,0,.361-1.132,16.065,16.065,0,0,1,.849-2.181,7.2,7.2,0,0,0,.351-3.871,2.592,2.592,0,0,0-.429-1.112c-.431-.568-1.184-.775-1.742-1.218s-.933-1.14-1.577-1.465a2.922,2.922,0,0,0-1.91-.1,10.011,10.011,0,0,0-3.506,1.477,1.776,1.776,0,0,1-1.172.448,1.626,1.626,0,0,1-.9-.636,4.714,4.714,0,0,0-.293,2.215.983.983,0,0,1,0,.333,1.01,1.01,0,0,1-.221.359,1.286,1.286,0,0,0-.181,1.595c.171.187.427.283.6.474.3.345.223.859.233,1.314a.672.672,0,0,0,.13.443.654.654,0,0,0,.628.126,1.689,1.689,0,0,1,.662-.09,1.1,1.1,0,0,1,.6.423A7.833,7.833,0,0,1,631.807,296.546Z" transform="translate(-513.763 -235.907)"/><g class="x" transform="translate(113.588 50.461)"><path d="M638.082,313.807a1.707,1.707,0,0,1-.676.486,10.088,10.088,0,0,1-4.551.6.8.8,0,0,1-.9-.755,7.966,7.966,0,0,0-1.4-2.938,1.1,1.1,0,0,0-.6-.421,1.721,1.721,0,0,0-.662.088.658.658,0,0,1-.63-.124.69.69,0,0,1-.13-.445c-.01-.454.066-.969-.231-1.312-.167-.2-.423-.287-.6-.476a1,1,0,0,1-.136-1.009,1.161,1.161,0,0,0-.02,1.355c.169.187.427.283.6.476.3.343.223.857.233,1.312a.672.672,0,0,0,.13.443.654.654,0,0,0,.628.126,1.726,1.726,0,0,1,.662-.09,1.094,1.094,0,0,1,.6.423,7.738,7.738,0,0,1,1.4,2.938,1.069,1.069,0,0,0,.421.668,1.053,1.053,0,0,0,.48.088,10.321,10.321,0,0,0,4.549-.6,1.734,1.734,0,0,0,.678-.486,1.408,1.408,0,0,0,.2-.419A.808.808,0,0,1,638.082,313.807Z" transform="translate(-627.344 -304.363)"/><path d="M630.325,294.222a.716.716,0,0,0,.143-.261.922.922,0,0,0,0-.331,4.679,4.679,0,0,1,.165-1.836l-.03-.034a4.716,4.716,0,0,0-.293,2.215A1.3,1.3,0,0,1,630.325,294.222Z" transform="translate(-629.698 -291.76)"/></g><path class="q" d="M645.77,356.837s6.341.6,6.873-.377" transform="translate(-528.509 -293.102)"/><path class="q" d="M706.8,342.865s3.506-.13,4.328,1.154" transform="translate(-577.374 -282.214)"/><path class="a" d="M1078.349,677s1.182,1.545-.546,3.879-3.151,4.3-2.575,5.759c0,0,2.607-4.333,4.728-4.4S1080.683,679.6,1078.349,677Z" transform="translate(-872.258 -549.748)"/><path class="q" d="M1078.615,677a1.839,1.839,0,0,1,.241.484c2.071,2.432,3.173,4.7,1.184,4.758-1.854.054-4.078,3.369-4.61,4.2a1.972,1.972,0,0,0,.064.2s2.607-4.333,4.728-4.4S1080.949,679.6,1078.615,677Z" transform="translate(-872.524 -549.748)"/><path class="y" d="M1101.343,685.473c0,.544-.062.985-.137.985s-.135-.441-.135-.985.076-.287.151-.287S1101.343,684.929,1101.343,685.473Z" transform="translate(-893.054 -556.254)"/><path class="y" d="M1102.471,688.59c-.478.259-.9.417-.931.351s.323-.331.8-.6.289-.072.327,0S1102.947,688.329,1102.471,688.59Z" transform="translate(-893.428 -558.721)"/><path class="a" d="M1049.435,677s-1.182,1.545.544,3.879,3.153,4.3,2.577,5.759c0,0-2.607-4.333-4.728-4.4S1047.1,679.6,1049.435,677Z" transform="translate(-849.588 -549.748)"/><path class="q" d="M1049.435,677a1.839,1.839,0,0,0-.241.484c-2.071,2.432-3.173,4.7-1.184,4.758,1.854.054,4.076,3.369,4.611,4.2a1.972,1.972,0,0,1-.064.2s-2.607-4.333-4.728-4.4S1047.1,679.6,1049.435,677Z" transform="translate(-849.588 -549.748)"/><path class="y" d="M1049.06,685.473c0,.544.062.985.137.985s.136-.441.136-.985-.076-.287-.151-.287S1049.06,684.929,1049.06,685.473Z" transform="translate(-851.411 -556.254)"/><path class="y" d="M1044.115,688.59c.478.259.9.417.931.351s-.323-.331-.8-.6-.291-.072-.327,0S1043.636,688.329,1044.115,688.59Z" transform="translate(-847.219 -558.721)"/><ellipse class="e" cx="12.359" cy="1.896" rx="12.359" ry="1.896" transform="translate(190.609 144.92)"/><path class="z" d="M1056.55,711.992l-.06.482-.082.682-.034.285-.084.682-.036.285-.084.68-.945,7.754c-.086.692-1.216,1.232-2.579,1.232h-4.915c-1.365,0-2.494-.54-2.577-1.232l-.949-7.754-.082-.68-.034-.285-.086-.682-.034-.285-.084-.682-.058-.482c-.048-.4.564-.722,1.336-.722h10.058C1055.986,711.27,1056.6,711.6,1056.55,711.992Z" transform="translate(-847.22 -577.187)"/><path class="aa" d="M999.234,678.69l-.084.682H986.712l-.082-.682Z" transform="translate(-789.964 -543.403)"/><path class="aa" d="M999.589,683.53l-.082.684H987.3l-.084-.684Z" transform="translate(-790.436 -547.279)"/><path class="aa" d="M999.941,688.38l-.082.682H987.894l-.084-.682Z" transform="translate(-790.908 -551.162)"/></g></svg>