<?xml version="1.0" encoding="utf-8"?>
<!-- Generator: Adobe Illustrator 24.1.2, SVG Export Plug-In . SVG Version: 6.00 Build 0)  -->
<svg version="1.1" id="Component_2_1" xmlns="http://www.w3.org/2000/svg" xmlns:xlink="http://www.w3.org/1999/xlink" x="0px"
	 y="0px" viewBox="0 0 200.9 202.7" style="enable-background:new 0 0 200.9 202.7;" xml:space="preserve">
<style type="text/css">
	.st0{opacity:0.1;fill:#00A0C6;enable-background:new    ;}
	.st1{fill:#00A0C6;}
	.st2{fill:#E6E6E6;}
	.st3{fill:#FFFFFF;}
</style>
<path id="Path_311" class="st0" d="M185.7,110.3c1,10.7-5.3,21.7-12.5,30.6c-22.8,27.9-56,43.8-88.4,54.8c-11.8,4-23.9,7.5-35.7,7
	c-24-1-43.9-20.6-46.1-45.3c-0.7-8.4,0.4-17.2,2-25.8c2.9-15.3,7.5-30.8,15.7-44.6c5.9-9.8,13.4-18.6,21.3-26.8
	c22.2-22.9,48.2-42.3,76.7-53.7c12.5-5,26-8.4,38.1-5.4s22,14.1,20.6,27.5c-0.6,5.6-3,10.9-5.3,16.2c-3.5,7.7-7.1,15.6-8.7,23.7
	c-1.6,8.4-1.3,20,6.2,23.7C177.7,96.1,184.7,99.6,185.7,110.3z"/>
<g id="undraw_add_document_0hek" transform="translate(10.588 46.235)">
	<path id="Path_286" class="st1" d="M178.1,125.4c3.5-3.9,19.7-23.2,8.2-26.4c-8.7-2.4-9.6,10.8-9.3,19.6c-1.4-6-4.1-12.9-8.8-9.8
		c-6.8,4.4,6,14.2,9.3,16.6c0.1,0.5,0.1,0.8,0.1,0.8s0.1-0.1,0.4-0.4c0.2,0.1,0.3,0.2,0.3,0.2S178.1,125.7,178.1,125.4z"/>
	<path id="Path_287" class="st1" d="M3.1,136.2c4-4.5,22.6-26.6,9.3-30.3c-9.9-2.7-11,12.3-10.7,22.5c-1.6-6.8-4.7-14.8-10.1-11.3
		c-7.8,5.1,6.8,16.3,10.7,19c0.1,0.6,0.1,0.9,0.1,0.9s0.2-0.2,0.4-0.5c0.2,0.2,0.3,0.2,0.3,0.2S3.2,136.5,3.1,136.2z"/>
	<path id="Path_288" class="st2" d="M34.7-14c-0.7,0-1.3,0.6-1.3,1.3v138.2c0,0.7,0.6,1.3,1.3,1.3H146c0.7,0,1.3-0.6,1.3-1.3V-12.7
		c0-0.7-0.6-1.3-1.3-1.3H34.7z"/>
	<path id="Path_289" class="st3" d="M128.3,46.3H52.4c-1.1,0-1.9-0.9-1.9-1.9c0-1.1,0.9-1.9,1.9-1.9l0,0h75.9c1.1,0,1.9,0.9,1.9,1.9
		C130.3,45.5,129.4,46.3,128.3,46.3z"/>
	<path id="Path_290" class="st3" d="M129,10.2H78.6c-0.7,0-1.3-0.9-1.3-1.9s0.6-1.9,1.3-1.9H129c0.7,0,1.3,0.9,1.3,1.9
		S129.7,10.2,129,10.2z"/>
	<path id="Path_291" class="st3" d="M129,21.3H78.6c-0.7,0-1.3-0.9-1.3-1.9s0.6-1.9,1.3-1.9H129c0.7,0,1.3,0.9,1.3,1.9
		S129.7,21.3,129,21.3z"/>
	<path id="Path_292" class="st3" d="M128.3,58.8H52.4c-1.1,0-1.9-0.9-1.9-1.9c0-1.1,0.9-1.9,1.9-1.9l0,0h75.9c1.1,0,1.9,0.9,1.9,1.9
		C130.3,58,129.4,58.8,128.3,58.8z"/>
	<path id="Path_293" class="st3" d="M128.3,71.4H52.4c-1.1,0-1.9-0.9-1.9-1.9c0-1.1,0.9-1.9,1.9-1.9l0,0h75.9c1.1,0,1.9,0.9,1.9,1.9
		C130.3,70.5,129.4,71.4,128.3,71.4z"/>
	<path id="Path_294" class="st3" d="M128.3,83.9H52.4c-1.1,0-1.9-0.9-1.9-1.9s0.9-1.9,1.9-1.9h75.9c1.1,0,1.9,0.9,1.9,1.9
		S129.4,83.9,128.3,83.9L128.3,83.9z"/>
	<path id="Path_295" class="st3" d="M128.3,96.4H52.4c-1.1,0-1.9-0.9-1.9-1.9s0.9-1.9,1.9-1.9h75.9c1.1,0,1.9,0.9,1.9,1.9
		S129.4,96.4,128.3,96.4L128.3,96.4z"/>
	<path id="Path_296" class="st3" d="M128.3,108.9H52.4c-1.1,0-1.9-0.9-1.9-1.9s0.9-1.9,1.9-1.9h75.9c1.1,0,1.9,0.9,1.9,1.9
		S129.4,108.9,128.3,108.9L128.3,108.9z"/>
	<circle id="Ellipse_78" class="st3" cx="60.7" cy="14" r="10.2"/>
	<path id="Path_297" class="st3" d="M88.4,45.3"/>
	<circle id="Ellipse_80" class="st1" cx="143.8" cy="-12.3" r="14.9"/>
	<path id="Path_310" class="st3" d="M137.6-13.3c-0.5,0-1,0.4-1,1s0.4,1,1,1c0,0,0,0,0.1,0h5.2v5.2c0,0.5,0.5,1,1,1s0.9-0.4,1-1
		v-5.2h5.2c0.5,0,1-0.4,1-1s-0.4-1-1-1c0,0,0,0-0.1,0h-5.2v-5.2c0-0.5-0.5-1-1-1s-0.9,0.4-1,1v5.2H137.6z"/>
</g>
</svg>
