<svg xmlns="http://www.w3.org/2000/svg" width="200.885" height="165.178" viewBox="0 0 200.885 165.178"><defs><style>.a{fill:#00a0c6;}.b{fill:#e6e6e6;}.c{fill:#fff;}.d{fill:#ffb8b8;}.e{fill:#2f2e41;}</style></defs><path class="a" d="M907.09,648.339c3.45-3.925,19.7-23.247,8.15-26.432-8.673-2.392-9.639,10.77-9.348,19.6-1.389-5.951-4.084-12.9-8.819-9.835-6.824,4.42,5.963,14.2,9.3,16.6.055.488.091.76.091.76s.137-.149.381-.424c.191.134.3.205.3.205S907.127,648.646,907.09,648.339Z" transform="translate(-718.439 -494.707)"/><path class="a" d="M224.833,678.794c3.952-4.5,22.56-26.626,9.334-30.274-9.934-2.74-11.04,12.335-10.707,22.452-1.591-6.816-4.678-14.778-10.1-11.265-7.816,5.063,6.83,16.267,10.656,19.018.063.559.1.87.1.87s.157-.171.437-.486c.219.153.34.235.34.235S224.875,679.145,224.833,678.794Z" transform="translate(-211.097 -514.416)"/><path class="b" d="M429.194,181.278a1.293,1.293,0,0,0-1.291,1.291V320.745a1.293,1.293,0,0,0,1.291,1.291H540.509a1.293,1.293,0,0,0,1.291-1.291V182.57a1.293,1.293,0,0,0-1.291-1.291Z" transform="translate(-371.908 -168.092)"/><path class="c" d="M571.772,403.777H495.84a1.937,1.937,0,1,1,0-3.874h75.932a1.937,1.937,0,0,1,0,3.874Z" transform="translate(-420.862 -330.253)"/><path class="c" d="M649.563,264.027H599.188c-.71,0-1.285-.867-1.285-1.937s.575-1.937,1.285-1.937h50.376c.71,0,1.285.867,1.285,1.937S650.273,264.027,649.563,264.027Z" transform="translate(-498.002 -226.596)"/><path class="c" d="M649.563,307.027H599.188c-.71,0-1.285-.867-1.285-1.937s.575-1.937,1.285-1.937h50.376c.71,0,1.285.867,1.285,1.937S650.273,307.027,649.563,307.027Z" transform="translate(-498.002 -258.491)"/><path class="c" d="M571.772,452.277H495.84a1.937,1.937,0,1,1,0-3.874h75.932a1.937,1.937,0,0,1,0,3.874Z" transform="translate(-420.862 -366.227)"/><path class="c" d="M571.772,500.777H495.84a1.937,1.937,0,1,1,0-3.874h75.932a1.937,1.937,0,0,1,0,3.874Z" transform="translate(-420.862 -402.2)"/><path class="c" d="M571.772,549.277H495.84a1.937,1.937,0,1,1,0-3.874h75.932a1.937,1.937,0,0,1,0,3.874Z" transform="translate(-420.862 -438.174)"/><path class="c" d="M571.772,597.778H495.84a1.937,1.937,0,0,1,0-3.874h75.932a1.937,1.937,0,0,1,0,3.874Z" transform="translate(-420.862 -474.148)"/><path class="c" d="M571.772,646.277H495.84a1.937,1.937,0,1,1,0-3.874h75.932a1.937,1.937,0,0,1,0,3.874Z" transform="translate(-420.862 -510.122)"/><circle class="c" cx="10.202" cy="10.202" r="10.202" transform="translate(73.041 30.974)"/><path class="c" d="M594.265,414.9" transform="translate(-495.304 -341.379)"/><path class="d" d="M459.264,402.716,444.051,410.8l-.193-6.74a45.057,45.057,0,0,0,14.058-4.622l1.591-3.931a2.665,2.665,0,0,1,4.529-.692h0a2.665,2.665,0,0,1-.235,3.634Z" transform="translate(-383.743 -325.76)"/><path class="e" d="M359.281,579.7h0a2.989,2.989,0,0,1,.379-2.418L363,572.154a5.84,5.84,0,0,1,7.576-2h0c-1.4,2.391-1.209,4.488.485,6.311a30.378,30.378,0,0,0-7.215,4.919,2.989,2.989,0,0,1-4.568-1.684Z" transform="translate(-320.931 -456.049)"/><path class="e" d="M425.669,518.506h0a5.734,5.734,0,0,1-4.874,2.784l-22.2.168-.963-5.585,9.821-2.889-8.281-6.355,9.051-10.591,16.439,15.322A5.735,5.735,0,0,1,425.669,518.506Z" transform="translate(-349.455 -401.559)"/><path class="e" d="M359.492,512.455h-5.2c-4.668-32-9.42-64.088,4.622-76.065l16.561,2.7-2.118,14.058-9.243,10.591Z" transform="translate(-313.819 -357.316)"/><path class="e" d="M374.341,735.134h0a2.99,2.99,0,0,1-2.418-.379l-5.129-3.342a5.84,5.84,0,0,1-2-7.576h0c2.391,1.4,4.488,1.208,6.31-.485a30.38,30.38,0,0,0,4.919,7.215,2.989,2.989,0,0,1-1.683,4.568Z" transform="translate(-324.614 -570.163)"/><path class="e" d="M394.409,284.107H369.692c-4.565-6.458-5.1-12.633,0-18.413,0-2.556,3.3-4.628,7.374-4.628h0c3.19,0,6.018,1.287,7.009,3.191Z" transform="translate(-326.041 -227.273)"/><path class="d" d="M408,315.468l-9.628-2.311c1.6-3.273,1.731-6.915.963-10.784l6.547-.193A50.28,50.28,0,0,0,408,315.468Z" transform="translate(-350.008 -257.769)"/><path class="a" d="M394.128,369.671c-7.009,4.776-11.962.163-15.741-6.954.525-4.355-.325-9.567-1.9-15.229a10.366,10.366,0,0,1,6.329-12.5h0l8.281,3.466c7.031,5.731,8.415,11.939,5.777,18.487Z" transform="translate(-333.485 -282.103)"/><path class="d" d="M318.182,349.593l-7.7,4.044,13.672,8.088,1.9,4.693a2.489,2.489,0,0,1-1.5,3.288h0a2.489,2.489,0,0,1-3.3-2.207l-.192-3.271-17.378-5.735a4.064,4.064,0,0,1-2.55-2.482h0a4.063,4.063,0,0,1,1.525-4.727l13.974-9.587Z" transform="translate(-277.708 -287.08)"/><path class="a" d="M367.767,344.525c-3.213-1.408-6.134.121-9.821,1.348l-.578-10.206c3.661-1.951,7.152-2.478,10.4-.963Z" transform="translate(-319.59 -281.241)"/><path class="e" d="M402.734,285.491h-5.452c-3.393-6.259-3.239-17.319-10.532-14.854-4.685-2.781-2,8.132-3.162,14.854h-4.741c-1.288-6.568-1.306-13.149.209-18.5a2.494,2.494,0,0,1,.907-1.823,5.156,5.156,0,0,1,.761-.578,8.356,8.356,0,0,1,5.248-1.657,14.774,14.774,0,0,1,4.052.557c.171.05.341.1.5.16.225.077.443.162.651.252a4.478,4.478,0,0,1,2.311,1.864C398.1,271.268,400.46,278.21,402.734,285.491Z" transform="translate(-334.819 -228.657)"/><circle class="d" cx="6.147" cy="6.147" r="6.147" transform="translate(45.872 37.172)"/><path class="e" d="M400.839,273.744c-1.849-2.521-6.672.486-12.471,2.635v-5.972c4.77-2.1,7.551-2.705,10.714-.527Z" transform="translate(-342.584 -232.796)"/><circle class="a" cx="14.892" cy="14.892" r="14.892" transform="translate(151.473 0)"/><path class="c" d="M828.4,166.259a.983.983,0,1,0,0,1.965h5.222v5.222a.983.983,0,0,0,1.965,0v-5.222h5.222a.983.983,0,1,0,0-1.965h-5.222v-5.222a.983.983,0,0,0-1.965,0v5.222Z" transform="translate(-668.237 -152.35)"/></svg>