<svg xmlns="http://www.w3.org/2000/svg" xmlns:xlink="http://www.w3.org/1999/xlink" width="169.116" height="128.192" viewBox="0 0 169.116 128.192">
  <defs>
    <linearGradient id="linear-gradient" x1="0.5" y1="1" x2="0.5" gradientUnits="objectBoundingBox">
      <stop offset="0" stop-color="gray" stop-opacity="0.251"/>
      <stop offset="0.54" stop-color="gray" stop-opacity="0.122"/>
      <stop offset="1" stop-color="gray" stop-opacity="0.102"/>
    </linearGradient>
    <linearGradient id="linear-gradient-2" y1="1" y2="0" xlink:href="#linear-gradient"/>
    <linearGradient id="linear-gradient-3" x1="0" y1="0.5" x2="1" y2="0.5" xlink:href="#linear-gradient"/>
    <linearGradient id="linear-gradient-4" x1="2.581" y1="1" x2="2.581" y2="0" xlink:href="#linear-gradient"/>
    <linearGradient id="linear-gradient-5" y1="1" y2="0" xlink:href="#linear-gradient"/>
    <linearGradient id="linear-gradient-6" x1="-25.357" y1="1.001" x2="-25.357" y2="0" xlink:href="#linear-gradient"/>
  </defs>
  <g id="Component_3_1" data-name="Component 3 – 1" transform="translate(0 0)">
    <g id="undraw_people_search_wctu" transform="translate(0 0.006)">
      <path id="Path_636" data-name="Path 636" d="M202.208,93.445c-5.946,8.158-3.984,19.8-.547,29.082,1.151,3.106,2.459,6.391,1.862,9.77-.729,4.131-4.155,7.226-7.717,8.912a20.448,20.448,0,0,1-19.969-1.289c-5.012-3.341-8.54-8.894-13.649-12.075-8.55-5.323-19.651-2.945-29.167,1.119-6.732,2.875-14.107,6.578-20.668,3.923-4.617-1.868-7.726-6.623-9.361-11.706-.79-2.454-1.343-5.118-2.916-7.039a10.764,10.764,0,0,0-3.443-2.6c-11.6-6.075-26.524-2.278-37.772-9.056-7.594-4.577-12.32-13.46-14.283-22.8s-1.478-19.2-.7-28.886c.556-6.886,1.435-14.244,5.575-19.655,4.378-5.721,11.717-7.994,18.279-7.1s12.446,4.541,17.593,8.892c6.438,5.428,12.361,12.242,20.367,14.3,5.454,1.4,11.248.41,16.917-.029,9.477-.732,18.92.111,28.306,1.063,8.985.911,18.032,1.929,26.541,4.916,6.022,2.114,10.795,6.11,16.464,8.84,3.695,1.78,7.761,2.193,11.238,4.492,4.292,2.832,8.171,7.85,6.912,13.872C210.886,86.117,205.367,89.115,202.208,93.445Z" transform="translate(-43.2 -23.86)" fill="#00a0c6" opacity="0.1"/>
      <g id="Group_26" data-name="Group 26" transform="translate(119.943 54.335)" opacity="0.5">
        <path id="Path_637" data-name="Path 637" d="M898.19,487.037s.5-14.847,8.534-23.236a22.506,22.506,0,0,0,6.172-12.83,37.845,37.845,0,0,0,.188-6.921" transform="translate(-888.285 -434.576)" fill="none" stroke="#535461" stroke-miterlimit="10" stroke-width="2"/>
        <path id="Path_638" data-name="Path 638" d="M995.152,385.826c-.55,1.658-5.145,5.467-5.145,5.467s-1.408-5.8-.858-7.46a3.163,3.163,0,0,1,6,1.991Z" transform="translate(-965.322 -381.666)" fill="#00a0c6"/>
        <path id="Path_639" data-name="Path 639" d="M1001.29,448.474c-1.367,1.094-7.29,1.8-7.29,1.8s1.974-5.636,3.341-6.728a3.162,3.162,0,1,1,3.949,4.933Z" transform="translate(-969.544 -433.485)" fill="#00a0c6"/>
        <path id="Path_640" data-name="Path 640" d="M966.11,548.1c-1.728.255-7.2-2.126-7.2-2.126s4.547-3.87,6.275-4.125a3.163,3.163,0,1,1,.925,6.257Z" transform="translate(-939.783 -517.492)" fill="#00a0c6"/>
        <path id="Path_641" data-name="Path 641" d="M920.147,620.492c-1.66.544-7.457-.884-7.457-.884s3.829-4.582,5.489-5.126a3.163,3.163,0,0,1,1.974,6.01Z" transform="translate(-900.583 -578.99)" fill="#00a0c6"/>
        <path id="Path_642" data-name="Path 642" d="M949.827,454.709c.807,1.549,5.955,4.582,5.955,4.582s.468-5.952-.339-7.5a3.162,3.162,0,0,0-5.61,2.919Z" transform="translate(-931.782 -439.694)" fill="#00a0c6"/>
        <path id="Path_643" data-name="Path 643" d="M895.631,534.95c1.233,1.238,7.047,2.592,7.047,2.592s-1.335-5.82-2.567-7.057a3.162,3.162,0,0,0-4.48,4.463Z" transform="translate(-885.333 -507.094)" fill="#00a0c6"/>
        <path id="Path_644" data-name="Path 644" d="M858.938,625.767c1.005,1.428,6.508,3.747,6.508,3.747s-.331-5.961-1.338-7.39a3.162,3.162,0,1,0-5.164,3.645Z" transform="translate(-854.456 -584.397)" fill="#00a0c6"/>
        <path id="Path_645" data-name="Path 645" d="M868.811,555.35s-4.556-6.628-3.757-12.863a12.186,12.186,0,0,0-1.44-7.572,20.519,20.519,0,0,0-2.144-3.074" transform="translate(-857.142 -509.033)" fill="none" stroke="#535461" stroke-miterlimit="10" stroke-width="2"/>
        <path id="Path_646" data-name="Path 646" d="M845.989,499.354c.293.9-.481,4.037-.481,4.037s-2.48-2.075-2.773-2.972a1.712,1.712,0,1,1,3.255-1.063Z" transform="translate(-841.18 -480.481)" fill="#00a0c6"/>
        <path id="Path_647" data-name="Path 647" d="M874.362,520.918c-.241.911-2.6,3.127-2.6,3.127s-.954-3.089-.712-4a1.712,1.712,0,1,1,3.311.876Z" transform="translate(-865.235 -497.945)" fill="#00a0c6"/>
        <path id="Path_648" data-name="Path 648" d="M889.271,572.856c-.67.667-3.821,1.388-3.821,1.388s.735-3.148,1.406-3.815a1.713,1.713,0,1,1,2.415,2.43Z" transform="translate(-877.48 -541.34)" fill="#00a0c6"/>
        <path id="Path_649" data-name="Path 649" d="M894.539,619.642c-.548.77-3.539,2.011-3.539,2.011s.193-3.227.741-4a1.712,1.712,0,1,1,2.791,1.983Z" transform="translate(-882.187 -581.205)" fill="#00a0c6"/>
        <path id="Path_650" data-name="Path 650" d="M848.478,543.852c.849.416,4.064.082,4.064.082s-1.712-2.743-2.561-3.157a1.712,1.712,0,1,0-1.5,3.075Z" transform="translate(-845.308 -516.464)" fill="#00a0c6"/>
        <path id="Path_651" data-name="Path 651" d="M850.705,596.269c.936.143,3.9-1.138,3.9-1.138s-2.454-2.1-3.388-2.242a1.712,1.712,0,1,0-.515,3.385Z" transform="translate(-846.778 -560.794)" fill="#00a0c6"/>
        <path id="Path_652" data-name="Path 652" d="M864.22,647.714c.9.3,4.04-.456,4.04-.456s-2.062-2.489-2.96-2.788a1.712,1.712,0,1,0-1.08,3.25Z" transform="translate(-858.479 -604.483)" fill="#00a0c6"/>
        <path id="Path_653" data-name="Path 653" d="M845.989,499.354c.293.9-.481,4.037-.481,4.037s-2.48-2.075-2.773-2.972a1.712,1.712,0,1,1,3.255-1.063Z" transform="translate(-841.18 -480.481)" fill="#fff" opacity="0.5"/>
        <path id="Path_654" data-name="Path 654" d="M874.362,520.918c-.241.911-2.6,3.127-2.6,3.127s-.954-3.089-.712-4a1.712,1.712,0,1,1,3.311.876Z" transform="translate(-865.235 -497.945)" fill="#fff" opacity="0.5"/>
        <path id="Path_655" data-name="Path 655" d="M889.271,572.856c-.67.667-3.821,1.388-3.821,1.388s.735-3.148,1.406-3.815a1.713,1.713,0,1,1,2.415,2.43Z" transform="translate(-877.48 -541.34)" fill="#fff" opacity="0.5"/>
        <path id="Path_656" data-name="Path 656" d="M894.539,619.642c-.548.77-3.539,2.011-3.539,2.011s.193-3.227.741-4a1.712,1.712,0,1,1,2.791,1.983Z" transform="translate(-882.187 -581.205)" fill="#fff" opacity="0.5"/>
        <path id="Path_657" data-name="Path 657" d="M848.478,543.852c.849.416,4.064.082,4.064.082s-1.712-2.743-2.561-3.157a1.712,1.712,0,1,0-1.5,3.075Z" transform="translate(-845.308 -516.464)" fill="#fff" opacity="0.5"/>
        <path id="Path_658" data-name="Path 658" d="M850.705,596.269c.936.143,3.9-1.138,3.9-1.138s-2.454-2.1-3.388-2.242a1.712,1.712,0,1,0-.515,3.385Z" transform="translate(-846.778 -560.794)" fill="#fff" opacity="0.5"/>
        <path id="Path_659" data-name="Path 659" d="M864.22,647.714c.9.3,4.04-.456,4.04-.456s-2.062-2.489-2.96-2.788a1.712,1.712,0,1,0-1.08,3.25Z" transform="translate(-858.479 -604.483)" fill="#fff" opacity="0.5"/>
        <path id="Path_660" data-name="Path 660" d="M793.009,670.743h12.959l3.241-19.763H789.77Z" transform="translate(-789.77 -606.455)" fill="#474059"/>
        <path id="Path_661" data-name="Path 661" d="M792.25,650.98l3.027,18.468h10.9l-.213,1.3H793.009L789.77,650.98Z" transform="translate(-789.77 -606.455)" opacity="0.1"/>
      </g>
      <rect id="Rectangle_395" data-name="Rectangle 395" width="95.071" height="114.708" transform="translate(30.568 5.962)" fill="url(#linear-gradient)"/>
      <rect id="Rectangle_396" data-name="Rectangle 396" width="92.641" height="111.777" transform="translate(31.783 7.429)" fill="#fff"/>
      <rect id="Rectangle_397" data-name="Rectangle 397" width="37.36" height="1.822" transform="translate(67.777 20.034)" fill="#c0bccf"/>
      <rect id="Rectangle_398" data-name="Rectangle 398" width="37.36" height="1.822" transform="translate(67.777 25.805)" fill="#c0bccf"/>
      <rect id="Rectangle_399" data-name="Rectangle 399" width="19.439" height="1.822" transform="translate(76.737 31.577)" fill="#00a0c6"/>
      <rect id="Rectangle_400" data-name="Rectangle 400" width="37.36" height="1.822" transform="translate(67.777 56.635)" fill="#c0bccf" opacity="0.5"/>
      <rect id="Rectangle_401" data-name="Rectangle 401" width="37.36" height="1.822" transform="translate(67.777 62.406)" fill="#c0bccf" opacity="0.5"/>
      <rect id="Rectangle_402" data-name="Rectangle 402" width="19.439" height="1.822" transform="translate(76.737 68.177)" fill="#00a0c6" opacity="0.5"/>
      <rect id="Rectangle_403" data-name="Rectangle 403" width="37.36" height="1.822" transform="translate(67.777 93.236)" fill="#c0bccf" opacity="0.5"/>
      <rect id="Rectangle_404" data-name="Rectangle 404" width="37.36" height="1.822" transform="translate(67.777 99.007)" fill="#c0bccf" opacity="0.5"/>
      <rect id="Rectangle_405" data-name="Rectangle 405" width="19.439" height="1.822" transform="translate(76.737 104.778)" fill="#00a0c6" opacity="0.5"/>
      <g id="Group_27" data-name="Group 27" transform="translate(36.795 52.988)" opacity="0.5">
        <path id="Path_662" data-name="Path 662" d="M306.134,383.126a10.279,10.279,0,0,1-2.486,6.72c-.079.093-.161.184-.245.273q-.062.07-.128.137a10.138,10.138,0,0,1-1.1,1l-.027.02a10.093,10.093,0,0,1-1.959,1.2h0a10.175,10.175,0,0,1-1.1.44l-.138.044c-.085.029-.173.055-.26.079l-.035.011a10.377,10.377,0,0,1-5.7,0h-.015c-.152-.044-.3-.09-.443-.14l-.129-.046a10.011,10.011,0,0,1-1.428-.632l-.029-.015a10.366,10.366,0,0,1-2.023-1.432l-.05-.047a9.66,9.66,0,0,1-.882-.911c-.036-.041-.071-.084-.106-.126-.067-.079-.131-.161-.194-.243a10.327,10.327,0,1,1,18.483-6.336Z" transform="translate(-285.48 -372.798)" fill="#c0bccf"/>
        <path id="Path_663" data-name="Path 663" d="M315.436,399.314l-.784-.352a3.1,3.1,0,0,0,.015-.358,2.8,2.8,0,0,0,0-.3,6.848,6.848,0,0,0-.946-2.225,6.318,6.318,0,0,1-.618-2.126,10.275,10.275,0,0,0-.334-2.712,4.895,4.895,0,0,0-1.385-1.778,7.031,7.031,0,0,0-2.225-1.411,3.935,3.935,0,0,0-2.65-.071,5.718,5.718,0,0,0-1.909,1.379,6.417,6.417,0,0,0-1.078,1.227,5.308,5.308,0,0,0-.607,1.856,28.387,28.387,0,0,0-.374,3.1,3,3,0,0,1-.893,2.383c-.361.26-.87.406-1.036.8a.817.817,0,0,0-.055.372,1.368,1.368,0,0,0,.023.314c.011.061.023.12.038.181a13.327,13.327,0,0,0-.535,1.622c-.111.41-.213.813-.3,1.2h.377l1.415.033h.02l1.519.035h.008l1.415.033h.035l.409.029h.134l5.66.131h.03l.377.009h.132l1.133.026h0l1.671.038h.012l1.258.03h.392l-.067-1.318C315.985,399.44,315.436,399.314,315.436,399.314Zm-6.359-.161a4.947,4.947,0,0,1-1.2,2.486l-1.2-1.64.044-.064,1.16,1.579a4.94,4.94,0,0,0,1.2-2.486,1.31,1.31,0,0,1,.1-.164l.027.085A1.623,1.623,0,0,0,309.077,399.153Zm1.841,4.386a.915.915,0,0,0-.011-.17c-.011-.056-.009-.106-.017-.161s-.014-.108-.021-.163-.018-.108-.029-.162-.021-.108-.033-.163a.255.255,0,0,0-.012-.055q-.025-.107-.055-.214c-.02-.071-.032-.115-.05-.172a.234.234,0,0,0-.024-.076c-.009-.024-.026-.082-.039-.123L310.6,402c-.012-.035-.024-.071-.038-.106-.023-.064-.047-.126-.071-.19s-.05-.126-.076-.188c-.052-.128-.108-.254-.164-.381-.22-.492-.468-.977-.7-1.456a7.759,7.759,0,0,1-.325-.772l-.029.038a1.623,1.623,0,0,0-.123.205,4.947,4.947,0,0,1-1.2,2.486l-1.2-1.64-1.054,1.519a1.229,1.229,0,0,0-.422.7c-.033.1-.065.208-.1.322-.021.077-.041.152-.059.238-.011.041-.02.082-.029.125l-.027.129v.02c-.018.088-.036.179-.053.272s-.036.2-.053.3q-.018.1-.032.2c-.021.126-.039.254-.058.381-.011.074-.021.152-.03.22l-.036.282c.077.232.164.456.254.689a1.085,1.085,0,0,1,.1.39,11.068,11.068,0,0,0,5.7,0,.051.051,0,0,1,0-.014,1.588,1.588,0,0,1-.036-.387h0a10.007,10.007,0,0,1,.152-1.087,3.718,3.718,0,0,0,.029-.535V403.7c0-.058-.006-.109-.008-.159Zm0,0a.915.915,0,0,0-.011-.17c-.011-.056-.009-.106-.017-.161s-.014-.108-.021-.163-.018-.108-.029-.162-.021-.108-.033-.163a.255.255,0,0,0-.012-.055q-.025-.107-.055-.214c-.02-.071-.032-.115-.05-.172a.234.234,0,0,0-.024-.076c-.009-.024-.026-.082-.039-.123L310.6,402c-.012-.035-.024-.071-.038-.106-.023-.064-.047-.126-.071-.19s-.05-.126-.076-.188c-.052-.128-.108-.254-.164-.381-.22-.492-.468-.977-.7-1.456a7.759,7.759,0,0,1-.325-.772l-.029.038a1.623,1.623,0,0,0-.123.205,4.947,4.947,0,0,1-1.2,2.486l-1.2-1.64-1.054,1.519a1.229,1.229,0,0,0-.422.7c-.033.1-.065.208-.1.322-.021.077-.041.152-.059.238-.011.041-.02.082-.029.125l-.027.129v.02c-.018.088-.036.179-.053.272s-.036.2-.053.3q-.018.1-.032.2c-.021.126-.039.254-.058.381-.011.074-.021.152-.03.22l-.036.282c.077.232.164.456.254.689a1.085,1.085,0,0,1,.1.39,11.068,11.068,0,0,0,5.7,0,.051.051,0,0,1,0-.014,1.588,1.588,0,0,1-.036-.387h0a10.007,10.007,0,0,1,.152-1.087,3.718,3.718,0,0,0,.029-.535V403.7c0-.058-.006-.109-.008-.159Zm0,0a.915.915,0,0,0-.011-.17c-.011-.056-.009-.106-.017-.161s-.014-.108-.021-.163-.018-.108-.029-.162-.021-.108-.033-.163a.255.255,0,0,0-.012-.055q-.025-.107-.055-.214c-.02-.071-.032-.115-.05-.172a.234.234,0,0,0-.024-.076c-.009-.024-.026-.082-.039-.123L310.6,402c-.012-.035-.024-.071-.038-.106-.023-.064-.047-.126-.071-.19s-.05-.126-.076-.188c-.052-.128-.108-.254-.164-.381-.22-.492-.468-.977-.7-1.456a7.759,7.759,0,0,1-.325-.772l-.029.038a1.623,1.623,0,0,0-.123.205,4.947,4.947,0,0,1-1.2,2.486l-1.2-1.64-1.054,1.519a1.229,1.229,0,0,0-.422.7c-.033.1-.065.208-.1.322-.021.077-.041.152-.059.238-.011.041-.02.082-.029.125l-.027.129v.02c-.018.088-.036.179-.053.272s-.036.2-.053.3q-.018.1-.032.2c-.021.126-.039.254-.058.381-.011.074-.021.152-.03.22l-.036.282c.077.232.164.456.254.689a1.085,1.085,0,0,1,.1.39,11.068,11.068,0,0,0,5.7,0,.051.051,0,0,1,0-.014,1.588,1.588,0,0,1-.036-.387h0a10.007,10.007,0,0,1,.152-1.087,3.718,3.718,0,0,0,.029-.535V403.7c0-.058-.006-.109-.008-.159Zm0,0a.915.915,0,0,0-.011-.17c-.011-.056-.009-.106-.017-.161s-.014-.108-.021-.163-.018-.108-.029-.162-.021-.108-.033-.163a.255.255,0,0,0-.012-.055q-.025-.107-.055-.214c-.02-.071-.032-.115-.05-.172a.234.234,0,0,0-.024-.076c-.009-.024-.026-.082-.039-.123L310.6,402c-.012-.035-.024-.071-.038-.106-.023-.064-.047-.126-.071-.19s-.05-.126-.076-.188c-.052-.128-.108-.254-.164-.381-.22-.492-.468-.977-.7-1.456a7.759,7.759,0,0,1-.325-.772l-.029.038a1.623,1.623,0,0,0-.123.205,4.947,4.947,0,0,1-1.2,2.486l-1.2-1.64-1.054,1.519a1.229,1.229,0,0,0-.422.7c-.033.1-.065.208-.1.322-.021.077-.041.152-.059.238-.011.041-.02.082-.029.125l-.027.129v.02c-.018.088-.036.179-.053.272s-.036.2-.053.3q-.018.1-.032.2c-.021.126-.039.254-.058.381-.011.074-.021.152-.03.22l-.036.282c.077.232.164.456.254.689a1.085,1.085,0,0,1,.1.39,11.068,11.068,0,0,0,5.7,0,.051.051,0,0,1,0-.014,1.588,1.588,0,0,1-.036-.387h0a10.007,10.007,0,0,1,.152-1.087,3.718,3.718,0,0,0,.029-.535V403.7c0-.058-.006-.109-.008-.159Z" transform="translate(-297.608 -385.503)" fill="url(#linear-gradient-2)"/>
        <rect id="Rectangle_406" data-name="Rectangle 406" width="6.986" height="4.708" transform="translate(6.379 7.443)" fill="#493545"/>
        <path id="Path_664" data-name="Path 664" d="M335.206,431.523l-2.923,4.119-3.056-.266s-3.987.264-1.329-2.79a6.556,6.556,0,0,0,1.784-3.566,2.761,2.761,0,0,0-.19-1.482l3.321-.4a2.479,2.479,0,0,0-.055,1.387A6.038,6.038,0,0,0,335.206,431.523Z" transform="translate(-320.681 -418.887)" fill="#c77485"/>
        <path id="Path_665" data-name="Path 665" d="M346.757,428.505a3.32,3.32,0,0,1-3.077.5,2.761,2.761,0,0,0-.19-1.482l3.321-.4A2.478,2.478,0,0,0,346.757,428.505Z" transform="translate(-334.68 -418.87)" opacity="0.1"/>
        <circle id="Ellipse_175" data-name="Ellipse 175" cx="3.321" cy="3.321" r="3.321" transform="translate(6.752 3.533)" fill="#c77485"/>
        <path id="Path_666" data-name="Path 666" d="M330.2,449.994l-.077-.3-.067-.267-.1-.395-.018-.073-.015-.061s.079-.238-.442-.161l-.1.017c-.082.017-.178.039-.287.07l-.1.03-.131.041h0a2.848,2.848,0,0,0-1.1.665,2.484,2.484,0,0,0-.369.447c-.011.015-.018.029-.027.041a1.44,1.44,0,0,0-.1.176,5.417,5.417,0,0,1-1.2,2.658l-1.168-1.687-.023-.033-.278-.4-.1-.131-.033-.046-.607-.816-.152-.2-.05-.068-.074-.1-.175-.232-.683.4-.911.532-.532,3.455v.1l.017.285.111,1.877v.026l-.194.778.029.015a10.013,10.013,0,0,0,1.428.632l.129.046c.152.05.295.1.443.14a.533.533,0,0,1,.012.068v-.065a10.377,10.377,0,0,0,5.7,0l.035-.011c.087-.024.175-.05.26-.079l.138-.044a10.184,10.184,0,0,0,1.1-.44l.128-2.718.091-1.961v-.112Z" transform="translate(-315.792 -437.188)" opacity="0.1"/>
        <path id="Path_667" data-name="Path 667" d="M329.289,455.8a1.05,1.05,0,0,0-.011-.182c-.011-.061-.009-.114-.017-.172s-.014-.115-.021-.173-.018-.115-.029-.173-.021-.115-.033-.173a.261.261,0,0,0-.012-.058c-.017-.076-.035-.152-.055-.229s-.032-.123-.05-.184a.259.259,0,0,0-.024-.081c-.009-.026-.026-.088-.039-.132l-.027-.085c-.012-.038-.024-.076-.038-.114-.023-.068-.047-.135-.071-.2s-.05-.135-.076-.2c-.052-.137-.108-.272-.164-.407-.22-.525-.468-1.043-.7-1.557a8.592,8.592,0,0,1-.325-.825l-.029.041a1.754,1.754,0,0,0-.123.219,5.424,5.424,0,0,1-1.2,2.658l-1.2-1.754-1.054,1.62a1.323,1.323,0,0,0-.422.75c-.033.106-.065.222-.1.345-.021.082-.041.169-.059.255-.011.044-.02.088-.029.134l-.027.138v.021c-.018.094-.036.191-.053.29s-.036.213-.053.32q-.018.1-.032.21c-.021.135-.039.272-.058.407-.011.079-.021.152-.03.235l-.036.3c.077.249.164.5.254.737a1.224,1.224,0,0,1,.1.418,10.377,10.377,0,0,0,5.7,0,.058.058,0,0,1,0-.015,1.808,1.808,0,0,1-.036-.415h0a11.392,11.392,0,0,1,.152-1.162,4.255,4.255,0,0,0,.029-.571v-.068C329.292,455.9,329.29,455.85,329.289,455.8Zm0,0a1.05,1.05,0,0,0-.011-.182c-.011-.061-.009-.114-.017-.172s-.014-.115-.021-.173-.018-.115-.029-.173-.021-.115-.033-.173a.261.261,0,0,0-.012-.058c-.017-.076-.035-.152-.055-.229s-.032-.123-.05-.184a.259.259,0,0,0-.024-.081c-.009-.026-.026-.088-.039-.132l-.027-.085c-.012-.038-.024-.076-.038-.114-.023-.068-.047-.135-.071-.2s-.05-.135-.076-.2c-.052-.137-.108-.272-.164-.407-.22-.525-.468-1.043-.7-1.557a8.592,8.592,0,0,1-.325-.825l-.029.041a1.754,1.754,0,0,0-.123.219,5.424,5.424,0,0,1-1.2,2.658l-1.2-1.754-1.054,1.62a1.323,1.323,0,0,0-.422.75c-.033.106-.065.222-.1.345-.021.082-.041.169-.059.255-.011.044-.02.088-.029.134l-.027.138v.021c-.018.094-.036.191-.053.29s-.036.213-.053.32q-.018.1-.032.21c-.021.135-.039.272-.058.407-.011.079-.021.152-.03.235l-.036.3c.077.249.164.5.254.737a1.224,1.224,0,0,1,.1.418,10.377,10.377,0,0,0,5.7,0,.058.058,0,0,1,0-.015,1.808,1.808,0,0,1-.036-.415h0a11.392,11.392,0,0,1,.152-1.162,4.255,4.255,0,0,0,.029-.571v-.068C329.292,455.9,329.29,455.85,329.289,455.8Zm0,0a1.05,1.05,0,0,0-.011-.182c-.011-.061-.009-.114-.017-.172s-.014-.115-.021-.173-.018-.115-.029-.173-.021-.115-.033-.173a.261.261,0,0,0-.012-.058c-.017-.076-.035-.152-.055-.229s-.032-.123-.05-.184a.259.259,0,0,0-.024-.081c-.009-.026-.026-.088-.039-.132l-.027-.085c-.012-.038-.024-.076-.038-.114-.023-.068-.047-.135-.071-.2s-.05-.135-.076-.2c-.052-.137-.108-.272-.164-.407-.22-.525-.468-1.043-.7-1.557a8.592,8.592,0,0,1-.325-.825l-.029.041a1.754,1.754,0,0,0-.123.219,5.424,5.424,0,0,1-1.2,2.658l-1.2-1.754-1.054,1.62a1.323,1.323,0,0,0-.422.75c-.033.106-.065.222-.1.345-.021.082-.041.169-.059.255-.011.044-.02.088-.029.134l-.027.138v.021c-.018.094-.036.191-.053.29s-.036.213-.053.32q-.018.1-.032.21c-.021.135-.039.272-.058.407-.011.079-.021.152-.03.235l-.036.3c.077.249.164.5.254.737a1.224,1.224,0,0,1,.1.418,10.377,10.377,0,0,0,5.7,0,.058.058,0,0,1,0-.015,1.808,1.808,0,0,1-.036-.415h0a11.392,11.392,0,0,1,.152-1.162,4.255,4.255,0,0,0,.029-.571v-.068C329.292,455.9,329.29,455.85,329.289,455.8Zm1.61-2.851-.542-2.164-.093-.371-.026-.1h0l-.132-.529a.093.093,0,0,0,0-.014h0a.121.121,0,0,0-.011-.068c-.02-.04-.07-.081-.187-.091a.939.939,0,0,0-.134,0h0a2.311,2.311,0,0,0-.39.073c-.062.017-.129.035-.2.058l-.131.041h-.012a2.9,2.9,0,0,0-.957.532,2.584,2.584,0,0,0-.486.538l-.029.041a1.751,1.751,0,0,0-.123.219,5.424,5.424,0,0,1-1.2,2.658l-1.2-1.754-.068-.1-.012-.017-.175-.257-.132-.176-.035-.046-.623-.831h0l-.2-.269v-.009l-.068-.093-.131-.173-.456.266-1.139.664-.525,3.419v.036l.015.249.112,1.9v.108l-.172.685a10.02,10.02,0,0,0,1.428.632l.129.046c.152.05.295.1.443.14a.529.529,0,0,1,.012.068v-.065a10.377,10.377,0,0,0,5.7,0l.035-.011c.087-.024.175-.05.26-.079l.138-.044a10.166,10.166,0,0,0,1.1-.44h0l.126-2.715.091-1.939Zm-7.469,5.244a.534.534,0,0,1,.012.068v-.065Zm5.859-2.393a1.05,1.05,0,0,0-.011-.182c-.011-.061-.009-.114-.017-.172s-.014-.115-.021-.173-.018-.115-.029-.173-.021-.115-.033-.173a.261.261,0,0,0-.012-.058c-.017-.076-.035-.152-.055-.229s-.032-.123-.05-.184a.259.259,0,0,0-.024-.081c-.009-.026-.026-.088-.039-.132l-.027-.085c-.012-.038-.024-.076-.038-.114-.023-.068-.047-.135-.071-.2s-.05-.135-.076-.2c-.052-.137-.108-.272-.164-.407-.22-.525-.468-1.043-.7-1.557a8.592,8.592,0,0,1-.325-.825l-.029.041a1.754,1.754,0,0,0-.123.219,5.424,5.424,0,0,1-1.2,2.658l-1.2-1.754-1.054,1.62a1.323,1.323,0,0,0-.422.75c-.033.106-.065.222-.1.345-.021.082-.041.169-.059.255-.011.044-.02.088-.029.134l-.027.138v.021c-.018.094-.036.191-.053.29s-.036.213-.053.32q-.018.1-.032.21c-.021.135-.039.272-.058.407-.011.079-.021.152-.03.235l-.036.3c.077.249.164.5.254.737a1.224,1.224,0,0,1,.1.418,10.377,10.377,0,0,0,5.7,0,.058.058,0,0,1,0-.015,1.808,1.808,0,0,1-.036-.415h0a11.392,11.392,0,0,1,.152-1.162,4.255,4.255,0,0,0,.029-.571v-.068C329.292,455.9,329.29,455.85,329.289,455.8Zm0,0a1.05,1.05,0,0,0-.011-.182c-.011-.061-.009-.114-.017-.172s-.014-.115-.021-.173-.018-.115-.029-.173-.021-.115-.033-.173a.261.261,0,0,0-.012-.058c-.017-.076-.035-.152-.055-.229s-.032-.123-.05-.184a.259.259,0,0,0-.024-.081c-.009-.026-.026-.088-.039-.132l-.027-.085c-.012-.038-.024-.076-.038-.114-.023-.068-.047-.135-.071-.2s-.05-.135-.076-.2c-.052-.137-.108-.272-.164-.407-.22-.525-.468-1.043-.7-1.557a8.592,8.592,0,0,1-.325-.825l-.029.041a1.754,1.754,0,0,0-.123.219,5.424,5.424,0,0,1-1.2,2.658l-1.2-1.754-1.054,1.62a1.323,1.323,0,0,0-.422.75c-.033.106-.065.222-.1.345-.021.082-.041.169-.059.255-.011.044-.02.088-.029.134l-.027.138v.021c-.018.094-.036.191-.053.29s-.036.213-.053.32q-.018.1-.032.21c-.021.135-.039.272-.058.407-.011.079-.021.152-.03.235l-.036.3c.077.249.164.5.254.737a1.224,1.224,0,0,1,.1.418,10.377,10.377,0,0,0,5.7,0,.058.058,0,0,1,0-.015,1.808,1.808,0,0,1-.036-.415h0a11.392,11.392,0,0,1,.152-1.162,4.255,4.255,0,0,0,.029-.571v-.068C329.292,455.9,329.29,455.85,329.289,455.8Zm0,0a1.05,1.05,0,0,0-.011-.182c-.011-.061-.009-.114-.017-.172s-.014-.115-.021-.173-.018-.115-.029-.173-.021-.115-.033-.173a.261.261,0,0,0-.012-.058c-.017-.076-.035-.152-.055-.229s-.032-.123-.05-.184a.259.259,0,0,0-.024-.081c-.009-.026-.026-.088-.039-.132l-.027-.085c-.012-.038-.024-.076-.038-.114-.023-.068-.047-.135-.071-.2s-.05-.135-.076-.2c-.052-.137-.108-.272-.164-.407-.22-.525-.468-1.043-.7-1.557a8.592,8.592,0,0,1-.325-.825l-.029.041a1.754,1.754,0,0,0-.123.219,5.424,5.424,0,0,1-1.2,2.658l-1.2-1.754-1.054,1.62a1.323,1.323,0,0,0-.422.75c-.033.106-.065.222-.1.345-.021.082-.041.169-.059.255-.011.044-.02.088-.029.134l-.027.138v.021c-.018.094-.036.191-.053.29s-.036.213-.053.32q-.018.1-.032.21c-.021.135-.039.272-.058.407-.011.079-.021.152-.03.235l-.036.3c.077.249.164.5.254.737a1.224,1.224,0,0,1,.1.418,10.377,10.377,0,0,0,5.7,0,.058.058,0,0,1,0-.015,1.808,1.808,0,0,1-.036-.415h0a11.392,11.392,0,0,1,.152-1.162,4.255,4.255,0,0,0,.029-.571v-.068C329.292,455.9,329.29,455.85,329.289,455.8Zm0,0a1.05,1.05,0,0,0-.011-.182c-.011-.061-.009-.114-.017-.172s-.014-.115-.021-.173-.018-.115-.029-.173-.021-.115-.033-.173a.261.261,0,0,0-.012-.058c-.017-.076-.035-.152-.055-.229s-.032-.123-.05-.184a.259.259,0,0,0-.024-.081c-.009-.026-.026-.088-.039-.132l-.027-.085c-.012-.038-.024-.076-.038-.114-.023-.068-.047-.135-.071-.2s-.05-.135-.076-.2c-.052-.137-.108-.272-.164-.407-.22-.525-.468-1.043-.7-1.557a8.592,8.592,0,0,1-.325-.825l-.029.041a1.754,1.754,0,0,0-.123.219,5.424,5.424,0,0,1-1.2,2.658l-1.2-1.754-1.054,1.62a1.323,1.323,0,0,0-.422.75c-.033.106-.065.222-.1.345-.021.082-.041.169-.059.255-.011.044-.02.088-.029.134l-.027.138v.021c-.018.094-.036.191-.053.29s-.036.213-.053.32q-.018.1-.032.21c-.021.135-.039.272-.058.407-.011.079-.021.152-.03.235l-.036.3c.077.249.164.5.254.737a1.224,1.224,0,0,1,.1.418,10.377,10.377,0,0,0,5.7,0,.058.058,0,0,1,0-.015,1.808,1.808,0,0,1-.036-.415h0a11.392,11.392,0,0,1,.152-1.162,4.255,4.255,0,0,0,.029-.571v-.068C329.292,455.9,329.29,455.85,329.289,455.8Zm0,0a1.05,1.05,0,0,0-.011-.182c-.011-.061-.009-.114-.017-.172s-.014-.115-.021-.173-.018-.115-.029-.173-.021-.115-.033-.173a.261.261,0,0,0-.012-.058c-.017-.076-.035-.152-.055-.229s-.032-.123-.05-.184a.259.259,0,0,0-.024-.081c-.009-.026-.026-.088-.039-.132l-.027-.085c-.012-.038-.024-.076-.038-.114-.023-.068-.047-.135-.071-.2s-.05-.135-.076-.2c-.052-.137-.108-.272-.164-.407-.22-.525-.468-1.043-.7-1.557a8.592,8.592,0,0,1-.325-.825l-.029.041a1.754,1.754,0,0,0-.123.219,5.424,5.424,0,0,1-1.2,2.658l-1.2-1.754-1.054,1.62a1.323,1.323,0,0,0-.422.75c-.033.106-.065.222-.1.345-.021.082-.041.169-.059.255-.011.044-.02.088-.029.134l-.027.138v.021c-.018.094-.036.191-.053.29s-.036.213-.053.32q-.018.1-.032.21c-.021.135-.039.272-.058.407-.011.079-.021.152-.03.235l-.036.3c.077.249.164.5.254.737a1.224,1.224,0,0,1,.1.418,10.377,10.377,0,0,0,5.7,0,.058.058,0,0,1,0-.015,1.808,1.808,0,0,1-.036-.415h0a11.392,11.392,0,0,1,.152-1.162,4.255,4.255,0,0,0,.029-.571v-.068C329.292,455.9,329.29,455.85,329.289,455.8Zm0,0a1.05,1.05,0,0,0-.011-.182c-.011-.061-.009-.114-.017-.172s-.014-.115-.021-.173-.018-.115-.029-.173-.021-.115-.033-.173a.261.261,0,0,0-.012-.058c-.017-.076-.035-.152-.055-.229s-.032-.123-.05-.184a.259.259,0,0,0-.024-.081c-.009-.026-.026-.088-.039-.132l-.027-.085c-.012-.038-.024-.076-.038-.114-.023-.068-.047-.135-.071-.2s-.05-.135-.076-.2c-.052-.137-.108-.272-.164-.407-.22-.525-.468-1.043-.7-1.557a8.592,8.592,0,0,1-.325-.825l-.029.041a1.754,1.754,0,0,0-.123.219,5.424,5.424,0,0,1-1.2,2.658l-1.2-1.754-1.054,1.62a1.323,1.323,0,0,0-.422.75c-.033.106-.065.222-.1.345-.021.082-.041.169-.059.255-.011.044-.02.088-.029.134l-.027.138v.021c-.018.094-.036.191-.053.29s-.036.213-.053.32q-.018.1-.032.21c-.021.135-.039.272-.058.407-.011.079-.021.152-.03.235l-.036.3c.077.249.164.5.254.737a1.224,1.224,0,0,1,.1.418,10.377,10.377,0,0,0,5.7,0,.058.058,0,0,1,0-.015,1.808,1.808,0,0,1-.036-.415h0a11.392,11.392,0,0,1,.152-1.162,4.255,4.255,0,0,0,.029-.571v-.068C329.292,455.9,329.29,455.85,329.289,455.8Zm0,0a1.05,1.05,0,0,0-.011-.182c-.011-.061-.009-.114-.017-.172s-.014-.115-.021-.173-.018-.115-.029-.173-.021-.115-.033-.173a.261.261,0,0,0-.012-.058c-.017-.076-.035-.152-.055-.229s-.032-.123-.05-.184a.259.259,0,0,0-.024-.081c-.009-.026-.026-.088-.039-.132l-.027-.085c-.012-.038-.024-.076-.038-.114-.023-.068-.047-.135-.071-.2s-.05-.135-.076-.2c-.052-.137-.108-.272-.164-.407-.22-.525-.468-1.043-.7-1.557a8.592,8.592,0,0,1-.325-.825l-.029.041a1.754,1.754,0,0,0-.123.219,5.424,5.424,0,0,1-1.2,2.658l-1.2-1.754-1.054,1.62a1.323,1.323,0,0,0-.422.75c-.033.106-.065.222-.1.345-.021.082-.041.169-.059.255-.011.044-.02.088-.029.134l-.027.138v.021c-.018.094-.036.191-.053.29s-.036.213-.053.32q-.018.1-.032.21c-.021.135-.039.272-.058.407-.011.079-.021.152-.03.235l-.036.3c.077.249.164.5.254.737a1.224,1.224,0,0,1,.1.418,10.377,10.377,0,0,0,5.7,0,.058.058,0,0,1,0-.015,1.808,1.808,0,0,1-.036-.415h0a11.392,11.392,0,0,1,.152-1.162,4.255,4.255,0,0,0,.029-.571v-.068C329.292,455.9,329.29,455.85,329.289,455.8Zm0,0a1.05,1.05,0,0,0-.011-.182c-.011-.061-.009-.114-.017-.172s-.014-.115-.021-.173-.018-.115-.029-.173-.021-.115-.033-.173a.261.261,0,0,0-.012-.058c-.017-.076-.035-.152-.055-.229s-.032-.123-.05-.184a.259.259,0,0,0-.024-.081c-.009-.026-.026-.088-.039-.132l-.027-.085c-.012-.038-.024-.076-.038-.114-.023-.068-.047-.135-.071-.2s-.05-.135-.076-.2c-.052-.137-.108-.272-.164-.407-.22-.525-.468-1.043-.7-1.557a8.592,8.592,0,0,1-.325-.825l-.029.041a1.754,1.754,0,0,0-.123.219,5.424,5.424,0,0,1-1.2,2.658l-1.2-1.754-1.054,1.62a1.323,1.323,0,0,0-.422.75c-.033.106-.065.222-.1.345-.021.082-.041.169-.059.255-.011.044-.02.088-.029.134l-.027.138v.021c-.018.094-.036.191-.053.29s-.036.213-.053.32q-.018.1-.032.21c-.021.135-.039.272-.058.407-.011.079-.021.152-.03.235l-.036.3c.077.249.164.5.254.737a1.224,1.224,0,0,1,.1.418,10.377,10.377,0,0,0,5.7,0,.058.058,0,0,1,0-.015,1.808,1.808,0,0,1-.036-.415h0a11.392,11.392,0,0,1,.152-1.162,4.255,4.255,0,0,0,.029-.571v-.068C329.292,455.9,329.29,455.85,329.289,455.8Z" transform="translate(-315.979 -437.94)" fill="#fff"/>
        <path id="Path_668" data-name="Path 668" d="M308.343,452.124l-.1-.014a3.7,3.7,0,0,1-.456-.091L307.73,452c-.371-.1-.776-.293-.867-.624a.591.591,0,0,1,.009-.323,2.778,2.778,0,0,1,.207-.522v-.009a.739.739,0,0,1,.038-.068,1.519,1.519,0,0,1,.548-.6l-.182.029-1.543.251-2.392.386s-.425-.085-1,1.51a.246.246,0,0,1-.02.059c-.14.39-.287.878-.439,1.487-.1.422-.2.837-.289,1.239-.026.121-.052.241-.076.36a9.653,9.653,0,0,0,.882.911l.05.047a10.368,10.368,0,0,0,2.023,1.432l.029.015a10.013,10.013,0,0,0,1.428.632l.129.046c.027-.281.058-.592.094-.911a.26.26,0,0,1,.012-.1l.036-.3c.009-.077.02-.152.03-.235.018-.135.036-.272.058-.407q.014-.1.032-.21c.017-.108.035-.216.053-.32s.035-.2.053-.29v-.021l.027-.138c.009-.046.018-.09.029-.134.018-.087.038-.173.059-.255.03-.123.062-.238.1-.345a1.3,1.3,0,0,1,.422-.75l1.054-1.62.044-.068.02-.03Z" transform="translate(-299.254 -438.157)" opacity="0.1"/>
        <path id="Path_669" data-name="Path 669" d="M307.66,452.144l-1.119,1.719a1.284,1.284,0,0,0-.415.727c-.035.112-.07.235-.1.364a18.154,18.154,0,0,0-.343,1.988.236.236,0,0,1-.012.091c-.052.422-.094.837-.129,1.2a10.015,10.015,0,0,1-1.428-.632l-.029-.015a10.364,10.364,0,0,1-2.023-1.432l-.05-.047a9.65,9.65,0,0,1-.882-.911c-.036-.041-.071-.084-.106-.126.017-.079.033-.152.052-.237.087-.4.182-.816.287-1.236a14.975,14.975,0,0,1,.516-1.7.463.463,0,0,1,.02-.049c.538-1.384.925-1.306.925-1.306l2.526-.407,1.595-.258-.05.029a1.617,1.617,0,0,0-.439.468l-.044.074c-.018.029-.035.061-.053.093a2.694,2.694,0,0,0-.21.531.559.559,0,0,0,.036.434,1.446,1.446,0,0,0,.937.544l.059.015A3.808,3.808,0,0,0,307.66,452.144Z" transform="translate(-298.66 -438.174)" fill="#444176"/>
        <path id="Path_670" data-name="Path 670" d="M376.221,453.051l-.062-1.349c.266-2.126-.266-2.258-.266-2.258l-.632-.3h-.017l-2.541-1.232-.1-.049-.03-.014h0l-.331-.161h0l-.21-.1-.392-.19-.132-.064v.527c0,.152.014.33.026.536.027.519.077,1.215.167,2.035.05.475.114.995.193,1.552.047.33.081.658.1.978a17.2,17.2,0,0,1-.1,3.235l.138-.044a10.165,10.165,0,0,0,1.1-.44h0a10.092,10.092,0,0,0,1.959-1.2l.027-.02a10.133,10.133,0,0,0,1.1-1Z" transform="translate(-358.445 -436.011)" opacity="0.1"/>
        <path id="Path_671" data-name="Path 671" d="M377.084,453.009l-.062-1.352c.266-2.126-.266-2.258-.266-2.258l-.759-.367h-.015l-2.548-1.236-.117-.056-.023-.011-.187-.091-.248-.12-.489-.237v.216h0v.267c0,.152.014.351.027.577.026.484.071,1.119.152,1.874.055.518.123,1.093.213,1.713q.07.5.1.983a17.184,17.184,0,0,1-.094,3.189,10.166,10.166,0,0,0,1.1-.44h0a10.093,10.093,0,0,0,1.959-1.2l.027-.02a10.135,10.135,0,0,0,1.1-1q.067-.067.128-.137Z" transform="translate(-359.174 -435.968)" fill="#444176"/>
        <path id="Path_672" data-name="Path 672" d="M318.476,390.97a2.209,2.209,0,0,0-.208.759c-.163.594-.806.966-.954,1.564-.087.349.014.72-.046,1.075-.108.655-.706,1.1-1.04,1.671A2.254,2.254,0,0,0,316.09,398a3.134,3.134,0,0,1,.193.5,1.809,1.809,0,0,1-.047.759,2.407,2.407,0,0,0,.03,1.624,1.554,1.554,0,0,0,1.138.729,4.42,4.42,0,0,0,1.393-.064,4.029,4.029,0,0,0,1.455-.425l-1.645-3.97a3.312,3.312,0,0,1-.334-1.25,2.747,2.747,0,0,1,.205-.932,8.081,8.081,0,0,1,1.367-2.362c.238.276.22.7.419,1a1.584,1.584,0,0,0,.677.506,22.446,22.446,0,0,0,2.4,1,.314.314,0,0,1,.234.468l-.62,2.558a1.984,1.984,0,0,0,.094,1.671c.351.456,1.142.671,1.147,1.259a2.015,2.015,0,0,0,0,.28c.041.275.368.407.645.421a1.924,1.924,0,0,0,1.93-1.575c.152-1.005-.513-1.932-.791-2.911-.468-1.648.152-3.581-.767-5.028a4.28,4.28,0,0,0-3.388-1.639C320.92,390.51,319.113,390.13,318.476,390.97Z" transform="translate(-311.305 -387.759)" opacity="0.1"/>
        <path id="Path_673" data-name="Path 673" d="M318.476,389.97a2.209,2.209,0,0,0-.208.759c-.163.594-.806.966-.954,1.564-.087.349.014.72-.046,1.075-.108.655-.706,1.1-1.04,1.671A2.254,2.254,0,0,0,316.09,397a3.135,3.135,0,0,1,.193.5,1.809,1.809,0,0,1-.047.759,2.407,2.407,0,0,0,.03,1.623,1.554,1.554,0,0,0,1.138.729,4.42,4.42,0,0,0,1.393-.064,4.03,4.03,0,0,0,1.455-.425l-1.645-3.97a3.313,3.313,0,0,1-.334-1.25,2.747,2.747,0,0,1,.205-.932,8.08,8.08,0,0,1,1.367-2.362c.238.276.22.7.419,1a1.584,1.584,0,0,0,.677.506,22.433,22.433,0,0,0,2.4,1,.314.314,0,0,1,.234.468l-.62,2.557a1.984,1.984,0,0,0,.094,1.671c.351.456,1.142.671,1.147,1.259a2.014,2.014,0,0,0,0,.279c.041.275.368.407.645.421a1.924,1.924,0,0,0,1.93-1.575c.152-1.005-.513-1.932-.791-2.911-.468-1.648.152-3.581-.767-5.028a4.28,4.28,0,0,0-3.388-1.639C320.92,389.51,319.113,389.13,318.476,389.97Z" transform="translate(-311.305 -386.911)" fill="#493545"/>
      </g>
      <g id="Group_28" data-name="Group 28" transform="translate(36.795 89.589)" opacity="0.5">
        <path id="Path_674" data-name="Path 674" d="M306.134,624.126a10.279,10.279,0,0,1-2.486,6.72c-.079.093-.161.184-.245.273q-.062.07-.128.137a10.139,10.139,0,0,1-1.1,1l-.027.02a10.093,10.093,0,0,1-1.959,1.2h0a10.169,10.169,0,0,1-1.1.44l-.138.044c-.085.029-.173.055-.26.079l-.035.011a10.379,10.379,0,0,1-5.7,0h-.015c-.152-.044-.3-.09-.443-.14l-.129-.046a10.015,10.015,0,0,1-1.428-.632l-.029-.015a10.371,10.371,0,0,1-2.023-1.432l-.05-.047a9.661,9.661,0,0,1-.882-.911c-.036-.041-.071-.083-.106-.126-.067-.079-.131-.161-.194-.243a10.327,10.327,0,1,1,18.483-6.336Z" transform="translate(-285.48 -613.798)" fill="#c0bccf"/>
        <path id="Path_675" data-name="Path 675" d="M316.553,641.833l-.062-1.367c.266-2.161-.266-2.3-.266-2.3l-.759-.374-.015-.008-2.548-1.256-.117-.058-.015-.062s.05-.152-.2-.178a.926.926,0,0,1-.064-.387,1.661,1.661,0,0,1,.418-.759,3.119,3.119,0,0,0,.5-2.213,5.2,5.2,0,0,0-.847-2.138l-.049-.071a2.57,2.57,0,0,0,.09-.671c0-1.748-1.768-3.165-3.949-3.165a3.784,3.784,0,0,0-3.9,2.691,1.384,1.384,0,0,0-.12.188c-.4.75.219,1.311.238,2.059a2.663,2.663,0,0,1-.607,1.4,1.4,1.4,0,0,0-.2,1.45c.093.143.232.251.316.4.293.518-.194,1.112-.372,1.68a1.606,1.606,0,0,0-.049.2l-1.172.191s-.387-.079-.925,1.327a.479.479,0,0,0-.02.05,15.4,15.4,0,0,0-.516,1.73q-.157.642-.287,1.256c-.018.081-.035.161-.052.241.035.042.07.087.106.128a9.734,9.734,0,0,0,.882.929l.05.049a10.37,10.37,0,0,0,2.023,1.456l.029.015a9.93,9.93,0,0,0,1.428.642l.129.046c.152.052.295.1.443.143a.555.555,0,0,1,.012.07V645.1a10.214,10.214,0,0,0,5.7,0l.035-.011c.087-.024.175-.052.26-.081l.138-.044A10.242,10.242,0,0,0,315.3,643.3l.027-.02a10.2,10.2,0,0,0,1.1-1.018q.067-.067.128-.138Z" transform="translate(-298.643 -624.851)" fill="url(#linear-gradient-3)"/>
        <path id="Path_676" data-name="Path 676" d="M321.3,646.307a2.556,2.556,0,0,1-.607,1.367,1.353,1.353,0,0,0-.2,1.426c.093.14.232.247.316.393.293.509-.194,1.093-.372,1.652a2.074,2.074,0,0,0,.465,1.891,5.032,5.032,0,0,0,1.628,1.189,14.53,14.53,0,0,0,4.028,1.434,3.856,3.856,0,0,0,2.208-.1,2.348,2.348,0,0,0,1.326-2.582,14.681,14.681,0,0,0-1.063-2.2,1.028,1.028,0,0,1-.1-.475,1.605,1.605,0,0,1,.418-.744,3.037,3.037,0,0,0,.492-2.161,5.072,5.072,0,0,0-.847-2.1,2.305,2.305,0,0,0-.608-.668,2.665,2.665,0,0,0-1.136-.343c-1.649-.231-3.358-.483-5.021-.568a1.077,1.077,0,0,0-1.171.568C320.667,645.019,321.285,645.57,321.3,646.307Z" transform="translate(-315.067 -639.17)" fill="#444176"/>
        <path id="Path_677" data-name="Path 677" d="M339.466,672.172l-3.13,4.451-3.056-.266s-.1,1.063-1.329-2.79c-.686-2.155.709-1.406.984-2s.759-1.124.8-1.564a2.761,2.761,0,0,0-.19-1.482l3.321-.4a2.479,2.479,0,0,0-.055,1.387C337.229,671.235,339.466,672.172,339.466,672.172Z" transform="translate(-324.734 -659.87)" fill="#c77485"/>
        <ellipse id="Ellipse_176" data-name="Ellipse 176" cx="3.949" cy="3.113" rx="3.949" ry="3.113" transform="translate(6.075 2.28)" fill="#444176"/>
        <path id="Path_678" data-name="Path 678" d="M346.757,669.505a3.32,3.32,0,0,1-3.077.5,2.761,2.761,0,0,0-.19-1.482l3.321-.4a2.479,2.479,0,0,0-.055,1.385Z" transform="translate(-334.68 -659.87)" opacity="0.1"/>
        <circle id="Ellipse_177" data-name="Ellipse 177" cx="3.321" cy="3.321" r="3.321" transform="translate(6.752 3.533)" fill="#c77485"/>
        <path id="Path_679" data-name="Path 679" d="M330.2,690.994l-.077-.3-.067-.267-.1-.395-.018-.073-.015-.061s.079-.238-.442-.161l-.1.017c-.082.017-.178.039-.287.07l-.1.03-.131.041h0a2.848,2.848,0,0,0-1.1.665,2.483,2.483,0,0,0-.369.446c-.011.015-.018.029-.027.041a1.44,1.44,0,0,0-.1.176,5.417,5.417,0,0,1-1.2,2.658l-1.168-1.687-.023-.033-.278-.4-.1-.13-.033-.046-.607-.815-.152-.2-.05-.068-.074-.1-.175-.232-.683.4-.911.532-.532,3.455v.1l.017.286.111,1.877v.026l-.194.778.029.015a10.016,10.016,0,0,0,1.428.632l.129.046c.152.05.295.1.443.14a.54.54,0,0,1,.012.068v-.065a10.377,10.377,0,0,0,5.7,0l.035-.011c.087-.024.175-.05.26-.079l.138-.044a10.185,10.185,0,0,0,1.1-.44l.128-2.718.091-1.961v-.112Z" transform="translate(-315.792 -678.188)" opacity="0.1"/>
        <path id="Path_680" data-name="Path 680" d="M329.289,696.8a1.051,1.051,0,0,0-.011-.182c-.011-.061-.009-.114-.017-.172s-.014-.115-.021-.173-.018-.115-.029-.173-.021-.115-.033-.173a.262.262,0,0,0-.012-.058c-.017-.076-.035-.152-.055-.229s-.032-.123-.05-.184a.26.26,0,0,0-.024-.081c-.009-.026-.026-.088-.039-.132l-.027-.085c-.012-.038-.024-.076-.038-.114-.023-.068-.047-.135-.071-.2s-.05-.135-.076-.2c-.052-.137-.108-.272-.164-.407-.22-.526-.468-1.043-.7-1.557a8.621,8.621,0,0,1-.325-.825l-.029.041a1.752,1.752,0,0,0-.123.219,5.424,5.424,0,0,1-1.2,2.658l-1.2-1.754-1.054,1.62a1.324,1.324,0,0,0-.422.75c-.033.106-.065.222-.1.345-.021.082-.041.169-.059.255-.011.044-.02.088-.029.134l-.027.138v.021c-.018.094-.036.191-.053.29s-.036.213-.053.32q-.018.1-.032.21c-.021.135-.039.272-.058.407-.011.079-.021.152-.03.235l-.036.3c.077.249.164.5.254.737a1.224,1.224,0,0,1,.1.418,10.377,10.377,0,0,0,5.7,0,.058.058,0,0,1,0-.015,1.807,1.807,0,0,1-.036-.415h0a11.392,11.392,0,0,1,.152-1.162,4.255,4.255,0,0,0,.029-.571v-.068C329.292,696.9,329.29,696.85,329.289,696.8Zm0,0a1.051,1.051,0,0,0-.011-.182c-.011-.061-.009-.114-.017-.172s-.014-.115-.021-.173-.018-.115-.029-.173-.021-.115-.033-.173a.262.262,0,0,0-.012-.058c-.017-.076-.035-.152-.055-.229s-.032-.123-.05-.184a.26.26,0,0,0-.024-.081c-.009-.026-.026-.088-.039-.132l-.027-.085c-.012-.038-.024-.076-.038-.114-.023-.068-.047-.135-.071-.2s-.05-.135-.076-.2c-.052-.137-.108-.272-.164-.407-.22-.526-.468-1.043-.7-1.557a8.621,8.621,0,0,1-.325-.825l-.029.041a1.752,1.752,0,0,0-.123.219,5.424,5.424,0,0,1-1.2,2.658l-1.2-1.754-1.054,1.62a1.324,1.324,0,0,0-.422.75c-.033.106-.065.222-.1.345-.021.082-.041.169-.059.255-.011.044-.02.088-.029.134l-.027.138v.021c-.018.094-.036.191-.053.29s-.036.213-.053.32q-.018.1-.032.21c-.021.135-.039.272-.058.407-.011.079-.021.152-.03.235l-.036.3c.077.249.164.5.254.737a1.224,1.224,0,0,1,.1.418,10.377,10.377,0,0,0,5.7,0,.058.058,0,0,1,0-.015,1.807,1.807,0,0,1-.036-.415h0a11.392,11.392,0,0,1,.152-1.162,4.255,4.255,0,0,0,.029-.571v-.068C329.292,696.9,329.29,696.85,329.289,696.8Zm0,0a1.051,1.051,0,0,0-.011-.182c-.011-.061-.009-.114-.017-.172s-.014-.115-.021-.173-.018-.115-.029-.173-.021-.115-.033-.173a.262.262,0,0,0-.012-.058c-.017-.076-.035-.152-.055-.229s-.032-.123-.05-.184a.26.26,0,0,0-.024-.081c-.009-.026-.026-.088-.039-.132l-.027-.085c-.012-.038-.024-.076-.038-.114-.023-.068-.047-.135-.071-.2s-.05-.135-.076-.2c-.052-.137-.108-.272-.164-.407-.22-.526-.468-1.043-.7-1.557a8.621,8.621,0,0,1-.325-.825l-.029.041a1.752,1.752,0,0,0-.123.219,5.424,5.424,0,0,1-1.2,2.658l-1.2-1.754-1.054,1.62a1.324,1.324,0,0,0-.422.75c-.033.106-.065.222-.1.345-.021.082-.041.169-.059.255-.011.044-.02.088-.029.134l-.027.138v.021c-.018.094-.036.191-.053.29s-.036.213-.053.32q-.018.1-.032.21c-.021.135-.039.272-.058.407-.011.079-.021.152-.03.235l-.036.3c.077.249.164.5.254.737a1.224,1.224,0,0,1,.1.418,10.377,10.377,0,0,0,5.7,0,.058.058,0,0,1,0-.015,1.807,1.807,0,0,1-.036-.415h0a11.392,11.392,0,0,1,.152-1.162,4.255,4.255,0,0,0,.029-.571v-.068C329.292,696.9,329.29,696.85,329.289,696.8Zm1.61-2.851-.542-2.164-.093-.371-.026-.1h0l-.132-.529a.092.092,0,0,0,0-.014h0a.121.121,0,0,0-.011-.068c-.02-.039-.07-.081-.187-.091a.949.949,0,0,0-.134,0h0a2.311,2.311,0,0,0-.39.073c-.062.017-.129.035-.2.058l-.131.041h-.012a2.9,2.9,0,0,0-.957.532,2.583,2.583,0,0,0-.486.538l-.029.041a1.755,1.755,0,0,0-.123.219,5.424,5.424,0,0,1-1.2,2.658l-1.2-1.754-.068-.1-.012-.017-.175-.257-.132-.176-.035-.046-.623-.831h0l-.2-.269v-.009l-.068-.093-.131-.173-.456.266-1.139.664-.525,3.419v.036l.015.249.112,1.9v.108l-.172.685a10.01,10.01,0,0,0,1.428.632l.129.046c.152.05.295.1.443.14a.527.527,0,0,1,.012.068v-.065a10.377,10.377,0,0,0,5.7,0l.035-.011c.087-.024.175-.05.26-.079l.138-.044a10.179,10.179,0,0,0,1.1-.44h0l.126-2.715.091-1.939Zm-7.469,5.244a.533.533,0,0,1,.012.068v-.065Zm5.859-2.393a1.051,1.051,0,0,0-.011-.182c-.011-.061-.009-.114-.017-.172s-.014-.115-.021-.173-.018-.115-.029-.173-.021-.115-.033-.173a.262.262,0,0,0-.012-.058c-.017-.076-.035-.152-.055-.229s-.032-.123-.05-.184a.26.26,0,0,0-.024-.081c-.009-.026-.026-.088-.039-.132l-.027-.085c-.012-.038-.024-.076-.038-.114-.023-.068-.047-.135-.071-.2s-.05-.135-.076-.2c-.052-.137-.108-.272-.164-.407-.22-.526-.468-1.043-.7-1.557a8.621,8.621,0,0,1-.325-.825l-.029.041a1.752,1.752,0,0,0-.123.219,5.424,5.424,0,0,1-1.2,2.658l-1.2-1.754-1.054,1.62a1.324,1.324,0,0,0-.422.75c-.033.106-.065.222-.1.345-.021.082-.041.169-.059.255-.011.044-.02.088-.029.134l-.027.138v.021c-.018.094-.036.191-.053.29s-.036.213-.053.32q-.018.1-.032.21c-.021.135-.039.272-.058.407-.011.079-.021.152-.03.235l-.036.3c.077.249.164.5.254.737a1.224,1.224,0,0,1,.1.418,10.377,10.377,0,0,0,5.7,0,.058.058,0,0,1,0-.015,1.807,1.807,0,0,1-.036-.415h0a11.392,11.392,0,0,1,.152-1.162,4.255,4.255,0,0,0,.029-.571v-.068C329.292,696.9,329.29,696.85,329.289,696.8Zm0,0a1.051,1.051,0,0,0-.011-.182c-.011-.061-.009-.114-.017-.172s-.014-.115-.021-.173-.018-.115-.029-.173-.021-.115-.033-.173a.262.262,0,0,0-.012-.058c-.017-.076-.035-.152-.055-.229s-.032-.123-.05-.184a.26.26,0,0,0-.024-.081c-.009-.026-.026-.088-.039-.132l-.027-.085c-.012-.038-.024-.076-.038-.114-.023-.068-.047-.135-.071-.2s-.05-.135-.076-.2c-.052-.137-.108-.272-.164-.407-.22-.526-.468-1.043-.7-1.557a8.621,8.621,0,0,1-.325-.825l-.029.041a1.752,1.752,0,0,0-.123.219,5.424,5.424,0,0,1-1.2,2.658l-1.2-1.754-1.054,1.62a1.324,1.324,0,0,0-.422.75c-.033.106-.065.222-.1.345-.021.082-.041.169-.059.255-.011.044-.02.088-.029.134l-.027.138v.021c-.018.094-.036.191-.053.29s-.036.213-.053.32q-.018.1-.032.21c-.021.135-.039.272-.058.407-.011.079-.021.152-.03.235l-.036.3c.077.249.164.5.254.737a1.224,1.224,0,0,1,.1.418,10.377,10.377,0,0,0,5.7,0,.058.058,0,0,1,0-.015,1.807,1.807,0,0,1-.036-.415h0a11.392,11.392,0,0,1,.152-1.162,4.255,4.255,0,0,0,.029-.571v-.068C329.292,696.9,329.29,696.85,329.289,696.8Zm0,0a1.051,1.051,0,0,0-.011-.182c-.011-.061-.009-.114-.017-.172s-.014-.115-.021-.173-.018-.115-.029-.173-.021-.115-.033-.173a.262.262,0,0,0-.012-.058c-.017-.076-.035-.152-.055-.229s-.032-.123-.05-.184a.26.26,0,0,0-.024-.081c-.009-.026-.026-.088-.039-.132l-.027-.085c-.012-.038-.024-.076-.038-.114-.023-.068-.047-.135-.071-.2s-.05-.135-.076-.2c-.052-.137-.108-.272-.164-.407-.22-.526-.468-1.043-.7-1.557a8.621,8.621,0,0,1-.325-.825l-.029.041a1.752,1.752,0,0,0-.123.219,5.424,5.424,0,0,1-1.2,2.658l-1.2-1.754-1.054,1.62a1.324,1.324,0,0,0-.422.75c-.033.106-.065.222-.1.345-.021.082-.041.169-.059.255-.011.044-.02.088-.029.134l-.027.138v.021c-.018.094-.036.191-.053.29s-.036.213-.053.32q-.018.1-.032.21c-.021.135-.039.272-.058.407-.011.079-.021.152-.03.235l-.036.3c.077.249.164.5.254.737a1.224,1.224,0,0,1,.1.418,10.377,10.377,0,0,0,5.7,0,.058.058,0,0,1,0-.015,1.807,1.807,0,0,1-.036-.415h0a11.392,11.392,0,0,1,.152-1.162,4.255,4.255,0,0,0,.029-.571v-.068C329.292,696.9,329.29,696.85,329.289,696.8Zm0,0a1.051,1.051,0,0,0-.011-.182c-.011-.061-.009-.114-.017-.172s-.014-.115-.021-.173-.018-.115-.029-.173-.021-.115-.033-.173a.262.262,0,0,0-.012-.058c-.017-.076-.035-.152-.055-.229s-.032-.123-.05-.184a.26.26,0,0,0-.024-.081c-.009-.026-.026-.088-.039-.132l-.027-.085c-.012-.038-.024-.076-.038-.114-.023-.068-.047-.135-.071-.2s-.05-.135-.076-.2c-.052-.137-.108-.272-.164-.407-.22-.526-.468-1.043-.7-1.557a8.621,8.621,0,0,1-.325-.825l-.029.041a1.752,1.752,0,0,0-.123.219,5.424,5.424,0,0,1-1.2,2.658l-1.2-1.754-1.054,1.62a1.324,1.324,0,0,0-.422.75c-.033.106-.065.222-.1.345-.021.082-.041.169-.059.255-.011.044-.02.088-.029.134l-.027.138v.021c-.018.094-.036.191-.053.29s-.036.213-.053.32q-.018.1-.032.21c-.021.135-.039.272-.058.407-.011.079-.021.152-.03.235l-.036.3c.077.249.164.5.254.737a1.224,1.224,0,0,1,.1.418,10.377,10.377,0,0,0,5.7,0,.058.058,0,0,1,0-.015,1.807,1.807,0,0,1-.036-.415h0a11.392,11.392,0,0,1,.152-1.162,4.255,4.255,0,0,0,.029-.571v-.068C329.292,696.9,329.29,696.85,329.289,696.8Zm0,0a1.051,1.051,0,0,0-.011-.182c-.011-.061-.009-.114-.017-.172s-.014-.115-.021-.173-.018-.115-.029-.173-.021-.115-.033-.173a.262.262,0,0,0-.012-.058c-.017-.076-.035-.152-.055-.229s-.032-.123-.05-.184a.26.26,0,0,0-.024-.081c-.009-.026-.026-.088-.039-.132l-.027-.085c-.012-.038-.024-.076-.038-.114-.023-.068-.047-.135-.071-.2s-.05-.135-.076-.2c-.052-.137-.108-.272-.164-.407-.22-.526-.468-1.043-.7-1.557a8.621,8.621,0,0,1-.325-.825l-.029.041a1.752,1.752,0,0,0-.123.219,5.424,5.424,0,0,1-1.2,2.658l-1.2-1.754-1.054,1.62a1.324,1.324,0,0,0-.422.75c-.033.106-.065.222-.1.345-.021.082-.041.169-.059.255-.011.044-.02.088-.029.134l-.027.138v.021c-.018.094-.036.191-.053.29s-.036.213-.053.32q-.018.1-.032.21c-.021.135-.039.272-.058.407-.011.079-.021.152-.03.235l-.036.3c.077.249.164.5.254.737a1.224,1.224,0,0,1,.1.418,10.377,10.377,0,0,0,5.7,0,.058.058,0,0,1,0-.015,1.807,1.807,0,0,1-.036-.415h0a11.392,11.392,0,0,1,.152-1.162,4.255,4.255,0,0,0,.029-.571v-.068C329.292,696.9,329.29,696.85,329.289,696.8Zm0,0a1.051,1.051,0,0,0-.011-.182c-.011-.061-.009-.114-.017-.172s-.014-.115-.021-.173-.018-.115-.029-.173-.021-.115-.033-.173a.262.262,0,0,0-.012-.058c-.017-.076-.035-.152-.055-.229s-.032-.123-.05-.184a.26.26,0,0,0-.024-.081c-.009-.026-.026-.088-.039-.132l-.027-.085c-.012-.038-.024-.076-.038-.114-.023-.068-.047-.135-.071-.2s-.05-.135-.076-.2c-.052-.137-.108-.272-.164-.407-.22-.526-.468-1.043-.7-1.557a8.621,8.621,0,0,1-.325-.825l-.029.041a1.752,1.752,0,0,0-.123.219,5.424,5.424,0,0,1-1.2,2.658l-1.2-1.754-1.054,1.62a1.324,1.324,0,0,0-.422.75c-.033.106-.065.222-.1.345-.021.082-.041.169-.059.255-.011.044-.02.088-.029.134l-.027.138v.021c-.018.094-.036.191-.053.29s-.036.213-.053.32q-.018.1-.032.21c-.021.135-.039.272-.058.407-.011.079-.021.152-.03.235l-.036.3c.077.249.164.5.254.737a1.224,1.224,0,0,1,.1.418,10.377,10.377,0,0,0,5.7,0,.058.058,0,0,1,0-.015,1.807,1.807,0,0,1-.036-.415h0a11.392,11.392,0,0,1,.152-1.162,4.255,4.255,0,0,0,.029-.571v-.068C329.292,696.9,329.29,696.85,329.289,696.8Zm0,0a1.051,1.051,0,0,0-.011-.182c-.011-.061-.009-.114-.017-.172s-.014-.115-.021-.173-.018-.115-.029-.173-.021-.115-.033-.173a.262.262,0,0,0-.012-.058c-.017-.076-.035-.152-.055-.229s-.032-.123-.05-.184a.26.26,0,0,0-.024-.081c-.009-.026-.026-.088-.039-.132l-.027-.085c-.012-.038-.024-.076-.038-.114-.023-.068-.047-.135-.071-.2s-.05-.135-.076-.2c-.052-.137-.108-.272-.164-.407-.22-.526-.468-1.043-.7-1.557a8.621,8.621,0,0,1-.325-.825l-.029.041a1.752,1.752,0,0,0-.123.219,5.424,5.424,0,0,1-1.2,2.658l-1.2-1.754-1.054,1.62a1.324,1.324,0,0,0-.422.75c-.033.106-.065.222-.1.345-.021.082-.041.169-.059.255-.011.044-.02.088-.029.134l-.027.138v.021c-.018.094-.036.191-.053.29s-.036.213-.053.32q-.018.1-.032.21c-.021.135-.039.272-.058.407-.011.079-.021.152-.03.235l-.036.3c.077.249.164.5.254.737a1.224,1.224,0,0,1,.1.418,10.377,10.377,0,0,0,5.7,0,.058.058,0,0,1,0-.015,1.807,1.807,0,0,1-.036-.415h0a11.392,11.392,0,0,1,.152-1.162,4.255,4.255,0,0,0,.029-.571v-.068C329.292,696.9,329.29,696.85,329.289,696.8Zm0,0a1.051,1.051,0,0,0-.011-.182c-.011-.061-.009-.114-.017-.172s-.014-.115-.021-.173-.018-.115-.029-.173-.021-.115-.033-.173a.262.262,0,0,0-.012-.058c-.017-.076-.035-.152-.055-.229s-.032-.123-.05-.184a.26.26,0,0,0-.024-.081c-.009-.026-.026-.088-.039-.132l-.027-.085c-.012-.038-.024-.076-.038-.114-.023-.068-.047-.135-.071-.2s-.05-.135-.076-.2c-.052-.137-.108-.272-.164-.407-.22-.526-.468-1.043-.7-1.557a8.621,8.621,0,0,1-.325-.825l-.029.041a1.752,1.752,0,0,0-.123.219,5.424,5.424,0,0,1-1.2,2.658l-1.2-1.754-1.054,1.62a1.324,1.324,0,0,0-.422.75c-.033.106-.065.222-.1.345-.021.082-.041.169-.059.255-.011.044-.02.088-.029.134l-.027.138v.021c-.018.094-.036.191-.053.29s-.036.213-.053.32q-.018.1-.032.21c-.021.135-.039.272-.058.407-.011.079-.021.152-.03.235l-.036.3c.077.249.164.5.254.737a1.224,1.224,0,0,1,.1.418,10.377,10.377,0,0,0,5.7,0,.058.058,0,0,1,0-.015,1.807,1.807,0,0,1-.036-.415h0a11.392,11.392,0,0,1,.152-1.162,4.255,4.255,0,0,0,.029-.571v-.068C329.292,696.9,329.29,696.85,329.289,696.8Z" transform="translate(-315.979 -678.94)" fill="#444176"/>
        <path id="Path_681" data-name="Path 681" d="M308.343,693.124l-.1-.014a3.709,3.709,0,0,1-.456-.091L307.73,693c-.371-.1-.776-.293-.867-.624a.591.591,0,0,1,.009-.323,2.779,2.779,0,0,1,.207-.522v-.009a.724.724,0,0,1,.038-.068,1.52,1.52,0,0,1,.548-.6l-.182.029-1.543.25-2.392.386s-.425-.085-1,1.51a.246.246,0,0,1-.02.059c-.14.39-.287.878-.439,1.487-.1.422-.2.837-.289,1.239-.026.121-.052.241-.076.36a9.641,9.641,0,0,0,.882.911l.05.047a10.363,10.363,0,0,0,2.023,1.432l.029.015a10.009,10.009,0,0,0,1.428.632l.129.046c.027-.281.058-.592.094-.911a.26.26,0,0,1,.012-.1l.036-.3c.009-.078.02-.152.03-.235.018-.135.036-.272.058-.407q.014-.1.032-.21c.017-.108.035-.216.053-.32s.035-.2.053-.29v-.021l.027-.138c.009-.046.018-.09.029-.134.018-.087.038-.173.059-.255.03-.123.062-.238.1-.345a1.3,1.3,0,0,1,.422-.75l1.054-1.62.044-.068.02-.03Z" transform="translate(-299.254 -679.157)" opacity="0.1"/>
        <path id="Path_682" data-name="Path 682" d="M307.66,693.144l-1.119,1.719a1.284,1.284,0,0,0-.415.727c-.035.112-.07.235-.1.364a18.155,18.155,0,0,0-.343,1.988.236.236,0,0,1-.012.091c-.052.422-.094.837-.129,1.2a10.023,10.023,0,0,1-1.428-.632l-.029-.015a10.366,10.366,0,0,1-2.023-1.432l-.05-.047a9.643,9.643,0,0,1-.882-.911c-.036-.041-.071-.083-.106-.126.017-.079.033-.152.052-.237.087-.4.182-.816.287-1.236a14.969,14.969,0,0,1,.516-1.7.459.459,0,0,1,.02-.049c.538-1.384.925-1.306.925-1.306l2.526-.407,1.595-.258-.05.029a1.616,1.616,0,0,0-.439.468l-.044.074c-.018.029-.035.061-.053.093a2.693,2.693,0,0,0-.21.531.559.559,0,0,0,.036.434,1.447,1.447,0,0,0,.937.544l.059.015A3.83,3.83,0,0,0,307.66,693.144Z" transform="translate(-298.66 -679.174)" fill="#f1d2d7"/>
        <path id="Path_683" data-name="Path 683" d="M376.221,694.051l-.062-1.349c.266-2.126-.266-2.258-.266-2.258l-.632-.3h-.017l-2.541-1.232-.1-.049-.03-.014h0l-.331-.161h0l-.21-.1-.392-.19-.132-.064v.527c0,.152.014.329.026.536.027.519.077,1.215.167,2.035.05.475.114.995.193,1.552.047.329.081.657.1.978a17.206,17.206,0,0,1-.1,3.235l.138-.044a10.146,10.146,0,0,0,1.1-.44h0a10.092,10.092,0,0,0,1.959-1.2l.027-.02a10.141,10.141,0,0,0,1.1-1Z" transform="translate(-358.445 -677.011)" opacity="0.1"/>
        <path id="Path_684" data-name="Path 684" d="M377.084,694.009l-.062-1.352c.266-2.126-.266-2.258-.266-2.258l-.759-.367h-.015l-2.548-1.236-.117-.056-.023-.011-.187-.091-.248-.12-.489-.237v.216h0v.267c0,.152.014.351.027.577.026.484.071,1.119.152,1.874.055.518.123,1.093.213,1.713q.07.5.1.983a17.183,17.183,0,0,1-.094,3.189,10.279,10.279,0,0,0,3.059-1.643l.027-.02a10.132,10.132,0,0,0,1.1-1q.067-.067.128-.137Z" transform="translate(-359.174 -676.969)" fill="#f1d2d7"/>
        <path id="Path_685" data-name="Path 685" d="M332.264,637.076a3.8,3.8,0,0,1,1.421-.152,4.656,4.656,0,0,1,1.086.527,2.812,2.812,0,0,0,1.121.3.659.659,0,0,0,.412-.081.638.638,0,0,0,.184-.626,3.592,3.592,0,0,0-.911-1.707,3.343,3.343,0,0,0-.571-.579,3.016,3.016,0,0,0-1.942-.44,4.867,4.867,0,0,0-2.225.571c-.456.261-1.5,1.084-1.137,1.68C330.081,637.188,331.667,637.177,332.264,637.076Z" transform="translate(-322.921 -631.194)" opacity="0.1"/>
        <path id="Path_686" data-name="Path 686" d="M332.264,636.076a3.8,3.8,0,0,1,1.421-.152,4.653,4.653,0,0,1,1.086.527,2.811,2.811,0,0,0,1.121.3.659.659,0,0,0,.412-.08.638.638,0,0,0,.184-.626,3.593,3.593,0,0,0-.911-1.707,3.345,3.345,0,0,0-.571-.579,3.016,3.016,0,0,0-1.942-.44,4.867,4.867,0,0,0-2.225.571c-.456.261-1.5,1.084-1.137,1.68C330.081,636.188,331.667,636.177,332.264,636.076Z" transform="translate(-322.921 -630.345)" fill="#444176"/>
      </g>
      <path id="Path_687" data-name="Path 687" d="M619.515,367.067h.023a4.091,4.091,0,0,0,.456,2.193c.662.608,3.408-.607,3.22-1.342-.038-.152-.1-.4-.182-.715a2.137,2.137,0,0,0,1.627-.738l.477,1.47.034.1h.036c.314,2.98,1.027,9.167,1.6,10,.759,1.1,1.633,5.856,1.633,5.856l1.633,9.761s.629,5.619,1.005,6.227a.706.706,0,0,0,.413.214,5.979,5.979,0,0,1-.911,1.859c-.759.853-1.759,2.562-2.638,2.441s-1.13,1.709.5,1.952a13.5,13.5,0,0,0,3.452-.2,1.235,1.235,0,0,0,1.2,1.179,20.061,20.061,0,0,0,5.024-.488s2.885-1.215,3.015-2.075a27.165,27.165,0,0,0-.6-4.433c.456-.73-.03-7.035-.03-7.035l-.879-12.078s.5-6.71,0-7.931c-.314-.759-.431-4.252-.475-6.751l.607.04a1.131,1.131,0,0,0,.094-.132l.152.011a2.018,2.018,0,0,0,.126-2.2c-.466-1-.378-5.5-.3-7.745h0l.09-1.063a.306.306,0,0,0,.074-.115,11.14,11.14,0,0,0,3.391-1.027,3.442,3.442,0,0,0,.89-.541c.629-.607.251-4.271-1.005-9.761s-2.386-5-2.386-5-3.015-.245-4.4-2.075-2.31-1.806-2.31-1.806h0c-.035-.24-.059-.466-.076-.677,0-.079-.012-.152-.017-.231a4.015,4.015,0,0,0,1.045-1.584,7.857,7.857,0,0,0,.9-.393,1.071,1.071,0,0,0,.187-.173,1.535,1.535,0,0,0,.485-.955,3.906,3.906,0,0,0-.056-1.2,2.9,2.9,0,0,0-1.917-2.63q-1.993-1.046-4-2.072a2.2,2.2,0,0,0-.855-.3,2.279,2.279,0,0,0-1.446.683,6.172,6.172,0,0,0-.494.433,2.765,2.765,0,0,0-.363.39,3.744,3.744,0,0,0-.5,2.793.383.383,0,0,0,.406.342,3.915,3.915,0,0,0-.418,1.762,3.994,3.994,0,0,0,1.854,3.355c0,.085,0,.169.008.249a8.915,8.915,0,0,1-.03.934s-3.341,1.806-3.716,2.659a3.973,3.973,0,0,1-1.759,1.464s-2.638,1.343-2.638,6.1l-1.382,6.71-.251,12.81s.173-.152.456-.368c-.009.085-.017.173-.024.263a14.49,14.49,0,0,0-.038,1.472Zm16.873,33.155c-.052.2-.128.456-.223.759-.043-.252-.085-.5-.128-.738C636.146,400.232,636.263,400.226,636.388,400.222Z" transform="translate(-531.672 -279.184)" fill="url(#linear-gradient-4)"/>
      <path id="Path_688" data-name="Path 688" d="M678.024,808.483a9.265,9.265,0,0,1-1.215,3.024c-.731.846-1.687,2.541-2.532,2.419s-1.089,1.693.484,1.935a18.763,18.763,0,0,0,4.831-.483s2.782-1.215,2.9-2.056a38.633,38.633,0,0,0-.726-5.2Z" transform="translate(-577.87 -689.019)" fill="#53526b"/>
      <path id="Path_689" data-name="Path 689" d="M678.024,808.483a9.265,9.265,0,0,1-1.215,3.024c-.731.846-1.687,2.541-2.532,2.419s-1.089,1.693.484,1.935a18.763,18.763,0,0,0,4.831-.483s2.782-1.215,2.9-2.056a38.633,38.633,0,0,0-.726-5.2Z" transform="translate(-577.87 -689.019)" opacity="0.05"/>
      <path id="Path_690" data-name="Path 690" d="M707.48,814.845a9.263,9.263,0,0,1-1.215,3.024c-.731.846-1.692,2.541-2.535,2.419s-1.089,1.693.484,1.935a18.814,18.814,0,0,0,4.839-.485s2.782-1.215,2.9-2.056a38.627,38.627,0,0,0-.726-5.2Z" transform="translate(-602.85 -694.413)" fill="#53526b"/>
      <path id="Path_691" data-name="Path 691" d="M659.66,598.67s.967,10.4,1.693,11.491,1.572,5.806,1.572,5.806l1.572,9.676s.607,5.565.967,6.169,4.849.345,4.849.345l-2.791-32.036Z" transform="translate(-566.038 -511.378)" fill="#5f5d7e"/>
      <path id="Path_692" data-name="Path 692" d="M659.66,598.67s.967,10.4,1.693,11.491,1.572,5.806,1.572,5.806l1.572,9.676s.607,5.565.967,6.169,4.849.345,4.849.345l-2.791-32.036Z" transform="translate(-566.038 -511.378)" opacity="0.05"/>
      <path id="Path_693" data-name="Path 693" d="M646.92,566l.316,1,1.709,5.423.033.1h.009c.229.052,5.071,1.165,6.116,1.507a1.464,1.464,0,0,1,.166.062c.484.241,1.089,8.95,1.089,8.95s.363,8.225.607,8.83,1.215,13.061,1.815,12.7,4.959,0,4.959,0c.484-.484,0-7.015,0-7.015l-.86-11.972s.484-6.652,0-7.862-.484-9.313-.484-9.313l-9.9-1.547-.957-.152Z" transform="translate(-555.233 -483.67)" fill="#5f5d7e"/>
      <path id="Path_694" data-name="Path 694" d="M649,570.712l1.709,5.423.041.106c.229.052,5.071,1.165,6.116,1.507h.1l-2.7-7.171-.077-.207-.879.056Z" transform="translate(-556.997 -487.376)" opacity="0.02"/>
      <path id="Path_695" data-name="Path 695" d="M661.908,406.73s-4.476,4.839-7.258.846l-2.661,1.815.484,2.782L650.9,433.218a24.541,24.541,0,0,1,7.015.846,4.5,4.5,0,0,0,4.717-1.089l-.478-18.5,1.089-5.684Z" transform="translate(-558.608 -348.588)" opacity="0.1"/>
      <path id="Path_696" data-name="Path 696" d="M661.908,404.34s-4.476,4.839-7.258.846L651.989,407l.484,2.782L650.9,430.828a24.54,24.54,0,0,1,7.015.846,4.5,4.5,0,0,0,4.717-1.089l-.478-18.5,1.089-5.684Z" transform="translate(-558.608 -346.561)" fill="#53526b"/>
      <g id="TESLA" transform="translate(92.954 78.828)">
        <g id="g8">
          <path id="polyline10" d="M613.666,522.36v.762h-.243v-.507h-.888v.507h-.245v-.761l1.376,0" transform="translate(-612.255 -521.862)" fill="#e82127"/>
          <path id="path12" d="M656.454,543.192h-.939a.346.346,0,0,1-.255-.252h1.447a.348.348,0,0,1-.255.252" transform="translate(-655.26 -542.94)" fill="#e82127"/>
        </g>
        <g id="g30" transform="translate(8.098 0.009)">
          <path id="path32" d="M710.163,543a.351.351,0,0,1-.254.251h-.395l-.02.008v1h-.243v-1l-.023-.008h-.395a.355.355,0,0,1-.254-.251h1.583" transform="translate(-708.58 -543)" fill="#e82127"/>
        </g>
      </g>
      <path id="Path_697" data-name="Path 697" d="M630.3,569.2s0,3.145-.726,4.476-4.958.607-4.958.607l.846-4.476Z" transform="translate(-536.32 -486.384)" fill="#d6dbe6"/>
      <path id="Path_698" data-name="Path 698" d="M625.165,585.4c.638.607,3.282-.607,3.1-1.33-.128-.512-.574-2.343-.828-3.382l-.176-.731s-1.549-.484-2.1,0a3.449,3.449,0,0,0-.4,1.709C624.649,583.123,624.763,585.015,625.165,585.4Z" transform="translate(-536.405 -495.325)" fill="#fdc2cc"/>
      <path id="Path_699" data-name="Path 699" d="M666,372.82l4.233,3.265s6.289-.363,4.717-3.387a11.275,11.275,0,0,1-1.215-4.274,8.932,8.932,0,0,1,0-1.654s-5.806-5.315-5.08.726a13.7,13.7,0,0,1,.1,1.4C668.842,373.429,666,372.82,666,372.82Z" transform="translate(-571.415 -312.865)" fill="#fdc2cc"/>
      <path id="Path_700" data-name="Path 700" d="M683.209,367.492a13.712,13.712,0,0,1,.1,1.4,3.964,3.964,0,0,0,2.2.659c1.083,0,1.88-1.054,2.6-1.754-.081-1,.181-1.028.181-1.028S682.483,361.444,683.209,367.492Z" transform="translate(-585.957 -312.858)" opacity="0.1"/>
      <circle id="Ellipse_178" data-name="Ellipse 178" cx="3.991" cy="3.991" r="3.991" transform="translate(95.558 48.466)" fill="#fdc2cc"/>
      <path id="Path_701" data-name="Path 701" d="M699.236,394.38s.665.061,2,1.874,4.233,2.056,4.233,2.056,1.089-.484,2.3,4.959,1.572,9.071.967,9.676a8.8,8.8,0,0,1-4.239,1.453s-.363,7.619.241,8.95a2.062,2.062,0,0,1-.122,2.178l-5.315-.363a12.649,12.649,0,0,1-2.178-6.289c-.363-3.991-1.572-15.362-.967-16.692s3.265-4.717,3.145-5.08A21.851,21.851,0,0,1,699.236,394.38Z" transform="translate(-596.845 -338.114)" opacity="0.1"/>
      <path id="Path_702" data-name="Path 702" d="M700.617,394.14s.894-.024,2.225,1.791,4.231,2.056,4.231,2.056,1.089-.484,2.3,4.959,1.572,9.071.967,9.676a8.8,8.8,0,0,1-4.233,1.452s-.363,7.619.241,8.95a2.062,2.062,0,0,1-.121,2.178l-5.315-.363a12.65,12.65,0,0,1-2.178-6.289c-.363-3.991-1.575-15.36-.97-16.684s3.265-4.717,3.145-5.08S700.617,394.14,700.617,394.14Z" transform="translate(-598.213 -337.91)" fill="#d6dbe6"/>
      <path id="Path_703" data-name="Path 703" d="M625,581.656a3.965,3.965,0,0,1,2.676-.978l-.176-.73s-1.549-.484-2.1,0A3.391,3.391,0,0,0,625,581.656Z" transform="translate(-536.642 -495.317)" opacity="0.1"/>
      <path id="Path_704" data-name="Path 704" d="M633.681,399.16s-3.084,2-3.448,2.843a3.847,3.847,0,0,1-1.693,1.452S626,404.785,626,409.5l-1.33,6.652,6.047,8.467s.726-8.467,1.089-10.523.846-5.923.846-5.923,1.815-2.3,1.572-2.9S633.681,399.16,633.681,399.16Z" transform="translate(-536.362 -342.168)" opacity="0.1"/>
      <path id="Path_705" data-name="Path 705" d="M631.6,398.92s-3.217,1.79-3.578,2.636a3.851,3.851,0,0,1-1.693,1.452s-2.539,1.33-2.539,6.048l-1.33,6.652-.241,12.7s2.178-2.056,3.75-1.089,2.539-3.145,2.539-3.145.726-8.467,1.089-10.523.846-5.923.846-5.923,1.815-2.3,1.572-2.9A58.012,58.012,0,0,1,631.6,398.92Z" transform="translate(-534.284 -341.964)" fill="#d6dbe6"/>
      <path id="Path_706" data-name="Path 706" d="M672.5,329.653a3.947,3.947,0,0,1,.7-.7,2.159,2.159,0,0,1,1.393-.677,2.084,2.084,0,0,1,.823.295q1.929,1.016,3.847,2.053a3.576,3.576,0,0,1,1.289.984,3.793,3.793,0,0,1,.556,1.625,3.985,3.985,0,0,1,.055,1.188,1.49,1.49,0,0,1-.526,1c-.345.251-.817.252-1.106.58a3.226,3.226,0,0,0-.358.686c-.119.231-.324.456-.557.415a.585.585,0,0,1-.409-.539,3.27,3.27,0,0,1,.044-.759,1.8,1.8,0,0,0-.276-1.277c-.182-.231-.443-.371-.62-.607-.422-.571-.229-1.519-.693-2.055a1.1,1.1,0,0,0-1.063-.3,4.541,4.541,0,0,0-1.063.456,7.894,7.894,0,0,1-1.457.562c-.422.115-.911.392-1.055-.17A3.744,3.744,0,0,1,672.5,329.653Z" transform="translate(-576.452 -282.051)" opacity="0.1"/>
      <path id="Path_707" data-name="Path 707" d="M673.294,328.863a3.954,3.954,0,0,1,.7-.7,2.159,2.159,0,0,1,1.393-.677,2.084,2.084,0,0,1,.823.295c1.285.677,2.352.036,3.847,2.053.319.431.96.525,1.289.984a3.8,3.8,0,0,1,.556,1.625,3.985,3.985,0,0,1,.055,1.188,1.49,1.49,0,0,1-.526,1c-.345.251-.817.252-1.106.58a3.233,3.233,0,0,0-.358.686c-.118.231-.323.456-.557.415a.585.585,0,0,1-.409-.539,3.274,3.274,0,0,1,.044-.759,1.8,1.8,0,0,0-.276-1.277c-.182-.231-.443-.371-.62-.607-.422-.571-.229-1.519-.693-2.055a1.1,1.1,0,0,0-1.063-.3,4.542,4.542,0,0,0-1.063.456,7.9,7.9,0,0,1-1.456.562c-.422.115-.911.392-1.055-.17A3.736,3.736,0,0,1,673.294,328.863Z" transform="translate(-577.127 -281.381)" fill="#865a61"/>
      <path id="Path_708" data-name="Path 708" d="M735.588,458.09s1.613,4.113.4,5.806l-2.661-.607s2.419.726,2.056-.726A14.8,14.8,0,0,1,735.588,458.09Z" transform="translate(-628.52 -392.148)" opacity="0.1"/>
      <path id="Path_709" data-name="Path 709" d="M729.006,522.294s-3.508.242-4.476-.484a9.264,9.264,0,0,0,4.366,1.815Z" transform="translate(-621.056 -446.191)" opacity="0.1"/>
      <path id="Path_710" data-name="Path 710" d="M645,474s-1.815,5.565-1.693,6.41.363,10.16.363,10.16l.363-.122-.121-10.16Z" transform="translate(-552.164 -405.642)" opacity="0.1"/>
      <path id="Path_711" data-name="Path 711" d="M280.687,125.206,239.227,91.794a2.594,2.594,0,0,0-1.838-.759h-1.762a22.477,22.477,0,1,0-3.892,3.892v1.76a2.594,2.594,0,0,0,.759,1.838l41.461,33.412a2.582,2.582,0,0,0,3.666,0l3.056-3.053A2.608,2.608,0,0,0,280.687,125.206ZM217.894,91.035a13.829,13.829,0,1,1,9.791-4.05,13.841,13.841,0,0,1-9.791,4.05Z" transform="translate(-172.311 -50.047)" fill="url(#linear-gradient-5)"/>
      <path id="Path_712" data-name="Path 712" d="M282.687,123.206,241.227,89.794a2.594,2.594,0,0,0-1.838-.759h-1.762a22.477,22.477,0,1,0-3.892,3.892v1.76a2.594,2.594,0,0,0,.759,1.838l41.461,33.412a2.582,2.582,0,0,0,3.666,0l3.056-3.053a2.608,2.608,0,0,0,.011-3.678ZM219.894,89.035a13.829,13.829,0,1,1,9.791-4.05,13.841,13.841,0,0,1-9.791,4.05Z" transform="translate(-174.007 -48.351)" fill="#00a0c6"/>
      <path id="Path_713" data-name="Path 713" d="M709,475.234s-6.052-6.94-5.2-2.178a7.3,7.3,0,0,0,3.991,5.565C708.883,478.984,709,475.234,709,475.234Z" transform="translate(-603.407 -403.425)" fill="#fdc2cc"/>
      <path id="Path_714" data-name="Path 714" d="M725.781,454.51s.122,4.476.726,5.08-.363,1.33-.363,1.33l-2.419-.608s.607,3.991-1.935,3.508a7.71,7.71,0,0,0,3.387,1.815c1.693.243,1.572-.363,1.572-.363l2.539-3.024Z" transform="translate(-618.732 -389.112)" fill="#d6dbe6"/>
      <path id="Path_715" data-name="Path 715" d="M701.647,489.228l2.454-.539-.328-1.131-1.519-.608-1.974.911Z" transform="translate(-593.928 -413.002)" fill="#d6dbe6"/>
      <path id="Path_716" data-name="Path 716" d="M280.78,142.139a10.278,10.278,0,0,0,2.062,6.193c.135.181.276.355.424.527.079.093.161.184.245.273q.062.07.128.137a10.129,10.129,0,0,0,1.1,1l.027.02a10.282,10.282,0,0,0,3.059,1.643l.138.044c.085.029.173.055.26.079l.035.011c.044.012.088.026.134.036a10.284,10.284,0,0,0,2.708.36c.152,0,.311,0,.466-.011a10.211,10.211,0,0,0,2.395-.392h.015c.144-.043.287-.087.428-.135h.015l.129-.046a10.013,10.013,0,0,0,1.428-.632l.029-.015.152-.084a10.3,10.3,0,0,0,1.874-1.349l.05-.047a9.652,9.652,0,0,0,.882-.911L299,148.8c.026-.029.05-.058.074-.088.067-.079.131-.161.194-.243a10.327,10.327,0,1,0-18.486-6.335Z" transform="translate(-244.699 -115.424)" fill="#c0bccf"/>
      <path id="Path_717" data-name="Path 717" d="M295.922,158.332a5.022,5.022,0,0,0,3.267-1.614c1-1.387,1.681-1.4,1.715-1.4h0c.026-.185.044-.361.056-.525v-.023a.3.3,0,0,1-.141.062c-.2.03-.377-.159-.477-.361a2.821,2.821,0,0,0-.3-.6c-.248-.286-.653-.287-.948-.5a1.3,1.3,0,0,1-.456-.869,2.4,2.4,0,0,1-.018-.38,4.208,4.208,0,0,1,.064-.809,3.335,3.335,0,0,1,.477-1.414c.281-.4.831-.481,1.1-.857,1.28-1.756,2.193-1.2,3.294-1.788a1.765,1.765,0,0,1,.7-.257,1.842,1.842,0,0,1,1.192.591,3.4,3.4,0,0,1,.607.607,3.3,3.3,0,0,1,.48,1.844,2.763,2.763,0,0,1-.07.721c-.088.349-.327.327-.588.248a3.156,3.156,0,0,1-1.072,3.961v.159a.278.278,0,0,0,0,.035,7.2,7.2,0,0,0,.024.726c.026.014,2.482,1.406,2.759,2.067a3,3,0,0,0,1.308,1.139,4.085,4.085,0,0,1,1.671,2.515l-.032.038a9.747,9.747,0,0,1-.882.929l-.05.049a10.308,10.308,0,0,1-1.874,1.367c-.049.029-.1.058-.152.085l-.029.015a9.932,9.932,0,0,1-1.428.642l-.129.047h-.015c-.141.05-.284.094-.428.137h-.015a10.057,10.057,0,0,1-2.4.4c-.152.008-.3.011-.466.011a10.122,10.122,0,0,1-2.7-.351c-.046-.011-.09-.024-.134-.036l-.035-.011c-.087-.024-.175-.052-.26-.08l-.138-.044a10.239,10.239,0,0,1-3.063-1.672l-.027-.02a10.192,10.192,0,0,1-1.1-1.018q-.065-.067-.128-.14c-.083-.091-.166-.184-.245-.278-.152-.175-.289-.352-.424-.536C295.233,158.019,295.922,158.332,295.922,158.332Z" transform="translate(-256.267 -128.295)" fill="url(#linear-gradient-6)"/>
      <path id="Path_718" data-name="Path 718" d="M333.913,188.952l3.267-2.52s-2.188.469-2.126-3.028a.278.278,0,0,1,0-.035,8.949,8.949,0,0,1,.076-1.043c.56-4.667-3.92-.56-3.92-.56a6.677,6.677,0,0,1,0,1.242v.033a8.677,8.677,0,0,1-.932,3.3C329.061,188.671,333.913,188.952,333.913,188.952Z" transform="translate(-286.513 -156.373)" fill="#fdc2cc"/>
      <path id="Path_719" data-name="Path 719" d="M337.911,182.359c.554.539.893,1.519,1.727,1.519a3.06,3.06,0,0,0,1.7-.509,8.948,8.948,0,0,1,.076-1.043c.56-4.667-3.92-.56-3.92-.56S337.97,181.6,337.911,182.359Z" transform="translate(-292.796 -156.373)" opacity="0.1"/>
      <circle id="Ellipse_179" data-name="Ellipse 179" cx="3.08" cy="3.08" r="3.08" transform="translate(43.761 21.193)" fill="#fdc2cc"/>
      <path id="Path_720" data-name="Path 720" d="M329.5,151.176a3.377,3.377,0,0,0-.608-.6A1.842,1.842,0,0,0,327.7,150a1.785,1.785,0,0,0-.7.252c-1.1.58-2.014.032-3.294,1.757-.273.369-.822.456-1.1.843a3.231,3.231,0,0,0-.477,1.391,3.41,3.41,0,0,0-.047,1.018,1.274,1.274,0,0,0,.456.854c.295.214.7.216.948.5a2.757,2.757,0,0,1,.3.588c.1.2.276.384.477.355a.492.492,0,0,0,.349-.456,2.8,2.8,0,0,0-.038-.648,1.551,1.551,0,0,1,.237-1.093c.152-.2.38-.317.53-.519.361-.488.2-1.306.594-1.759a.94.94,0,0,1,.911-.254,3.883,3.883,0,0,1,.911.392A6.763,6.763,0,0,0,329,153.7c.361.1.781.336.9-.152A3.21,3.21,0,0,0,329.5,151.176Z" transform="translate(-279.709 -130.847)" opacity="0.1"/>
      <path id="Path_721" data-name="Path 721" d="M329.5,150.176a3.378,3.378,0,0,0-.608-.6A1.842,1.842,0,0,0,327.7,149a1.784,1.784,0,0,0-.7.252c-1.1.58-2.014.032-3.294,1.757-.273.369-.822.456-1.1.843a3.23,3.23,0,0,0-.477,1.391,3.41,3.41,0,0,0-.047,1.018,1.274,1.274,0,0,0,.456.854c.295.214.7.216.948.5a2.757,2.757,0,0,1,.3.588c.1.2.276.384.477.355a.492.492,0,0,0,.349-.456,2.8,2.8,0,0,0-.038-.648,1.551,1.551,0,0,1,.237-1.093c.152-.2.38-.317.53-.519.361-.488.2-1.306.594-1.759a.94.94,0,0,1,.911-.254,3.884,3.884,0,0,1,.911.392A6.763,6.763,0,0,0,329,152.7c.361.1.781.336.9-.152A3.21,3.21,0,0,0,329.5,150.176Z" transform="translate(-279.709 -129.999)" fill="#865a61"/>
      <path id="Path_722" data-name="Path 722" d="M326.685,215.732l-.061,2.331a10.281,10.281,0,0,0,2.708.36c.152,0,.311,0,.466-.011a10.213,10.213,0,0,0,2.395-.392h.015c.144-.043.287-.087.428-.135h.015l.129-.046a10.011,10.011,0,0,0,1.428-.632l.029-.015.152-.083-.235-3.142.375-2.155-2.053-1.4a3.615,3.615,0,0,1-.386.468,2.582,2.582,0,0,1-.7.519c-1.473.726-3.15-.428-3.984-1.142l-.19-.169c-.216-.2-.339-.33-.339-.33l-1.027,1.586Z" transform="translate(-282.924 -181.532)" opacity="0.1"/>
      <path id="Path_723" data-name="Path 723" d="M326.685,216.732l-.061,2.331a10.283,10.283,0,0,0,2.708.36c.152,0,.311,0,.466-.011a10.212,10.212,0,0,0,2.395-.392h.015c.144-.043.287-.087.428-.135h.015l.129-.046a10.013,10.013,0,0,0,1.428-.632l.029-.015.152-.084-.235-3.142.375-2.155-2.053-1.4a3.618,3.618,0,0,1-.386.468,2.582,2.582,0,0,1-.7.519c-1.473.726-3.15-.428-3.984-1.142l-.19-.169c-.216-.2-.339-.33-.339-.33l-1.027,1.586Z" transform="translate(-282.924 -182.38)" fill="#53526b"/>
      <path id="Path_724" data-name="Path 724" d="M294.36,208.6c.135.181.276.355.424.527.079.093.161.184.245.273q.062.07.128.137a10.128,10.128,0,0,0,1.1,1l.027.02a10.286,10.286,0,0,0,3.059,1.643l.138.044c.085.029.173.055.26.079l.035.011c.044.012.088.026.134.036a10.282,10.282,0,0,0,2.708.36c.152,0,.311,0,.466-.011a14.612,14.612,0,0,0-.033-3.892,6.262,6.262,0,0,0-.375-.671,26.323,26.323,0,0,1-2.052-3.249,2.385,2.385,0,0,0,.062-.342c.08-.6.161-1.693.161-1.693h0c-.033,0-.714.017-1.715,1.38a5.062,5.062,0,0,1-3.267,1.587S295.182,205.534,294.36,208.6Z" transform="translate(-256.216 -175.689)" fill="#555388"/>
      <path id="Path_725" data-name="Path 725" d="M361.994,213.416s.112.895.26,1.964h.015l.129-.046a10.015,10.015,0,0,0,1.428-.632l.029-.015.152-.084a10.3,10.3,0,0,0,1.874-1.349l.05-.047a9.648,9.648,0,0,0,.882-.911l.032-.038a4.017,4.017,0,0,0-1.671-2.474,2.983,2.983,0,0,1-1.308-1.121c-.281-.653-2.761-2.034-2.761-2.034v.011c0,.117-.04,1.188-.1,2.264-.038.7-.085,1.4-.14,1.85a2.161,2.161,0,0,1-.079.428C360.6,211.643,361.994,213.416,361.994,213.416Z" transform="translate(-312.54 -178.878)" fill="#555388"/>
    </g>
  </g>
</svg>
