<svg xmlns="http://www.w3.org/2000/svg" xmlns:xlink="http://www.w3.org/1999/xlink" width="201.419" height="145.244" viewBox="0 0 201.419 145.244"><defs><style>.a,.e,.g{fill:#205df5;}.a,.f,.o,.q{opacity:0.1;}.b{opacity:0.9;}.c{fill:#3a3768;}.d{fill:#e6e8ec;}.e{opacity:0.5;}.h{fill:url(#a);}.i{fill:#ee8e9e;}.j{fill:#65617d;}.k,.o{fill:#3f3d56;}.l{opacity:0.05;}.m{fill:#e8eaf2;}.n{fill:#303d5c;}.p{fill:url(#b);}</style><linearGradient id="a" x1="-1.02" y1="1" x2="-1.02" gradientUnits="objectBoundingBox"><stop offset="0" stop-color="gray" stop-opacity="0.251"/><stop offset="0.54" stop-color="gray" stop-opacity="0.122"/><stop offset="1" stop-color="gray" stop-opacity="0.102"/></linearGradient><linearGradient id="b" x1="0" y1="0.5" x2="1.001" y2="0.5" xlink:href="#a"/></defs><g transform="translate(-0.001 -0.006)"><path class="a" d="M152.03,66.666c-12.913-.447-25.212-4.617-36.955-9.178S91.7,47.874,79.095,45.457c-8.107-1.554-17.378-1.774-23.909,2.572-6.282,4.175-8.317,11.4-9.408,18.1-.822,5.039-1.3,10.339.945,15.062,1.563,3.276,4.339,6.03,6.258,9.167,6.676,10.918,1.961,24.383-5.28,35.043-3.387,5-7.331,9.772-9.95,15.094s-3.831,11.424-1.54,16.854c2.273,5.383,7.684,9.426,13.547,12.269,11.909,5.775,25.943,7.43,39.627,8.365,30.292,2.071,60.746,1.175,91.119.276,11.241-.333,22.529-.67,33.588-2.408,6.139-.964,12.478-2.5,16.934-6.194a14.192,14.192,0,0,0,3.269-18.538c-6.36-9.873-23.948-12.326-28.394-22.923-2.447-5.832.066-12.331,3.622-17.74,7.629-11.606,20.417-21.788,21.091-35.051.463-9.11-5.684-18.235-15.189-22.545-9.964-4.519-23.779-3.95-31.13,3.529C176.732,64.1,163.431,67.061,152.03,66.666Z" transform="translate(-35 -44.103)"/><g class="b" transform="translate(70.321 15.326)"><rect class="c" width="1.766" height="14.569" rx="0.883" transform="translate(58.782 27.265)"/><rect class="c" width="0.991" height="4.797" rx="0.496" transform="translate(0.036 15.852)"/><rect class="c" width="1.118" height="8.349" rx="0.559" transform="translate(0 24.633)"/><rect class="c" width="1.064" height="8.421" rx="0.532" transform="translate(0.018 35.902)"/><rect class="c" width="59.139" height="120.19" rx="29.569" transform="translate(0.597)"/><rect class="d" width="8.258" height="1.677" rx="0.839" transform="translate(24.461 3.59)"/><circle class="d" cx="0.952" cy="0.952" r="0.952" transform="translate(33.968 3.476)"/></g><path class="e" d="M500.477,146.1H493.7v.816a3.866,3.866,0,0,1-3.868,3.866H468.253a3.868,3.868,0,0,1-3.868-3.866V146.1h-6.348a4.7,4.7,0,0,0-4.7,4.7V255.331a4.7,4.7,0,0,0,4.7,4.7h42.44a4.7,4.7,0,0,0,4.7-4.7V150.8A4.7,4.7,0,0,0,500.477,146.1Z" transform="translate(-378.77 -127.642)"/><rect class="d" width="51.875" height="4.788" transform="translate(74.613 26.47)"/><rect class="c" width="4.39" height="0.399" transform="translate(76.21 27.467)"/><rect class="c" width="4.39" height="0.399" transform="translate(76.21 28.665)"/><rect class="c" width="4.39" height="0.399" transform="translate(76.21 29.862)"/><path class="c" d="M713.2,196.741h-.162l-.062-.05a1.365,1.365,0,0,0,.317-.873,1.326,1.326,0,1,0-1.319,1.335,1.369,1.369,0,0,0,.87-.319l.061.052v.164l1.023,1.027.307-.308Zm-1.226,0a.918.918,0,1,1,.652-.27A.923.923,0,0,1,711.973,196.741Z" transform="translate(-590.206 -167.415)"/><circle class="d" cx="2.194" cy="2.194" r="2.194" transform="translate(76.21 37.843)"/><rect class="d" width="30.527" height="1.198" transform="translate(85.289 42.231)"/><rect class="d" width="30.527" height="1.198" transform="translate(85.389 44.825)"/><rect class="d" width="30.527" height="1.198" transform="translate(85.488 47.42)"/><circle class="d" cx="2.194" cy="2.194" r="2.194" transform="translate(76.21 52.807)"/><rect class="d" width="30.527" height="1.198" transform="translate(85.289 57.196)"/><rect class="d" width="30.527" height="1.198" transform="translate(85.389 59.789)"/><rect class="d" width="30.527" height="1.198" transform="translate(85.488 62.383)"/><circle class="d" cx="2.194" cy="2.194" r="2.194" transform="translate(76.21 67.771)"/><rect class="d" width="30.527" height="1.198" transform="translate(85.289 72.16)"/><rect class="d" width="30.527" height="1.198" transform="translate(85.389 74.753)"/><rect class="d" width="30.527" height="1.198" transform="translate(85.488 77.347)"/><circle class="d" cx="2.194" cy="2.194" r="2.194" transform="translate(76.21 82.735)"/><rect class="d" width="30.527" height="1.198" transform="translate(85.289 87.124)"/><rect class="d" width="30.527" height="1.198" transform="translate(85.389 89.718)"/><rect class="d" width="30.527" height="1.198" transform="translate(85.488 92.311)"/><circle class="d" cx="2.194" cy="2.194" r="2.194" transform="translate(76.21 97.7)"/><rect class="d" width="30.527" height="1.198" transform="translate(85.289 102.088)"/><rect class="d" width="30.527" height="1.198" transform="translate(85.389 104.682)"/><rect class="d" width="30.527" height="1.198" transform="translate(85.488 107.275)"/><circle class="d" cx="2.194" cy="2.194" r="2.194" transform="translate(76.21 112.664)"/><rect class="d" width="30.527" height="1.198" transform="translate(85.289 117.052)"/><rect class="d" width="30.527" height="1.198" transform="translate(85.389 119.646)"/><rect class="d" width="30.527" height="1.198" transform="translate(85.488 122.24)"/><circle class="f" cx="5.586" cy="5.586" r="5.586" transform="translate(110.328 117.851)"/><circle class="g" cx="4.987" cy="4.987" r="4.987" transform="translate(110.927 118.45)"/><path class="g" d="M303.66,158.325,293.9,163.6a.2.2,0,0,0,.014.357l1.665.626a.4.4,0,0,1,.219.2l1.292,2.663c.025.118.242.148.244.029l-.2-2.2a.792.792,0,0,1,.178-.446l5.059-4.955a.125.125,0,0,1,.111-.032.116.116,0,0,1,.062.178l-4.36,5.358a.972.972,0,0,0-.178.438l-.251,1.9c.021.166.151.228.255.08l.939-1.1a.2.2,0,0,1,.276-.046l2.421,1.765a.2.2,0,0,0,.308-.119l1.986-9.749a.2.2,0,0,0-.285-.219Z" transform="translate(-247.672 -137.669)"/><path class="g" d="M881.574,169.879l-9.756,5.278a.2.2,0,0,0,.016.357l1.663.627a.387.387,0,0,1,.219.2l1.294,2.661c.025.118.241.15.244.03l-.2-2.2a.781.781,0,0,1,.178-.444l5.057-4.955a.121.121,0,0,1,.11-.032.116.116,0,0,1,.064.178l-4.362,5.333a.974.974,0,0,0-.178.44l-.262,1.9c.021.166.151.23.257.08l.939-1.1a.2.2,0,0,1,.276-.046l2.421,1.763a.194.194,0,0,0,.307-.119l1.986-9.749a.2.2,0,0,0-.285-.219Z" transform="translate(-722.573 -147.152)"/><path class="g" d="M558.213,61.617l-6.661,3.6a.139.139,0,0,0,.009.25l1.137.428a.273.273,0,0,1,.15.139l.891,1.818c.018.08.166.1.168.021l-.135-1.5a.546.546,0,0,1,.121-.3l3.455-3.387a.082.082,0,0,1,.075-.021.078.078,0,0,1,.043.127l-2.977,3.642a.667.667,0,0,0-.116.3l-.178,1.3c.014.114.1.157.178.055l.642-.752a.134.134,0,0,1,.178-.032l1.652,1.2a.134.134,0,0,0,.21-.082l1.357-6.656a.134.134,0,0,0-.194-.15Z" transform="translate(-459.414 -58.201)"/><path class="g" d="M770.891,42.6l-6.661,3.6a.139.139,0,0,0,.009.248l1.137.428a.27.27,0,0,1,.15.141l.882,1.816c.018.08.166.1.168.021l-.128-1.5a.547.547,0,0,1,.121-.3l3.455-3.387a.082.082,0,0,1,.075-.021.078.078,0,0,1,.043.127l-2.98,3.645a.666.666,0,0,0-.116.3l-.178,1.3c.014.112.1.155.178.053l.642-.752a.134.134,0,0,1,.187-.032l1.654,1.2a.132.132,0,0,0,.208-.082l1.346-6.656a.134.134,0,0,0-.194-.15Z" transform="translate(-634.184 -42.58)"/><path class="g" d="M851.578,294.9l-19.665-1.624a.357.357,0,0,0-.332.556l1.87,2.553a.7.7,0,0,1,.128.519l-.663,5.223c-.077.2.216.456.335.282l1.847-3.479a1.392,1.392,0,0,1,.7-.488l12.353-2.463a.219.219,0,0,1,.194.059.207.207,0,0,1-.086.339l-11.681,3.713a1.744,1.744,0,0,0-.683.488l-2.237,2.578c-.128.269,0,.488.3.369l2.472-.729a.357.357,0,0,1,.456.2l1.889,4.98a.357.357,0,0,0,.576.121l12.437-12.59a.356.356,0,0,0-.212-.6Z" transform="translate(-689.538 -248.586)"/><path class="h" d="M645.742,364.207a3.175,3.175,0,0,0,.67.677c.166.137.337.278.515.4.05.036.1.07.153.1,0,.009-.011.018-.014.029a.4.4,0,0,0-.046.248.535.535,0,0,0,.191.257,2.637,2.637,0,0,1,.8,1.453c.061.323-.157.668-.143,1a2.9,2.9,0,0,0,.253.93,5.024,5.024,0,0,0,1.105,1.914,6.189,6.189,0,0,0,1.239,3.053,9.931,9.931,0,0,0,2.091,1.832,4.061,4.061,0,0,0,.772.485,4.365,4.365,0,0,0,.765.2,39.423,39.423,0,0,0,6.718.759q.094,2.014.082,4.027a1.659,1.659,0,0,1-.093.651,2.888,2.888,0,0,1-.389.546,3.8,3.8,0,0,0-.5,2.472,22.774,22.774,0,0,0,.356,2.991c.234,1.266.02,2.663.469,3.868l.535,1.426a1.259,1.259,0,0,1,.105.422,1.862,1.862,0,0,1-.357.848,2.458,2.458,0,0,0-.312,1.3.269.269,0,0,0,.037.144c.059.078.178.071.274.057a11.545,11.545,0,0,1,1.191-.111,2.186,2.186,0,0,0-.193.283,4.16,4.16,0,0,0-.253.521,4.921,4.921,0,0,0-.339.93,1.131,1.131,0,0,0-.034.143c-.021.1-.041.194-.057.291a9.619,9.619,0,0,0-.105,1.711,18.117,18.117,0,0,1-.212,2.506,4.131,4.131,0,0,0,.216,1.9,4.5,4.5,0,0,0,.258,1.426,8.584,8.584,0,0,0,.178,1.5q.925,5.212,1.961,10.4c.062.3.121.6.2.891a7.3,7.3,0,0,0,1.335,2.64,12,12,0,0,1,1.394,2.232c-.041.189-.084.378-.128.565a40.377,40.377,0,0,0-1.091,4.98,6.9,6.9,0,0,1-.356,1.991,3.049,3.049,0,0,0-.356.964,1.069,1.069,0,0,0,.148.626c-.046.034-.091.07-.134.105l-.073.061a4.672,4.672,0,0,1-1.809.647,1.957,1.957,0,0,0-1.488,1.112.957.957,0,0,0-.03.119,1.577,1.577,0,0,0,.713,1.512,4,4,0,0,0,1.783.547,5.8,5.8,0,0,1,1.834.421,11.646,11.646,0,0,0,1.426.815l.091.027c-.116.07-.233.137-.357.2a5.367,5.367,0,0,1-1.709.535c-.6.084-1.323.123-1.633.649h0a1.156,1.156,0,0,0,.3,1.364,2.832,2.832,0,0,0,1.362.6,24.778,24.778,0,0,0,3.387.421l1.107.084c1.07.082,2.16.166,3.244.178a22.353,22.353,0,0,0,3.989-.348.435.435,0,0,0,.317-.153.453.453,0,0,0,.048-.253,19.5,19.5,0,0,0-.506-4.021c-.091-.4-.631.144-.934.487-.039-.2-.086-.394-.137-.585l.237-.112a.854.854,0,0,0,.435-.357.873.873,0,0,0,.046-.419,5.879,5.879,0,0,0-.51-2.536,5.378,5.378,0,0,0-1.009-1.228,46.858,46.858,0,0,0-.987-8.135,11.117,11.117,0,0,0-1.474-3.895c-.1-.144-.205-.289-.312-.433a35.027,35.027,0,0,0-.476-3.909,1.01,1.01,0,0,1,0-.521,1.605,1.605,0,0,1,.287-.4c.474-.611.28-1.481.225-2.255a10.77,10.77,0,0,1,.444-3.3q.485-2,.964-4.009a6.5,6.5,0,0,1,.339-1.11,10.985,10.985,0,0,1,.87-1.4,7.9,7.9,0,0,0,1.208-4.761c.178.064.357.13.546.2.134-1.119-.339-2.39,0-3.442a4.425,4.425,0,0,0,1.365-1.626c.264-.592.339-1.258.615-1.845a5.689,5.689,0,0,0,.467-.989,6.912,6.912,0,0,0-.027-1.638c.018-1.193.891-2.3.7-3.478a8.876,8.876,0,0,1-.4-1.645,2.751,2.751,0,0,1,.23-.891,10.345,10.345,0,0,0,.966-5.417,6.128,6.128,0,0,1-.212-1.408,8.484,8.484,0,0,0,.21-1.613,1.225,1.225,0,0,0-.242-.565,6.778,6.778,0,0,0,.6-1.144,1.639,1.639,0,0,0,.159-.731,1.294,1.294,0,0,0-.515-.87,5.215,5.215,0,0,0-.891-.519.727.727,0,0,1-.262-.187,1.914,1.914,0,0,1-.148-.282c-.178-.3-.558-.4-.859-.585-1.087-.663-.982-2.373-1.911-3.248a1.857,1.857,0,0,0-2.317-.123.569.569,0,0,1-.328.162.629.629,0,0,1-.317-.178,1.279,1.279,0,0,0-.784-.217,7.522,7.522,0,0,1-.235-2.08h.084a1.1,1.1,0,0,0,.324-.037,1.71,1.71,0,0,0,.945-1.091,8.281,8.281,0,0,0,.419-1.2c.011-.039.02-.078.029-.116.914.642,1.977,1.314,2.23,1.173.469-.258-2.094-2.082-2.094-2.082h0a2.04,2.04,0,0,0,.535-1.176,6.4,6.4,0,0,0,.021-2.576,3.042,3.042,0,0,0-1.471-2.034,3.525,3.525,0,0,1-1-.565h0a.64.64,0,0,1-.1-.132h0a.332.332,0,0,1-.039-.07.972.972,0,0,0-.107-.21c-.141-.162-.4-.112-.608-.087h-.184c-.759.016-1.5-.408-2.264-.408a5.758,5.758,0,0,0-2.3.824c-.15.068-.292.13-.426.193a1.923,1.923,0,0,0-1.07.971,1.5,1.5,0,0,0-.308.6,1.407,1.407,0,0,0-.039.307,5.1,5.1,0,0,0,2.292,8.556c.018.05.036.1.052.15a4.29,4.29,0,0,1,.223,1.426v.1a3.869,3.869,0,0,0-1.1.447,2.126,2.126,0,0,0-.927,1.139,1.119,1.119,0,0,0-.028.109,2.935,2.935,0,0,0-.838-.144.9.9,0,0,0-.713.216.659.659,0,0,0-.135.276c-.1.091-.118.248-.178.367-.216.376-.772.253-1.191.357-.455.112-.813.535-1.282.535a2.19,2.19,0,0,0-.535-.02c-.178.043-.314.283-.178.4a.569.569,0,0,0-.535.258c-.128.168-.214.367-.357.524a.546.546,0,0,0-.556-.216,2.063,2.063,0,0,0-.586.232.843.843,0,0,1-.258.091,1.114,1.114,0,0,1-.316-.029,2.52,2.52,0,0,0-1.476.207c-.406.192-.8-.16-1.248-.189a.7.7,0,0,1-.456-.141.891.891,0,0,1-.178-.357,1.783,1.783,0,0,0-1.3-1.155,1.519,1.519,0,0,0-.891-1.873,1.62,1.62,0,0,0-.556-1.412,2.607,2.607,0,0,1-.282-.221,1.351,1.351,0,0,1-.258-.478l-.4-1.048c-.178-.036-.312-.109-.478-.137v-.107a3.436,3.436,0,0,0-.178-1.052,5.893,5.893,0,0,0-.845-1.538,4.434,4.434,0,0,0-1.358-1.365,4.863,4.863,0,0,0-.579-.267l-1.02-.421a.494.494,0,0,0-.178-.05c-.274,0-.324.424-.178.651.31.458,1.009.586,1.207,1.105a.786.786,0,0,0-.729.567.4.4,0,0,1-.1.23c-.089.073-.23.03-.333.086-.178.1-.1.369-.121.574a2.75,2.75,0,0,1-.178.517A1.107,1.107,0,0,0,645.742,364.207Zm24.442,71.479c0-.105-.014-.21-.023-.314.021.055.041.112.062.168.178.471.38.934.59,1.392l-.036-.02a1.761,1.761,0,0,0-.487-.139.5.5,0,0,1-.135-.013,3.8,3.8,0,0,0,.029-1.071Z" transform="translate(-536.711 -298.056)"/><path class="i" d="M762.355,407.643c-.02.745-.271,1.465-.31,2.209,2.191.109,4.353-.954,6.524-.629a3.017,3.017,0,0,1-1.123-1.8,7.5,7.5,0,0,1-.214-2.759,1.127,1.127,0,0,1,.029-.153,3.9,3.9,0,0,0,.232-1.166c-.073-.378-.43-.3-.752-.282a28.343,28.343,0,0,0-2.925.378c-.251.043-2.709.656-2.745.592a11.551,11.551,0,0,1,1.069,2.191,4.255,4.255,0,0,1,.216,1.417Z" transform="translate(-631.646 -338.786)"/><path class="i" d="M645.758,394.69a3.209,3.209,0,0,0,.67.674c.166.137.337.276.515.4a2.2,2.2,0,0,0,1.1.446A2.918,2.918,0,0,0,650,395.5a1.286,1.286,0,0,0,.187-.749,3.4,3.4,0,0,0-.178-1.046,5.839,5.839,0,0,0-.845-1.529,4.508,4.508,0,0,0-1.358-1.358,5.17,5.17,0,0,0-.579-.267l-1.02-.417a.494.494,0,0,0-.178-.05c-.275,0-.324.421-.178.647.31.456,1.009.583,1.207,1.1a.783.783,0,0,0-.729.563.393.393,0,0,1-.1.228c-.089.073-.23.032-.333.086-.178.1-.1.367-.121.572a2.771,2.771,0,0,1-.178.513A1.094,1.094,0,0,0,645.758,394.69Z" transform="translate(-536.728 -328.132)"/><path class="j" d="M795.27,818.642c-.168-.178-.444-.141-.679-.1a25.209,25.209,0,0,1-3.823.31c-.16-.782.3-1.544.455-2.33a2.056,2.056,0,0,1,.151-.588,1.344,1.344,0,0,1,.968-.585c.69-.144,1.767-.4,2.151.294A10.449,10.449,0,0,1,795.27,818.642Z" transform="translate(-656.022 -677.456)"/><path class="k" d="M734.188,800.772a4,4,0,0,0,1.783.545,5.8,5.8,0,0,1,1.834.419,11.566,11.566,0,0,0,1.426.809,2.954,2.954,0,0,0,1.471.023,2.181,2.181,0,0,0,1.513-.822,2.528,2.528,0,0,0,.21-1.536c-.045-.594-.087-1.187-.132-1.783a.844.844,0,0,0-.111-.43c-.419-.613-1.44.255-1.987.255a3.831,3.831,0,0,1-2.419-1.045.777.777,0,0,0-.189-.143c-.246-.11-.494.094-.713.273l-.073.061a4.7,4.7,0,0,1-1.809.645,1.956,1.956,0,0,0-1.488,1.105.93.93,0,0,0-.03.118A1.544,1.544,0,0,0,734.188,800.772Z" transform="translate(-608.95 -662.547)"/><path class="l" d="M734.188,800.772a4,4,0,0,0,1.783.545,5.8,5.8,0,0,1,1.834.419,11.566,11.566,0,0,0,1.426.809,2.954,2.954,0,0,0,1.471.023,2.181,2.181,0,0,0,1.513-.822,2.528,2.528,0,0,0,.21-1.536c-.045-.594-.087-1.187-.132-1.783a.844.844,0,0,0-.111-.43c-.419-.613-1.44.255-1.987.255a3.831,3.831,0,0,1-2.419-1.045.777.777,0,0,0-.189-.143c-.246-.11-.494.094-.713.273l-.073.061a4.7,4.7,0,0,1-1.809.645,1.956,1.956,0,0,0-1.488,1.105.93.93,0,0,0-.03.118A1.544,1.544,0,0,0,734.188,800.772Z" transform="translate(-608.95 -662.547)"/><path class="m" d="M733.906,800.992a4,4,0,0,0,1.783.546,5.8,5.8,0,0,1,1.834.419,11.613,11.613,0,0,0,1.426.809,2.955,2.955,0,0,0,1.471.023,2.43,2.43,0,0,0,1.513-1.021,2.528,2.528,0,0,0,.21-1.537c-.045-.594-.087-1.187-.132-1.783a.843.843,0,0,0-.111-.43c-.419-.613-1.44.255-1.988.255a3.831,3.831,0,0,1-2.419-1.045.777.777,0,0,0-.189-.143c-.246-.11-.494.094-.713.273a5.1,5.1,0,0,0,.608,1.248,2.622,2.622,0,0,0,1.907,1.194,6.266,6.266,0,0,1,1.159.052c.374.1.713.481.59.847s-.586.431-.964.451a4.269,4.269,0,0,1-1.574-.109c-.307-.1-.586-.273-.891-.4-1.269-.535-2.872-.232-3.922-1.121a2.365,2.365,0,0,0-.321-.246C732.91,799.863,733.42,800.658,733.906,800.992Z" transform="translate(-608.668 -662.563)"/><path class="l" d="M733.906,800.992a4,4,0,0,0,1.783.546,5.8,5.8,0,0,1,1.834.419,11.613,11.613,0,0,0,1.426.809,2.955,2.955,0,0,0,1.471.023,2.43,2.43,0,0,0,1.513-1.021,2.528,2.528,0,0,0,.21-1.537c-.045-.594-.087-1.187-.132-1.783a.843.843,0,0,0-.111-.43c-.419-.613-1.44.255-1.988.255a3.831,3.831,0,0,1-2.419-1.045.777.777,0,0,0-.189-.143c-.246-.11-.494.094-.713.273a5.1,5.1,0,0,0,.608,1.248,2.622,2.622,0,0,0,1.907,1.194,6.266,6.266,0,0,1,1.159.052c.374.1.713.481.59.847s-.586.431-.964.451a4.269,4.269,0,0,1-1.574-.109c-.307-.1-.586-.273-.891-.4-1.269-.535-2.872-.232-3.922-1.121a2.365,2.365,0,0,0-.321-.246C732.91,799.863,733.42,800.658,733.906,800.992Z" transform="translate(-608.668 -662.563)"/><path class="n" d="M747.972,590.73a7.8,7.8,0,0,1-1.069,5.758,10.748,10.748,0,0,0-.87,1.394,6.425,6.425,0,0,0-.339,1.105l-.964,4a10.788,10.788,0,0,0-.444,3.28c.055.77.25,1.635-.225,2.244a1.6,1.6,0,0,0-.287.392,1,1,0,0,0,0,.519c.488,2.895.849,5.923-.032,8.724-.8,2.538-.843,5.348-1.522,7.925a1.755,1.755,0,0,1-.421.879,1.392,1.392,0,0,1-.633.3,4.66,4.66,0,0,1-2.988-.474c-.656-.3-1.362-.836-1.3-1.556a3.3,3.3,0,0,1,.356-.959,6.608,6.608,0,0,0,.357-1.98,39.645,39.645,0,0,1,1.091-4.954,11.834,11.834,0,0,0,.328-5.027,44,44,0,0,0-3.235-9.948,1.166,1.166,0,0,0-.3-.444,3.157,3.157,0,0,1-.419-.287,1.26,1.26,0,0,1-.191-.522,5.664,5.664,0,0,0-.87-1.372c-.734-1.166-.5-2.66-.474-4.036a27.837,27.837,0,0,1,.054-4.009,3.756,3.756,0,0,1,2.248-3.084,4.831,4.831,0,0,1,1.973-.093A38.437,38.437,0,0,1,747.972,590.73Z" transform="translate(-608.962 -491.139)"/><path class="l" d="M747.972,590.73a7.8,7.8,0,0,1-1.069,5.758,10.748,10.748,0,0,0-.87,1.394,6.425,6.425,0,0,0-.339,1.105l-.964,4a10.788,10.788,0,0,0-.444,3.28c.055.77.25,1.635-.225,2.244a1.6,1.6,0,0,0-.287.392,1,1,0,0,0,0,.519c.488,2.895.849,5.923-.032,8.724-.8,2.538-.843,5.348-1.522,7.925a1.755,1.755,0,0,1-.421.879,1.392,1.392,0,0,1-.633.3,4.66,4.66,0,0,1-2.988-.474c-.656-.3-1.362-.836-1.3-1.556a3.3,3.3,0,0,1,.356-.959,6.608,6.608,0,0,0,.357-1.98,39.645,39.645,0,0,1,1.091-4.954,11.834,11.834,0,0,0,.328-5.027,44,44,0,0,0-3.235-9.948,1.166,1.166,0,0,0-.3-.444,3.157,3.157,0,0,1-.419-.287,1.26,1.26,0,0,1-.191-.522,5.664,5.664,0,0,0-.87-1.372c-.734-1.166-.5-2.66-.474-4.036a27.837,27.837,0,0,1,.054-4.009,3.756,3.756,0,0,1,2.248-3.084,4.831,4.831,0,0,1,1.973-.093A38.437,38.437,0,0,1,747.972,590.73Z" transform="translate(-608.962 -491.139)"/><path class="n" d="M732.534,602.076a8.378,8.378,0,0,0,.178,1.547q.925,5.185,1.961,10.339c.062.3.121.6.2.891a7.247,7.247,0,0,0,1.335,2.626c2.906,3.62,3.157,8.879,4.733,13.244.105.3.212.592.324.891a22.1,22.1,0,0,0,.973,2.169.612.612,0,0,0,.2.258.6.6,0,0,0,.317.062,9.244,9.244,0,0,0,4.1-.932.849.849,0,0,0,.435-.357.869.869,0,0,0,.046-.417,5.817,5.817,0,0,0-.51-2.522,5.346,5.346,0,0,0-1.009-1.223,46.374,46.374,0,0,0-.987-8.093,11.032,11.032,0,0,0-1.474-3.875c-.581-.847-1.413-1.681-1.312-2.7.046-.449.234-1.007-.132-1.271-.159-.116-.4-.13-.5-.3a.545.545,0,0,1-.071-.253,6.282,6.282,0,0,1,.13-2.1,11.3,11.3,0,0,0,.312-1.365,1.714,1.714,0,0,0-.344-1.319c-.02-.932,0-1.9-.012-2.833a5.279,5.279,0,0,1,.132-1.581c.07-.244.178-.478.232-.727.2-.891-.29-1.961.289-2.674a3.93,3.93,0,0,1,.929-.656,3.4,3.4,0,0,0,1.276-1.834,10.136,10.136,0,0,0,.357-2.246,2.345,2.345,0,0,0,0-.487.908.908,0,0,0-.066-.242,1.477,1.477,0,0,0-1.094-.665,35.4,35.4,0,0,0-8.36-.977c-1.041-.713-1.628-.456-2.068.3a7.623,7.623,0,0,0-.59,1.438c-.2.608-.214,4.02-.41,4.635C731.8,599.616,732.534,601.241,732.534,602.076Z" transform="translate(-607.757 -494.093)"/><path class="k" d="M808.605,469.113a8.116,8.116,0,0,1-.21,1.6,6.074,6.074,0,0,0,.212,1.4,10.244,10.244,0,0,1-.966,5.389,2.725,2.725,0,0,0-.23.891,9.024,9.024,0,0,0,.4,1.638c.187,1.171-.677,2.273-.7,3.458a6.487,6.487,0,0,1,.027,1.629,5.6,5.6,0,0,1-.467.986c-.276.583-.357,1.248-.615,1.834a6.168,6.168,0,0,1-2.479,2.4,2.506,2.506,0,0,1-1.462-.9,2.238,2.238,0,0,1-.255-.8,20.47,20.47,0,0,1-.2-3.681,22.961,22.961,0,0,1,.167-3.171c.2-1.337.631-2.626.943-3.941a38.041,38.041,0,0,1,1.205-4.966,16.745,16.745,0,0,1,2.257-3.856c.335-.46.6-1.114,1.248-1.009A1.371,1.371,0,0,1,808.605,469.113Z" transform="translate(-665.002 -392.168)"/><path class="l" d="M808.605,469.113a8.116,8.116,0,0,1-.21,1.6,6.074,6.074,0,0,0,.212,1.4,10.244,10.244,0,0,1-.966,5.389,2.725,2.725,0,0,0-.23.891,9.024,9.024,0,0,0,.4,1.638c.187,1.171-.677,2.273-.7,3.458a6.487,6.487,0,0,1,.027,1.629,5.6,5.6,0,0,1-.467.986c-.276.583-.357,1.248-.615,1.834a6.168,6.168,0,0,1-2.479,2.4,2.506,2.506,0,0,1-1.462-.9,2.238,2.238,0,0,1-.255-.8,20.47,20.47,0,0,1-.2-3.681,22.961,22.961,0,0,1,.167-3.171c.2-1.337.631-2.626.943-3.941a38.041,38.041,0,0,1,1.205-4.966,16.745,16.745,0,0,1,2.257-3.856c.335-.46.6-1.114,1.248-1.009A1.371,1.371,0,0,1,808.605,469.113Z" transform="translate(-665.002 -392.168)"/><path class="f" d="M761.07,404.035a11.551,11.551,0,0,1,1.069,2.191,5.021,5.021,0,0,0,1.209.146,4.631,4.631,0,0,0,3.627-2.034c.08-.357.581-.7.524-.991-.073-.378-.43-.3-.752-.282a28.346,28.346,0,0,0-2.925.378C763.564,403.486,761.106,404.107,761.07,404.035Z" transform="translate(-631.646 -338.786)"/><circle class="i" cx="5.062" cy="5.062" r="5.062" transform="translate(126.632 57.324)"/><path class="f" d="M737.93,592.716c.875-.052,1.758-.018,2.636.018a9.169,9.169,0,0,1,1.638.168c.665.151,1.287.455,1.943.643a17.787,17.787,0,0,0,3.246.428,18.665,18.665,0,0,1,2.125.332.906.906,0,0,0-.066-.242,1.477,1.477,0,0,0-1.094-.665,35.4,35.4,0,0,0-8.36-.977C738.957,591.714,738.37,591.967,737.93,592.716Z" transform="translate(-612.631 -494.062)"/><path class="k" d="M731.593,432.27c.221.255.517.535.845.453a1.166,1.166,0,0,0,.328-.178,4.948,4.948,0,0,1,1.986-.569,29.183,29.183,0,0,0,4.1-.92,4.181,4.181,0,0,1,1.21-.246,2.923,2.923,0,0,1,2.155,1.248c.536.672.913,1.46,1.447,2.135.376.481.823.906,1.175,1.406a6.166,6.166,0,0,1,.847,4.438,18.022,18.022,0,0,1-1.442,4.385,15.118,15.118,0,0,1-1.178,2.376,5.665,5.665,0,0,1-.455,3.526,3.538,3.538,0,0,0-.46,1.048,2.646,2.646,0,0,0,.032.768l.258,1.832c.078.558.157,1.118.258,1.672a4.83,4.83,0,0,1-.032,3.03c-.563,1.1.029,2.508-.119,3.743a18.793,18.793,0,0,0-4.945-1.178,17.633,17.633,0,0,1-3.244-.424c-.656-.191-1.278-.494-1.943-.645a9,9,0,0,0-1.638-.168,19.48,19.48,0,0,0-3.634.082c-.1.014-.216.021-.275-.057a.262.262,0,0,1-.037-.143,2.427,2.427,0,0,1,.312-1.289,1.839,1.839,0,0,0,.357-.845,1.25,1.25,0,0,0-.105-.421l-.535-1.426c-.449-1.2-.235-2.588-.469-3.847a22.532,22.532,0,0,1-.357-2.975,3.724,3.724,0,0,1,.5-2.462,2.806,2.806,0,0,0,.389-.535,1.65,1.65,0,0,0,.093-.647q.016-2.561-.141-5.121c.449-.807.918-1.633,1.367-2.438a10.463,10.463,0,0,0,1.264-2.95c.139-.7.134-1.417.234-2.121a.923.923,0,0,1,.178-.494.9.9,0,0,1,.713-.214A3.148,3.148,0,0,1,731.593,432.27Z" transform="translate(-602.845 -361.602)"/><path class="f" d="M653.31,416.969a2.2,2.2,0,0,0,1.1.446,2.918,2.918,0,0,0,1.961-.713,1.286,1.286,0,0,0,.187-.749.919.919,0,0,0-.217-.041,5.7,5.7,0,0,0-1.7.068,1.913,1.913,0,0,0-1.319.989Z" transform="translate(-543.094 -349.331)"/><path class="k" d="M670.513,428.487a3.534,3.534,0,0,1-1.069,1.007,3.445,3.445,0,0,1-1.661.255,39.87,39.87,0,0,1-6.952-.763,4.362,4.362,0,0,1-.765-.2,4.058,4.058,0,0,1-.772-.483,9.735,9.735,0,0,1-2.091-1.822,6.149,6.149,0,0,1-1.239-3.039,4.967,4.967,0,0,1-1.105-1.9,2.873,2.873,0,0,1-.253-.923c-.014-.328.2-.672.143-.995a2.618,2.618,0,0,0-.8-1.444.535.535,0,0,1-.191-.255.4.4,0,0,1,.046-.246,1.9,1.9,0,0,1,1.317-.991,5.716,5.716,0,0,1,1.7-.068,3.95,3.95,0,0,1,.556.148l.4,1.043a1.344,1.344,0,0,0,.258.476,2.583,2.583,0,0,0,.282.219,1.6,1.6,0,0,1,.556,1.4,1.51,1.51,0,0,1,.891,1.865,1.783,1.783,0,0,1,1.3,1.148.87.87,0,0,0,.178.357.7.7,0,0,0,.456.141c.447.027.838.38,1.248.189a2.521,2.521,0,0,1,1.476-.207,1.11,1.11,0,0,0,.315.027.8.8,0,0,0,.258-.089,2.116,2.116,0,0,1,.586-.232.549.549,0,0,1,.556.216c.143-.155.228-.357.357-.521a.572.572,0,0,1,.535-.258c-.135-.119,0-.357.178-.4a2.378,2.378,0,0,1,.535.02c.469,0,.827-.428,1.282-.535.419-.1.975.02,1.191-.357.075-.132.091-.31.219-.392a.428.428,0,0,1,.284-.032,2.769,2.769,0,0,1,.854.258,11.964,11.964,0,0,1-.127,5.233A4.59,4.59,0,0,1,670.513,428.487Z" transform="translate(-543.456 -349.907)"/><path class="f" d="M745.577,515.189l2.18,4.4c-.235-.406-.733-.565-1.125-.825a2.991,2.991,0,0,1-1.07-1.444,8.911,8.911,0,0,1-.412-1.783,1.611,1.611,0,0,1,0-.923C745.393,514.664,745.474,514.983,745.577,515.189Z" transform="translate(-618.506 -430.465)"/><path class="f" d="M778.9,534.8a19.3,19.3,0,0,0,1.635,1.276,15.093,15.093,0,0,1,3.046,3.743,6.044,6.044,0,0,1,.622,1.134c-.1.089-.258,0-.357-.093l-1.711-1.5a3.8,3.8,0,0,1-.57-.578c-.3-.4-.43-.891-.7-1.319a5.189,5.189,0,0,0-1.041-1.069c-.392-.337-2.2-1.865-1.759-2.458C778.377,534.1,778.638,534.54,778.9,534.8Z" transform="translate(-645.554 -446.341)"/><path class="k" d="M757.492,427.235a5.079,5.079,0,0,1,1.813-.6,3.8,3.8,0,0,1,1.151-.082c.357.045.7.178,1.057.2a4.766,4.766,0,0,0,1.472-.308,1.769,1.769,0,0,1,1.458.109.617.617,0,0,0,.317.169.565.565,0,0,0,.328-.16,1.864,1.864,0,0,1,2.317.123c.929.87.823,2.57,1.911,3.23.3.178.684.278.859.583a2.1,2.1,0,0,0,.148.28.745.745,0,0,0,.262.178,5.2,5.2,0,0,1,.891.515,1.287,1.287,0,0,1,.515.866,1.624,1.624,0,0,1-.159.727,6.825,6.825,0,0,1-6.633,4.241,1.048,1.048,0,0,1-.7-.216,1.316,1.316,0,0,1-.244-.4c-.512-1.069-1.471-1.865-2.082-2.884-.357-.608-.6-1.287-.975-1.884a9.055,9.055,0,0,0-2.3-2.228,2.643,2.643,0,0,0-1.622-.726c-.535.023-.93.052-.733-.61A2.114,2.114,0,0,1,757.492,427.235Z" transform="translate(-627.89 -357.831)"/><path class="l" d="M757.492,427.235a5.079,5.079,0,0,1,1.813-.6,3.8,3.8,0,0,1,1.151-.082c.357.045.7.178,1.057.2a4.766,4.766,0,0,0,1.472-.308,1.769,1.769,0,0,1,1.458.109.617.617,0,0,0,.317.169.565.565,0,0,0,.328-.16,1.864,1.864,0,0,1,2.317.123c.929.87.823,2.57,1.911,3.23.3.178.684.278.859.583a2.1,2.1,0,0,0,.148.28.745.745,0,0,0,.262.178,5.2,5.2,0,0,1,.891.515,1.287,1.287,0,0,1,.515.866,1.624,1.624,0,0,1-.159.727,6.825,6.825,0,0,1-6.633,4.241,1.048,1.048,0,0,1-.7-.216,1.316,1.316,0,0,1-.244-.4c-.512-1.069-1.471-1.865-2.082-2.884-.357-.608-.6-1.287-.975-1.884a9.055,9.055,0,0,0-2.3-2.228,2.643,2.643,0,0,0-1.622-.726c-.535.023-.93.052-.733-.61A2.114,2.114,0,0,1,757.492,427.235Z" transform="translate(-627.89 -357.831)"/><path class="k" d="M745.388,824.885a2.835,2.835,0,0,0,1.362.6,24.779,24.779,0,0,0,3.387.417l1.107.085c1.07.082,2.16.164,3.244.169a22.346,22.346,0,0,0,3.989-.346.435.435,0,0,0,.317-.153.445.445,0,0,0,.048-.251,19.315,19.315,0,0,0-.494-4c-.125-.535-1.093.67-1.137.713a1.1,1.1,0,0,1-.879.467,5.85,5.85,0,0,1-3.246-1.219,4.091,4.091,0,0,0-.6-.373,1.822,1.822,0,0,0-.487-.139,2.945,2.945,0,0,0-1.656.337c-.667.33-1.248.8-1.907,1.143a5.366,5.366,0,0,1-1.709.535c-.6.082-1.323.123-1.633.645h0A1.16,1.16,0,0,0,745.388,824.885Z" transform="translate(-618.421 -682.11)"/><path class="m" d="M745.055,825.115a2.817,2.817,0,0,0,1.362.6,24.506,24.506,0,0,0,3.387.419l1.107.086c1.07.082,2.16.164,3.244.169a22.339,22.339,0,0,0,3.989-.346.435.435,0,0,0,.317-.153,1.784,1.784,0,0,0,.248-.451,19.617,19.617,0,0,0-.692-4.005c-.125-.535-1.093.67-1.137.713a1.1,1.1,0,0,1-.879.467,5.849,5.849,0,0,1-3.246-1.219,4.11,4.11,0,0,0-.6-.373,1.832,1.832,0,0,0-.487-.139,3.982,3.982,0,0,0,1.886,2.064c1.2.6,2.626.3,3.964.369a.536.536,0,0,1,.28.068.567.567,0,0,1,.166.526c-.011.319-.052.7-.33.857a.96.96,0,0,1-.444.093,62.724,62.724,0,0,1-9.884-.357,5.384,5.384,0,0,1-1.6-.356,4.237,4.237,0,0,1-.934-.6C744.339,823.891,744.69,824.775,745.055,825.115Z" transform="translate(-618.088 -682.141)"/><path class="k" d="M755.545,367.586c.02.522-.339,1.538.64,1.248.585-.169.749-.859,1.488-.713s.911,1.069,1.162,1.663a3.188,3.188,0,0,0,2.307,1.865,1.388,1.388,0,0,0,.635,0,1.709,1.709,0,0,0,.945-1.086,8.263,8.263,0,0,0,.419-1.191,5.04,5.04,0,0,0,.152-.875h0a3.994,3.994,0,0,0,0-.6,4.9,4.9,0,0,0-1.635-3.1,14.63,14.63,0,0,0-2.961-2,4.3,4.3,0,0,0-1.091-.487,3.625,3.625,0,0,0-1.153-.048,4.043,4.043,0,0,0-1.467.344,2.052,2.052,0,0,0-.517.357,1.552,1.552,0,0,0-.447.747,2.742,2.742,0,0,0,.7,2.07A3.826,3.826,0,0,1,755.545,367.586Z" transform="translate(-625.819 -305.253)"/><path class="f" d="M670.35,443.766c.209-.535,1.087-1.986.834-2.5a6.674,6.674,0,0,0-.67,1.2C670.348,442.881,670.484,443.429,670.35,443.766Z" transform="translate(-557.097 -370.198)"/><path class="f" d="M754.57,368.752a2.73,2.73,0,0,1-.7-2.07,1.6,1.6,0,0,1,.57-.852,1.362,1.362,0,0,0-.144.357,2.733,2.733,0,0,0,.7,2.07,3.677,3.677,0,0,1,.82,1.783c.02.524-.339,1.54.642,1.248.583-.169.747-.861,1.488-.713s.909,1.07,1.16,1.663a3.185,3.185,0,0,0,2.307,1.863,1.387,1.387,0,0,0,.635,0,.938.938,0,0,0,.3-.146,1.3,1.3,0,0,1-.724.64,1.388,1.388,0,0,1-.635,0,3.191,3.191,0,0,1-2.308-1.865c-.25-.6-.414-1.506-1.16-1.663s-.906.535-1.488.713c-.98.283-.622-.733-.642-1.248A3.612,3.612,0,0,0,754.57,368.752Z" transform="translate(-625.694 -308.205)"/><path class="f" d="M755.366,364.8a4.527,4.527,0,0,0,.3.43,5.15,5.15,0,0,0,.692.713c.15.13.3.251.467.367a7.465,7.465,0,0,0,.945.563,17.221,17.221,0,0,0,3.03,1.084l2.021.588c.248.178.7.526,1.2.877a5.057,5.057,0,0,0,.151-.875h0a4.026,4.026,0,0,0,0-.6,4.9,4.9,0,0,0-1.635-3.1,14.632,14.632,0,0,0-2.961-2,4.3,4.3,0,0,0-1.091-.487,3.627,3.627,0,0,0-1.153-.048,4.044,4.044,0,0,0-1.467.344,2.053,2.053,0,0,0-.517.357,1.979,1.979,0,0,0-.258.547A1.553,1.553,0,0,0,755.366,364.8Z" transform="translate(-626.699 -305.294)"/><path class="g" d="M755.369,359.637a4.505,4.505,0,0,0,.3.428,4.961,4.961,0,0,0,.692.713,5.428,5.428,0,0,0,.465.371,7.7,7.7,0,0,0,.945.565,17.51,17.51,0,0,0,3.03,1.084l2.021.586c.713.535,3.066,2.283,3.462,2.064.469-.257-2.094-2.071-2.094-2.071l-.118.089a1.878,1.878,0,0,0,.656-1.248,6.336,6.336,0,0,0,.021-2.563,3.029,3.029,0,0,0-1.471-2.023,3.518,3.518,0,0,1-1-.561.682.682,0,0,1-.1-.13.453.453,0,0,1-.039-.07.915.915,0,0,0-.107-.209c-.141-.162-.4-.114-.608-.087h-.068a.843.843,0,0,1-.116,0c-.759.018-1.5-.4-2.264-.4a5.8,5.8,0,0,0-2.3.818c-.15.068-.292.13-.426.193a1.839,1.839,0,0,0-1.159,1.225A1.538,1.538,0,0,0,755.369,359.637Z" transform="translate(-626.703 -300.267)"/><path class="f" d="M789.576,358.435a.37.37,0,0,0-.046.178.357.357,0,0,0,.127.273.626.626,0,0,0,.319.112,2.322,2.322,0,0,0,.25.02.668.668,0,0,0,.328-.055.387.387,0,0,0,.057-.037.678.678,0,0,1-.1-.13c-.02.014-.039.011-.114,0a1.879,1.879,0,0,1-.41-.07.471.471,0,0,1-.153-.075.449.449,0,0,1-.144-.221Z" transform="translate(-655.033 -302.124)"/><path class="f" d="M800.05,396.465a.962.962,0,0,1-.356.13,1.4,1.4,0,0,1-.271.043,1.5,1.5,0,0,1-.663-.178" transform="translate(-662.618 -333.375)"/><rect class="o" width="9.221" height="4.524" transform="translate(35.879 60.787)"/><rect class="o" width="9.221" height="4.524" transform="translate(35.879 73.488)"/><rect class="o" width="9.221" height="4.524" transform="translate(35.879 86.188)"/><rect class="o" width="9.221" height="4.524" transform="translate(35.879 98.889)"/><path class="p" d="M217.147,381.674c.257-.164.155-.6-.111-.752a1.293,1.293,0,0,0-.891-.043.356.356,0,0,0-.191-.383v-.066a.475.475,0,0,0-.1-.676,1.362,1.362,0,0,0-.831-.146,1.1,1.1,0,0,0-.357-.939.294.294,0,0,0-.193-.093c-.166,0-.221.223-.234.389a7.674,7.674,0,0,1-.214,1.285l-5.4,9.05c-.6.87,1.269-1.733.667-.863a7.794,7.794,0,0,1-1.07,1.323,5.255,5.255,0,0,1-1.2.8,1.415,1.415,0,0,1-.822-.232,3.323,3.323,0,0,1-.79-.783,15.436,15.436,0,0,1-1.275-1.895,2.379,2.379,0,0,1-.292-.677,6.221,6.221,0,0,0-.15-1.134,1.759,1.759,0,0,0-.232-.369l-.373-.5a.088.088,0,0,1,0-.021,2.8,2.8,0,0,0-1.194-1.783,3.242,3.242,0,0,0-1.6-.925c-.335-.043-.677.021-1.012-.021-.273-.034-.535-.137-.8-.178a3.525,3.525,0,0,0-.788-.016l-.112-.1a3.13,3.13,0,0,0,1.408-1.184c.258-.417.4-.891.636-1.324.291-.522.713-.954,1.05-1.455a5.378,5.378,0,0,0,.606-4.1,9.857,9.857,0,0,0-1.922-3.765,7.4,7.4,0,0,0-7.11-2.538c-.178.027-.357.061-.526.1a6.663,6.663,0,0,0-1.292.414,3.278,3.278,0,0,0-1.41,1.1,2.384,2.384,0,0,0-.246.456,2.613,2.613,0,0,0-.119.374,3.871,3.871,0,0,0-.064,1.176c.011.134.025.269.041.4a1.552,1.552,0,0,0,.025.2c.018.134.037.269.055.4.029.2.055.4.075.6a3.759,3.759,0,0,1,.021.424v.105a1.67,1.67,0,0,1-.046.312,1.6,1.6,0,0,1-.052.164,2.067,2.067,0,0,1-.246.453,6.055,6.055,0,0,1-.44.535l-.152.178-.15.178a6.222,6.222,0,0,0-.544.736,3.5,3.5,0,0,0-.216.4,2.956,2.956,0,0,0-.121.324,2.337,2.337,0,0,0-.094.451c0,.039-.009.077-.011.116a1.949,1.949,0,0,0,0,.228,1.575,1.575,0,0,0,.025.225,1.723,1.723,0,0,0,.132.433c0,.02.02.039.029.057s.02.037.029.057.037.077.055.114a.83.83,0,0,1,.057.178v.062a.414.414,0,0,1,0,.066.713.713,0,0,1-.257.444c-.034.032-.071.062-.107.093l-.055.045-.112.089-.109.087a2.137,2.137,0,0,0-.262.262,9.659,9.659,0,0,0-2.913.285,3.976,3.976,0,0,1-1.046.189.52.52,0,0,1-.453-.191.684.684,0,0,1-.046-.415,3.584,3.584,0,0,0-.278-1.706.959.959,0,0,0-.28-.406.4.4,0,0,0-.462-.025,4.349,4.349,0,0,1-.119,2.9,9.577,9.577,0,0,1-.67,1.258c-.4.676-.62,1.449-.973,2.15a30.281,30.281,0,0,1,.515,4.148,19.17,19.17,0,0,0,1.093,3.743,6.019,6.019,0,0,0,1.447,2.529,1.328,1.328,0,0,0,.891.389,1.574,1.574,0,0,0,.7-.264,2.727,2.727,0,0,0,.59-.435,1.344,1.344,0,0,0,.178-.232.873.873,0,0,0,.13.328c.424-.914.891-1.809,1.39-2.684a2.3,2.3,0,0,0,.417-.285c.009.03.016.062.023.094-.021.084-.043.169-.066.253s-.048.16-.073.239-.036.118-.055.178-.046.139-.071.209l-.086.226c-.021.053-.041.107-.064.16-.053.13-.109.26-.169.389a1.172,1.172,0,0,0,.148.061l.034.011a1.288,1.288,0,0,0,.137.034h.05l.1.011h.162a1.636,1.636,0,0,0,.367-.064c.023.093.045.187.068.28a9.966,9.966,0,0,1,.335,1.909,14.981,14.981,0,0,0,.045,2.192c.073.373.217.731.269,1.109a4.606,4.606,0,0,1-.02,1.07l-.242,2.563a2.191,2.191,0,0,1-.219.9c-.121.209-.316.447-.194.654a4.249,4.249,0,0,1,.611-.118c-.075.273-.143.545-.207.82a1.442,1.442,0,0,0-.048.633,4.021,4.021,0,0,1,.178.579,1.869,1.869,0,0,1-.307.879,3.044,3.044,0,0,0,.344,2.317l.959,2.176q.392.891.788,1.783c.234.535.469,1.07.693,1.6a51.959,51.959,0,0,1,2.51,7.524.881.881,0,0,0,.128.326c.134.178.374.23.57.339a1.064,1.064,0,0,1,.118,1.7c.112,1.308-.868,2.572-1.373,3.784-1.162,2.786-.952,5.925-1.351,8.913l.451-.264a.591.591,0,0,1,.146.1c-.011.055-.021.111-.036.168a2.654,2.654,0,0,1-.291.724,3.879,3.879,0,0,0-.724,1.373,8.39,8.39,0,0,0,.057.941v.087c-.039-.039-.1-.036-.193.036a1.144,1.144,0,0,0-.283.535c-.078.223-.141.451-.2.679l-.219.806a9.345,9.345,0,0,1-.471,1.415,5.95,5.95,0,0,0-.417.963,2.975,2.975,0,0,0-.073.825,2.511,2.511,0,0,0,.114.781,1.945,1.945,0,0,0,1.139,1.082,5.347,5.347,0,0,0,1.583.3,1.351,1.351,0,0,0,.415-.011,1.141,1.141,0,0,0,.4-.21,3.354,3.354,0,0,0,1.178-2.442,3.534,3.534,0,0,0-.1-.554c.045-.989-.1-1.984-.023-2.97.014.112.032.223.048.335l.178,1.107a.234.234,0,0,0-.061-.1,2.551,2.551,0,0,0-.064,1.269,7.43,7.43,0,0,0,.356,1.23l.237.661a1.185,1.185,0,0,0,1.107.934,8.969,8.969,0,0,0,2,.34.459.459,0,0,0,.264-.048,1.512,1.512,0,0,0,.118-.1,1.083,1.083,0,0,1,.193-.112,1.259,1.259,0,0,0,.611-.724,1.146,1.146,0,0,0-.112-.938,2.152,2.152,0,0,0-.271-.328l-1.189-1.26a6.829,6.829,0,0,0-.583-.617.217.217,0,0,0-.191-.064,6.125,6.125,0,0,1-.225-2.635c.016-.264.16-.813.219-1.262a2.009,2.009,0,0,0,.631-.34.966.966,0,0,0,.357-.535,91.828,91.828,0,0,1,2.478-9.025c.089-.294.178-.59.266-.891l.111-.378c.029-.1.061-.207.089-.31.05-.178.1-.348.144-.522.014-.046.027-.094.039-.141a.166.166,0,0,0,0-.029c.059-.214.114-.428.169-.642l.064-.246c.07-.273.135-.547.2-.82.009-.037.018-.077.025-.116a.5.5,0,0,0-.02-.291h0a.477.477,0,0,0-.07-.1c-.018-.021-.039-.045-.061-.066l-.066-.073a.657.657,0,0,1-.121-.228v-.25c0-.082-.011-.178-.016-.266a2.713,2.713,0,0,1,.078-.346c.02-.068.043-.135.064-.2s.052-.178.08-.253a.633.633,0,0,0,.159-.43c.107-.269.225-.535.356-.791a2.408,2.408,0,0,0,.319-.856,3.421,3.421,0,0,0-.1-.813,6.876,6.876,0,0,1,.734-3.308,14.691,14.691,0,0,0,.647-2.428,5.143,5.143,0,0,1,.535-1.852,2.78,2.78,0,0,0,.285-.492,1.976,1.976,0,0,0,.077-.561,6.157,6.157,0,0,1,.547-2.223,1.308,1.308,0,0,0,.143-.431.179.179,0,0,0,0-.03v-.043l.089-.012a11.822,11.822,0,0,0,.2-2.993,4.576,4.576,0,0,0-1.529-2.889h.018a.939.939,0,0,0,.437-.848,1.651,1.651,0,0,0-.615-1.294.629.629,0,0,1-.209-.214.65.65,0,0,1-.025-.282,1.437,1.437,0,0,0-.891-1.33.328.328,0,0,1-.144-.084.357.357,0,0,1-.036-.253,1.556,1.556,0,0,0-.75-1.426,2.444,2.444,0,0,0,.032-1.128.842.842,0,0,0-.825-.642c.307-.836-.128-1.766-.012-2.649.05-.378.2-.742.221-1.123a2.312,2.312,0,0,1,.1-1.023c.169-.31.569-.535.465-.863-.045-.143-.178-.239-.235-.378s.178-.357.308-.271c.059-.045.118-.093.178-.141a2.914,2.914,0,0,0,.105.522c.084.285.216.554.3.838a6.942,6.942,0,0,0,.4,1.3c.357.635,1.082.948,1.581,1.476.292.308.5.688.8.989a4.438,4.438,0,0,0,.749.561l1.6,1.041a1.818,1.818,0,0,0,.549.273.938.938,0,0,0,1.105-.795,1.052,1.052,0,0,1-.4-.244.147.147,0,0,0,.068-.011,2.539,2.539,0,0,0,1.034-.549,14.006,14.006,0,0,0,2.77-3.378c.841-1.282,4.895-4.674,4.895-4.674v-1.376a4.965,4.965,0,0,0,1.349-1.148,1.488,1.488,0,0,0,.339-.879.774.774,0,0,0-.472-.774Zm-33.7,3.3q-.118.749-.287,1.49a14.485,14.485,0,0,1-.479,1.683c-.021.057-.043.116-.062.178-.059-.107-.116-.214-.168-.323-.132-.273-.237-.558-.342-.841l-.67-1.809a.835.835,0,0,1-.045-.722.809.809,0,0,1,.383-.287,7.646,7.646,0,0,1,1.471-.5,4.321,4.321,0,0,0,.474-.125A7.073,7.073,0,0,0,183.447,384.97Zm.742-2.257a.273.273,0,0,1,0-.262.58.58,0,0,1,.178-.121.353.353,0,0,0,.05-.036Zm1.39-1.961a3.465,3.465,0,0,0-.535.549,5.635,5.635,0,0,0-.46.713.517.517,0,0,0-.191-.526,1.083,1.083,0,0,1-.178-.118.365.365,0,0,1,.073-.512,1.07,1.07,0,0,1,.535-.178l.8-.118c-.011.052-.027.118-.045.18Zm7.512,58.215a2.924,2.924,0,0,0-.046-.713c.1,0,.2,0,.3-.009Z" transform="translate(-153.257 -309.541)"/><path class="n" d="M214.009,370.426c-1.392.223-2.941.759-3.474,2.064a6.682,6.682,0,0,0,.012,3.157,2.413,2.413,0,0,1-.03.84,2.943,2.943,0,0,1-.736,1.155,6.141,6.141,0,0,0-1.061,1.485,2.178,2.178,0,0,0-.071,1.783,1.31,1.31,0,0,1,.178.467c.016.356-.357.592-.642.824-1.045.865-1,2.44-1.009,3.8a19.209,19.209,0,0,1-1.816,8.021,2.453,2.453,0,0,0,2.745-.357,9.166,9.166,0,0,1-.624,1.8,1.971,1.971,0,0,0,2.394-1.151,20.9,20.9,0,0,0,.811-2.827c.316-.93.875-1.74,1.114-2.674a2.465,2.465,0,0,1,.317-.891,2.334,2.334,0,0,1,.556-.474,5.426,5.426,0,0,0,1.961-2.674,10.86,10.86,0,0,0,3.291.38,3.653,3.653,0,0,0,2.813-1.544c.258-.417.4-.891.636-1.323.291-.522.713-.954,1.05-1.453a5.374,5.374,0,0,0,.6-4.1,9.838,9.838,0,0,0-1.92-3.761A7.375,7.375,0,0,0,214.009,370.426Z" transform="translate(-174.992 -311.892)"/><path class="g" d="M200.355,458q-.118.749-.285,1.487a14.357,14.357,0,0,1-.48,1.681,1.6,1.6,0,0,0-.152.774,1.39,1.39,0,0,0,.187.46c.635,1.128,1.492,2.219,1.565,3.513a1.854,1.854,0,0,0,.178.938q.738-1.583,1.626-3.089a9.563,9.563,0,0,0,1.487-3.319,6.285,6.285,0,0,0-.023-1.706,3.7,3.7,0,0,0-.611-1.793c-.421-.551-1.574-1.38-2.317-1.208C200.647,455.942,200.466,457.291,200.355,458Z" transform="translate(-170.125 -382.065)"/><path class="i" d="M330.275,445.192a5.816,5.816,0,0,0,3.41-2.629l1.961-2.829a5.1,5.1,0,0,0,1.041-2.185,7.2,7.2,0,0,0,1.961-4.442c.014-.166.07-.383.235-.387a.3.3,0,0,1,.193.091,1.1,1.1,0,0,1,.356.939,1.3,1.3,0,0,1,.829.144c.232.166.294.581.045.713a.356.356,0,0,1,.25.4,1.292,1.292,0,0,1,.891.041c.264.15.367.588.111.752a.775.775,0,0,1,.5.743,1.485,1.485,0,0,1-.339.877c-.75,1.007-2.078,1.415-2.948,2.317A7,7,0,0,0,338,440.77l-2.524,3.84a13.824,13.824,0,0,1-2.77,3.374,2.542,2.542,0,0,1-1.032.549,1.144,1.144,0,0,1-1.084-.3,1.776,1.776,0,0,1-.316-1.08C330.206,446.511,330.318,445.843,330.275,445.192Z" transform="translate(-277.621 -363.172)"/><path class="n" d="M262.03,791.942a2.156,2.156,0,0,1,.269.328,1.143,1.143,0,0,1,.114.936,1.271,1.271,0,0,1-.611.724,1.079,1.079,0,0,0-.193.111,1.508,1.508,0,0,1-.118.1.474.474,0,0,1-.264.05,9.175,9.175,0,0,1-2-.341,1.6,1.6,0,0,1-.824-.387,1.584,1.584,0,0,1-.282-.547l-.237-.66a7.643,7.643,0,0,1-.357-1.228,2.542,2.542,0,0,1,.064-1.267.381.381,0,0,1,.087.258,2.871,2.871,0,0,0,.508,1.23.986.986,0,0,0,.791.5,7.382,7.382,0,0,0,1.266.162.378.378,0,0,0,.178-.021.309.309,0,0,0,.144-.178.769.769,0,0,0,0-.521c-.112-.321-.428-.535-.579-.838-.111-.226.045-.474.273-.283a7.046,7.046,0,0,1,.583.615Z" transform="translate(-217.823 -656.569)"/><path class="i" d="M259.4,765.265a5.021,5.021,0,0,0,.467,3.1c.209.321.488.59.727.891a1.058,1.058,0,0,1,.26.535.824.824,0,0,1-.713.8,2.4,2.4,0,0,1-1.15-.166,2.105,2.105,0,0,1-1.717-2.255l-.237-1.521a4.826,4.826,0,0,1-.086-1.107,4.9,4.9,0,0,1,.3-1.2l.39-1.143a.535.535,0,0,1,.178-.283.5.5,0,0,1,.3-.055c.374.02,1.314.155,1.5.551C259.761,763.759,259.428,764.855,259.4,765.265Z" transform="translate(-217.387 -634.462)"/><path class="l" d="M259.4,765.265a5.021,5.021,0,0,0,.467,3.1c.209.321.488.59.727.891a1.058,1.058,0,0,1,.26.535.824.824,0,0,1-.713.8,2.4,2.4,0,0,1-1.15-.166,2.105,2.105,0,0,1-1.717-2.255l-.237-1.521a4.826,4.826,0,0,1-.086-1.107,4.9,4.9,0,0,1,.3-1.2l.39-1.143a.535.535,0,0,1,.178-.283.5.5,0,0,1,.3-.055c.374.02,1.314.155,1.5.551C259.761,763.759,259.428,764.855,259.4,765.265Z" transform="translate(-217.387 -634.462)"/><path class="n" d="M269.868,587.409a.178.178,0,0,1,0,.03,1.336,1.336,0,0,1-.143.431,6.174,6.174,0,0,0-.547,2.219,1.963,1.963,0,0,1-.077.56,2.782,2.782,0,0,1-.285.492,5.292,5.292,0,0,0-.535,1.85,14.437,14.437,0,0,1-.647,2.424,6.892,6.892,0,0,0-.733,3.3,3.388,3.388,0,0,1,.1.811,2.408,2.408,0,0,1-.319.856c-.132.257-.25.521-.357.79s-.216.586-.3.891a1.187,1.187,0,0,0,.066,1.087,1.394,1.394,0,0,1,.2.241.634.634,0,0,1,0,.41q-.2.87-.442,1.733c-.121.453-.25.9-.383,1.351-.977,3.283-2.084,6.533-2.741,9.9-.094.483-.713.831-1.2.936a1.572,1.572,0,0,1-1.374-.367l-.094-.094a2.858,2.858,0,0,1-.535-2.128c.178-3.46,1.913-6.627,2.742-9.991a19.139,19.139,0,0,0,.535-3.709c.194-4.178.271-8.592-.909-12.6a3.253,3.253,0,0,1-.1-2.526,2.53,2.53,0,0,1,1.307-.955,8.407,8.407,0,0,1,6.519.166,2.356,2.356,0,0,1-.009.251,2.554,2.554,0,0,0,.13,1.152A1.437,1.437,0,0,1,269.868,587.409Z" transform="translate(-219.492 -488.118)"/><path class="n" d="M231.909,776.489l-.219.8a9.282,9.282,0,0,1-.471,1.415,6.028,6.028,0,0,0-.417.961,2.969,2.969,0,0,0-.071.824,2.459,2.459,0,0,0,.114.781,1.938,1.938,0,0,0,1.137,1.08,5.349,5.349,0,0,0,1.583.3,1.354,1.354,0,0,0,.415-.011,1.148,1.148,0,0,0,.4-.21,3.35,3.35,0,0,0,1.178-2.438,3.029,3.029,0,0,0-.125-.622c-.057-.077-.611.237-.374.5.357.389-.677.187-1.2.155a4.834,4.834,0,0,1-.677-.112l-.847-.178c-.276-.061-.6-.155-.693-.421s.116-.581.283-.838a5.488,5.488,0,0,0,.658-2.328c.02-.159.217-1.185-.191-.866a1.145,1.145,0,0,0-.283.535C232.034,776.034,231.971,776.262,231.909,776.489Z" transform="translate(-195.837 -644.618)"/><path class="l" d="M266.088,675.835a1.2,1.2,0,0,1-.066-1.087c.039-.135.082-.271.127-.4l-3.321-1.123c-.012.3-.025.6-.039.891a19.179,19.179,0,0,1-.535,3.711c-.829,3.362-2.572,6.529-2.741,9.982a2.765,2.765,0,0,0,.635,2.223,1.57,1.57,0,0,0,1.374.367c.481-.105,1.1-.453,1.2-.938.658-3.362,1.763-6.611,2.742-9.9q.458-1.529.825-3.084a.629.629,0,0,0,0-.408A1.247,1.247,0,0,0,266.088,675.835Z" transform="translate(-219.485 -560.802)"/><path class="i" d="M235.668,755.515a3.857,3.857,0,0,0-.724,1.371,8.329,8.329,0,0,0,.057.939,2.975,2.975,0,0,1-.137.767q-.485,1.752-1.118,3.456a.942.942,0,0,0-.087.469.816.816,0,0,0,.549.547,5.8,5.8,0,0,0,2.54.28,1.33,1.33,0,0,0,.713-.166,1.246,1.246,0,0,0,.4-1c.059-1.069-.123-2.16,0-3.233.043-.39.125-.775.187-1.164a3.416,3.416,0,0,0-.05-1.622,3.789,3.789,0,0,0-.608-1.021,3.187,3.187,0,0,0-.845-.841c-.1-.061-.389-.244-.49-.128-.052.059-.029.216-.037.289a2.689,2.689,0,0,1-.059.335A2.736,2.736,0,0,1,235.668,755.515Z" transform="translate(-198.245 -627.289)"/><path class="l" d="M263.242,588.667a.911.911,0,0,0-.061.756c.111.46.294.891.444,1.348a18.638,18.638,0,0,1,.57,2.449,7.163,7.163,0,0,1,.314,2.335,16.693,16.693,0,0,1,1.765,5.526c.068.5-1.034,1.137-1.012,1.638.041.993.834,1.07.248,1.868-.029.039.219.927.178.966-.239.287-.535.515-.8.784a6.033,6.033,0,0,0-.84,1.232c-1.515,2.733-3.7,5.834-3.03,8.886a.535.535,0,0,1-.289.549,1.446,1.446,0,0,1-.64.148h-.105a2.858,2.858,0,0,1-.535-2.128c.178-3.46,1.913-6.627,2.741-9.991a19.142,19.142,0,0,0,.535-3.709c.194-4.178.271-8.592-.909-12.6a3.254,3.254,0,0,1-.1-2.526,2.53,2.53,0,0,1,1.307-.956,8.406,8.406,0,0,1,6.519.166,2.358,2.358,0,0,1-.009.251,2.554,2.554,0,0,0,.13,1.151,1.437,1.437,0,0,1,.13.5c0,.011.061-.672.059-.663-1.356.2-2.772,1.084-4.128,1.278a9.487,9.487,0,0,0-2.071.456A.928.928,0,0,0,263.242,588.667Z" transform="translate(-219.434 -488.027)"/><path class="n" d="M224.472,559.815q-.276.87-.481,1.758a1.46,1.46,0,0,0-.05.631,3.613,3.613,0,0,1,.178.579,1.866,1.866,0,0,1-.3.879,3.022,3.022,0,0,0,.342,2.307l.959,2.176.788,1.782c.234.535.469,1.061.693,1.6a51.82,51.82,0,0,1,2.508,7.513.908.908,0,0,0,.128.328c.134.178.374.228.57.337a1.063,1.063,0,0,1,.118,1.7c.112,1.307-.868,2.569-1.373,3.779-1.16,2.782-.95,5.918-1.349,8.913l.451-.262c.433.2.417.811.651,1.226a1.964,1.964,0,0,0,1.918.665,1.46,1.46,0,0,0,.64-.148.535.535,0,0,0,.289-.549c-.674-3.052,1.513-6.151,3.03-8.888a5.936,5.936,0,0,1,.84-1.23c.257-.271.558-.5.8-.784a4.325,4.325,0,0,0,.713-2.977,16.675,16.675,0,0,0-1.9-7.03,7.348,7.348,0,0,0-.314-2.333,18.481,18.481,0,0,0-.569-2.442c-.15-.451-.333-.891-.444-1.349a.719.719,0,0,1,.488-1.032,9.529,9.529,0,0,1,2.075-.471l4.663-.67a11.8,11.8,0,0,0,.2-2.989,4.6,4.6,0,0,0-3.287-3.847.7.7,0,0,0-.61.039,24.275,24.275,0,0,0-12.362.8Z" transform="translate(-190.056 -466.584)"/><path class="i" d="M236.361,413.719a2.3,2.3,0,0,1-.2,1.335,2.1,2.1,0,0,1-.535.586,4,4,0,0,1-1.537.765,1.632,1.632,0,0,0-.92.4c-.328.4-.109.993.178,1.426a3.725,3.725,0,0,0,2.016,1.667c.688.187,1.426.071,2.125.194.51.087.989.3,1.492.419a4.408,4.408,0,0,0,4.048-1.13,5.777,5.777,0,0,1-1.909-2.043,2.9,2.9,0,0,1-.146-1.961,4.37,4.37,0,0,0,.458-1.907,1.984,1.984,0,0,0-1.4-1.317,9.024,9.024,0,0,0-1.756-.357c-.33-.045-2.417-.506-2.547-.278-.073.128.357.891.414,1.059A3.993,3.993,0,0,1,236.361,413.719Z" transform="translate(-197.706 -345.698)"/><circle class="i" cx="4.235" cy="4.235" r="4.235" transform="translate(37.045 61.073)"/><path class="g" d="M214.892,441.6l2.872.485a10.875,10.875,0,0,0,2.139.216,5.955,5.955,0,0,1,1.182,0c.271.045.535.148.8.178.335.043.676-.021,1.011.021a3.192,3.192,0,0,1,1.6.923,2.82,2.82,0,0,1,1.193,1.783.5.5,0,0,1-.034.246.722.722,0,0,1-.212.223,6.679,6.679,0,0,0-1.2,1.651,6.4,6.4,0,0,1-1.426,1.538c-.125-.08-.356.132-.308.269s.191.235.235.378c.1.324-.3.563-.465.861a2.344,2.344,0,0,0-.1,1.023c-.02.38-.178.743-.221,1.121-.116.882.319,1.811.012,2.645a.837.837,0,0,1,.825.642,2.413,2.413,0,0,1-.034,1.127,1.551,1.551,0,0,1,.75,1.417.341.341,0,0,0,.037.253.357.357,0,0,0,.144.084,1.426,1.426,0,0,1,.891,1.328.64.64,0,0,0,.027.28.627.627,0,0,0,.207.216,1.651,1.651,0,0,1,.617,1.291.933.933,0,0,1-.439.849,7.77,7.77,0,0,1-1.929.574,16.551,16.551,0,0,1-1.866.33,16.8,16.8,0,0,1-1.747.055l-3.843-.016c-1.07,0-2.16,0-3.237-.08a9.141,9.141,0,0,0-3.007.07c-.121-.2.073-.446.194-.652a2.2,2.2,0,0,0,.219-.9l.242-2.56a4.707,4.707,0,0,0,.018-1.069c-.052-.376-.194-.733-.267-1.107a14.912,14.912,0,0,1-.045-2.189,10.256,10.256,0,0,0-.335-1.907l-.749-3.127a11.184,11.184,0,0,0-.374-1.57q-.881-2.257-1.841-4.476a.472.472,0,0,1,.034-.4l.635-1.137a7.215,7.215,0,0,1,.581-.927,3.651,3.651,0,0,1,2.139-1.316,3.777,3.777,0,0,1,2.5.369c.3.159.57.357.872.5A3.518,3.518,0,0,0,214.892,441.6Z" transform="translate(-175.854 -369.297)"/><path class="g" d="M301.576,463.85l1,1.333a1.859,1.859,0,0,1,.232.369,6.133,6.133,0,0,1,.15,1.134,2.389,2.389,0,0,0,.292.676,15.339,15.339,0,0,0,1.273,1.893,3.29,3.29,0,0,0,.791.781,1.3,1.3,0,0,0,1.07.189.661.661,0,0,0-.357.317,3.87,3.87,0,0,0-.248,2.478,2.59,2.59,0,0,0,.278.811,1.214,1.214,0,0,0,.638.551.939.939,0,0,1-1.105.793,1.861,1.861,0,0,1-.549-.273l-1.6-1.039a4.623,4.623,0,0,1-.747-.561c-.3-.3-.51-.679-.8-.988-.5-.535-1.228-.841-1.581-1.474a6.806,6.806,0,0,1-.394-1.3c-.089-.283-.219-.551-.3-.836a3.747,3.747,0,0,1,.33-2.674A10.933,10.933,0,0,1,301.576,463.85Z" transform="translate(-252.342 -388.753)"/><path class="n" d="M220.456,375.234a5.575,5.575,0,0,0-1.49-1.549,5.078,5.078,0,0,0-2.686-1.137,2.9,2.9,0,0,0-1.21.2c-.018-1.2-.315-1.993-1.061-1.872-1.392.223-2.941.759-3.474,2.064a6.682,6.682,0,0,0,.012,3.157,2.413,2.413,0,0,1-.03.84,2.943,2.943,0,0,1-.736,1.155,6.14,6.14,0,0,0-1.061,1.485,2.178,2.178,0,0,0-.071,1.783,1.31,1.31,0,0,1,.178.467c.016.357-.356.592-.642.824-1.045.865-1,2.44-1.009,3.8a19.208,19.208,0,0,1-1.816,8.021,2.453,2.453,0,0,0,2.745-.356,9.167,9.167,0,0,1-.624,1.8,1.971,1.971,0,0,0,2.394-1.151,20.9,20.9,0,0,0,.811-2.827c.316-.931.875-1.74,1.114-2.674a2.465,2.465,0,0,1,.317-.891,2.334,2.334,0,0,1,.556-.474c.913-.654-.43-5.611-.073-6.677.535.118,1.5-2.44,2.059-5.041a2.635,2.635,0,0,0,1.2.119,1.538,1.538,0,0,1,.431-.03,1.149,1.149,0,0,1,.376.153,9.256,9.256,0,0,0,1.282.66,7.254,7.254,0,0,0,2.909.248,2.893,2.893,0,0,0-.406-2.087Z" transform="translate(-174.992 -312.34)"/><g class="q" transform="translate(30.371 58.522)"><path d="M205.874,394.465a19.235,19.235,0,0,0,1.816-8.021c0-1.358-.037-2.934,1.009-3.8.278-.232.658-.462.64-.824a1.273,1.273,0,0,0-.178-.467,2.186,2.186,0,0,1,.07-1.783,6.191,6.191,0,0,1,1.061-1.485,2.986,2.986,0,0,0,.738-1.155,2.459,2.459,0,0,0,.03-.84,6.659,6.659,0,0,1-.012-3.157c.515-1.264,1.982-1.806,3.339-2.041a.713.713,0,0,0-.357-.023c-1.392.223-2.941.759-3.474,2.064a6.682,6.682,0,0,0,.012,3.157,2.414,2.414,0,0,1-.03.84,2.943,2.943,0,0,1-.736,1.155,6.141,6.141,0,0,0-1.061,1.485,2.178,2.178,0,0,0-.071,1.783,1.31,1.31,0,0,1,.178.467c.016.357-.357.592-.642.824-1.045.865-1,2.44-1.009,3.8a19.209,19.209,0,0,1-1.816,8.021,2.374,2.374,0,0,0,1.346.251A2.3,2.3,0,0,1,205.874,394.465Z" transform="translate(-205.38 -370.859)"/><path d="M217.749,503.067a9.162,9.162,0,0,0,.622-1.8,2.259,2.259,0,0,1-.6.4,9.069,9.069,0,0,1-.519,1.4,1.319,1.319,0,0,0,.818.105A1.315,1.315,0,0,1,217.749,503.067Z" transform="translate(-215.134 -478.024)"/><path d="M262.619,380.5a2.853,2.853,0,0,1,.806-.189l-.094-.009a2.849,2.849,0,0,0-.713.053C262.616,380.4,262.619,380.451,262.619,380.5Z" transform="translate(-252.415 -378.617)"/><path d="M269.333,401.861a9.383,9.383,0,0,1-1.283-.66,1.117,1.117,0,0,0-.376-.153,1.336,1.336,0,0,0-.394.025,1.462,1.462,0,0,1,.273.128,9.256,9.256,0,0,0,1.282.66,5.772,5.772,0,0,0,2.148.278A5.059,5.059,0,0,1,269.333,401.861Z" transform="translate(-256.246 -395.663)"/><path d="M260.2,400.57c-.009.037-.018.075-.025.114a2.563,2.563,0,0,0,.629.016,2.7,2.7,0,0,1-.6-.13Z" transform="translate(-250.412 -395.274)"/></g><path class="i" d="M184.819,440.562a1.542,1.542,0,0,1-.415,1.237,2.706,2.706,0,0,1-.59.433,1.553,1.553,0,0,1-.7.264,1.319,1.319,0,0,1-.891-.389,5.973,5.973,0,0,1-1.446-2.526,18.927,18.927,0,0,1-1.093-3.733,30.48,30.48,0,0,0-.513-4.143c.357-.7.574-1.472.971-2.148a9.765,9.765,0,0,0,.67-1.257,4.323,4.323,0,0,0,.111-2.9.392.392,0,0,1,.463.025.943.943,0,0,1,.28.4,3.592,3.592,0,0,1,.276,1.7.688.688,0,0,0,.05.417.535.535,0,0,0,.453.191,3.979,3.979,0,0,0,1.045-.191,9.75,9.75,0,0,1,3.221-.266,1.542,1.542,0,0,1,.627.153.586.586,0,0,1,.324.526l-2.576.376a1.056,1.056,0,0,0-.535.178.357.357,0,0,0-.075.51,1.2,1.2,0,0,0,.178.119.535.535,0,0,1-.021.847.535.535,0,0,0-.178.121c-.105.141.036.328.078.5a.627.627,0,0,1-.308.642,2.179,2.179,0,0,1-.713.241,7.571,7.571,0,0,0-1.471.5.8.8,0,0,0-.383.285.86.86,0,0,0,.045.722l.67,1.807c.105.283.21.567.342.838.178.357.381.688.556,1.039a10.9,10.9,0,0,1,.419,1.012C184.029,439.032,184.7,439.585,184.819,440.562Z" transform="translate(-153.471 -357.108)"/><path class="i" d="M376.544,440.344a.8.8,0,0,0-.294.43.178.178,0,0,0,.068.193.2.2,0,0,0,.119,0,1.133,1.133,0,0,0,.517-.246.535.535,0,0,0-.155.125.178.178,0,0,0-.02.189.244.244,0,0,0,.169.089,1.653,1.653,0,0,0,.747-.036,1,1,0,0,0-.312.178.414.414,0,0,0-.139.321.153.153,0,0,0,.055.121.225.225,0,0,0,.082.029,2.012,2.012,0,0,0,.693,0,.356.356,0,0,0,.292-.178.437.437,0,0,0-.068-.335,1.858,1.858,0,0,1-.178-.848.344.344,0,0,0-.025-.178.312.312,0,0,0-.155-.112,1.3,1.3,0,0,0-.852-.169A1.759,1.759,0,0,0,376.544,440.344Z" transform="translate(-315.416 -369.062)"/><path class="g" d="M369.946,410.386l-8.506,4.6a.178.178,0,0,0,.012.317l1.451.547a.34.34,0,0,1,.191.178l1.128,2.317c.021.1.21.13.212.027l-.178-1.92a.686.686,0,0,1,.155-.387l4.41-4.321a.1.1,0,0,1,.1-.029.1.1,0,0,1,.055.162l-3.8,4.661a.849.849,0,0,0-.15.383l-.226,1.658c.018.144.132.2.223.069l.82-.961a.178.178,0,0,1,.239-.041l2.112,1.538a.178.178,0,0,0,.267-.105l1.736-8.506a.178.178,0,0,0-.25-.193Z" transform="translate(-303.176 -344.806)"/><ellipse class="g" cx="10.601" cy="2.039" rx="10.601" ry="2.039" transform="translate(152.871 141.172)"/><ellipse class="k" cx="1.234" cy="1.615" rx="1.234" ry="1.615" transform="translate(162.062 140.73)"/><ellipse class="k" cx="1.234" cy="1.615" rx="1.234" ry="1.615" transform="translate(162.062 138.756)"/><ellipse class="k" cx="1.234" cy="1.615" rx="1.234" ry="1.615" transform="translate(162.062 136.781)"/><ellipse class="k" cx="1.234" cy="1.615" rx="1.234" ry="1.615" transform="translate(162.062 134.806)"/><ellipse class="k" cx="1.234" cy="1.615" rx="1.234" ry="1.615" transform="translate(162.062 132.831)"/><ellipse class="k" cx="1.234" cy="1.615" rx="1.234" ry="1.615" transform="translate(162.062 130.858)"/><ellipse class="k" cx="1.234" cy="1.615" rx="1.234" ry="1.615" transform="translate(162.062 128.883)"/><path class="g" d="M928.3,654.7a6.246,6.246,0,0,0,.46-.676l-3.244-.535,3.508.027a5.931,5.931,0,0,0,.112-4.685l-4.7,2.44,4.339-3.189A5.913,5.913,0,1,0,919,654.694a6.106,6.106,0,0,0-.674,1.07l4.21,2.187-4.488-1.506a5.916,5.916,0,0,0,.952,5.551,5.911,5.911,0,1,0,9.294,0,5.918,5.918,0,0,0,0-7.308Z" transform="translate(-760.385 -537.711)"/><path class="f" d="M917.78,718.949a5.884,5.884,0,0,0,1.264,3.654,5.911,5.911,0,1,0,9.294,0C929.129,721.6,917.78,718.286,917.78,718.949Z" transform="translate(-760.422 -598.308)"/><ellipse class="g" cx="6.052" cy="1.164" rx="6.052" ry="1.164" transform="translate(57.772 136.589)"/><ellipse class="k" cx="0.704" cy="0.922" rx="0.704" ry="0.922" transform="translate(63.221 136.336)"/><ellipse class="k" cx="0.704" cy="0.922" rx="0.704" ry="0.922" transform="translate(63.221 135.209)"/><ellipse class="k" cx="0.704" cy="0.922" rx="0.704" ry="0.922" transform="translate(63.221 134.081)"/><ellipse class="k" cx="0.704" cy="0.922" rx="0.704" ry="0.922" transform="translate(63.221 132.954)"/><ellipse class="k" cx="0.704" cy="0.922" rx="0.704" ry="0.922" transform="translate(63.221 131.826)"/><ellipse class="k" cx="0.704" cy="0.922" rx="0.704" ry="0.922" transform="translate(63.221 130.699)"/><ellipse class="k" cx="0.704" cy="0.922" rx="0.704" ry="0.922" transform="translate(63.221 129.573)"/><path class="g" d="M375.492,706.114a3.349,3.349,0,0,1-.262-.387l1.85-.3-2,.014a3.387,3.387,0,0,1-.064-2.674l2.686,1.394-2.478-1.822a3.376,3.376,0,1,1,5.574,3.777,3.267,3.267,0,0,1,.385.615l-2.4,1.248,2.563-.856a3.4,3.4,0,0,1,.178,1.084,13.374,13.374,0,0,0-1.087,6.65,6.833,6.833,0,0,1-4.942-8.738Z" transform="translate(-314.204 -583.334)"/><path class="f" d="M381.52,742.83a13.374,13.374,0,0,0-1.087,6.65,3.374,3.374,0,0,1-4.942-4.565C375.039,744.341,381.52,742.45,381.52,742.83Z" transform="translate(-314.204 -617.963)"/><ellipse class="g" cx="4.069" cy="0.783" rx="4.069" ry="0.783" transform="translate(14.678 127.609)"/><ellipse class="k" cx="0.474" cy="0.62" rx="0.474" ry="0.62" transform="translate(18.343 127.439)"/><ellipse class="k" cx="0.474" cy="0.62" rx="0.474" ry="0.62" transform="translate(18.343 126.682)"/><ellipse class="k" cx="0.474" cy="0.62" rx="0.474" ry="0.62" transform="translate(18.343 125.922)"/><ellipse class="k" cx="0.474" cy="0.62" rx="0.474" ry="0.62" transform="translate(18.343 125.165)"/><ellipse class="k" cx="0.474" cy="0.62" rx="0.474" ry="0.62" transform="translate(18.343 124.407)"/><ellipse class="k" cx="0.474" cy="0.62" rx="0.474" ry="0.62" transform="translate(18.343 123.65)"/><ellipse class="k" cx="0.474" cy="0.62" rx="0.474" ry="0.62" transform="translate(18.343 122.892)"/><path class="g" d="M128.358,689.368a1.958,1.958,0,0,1-.178-.26l1.248-.2h-1.346a2.267,2.267,0,0,1-.045-1.8l1.806.948-1.667-1.225a2.269,2.269,0,1,1,3.743,2.54,2.3,2.3,0,0,1,.258.414l-1.611.836,1.722-.578a2.231,2.231,0,0,1,.119.727,9,9,0,0,0-.725,4.477,4.6,4.6,0,0,1-3.324-5.88Z" transform="translate(-111.315 -571.043)"/><path class="f" d="M132.418,714.076a9,9,0,0,0-.726,4.477,2.271,2.271,0,0,1-3.324-3.074C128.062,715.094,132.418,713.821,132.418,714.076Z" transform="translate(-111.323 -594.348)"/></g></svg>