<?xml version="1.0" encoding="utf-8"?>
<!-- Generator: Adobe Illustrator 24.1.2, SVG Export Plug-In . SVG Version: 6.00 Build 0)  -->
<svg version="1.1" id="Component_2_1" xmlns="http://www.w3.org/2000/svg" xmlns:xlink="http://www.w3.org/1999/xlink" x="0px"
	 y="0px" viewBox="0 0 200.9 202.7" style="enable-background:new 0 0 200.9 202.7;" xml:space="preserve">
<style type="text/css">
	.st0{opacity:0.1;fill:#00A0C6;enable-background:new    ;}
	.st1{fill:#00A0C6;}
	.st2{fill:#E6E6E6;}
	.st3{fill:#FFFFFF;}
	.st4{fill:#FFB8B8;}
	.st5{fill:#2F2E41;}
</style>
<path id="Path_311" class="st0" d="M185.7,110.3c1,10.7-5.3,21.7-12.5,30.6c-22.8,27.9-56,43.8-88.4,54.8c-11.8,4-23.9,7.5-35.7,7
	c-24-1-43.9-20.6-46.1-45.3c-0.7-8.4,0.4-17.2,2-25.8c2.9-15.3,7.5-30.8,15.7-44.6c5.9-9.8,13.4-18.6,21.3-26.8
	c22.2-22.9,48.2-42.3,76.7-53.7c12.5-5,26-8.4,38.1-5.4s22,14.1,20.6,27.5c-0.6,5.6-3,10.9-5.3,16.2c-3.5,7.7-7.1,15.6-8.7,23.7
	c-1.6,8.4-1.3,20,6.2,23.7C177.7,96.1,184.7,99.6,185.7,110.3z"/>
<g id="undraw_add_document_0hek" transform="translate(10.588 46.235)">
	<path id="Path_286" class="st1" d="M178.1,125.4c3.5-3.9,19.7-23.2,8.2-26.4c-8.7-2.4-9.6,10.8-9.3,19.6c-1.4-6-4.1-12.9-8.8-9.8
		c-6.8,4.4,6,14.2,9.3,16.6c0.1,0.5,0.1,0.8,0.1,0.8s0.1-0.1,0.4-0.4c0.2,0.1,0.3,0.2,0.3,0.2S178.1,125.7,178.1,125.4z"/>
	<path id="Path_287" class="st1" d="M3.1,136.2c4-4.5,22.6-26.6,9.3-30.3c-9.9-2.7-11,12.3-10.7,22.5c-1.6-6.8-4.7-14.8-10.1-11.3
		c-7.8,5.1,6.8,16.3,10.7,19c0.1,0.6,0.1,0.9,0.1,0.9s0.2-0.2,0.4-0.5c0.2,0.2,0.3,0.2,0.3,0.2S3.2,136.5,3.1,136.2z"/>
	<path id="Path_288" class="st2" d="M46.7-15c-0.7,0-1.3,0.6-1.3,1.3v138.2c0,0.7,0.6,1.3,1.3,1.3H158c0.7,0,1.3-0.6,1.3-1.3V-13.7
		c0-0.7-0.6-1.3-1.3-1.3L46.7-15z"/>
	<path id="Path_289" class="st3" d="M140.3,45.3H64.4c-1.1,0-1.9-0.9-1.9-1.9c0-1.1,0.9-1.9,1.9-1.9c0,0,0,0,0,0h75.9
		c1.1,0,1.9,0.9,1.9,1.9C142.3,44.5,141.4,45.3,140.3,45.3z"/>
	<path id="Path_290" class="st3" d="M141,9.2H90.6c-0.7,0-1.3-0.9-1.3-1.9s0.6-1.9,1.3-1.9H141c0.7,0,1.3,0.9,1.3,1.9
		S141.7,9.2,141,9.2z"/>
	<path id="Path_291" class="st3" d="M141,20.3H90.6c-0.7,0-1.3-0.9-1.3-1.9s0.6-1.9,1.3-1.9H141c0.7,0,1.3,0.9,1.3,1.9
		S141.7,20.3,141,20.3z"/>
	<path id="Path_292" class="st3" d="M140.3,57.8H64.4c-1.1,0-1.9-0.9-1.9-1.9c0-1.1,0.9-1.9,1.9-1.9c0,0,0,0,0,0h75.9
		c1.1,0,1.9,0.9,1.9,1.9C142.3,57,141.4,57.8,140.3,57.8z"/>
	<path id="Path_293" class="st3" d="M140.3,70.4H64.4c-1.1,0-1.9-0.9-1.9-1.9c0-1.1,0.9-1.9,1.9-1.9c0,0,0,0,0,0h75.9
		c1.1,0,1.9,0.9,1.9,1.9C142.3,69.5,141.4,70.4,140.3,70.4z"/>
	<path id="Path_294" class="st3" d="M140.3,82.9H64.4c-1.1,0-1.9-0.9-1.9-1.9s0.9-1.9,1.9-1.9h75.9c1.1,0,1.9,0.9,1.9,1.9
		S141.4,82.9,140.3,82.9L140.3,82.9z"/>
	<path id="Path_295" class="st3" d="M140.3,95.4H64.4c-1.1,0-1.9-0.9-1.9-1.9s0.9-1.9,1.9-1.9h75.9c1.1,0,1.9,0.9,1.9,1.9
		S141.4,95.4,140.3,95.4L140.3,95.4z"/>
	<path id="Path_296" class="st3" d="M140.3,107.9H64.4c-1.1,0-1.9-0.9-1.9-1.9s0.9-1.9,1.9-1.9h75.9c1.1,0,1.9,0.9,1.9,1.9
		S141.4,107.9,140.3,107.9L140.3,107.9z"/>
	<circle id="Ellipse_78" class="st3" cx="72.7" cy="13" r="10.2"/>
	<path id="Path_297" class="st3" d="M88.4,45.3"/>
	<path id="Path_298" class="st4" d="M64.9,48.7l-15.2,8.1l-0.2-6.7c4.9-0.8,9.7-2.3,14.1-4.6l1.6-3.9c0.6-1.4,2.1-2,3.5-1.5
		c0.4,0.2,0.8,0.4,1.1,0.8l0,0c0.9,1.1,0.8,2.7-0.2,3.6L64.9,48.7z"/>
	<path id="Path_299" class="st5" d="M27.8,95.4L27.8,95.4c-0.2-0.8-0.1-1.7,0.4-2.4l3.3-5.1c1.6-2.5,4.9-3.4,7.6-2l0,0
		c-1.4,2.4-1.2,4.5,0.5,6.3c-2.6,1.3-5.1,2.9-7.2,4.9c-1.4,0.9-3.2,0.6-4.2-0.8C28,96.1,27.8,95.8,27.8,95.4L27.8,95.4z"/>
	<path id="Path_300" class="st5" d="M65.6,88.7L65.6,88.7c-1,1.7-2.9,2.8-4.9,2.8l-22.2,0.2l-1-5.6l9.8-2.9l-8.3-6.4l9.1-10.6
		l16.4,15.3C66.6,83.4,67,86.4,65.6,88.7z"/>
	<path id="Path_301" class="st5" d="M35.1,126.9h-5.2c-4.7-32-9.4-64.1,4.6-76.1l16.6,2.7l-2.1,14.1l-9.2,10.6L35.1,126.9z"/>
	<path id="Path_302" class="st5" d="M39.1,136.8L39.1,136.8c-0.8,0.2-1.7,0.1-2.4-0.4l-5.1-3.3c-2.5-1.6-3.4-4.9-2-7.6l0,0
		c2.4,1.4,4.5,1.2,6.3-0.5c1.3,2.6,2.9,5.1,4.9,7.2c0.9,1.4,0.6,3.2-0.8,4.2C39.8,136.5,39.5,136.7,39.1,136.8L39.1,136.8z"/>
	<path id="Path_303" class="st5" d="M57.8,28.6H33.1c-4.6-6.5-5.1-12.6,0-18.4c0-2.6,3.3-4.6,7.4-4.6l0,0c3.2,0,6,1.3,7,3.2
		L57.8,28.6z"/>
	<path id="Path_304" class="st4" d="M47.4,29.5l-9.6-2.3c1.6-3.3,1.7-6.9,1-10.8l6.5-0.2C45.4,20.7,46.1,25.2,47.4,29.5z"/>
	<path id="Path_305" class="st1" d="M50.1,59.4c-7,4.8-12,0.2-15.7-7c0.5-4.4-0.3-9.6-1.9-15.2C31,32,33.7,26.6,38.7,24.7l0,0
		l8.3,3.5c7,5.7,8.4,11.9,5.8,18.5L50.1,59.4z"/>
	<path id="Path_306" class="st4" d="M29.9,34.3l-7.7,4l13.7,8.1l1.9,4.7c0.5,1.3-0.1,2.7-1.4,3.2c0,0-0.1,0-0.1,0l0,0
		c-1.3,0.5-2.7-0.2-3.2-1.5C33,52.7,33,52.4,33,52.2l-0.2-3.3l-17.4-5.7c-1.2-0.4-2.1-1.3-2.5-2.5l0,0c-0.6-1.7,0-3.7,1.5-4.7
		l14-9.6L29.9,34.3z"/>
	<path id="Path_307" class="st1" d="M37.6,35.1c-3.2-1.4-6.1,0.1-9.8,1.3l-0.6-10.2c3.7-2,7.2-2.5,10.4-1L37.6,35.1z"/>
	<path id="Path_308" class="st5" d="M57.3,28.6h-5.5c-3.4-6.3-3.2-17.3-10.5-14.9c-4.7-2.8-2,8.1-3.2,14.9h-4.7
		c-1.3-6.6-1.3-13.1,0.2-18.5c0-0.7,0.4-1.4,0.9-1.8c0.2-0.2,0.5-0.4,0.8-0.6c1.5-1.1,3.4-1.7,5.2-1.7c1.4,0,2.7,0.2,4.1,0.6
		c0.2,0,0.3,0.1,0.5,0.2c0.2,0.1,0.4,0.2,0.7,0.3c1,0.3,1.8,1,2.3,1.9C52.7,14.4,55.1,21.3,57.3,28.6z"/>
	<circle id="Ellipse_79" class="st4" cx="41.4" cy="15.1" r="6.1"/>
	<path id="Path_309" class="st5" d="M47.7,12.7c-1.8-2.5-6.7,0.5-12.5,2.6v-6c4.8-2.1,7.6-2.7,10.7-0.5L47.7,12.7z"/>
	<circle id="Ellipse_80" class="st1" cx="155.8" cy="-13.3" r="14.9"/>
	<path id="Path_310" class="st3" d="M149.6-14.3c-0.5,0-1,0.4-1,1s0.4,1,1,1c0,0,0,0,0.1,0h5.2v5.2c0,0.5,0.5,1,1,1
		c0.5,0,0.9-0.4,1-1v-5.2h5.2c0.5,0,1-0.4,1-1s-0.4-1-1-1c0,0,0,0-0.1,0h-5.2v-5.2c0-0.5-0.5-1-1-1c-0.5,0-0.9,0.4-1,1v5.2H149.6z"
		/>
</g>
</svg>
