<svg xmlns="http://www.w3.org/2000/svg" xmlns:xlink="http://www.w3.org/1999/xlink" width="175.01" height="197.704" viewBox="0 0 175.01 197.704"><defs><style>.a{opacity:0.2;}.b{fill:#3f3d56;}.c{fill:#205df5;}.d,.r{opacity:0.1;}.e{fill:url(#a);}.f{opacity:0.9;}.g{fill:#e5e7eb;}.h{fill:#fff;}.i{fill:#ececf3;}.j{opacity:0.4;}.k{fill:#d6d8e0;}.l{fill:url(#b);}.m{opacity:0.5;}.n{fill:url(#c);}.o{fill:#a0616a;}.p{fill:#2d293d;}.q{fill:#f86d70;}</style><linearGradient id="a" x1="0.5" y1="1" x2="0.5" gradientUnits="objectBoundingBox"><stop offset="0" stop-color="gray" stop-opacity="0.251"/><stop offset="0.54" stop-color="gray" stop-opacity="0.122"/><stop offset="1" stop-color="gray" stop-opacity="0.102"/></linearGradient><linearGradient id="b" x1="0.5" y1="1" x2="0.5" y2="0" xlink:href="#a"/><linearGradient id="c" x1="-0.001" y1="0.5" x2="1" y2="0.5" xlink:href="#a"/></defs><g transform="translate(-0.093 -0.05)"><g class="a" transform="translate(124.041 102.763)"><path class="b" d="M747.666,750.416a5.988,5.988,0,0,1-.543.837q-2.705-1.9-5.5-3.735l.121-.239a5.285,5.285,0,0,1,1.871-2.039,3.127,3.127,0,0,1,3.146-.257,3.162,3.162,0,0,1,1.544,2.747A5.3,5.3,0,0,1,747.666,750.416Z" transform="translate(-741.62 -672.687)"/><ellipse class="b" cx="4.389" cy="3.351" rx="4.389" ry="3.351" transform="translate(0.58 73.757) rotate(-62.09)"/><ellipse class="b" cx="4.389" cy="3.351" rx="4.389" ry="3.351" transform="translate(3.091 69.018) rotate(-62.09)"/><ellipse class="b" cx="4.389" cy="3.351" rx="4.389" ry="3.351" transform="translate(5.602 64.278) rotate(-62.09)"/><ellipse class="b" cx="4.389" cy="3.351" rx="4.389" ry="3.351" transform="translate(8.11 59.541) rotate(-62.09)"/><path class="c" d="M761.95,483.941a15.888,15.888,0,0,1-.257-2.209l8.474,2.852-8.451-4.4A16.075,16.075,0,0,1,767.4,468.8l8.188,11.841-6.358-13.169a16.054,16.054,0,1,1,15.022,28.286,16.071,16.071,0,0,1,.257,3.447l-12.87-.1,12.685,2.09a16.054,16.054,0,0,1-9.341,12.1,16.054,16.054,0,1,1-22.3-11.812,16.06,16.06,0,0,1,9.292-17.542Z" transform="translate(-742.74 -465.029)"/><path class="d" d="M782.584,608.462a16,16,0,0,1-7.681,7.164,16.054,16.054,0,1,1-22.3-11.812C751.975,600.392,783.428,606.868,782.584,608.462Z" transform="translate(-742.68 -567.359)"/></g><g class="a" transform="translate(0.093 0.364)"><path class="b" d="M476.085,659.12a11.14,11.14,0,0,0,.615,1.815q5.949-2.278,12.034-4.376c-.036-.165-.072-.335-.113-.515a10.175,10.175,0,0,0-2.53-4.69,5.607,5.607,0,0,0-9.92,2.412A10.181,10.181,0,0,0,476.085,659.12Z" transform="translate(-420.252 -499.412)"/><ellipse class="b" cx="6.453" cy="8.446" rx="6.453" ry="8.446" transform="translate(51.39 141.458) rotate(-13.72)"/><ellipse class="b" cx="6.453" cy="8.446" rx="6.453" ry="8.446" transform="translate(48.939 131.429) rotate(-13.72)"/><ellipse class="b" cx="6.453" cy="8.446" rx="6.453" ry="8.446" transform="translate(46.491 121.4) rotate(-13.72)"/><ellipse class="b" cx="6.453" cy="8.446" rx="6.453" ry="8.446" transform="translate(44.044 111.373) rotate(-13.72)"/><path class="c" d="M319.113,110.924a30.545,30.545,0,0,0,1.5-4.005l-17.13,1.315,17.854-4.224A30.971,30.971,0,0,0,316.1,80.071l-20.881,18.24L313.3,76.732a30.907,30.907,0,1,0-41.394,45.7,30.719,30.719,0,0,0-2.088,6.312l24.091,5.889-24.66-2.09a30.925,30.925,0,0,0,11.722,27.028,30.907,30.907,0,1,0,47.2-11.519,30.909,30.909,0,0,0-9.063-37.131Z" transform="translate(-260.093 -67.221)"/><path class="d" d="M298.636,355.743a30.763,30.763,0,0,0,10.955,16.989,30.907,30.907,0,1,0,47.2-11.519C359.57,355.128,297.813,352.373,298.636,355.743Z" transform="translate(-288.709 -280.395)"/></g><path class="e" d="M540.362,109.311h-.574V78.356A12.453,12.453,0,0,0,527.236,66H456.931A12.456,12.456,0,0,0,444.38,78.356V91.187h-.167a.734.734,0,0,0-.739.726v6.178a.734.734,0,0,0,.739.726h.18v6.309h-.227a.731.731,0,0,0-.736.726v11.812a.734.734,0,0,0,.736.728h.227v4.633h-.2a.731.731,0,0,0-.739.726V135.68a.731.731,0,0,0,.739.726h.2V244.615a12.453,12.453,0,0,0,12.551,12.356h70.29a12.456,12.456,0,0,0,12.551-12.356V132.462h.577a.734.734,0,0,0,.739-.726v-21.7a.734.734,0,0,0-.739-.726Z" transform="translate(-396.145 -65.95)"/><g class="f" transform="translate(48.675 1.337)"><rect class="g" width="2.772" height="22.863" rx="1.386" transform="translate(92.242 42.784)"/><rect class="g" width="1.557" height="7.527" rx="0.779" transform="translate(0.057 24.873)"/><rect class="g" width="1.756" height="13.099" rx="0.878" transform="translate(0 38.652)"/><rect class="g" width="1.671" height="13.213" rx="0.835" transform="translate(0.028 56.336)"/><rect class="h" width="92.8" height="188.604" rx="38.99" transform="translate(0.937)"/><rect class="g" width="12.96" height="2.631" rx="1.315" transform="translate(38.387 5.632)"/><circle class="g" cx="1.493" cy="1.493" r="1.493" transform="translate(53.304 5.454)"/></g><path class="i" d="M548.708,90.09H538.085v1.287a6.07,6.07,0,0,1-6.07,6.067H498.146a6.07,6.07,0,0,1-6.07-6.067V90.09H482.11a7.37,7.37,0,0,0-7.37,7.37V261.5a7.37,7.37,0,0,0,7.37,7.37h66.6a7.37,7.37,0,0,0,7.37-7.37V97.46A7.37,7.37,0,0,0,548.708,90.09Z" transform="translate(-419.395 -83.839)"/><ellipse class="c" cx="14.721" cy="2.489" rx="14.721" ry="2.489" transform="translate(7.809 191.517)"/><path class="c" d="M331.6,784.08a4.31,4.31,0,0,0,1.4-2.118,1.887,1.887,0,0,0-.981-2.157c-.9-.345-1.864.278-2.592.909a3.467,3.467,0,0,1-2.523,1.218,3.835,3.835,0,0,0,1.187-3.6,1.485,1.485,0,0,0-.329-.728c-.5-.535-1.405-.306-2.005.116-1.9,1.339-2.435,3.925-2.445,6.255a11.777,11.777,0,0,1-.036-2.574,2.653,2.653,0,0,0-.965-2.281,2.932,2.932,0,0,0-1.477-.345,3.058,3.058,0,0,0-2.391.68,2.379,2.379,0,0,0,.093,2.94,9.246,9.246,0,0,0,2.479,1.985,5.489,5.489,0,0,1,1.768,1.689,1.522,1.522,0,0,1,.131.3h5.362A15.036,15.036,0,0,0,331.6,784.08Z" transform="translate(-302.985 -594.146)"/><g class="j" transform="translate(151.265 174.105)"><ellipse class="c" cx="8.402" cy="1.421" rx="8.402" ry="1.421" transform="translate(0 4.786)"/><path class="c" d="M871.079,746.068a2.456,2.456,0,0,0,.8-1.207,1.078,1.078,0,0,0-.561-1.233,1.583,1.583,0,0,0-1.48.515,1.993,1.993,0,0,1-1.439.7,2.185,2.185,0,0,0,.677-2.059.839.839,0,0,0-.188-.414c-.286-.306-.8-.175-1.143.064a4.284,4.284,0,0,0-1.4,3.57,6.834,6.834,0,0,1-.018-1.47,1.524,1.524,0,0,0-.553-1.3,1.679,1.679,0,0,0-.842-.2,1.753,1.753,0,0,0-1.367.386,1.36,1.36,0,0,0,.054,1.678,5.248,5.248,0,0,0,1.416,1.133,3.164,3.164,0,0,1,1.009.963.878.878,0,0,1,.075.172h3.063a8.493,8.493,0,0,0,1.892-1.295Z" transform="translate(-859.205 -742.185)"/></g><g class="j" transform="translate(22.582 158.137)"><ellipse class="c" cx="8.402" cy="1.421" rx="8.402" ry="1.421" transform="translate(0 4.787)"/><path class="c" d="M371.169,684.037a2.428,2.428,0,0,0,.8-1.21,1.074,1.074,0,0,0-.561-1.23,1.577,1.577,0,0,0-1.478.515,1.993,1.993,0,0,1-1.439.7,2.2,2.2,0,0,0,.677-2.059.871.871,0,0,0-.188-.417c-.286-.3-.8-.172-1.145.067a4.269,4.269,0,0,0-1.4,3.568,6.673,6.673,0,0,1-.021-1.47,1.475,1.475,0,0,0-.551-1.287,1.662,1.662,0,0,0-.844-.2,1.739,1.739,0,0,0-1.364.389,1.36,1.36,0,0,0,.054,1.678,5.329,5.329,0,0,0,1.413,1.133,3.112,3.112,0,0,1,1.009.963,1.052,1.052,0,0,1,.077.172h3.061A8.571,8.571,0,0,0,371.169,684.037Z" transform="translate(-359.293 -680.153)"/></g><rect class="k" width="13.151" height="13.151" transform="translate(61.584 19.87)"/><rect class="k" width="27.553" height="2.505" transform="translate(84.439 20.81)"/><rect class="k" width="45.399" height="2.505" transform="translate(84.439 25.193)"/><rect class="k" width="45.399" height="2.505" transform="translate(84.439 29.577)"/><rect class="k" width="13.151" height="13.151" transform="translate(61.685 43.979)"/><rect class="k" width="27.553" height="2.505" transform="translate(84.54 44.919)"/><rect class="k" width="45.399" height="2.505" transform="translate(84.54 49.302)"/><rect class="k" width="45.399" height="2.505" transform="translate(84.54 53.683)"/><rect class="k" width="13.151" height="13.151" transform="translate(61.785 68.088)"/><rect class="k" width="27.553" height="2.505" transform="translate(84.643 69.025)"/><rect class="k" width="45.399" height="2.505" transform="translate(84.643 73.408)"/><rect class="k" width="45.399" height="2.505" transform="translate(84.643 77.792)"/><rect class="k" width="13.151" height="13.151" transform="translate(61.885 92.194)"/><rect class="k" width="27.553" height="2.505" transform="translate(84.743 93.133)"/><rect class="k" width="45.399" height="2.505" transform="translate(84.743 97.517)"/><rect class="k" width="45.399" height="2.505" transform="translate(84.743 101.901)"/><rect class="k" width="13.151" height="13.151" transform="translate(61.988 116.303)"/><rect class="k" width="27.553" height="2.505" transform="translate(84.844 117.242)"/><rect class="k" width="45.399" height="2.505" transform="translate(84.844 121.626)"/><rect class="k" width="45.399" height="2.505" transform="translate(84.844 126.009)"/><rect class="k" width="13.151" height="13.151" transform="translate(62.089 140.411)"/><rect class="k" width="27.553" height="2.505" transform="translate(84.944 141.351)"/><rect class="k" width="45.399" height="2.505" transform="translate(84.944 145.734)"/><rect class="k" width="45.399" height="2.505" transform="translate(84.944 150.118)"/><rect class="k" width="13.151" height="13.151" transform="translate(62.189 164.52)"/><rect class="k" width="27.553" height="2.505" transform="translate(85.044 165.46)"/><rect class="k" width="45.399" height="2.505" transform="translate(85.044 169.843)"/><rect class="k" width="45.399" height="2.505" transform="translate(85.044 174.227)"/><rect class="l" width="112.088" height="27.864" transform="translate(39.97 59.524)"/><rect class="h" width="111.148" height="26.613" transform="translate(40.595 60.152)"/><rect class="c" width="13.151" height="13.151" transform="translate(62.042 66.883)"/><g class="m" transform="translate(84.9 67.823)"><rect class="c" width="27.553" height="2.505"/><rect class="c" width="45.399" height="2.505" transform="translate(0 4.384)"/><rect class="c" width="45.399" height="2.505" transform="translate(0 8.767)"/></g><path class="n" d="M456.477,386.431a2.29,2.29,0,0,0-2.705-.412,3.973,3.973,0,0,0-1.344,1.82,14.092,14.092,0,0,0-1.4,3.1c-.595,3.066-3.035,5.447-4.013,8.409a16.71,16.71,0,0,1-1.068,3.158,10.054,10.054,0,0,1-.875,1.2,33.928,33.928,0,0,0-3.346,5.1,4.107,4.107,0,0,0-1.524.947,5.26,5.26,0,0,1-2.059.976,1.944,1.944,0,0,0-.844.309c-.355.3-.4.829-.692,1.187a1.848,1.848,0,0,1-.772.515c0-.09-.013-.18-.015-.273-.013-.476-.021-.955-.021-1.434a5.39,5.39,0,0,0-.015-7,10.55,10.55,0,0,1,.3-2.211.982.982,0,0,0-.209-1.014c-.142-.111-.324-.152-.476-.257a2.075,2.075,0,0,1-.515-.654,2.78,2.78,0,0,0-3.5-.893c-.929.489-1.493,1.467-2.317,2.131-.422.34-.909.595-1.331.937a5.527,5.527,0,0,0-1.722,2.8,16.041,16.041,0,0,0-.469,3.305,2.984,2.984,0,0,0,.039,1,2.651,2.651,0,0,0,.378.772,8.654,8.654,0,0,0,3.2,3.05,1.249,1.249,0,0,1,0,.2,1.426,1.426,0,0,1-.057.306l-.149-.041a5.91,5.91,0,0,1-1.64-.384c-.844-.474-1.1-1.629-1.907-2.16a1.458,1.458,0,0,0-.216-.116,14.446,14.446,0,0,0-.829-4.291,5.347,5.347,0,0,1-.492-2.034,5,5,0,0,1,.62-1.84,46.784,46.784,0,0,0,2.317-6.34q.641-2.026,1.287-4.054a6.391,6.391,0,0,0,1.13-1.076,5.738,5.738,0,0,0,1.31-2.814,3.985,3.985,0,0,0-.723-2.976,1.72,1.72,0,0,0-1.21-.741,1.573,1.573,0,0,0-1.13.515,5.025,5.025,0,0,0-.968,1.663,7.423,7.423,0,0,0-.808,3.112c.033.9.368,1.9-.154,2.626a62.807,62.807,0,0,0-4.36,7.74,13.848,13.848,0,0,0-.88,1.941,10.812,10.812,0,0,0-.461,3.346,44.877,44.877,0,0,0,.566,6.342,8.15,8.15,0,0,0,.749,2.78,11.659,11.659,0,0,0-.461,3.13,1.784,1.784,0,0,0,.113.718,2.965,2.965,0,0,0,.569.716,3.2,3.2,0,0,1,.772,2.533,7.184,7.184,0,0,0,.229,2.538c.515,2.286,1.03,4.569,1.441,6.873a4.4,4.4,0,0,1,.1,1.308,7.714,7.714,0,0,0-.35,1.84,6.97,6.97,0,0,1,.165.88,2.175,2.175,0,0,1-.154.659c-.587,1.707-2.165,5.619-2.147,7.426l.412-.1c-.414,2.345-1.385,4.587-1.895,6.924a23.167,23.167,0,0,0-.479,5.179,19.211,19.211,0,0,1-.041,2.342c-.08.692-.257,1.369-.355,2.059a18.655,18.655,0,0,0-.124,2.788,28.466,28.466,0,0,0,.257,4.376c.394,2.471-.3,4.927-.484,7.421a44.613,44.613,0,0,1-.592,5.2c-.142.726-.319,1.447-.417,2.18-.288,2.178.131,4.422-.322,6.572-.214,1.006-.595,2.136-.033,3,.178.27.432.481.625.741a.942.942,0,0,1,.18.909c-.111.237-.368.391-.432.643-.1.4.311.721.682.891l.106.041a.955.955,0,0,0,.2.772,1.637,1.637,0,0,0,.79.412l4.86,1.472a6.485,6.485,0,0,0,3.346.386.842.842,0,0,0,.193.417,1.637,1.637,0,0,0,.79.412l4.824,1.462a5.633,5.633,0,0,0,3.794.237,2.155,2.155,0,0,0,.87-.656,2.3,2.3,0,0,0,.309-1.923,1.567,1.567,0,0,0-.468-.86,2.059,2.059,0,0,0-1.122-.368,2.268,2.268,0,0,1-.983-.257.708.708,0,0,1-.224-.234q.417-.412.808-.855c-.211-.072-.286-.376-.306-.6-.306-3.279.929-6.484,1.4-9.743a20.85,20.85,0,0,0,.124-4.937c-.057-.62-.142-1.238-.167-1.861-.121-3.243,1.429-6.363,1.375-9.609-.026-1.519.772-3.017,1.161-4.487a16.241,16.241,0,0,0,.358-4.016l.062-10.621a13.288,13.288,0,0,0-.458-4.263,5.405,5.405,0,0,1-.185-2.332c1.31-.579,2.551-1.436,3.951-1.287.373-.991-.069-4.294-.42-5.295a22.77,22.77,0,0,1-.772-12.263c.317-1.465-.118-3.022.234-4.481a2.71,2.71,0,0,1,.384-.963,1.03,1.03,0,0,1,.883-.466c0-.893-.018-1.8-.077-2.708a6.436,6.436,0,0,0,1.434-1.65,25.442,25.442,0,0,0,1.745-4.137c.945-2.471,2.234-4.79,3.318-7.207s1.189-5.061,2.059-7.563a5.683,5.683,0,0,1,2.767-3.187,4.415,4.415,0,0,0,1.436-.865,2.316,2.316,0,0,0,.5-1.228A3.246,3.246,0,0,0,456.477,386.431ZM426.36,492.773c.105-.116.208-.232.306-.358-.324-.052-.721-.288-.728-.618a3.415,3.415,0,0,1,.211-.965,3.861,3.861,0,0,0,.072-1.714c-.072-.4-.206-.772-.288-1.179a11.011,11.011,0,0,1-.154-1.333,22.056,22.056,0,0,0-.937-4.726c-.466-1.49.172-3,.337-4.551a8.971,8.971,0,0,1,.3-2.188c.152-.412.4-.772.553-1.189a5.444,5.444,0,0,0-.072-3.014c1.524-2.762,2.028-6.057,2.6-9.166l.968-5.233a5.1,5.1,0,0,1,.772-2.209,27.136,27.136,0,0,1,.587,7.038,10.447,10.447,0,0,0,.026,2.059c.118.749.43,1.457.61,2.193a26.731,26.731,0,0,1,.257,5c.033.674.121,1.349.149,2.023.126,2.983-.873,5.884-1.858,8.7a32.3,32.3,0,0,0-1.03,5.5c-.273,1.732-.543,3.467-.682,5.215-.041.533-.075,1.081-.139,1.622a4.236,4.236,0,0,0-.5-.08,2.268,2.268,0,0,1-.983-.257,1.145,1.145,0,0,1-.378-.574Z" transform="translate(-376.565 -302.585)"/><path class="b" d="M467.493,814.473a2.087,2.087,0,0,1,1.122.365,1.563,1.563,0,0,1,.468.855,2.276,2.276,0,0,1-.309,1.913,2.137,2.137,0,0,1-.87.649,5.616,5.616,0,0,1-3.794-.232l-4.86-1.465a1.632,1.632,0,0,1-.79-.409,1.071,1.071,0,0,1-.021-1.248,2.437,2.437,0,0,1,1.03-.821,11.572,11.572,0,0,1,4.891-.937c.618-.013,1.225-.147,1.645.329.221.257.183.53.515.749A2.23,2.23,0,0,0,467.493,814.473Z" transform="translate(-407.149 -620.753)"/><path class="b" d="M431.823,804.092a2.06,2.06,0,0,1,1.122.363,1.588,1.588,0,0,1,.468.855,2.273,2.273,0,0,1-.309,1.913,2.142,2.142,0,0,1-.87.651,5.617,5.617,0,0,1-3.794-.234l-4.86-1.465a1.611,1.611,0,0,1-.79-.409,1.071,1.071,0,0,1-.021-1.248,2.422,2.422,0,0,1,1.03-.821,11.545,11.545,0,0,1,4.878-.937c.615,0,1.225-.147,1.645.33.221.257.183.533.515.749A2.267,2.267,0,0,0,431.823,804.092Z" transform="translate(-380.661 -613.046)"/><path class="b" d="M431.874,600.466a59.838,59.838,0,0,0-8.618-.242,1.693,1.693,0,0,0-.559.087c-.633.257-.731,1.086-.793,1.766-.242,2.746-1.454,5.308-2.059,8a22.851,22.851,0,0,0-.479,5.148,18.925,18.925,0,0,1-.041,2.317c-.08.69-.257,1.362-.355,2.059a18.415,18.415,0,0,0-.124,2.77,28.1,28.1,0,0,0,.257,4.343c.394,2.456-.3,4.891-.484,7.372a44.1,44.1,0,0,1-.592,5.171c-.142.721-.319,1.436-.417,2.165-.288,2.165.131,4.4-.322,6.53-.214,1-.595,2.121-.033,2.976.178.27.432.479.626.736a.935.935,0,0,1,.18.9c-.111.234-.368.389-.432.638-.1.394.311.718.682.885a7.111,7.111,0,0,0,8.278-2.046c-.324-.052-.721-.286-.728-.613a3.379,3.379,0,0,1,.211-.96,3.81,3.81,0,0,0,.072-1.7c-.072-.394-.206-.772-.288-1.171a10.849,10.849,0,0,1-.154-1.323,21.782,21.782,0,0,0-.937-4.7c-.466-1.48.172-2.978.337-4.523a8.866,8.866,0,0,1,.3-2.173c.152-.409.4-.772.553-1.182a5.37,5.37,0,0,0-.072-2.994c1.524-2.746,2.028-6.018,2.6-9.107l.968-5.2a5.024,5.024,0,0,1,.772-2.193,26.791,26.791,0,0,1,.587,6.994,10.292,10.292,0,0,0,.026,2.031c.118.744.43,1.447.61,2.18a26.366,26.366,0,0,1,.257,4.968c.033.669.121,1.339.149,2.01.126,2.963-.873,5.846-1.858,8.644a31.936,31.936,0,0,0-1.03,5.465c-.273,1.722-.543,3.444-.682,5.182-.126,1.6-.18,3.323-1.174,4.577a8.419,8.419,0,0,0,2.906,1.393,5.39,5.39,0,0,0,3.586-.692,11.326,11.326,0,0,0,2.831-2.409c-.211-.072-.286-.376-.306-.595-.306-3.256.929-6.435,1.4-9.678a20.588,20.588,0,0,0,.124-4.906c-.057-.615-.142-1.228-.167-1.846-.121-3.223,1.429-6.324,1.375-9.547-.026-1.508.772-3,1.161-4.458a15.993,15.993,0,0,0,.358-3.987l.062-10.554a13.13,13.13,0,0,0-.458-4.237c-.566-1.619.08-3.483.178-5.194a21.42,21.42,0,0,1-8.283.916Z" transform="translate(-376.491 -462.161)"/><path class="o" d="M510.044,415.853a33.655,33.655,0,0,1,3.941-6.224,10.159,10.159,0,0,0,.875-1.194,16.515,16.515,0,0,0,1.068-3.138c.978-2.945,3.418-5.31,4.013-8.355a14.143,14.143,0,0,1,1.4-3.089,3.9,3.9,0,0,1,1.344-1.8,2.29,2.29,0,0,1,2.705.412,3.207,3.207,0,0,1,.826,2.716,2.268,2.268,0,0,1-.5,1.22,4.472,4.472,0,0,1-1.436.862,5.637,5.637,0,0,0-2.767,3.164c-.86,2.487-.968,5.117-2.059,7.514s-2.373,4.7-3.318,7.153a24.654,24.654,0,0,1-1.745,4.119,5.069,5.069,0,0,1-3.49,2.559,8.768,8.768,0,0,0-.432-2.739C510.16,418.007,509.576,416.8,510.044,415.853Z" transform="translate(-445.482 -307.867)"/><path class="o" d="M433.17,414.659a14.273,14.273,0,0,0-.834-5.349,5.3,5.3,0,0,1-.492-2.021,4.939,4.939,0,0,1,.62-1.828,46.286,46.286,0,0,0,2.317-6.3l1.287-4.026a6.434,6.434,0,0,0,1.13-1.068,5.7,5.7,0,0,0,1.31-2.8,3.943,3.943,0,0,0-.723-2.958,1.709,1.709,0,0,0-1.21-.734,1.557,1.557,0,0,0-1.13.515,4.978,4.978,0,0,0-.968,1.653,7.331,7.331,0,0,0-.808,3.089c.033.891.368,1.884-.154,2.608a62.356,62.356,0,0,0-4.36,7.689,13.694,13.694,0,0,0-.88,1.928,10.688,10.688,0,0,0-.461,3.331,44.294,44.294,0,0,0,.566,6.3,5.63,5.63,0,0,0,1.413,3.6A21.068,21.068,0,0,1,433.17,414.659Z" transform="translate(-384.546 -304.753)"/><circle class="o" cx="5.341" cy="5.341" r="5.341" transform="translate(49.834 100.23)"/><path class="o" d="M456.968,487.888a7.126,7.126,0,0,1-1.151,2.664c-.306.515-.692,1.063-1.287,1.12a25.742,25.742,0,0,0,4.85,1.951,5.514,5.514,0,0,0,1.774.286,4.331,4.331,0,0,0,1.475-.378,7.323,7.323,0,0,0,4.155-4.891,9.638,9.638,0,0,1-1.982-.152,1.463,1.463,0,0,1-.973-.476,1.568,1.568,0,0,1-.2-.862q-.039-1.336,0-2.672a10.554,10.554,0,0,0-3.882.476c-.515.167-1.03.371-1.557.5-.324.08-1.218,0-1.457.188C456.368,485.929,457.063,487.231,456.968,487.888Z" transform="translate(-404.388 -376.692)"/><path class="c" d="M441.955,488.336a3.359,3.359,0,0,0-2.553-2.981,5.905,5.905,0,0,1-1.64-.381c-.844-.471-1.1-1.619-1.907-2.147a2.255,2.255,0,0,0-2.667.435,5.745,5.745,0,0,0-1.351,2.543,12.806,12.806,0,0,0-.692,3.9,1.77,1.77,0,0,0,.113.716,3,3,0,0,0,.569.713,3.161,3.161,0,0,1,.772,2.512,7.115,7.115,0,0,0,.229,2.525c.515,2.268,1.03,4.538,1.441,6.826a4.344,4.344,0,0,1,.1,1.287,7.618,7.618,0,0,0-.35,1.825,6.926,6.926,0,0,1,.165.878,2.128,2.128,0,0,1-.154.651c-.587,1.7-2.165,5.586-2.147,7.38a44.641,44.641,0,0,1,9.612-.87,20.2,20.2,0,0,1,2.335.1c1.861.2,3.766.741,5.57.239,1.673-.466,3.158-1.8,4.891-1.632.373-.986-.07-4.268-.42-5.261a22.482,22.482,0,0,1-.772-12.183c.317-1.457-.118-3,.234-4.451a2.667,2.667,0,0,1,.384-.958,1.03,1.03,0,0,1,.883-.463,32.792,32.792,0,0,0-.644-6.932c-.172-.811-.53-1.768-1.346-1.907-.736-.124-1.357.5-1.946.955a5.318,5.318,0,0,1-2.059.968,1.939,1.939,0,0,0-.844.306c-.355.293-.4.824-.692,1.182-.515.641-1.665.584-2.031,1.323a4.643,4.643,0,0,0-.2.677,2.476,2.476,0,0,1-.847,1.094A4.777,4.777,0,0,1,441.955,488.336Z" transform="translate(-387.02 -373.895)"/><path class="p" d="M460.465,444.977a.977.977,0,0,0-.208-1.009c-.142-.111-.324-.152-.476-.257a2.058,2.058,0,0,1-.515-.651,2.8,2.8,0,0,0-3.5-.883c-.929.487-1.493,1.46-2.317,2.118-.422.34-.909.592-1.331.929a5.493,5.493,0,0,0-1.722,2.785,15.85,15.85,0,0,0-.466,3.287,2.954,2.954,0,0,0,.039,1,2.624,2.624,0,0,0,.378.759,8.564,8.564,0,0,0,3.372,3.12,5.23,5.23,0,0,0,4.494.08.8.8,0,0,0,.345-.278.968.968,0,0,0,.052-.595,4.08,4.08,0,0,1,.45-2.275c.257-.515.641-.958.849-1.493a5.3,5.3,0,0,0,.242-1.848A19.809,19.809,0,0,1,460.465,444.977Z" transform="translate(-400.95 -345.084)"/><rect class="c" width="13.151" height="13.151" transform="translate(61.988 67.04)"/><path class="o" d="M522.154,360.631a1.727,1.727,0,0,1-.891.808,2.212,2.212,0,0,1-.708.134,2,2,0,0,1-.772-.1,1.774,1.774,0,0,1-.816-.651,4.118,4.118,0,0,1-.474-.947,1.05,1.05,0,0,1-.1-.535.772.772,0,0,0,.515-.291.651.651,0,0,0,.013-.515c-.016-.052-.031-.1-.049-.147-.039-.113-.172-.327-.08-.422s.309-.093.394-.131a3.714,3.714,0,0,1,.8-.358,1.946,1.946,0,0,1,.759.049.257.257,0,0,1,.1.036.222.222,0,0,1,.07.1c.072.175.113.368.17.548a1.131,1.131,0,0,0,.283.5,1.421,1.421,0,0,0,.394.237l.345.157a.491.491,0,0,1,.162.105.428.428,0,0,1,.077.211A1.975,1.975,0,0,1,522.154,360.631Z" transform="translate(-451.813 -282.389)"/><path class="d" d="M522.146,358.247a1.789,1.789,0,0,1-2.16.322c-.015-.052-.031-.1-.049-.147-.039-.113-.172-.327-.08-.422s.309-.093.394-.131a3.711,3.711,0,0,1,.8-.358,1.946,1.946,0,0,1,.759.049.258.258,0,0,1,.1.036.221.221,0,0,1,.069.1C522.048,357.882,522.089,358.067,522.146,358.247Z" transform="translate(-452.875 -282.411)"/><circle class="o" cx="1.786" cy="1.786" r="1.786" transform="translate(66.197 72.734)"/><path class="q" d="M518.476,366.893h-8.407c-.257-.574-.489-1.151-.749-1.725h0a1.2,1.2,0,0,1,.152-.386.42.42,0,0,1,.345-.193c.075,0,.16.028.214-.026s.036-.1.075-.134a.314.314,0,0,1,.2-.031.466.466,0,0,0,.4-.2.633.633,0,0,1,.1-.131.574.574,0,0,1,.216-.057c.208-.046.332-.257.489-.389a.293.293,0,0,1,.309-.085.19.19,0,0,1,.064.054.582.582,0,0,1,.085.214,1.91,1.91,0,0,0,.672,1.084,1.524,1.524,0,0,0,2.3-.574,3,3,0,0,0,.211-.976V363.3a.736.736,0,0,1,.613.121,3.453,3.453,0,0,0,.546.342c.229.09.515.09.672.257.067.067.113.16.2.2a.593.593,0,0,0,.165.039.975.975,0,0,1,.646.566,4.407,4.407,0,0,1,.36,1.3Z" transform="translate(-445.074 -286.705)"/><path class="b" d="M515.078,343.093a1.351,1.351,0,0,0-.311.36,1.773,1.773,0,0,1-.623.613.773.773,0,0,0-.286.178.477.477,0,0,0-.075.2,3.766,3.766,0,0,0-.08.759.811.811,0,0,0,.062.376c.052.108.149.2.167.319a.932.932,0,0,1-.031.278.242.242,0,0,0,.1.257.655.655,0,0,0,.144.033c.257.057.345.36.384.61.088,0,.126-.106.147-.188l.257-1.2c.031-.129.077-.281.209-.324a.651.651,0,0,1,.273,0c.355.031.654-.245,1-.322a1.367,1.367,0,0,1,.34-.021c.273,0,.592.126.651.381a.128.128,0,0,0,.054.113.216.216,0,0,0,.121,0c.172-.018.275.178.327.337l.18.584c.028.088.075.193.17.2a.18.18,0,0,0,.178-.157.712.712,0,0,0-.036-.257,2.785,2.785,0,0,1,.126-1.156,1.266,1.266,0,0,0-.175-1.12c-.1-.106-.227-.185-.317-.3s-.131-.234-.219-.34a2.247,2.247,0,0,0-1.248-.546A2.559,2.559,0,0,0,515.078,343.093Z" transform="translate(-448.328 -271.471)"/><g class="r" transform="translate(65.376 73.03)"><path d="M518.851,352.083c-.1,0-.142-.116-.17-.2l-.18-.584c-.052-.16-.154-.355-.327-.34a.216.216,0,0,1-.121,0c-.039-.021-.044-.069-.054-.113-.059-.257-.378-.368-.651-.381a1.254,1.254,0,0,0-.34.023c-.347.075-.646.35-1,.319a.752.752,0,0,0-.273,0c-.131.046-.178.2-.208.327-.09.4-.178.8-.257,1.194-.021.082-.059.183-.147.188-.039-.257-.126-.553-.384-.61a.537.537,0,0,1-.144-.033.162.162,0,0,1-.075-.085.838.838,0,0,1-.021.111.242.242,0,0,0,.1.257.653.653,0,0,0,.144.033c.257.057.345.36.384.61.088,0,.126-.106.147-.188.09-.4.178-.8.257-1.2.031-.129.077-.281.208-.324a.652.652,0,0,1,.273,0c.355.031.654-.245,1-.322a1.364,1.364,0,0,1,.34-.021c.273,0,.592.126.651.381a.128.128,0,0,0,.054.113.216.216,0,0,0,.121,0c.172-.018.275.178.327.337l.18.584c.028.088.075.193.17.2a.18.18,0,0,0,.178-.157A.515.515,0,0,0,519,352,.16.16,0,0,1,518.851,352.083Z" transform="translate(-514.29 -350.217)"/><path d="M513.94,352.3c-.018-.118-.116-.211-.167-.319a.655.655,0,0,1-.059-.232v.129a.811.811,0,0,0,.062.376c.041.088.113.165.149.257A.574.574,0,0,0,513.94,352.3Z" transform="translate(-513.711 -351.176)"/><path d="M532.046,349.819a3.347,3.347,0,0,0-.147,1.03,6.267,6.267,0,0,1,.147-.752,1.973,1.973,0,0,0,.044-.577A2.346,2.346,0,0,1,532.046,349.819Z" transform="translate(-527.217 -349.52)"/></g><path class="q" d="M509.055,371.729H507.05a6.308,6.308,0,0,1,.471-1.565.357.357,0,0,1,.085-.136.121.121,0,0,1,.028-.023c.059-.046.142-.064.206-.108s.072-.09.131-.108a1.779,1.779,0,0,1,.654.108.654.654,0,0,1,.172.044.582.582,0,0,1,.273.335A3.159,3.159,0,0,1,509.055,371.729Z" transform="translate(-443.388 -291.541)"/></g></svg>