<svg xmlns="http://www.w3.org/2000/svg" xmlns:xlink="http://www.w3.org/1999/xlink" width="144.641" height="169.083" viewBox="0 0 144.641 169.083"><defs><style>.a,.b{fill:#205df5;}.a,.e{opacity:0.1;}.c{fill:url(#a);}.d{fill:#4c4981;}.f{fill:#ae6e79;}.g{fill:#444053;}.h{fill:#fff;}</style><linearGradient id="a" x1="0.5" y1="1" x2="0.5" gradientUnits="objectBoundingBox"><stop offset="0" stop-color="gray" stop-opacity="0.251"/><stop offset="0.54" stop-color="gray" stop-opacity="0.122"/><stop offset="1" stop-color="gray" stop-opacity="0.102"/></linearGradient></defs><g transform="translate(-36.141 0)"><ellipse class="a" cx="20.724" cy="2.043" rx="20.724" ry="2.043" transform="translate(123.454 164.997)"/><path class="b" d="M341.33,800.37s9.752-.588,8.6,6.246a1.664,1.664,0,0,1-.867,1.756s-.016-.507-1-.335a4.407,4.407,0,0,1-1.059.052,2.208,2.208,0,0,1-1.3-.535h0s-2.742-1.132-3.807-5.613c0,0-.79-.976-.758-1.229l1.645.7a2.954,2.954,0,0,0-.119,2.174s.053-2.13.37-2.081c.063.01.855.4.855.4s-.968,2.067-.238,3.57c0,0-.277-2.548.54-3.421l1.16.677a5.106,5.106,0,0,0-.364,3.878s-.2-2.673.606-3.714l1.051.808s-1.063,2.105-.414,3.552c0,0,.083-3.114.641-3.348a6.3,6.3,0,0,1,1.059,1.144s-.727,1.528-.277,2.334c0,0,.277-2.073.505-2.083a6.929,6.929,0,0,1,1.01,2.316,5,5,0,0,0-.79-2.447,2.758,2.758,0,0,1,1.4.725s-.143-.972-1.627-1.057a6.359,6.359,0,0,0-.96-1.105,6.006,6.006,0,0,1,2.372.275,2.663,2.663,0,0,0-2.643-.5l-1.037-.845a8.529,8.529,0,0,1,2.768.028s-.948-.808-3.047-.22l-1.128-.675a10.2,10.2,0,0,1,2.645-.228,4.06,4.06,0,0,0-2.976.047l-.808-.362s1.212-.238,1.57-.277.374-.135.374-.135a4.208,4.208,0,0,0-2.281.253A9.361,9.361,0,0,1,341.33,800.37Z" transform="translate(-292.018 -645.02)"/><ellipse class="a" cx="6.903" cy="1.166" rx="6.903" ry="1.166" transform="translate(49.126 162.782)"/><path class="b" d="M276.985,777.642s5.5-.331,4.85,3.522a.936.936,0,0,1-.487.99s-.01-.285-.564-.188a2.45,2.45,0,0,1-.6.028,1.225,1.225,0,0,1-.732-.3h0a4.383,4.383,0,0,1-2.15-3.166s-.445-.552-.428-.693l.93.4a1.67,1.67,0,0,0-.069,1.227s.03-1.2.2-1.174c.036,0,.483.232.483.232a2.755,2.755,0,0,0-.133,2.021s-.158-1.437.3-1.93l.653.382a2.886,2.886,0,0,0-.2,2.186,4.1,4.1,0,0,1,.341-2.093l.592.461a2.775,2.775,0,0,0-.232,2s.046-1.756.362-1.887a3.6,3.6,0,0,1,.6.645s-.4.861-.156,1.315c0,0,.156-1.168.285-1.174a3.863,3.863,0,0,1,.568,1.305,2.829,2.829,0,0,0-.445-1.38,1.542,1.542,0,0,1,.79.4s-.079-.548-.917-.6a3.571,3.571,0,0,0-.54-.622,3.379,3.379,0,0,1,1.338.154,1.5,1.5,0,0,0-1.491-.283l-.584-.477a4.835,4.835,0,0,1,1.562.016,1.9,1.9,0,0,0-1.72-.123l-.634-.382a5.772,5.772,0,0,1,1.489-.127,2.281,2.281,0,0,0-1.677.026l-.455-.2s.685-.135.885-.156.212-.077.212-.077a2.383,2.383,0,0,0-1.287.143A5.33,5.33,0,0,1,276.985,777.642Z" transform="translate(-240.737 -626.888)"/><ellipse class="a" cx="3.892" cy="0.659" rx="3.892" ry="0.659" transform="translate(36.143 154.94)"/><path class="b" d="M946.339,795.965s6.638-.4,5.86,4.243a1.14,1.14,0,0,1-.59,1.2s-.012-.346-.681-.228a2.994,2.994,0,0,1-.721.034,1.485,1.485,0,0,1-.881-.364h0s-1.867-.77-2.593-3.821c0,0-.537-.665-.515-.835l1.119.477a2.014,2.014,0,0,0-.081,1.481s.036-1.451.251-1.414c.044,0,.582.279.582.279a3.3,3.3,0,0,0-.162,2.425s-.188-1.734.368-2.328l.788.459a3.478,3.478,0,0,0-.247,2.641,5,5,0,0,1,.4-2.528l.715.558a3.421,3.421,0,0,0-.283,2.425s.059-2.118.438-2.279a4.355,4.355,0,0,1,.719.778s-.5,1.041-.188,1.59c0,0,.188-1.414.344-1.414a4.7,4.7,0,0,1,.687,1.576,3.4,3.4,0,0,0-.536-1.665,1.876,1.876,0,0,1,.954.493s-.1-.661-1.109-.719a4.308,4.308,0,0,0-.651-.752,4.087,4.087,0,0,1,1.617.186,1.819,1.819,0,0,0-1.8-.339l-.705-.576a5.822,5.822,0,0,1,1.885.018,2.294,2.294,0,0,0-2.075-.15l-.768-.459a7,7,0,0,1,1.8-.156,2.753,2.753,0,0,0-2.021.032l-.55-.246s.826-.164,1.069-.188.255-.093.255-.093a2.869,2.869,0,0,0-1.552.172A6.72,6.72,0,0,1,946.339,795.965Z" transform="translate(-774.825 -641.508)"/><ellipse class="a" cx="4.698" cy="0.794" rx="4.698" ry="0.794" transform="translate(171.386 159.517)"/><path class="c" d="M724.367,426.987a14.427,14.427,0,0,1-.22-2.154c0-.867-1.178-1.635-1.178-1.635s-.727-1.683-1.212-1.932a14.833,14.833,0,0,1-1.982-2.451,2,2,0,0,0-.451-1.188,17.074,17.074,0,0,1-1.227-1.851h0c-.2-.247-.1-.42-.4-1.857-.016-.075-.034-.148-.057-.216a.285.285,0,0,0-.032-.093,2.425,2.425,0,0,0,.572-2.512,1.01,1.01,0,0,0-.287-.445c-.341-.279-.887-.164-1.239-.428l.374-1.653c.089-.4.135-.915-.218-1.134a1.837,1.837,0,0,0-.416-.139,1.962,1.962,0,0,1-1.115-1.459,5,5,0,0,1-.121-1.819c.069-.586.24-1.156.3-1.744a4.789,4.789,0,0,0-.742-3.1,2.386,2.386,0,0,0-.98-.925c-.374-.168-.808-.2-1.158-.4-.752-.479-.713-1.617-1.313-2.269a2.593,2.593,0,0,0-2.538-.426,7.662,7.662,0,0,1-2.643.511c-.578-.065-1.12-.327-1.7-.388a1.789,1.789,0,0,0-.5.022v-.018a1.078,1.078,0,0,0-.923.721,1.105,1.105,0,0,0-.028.3c0,.236.057.483.061.709a.675.675,0,0,1-.164.5c-.115.123-.285.188-.4.315a.506.506,0,0,0-.147.372c0,.36.449.677.75.822h.012c-.081.081-.162.166-.236.253a5.322,5.322,0,0,0-1.338,3.534,5.4,5.4,0,0,0,3.281,4.926l-.042.131a7.566,7.566,0,0,1-.3.764,1.513,1.513,0,0,0-1.269.141,3.2,3.2,0,0,1-2.009.3,27.281,27.281,0,0,0-3.688-.372c-.253.1-.752-.346-1.077.249s-.477.915-.808,1.065-.9.618-.827.717-.828.693-.828.693a4.12,4.12,0,0,1-1.229.915,7.213,7.213,0,0,0-1.4.719l-1.105.865s-.827.125-.576-.445-.453-1.287-.453-1.287a20.424,20.424,0,0,1-1.4-3.435,17.478,17.478,0,0,0-1.154-3.1l-.141-.014-.065-.184c-.212-.6-.487-1.328-.7-1.756-.4-.818-.653-.9-.653-.9s-4.866-3.653-8.026-2.54,5.769,4.431,6.571,4.779a1.515,1.515,0,0,1,.624.972,4.158,4.158,0,0,0-1.728,1.554s1.932,4.282,1.982,5.347a20.539,20.539,0,0,0,1.33,4.041,2.818,2.818,0,0,0,3.059,2.079s3.563.655,4.34,0a6.16,6.16,0,0,1,1.857-1.243,1.465,1.465,0,0,0,.7-.5s-1.178,7.426-1.756,8.071-5.684,8.982-3.851,10.473a36.623,36.623,0,0,0,4.589,3.031c.156.077.622-.7,1.289-1.253v.43c.012,2.966.4,7.476.946,8.487.808,1.485.477,4.357.477,4.357a3.434,3.434,0,0,0,1.356.325c.024.1.053.2.079.3a40.37,40.37,0,0,0,1.526,4.943,20.1,20.1,0,0,1,.952,4.334,30.1,30.1,0,0,1,.2,3.688,21.707,21.707,0,0,0,.5,3.233h0c-.2,2.322-.586,6.8-.651,8.416h0v.117a.509.509,0,0,1,0,.055v.1h0a1.509,1.509,0,0,0,.012.305.989.989,0,0,1-.034.461,8.038,8.038,0,0,1-.544,1.3,6.184,6.184,0,0,0-.242.626,1.132,1.132,0,0,0-.586.833c-.25.966-.626,3.637-.626,3.637a6.584,6.584,0,0,1-.451,2.007,2.069,2.069,0,0,0,1.53,2.995,3.089,3.089,0,0,0,3.059-1.132l-.075-6.482v-.012a.981.981,0,0,0,.111-.176v-.016c.014-.03.03-.063.044-.1l.018-.048.032-.079a.122.122,0,0,1,0-.028,4.285,4.285,0,0,0,.182-1.93v-.273a.769.769,0,0,1,.012-.133v-.024l.012-.079v-.034a.15.15,0,0,1,.016-.081.093.093,0,0,1,0-.02c.02-.093.044-.2.071-.291V477.6l.03-.1h0c.03-.1.065-.2.1-.311v-.02a.281.281,0,0,1,.034-.095v-.012c.036-.1.075-.2.111-.287l.01-.026.032-.081.01-.024.077-.18h0l.592,1.829a4.624,4.624,0,0,1,.152,1.683c-.176.321.2,1.659.451,1.683l-.232,1.683a25.716,25.716,0,0,0-.224,2.8c-.016.107-.032.2-.045.267a6.071,6.071,0,0,0,.226,2.2c1.98,2.342,4.34.182,4.34.182s.275-1.239,0-1.485-.152-1.14-.152-1.14.125-2.2.15-3.813a5.038,5.038,0,0,0-1.315-3.031l-.075.067a4.763,4.763,0,0,1-.465-1.7c.1-.57-.277-6.585-.277-6.585a35.686,35.686,0,0,0,.089-4.85h0c.032-.273.063-.542.093-.808.152-1.293.275-2.4.323-2.978h0V462.4c.012-.156.018-.267.016-.319,0-.2,0-.432.02-.685.046-.7.156-1.469.156-1.469l.525-3.195a9.989,9.989,0,0,1,.98-2.425l.069-.109h0c.022-.038.044-.081.069-.125l.01-.018c.022-.042.046-.087.069-.133l.01-.018c.081-.16.168-.344.259-.546,0-.016.014-.03.02-.046l.069-.154a.158.158,0,0,1,.026-.061c.01-.02.042-.1.065-.154a.584.584,0,0,0,.026-.063c.026-.061.054-.123.081-.188l.038-.093c.018-.046.038-.093.059-.139l.049-.123c.014-.03.026-.061.038-.091l.055-.139c0-.02.018-.042.026-.063.144-.358.281-.711.4-1.033h0l.111-.291c1.285.079,2.158.15,2.158.15a29.606,29.606,0,0,0,.275-4.8,17.838,17.838,0,0,1,.317-3.839c.018-.1.034-.188.051-.269l.034.028c.628.5,1.079-1.14,1.079-1.14s-.17-1.526-.4-3.375l-.024-.184a9.5,9.5,0,0,0,1.1.168s.2-.018.479-.053a13.259,13.259,0,0,0,2.413,1.091l1.336-2.465a10.045,10.045,0,0,1,.879-1.461,13.325,13.325,0,0,0,1.807-2.376,8.362,8.362,0,0,1,.978-2.774A6.126,6.126,0,0,0,724.367,426.987Zm-5.569,1.881c-.527.222-1.028,1.461-1.053,1.833s-.578,2-1.154,2.2a7.7,7.7,0,0,0-1.708,1.265c-.166.014-.354.036-.55.069a19.253,19.253,0,0,0-.578-3.116c-.4-.744.443-3.12.443-3.12s.083-2.4.606-2.97.4-2.007.4-2.007.125-.594.176-.865.746,0,.752,0h0a3.287,3.287,0,0,1,1.556,1.855,10.645,10.645,0,0,0,1.681,3.045s-.226.669,0,1.01S719.326,428.646,718.8,428.869Z" transform="translate(-559.468 -321.586)"/><path class="d" d="M707,450.145a4.041,4.041,0,0,1,4.041-1.9v2.892h-1.756l-1.374-.348Z" transform="translate(-583.946 -364.02)"/><path class="e" d="M707,450.145a4.041,4.041,0,0,1,4.041-1.9v2.892h-1.756l-1.374-.348Z" transform="translate(-583.946 -364.02)"/><path class="f" d="M687.274,427.069l-2.152,1.507s-.018-.3-.073-.713c-.107-.78-.348-1.95-.867-2.176-.79-.348-9.586-3.657-6.466-4.771s7.907,2.536,7.907,2.536.247.085.641.9c.2.428.479,1.158.687,1.754C687.143,426.642,687.274,427.069,687.274,427.069Z" transform="translate(-560.048 -342.082)"/><path class="d" d="M712.368,431.625l.244-.115.687.784-.562,1.2-.958-.384.222-.958Z" transform="translate(-567.95 -344.317)"/><path class="g" d="M788.184,811s-.618-.073-.865.891-.618,3.637-.618,3.637a6.576,6.576,0,0,1-.444,2c-.3.372-.592,2.694,1.507,2.989a3.04,3.04,0,0,0,3.015-1.13l-.075-6.48Z" transform="translate(-647.021 -653.507)"/><path class="g" d="M820.09,812.44a5.028,5.028,0,0,1,1.3,3.019c-.024,1.6-.149,3.8-.149,3.8s-.121.891.149,1.138,0,1.483,0,1.483-2.324,2.156-4.276-.182a6.182,6.182,0,0,1-.222-2.2c.158-.861.6-4.73.6-4.73Z" transform="translate(-671.6 -654.661)"/><path class="f" d="M800.8,660.84a41.234,41.234,0,0,1-1.9,4.6,9.89,9.89,0,0,0-.962,2.425l-.519,3.187a17.776,17.776,0,0,0-.174,2.15c.024.717-1.285,11.168-1.285,11.168l-2.075,2.645a6.781,6.781,0,0,0-.766,2.627,3.815,3.815,0,0,1-.4,2.372s-.049,2.425-.123,2.964.273,2.077,0,2.348-3.9.15-4-.3a13.19,13.19,0,0,1,.445-2.595l.321-2.075s.643-1.136.5-1.507.271-1.235.3-1.309.693-1.285.57-1.754.778-10.439.778-10.439l2.544-17.865Z" transform="translate(-649.034 -532.609)"/><path class="e" d="M800.8,660.856s-.2.562-.479,1.3a25.148,25.148,0,0,1-1.425,3.3,10.023,10.023,0,0,0-.964,2.425l-.519,3.189a17.927,17.927,0,0,0-.172,2.15c0,.283-.19,2.087-.432,4.167-.374,3.178-.853,7-.853,7l-2.075,2.645s-.105.2-.236.521a4.848,4.848,0,0,0-.529,2.1,3.829,3.829,0,0,1-.4,2.372s-.051,2.425-.123,2.964.273,2.075,0,2.348-3.9.15-4-.295a13.218,13.218,0,0,1,.445-2.595l.321-2.077s.643-1.136.493-1.507.273-1.235.3-1.309.693-1.285.57-1.754c-.1-.358.4-6.211.636-8.988.079-.873.129-1.441.129-1.441L793.662,662l.178-1.239.178-1.257Z" transform="translate(-649.034 -532.625)"/><path class="f" d="M795.71,702.851c.022.273-3.486.669-3.987.372s0-3.979,0-3.979l.228-1.679c-.245-.026-.616-1.36-.445-1.681a4.705,4.705,0,0,0-.148-1.679l-.582-1.819-.356-1.113a49.456,49.456,0,0,1-1.934-7.628,22.088,22.088,0,0,1-.489-3.221,30.517,30.517,0,0,0-.2-3.682,20.906,20.906,0,0,0-.938-4.324,40.725,40.725,0,0,1-1.5-4.932c-.222-.855-.376-1.469-.376-1.469s3.734-.313,6-.422c1.041-.051,1.772-.057,1.687.028a3.073,3.073,0,0,0-.1,1.192,31.137,31.137,0,0,0,.5,5.48,18.913,18.913,0,0,1,.544,4.769,15.045,15.045,0,0,0-.1,2.471,11.119,11.119,0,0,1,.436,2.681,36.252,36.252,0,0,1-.085,4.827s.37,6.005.271,6.573.79,2.348.79,2.694.247,2.693.247,2.693S795.694,702.58,795.71,702.851Z" transform="translate(-646.169 -537.458)"/><path class="f" d="M811.137,451.614l-.424.459-.277.3-1.617,1.738-4.177.471-2.223-.594-.55-.147s0-1.115.1-2.453c.141-1.716.479-3.8,1.285-4.367a3.211,3.211,0,0,0,.94-1.19,6.705,6.705,0,0,0,.4-1c.016-.044.028-.087.042-.131a11.158,11.158,0,0,0,.392-1.833s.534-.3,1.275-.639c1.934-.9,5.274-2.15,4.112.639a10.911,10.911,0,0,0-.437,1.253c-.018.063-.034.125-.048.186a4.055,4.055,0,0,0,.158,3.013h0a1.881,1.881,0,0,0,.168.257,1.348,1.348,0,0,0,.281.285l.481,3.053.04.253Z" transform="translate(-659.646 -358.399)"/><path class="e" d="M821.2,443.6c-.22.529.107-.432,0,0-.881.626-2.956,2.411-4.122,2.411a3.239,3.239,0,0,1-1.7-.449,11.032,11.032,0,0,0,.434-1.962S822.808,439.748,821.2,443.6Z" transform="translate(-670.426 -358.986)"/><path class="f" d="M810.454,413.027a5.391,5.391,0,0,1-4.823,5.357c-.186.018-.374.03-.564.03a5.387,5.387,0,1,1,5.387-5.387Z" transform="translate(-657.899 -331.657)"/><path class="e" d="M804.126,499.864l-.768,2s-.624.026-1.6.057c-3.288.105-10.532.238-10.855-.606a2.147,2.147,0,0,1-.113-.665,13.028,13.028,0,0,1,.558-3.263s.346-3.954.346-4.126-.3-2.942-.3-2.942l.594-2.223,1.655-1.162s.742,1.138,1.186,1.235a3.083,3.083,0,0,1,1.039.645s1.457.889,1.928.394,4.126-2.669,4.126-2.669l1.928,2.126Z" transform="translate(-650.805 -394.614)"/><path class="h" d="M804.15,501.384l-.768,2s-.624.028-1.6.059h-.095c-.42.014-.9.028-1.415.038a60.874,60.874,0,0,1-8.093-.2c-.707-.1-1.17-.246-1.247-.445a1.8,1.8,0,0,1-.089-.368c-.012-.093-.02-.2-.024-.3a13.032,13.032,0,0,1,.558-3.263s.346-3.954.346-4.126-.3-2.942-.3-2.942l.594-2.223,1.138-.8.517-.364a7.766,7.766,0,0,0,.568.748,1.511,1.511,0,0,0,.618.487,3.092,3.092,0,0,1,1.039.645s1.457.889,1.928.394a37.446,37.446,0,0,1,3.607-2.358c.315-.192.519-.311.519-.311l.259.287,1.669,1.839Z" transform="translate(-650.829 -395.827)"/><path class="e" d="M718.865,448.394l-2.152,1.507s-.018-.3-.073-.713a4.356,4.356,0,0,0,1.9-1.758C718.733,447.967,718.865,448.394,718.865,448.394Z" transform="translate(-591.638 -363.407)"/><path class="d" d="M718.686,454.292l-.469-.125a4.074,4.074,0,0,1-1.212.915,7.075,7.075,0,0,0-1.382.715l-1.089.865s-.808.125-.568-.445-.445-1.285-.445-1.285a20.378,20.378,0,0,1-1.384-3.435,17.27,17.27,0,0,0-1.144-3.088s-1.435,2.793-4.053,1.9c0,0,1.9,4.274,1.952,5.337a20.514,20.514,0,0,0,1.309,4.027,2.789,2.789,0,0,0,3.015,2.077s3.51.653,4.276,0a6.2,6.2,0,0,1,1.819-1.241,1.5,1.5,0,0,0,.691-.493v-2.938Z" transform="translate(-583.898 -364.189)"/><path class="e" d="M743.3,491.33s.618,2.3.222,2.546Z" transform="translate(-612.911 -398.436)"/><path class="e" d="M801.768,559.121c-3.288.105-10.532.236-10.855-.606a2.149,2.149,0,0,1-.113-.665l10.74.566Z" transform="translate(-650.813 -451.515)"/><path class="e" d="M797.948,660.84s-.2.562-.479,1.3c-1.364-.083-3.17-.17-4.886-.182-.606,0-1.2,0-1.762.02a13.271,13.271,0,0,0-2.879.319,7.637,7.637,0,0,1-2.566.331c-.222-.855-.376-1.469-.376-1.469s3.734-.313,6-.422l.178-1.257Z" transform="translate(-646.185 -532.609)"/><path class="g" d="M791.209,571.763l-.42.889s-.059.265-.133.685a17.514,17.514,0,0,0-.311,3.839,30.376,30.376,0,0,1-.273,4.793s-9.093-.766-11.76,0-3.981,0-3.981,0,.323-2.865-.469-4.349c-.54-1.01-.919-5.52-.932-8.487a7.484,7.484,0,0,1,.24-2.615c.544-.667,2.865-7.339,2.865-7.339l.529.028,1.414.075,8.042.424,1.263.067.133.4Z" transform="translate(-636.554 -452.576)"/><path class="d" d="M868.536,592.87l.075.792s-3.983-1.3-3.781-2.892,0-1.414,0-1.414l3.2.271Z" transform="translate(-709.879 -476.65)"/><path class="e" d="M868.536,592.87l.075.792s-3.983-1.3-3.781-2.892,0-1.414,0-1.414l3.2.271Z" transform="translate(-709.879 -476.65)"/><path class="e" d="M754.064,491.953a3.549,3.549,0,0,0,1.4.729.914.914,0,0,1-.4-.2c-.285-.2-.556-.422-.831-.637a2.607,2.607,0,0,0-.772-.533A4.253,4.253,0,0,0,754.064,491.953Z" transform="translate(-621.018 -398.42)"/><path class="e" d="M752.42,495.741a1.785,1.785,0,0,1,.307.487,2.944,2.944,0,0,1-.022,1.53l-.639-1.54c-.111-.263-.222-.525-.356-.776-.059-.107-.426-.554-.384-.647C751.44,494.533,752.3,495.594,752.42,495.741Z" transform="translate(-619.313 -401.168)"/><path class="e" d="M834.818,539.693a2.058,2.058,0,0,0,1.162-.544c-.657.083-1.279.341-1.926.477a2.862,2.862,0,0,1-1.794-.166A4.413,4.413,0,0,0,834.818,539.693Z" transform="translate(-683.895 -436.593)"/><path class="e" d="M823.011,511.734a.451.451,0,0,1-.333-.083q-.74-.424-1.459-.885a9.684,9.684,0,0,1-1.429-.986A7.268,7.268,0,0,0,823.011,511.734Z" transform="translate(-673.945 -413.158)"/><path class="e" d="M837.2,543.462a3.077,3.077,0,0,0,.772-.063,1.034,1.034,0,0,0,.635-.416.364.364,0,0,0-.269.042,4.534,4.534,0,0,1-2.481.3A3.585,3.585,0,0,0,837.2,543.462Z" transform="translate(-686.768 -439.645)"/><path class="e" d="M794.514,601.324a8.1,8.1,0,0,1-1.578.309,9.526,9.526,0,0,1-1.249-.024l-2.021-.127-1.01-.065c-.119,0-.606,0-.366-.24.121-.117.8-.042.97-.048q.5-.016,1.01-.018c.669,0,1.34,0,2.009.04C793.029,601.187,793.766,601.243,794.514,601.324Z" transform="translate(-648.758 -486.033)"/><path class="e" d="M789.479,606.378a8.159,8.159,0,0,0-1.14.234,7.576,7.576,0,0,1-1.192.046,6.647,6.647,0,0,1-2.3-.469C786.392,606.269,787.938,606.315,789.479,606.378Z" transform="translate(-646.065 -490.087)"/><path class="e" d="M783.562,612.1a3.306,3.306,0,0,1,.44.121,5.169,5.169,0,0,0,2.627-.186,1.541,1.541,0,0,1-1,.554,4.619,4.619,0,0,1-1.94.071c-.2-.04-.709-.113-.808-.323C782.719,612.032,783.372,612.074,783.562,612.1Z" transform="translate(-644.476 -494.755)"/><path class="e" d="M804.981,618.494a6.6,6.6,0,0,1,.756.2,6.39,6.39,0,0,0,2.92-.309,13.594,13.594,0,0,1,3.534-.327,3.505,3.505,0,0,0-.758.249c-.273.083-.55.16-.826.228-.544.133-1.1.242-1.651.321a16.971,16.971,0,0,1-3.389.147,4.91,4.91,0,0,1-1.857-.236,2.047,2.047,0,0,1,1.271-.275Z" transform="translate(-661.114 -499.55)"/><path class="e" d="M780.782,464.89a13.053,13.053,0,0,1-.321,3.314c-.117.323-.3.919-.5,1.588-.216.742-.453,1.572-.635,2.223s-.3,1.087-.3,1.087-.835,6.8-1.051,10.037a.79.79,0,0,1-.012.17c-.012.182-.032.372-.063.568-.481,3.217-3.255,8.178-4.187,8.574a2.773,2.773,0,0,0-.784.54,7.483,7.483,0,0,1,.24-2.615c.544-.667,2.865-7.339,2.865-7.339l.529.028c-.012-.093-.02-.2-.024-.3a13.027,13.027,0,0,1,.558-3.263s.346-3.954.346-4.126-.3-2.942-.3-2.942l.594-2.223,1.138-.8c.141-1.716.479-3.8,1.285-4.367a3.211,3.211,0,0,0,.94-1.19c.16.022-.131-.119-.131-.119Z" transform="translate(-636.554 -376.421)"/><path class="d" d="M756.855,462.807a1.471,1.471,0,0,0-1.251.141,3.127,3.127,0,0,1-1.978.3,26.819,26.819,0,0,0-3.637-.372c-.253.1-.742-.346-1.063.249s-.469.913-.79,1.061-.891.618-.808.717-.808.691-.808.691l1.8,5.86s-1.162,7.412-1.73,8.054-5.609,8.97-3.8,10.453a35.91,35.91,0,0,0,4.522,3.031c.2.1.913-1.235,1.9-1.655s4.053-5.981,4.243-9.143,1.063-10.2,1.063-10.2,1.063-3.855,1.433-4.894a13.051,13.051,0,0,0,.321-3.314Z" transform="translate(-612.193 -375.614)"/><path class="e" d="M842.636,502.574l-.42.889s-.059.265-.133.685a.378.378,0,0,1-.2-.091c-.618-.5-4.243-4.225-4.423-7.537-.127-2.443-.067-4.548-.026-5.486.012-.3.024-.473.024-.511h0s2.817-3.411,2.5-4.619-1.063-7.679-1.063-7.679l-.109-.849-.188-1.435-.449-3.472.465.109a1.347,1.347,0,0,0,.281.285l.481,3.053,1.669,1.839.273,11.194-.768,2s-.624.028-1.6.059h-.095Z" transform="translate(-687.981 -383.387)"/><path class="d" d="M845.26,483.512s-.691-.273-.74,0-.174.863-.174.863.123,1.435-.4,2-.606,2.964-.606,2.964-.833,2.372-.438,3.114a19.976,19.976,0,0,1,.588,3.233c.141,1.01.281,2.12.4,3.134.224,1.843.392,3.368.392,3.368s-.447,1.631-1.065,1.136-4.243-4.225-4.421-7.537c-.121-2.326-.073-4.346-.032-5.343.016-.422.032-.661.032-.661s2.817-3.411,2.5-4.621-1.063-7.679-1.063-7.679l-.129-1-.139-1.075-.032-.236-.447-3.435h0a15.37,15.37,0,0,1,3.217,1.01,11.055,11.055,0,0,0,2.627.889,1.976,1.976,0,0,1,1.4,1.439c.022.069.038.141.055.216.3,1.435.2,1.606.4,1.855S845.26,483.512,845.26,483.512Z" transform="translate(-689.049 -382.805)"/><path class="e" d="M854.613,593.384c-1.01-.2-2.51-.669-2.475-1.7.03-.964,1.19-1.311,2.069-1.435C854.348,591.256,854.488,592.37,854.613,593.384Z" transform="translate(-699.756 -477.368)"/><path class="f" d="M858.33,592.008c-.04.087-.2.162-.432.228a11.658,11.658,0,0,1-1.643.269s-3.435-.273-3.387-1.831c.036-1.117,1.588-1.414,2.459-1.481a5.66,5.66,0,0,1,.58-.024S858.477,591.689,858.33,592.008Z" transform="translate(-700.339 -476.505)"/><path class="e" d="M867.309,592.008c-.04.087-.2.162-.432.228-.9-1.2-2.144-2.736-2.756-2.871l.186-.172a5.66,5.66,0,0,1,.58-.024S867.456,591.689,867.309,592.008Z" transform="translate(-709.318 -476.505)"/><path class="d" d="M867.034,497.69l1.01.15a17.566,17.566,0,0,0,1.212,1.853,2.021,2.021,0,0,1,.445,1.186,15.186,15.186,0,0,0,1.952,2.445c.469.247,1.186,1.928,1.186,1.928s1.162.766,1.162,1.631a14.514,14.514,0,0,0,.222,2.15,6.1,6.1,0,0,1-.667,2.425,8.281,8.281,0,0,0-.964,2.764,13.078,13.078,0,0,1-1.778,2.372,10.04,10.04,0,0,0-.865,1.459l-1.309,2.471s-2.768-4.078-3.781-4.3a7.956,7.956,0,0,1,1.7-1.285c.568-.2,1.113-1.819,1.138-2.2s.519-1.606,1.037-1.819.792-.445.57-.792a1.477,1.477,0,0,1,0-1.01,10.667,10.667,0,0,1-1.657-3.031,3.3,3.3,0,0,0-1.532-1.853l-.766-1.879Z" transform="translate(-709.908 -403.511)"/><path class="e" d="M890.164,540.356a3.207,3.207,0,0,1,1.994-.756,2.431,2.431,0,0,0-1.305.511,3.081,3.081,0,0,0-.362.461c-.117.168-1.071,1.38-1.212,1.188C889.043,541.479,889.972,540.519,890.164,540.356Z" transform="translate(-729.362 -436.953)"/><path class="e" d="M882.73,522.022a.855.855,0,0,0,.705-.5,2.8,2.8,0,0,0,.22-.877,13.11,13.11,0,0,1,.305-1.5.7.7,0,0,0-.042-.606,2.048,2.048,0,0,0-.218-.449,2.691,2.691,0,0,0-.309.944c-.093.335-.178.673-.259,1.01C883.09,520.206,882.754,522.022,882.73,522.022Z" transform="translate(-724.167 -419.789)"/><path class="e" d="M820.709,423.928a2.078,2.078,0,0,1-.341.352c-.4.321-.94.592-.99,1.1a1.182,1.182,0,0,1-.061.487c-.129.222-.447.2-.7.16a1.212,1.212,0,0,1-.592-.218c-.265-.226-.289-.63-.491-.915a1.246,1.246,0,0,0-1.01-.447c-.378-.012-.754.073-1.132.089a3.108,3.108,0,0,1-.725-.049,2.294,2.294,0,0,1-.234-.048,3.018,3.018,0,0,1-.493-.168,2.169,2.169,0,0,1-.24-.113,3.2,3.2,0,0,1-.7-.485,1.733,1.733,0,0,1-.647-1.311c.018-.309.158-.594.2-.9a2.819,2.819,0,0,0-1.057-2.322c-.25-.249-.517-.489-.768-.742a3.7,3.7,0,0,1-.9-1.289,3.838,3.838,0,0,1-.162-1.617,11.148,11.148,0,0,0,.046-1.661c-.186-1.964-1.863-3.469-3.54-4.288l-.075-.038a5.385,5.385,0,1,1,7.244,7.881c-.018.063-.034.125-.049.186a4.057,4.057,0,0,0,.158,3.013h0a15.372,15.372,0,0,1,3.217,1.01,11.055,11.055,0,0,0,2.627.889A1.976,1.976,0,0,1,820.709,423.928Z" transform="translate(-663.021 -331.671)"/><path class="g" d="M803.763,398.622c.111-.127.279-.192.392-.315.35-.38,0-1,.127-1.5a1.247,1.247,0,0,1,1.39-.74c.57.059,1.1.321,1.673.386a7.361,7.361,0,0,0,2.6-.509,2.5,2.5,0,0,1,2.5.424c.594.661.554,1.786,1.293,2.265a7.351,7.351,0,0,0,1.142.4,2.346,2.346,0,0,1,.966.923,4.837,4.837,0,0,1,.731,3.094c-.063.586-.232,1.156-.3,1.742a5.073,5.073,0,0,0,.121,1.819,1.938,1.938,0,0,0,1.1,1.455,1.845,1.845,0,0,1,.4.139c.35.218.3.731.214,1.132l-.36,1.659c.346.263.883.15,1.212.426a1.01,1.01,0,0,1,.283.445,2.425,2.425,0,0,1-.725,2.655c-.4.321-.94.592-.99,1.1a1.14,1.14,0,0,1-.061.487c-.127.222-.447.2-.7.16a1.213,1.213,0,0,1-.59-.218c-.267-.226-.289-.63-.491-.915a1.251,1.251,0,0,0-1.01-.447c-.38-.012-.754.073-1.134.091a3.35,3.35,0,0,1-2.382-.861,1.739,1.739,0,0,1-.649-1.313c.018-.307.158-.594.2-.9a2.827,2.827,0,0,0-1.057-2.322,6.158,6.158,0,0,1-1.673-2.031c-.384-1.029-.012-2.176-.115-3.267-.186-1.966-1.861-3.469-3.54-4.29C803.965,399.6,803.328,399.117,803.763,398.622Z" transform="translate(-661.04 -322.213)"/><path class="e" d="M816.915,416.634c-.267-.228-.289-.63-.491-.915a1.255,1.255,0,0,0-1.01-.449c-.38-.012-.756.073-1.134.091a3.34,3.34,0,0,1-2.391-.863,1.733,1.733,0,0,1-.647-1.311c.018-.309.158-.6.2-.9a2.823,2.823,0,0,0-1.057-2.324,6.185,6.185,0,0,1-1.673-2.031c-.382-1.026,0-2.174-.113-3.267-.188-1.966-1.863-3.469-3.54-4.29-.392-.192-1.029-.679-.594-1.174.109-.127.277-.192.39-.315.35-.378,0-1,.129-1.5a.826.826,0,0,1,.127-.277,1.078,1.078,0,0,0-.911.721c-.123.5.222,1.121-.127,1.5-.113.123-.281.188-.392.313-.434.5.2.984.594,1.174,1.679.82,3.354,2.326,3.54,4.29.1,1.093-.269,2.241.115,3.269a6.1,6.1,0,0,0,1.673,2.031,2.8,2.8,0,0,1,1.057,2.322,7.729,7.729,0,0,0-.2.9,1.735,1.735,0,0,0,.649,1.311,3.332,3.332,0,0,0,2.388.863c.38-.018.754-.1,1.134-.091a1.257,1.257,0,0,1,1.01.449c.2.285.224.689.491.915a1.213,1.213,0,0,0,.59.216c.253.046.572.063.7-.158a.546.546,0,0,0,.057-.291,1.163,1.163,0,0,1-.564-.212Z" transform="translate(-660.977 -323.255)"/><path class="b" d="M589.447,112.98H575.47V99.207h13.987Zm-.2-20.766H575.672c0-21.4,20.344-20.152,20.344-33.693a13.494,13.494,0,0,0-13.563-13.433,13.842,13.842,0,0,0-13.561,13.646H555.33a27.124,27.124,0,0,1,54.247-.212c0,16.931-20.342,18.859-20.342,33.693Z" transform="translate(-462.923 -31.61)"/><path class="a" d="M344.486,331.019h-3.6v-3.56h3.6Zm-.055-5.355h-3.5c0-5.516,5.244-5.2,5.244-8.689a3.48,3.48,0,0,0-3.5-3.465,3.571,3.571,0,0,0-3.488,3.516h-3.5a6.993,6.993,0,1,1,13.986-.055c-.011,4.365-5.255,4.862-5.255,8.685Z" transform="translate(-287.673 -253.751)"/><path class="a" d="M479.5,453.461h-3.6v-3.55h3.6Zm-.053-5.353h-3.5c0-5.518,5.244-5.2,5.244-8.689a3.478,3.478,0,0,0-3.5-3.463,3.571,3.571,0,0,0-3.506,3.52h-3.5a6.993,6.993,0,1,1,13.986-.055C484.691,443.786,479.449,444.285,479.449,448.108Z" transform="translate(-395.394 -351.458)"/><path class="a" d="M571.233,259.593H568.62v-2.568h2.613Zm-.038-3.882h-2.534c0-4,3.8-3.765,3.8-6.294a2.522,2.522,0,0,0-2.534-2.51,2.586,2.586,0,0,0-2.534,2.55H564.86a5.068,5.068,0,0,1,10.136-.04C574.991,252.58,571.195,252.941,571.195,255.712Z" transform="translate(-470.528 -201.378)"/><path class="a" d="M802.981,303.983H801.5v-1.455h1.477Zm-.022-2.192h-1.441c0-2.259,2.148-2.128,2.148-3.558a1.414,1.414,0,0,0-1.431-1.414,1.463,1.463,0,0,0-1.433,1.441H799.37a2.865,2.865,0,0,1,5.729-.022C805.107,300.013,802.959,300.225,802.959,301.791Z" transform="translate(-657.651 -242.143)"/><path class="a" d="M914.773,631.454H913.3V630h1.477Zm-.022-2.192h-1.433c0-2.261,2.15-2.128,2.15-3.558a1.425,1.425,0,0,0-1.433-1.415,1.461,1.461,0,0,0-1.433,1.441H911.17a2.865,2.865,0,0,1,5.729-.022c.008,1.784-2.14,1.988-2.14,3.554Z" transform="translate(-746.86 -503.443)"/></g></svg>