<svg xmlns="http://www.w3.org/2000/svg" xmlns:xlink="http://www.w3.org/1999/xlink" width="175.2" height="197.919" viewBox="0 0 175.2 197.919"><defs><style>.a{opacity:0.2;}.b{fill:#3f3d56;}.c{fill:#00a0c6;}.d,.r{opacity:0.1;}.e{fill:url(#a);}.f{opacity:0.9;}.g{fill:#e5e7eb;}.h{fill:#fff;}.i{fill:#ececf3;}.j{opacity:0.4;}.k{fill:#d6d8e0;}.l{fill:url(#b);}.m{opacity:0.5;}.n{fill:url(#c);}.o{fill:#a0616a;}.p{fill:#2d293d;}.q{fill:#f86d70;}</style><linearGradient id="a" x1="0.5" y1="1" x2="0.5" gradientUnits="objectBoundingBox"><stop offset="0" stop-color="gray" stop-opacity="0.251"/><stop offset="0.54" stop-color="gray" stop-opacity="0.122"/><stop offset="1" stop-color="gray" stop-opacity="0.102"/></linearGradient><linearGradient id="b" x1="0.5" y1="1" x2="0.5" y2="0" xlink:href="#a"/><linearGradient id="c" x1="-0.001" y1="0.5" x2="1" y2="0.5" xlink:href="#a"/></defs><g transform="translate(0)"><g class="a" transform="translate(124.083 102.824)"><path class="b" d="M747.673,750.423a6,6,0,0,1-.544.838q-2.708-1.9-5.509-3.739l.121-.24a5.288,5.288,0,0,1,1.873-2.041,3.13,3.13,0,0,1,3.149-.258,3.165,3.165,0,0,1,1.546,2.75A5.31,5.31,0,0,1,747.673,750.423Z" transform="translate(-741.62 -672.609)"/><ellipse class="b" cx="4.394" cy="3.355" rx="4.394" ry="3.355" transform="translate(0.58 73.838) rotate(-62.09)"/><ellipse class="b" cx="4.394" cy="3.355" rx="4.394" ry="3.355" transform="translate(3.094 69.093) rotate(-62.09)"/><ellipse class="b" cx="4.394" cy="3.355" rx="4.394" ry="3.355" transform="translate(5.608 64.348) rotate(-62.09)"/><ellipse class="b" cx="4.394" cy="3.355" rx="4.394" ry="3.355" transform="translate(8.119 59.606) rotate(-62.09)"/><path class="c" d="M761.971,483.961a15.906,15.906,0,0,1-.258-2.211l8.483,2.855-8.46-4.4a16.092,16.092,0,0,1,5.69-11.4l8.2,11.854-6.365-13.183A16.072,16.072,0,1,1,784.3,495.794a16.074,16.074,0,0,1,.258,3.45l-12.884-.1,12.7,2.092a16.072,16.072,0,0,1-9.351,12.111,16.072,16.072,0,1,1-22.329-11.825,16.077,16.077,0,0,1,9.3-17.561Z" transform="translate(-742.739 -465.029)"/><path class="d" d="M782.627,608.468a16.013,16.013,0,0,1-7.689,7.171,16.072,16.072,0,1,1-22.329-11.825C751.985,600.389,783.472,606.873,782.627,608.468Z" transform="translate(-742.68 -567.32)"/></g><g class="a" transform="translate(0 0.315)"><path class="b" d="M476.085,659.13a11.154,11.154,0,0,0,.616,1.817q5.955-2.28,12.047-4.381c-.036-.165-.072-.335-.113-.515a10.187,10.187,0,0,0-2.533-4.7,5.613,5.613,0,0,0-9.931,2.414A10.193,10.193,0,0,0,476.085,659.13Z" transform="translate(-420.191 -499.249)"/><ellipse class="b" cx="6.46" cy="8.455" rx="6.46" ry="8.455" transform="translate(51.446 141.612) rotate(-13.72)"/><ellipse class="b" cx="6.46" cy="8.455" rx="6.46" ry="8.455" transform="translate(48.992 131.572) rotate(-13.72)"/><ellipse class="b" cx="6.46" cy="8.455" rx="6.46" ry="8.455" transform="translate(46.542 121.532) rotate(-13.72)"/><ellipse class="b" cx="6.46" cy="8.455" rx="6.46" ry="8.455" transform="translate(44.092 111.494) rotate(-13.72)"/><path class="c" d="M319.177,110.971a30.583,30.583,0,0,0,1.5-4.01l-17.149,1.317L321.4,104.05a31,31,0,0,0-5.239-23.965l-20.9,18.26,18.105-21.6a30.94,30.94,0,1,0-41.439,45.752,30.751,30.751,0,0,0-2.09,6.318l24.117,5.9-24.686-2.092A30.959,30.959,0,0,0,281,159.674a30.94,30.94,0,1,0,47.252-11.531A30.943,30.943,0,0,0,319.177,110.971Z" transform="translate(-260.093 -67.221)"/><path class="d" d="M298.636,355.744A30.8,30.8,0,0,0,309.6,372.752a30.94,30.94,0,1,0,47.252-11.531C359.636,355.128,297.812,352.371,298.636,355.744Z" transform="translate(-288.698 -280.315)"/></g><path class="e" d="M540.467,109.358h-.575V78.369A12.466,12.466,0,0,0,527.328,66H456.946a12.47,12.47,0,0,0-12.565,12.369V91.215h-.168a.734.734,0,0,0-.74.727v6.184a.734.734,0,0,0,.74.727h.18v6.316h-.227a.732.732,0,0,0-.737.727V117.72a.734.734,0,0,0,.737.729h.227v4.638h-.2a.732.732,0,0,0-.74.727v11.941a.732.732,0,0,0,.74.727h.2V244.809a12.466,12.466,0,0,0,12.565,12.369h70.367a12.47,12.47,0,0,0,12.565-12.369V132.535h.577a.734.734,0,0,0,.74-.727V110.085A.734.734,0,0,0,540.467,109.358Z" transform="translate(-396.187 -66)"/><g class="f" transform="translate(48.635 1.288)"><rect class="g" width="2.775" height="22.888" rx="1.388" transform="translate(92.342 42.83)"/><rect class="g" width="1.559" height="7.535" rx="0.78" transform="translate(0.057 24.9)"/><rect class="g" width="1.757" height="13.114" rx="0.879" transform="translate(0 38.694)"/><rect class="g" width="1.672" height="13.227" rx="0.836" transform="translate(0.028 56.397)"/><rect class="h" width="92.901" height="188.81" rx="38.99" transform="translate(0.938)"/><rect class="g" width="12.975" height="2.634" rx="1.317" transform="translate(38.429 5.638)"/><circle class="g" cx="1.495" cy="1.495" r="1.495" transform="translate(53.362 5.46)"/></g><path class="i" d="M548.789,90.09H538.154v1.288a6.076,6.076,0,0,1-6.076,6.074H498.171a6.076,6.076,0,0,1-6.076-6.074V90.09h-9.978a7.378,7.378,0,0,0-7.378,7.378V261.686a7.378,7.378,0,0,0,7.378,7.378h66.671a7.378,7.378,0,0,0,7.378-7.378V97.468A7.378,7.378,0,0,0,548.789,90.09Z" transform="translate(-419.428 -83.882)"/><ellipse class="c" cx="14.737" cy="2.492" rx="14.737" ry="2.492" transform="translate(7.725 191.675)"/><path class="c" d="M331.618,784.087a4.314,4.314,0,0,0,1.4-2.121,1.889,1.889,0,0,0-.982-2.159c-.9-.345-1.866.278-2.595.91a3.471,3.471,0,0,1-2.525,1.219,3.84,3.84,0,0,0,1.188-3.608,1.487,1.487,0,0,0-.33-.729c-.5-.536-1.407-.307-2.007.116-1.9,1.34-2.438,3.93-2.448,6.262a11.791,11.791,0,0,1-.036-2.577,2.656,2.656,0,0,0-.966-2.283,2.935,2.935,0,0,0-1.479-.345,3.061,3.061,0,0,0-2.394.68,2.382,2.382,0,0,0,.093,2.943,9.255,9.255,0,0,0,2.481,1.987,5.5,5.5,0,0,1,1.77,1.69,1.524,1.524,0,0,1,.131.3h5.368A15.044,15.044,0,0,0,331.618,784.087Z" transform="translate(-303.062 -593.997)"/><g class="j" transform="translate(151.336 174.244)"><ellipse class="c" cx="8.411" cy="1.422" rx="8.411" ry="1.422" transform="translate(0 4.792)"/><path class="c" d="M871.088,746.073a2.459,2.459,0,0,0,.8-1.209,1.08,1.08,0,0,0-.562-1.234,1.585,1.585,0,0,0-1.482.515c-.417.356-.894.773-1.44.7a2.188,2.188,0,0,0,.678-2.062.839.839,0,0,0-.188-.415c-.286-.307-.8-.175-1.144.064a4.289,4.289,0,0,0-1.4,3.574,6.847,6.847,0,0,1-.018-1.472,1.525,1.525,0,0,0-.554-1.3,1.679,1.679,0,0,0-.843-.2,1.755,1.755,0,0,0-1.368.386,1.361,1.361,0,0,0,.054,1.68,5.26,5.26,0,0,0,1.417,1.134,3.168,3.168,0,0,1,1.01.964.872.872,0,0,1,.075.173h3.066a8.5,8.5,0,0,0,1.894-1.3Z" transform="translate(-859.201 -742.185)"/></g><g class="j" transform="translate(22.513 158.259)"><ellipse class="c" cx="8.411" cy="1.422" rx="8.411" ry="1.422" transform="translate(0 4.792)"/><path class="c" d="M371.178,684.041a2.429,2.429,0,0,0,.8-1.211,1.075,1.075,0,0,0-.562-1.232,1.578,1.578,0,0,0-1.479.515,2,2,0,0,1-1.44.7,2.2,2.2,0,0,0,.678-2.062.871.871,0,0,0-.188-.417c-.286-.3-.8-.173-1.147.067a4.274,4.274,0,0,0-1.4,3.571,6.67,6.67,0,0,1-.021-1.471,1.476,1.476,0,0,0-.551-1.288,1.664,1.664,0,0,0-.845-.2,1.74,1.74,0,0,0-1.366.389,1.361,1.361,0,0,0,.054,1.68,5.332,5.332,0,0,0,1.415,1.134,3.115,3.115,0,0,1,1.01.964,1.061,1.061,0,0,1,.077.173h3.064A8.576,8.576,0,0,0,371.178,684.041Z" transform="translate(-359.288 -680.153)"/></g><rect class="k" width="13.165" height="13.165" transform="translate(61.558 19.842)"/><rect class="k" width="27.583" height="2.507" transform="translate(84.438 20.782)"/><rect class="k" width="45.448" height="2.507" transform="translate(84.438 25.171)"/><rect class="k" width="45.448" height="2.507" transform="translate(84.438 29.559)"/><rect class="k" width="13.165" height="13.165" transform="translate(61.658 43.977)"/><rect class="k" width="27.583" height="2.507" transform="translate(84.538 44.917)"/><rect class="k" width="45.448" height="2.507" transform="translate(84.538 49.306)"/><rect class="k" width="45.448" height="2.507" transform="translate(84.538 53.692)"/><rect class="k" width="13.165" height="13.165" transform="translate(61.759 68.112)"/><rect class="k" width="27.583" height="2.507" transform="translate(84.642 69.05)"/><rect class="k" width="45.448" height="2.507" transform="translate(84.642 73.438)"/><rect class="k" width="45.448" height="2.507" transform="translate(84.642 77.827)"/><rect class="k" width="13.165" height="13.165" transform="translate(61.859 92.244)"/><rect class="k" width="27.583" height="2.507" transform="translate(84.742 93.185)"/><rect class="k" width="45.448" height="2.507" transform="translate(84.742 97.573)"/><rect class="k" width="45.448" height="2.507" transform="translate(84.742 101.961)"/><rect class="k" width="13.165" height="13.165" transform="translate(61.963 116.379)"/><rect class="k" width="27.583" height="2.507" transform="translate(84.843 117.32)"/><rect class="k" width="45.448" height="2.507" transform="translate(84.843 121.708)"/><rect class="k" width="45.448" height="2.507" transform="translate(84.843 126.096)"/><rect class="k" width="13.165" height="13.165" transform="translate(62.063 140.514)"/><rect class="k" width="27.583" height="2.507" transform="translate(84.943 141.455)"/><rect class="k" width="45.448" height="2.507" transform="translate(84.943 145.843)"/><rect class="k" width="45.448" height="2.507" transform="translate(84.943 150.231)"/><rect class="k" width="13.165" height="13.165" transform="translate(62.164 164.649)"/><rect class="k" width="27.583" height="2.507" transform="translate(85.044 165.589)"/><rect class="k" width="45.448" height="2.507" transform="translate(85.044 169.978)"/><rect class="k" width="45.448" height="2.507" transform="translate(85.044 174.366)"/><rect class="l" width="112.21" height="27.895" transform="translate(39.92 59.539)"/><rect class="h" width="111.269" height="26.642" transform="translate(40.546 60.167)"/><rect class="c" width="13.165" height="13.165" transform="translate(62.017 66.906)"/><g class="m" transform="translate(84.899 67.846)"><rect class="c" width="27.583" height="2.507"/><rect class="c" width="45.448" height="2.507" transform="translate(0 4.388)"/><rect class="c" width="45.448" height="2.507" transform="translate(0 8.777)"/></g><path class="n" d="M456.52,386.433a2.293,2.293,0,0,0-2.708-.412,3.977,3.977,0,0,0-1.345,1.822,14.1,14.1,0,0,0-1.4,3.108c-.6,3.069-3.038,5.453-4.017,8.419a16.719,16.719,0,0,1-1.069,3.162,10.066,10.066,0,0,1-.876,1.206,33.96,33.96,0,0,0-3.35,5.11,4.112,4.112,0,0,0-1.526.948,5.264,5.264,0,0,1-2.061.977,1.944,1.944,0,0,0-.845.309c-.356.3-.4.83-.693,1.188a1.851,1.851,0,0,1-.773.515c0-.09-.013-.18-.016-.273-.013-.477-.021-.956-.021-1.435a5.4,5.4,0,0,0-.015-7,10.56,10.56,0,0,1,.3-2.214.983.983,0,0,0-.209-1.015c-.142-.111-.325-.152-.477-.258a2.078,2.078,0,0,1-.515-.654,2.783,2.783,0,0,0-3.5-.894c-.93.49-1.495,1.469-2.319,2.134-.423.34-.91.6-1.332.938a5.532,5.532,0,0,0-1.724,2.8,16.057,16.057,0,0,0-.469,3.309,2.986,2.986,0,0,0,.039,1.005,2.656,2.656,0,0,0,.379.773,8.663,8.663,0,0,0,3.2,3.053,1.252,1.252,0,0,1,0,.2,1.425,1.425,0,0,1-.057.307l-.149-.041a5.912,5.912,0,0,1-1.641-.384c-.845-.474-1.1-1.631-1.91-2.162a1.462,1.462,0,0,0-.216-.116,14.46,14.46,0,0,0-.83-4.3,5.356,5.356,0,0,1-.492-2.036,5.007,5.007,0,0,1,.621-1.843,46.833,46.833,0,0,0,2.319-6.347q.642-2.028,1.288-4.059a6.391,6.391,0,0,0,1.131-1.077,5.744,5.744,0,0,0,1.312-2.817,3.989,3.989,0,0,0-.724-2.979,1.722,1.722,0,0,0-1.211-.742,1.575,1.575,0,0,0-1.131.515,5.029,5.029,0,0,0-.969,1.665,7.43,7.43,0,0,0-.809,3.115c.034.9.368,1.9-.155,2.628a62.874,62.874,0,0,0-4.365,7.749,13.851,13.851,0,0,0-.881,1.943,10.82,10.82,0,0,0-.461,3.35,44.929,44.929,0,0,0,.567,6.349,8.16,8.16,0,0,0,.75,2.783,11.669,11.669,0,0,0-.461,3.133,1.787,1.787,0,0,0,.113.719,2.966,2.966,0,0,0,.57.716,3.209,3.209,0,0,1,.773,2.536,7.2,7.2,0,0,0,.229,2.541c.515,2.288,1.031,4.574,1.443,6.88a4.4,4.4,0,0,1,.1,1.309,7.715,7.715,0,0,0-.351,1.843,6.97,6.97,0,0,1,.165.881,2.176,2.176,0,0,1-.155.66c-.588,1.708-2.167,5.625-2.149,7.434l.412-.1c-.415,2.347-1.386,4.592-1.9,6.932a23.191,23.191,0,0,0-.479,5.185,19.247,19.247,0,0,1-.041,2.345c-.08.693-.258,1.371-.356,2.061a18.676,18.676,0,0,0-.124,2.791,28.509,28.509,0,0,0,.258,4.381c.394,2.474-.3,4.932-.484,7.429a44.664,44.664,0,0,1-.593,5.21c-.142.727-.32,1.448-.417,2.183-.289,2.18.131,4.427-.322,6.579-.214,1.008-.6,2.139-.034,3,.178.271.433.482.626.742a.943.943,0,0,1,.18.91c-.111.237-.368.392-.433.644-.1.4.312.722.683.892l.106.041a.956.956,0,0,0,.2.773,1.638,1.638,0,0,0,.791.412l4.865,1.474a6.49,6.49,0,0,0,3.35.387.843.843,0,0,0,.193.418,1.64,1.64,0,0,0,.791.412l4.829,1.464a5.638,5.638,0,0,0,3.8.237,2.158,2.158,0,0,0,.871-.657,2.3,2.3,0,0,0,.309-1.925,1.569,1.569,0,0,0-.469-.861,2.061,2.061,0,0,0-1.124-.368,2.27,2.27,0,0,1-.984-.258.708.708,0,0,1-.224-.234q.417-.412.809-.856c-.211-.072-.286-.376-.307-.6-.307-3.283.93-6.491,1.4-9.753a20.876,20.876,0,0,0,.124-4.942c-.057-.621-.142-1.24-.167-1.863-.121-3.247,1.43-6.37,1.376-9.619-.026-1.52.773-3.02,1.162-4.492a16.254,16.254,0,0,0,.358-4.02l.062-10.632a13.3,13.3,0,0,0-.459-4.267,5.411,5.411,0,0,1-.186-2.335c1.312-.58,2.554-1.438,3.955-1.288.374-.992-.07-4.3-.42-5.3a22.794,22.794,0,0,1-.773-12.276c.317-1.466-.119-3.025.234-4.486a2.715,2.715,0,0,1,.384-.964,1.031,1.031,0,0,1,.884-.466c0-.894-.018-1.8-.077-2.711a6.444,6.444,0,0,0,1.435-1.652,25.481,25.481,0,0,0,1.747-4.141c.946-2.474,2.237-4.8,3.322-7.215s1.191-5.066,2.061-7.571a5.69,5.69,0,0,1,2.77-3.19,4.421,4.421,0,0,0,1.438-.866,2.319,2.319,0,0,0,.5-1.229A3.25,3.25,0,0,0,456.52,386.433ZM426.37,492.891c.106-.116.209-.232.307-.358-.325-.052-.722-.289-.729-.618a3.417,3.417,0,0,1,.211-.966,3.865,3.865,0,0,0,.072-1.716c-.072-.4-.206-.773-.289-1.18a11.014,11.014,0,0,1-.155-1.335,22.08,22.08,0,0,0-.938-4.731c-.466-1.492.173-3,.338-4.556a8.975,8.975,0,0,1,.3-2.19c.152-.412.4-.773.554-1.191a5.448,5.448,0,0,0-.072-3.017c1.526-2.765,2.031-6.063,2.605-9.176l.969-5.239a5.1,5.1,0,0,1,.773-2.211,27.165,27.165,0,0,1,.587,7.045,10.462,10.462,0,0,0,.026,2.062c.119.75.43,1.459.611,2.2a26.763,26.763,0,0,1,.258,5.007c.034.675.121,1.35.149,2.025.126,2.987-.874,5.891-1.86,8.712a32.333,32.333,0,0,0-1.031,5.507c-.273,1.734-.544,3.471-.683,5.221-.041.533-.075,1.082-.139,1.623a4.249,4.249,0,0,0-.5-.08,2.271,2.271,0,0,1-.984-.258,1.147,1.147,0,0,1-.379-.575Z" transform="translate(-376.614 -302.546)"/><path class="b" d="M467.5,814.474a2.091,2.091,0,0,1,1.124.366,1.565,1.565,0,0,1,.469.856,2.278,2.278,0,0,1-.309,1.915,2.138,2.138,0,0,1-.871.649,5.621,5.621,0,0,1-3.8-.232l-4.865-1.466a1.634,1.634,0,0,1-.791-.41,1.072,1.072,0,0,1-.021-1.25,2.441,2.441,0,0,1,1.031-.822,11.585,11.585,0,0,1,4.9-.938c.618-.013,1.227-.147,1.647.33.222.258.183.531.515.75A2.232,2.232,0,0,0,467.5,814.474Z" transform="translate(-407.187 -620.593)"/><path class="b" d="M431.833,804.093a2.063,2.063,0,0,1,1.124.363,1.589,1.589,0,0,1,.469.855,2.275,2.275,0,0,1-.309,1.915,2.144,2.144,0,0,1-.871.652,5.622,5.622,0,0,1-3.8-.234l-4.865-1.466a1.613,1.613,0,0,1-.791-.41,1.072,1.072,0,0,1-.021-1.25,2.423,2.423,0,0,1,1.031-.822,11.555,11.555,0,0,1,4.883-.938c.616,0,1.227-.147,1.647.33.222.258.183.533.515.75A2.268,2.268,0,0,0,431.833,804.093Z" transform="translate(-380.709 -612.89)"/><path class="b" d="M431.891,600.467a59.924,59.924,0,0,0-8.627-.242,1.692,1.692,0,0,0-.559.088c-.634.258-.732,1.087-.794,1.768-.242,2.75-1.456,5.313-2.062,8.011a22.877,22.877,0,0,0-.479,5.154,18.946,18.946,0,0,1-.041,2.319c-.08.691-.258,1.363-.356,2.062a18.433,18.433,0,0,0-.124,2.773,28.13,28.13,0,0,0,.258,4.347c.394,2.458-.3,4.9-.484,7.38a44.147,44.147,0,0,1-.593,5.177c-.142.721-.32,1.438-.417,2.167-.289,2.167.131,4.4-.322,6.538-.214,1-.6,2.123-.034,2.979.178.271.433.479.626.737a.936.936,0,0,1,.18.9c-.111.234-.368.389-.433.639-.1.394.312.719.683.886a7.119,7.119,0,0,0,8.287-2.049c-.325-.052-.722-.286-.729-.613a3.384,3.384,0,0,1,.211-.961,3.813,3.813,0,0,0,.072-1.706c-.072-.394-.206-.773-.289-1.172a10.859,10.859,0,0,1-.155-1.324,21.807,21.807,0,0,0-.938-4.7c-.466-1.482.173-2.981.337-4.528a8.88,8.88,0,0,1,.3-2.175c.152-.41.4-.773.554-1.183a5.377,5.377,0,0,0-.072-3c1.525-2.75,2.031-6.025,2.605-9.117l.969-5.205a5.028,5.028,0,0,1,.773-2.2,26.822,26.822,0,0,1,.587,7,10.316,10.316,0,0,0,.026,2.033c.119.745.43,1.448.611,2.183a26.4,26.4,0,0,1,.258,4.973c.034.67.121,1.34.149,2.013.126,2.966-.874,5.852-1.861,8.653a31.968,31.968,0,0,0-1.031,5.471c-.273,1.724-.544,3.448-.683,5.187-.126,1.6-.18,3.327-1.175,4.582a8.431,8.431,0,0,0,2.909,1.394,5.4,5.4,0,0,0,3.59-.693,11.337,11.337,0,0,0,2.835-2.412c-.211-.072-.286-.376-.307-.6-.307-3.26.93-6.442,1.4-9.689a20.614,20.614,0,0,0,.124-4.911c-.057-.616-.142-1.229-.167-1.848-.121-3.226,1.43-6.331,1.376-9.558-.026-1.51.773-3,1.162-4.463a16.009,16.009,0,0,0,.358-3.992l.062-10.565a13.145,13.145,0,0,0-.459-4.242c-.567-1.621.08-3.487.178-5.2A21.447,21.447,0,0,1,431.891,600.467Z" transform="translate(-376.54 -462.061)"/><path class="o" d="M510.044,415.879a33.689,33.689,0,0,1,3.945-6.231,10.16,10.16,0,0,0,.876-1.2,16.536,16.536,0,0,0,1.069-3.141c.979-2.948,3.422-5.316,4.017-8.365a14.156,14.156,0,0,1,1.4-3.092,3.9,3.9,0,0,1,1.345-1.8,2.293,2.293,0,0,1,2.708.412,3.211,3.211,0,0,1,.827,2.719,2.27,2.27,0,0,1-.5,1.221,4.475,4.475,0,0,1-1.438.863,5.643,5.643,0,0,0-2.77,3.167c-.861,2.489-.969,5.123-2.061,7.522s-2.376,4.705-3.322,7.161a24.683,24.683,0,0,1-1.747,4.123,5.075,5.075,0,0,1-3.494,2.561,8.778,8.778,0,0,0-.433-2.742C510.16,418.036,509.575,416.827,510.044,415.879Z" transform="translate(-445.505 -307.826)"/><path class="o" d="M433.176,414.689a14.287,14.287,0,0,0-.835-5.355,5.3,5.3,0,0,1-.492-2.023,4.942,4.942,0,0,1,.621-1.83,46.331,46.331,0,0,0,2.319-6.308l1.288-4.03a6.44,6.44,0,0,0,1.131-1.069,5.706,5.706,0,0,0,1.312-2.8,3.948,3.948,0,0,0-.724-2.961,1.711,1.711,0,0,0-1.211-.734,1.559,1.559,0,0,0-1.131.515,4.984,4.984,0,0,0-.969,1.654,7.341,7.341,0,0,0-.809,3.092c.034.892.369,1.886-.154,2.61a62.421,62.421,0,0,0-4.365,7.7,13.719,13.719,0,0,0-.881,1.93,10.7,10.7,0,0,0-.461,3.334,44.337,44.337,0,0,0,.567,6.308,5.636,5.636,0,0,0,1.415,3.608A21.093,21.093,0,0,1,433.176,414.689Z" transform="translate(-384.592 -304.713)"/><circle class="o" cx="5.347" cy="5.347" r="5.347" transform="translate(49.795 100.289)"/><path class="o" d="M456.97,487.892a7.135,7.135,0,0,1-1.152,2.667c-.307.515-.693,1.064-1.288,1.121a25.771,25.771,0,0,0,4.855,1.953,5.519,5.519,0,0,0,1.776.286,4.337,4.337,0,0,0,1.477-.379,7.332,7.332,0,0,0,4.159-4.9,9.653,9.653,0,0,1-1.984-.152,1.465,1.465,0,0,1-.974-.477,1.569,1.569,0,0,1-.2-.863q-.039-1.337,0-2.675a10.565,10.565,0,0,0-3.886.477c-.515.167-1.031.371-1.559.5-.325.08-1.219,0-1.458.188C456.37,485.931,457.066,487.234,456.97,487.892Z" transform="translate(-404.426 -376.625)"/><path class="c" d="M441.967,488.344a3.363,3.363,0,0,0-2.556-2.984,5.914,5.914,0,0,1-1.641-.381c-.845-.472-1.1-1.621-1.909-2.149a2.258,2.258,0,0,0-2.67.435,5.751,5.751,0,0,0-1.353,2.546,12.817,12.817,0,0,0-.693,3.9,1.771,1.771,0,0,0,.113.716,3.008,3.008,0,0,0,.57.714,3.165,3.165,0,0,1,.773,2.515,7.121,7.121,0,0,0,.229,2.528c.515,2.27,1.031,4.543,1.443,6.834a4.351,4.351,0,0,1,.1,1.288,7.627,7.627,0,0,0-.351,1.827,6.927,6.927,0,0,1,.165.879,2.131,2.131,0,0,1-.155.652c-.588,1.7-2.167,5.592-2.149,7.388a44.694,44.694,0,0,1,9.622-.871,20.221,20.221,0,0,1,2.337.1c1.863.2,3.77.742,5.576.24,1.675-.466,3.162-1.8,4.9-1.634.374-.987-.07-4.273-.42-5.267a22.507,22.507,0,0,1-.773-12.2c.317-1.459-.119-3,.235-4.455a2.67,2.67,0,0,1,.384-.959,1.031,1.031,0,0,1,.884-.464,32.831,32.831,0,0,0-.644-6.94c-.173-.812-.531-1.77-1.348-1.909-.737-.124-1.358.5-1.948.956a5.324,5.324,0,0,1-2.062.969,1.94,1.94,0,0,0-.845.307c-.356.294-.4.825-.693,1.183-.515.642-1.667.585-2.033,1.325a4.636,4.636,0,0,0-.2.678,2.479,2.479,0,0,1-.848,1.1A4.782,4.782,0,0,1,441.967,488.344Z" transform="translate(-387.065 -373.829)"/><path class="p" d="M460.476,444.98a.978.978,0,0,0-.209-1.01c-.142-.111-.325-.152-.477-.258a2.061,2.061,0,0,1-.515-.652,2.8,2.8,0,0,0-3.507-.884c-.93.487-1.495,1.461-2.319,2.121-.423.34-.91.593-1.332.93a5.5,5.5,0,0,0-1.724,2.788,15.866,15.866,0,0,0-.466,3.291,2.954,2.954,0,0,0,.039,1,2.625,2.625,0,0,0,.379.76,8.573,8.573,0,0,0,3.376,3.123,5.235,5.235,0,0,0,4.5.08.8.8,0,0,0,.345-.278.969.969,0,0,0,.052-.6,4.083,4.083,0,0,1,.451-2.278c.258-.515.642-.959.85-1.495a5.31,5.31,0,0,0,.242-1.85A19.833,19.833,0,0,1,460.476,444.98Z" transform="translate(-400.99 -345.029)"/><rect class="c" width="13.165" height="13.165" transform="translate(61.963 67.063)"/><path class="o" d="M522.158,360.635a1.729,1.729,0,0,1-.892.809,2.214,2.214,0,0,1-.709.134,2,2,0,0,1-.773-.1,1.775,1.775,0,0,1-.817-.652,4.126,4.126,0,0,1-.474-.948,1.054,1.054,0,0,1-.1-.536.773.773,0,0,0,.516-.291.652.652,0,0,0,.013-.515c-.015-.051-.031-.1-.049-.147-.039-.113-.173-.327-.08-.423s.309-.093.394-.131a3.719,3.719,0,0,1,.8-.358,1.948,1.948,0,0,1,.76.049.259.259,0,0,1,.1.036.223.223,0,0,1,.07.1c.072.175.113.368.17.549a1.132,1.132,0,0,0,.284.5,1.421,1.421,0,0,0,.394.237l.345.157a.494.494,0,0,1,.162.106.429.429,0,0,1,.077.211A1.977,1.977,0,0,1,522.158,360.635Z" transform="translate(-451.834 -282.357)"/><path class="d" d="M522.148,358.248a1.791,1.791,0,0,1-2.162.322c-.015-.052-.031-.1-.049-.147-.039-.113-.173-.327-.08-.423s.309-.093.394-.131a3.715,3.715,0,0,1,.8-.358,1.947,1.947,0,0,1,.76.049.257.257,0,0,1,.1.036.222.222,0,0,1,.07.1C522.051,357.882,522.092,358.067,522.148,358.248Z" transform="translate(-452.896 -282.38)"/><circle class="o" cx="1.788" cy="1.788" r="1.788" transform="translate(66.176 72.763)"/><path class="q" d="M518.486,366.9H510.07c-.258-.575-.49-1.152-.75-1.727h0a1.2,1.2,0,0,1,.152-.387.42.42,0,0,1,.345-.193c.075,0,.16.028.214-.026s.036-.1.075-.134a.315.315,0,0,1,.2-.031.467.467,0,0,0,.4-.2.632.632,0,0,1,.1-.131.574.574,0,0,1,.217-.057c.209-.046.332-.258.49-.389a.294.294,0,0,1,.309-.085.19.19,0,0,1,.064.054.583.583,0,0,1,.085.214,1.912,1.912,0,0,0,.672,1.085,1.526,1.526,0,0,0,2.3-.575,3,3,0,0,0,.211-.977V363.3a.737.737,0,0,1,.613.121,3.468,3.468,0,0,0,.546.343c.229.09.515.09.672.258.067.067.113.16.2.2a.593.593,0,0,0,.165.039.977.977,0,0,1,.647.567,4.417,4.417,0,0,1,.361,1.3Z" transform="translate(-445.097 -286.672)"/><path class="b" d="M515.08,343.093a1.354,1.354,0,0,0-.312.361,1.776,1.776,0,0,1-.624.613.774.774,0,0,0-.286.178.477.477,0,0,0-.075.2,3.775,3.775,0,0,0-.08.76.812.812,0,0,0,.062.376c.052.108.149.2.167.32a.931.931,0,0,1-.031.278.242.242,0,0,0,.1.258.652.652,0,0,0,.144.034c.258.057.345.361.384.611.088,0,.126-.106.147-.188l.258-1.2c.031-.129.077-.281.209-.325a.652.652,0,0,1,.273,0c.356.031.654-.245,1-.322a1.363,1.363,0,0,1,.34-.021c.273,0,.593.126.652.381a.128.128,0,0,0,.054.113.216.216,0,0,0,.121,0c.173-.018.276.178.327.338l.18.585c.028.088.075.193.17.2a.18.18,0,0,0,.178-.157.713.713,0,0,0-.036-.258,2.79,2.79,0,0,1,.126-1.157,1.267,1.267,0,0,0-.175-1.121c-.1-.106-.227-.186-.317-.3s-.131-.235-.219-.34a2.25,2.25,0,0,0-1.25-.546A2.562,2.562,0,0,0,515.08,343.093Z" transform="translate(-448.35 -271.444)"/><g class="r" transform="translate(65.354 73.059)"><path d="M518.856,352.085c-.1,0-.142-.116-.17-.2l-.18-.585c-.052-.16-.155-.356-.327-.34a.217.217,0,0,1-.121,0c-.039-.021-.044-.07-.054-.113-.059-.258-.379-.369-.652-.381a1.255,1.255,0,0,0-.34.023c-.348.075-.647.35-1,.32a.752.752,0,0,0-.273,0c-.131.046-.178.2-.209.327-.09.4-.178.8-.258,1.2-.021.082-.059.183-.147.188-.039-.258-.126-.554-.384-.611a.536.536,0,0,1-.144-.034.163.163,0,0,1-.075-.085.85.85,0,0,1-.021.111.242.242,0,0,0,.1.258.66.66,0,0,0,.144.033c.258.057.345.361.384.611.088,0,.126-.106.147-.188.09-.4.178-.8.258-1.2.031-.129.077-.281.209-.325a.652.652,0,0,1,.273,0c.356.031.654-.245,1-.322a1.37,1.37,0,0,1,.34-.021c.273,0,.593.126.652.381a.129.129,0,0,0,.054.113.216.216,0,0,0,.121,0c.173-.018.276.178.327.338l.18.585c.028.088.075.193.17.2a.18.18,0,0,0,.178-.157.515.515,0,0,0-.026-.206A.16.16,0,0,1,518.856,352.085Z" transform="translate(-514.29 -350.217)"/><path d="M513.94,352.3c-.018-.119-.116-.211-.167-.32a.653.653,0,0,1-.059-.232v.129a.811.811,0,0,0,.062.376c.041.088.113.165.149.258A.575.575,0,0,0,513.94,352.3Z" transform="translate(-513.711 -351.175)"/><path d="M532.046,349.819a3.352,3.352,0,0,0-.147,1.031,6.26,6.26,0,0,1,.147-.752,1.971,1.971,0,0,0,.044-.577A2.32,2.32,0,0,1,532.046,349.819Z" transform="translate(-527.212 -349.52)"/></g><path class="q" d="M509.057,371.732H507.05a6.312,6.312,0,0,1,.472-1.567.357.357,0,0,1,.085-.137.125.125,0,0,1,.028-.023c.059-.046.142-.064.206-.108s.072-.09.131-.108a1.781,1.781,0,0,1,.654.108.655.655,0,0,1,.173.044.583.583,0,0,1,.273.335A3.161,3.161,0,0,1,509.057,371.732Z" transform="translate(-443.413 -291.506)"/></g></svg>