<svg xmlns="http://www.w3.org/2000/svg" xmlns:xlink="http://www.w3.org/1999/xlink" width="127.838" height="92.184" viewBox="0 0 127.838 92.184"><defs><style>.a,.e,.g{fill:#205df5;}.a,.f,.o,.q{opacity:0.1;}.b{opacity:0.9;}.c{fill:#3a3768;}.d{fill:#e6e8ec;}.e{opacity:0.5;}.h{fill:url(#a);}.i{fill:#ee8e9e;}.j{fill:#65617d;}.k,.o{fill:#3f3d56;}.l{opacity:0.05;}.m{fill:#e8eaf2;}.n{fill:#303d5c;}.p{fill:url(#b);}</style><linearGradient id="a" x1="-1.02" y1="1" x2="-1.02" gradientUnits="objectBoundingBox"><stop offset="0" stop-color="gray" stop-opacity="0.251"/><stop offset="0.54" stop-color="gray" stop-opacity="0.122"/><stop offset="1" stop-color="gray" stop-opacity="0.102"/></linearGradient><linearGradient id="b" x1="0" y1="0.5" x2="1.001" y2="0.5" xlink:href="#a"/></defs><g transform="translate(-850.836 -455.908)"><g transform="translate(850.836 455.908)"><path class="a" d="M109.278,58.546c-8.2-.284-16-2.93-23.455-5.825s-14.838-6.1-22.836-7.635c-5.145-.987-11.029-1.126-15.175,1.633-3.987,2.65-5.279,7.237-5.971,11.489-.522,3.2-.828,6.562.6,9.56.992,2.079,2.754,3.827,3.972,5.818,4.237,6.929,1.244,15.476-3.351,22.241-2.15,3.175-4.653,6.2-6.315,9.58s-2.431,7.251-.977,10.7c1.442,3.417,4.877,5.983,8.6,7.787,7.559,3.666,16.466,4.715,25.151,5.309,19.226,1.315,38.555.746,57.832.175a169.827,169.827,0,0,0,21.318-1.528c3.9-.612,7.919-1.584,10.748-3.931a9.008,9.008,0,0,0,2.075-11.766c-4.037-6.267-15.2-7.823-18.021-14.549-1.553-3.7.042-7.827,2.3-11.259,4.842-7.366,12.958-13.828,13.386-22.247.294-5.782-3.608-11.574-9.64-14.309-6.324-2.868-15.092-2.507-19.758,2.24C124.956,56.917,116.514,58.8,109.278,58.546Z" transform="translate(-35.001 -44.23)"/><g class="b" transform="translate(44.631 9.723)"><rect class="c" width="1.121" height="9.246" rx="0.561" transform="translate(37.308 17.305)"/><rect class="c" width="0.629" height="3.044" rx="0.315" transform="translate(0.023 10.061)"/><rect class="c" width="0.709" height="5.299" rx="0.355" transform="translate(0 15.634)"/><rect class="c" width="0.675" height="5.344" rx="0.338" transform="translate(0.011 22.786)"/><rect class="c" width="37.535" height="76.283" rx="18.767" transform="translate(0.379)"/><rect class="d" width="5.242" height="1.065" rx="0.532" transform="translate(15.525 2.279)"/><circle class="d" cx="0.604" cy="0.604" r="0.604" transform="translate(21.559 2.206)"/></g><path class="e" d="M483.257,146.1h-4.3v.518a2.454,2.454,0,0,1-2.455,2.454H462.8a2.455,2.455,0,0,1-2.455-2.454V146.1h-4.029a2.981,2.981,0,0,0-2.981,2.981v66.346a2.981,2.981,0,0,0,2.981,2.981h26.936a2.981,2.981,0,0,0,2.981-2.981V149.081A2.981,2.981,0,0,0,483.257,146.1Z" transform="translate(-406.012 -134.389)"/><rect class="d" width="32.924" height="3.039" transform="translate(47.356 16.796)"/><rect class="c" width="2.786" height="0.253" transform="translate(48.369 17.429)"/><rect class="c" width="2.786" height="0.253" transform="translate(48.369 18.189)"/><rect class="c" width="2.786" height="0.253" transform="translate(48.369 18.949)"/><path class="c" d="M712.265,195.922h-.1l-.04-.032a.866.866,0,0,0,.2-.554.842.842,0,1,0-.837.847.869.869,0,0,0,.552-.2l.038.033v.1l.649.652.195-.2Zm-.778,0a.583.583,0,1,1,.414-.171A.586.586,0,0,1,711.486,195.922Z" transform="translate(-634.202 -177.313)"/><circle class="d" cx="1.393" cy="1.393" r="1.393" transform="translate(48.369 24.014)"/><rect class="d" width="19.375" height="0.76" transform="translate(54.131 26.8)"/><rect class="d" width="19.375" height="0.76" transform="translate(54.195 28.446)"/><rect class="d" width="19.375" height="0.76" transform="translate(54.258 30.093)"/><circle class="d" cx="1.393" cy="1.393" r="1.393" transform="translate(48.369 33.512)"/><rect class="d" width="19.375" height="0.76" transform="translate(54.131 36.297)"/><rect class="d" width="19.375" height="0.76" transform="translate(54.195 37.943)"/><rect class="d" width="19.375" height="0.76" transform="translate(54.258 39.589)"/><circle class="d" cx="1.393" cy="1.393" r="1.393" transform="translate(48.369 43.01)"/><rect class="d" width="19.375" height="0.76" transform="translate(54.131 45.795)"/><rect class="d" width="19.375" height="0.76" transform="translate(54.195 47.441)"/><rect class="d" width="19.375" height="0.76" transform="translate(54.258 49.087)"/><circle class="d" cx="1.393" cy="1.393" r="1.393" transform="translate(48.369 52.507)"/><rect class="d" width="19.375" height="0.76" transform="translate(54.131 55.292)"/><rect class="d" width="19.375" height="0.76" transform="translate(54.195 56.939)"/><rect class="d" width="19.375" height="0.76" transform="translate(54.258 58.585)"/><circle class="d" cx="1.393" cy="1.393" r="1.393" transform="translate(48.369 62.005)"/><rect class="d" width="19.375" height="0.76" transform="translate(54.131 64.79)"/><rect class="d" width="19.375" height="0.76" transform="translate(54.195 66.436)"/><rect class="d" width="19.375" height="0.76" transform="translate(54.258 68.082)"/><circle class="d" cx="1.393" cy="1.393" r="1.393" transform="translate(48.369 71.502)"/><rect class="d" width="19.375" height="0.76" transform="translate(54.131 74.288)"/><rect class="d" width="19.375" height="0.76" transform="translate(54.195 75.934)"/><rect class="d" width="19.375" height="0.76" transform="translate(54.258 77.58)"/><circle class="f" cx="3.546" cy="3.546" r="3.546" transform="translate(70.023 74.795)"/><circle class="g" cx="3.165" cy="3.165" r="3.165" transform="translate(70.403 75.175)"/><path class="g" d="M300.06,158.316l-6.192,3.345a.129.129,0,0,0,.009.226l1.057.4a.257.257,0,0,1,.139.13l.82,1.69c.016.075.154.094.155.018l-.126-1.4a.5.5,0,0,1,.113-.283l3.211-3.145a.079.079,0,0,1,.07-.02.074.074,0,0,1,.04.113l-2.767,3.4a.617.617,0,0,0-.113.278l-.159,1.206c.014.105.1.145.162.051l.6-.7a.124.124,0,0,1,.175-.029l1.536,1.12a.124.124,0,0,0,.2-.076l1.26-6.187a.126.126,0,0,0-.181-.139Z" transform="translate(-264.526 -145.21)"/><path class="g" d="M877.974,169.865l-6.192,3.35a.129.129,0,0,0,.01.226l1.056.4a.245.245,0,0,1,.139.13l.821,1.689c.016.075.153.1.155.019l-.126-1.4a.5.5,0,0,1,.113-.282l3.21-3.145a.077.077,0,0,1,.07-.02.074.074,0,0,1,.041.113l-2.768,3.385a.621.621,0,0,0-.113.279l-.166,1.206c.014.105.1.146.163.051l.6-.7a.125.125,0,0,1,.175-.029l1.536,1.119a.123.123,0,0,0,.195-.076l1.26-6.187a.126.126,0,0,0-.181-.139Z" transform="translate(-777.059 -155.445)"/><path class="g" d="M555.753,61.609,551.525,63.9a.088.088,0,0,0,.006.158l.722.272a.173.173,0,0,1,.095.088l.566,1.154c.011.051.105.064.106.014l-.086-.955a.346.346,0,0,1,.077-.192l2.193-2.15a.052.052,0,0,1,.048-.014.05.05,0,0,1,.027.08l-1.889,2.311a.425.425,0,0,0-.074.19l-.113.824c.009.072.065.1.113.035l.407-.477a.085.085,0,0,1,.113-.02l1.049.765a.085.085,0,0,0,.134-.052l.861-4.224a.085.085,0,0,0-.123-.1Z" transform="translate(-493.047 -59.446)"/><path class="g" d="M768.431,42.6,764.2,44.885a.088.088,0,0,0,.006.157l.722.272a.171.171,0,0,1,.1.089l.56,1.153c.011.051.105.064.106.014l-.081-.954a.347.347,0,0,1,.077-.193l2.193-2.15a.052.052,0,0,1,.048-.014.05.05,0,0,1,.027.08l-1.892,2.314a.422.422,0,0,0-.073.19l-.113.825c.009.071.066.1.113.034l.407-.477a.085.085,0,0,1,.119-.02l1.05.765a.084.084,0,0,0,.132-.052l.854-4.224a.085.085,0,0,0-.123-.1Z" transform="translate(-681.665 -42.586)"/><path class="g" d="M844.25,294.311l-12.481-1.031a.226.226,0,0,0-.21.353l1.187,1.62a.442.442,0,0,1,.081.329l-.421,3.315c-.049.126.137.29.213.179l1.172-2.208a.884.884,0,0,1,.442-.31l7.84-1.563a.139.139,0,0,1,.123.037.131.131,0,0,1-.054.215l-7.414,2.357a1.108,1.108,0,0,0-.433.31l-1.42,1.636c-.082.171,0,.31.192.234l1.569-.463a.226.226,0,0,1,.29.127l1.2,3.161a.226.226,0,0,0,.365.077l7.893-7.991a.226.226,0,0,0-.135-.384Z" transform="translate(-741.406 -264.917)"/><path class="h" d="M645.669,360.288a2.015,2.015,0,0,0,.425.43c.105.087.214.176.327.256.032.023.064.044.1.066,0,.006-.007.011-.009.018a.256.256,0,0,0-.029.157.34.34,0,0,0,.121.163,1.674,1.674,0,0,1,.51.922c.039.2-.1.424-.09.632a1.839,1.839,0,0,0,.161.591,3.188,3.188,0,0,0,.7,1.215,3.929,3.929,0,0,0,.786,1.938A6.3,6.3,0,0,0,650,367.839a2.577,2.577,0,0,0,.49.308,2.776,2.776,0,0,0,.485.13,25.025,25.025,0,0,0,4.264.482q.06,1.278.052,2.556a1.053,1.053,0,0,1-.059.413,1.833,1.833,0,0,1-.247.346,2.412,2.412,0,0,0-.317,1.569,1133.228,1133.228,0,0,0,.524,4.353l.339.905a.8.8,0,0,1,.067.268,1.182,1.182,0,0,1-.226.539,1.561,1.561,0,0,0-.2.822.171.171,0,0,0,.024.092c.037.05.113.045.174.036a7.312,7.312,0,0,1,.756-.07,1.381,1.381,0,0,0-.122.18,2.642,2.642,0,0,0-.161.33,3.121,3.121,0,0,0-.215.591.73.73,0,0,0-.021.09c-.014.061-.026.123-.036.184a6.112,6.112,0,0,0-.067,1.086,11.493,11.493,0,0,1-.135,1.591,2.622,2.622,0,0,0,.137,1.208,2.862,2.862,0,0,0,.164.905,5.462,5.462,0,0,0,.113.955q.587,3.308,1.244,6.6c.04.191.077.381.128.566A4.629,4.629,0,0,0,658,396.55a7.611,7.611,0,0,1,.885,1.416c-.026.12-.053.24-.081.359a25.632,25.632,0,0,0-.693,3.161,4.378,4.378,0,0,1-.226,1.264,1.935,1.935,0,0,0-.226.612.678.678,0,0,0,.094.4c-.029.022-.058.044-.085.067l-.047.038a2.966,2.966,0,0,1-1.148.411,1.242,1.242,0,0,0-.945.706.612.612,0,0,0-.019.076,1,1,0,0,0,.453.959,2.541,2.541,0,0,0,1.131.347,3.682,3.682,0,0,1,1.164.267,7.406,7.406,0,0,0,.905.517l.058.017c-.073.044-.148.087-.226.127a3.405,3.405,0,0,1-1.085.339c-.382.053-.839.078-1.036.412h0a.734.734,0,0,0,.188.865,1.8,1.8,0,0,0,.864.382,15.736,15.736,0,0,0,2.15.267l.7.053c.679.052,1.371.105,2.059.113a14.188,14.188,0,0,0,2.532-.221.276.276,0,0,0,.2-.1.288.288,0,0,0,.031-.161,12.377,12.377,0,0,0-.321-2.552c-.058-.251-.4.092-.593.309-.025-.126-.054-.25-.087-.371l.15-.071a.542.542,0,0,0,.276-.226.555.555,0,0,0,.029-.266,3.732,3.732,0,0,0-.324-1.61,3.414,3.414,0,0,0-.64-.78,29.74,29.74,0,0,0-.627-5.163,7.058,7.058,0,0,0-.936-2.472c-.062-.092-.13-.183-.2-.275a22.21,22.21,0,0,0-.3-2.481.64.64,0,0,1,0-.33,1.018,1.018,0,0,1,.182-.251c.3-.388.178-.94.143-1.431a6.834,6.834,0,0,1,.282-2.093q.308-1.272.612-2.544a4.13,4.13,0,0,1,.215-.7,6.967,6.967,0,0,1,.552-.889,5.015,5.015,0,0,0,.767-3.022c.113.041.226.082.346.128.085-.71-.215-1.517,0-2.185a2.808,2.808,0,0,0,.867-1.032c.167-.376.215-.8.39-1.171a3.624,3.624,0,0,0,.3-.628,4.387,4.387,0,0,0-.017-1.04c.011-.757.566-1.459.441-2.207a5.633,5.633,0,0,1-.251-1.044,1.748,1.748,0,0,1,.146-.566,6.565,6.565,0,0,0,.613-3.438,3.9,3.9,0,0,1-.135-.894,5.379,5.379,0,0,0,.134-1.024.777.777,0,0,0-.154-.359,4.3,4.3,0,0,0,.379-.726,1.042,1.042,0,0,0,.1-.464.821.821,0,0,0-.327-.552,3.31,3.31,0,0,0-.566-.329.463.463,0,0,1-.166-.119,1.217,1.217,0,0,1-.094-.179c-.113-.193-.354-.255-.545-.371-.69-.421-.623-1.506-1.213-2.061a1.179,1.179,0,0,0-1.471-.078.361.361,0,0,1-.208.1.4.4,0,0,1-.2-.113.812.812,0,0,0-.5-.138,4.77,4.77,0,0,1-.149-1.32h.053a.7.7,0,0,0,.206-.024,1.086,1.086,0,0,0,.6-.692,5.251,5.251,0,0,0,.266-.76c.007-.025.012-.05.018-.074.58.407,1.255.834,1.415.744.3-.164-1.329-1.321-1.329-1.321h0a1.3,1.3,0,0,0,.339-.747,4.059,4.059,0,0,0,.014-1.635,1.931,1.931,0,0,0-.933-1.291,2.238,2.238,0,0,1-.632-.359h0a.405.405,0,0,1-.061-.084h0a.208.208,0,0,1-.025-.044.62.62,0,0,0-.068-.134c-.089-.1-.251-.071-.386-.055h-.117c-.482.01-.949-.259-1.437-.259a3.655,3.655,0,0,0-1.461.523c-.1.043-.186.083-.27.122a1.22,1.22,0,0,0-.679.617.955.955,0,0,0-.2.379.89.89,0,0,0-.025.195,3.237,3.237,0,0,0,1.455,5.43c.011.032.023.063.033.1a2.721,2.721,0,0,1,.141.905v.064a2.455,2.455,0,0,0-.7.284,1.35,1.35,0,0,0-.588.723.694.694,0,0,0-.018.069,1.864,1.864,0,0,0-.532-.092.571.571,0,0,0-.453.137.418.418,0,0,0-.086.175c-.062.058-.075.157-.113.233-.137.239-.49.161-.756.226-.289.071-.516.339-.813.339a1.388,1.388,0,0,0-.339-.012c-.113.027-.2.18-.113.257a.361.361,0,0,0-.339.164c-.081.106-.136.233-.226.333a.346.346,0,0,0-.353-.137,1.311,1.311,0,0,0-.372.147.535.535,0,0,1-.164.058.707.707,0,0,1-.2-.018,1.6,1.6,0,0,0-.937.131c-.258.122-.506-.1-.792-.12a.442.442,0,0,1-.29-.089.563.563,0,0,1-.113-.226,1.132,1.132,0,0,0-.828-.733.964.964,0,0,0-.566-1.189,1.029,1.029,0,0,0-.353-.9,1.65,1.65,0,0,1-.179-.14.858.858,0,0,1-.164-.3l-.251-.665c-.113-.023-.2-.069-.3-.087v-.068a2.178,2.178,0,0,0-.113-.667,3.739,3.739,0,0,0-.536-.976,2.814,2.814,0,0,0-.862-.867,3.079,3.079,0,0,0-.368-.17l-.647-.267a.315.315,0,0,0-.113-.032c-.174,0-.206.269-.113.413.2.291.64.372.766.7a.5.5,0,0,0-.463.36.251.251,0,0,1-.062.146c-.057.046-.146.019-.211.054-.113.062-.065.234-.077.364a1.746,1.746,0,0,1-.113.328A.7.7,0,0,0,645.669,360.288Zm15.513,45.367c0-.067-.009-.134-.015-.2.014.035.026.071.04.106.113.3.241.593.375.884l-.023-.012a1.116,1.116,0,0,0-.309-.088.316.316,0,0,1-.086-.008,2.413,2.413,0,0,0,.018-.68Z" transform="translate(-576.469 -318.307)"/><path class="i" d="M761.886,405.964c-.013.473-.172.93-.2,1.4,1.391.069,2.763-.605,4.141-.4a1.916,1.916,0,0,1-.713-1.14,4.761,4.761,0,0,1-.136-1.751.722.722,0,0,1,.018-.1,2.476,2.476,0,0,0,.147-.74c-.046-.24-.273-.192-.477-.179a18,18,0,0,0-1.857.24c-.16.027-1.72.416-1.742.376a7.329,7.329,0,0,1,.679,1.39,2.7,2.7,0,0,1,.137.9Z" transform="translate(-678.927 -362.265)"/><path class="i" d="M645.686,393.006a2.036,2.036,0,0,0,.425.428c.105.087.214.175.327.255a1.4,1.4,0,0,0,.7.283,1.853,1.853,0,0,0,1.244-.453.817.817,0,0,0,.119-.475,2.156,2.156,0,0,0-.113-.664,3.7,3.7,0,0,0-.536-.971,2.861,2.861,0,0,0-.862-.862,3.29,3.29,0,0,0-.368-.17l-.647-.265a.313.313,0,0,0-.113-.032c-.174,0-.206.267-.113.411.2.29.64.37.766.7a.5.5,0,0,0-.463.357.25.25,0,0,1-.062.145c-.057.046-.146.02-.212.054-.113.062-.064.233-.077.363a1.756,1.756,0,0,1-.113.326A.7.7,0,0,0,645.686,393.006Z" transform="translate(-576.487 -350.767)"/><path class="j" d="M793.613,817.376c-.106-.113-.282-.089-.431-.066a16,16,0,0,1-2.427.2c-.1-.5.193-.98.288-1.479a1.3,1.3,0,0,1,.1-.373.853.853,0,0,1,.614-.371c.438-.092,1.121-.255,1.365.187A6.633,6.633,0,0,1,793.613,817.376Z" transform="translate(-705.235 -727.771)"/><path class="k" d="M733.919,799.407a2.542,2.542,0,0,0,1.131.346,3.684,3.684,0,0,1,1.164.266,7.327,7.327,0,0,0,.905.514,1.875,1.875,0,0,0,.933.015,1.384,1.384,0,0,0,.961-.521,1.6,1.6,0,0,0,.134-.975q-.042-.565-.084-1.131a.538.538,0,0,0-.07-.273c-.266-.389-.914.162-1.261.162a2.432,2.432,0,0,1-1.535-.663.5.5,0,0,0-.12-.09c-.156-.07-.313.06-.453.173l-.046.039a2.985,2.985,0,0,1-1.148.41,1.242,1.242,0,0,0-.945.7.621.621,0,0,0-.019.075A.98.98,0,0,0,733.919,799.407Z" transform="translate(-654.432 -711.681)"/><path class="l" d="M733.919,799.407a2.542,2.542,0,0,0,1.131.346,3.684,3.684,0,0,1,1.164.266,7.327,7.327,0,0,0,.905.514,1.875,1.875,0,0,0,.933.015,1.384,1.384,0,0,0,.961-.521,1.6,1.6,0,0,0,.134-.975q-.042-.565-.084-1.131a.538.538,0,0,0-.07-.273c-.266-.389-.914.162-1.261.162a2.432,2.432,0,0,1-1.535-.663.5.5,0,0,0-.12-.09c-.156-.07-.313.06-.453.173l-.046.039a2.985,2.985,0,0,1-1.148.41,1.242,1.242,0,0,0-.945.7.621.621,0,0,0-.019.075A.98.98,0,0,0,733.919,799.407Z" transform="translate(-654.432 -711.681)"/><path class="m" d="M733.615,799.554a2.541,2.541,0,0,0,1.131.346,3.681,3.681,0,0,1,1.164.266,7.378,7.378,0,0,0,.9.514,1.877,1.877,0,0,0,.933.015,1.542,1.542,0,0,0,.96-.648,1.6,1.6,0,0,0,.134-.975c-.028-.377-.055-.753-.084-1.131a.534.534,0,0,0-.07-.273c-.266-.389-.914.162-1.261.162a2.431,2.431,0,0,1-1.535-.663.492.492,0,0,0-.12-.09c-.156-.07-.313.06-.452.173a3.233,3.233,0,0,0,.386.792,1.663,1.663,0,0,0,1.211.758,3.98,3.98,0,0,1,.735.033c.238.063.453.305.374.537s-.372.274-.612.286a2.711,2.711,0,0,1-1-.069c-.195-.066-.372-.173-.566-.251-.806-.339-1.823-.147-2.489-.712a1.481,1.481,0,0,0-.2-.156C732.982,798.838,733.306,799.342,733.615,799.554Z" transform="translate(-654.128 -711.699)"/><path class="l" d="M733.615,799.554a2.541,2.541,0,0,0,1.131.346,3.681,3.681,0,0,1,1.164.266,7.378,7.378,0,0,0,.9.514,1.877,1.877,0,0,0,.933.015,1.542,1.542,0,0,0,.96-.648,1.6,1.6,0,0,0,.134-.975c-.028-.377-.055-.753-.084-1.131a.534.534,0,0,0-.07-.273c-.266-.389-.914.162-1.261.162a2.431,2.431,0,0,1-1.535-.663.492.492,0,0,0-.12-.09c-.156-.07-.313.06-.452.173a3.233,3.233,0,0,0,.386.792,1.663,1.663,0,0,0,1.211.758,3.98,3.98,0,0,1,.735.033c.238.063.453.305.374.537s-.372.274-.612.286a2.711,2.711,0,0,1-1-.069c-.195-.066-.372-.173-.566-.251-.806-.339-1.823-.147-2.489-.712a1.481,1.481,0,0,0-.2-.156C732.982,798.838,733.306,799.342,733.615,799.554Z" transform="translate(-654.128 -711.699)"/><path class="n" d="M742.672,589.9a4.952,4.952,0,0,1-.679,3.654,6.828,6.828,0,0,0-.552.885,4.073,4.073,0,0,0-.215.7l-.612,2.536a6.848,6.848,0,0,0-.282,2.082c.035.489.158,1.037-.143,1.424a1.019,1.019,0,0,0-.182.249.638.638,0,0,0,0,.329,11.921,11.921,0,0,1-.02,5.537c-.506,1.611-.535,3.394-.966,5.03a1.113,1.113,0,0,1-.267.558.884.884,0,0,1-.4.191,2.959,2.959,0,0,1-1.9-.3c-.416-.192-.864-.531-.828-.988a2.1,2.1,0,0,1,.226-.609,4.194,4.194,0,0,0,.226-1.257,25.16,25.16,0,0,1,.692-3.144,7.512,7.512,0,0,0,.208-3.19,27.931,27.931,0,0,0-2.053-6.314.741.741,0,0,0-.188-.282,2.009,2.009,0,0,1-.266-.182.8.8,0,0,1-.121-.331,3.6,3.6,0,0,0-.552-.871,4.567,4.567,0,0,1-.3-2.561,17.657,17.657,0,0,1,.034-2.544,2.384,2.384,0,0,1,1.427-1.957,3.066,3.066,0,0,1,1.253-.059A24.393,24.393,0,0,1,742.672,589.9Z" transform="translate(-654.445 -526.69)"/><path class="l" d="M742.672,589.9a4.952,4.952,0,0,1-.679,3.654,6.828,6.828,0,0,0-.552.885,4.073,4.073,0,0,0-.215.7l-.612,2.536a6.848,6.848,0,0,0-.282,2.082c.035.489.158,1.037-.143,1.424a1.019,1.019,0,0,0-.182.249.638.638,0,0,0,0,.329,11.921,11.921,0,0,1-.02,5.537c-.506,1.611-.535,3.394-.966,5.03a1.113,1.113,0,0,1-.267.558.884.884,0,0,1-.4.191,2.959,2.959,0,0,1-1.9-.3c-.416-.192-.864-.531-.828-.988a2.1,2.1,0,0,1,.226-.609,4.194,4.194,0,0,0,.226-1.257,25.16,25.16,0,0,1,.692-3.144,7.512,7.512,0,0,0,.208-3.19,27.931,27.931,0,0,0-2.053-6.314.741.741,0,0,0-.188-.282,2.009,2.009,0,0,1-.266-.182.8.8,0,0,1-.121-.331,3.6,3.6,0,0,0-.552-.871,4.567,4.567,0,0,1-.3-2.561,17.657,17.657,0,0,1,.034-2.544,2.384,2.384,0,0,1,1.427-1.957,3.066,3.066,0,0,1,1.253-.059A24.393,24.393,0,0,1,742.672,589.9Z" transform="translate(-654.445 -526.69)"/><path class="n" d="M732.339,598.41a5.316,5.316,0,0,0,.113.982q.587,3.291,1.245,6.562c.04.19.077.379.128.566a4.6,4.6,0,0,0,.847,1.666c1.844,2.3,2,5.635,3,8.406.067.188.135.376.206.566a14.024,14.024,0,0,0,.618,1.377.387.387,0,0,0,.127.164.379.379,0,0,0,.2.04,5.867,5.867,0,0,0,2.6-.592.539.539,0,0,0,.276-.226.551.551,0,0,0,.029-.265,3.693,3.693,0,0,0-.323-1.6,3.4,3.4,0,0,0-.64-.776,29.432,29.432,0,0,0-.627-5.136,7,7,0,0,0-.936-2.46c-.369-.537-.9-1.067-.833-1.715.029-.285.148-.639-.084-.807-.1-.073-.251-.083-.319-.188a.346.346,0,0,1-.045-.161,3.986,3.986,0,0,1,.083-1.33,7.178,7.178,0,0,0,.2-.867,1.088,1.088,0,0,0-.218-.837c-.012-.592,0-1.206-.008-1.8a3.354,3.354,0,0,1,.084-1c.044-.155.113-.3.147-.462.125-.566-.184-1.244.183-1.7a2.494,2.494,0,0,1,.589-.416,2.157,2.157,0,0,0,.81-1.164,6.438,6.438,0,0,0,.226-1.425,1.489,1.489,0,0,0,0-.309.578.578,0,0,0-.042-.154.937.937,0,0,0-.695-.422,22.459,22.459,0,0,0-5.306-.62c-.661-.453-1.033-.29-1.312.188a4.845,4.845,0,0,0-.374.913c-.128.386-.136,2.551-.26,2.941C731.874,596.848,732.339,597.88,732.339,598.41Z" transform="translate(-653.145 -529.878)"/><path class="k" d="M806.068,468.709a5.144,5.144,0,0,1-.133,1.018,3.858,3.858,0,0,0,.135.889,6.5,6.5,0,0,1-.613,3.42,1.729,1.729,0,0,0-.146.566,5.734,5.734,0,0,0,.251,1.04c.119.743-.43,1.442-.441,2.195a4.116,4.116,0,0,1,.017,1.034,3.557,3.557,0,0,1-.3.626c-.175.37-.226.792-.39,1.164a3.915,3.915,0,0,1-1.574,1.522,1.59,1.59,0,0,1-.928-.574,1.422,1.422,0,0,1-.162-.5,13.008,13.008,0,0,1-.124-2.336,14.592,14.592,0,0,1,.106-2.013c.126-.849.4-1.666.6-2.5a24.151,24.151,0,0,1,.765-3.152,10.63,10.63,0,0,1,1.432-2.447c.213-.292.381-.707.792-.64A.87.87,0,0,1,806.068,468.709Z" transform="translate(-714.925 -419.877)"/><path class="l" d="M806.068,468.709a5.144,5.144,0,0,1-.133,1.018,3.858,3.858,0,0,0,.135.889,6.5,6.5,0,0,1-.613,3.42,1.729,1.729,0,0,0-.146.566,5.734,5.734,0,0,0,.251,1.04c.119.743-.43,1.442-.441,2.195a4.116,4.116,0,0,1,.017,1.034,3.557,3.557,0,0,1-.3.626c-.175.37-.226.792-.39,1.164a3.915,3.915,0,0,1-1.574,1.522,1.59,1.59,0,0,1-.928-.574,1.422,1.422,0,0,1-.162-.5,13.008,13.008,0,0,1-.124-2.336,14.592,14.592,0,0,1,.106-2.013c.126-.849.4-1.666.6-2.5a24.151,24.151,0,0,1,.765-3.152,10.63,10.63,0,0,1,1.432-2.447c.213-.292.381-.707.792-.64A.87.87,0,0,1,806.068,468.709Z" transform="translate(-714.925 -419.877)"/><path class="f" d="M761.07,403.674a7.33,7.33,0,0,1,.679,1.39,3.185,3.185,0,0,0,.767.093,2.939,2.939,0,0,0,2.3-1.291c.051-.226.369-.447.333-.629-.046-.24-.273-.192-.477-.179a18.012,18.012,0,0,0-1.857.24C762.653,403.325,761.093,403.719,761.07,403.674Z" transform="translate(-678.927 -362.265)"/><circle class="i" cx="3.213" cy="3.213" r="3.213" transform="translate(80.372 36.379)"/><path class="f" d="M737.93,592.455c.555-.033,1.116-.011,1.673.011a5.824,5.824,0,0,1,1.04.106c.422.1.817.288,1.233.408a11.282,11.282,0,0,0,2.06.271,11.854,11.854,0,0,1,1.349.21.574.574,0,0,0-.042-.154.937.937,0,0,0-.695-.422,22.467,22.467,0,0,0-5.306-.62C738.582,591.82,738.209,591.98,737.93,592.455Z" transform="translate(-658.405 -529.845)"/><path class="k" d="M729.558,431.737c.14.162.328.339.536.287a.74.74,0,0,0,.208-.113,3.141,3.141,0,0,1,1.26-.361,18.51,18.51,0,0,0,2.6-.584,2.654,2.654,0,0,1,.768-.156,1.855,1.855,0,0,1,1.368.792c.34.427.579.927.919,1.355.239.305.523.575.745.893a3.913,3.913,0,0,1,.537,2.817,11.437,11.437,0,0,1-.915,2.783,9.6,9.6,0,0,1-.748,1.508,3.6,3.6,0,0,1-.289,2.238,2.248,2.248,0,0,0-.292.665,1.678,1.678,0,0,0,.02.488l.164,1.163c.05.354.1.709.164,1.061a3.065,3.065,0,0,1-.02,1.923c-.357.7.018,1.592-.076,2.376a11.93,11.93,0,0,0-3.138-.748,11.188,11.188,0,0,1-2.059-.269c-.416-.121-.811-.313-1.233-.409a5.713,5.713,0,0,0-1.04-.106,12.369,12.369,0,0,0-2.307.052c-.062.009-.137.014-.174-.036a.167.167,0,0,1-.024-.091,1.542,1.542,0,0,1,.2-.818,1.167,1.167,0,0,0,.226-.536.794.794,0,0,0-.067-.267l-.339-.905a1047.942,1047.942,0,0,1-.524-4.33,2.364,2.364,0,0,1,.317-1.562,1.781,1.781,0,0,0,.247-.339,1.049,1.049,0,0,0,.059-.411q.01-1.626-.089-3.25c.285-.512.583-1.036.868-1.548a6.638,6.638,0,0,0,.8-1.872c.088-.443.085-.9.148-1.346a.585.585,0,0,1,.113-.313.569.569,0,0,1,.452-.136A2,2,0,0,1,729.558,431.737Z" transform="translate(-647.843 -386.889)"/><path class="f" d="M653.31,416.57a1.4,1.4,0,0,0,.7.283,1.852,1.852,0,0,0,1.244-.453.817.817,0,0,0,.119-.475.582.582,0,0,0-.138-.026,3.618,3.618,0,0,0-1.078.043,1.214,1.214,0,0,0-.837.628Z" transform="translate(-583.358 -373.646)"/><path class="k" d="M664.389,424.136a2.243,2.243,0,0,1-.679.639,2.185,2.185,0,0,1-1.054.162,25.3,25.3,0,0,1-4.412-.484,2.769,2.769,0,0,1-.485-.13,2.576,2.576,0,0,1-.49-.307,6.177,6.177,0,0,1-1.327-1.156,3.9,3.9,0,0,1-.786-1.929,3.153,3.153,0,0,1-.7-1.208,1.822,1.822,0,0,1-.161-.586c-.009-.208.129-.427.09-.631a1.661,1.661,0,0,0-.51-.916.34.34,0,0,1-.121-.162.253.253,0,0,1,.029-.156,1.208,1.208,0,0,1,.836-.629,3.628,3.628,0,0,1,1.079-.043,2.5,2.5,0,0,1,.353.094l.251.662a.852.852,0,0,0,.164.3,1.648,1.648,0,0,0,.179.139,1.018,1.018,0,0,1,.353.891.958.958,0,0,1,.566,1.183,1.131,1.131,0,0,1,.828.729.552.552,0,0,0,.113.226.442.442,0,0,0,.29.089c.284.017.532.241.792.12a1.6,1.6,0,0,1,.937-.131.7.7,0,0,0,.2.017.5.5,0,0,0,.164-.057,1.345,1.345,0,0,1,.372-.147.348.348,0,0,1,.353.137c.091-.1.145-.226.226-.33a.363.363,0,0,1,.339-.164c-.086-.076,0-.226.113-.256a1.511,1.511,0,0,1,.339.012c.3,0,.525-.272.813-.339.266-.066.619.012.756-.226.047-.084.058-.2.139-.249a.272.272,0,0,1,.18-.02,1.759,1.759,0,0,1,.542.164,7.593,7.593,0,0,1-.08,3.322A2.914,2.914,0,0,1,664.389,424.136Z" transform="translate(-583.749 -374.266)"/><path class="f" d="M745.4,514.978l1.384,2.79c-.149-.258-.465-.359-.714-.524a1.9,1.9,0,0,1-.679-.916,5.655,5.655,0,0,1-.261-1.131,1.023,1.023,0,0,1,0-.586C745.279,514.644,745.33,514.846,745.4,514.978Z" transform="translate(-664.745 -461.208)"/><path class="f" d="M778.568,534.481a12.28,12.28,0,0,0,1.037.81,9.584,9.584,0,0,1,1.933,2.376,3.84,3.84,0,0,1,.395.72c-.066.057-.164,0-.226-.059l-1.086-.955a2.413,2.413,0,0,1-.362-.367c-.189-.255-.273-.566-.443-.837a3.3,3.3,0,0,0-.661-.679c-.249-.214-1.4-1.183-1.117-1.56C778.238,534.037,778.4,534.317,778.568,534.481Z" transform="translate(-693.937 -478.342)"/><path class="k" d="M757.13,426.865a3.221,3.221,0,0,1,1.151-.379,2.411,2.411,0,0,1,.731-.052c.226.028.444.113.671.128a3.026,3.026,0,0,0,.935-.2,1.123,1.123,0,0,1,.925.069.391.391,0,0,0,.2.107.359.359,0,0,0,.208-.1,1.183,1.183,0,0,1,1.471.078c.589.552.523,1.631,1.213,2.05.191.113.434.177.545.37a1.33,1.33,0,0,0,.094.178.471.471,0,0,0,.166.113,3.3,3.3,0,0,1,.566.327.817.817,0,0,1,.327.55,1.032,1.032,0,0,1-.1.462,4.332,4.332,0,0,1-4.21,2.691.665.665,0,0,1-.441-.137.835.835,0,0,1-.155-.255c-.325-.679-.933-1.183-1.321-1.831-.226-.386-.378-.817-.619-1.2a5.746,5.746,0,0,0-1.459-1.414,1.677,1.677,0,0,0-1.03-.46c-.339.015-.59.033-.465-.387A1.341,1.341,0,0,1,757.13,426.865Z" transform="translate(-674.873 -382.819)"/><path class="l" d="M757.13,426.865a3.221,3.221,0,0,1,1.151-.379,2.411,2.411,0,0,1,.731-.052c.226.028.444.113.671.128a3.026,3.026,0,0,0,.935-.2,1.123,1.123,0,0,1,.925.069.391.391,0,0,0,.2.107.359.359,0,0,0,.208-.1,1.183,1.183,0,0,1,1.471.078c.589.552.523,1.631,1.213,2.05.191.113.434.177.545.37a1.33,1.33,0,0,0,.094.178.471.471,0,0,0,.166.113,3.3,3.3,0,0,1,.566.327.817.817,0,0,1,.327.55,1.032,1.032,0,0,1-.1.462,4.332,4.332,0,0,1-4.21,2.691.665.665,0,0,1-.441-.137.835.835,0,0,1-.155-.255c-.325-.679-.933-1.183-1.321-1.831-.226-.386-.378-.817-.619-1.2a5.746,5.746,0,0,0-1.459-1.414,1.677,1.677,0,0,0-1.03-.46c-.339.015-.59.033-.465-.387A1.341,1.341,0,0,1,757.13,426.865Z" transform="translate(-674.873 -382.819)"/><path class="k" d="M745.237,823.408a1.8,1.8,0,0,0,.864.38,15.732,15.732,0,0,0,2.15.265l.7.054c.679.052,1.371.1,2.059.107a14.188,14.188,0,0,0,2.532-.219.276.276,0,0,0,.2-.1.282.282,0,0,0,.031-.16,12.256,12.256,0,0,0-.313-2.539c-.079-.339-.694.426-.722.453a.7.7,0,0,1-.558.3,3.713,3.713,0,0,1-2.06-.774,2.587,2.587,0,0,0-.381-.236,1.158,1.158,0,0,0-.309-.088,1.87,1.87,0,0,0-1.051.214c-.423.209-.792.51-1.211.725a3.407,3.407,0,0,1-1.085.339c-.382.052-.839.078-1.036.41h0A.737.737,0,0,0,745.237,823.408Z" transform="translate(-664.653 -732.795)"/><path class="m" d="M744.878,823.568a1.786,1.786,0,0,0,.864.379,15.543,15.543,0,0,0,2.15.266l.7.054c.679.052,1.371.1,2.059.108a14.176,14.176,0,0,0,2.532-.22.275.275,0,0,0,.2-.1,1.131,1.131,0,0,0,.157-.286,12.448,12.448,0,0,0-.439-2.542c-.079-.339-.693.425-.722.453a.7.7,0,0,1-.558.3,3.712,3.712,0,0,1-2.06-.774,2.607,2.607,0,0,0-.381-.236,1.158,1.158,0,0,0-.309-.088,2.527,2.527,0,0,0,1.2,1.31,6.312,6.312,0,0,0,2.516.234.34.34,0,0,1,.178.043.36.36,0,0,1,.105.334c-.007.2-.033.441-.209.544a.608.608,0,0,1-.282.059,39.815,39.815,0,0,1-6.273-.226,3.416,3.416,0,0,1-1.018-.226,2.683,2.683,0,0,1-.593-.381C744.423,822.791,744.646,823.352,744.878,823.568Z" transform="translate(-664.294 -732.828)"/><path class="k" d="M754.973,365.632c.012.331-.215.976.406.792.371-.107.475-.545.945-.453s.578.679.738,1.056a2.023,2.023,0,0,0,1.464,1.183.88.88,0,0,0,.4,0,1.085,1.085,0,0,0,.6-.689,5.247,5.247,0,0,0,.266-.756,3.2,3.2,0,0,0,.1-.555h0a2.53,2.53,0,0,0,0-.384,3.111,3.111,0,0,0-1.037-1.965,9.286,9.286,0,0,0-1.879-1.268,2.732,2.732,0,0,0-.692-.309,2.3,2.3,0,0,0-.732-.031,2.566,2.566,0,0,0-.931.218,1.3,1.3,0,0,0-.328.226.985.985,0,0,0-.284.474,1.74,1.74,0,0,0,.444,1.314A2.428,2.428,0,0,1,754.973,365.632Z" transform="translate(-672.638 -326.075)"/><path class="f" d="M670.35,442.854c.132-.339.69-1.26.53-1.584a4.231,4.231,0,0,0-.425.759C670.349,442.293,670.435,442.64,670.35,442.854Z" transform="translate(-598.47 -396.165)"/><path class="f" d="M754.3,367.684a1.733,1.733,0,0,1-.446-1.313,1.019,1.019,0,0,1,.362-.541.863.863,0,0,0-.092.226,1.735,1.735,0,0,0,.445,1.314,2.335,2.335,0,0,1,.52,1.131c.012.333-.215.977.407.792.37-.107.474-.546.945-.453s.577.679.737,1.056a2.022,2.022,0,0,0,1.464,1.182.881.881,0,0,0,.4,0,.6.6,0,0,0,.19-.093.823.823,0,0,1-.459.406.881.881,0,0,1-.4,0,2.025,2.025,0,0,1-1.465-1.183c-.159-.379-.263-.956-.737-1.056s-.575.339-.945.453c-.622.18-.395-.465-.407-.792A2.292,2.292,0,0,0,754.3,367.684Z" transform="translate(-672.502 -329.26)"/><path class="f" d="M755.25,363.882a2.884,2.884,0,0,0,.191.273,3.263,3.263,0,0,0,.439.453c.1.083.193.159.3.233a4.743,4.743,0,0,0,.6.358,10.929,10.929,0,0,0,1.923.688l1.283.373c.157.113.446.334.764.557a3.22,3.22,0,0,0,.1-.555h0a2.546,2.546,0,0,0,0-.384,3.111,3.111,0,0,0-1.037-1.965,9.279,9.279,0,0,0-1.879-1.268,2.727,2.727,0,0,0-.692-.309,2.3,2.3,0,0,0-.732-.031,2.566,2.566,0,0,0-.931.218,1.3,1.3,0,0,0-.328.226,1.255,1.255,0,0,0-.164.347A.985.985,0,0,0,755.25,363.882Z" transform="translate(-673.588 -326.119)"/><path class="g" d="M755.254,358.37a2.861,2.861,0,0,0,.191.272,3.15,3.15,0,0,0,.439.453,3.436,3.436,0,0,0,.3.235,4.884,4.884,0,0,0,.6.359,11.105,11.105,0,0,0,1.923.688l1.283.372c.453.339,1.946,1.449,2.2,1.31.3-.163-1.329-1.315-1.329-1.315l-.075.057a1.192,1.192,0,0,0,.416-.792,4.023,4.023,0,0,0,.014-1.627,1.923,1.923,0,0,0-.933-1.284,2.233,2.233,0,0,1-.632-.356.433.433,0,0,1-.061-.083.284.284,0,0,1-.025-.044.581.581,0,0,0-.068-.132c-.089-.1-.251-.072-.386-.055h-.043a.538.538,0,0,1-.074,0c-.482.011-.949-.257-1.437-.257a3.684,3.684,0,0,0-1.461.519c-.1.043-.186.083-.271.122a1.168,1.168,0,0,0-.735.777A.976.976,0,0,0,755.254,358.37Z" transform="translate(-673.592 -320.693)"/><path class="f" d="M789.559,358.433a.235.235,0,0,0-.03.113.226.226,0,0,0,.08.173.4.4,0,0,0,.2.071,1.469,1.469,0,0,0,.158.012.424.424,0,0,0,.208-.035.244.244,0,0,0,.036-.024.43.43,0,0,1-.061-.083c-.012.009-.025.007-.073,0a1.193,1.193,0,0,1-.26-.044.3.3,0,0,1-.1-.048.285.285,0,0,1-.092-.14Z" transform="translate(-704.167 -322.697)"/><path class="f" d="M799.579,396.463a.611.611,0,0,1-.226.083.9.9,0,0,1-.172.027.953.953,0,0,1-.421-.113" transform="translate(-712.353 -356.425)"/><rect class="o" width="5.852" height="2.871" transform="translate(22.772 38.577)"/><rect class="o" width="5.852" height="2.871" transform="translate(22.772 46.638)"/><rect class="o" width="5.852" height="2.871" transform="translate(22.772 54.699)"/><rect class="o" width="5.852" height="2.871" transform="translate(22.772 62.759)"/><path class="p" d="M203.178,376.48c.163-.1.1-.382-.07-.477a.821.821,0,0,0-.566-.027.226.226,0,0,0-.121-.243v-.042a.3.3,0,0,0-.066-.429.865.865,0,0,0-.527-.093.7.7,0,0,0-.226-.6.186.186,0,0,0-.122-.059c-.105,0-.14.141-.148.247a4.871,4.871,0,0,1-.136.816l-3.429,5.744c-.382.552.805-1.1.423-.548a4.943,4.943,0,0,1-.679.84,3.333,3.333,0,0,1-.764.51.9.9,0,0,1-.522-.147,2.11,2.11,0,0,1-.5-.5,9.794,9.794,0,0,1-.809-1.2,1.51,1.51,0,0,1-.186-.43,3.949,3.949,0,0,0-.1-.72,1.115,1.115,0,0,0-.147-.234l-.236-.316a.056.056,0,0,1,0-.014,1.78,1.78,0,0,0-.758-1.131,2.057,2.057,0,0,0-1.018-.587c-.213-.027-.43.014-.643-.014-.173-.021-.339-.087-.509-.113a2.239,2.239,0,0,0-.5-.01l-.071-.064a1.987,1.987,0,0,0,.894-.751c.164-.265.252-.566.4-.841.184-.331.453-.605.666-.923a3.413,3.413,0,0,0,.385-2.6,6.256,6.256,0,0,0-1.22-2.389,4.7,4.7,0,0,0-4.513-1.611c-.113.017-.226.038-.334.062a4.234,4.234,0,0,0-.82.262,2.081,2.081,0,0,0-.895.7,1.511,1.511,0,0,0-.156.29,1.654,1.654,0,0,0-.076.238,2.457,2.457,0,0,0-.041.747c.007.085.016.171.026.256a.983.983,0,0,0,.016.128c.011.085.024.171.035.256.018.128.035.256.047.381a2.383,2.383,0,0,1,.014.269v.067a1.061,1.061,0,0,1-.029.2,1.008,1.008,0,0,1-.033.1,1.311,1.311,0,0,1-.156.287,3.843,3.843,0,0,1-.279.339l-.1.113-.1.113a3.946,3.946,0,0,0-.345.467,2.222,2.222,0,0,0-.137.256,1.875,1.875,0,0,0-.077.206,1.482,1.482,0,0,0-.06.286c0,.025-.006.049-.007.074a1.245,1.245,0,0,0,0,.145,1,1,0,0,0,.016.143,1.094,1.094,0,0,0,.084.275c0,.012.012.025.018.036s.012.024.018.036l.035.072a.528.528,0,0,1,.036.113v.04a.266.266,0,0,1,0,.042.453.453,0,0,1-.163.282c-.021.02-.045.04-.068.059l-.035.028-.071.057-.069.055a1.356,1.356,0,0,0-.166.166,6.132,6.132,0,0,0-1.849.181,2.526,2.526,0,0,1-.664.12.33.33,0,0,1-.287-.121.434.434,0,0,1-.029-.264A2.275,2.275,0,0,0,180.5,374a.608.608,0,0,0-.178-.258.251.251,0,0,0-.293-.016,2.76,2.76,0,0,1-.076,1.842,6.076,6.076,0,0,1-.425.8c-.252.429-.394.92-.618,1.364a19.217,19.217,0,0,1,.327,2.633,12.166,12.166,0,0,0,.694,2.376,3.82,3.82,0,0,0,.919,1.605.843.843,0,0,0,.566.247,1,1,0,0,0,.445-.167,1.73,1.73,0,0,0,.374-.276.852.852,0,0,0,.113-.147.554.554,0,0,0,.083.208c.269-.58.566-1.148.882-1.7a1.457,1.457,0,0,0,.265-.181c.006.019.01.04.015.06-.014.053-.027.107-.042.161s-.031.1-.046.152-.023.075-.035.113-.029.088-.045.132l-.054.144c-.014.034-.026.068-.041.1-.034.083-.069.165-.107.247a.741.741,0,0,0,.094.039l.021.007a.825.825,0,0,0,.087.021h.032l.066.007h.1a1.038,1.038,0,0,0,.233-.041c.015.059.028.119.043.178a6.323,6.323,0,0,1,.213,1.212,9.509,9.509,0,0,0,.028,1.392c.046.236.138.464.171.7a2.923,2.923,0,0,1-.012.679l-.154,1.627a1.39,1.39,0,0,1-.139.574c-.077.132-.2.284-.123.415a2.7,2.7,0,0,1,.388-.075c-.048.173-.091.346-.131.52a.915.915,0,0,0-.031.4,2.554,2.554,0,0,1,.113.368,1.187,1.187,0,0,1-.195.558,1.932,1.932,0,0,0,.218,1.471l.609,1.381q.249.566.5,1.131c.148.339.3.679.44,1.018a32.979,32.979,0,0,1,1.593,4.775.559.559,0,0,0,.081.207c.085.113.238.146.362.215a.675.675,0,0,1,.075,1.078c.071.83-.551,1.633-.871,2.4-.738,1.768-.6,3.761-.858,5.657l.286-.167a.377.377,0,0,1,.093.061c-.007.035-.014.07-.023.106a1.682,1.682,0,0,1-.184.459,2.462,2.462,0,0,0-.459.871,5.319,5.319,0,0,0,.036.6v.055c-.025-.025-.063-.023-.122.023a.726.726,0,0,0-.18.339c-.05.141-.089.286-.129.431l-.139.511a5.928,5.928,0,0,1-.3.9,3.775,3.775,0,0,0-.265.611,1.888,1.888,0,0,0-.046.524,1.593,1.593,0,0,0,.072.5,1.235,1.235,0,0,0,.723.687,3.394,3.394,0,0,0,1,.189.858.858,0,0,0,.264-.007.726.726,0,0,0,.257-.133,2.129,2.129,0,0,0,.748-1.55,2.24,2.24,0,0,0-.063-.352c.028-.628-.063-1.259-.015-1.885.009.071.02.141.031.213l.113.7a.149.149,0,0,0-.038-.066,1.619,1.619,0,0,0-.041.806,4.717,4.717,0,0,0,.226.781l.15.42a.752.752,0,0,0,.7.593,5.691,5.691,0,0,0,1.267.216.291.291,0,0,0,.167-.031.966.966,0,0,0,.075-.063.687.687,0,0,1,.122-.071.8.8,0,0,0,.388-.459.728.728,0,0,0-.071-.6,1.369,1.369,0,0,0-.172-.208l-.755-.8a4.336,4.336,0,0,0-.37-.391.138.138,0,0,0-.121-.041,3.887,3.887,0,0,1-.143-1.672c.01-.167.1-.516.139-.8a1.276,1.276,0,0,0,.4-.216.613.613,0,0,0,.226-.339,58.283,58.283,0,0,1,1.573-5.728c.057-.187.113-.374.169-.566l.07-.24c.018-.066.038-.131.057-.2.032-.113.062-.221.092-.331.009-.029.017-.06.025-.089a.105.105,0,0,0,0-.018c.037-.136.072-.272.108-.407l.041-.156c.044-.173.086-.347.128-.52.006-.024.011-.049.016-.073a.319.319,0,0,0-.012-.184h0a.3.3,0,0,0-.044-.063c-.011-.014-.025-.028-.038-.042l-.042-.046a.417.417,0,0,1-.077-.145v-.158c0-.052-.007-.113-.01-.169a1.721,1.721,0,0,1,.05-.219c.012-.043.027-.086.041-.129s.033-.113.051-.161a.4.4,0,0,0,.1-.273c.068-.171.143-.339.226-.5a1.529,1.529,0,0,0,.2-.543,2.171,2.171,0,0,0-.066-.516,4.364,4.364,0,0,1,.466-2.1,9.321,9.321,0,0,0,.411-1.541,3.264,3.264,0,0,1,.339-1.175,1.768,1.768,0,0,0,.181-.312,1.254,1.254,0,0,0,.049-.356,3.908,3.908,0,0,1,.347-1.411.831.831,0,0,0,.09-.274.113.113,0,0,0,0-.019v-.027l.057-.008a7.5,7.5,0,0,0,.127-1.9,2.9,2.9,0,0,0-.971-1.834h.011a.6.6,0,0,0,.277-.538,1.048,1.048,0,0,0-.39-.821.4.4,0,0,1-.132-.136.413.413,0,0,1-.016-.179.912.912,0,0,0-.566-.844.208.208,0,0,1-.092-.053.226.226,0,0,1-.023-.161.988.988,0,0,0-.476-.905,1.551,1.551,0,0,0,.02-.716.535.535,0,0,0-.524-.407c.195-.531-.081-1.121-.008-1.681.032-.24.128-.471.14-.713a1.467,1.467,0,0,1,.063-.649c.107-.2.361-.339.3-.548-.028-.091-.113-.152-.149-.24s.113-.226.2-.172c.037-.028.075-.059.113-.089a1.848,1.848,0,0,0,.067.332c.053.181.137.352.192.532a4.4,4.4,0,0,0,.251.825c.226.4.687.6,1,.937.186.2.318.437.509.628a2.818,2.818,0,0,0,.475.356l1.018.661a1.153,1.153,0,0,0,.348.173.595.595,0,0,0,.7-.5.668.668,0,0,1-.251-.155.094.094,0,0,0,.043-.007,1.611,1.611,0,0,0,.656-.348A8.891,8.891,0,0,0,199.3,382.1a27.288,27.288,0,0,1,3.107-2.966v-.873a3.152,3.152,0,0,0,.856-.729.945.945,0,0,0,.215-.558A.491.491,0,0,0,203.178,376.48Zm-21.389,2.092q-.075.475-.182.946a9.2,9.2,0,0,1-.3,1.068c-.014.036-.027.074-.04.113-.037-.068-.074-.136-.106-.2-.084-.173-.15-.354-.217-.534l-.425-1.148a.53.53,0,0,1-.028-.458.514.514,0,0,1,.243-.182,4.857,4.857,0,0,1,.933-.317,2.751,2.751,0,0,0,.3-.079A4.489,4.489,0,0,0,181.789,378.572Zm.471-1.432a.173.173,0,0,1,0-.166.367.367,0,0,1,.113-.077.222.222,0,0,0,.032-.023Zm.882-1.245a2.2,2.2,0,0,0-.339.348,3.571,3.571,0,0,0-.292.453.328.328,0,0,0-.121-.334.688.688,0,0,1-.113-.075.232.232,0,0,1,.046-.325.679.679,0,0,1,.339-.113l.508-.075c-.007.033-.017.075-.028.114Zm4.767,36.949a1.855,1.855,0,0,0-.029-.453c.063,0,.126,0,.188-.006Z" transform="translate(-162.629 -330.702)"/><path class="n" d="M210.849,370.386a2.684,2.684,0,0,0-2.2,1.31,4.241,4.241,0,0,0,.008,2,1.531,1.531,0,0,1-.019.533,1.868,1.868,0,0,1-.467.733,3.9,3.9,0,0,0-.673.942,1.382,1.382,0,0,0-.045,1.131.832.832,0,0,1,.113.3c.01.226-.226.376-.407.523-.663.549-.635,1.549-.64,2.411a12.192,12.192,0,0,1-1.153,5.091,1.557,1.557,0,0,0,1.742-.226,5.817,5.817,0,0,1-.4,1.14,1.251,1.251,0,0,0,1.519-.731,13.262,13.262,0,0,0,.515-1.794c.2-.591.555-1.1.707-1.7a1.565,1.565,0,0,1,.2-.566,1.481,1.481,0,0,1,.353-.3,3.444,3.444,0,0,0,1.244-1.7,6.893,6.893,0,0,0,2.088.241,2.318,2.318,0,0,0,1.785-.98c.164-.265.252-.566.4-.839.184-.331.453-.605.666-.922a3.411,3.411,0,0,0,.383-2.6A6.243,6.243,0,0,0,215.355,372,4.68,4.68,0,0,0,210.849,370.386Z" transform="translate(-186.087 -333.239)"/><path class="g" d="M200.02,457.163q-.075.475-.181.944a9.106,9.106,0,0,1-.3,1.067,1.018,1.018,0,0,0-.1.491.882.882,0,0,0,.119.292,5.461,5.461,0,0,1,.993,2.23,1.177,1.177,0,0,0,.113.6q.468-1,1.032-1.961a6.071,6.071,0,0,0,.944-2.107,3.99,3.99,0,0,0-.015-1.083,2.345,2.345,0,0,0-.388-1.138c-.267-.35-1-.876-1.471-.767C200.205,455.858,200.09,456.714,200.02,457.163Z" transform="translate(-180.833 -408.973)"/><path class="i" d="M330.266,440.636a3.691,3.691,0,0,0,2.164-1.669l1.244-1.8a3.239,3.239,0,0,0,.661-1.387,4.569,4.569,0,0,0,1.244-2.819c.009-.105.044-.243.149-.245a.188.188,0,0,1,.122.058.7.7,0,0,1,.226.6.824.824,0,0,1,.526.092c.147.105.187.369.028.453a.226.226,0,0,1,.158.257.82.82,0,0,1,.566.026c.167.1.233.373.07.477a.492.492,0,0,1,.315.472.942.942,0,0,1-.215.557c-.476.639-1.319.9-1.871,1.471a4.442,4.442,0,0,0-.488.652l-1.6,2.437a8.773,8.773,0,0,1-1.758,2.142,1.614,1.614,0,0,1-.655.348.726.726,0,0,1-.688-.191,1.127,1.127,0,0,1-.2-.686C330.222,441.473,330.294,441.049,330.266,440.636Z" transform="translate(-296.848 -388.583)"/><path class="n" d="M260.368,791.145a1.361,1.361,0,0,1,.171.208.725.725,0,0,1,.072.594.806.806,0,0,1-.388.459.681.681,0,0,0-.122.07.927.927,0,0,1-.075.063.3.3,0,0,1-.167.032,5.832,5.832,0,0,1-1.267-.216,1.018,1.018,0,0,1-.523-.245,1,1,0,0,1-.179-.347l-.151-.419a4.855,4.855,0,0,1-.226-.779,1.614,1.614,0,0,1,.041-.8.243.243,0,0,1,.055.164,1.823,1.823,0,0,0,.322.781.626.626,0,0,0,.5.316,4.7,4.7,0,0,0,.8.1.24.24,0,0,0,.113-.014.2.2,0,0,0,.092-.113.488.488,0,0,0,0-.33c-.071-.2-.272-.339-.368-.532-.07-.144.028-.3.173-.18a4.484,4.484,0,0,1,.37.39Z" transform="translate(-232.311 -705.229)"/><path class="i" d="M258.506,764.386a3.187,3.187,0,0,0,.3,1.969c.132.2.31.374.462.566a.672.672,0,0,1,.165.339.523.523,0,0,1-.453.5,1.525,1.525,0,0,1-.73-.105,1.336,1.336,0,0,1-1.09-1.431l-.15-.965a3.063,3.063,0,0,1-.054-.7,3.109,3.109,0,0,1,.189-.759l.248-.725a.339.339,0,0,1,.113-.18.314.314,0,0,1,.188-.035c.238.012.834.1.949.35C258.734,763.43,258.523,764.126,258.506,764.386Z" transform="translate(-231.84 -681.371)"/><path class="l" d="M258.506,764.386a3.187,3.187,0,0,0,.3,1.969c.132.2.31.374.462.566a.672.672,0,0,1,.165.339.523.523,0,0,1-.453.5,1.525,1.525,0,0,1-.73-.105,1.336,1.336,0,0,1-1.09-1.431l-.15-.965a3.063,3.063,0,0,1-.054-.7,3.109,3.109,0,0,1,.189-.759l.248-.725a.339.339,0,0,1,.113-.18.314.314,0,0,1,.188-.035c.238.012.834.1.949.35C258.734,763.43,258.523,764.126,258.506,764.386Z" transform="translate(-231.84 -681.371)"/><path class="n" d="M266.085,586.445a.112.112,0,0,1,0,.019.85.85,0,0,1-.091.274,3.919,3.919,0,0,0-.347,1.408,1.244,1.244,0,0,1-.049.355,1.762,1.762,0,0,1-.181.312,3.359,3.359,0,0,0-.339,1.174,9.167,9.167,0,0,1-.411,1.539,4.374,4.374,0,0,0-.465,2.1,2.151,2.151,0,0,1,.066.515,1.529,1.529,0,0,1-.2.543c-.084.163-.158.33-.226.5s-.137.372-.192.566a.754.754,0,0,0,.042.69.879.879,0,0,1,.124.153.4.4,0,0,1,0,.26q-.13.552-.281,1.1c-.077.287-.158.572-.243.858-.62,2.084-1.322,4.146-1.74,6.281-.06.307-.453.527-.759.594a1,1,0,0,1-.872-.233l-.06-.06a1.813,1.813,0,0,1-.339-1.351c.113-2.2,1.214-4.206,1.74-6.341a12.147,12.147,0,0,0,.339-2.354,24.6,24.6,0,0,0-.577-8,2.065,2.065,0,0,1-.061-1.6,1.605,1.605,0,0,1,.829-.606,5.335,5.335,0,0,1,4.137.105,1.494,1.494,0,0,1-.006.159,1.621,1.621,0,0,0,.083.731A.912.912,0,0,1,266.085,586.445Z" transform="translate(-234.112 -523.43)"/><path class="n" d="M231.477,776.024l-.139.51a5.893,5.893,0,0,1-.3.9,3.828,3.828,0,0,0-.265.61,1.885,1.885,0,0,0-.045.523,1.559,1.559,0,0,0,.072.5,1.23,1.23,0,0,0,.722.686,3.4,3.4,0,0,0,1,.189.86.86,0,0,0,.264-.007.727.727,0,0,0,.256-.134,2.126,2.126,0,0,0,.748-1.548,1.918,1.918,0,0,0-.079-.395c-.036-.049-.388.15-.238.316.226.247-.43.119-.761.1a3.076,3.076,0,0,1-.43-.071l-.537-.113c-.175-.039-.378-.1-.44-.267s.074-.369.18-.532a3.483,3.483,0,0,0,.417-1.478c.012-.1.138-.752-.121-.55a.727.727,0,0,0-.18.339C231.556,775.736,231.516,775.881,231.477,776.024Z" transform="translate(-208.583 -692.332)"/><path class="l" d="M263.683,674.88a.763.763,0,0,1-.042-.69c.025-.086.052-.172.08-.257l-2.108-.713c-.008.189-.016.378-.025.566a12.177,12.177,0,0,1-.339,2.356c-.526,2.134-1.633,4.144-1.74,6.335a1.755,1.755,0,0,0,.4,1.411,1,1,0,0,0,.872.233c.305-.067.7-.287.759-.6.417-2.134,1.119-4.2,1.74-6.281q.291-.971.524-1.957a.4.4,0,0,0,0-.259A.792.792,0,0,0,263.683,674.88Z" transform="translate(-234.105 -601.874)"/><path class="i" d="M234.933,755.009a2.447,2.447,0,0,0-.459.87,5.286,5.286,0,0,0,.036.6,1.889,1.889,0,0,1-.087.487q-.308,1.112-.709,2.194a.6.6,0,0,0-.055.3.518.518,0,0,0,.348.347,3.682,3.682,0,0,0,1.612.178.843.843,0,0,0,.453-.105.791.791,0,0,0,.256-.635c.037-.679-.078-1.371,0-2.052.027-.248.079-.492.119-.739a2.169,2.169,0,0,0-.032-1.03,2.406,2.406,0,0,0-.386-.648,2.022,2.022,0,0,0-.536-.534c-.063-.039-.247-.155-.311-.081-.033.037-.018.137-.024.183a1.706,1.706,0,0,1-.037.213A1.737,1.737,0,0,1,234.933,755.009Z" transform="translate(-211.182 -673.63)"/><path class="l" d="M261.854,587.2a.579.579,0,0,0-.039.48c.07.292.187.566.282.855a11.829,11.829,0,0,1,.362,1.554,4.546,4.546,0,0,1,.2,1.482,10.594,10.594,0,0,1,1.12,3.507c.043.314-.656.722-.643,1.04.026.63.529.679.157,1.186-.018.025.139.588.113.613-.152.182-.339.327-.506.5a3.828,3.828,0,0,0-.533.782c-.962,1.734-2.35,3.7-1.923,5.64a.339.339,0,0,1-.183.349.917.917,0,0,1-.406.094h-.067a1.813,1.813,0,0,1-.339-1.351c.113-2.2,1.214-4.206,1.74-6.341a12.152,12.152,0,0,0,.339-2.354,24.6,24.6,0,0,0-.577-8,2.065,2.065,0,0,1-.061-1.6,1.606,1.606,0,0,1,.829-.606,5.335,5.335,0,0,1,4.137.105,1.494,1.494,0,0,1-.006.159,1.621,1.621,0,0,0,.083.731.911.911,0,0,1,.083.318c0,.007.038-.427.037-.421-.861.124-1.759.688-2.62.811a6.018,6.018,0,0,0-1.315.29A.589.589,0,0,0,261.854,587.2Z" transform="translate(-234.05 -523.332)"/><path class="n" d="M224.187,559.358q-.175.552-.305,1.115a.927.927,0,0,0-.032.4,2.284,2.284,0,0,1,.113.368,1.184,1.184,0,0,1-.193.558,1.918,1.918,0,0,0,.217,1.464l.609,1.381.5,1.131c.148.339.3.673.44,1.013a32.9,32.9,0,0,1,1.592,4.769.576.576,0,0,0,.081.208c.085.113.238.145.362.214a.675.675,0,0,1,.075,1.077c.071.829-.551,1.63-.871,2.4-.737,1.766-.6,3.756-.856,5.657l.286-.166c.275.125.265.515.413.778a1.247,1.247,0,0,0,1.217.422.927.927,0,0,0,.406-.094.339.339,0,0,0,.183-.349c-.428-1.937.961-3.9,1.923-5.641a3.766,3.766,0,0,1,.533-.781c.163-.172.354-.317.506-.5a2.745,2.745,0,0,0,.453-1.889,10.584,10.584,0,0,0-1.2-4.462,4.663,4.663,0,0,0-.2-1.481,11.724,11.724,0,0,0-.361-1.55c-.1-.286-.212-.566-.282-.856a.456.456,0,0,1,.31-.655,6.037,6.037,0,0,1,1.317-.3l2.96-.425a7.49,7.49,0,0,0,.127-1.9,2.919,2.919,0,0,0-2.086-2.441.443.443,0,0,0-.387.025,15.407,15.407,0,0,0-7.846.506Z" transform="translate(-202.344 -500.19)"/><path class="i" d="M235.133,412.893a1.457,1.457,0,0,1-.13.847,1.333,1.333,0,0,1-.339.372,2.537,2.537,0,0,1-.975.485,1.035,1.035,0,0,0-.584.255c-.208.251-.069.63.113.905a2.365,2.365,0,0,0,1.28,1.058c.437.119.905.045,1.349.123.324.055.628.189.947.266a2.8,2.8,0,0,0,2.569-.717,3.666,3.666,0,0,1-1.212-1.3,1.839,1.839,0,0,1-.093-1.244,2.774,2.774,0,0,0,.291-1.211,1.259,1.259,0,0,0-.889-.836,5.729,5.729,0,0,0-1.114-.226c-.209-.028-1.534-.321-1.617-.177-.046.081.226.566.262.672A2.533,2.533,0,0,1,235.133,412.893Z" transform="translate(-210.6 -369.725)"/><circle class="i" cx="2.688" cy="2.688" r="2.688" transform="translate(23.511 38.758)"/><path class="g" d="M211.793,441.082l1.823.308a6.9,6.9,0,0,0,1.358.137,3.784,3.784,0,0,1,.75,0c.172.028.339.094.51.113.213.027.429-.014.641.014a2.026,2.026,0,0,1,1.018.586,1.79,1.79,0,0,1,.757,1.131.317.317,0,0,1-.021.156.458.458,0,0,1-.135.141,4.239,4.239,0,0,0-.761,1.048,4.065,4.065,0,0,1-.905.976c-.079-.051-.226.084-.2.171s.121.149.149.24c.065.206-.19.357-.3.547a1.486,1.486,0,0,0-.063.649c-.012.241-.113.472-.14.712-.074.56.2,1.149.008,1.679a.531.531,0,0,1,.524.407,1.532,1.532,0,0,1-.022.715.984.984,0,0,1,.476.9.216.216,0,0,0,.024.161.226.226,0,0,0,.092.053.905.905,0,0,1,.566.843.406.406,0,0,0,.017.178.4.4,0,0,0,.131.137,1.048,1.048,0,0,1,.391.819.593.593,0,0,1-.278.539,4.932,4.932,0,0,1-1.224.364,10.5,10.5,0,0,1-1.185.209,10.652,10.652,0,0,1-1.109.035l-2.439-.01c-.679,0-1.371,0-2.055-.051a5.8,5.8,0,0,0-1.909.044c-.077-.13.046-.283.123-.414a1.4,1.4,0,0,0,.139-.574l.154-1.625a2.988,2.988,0,0,0,.011-.679c-.033-.239-.123-.465-.17-.7a9.47,9.47,0,0,1-.028-1.389,6.508,6.508,0,0,0-.213-1.211l-.475-1.984a7.1,7.1,0,0,0-.238-1q-.559-1.432-1.169-2.841a.3.3,0,0,1,.021-.252l.4-.722a4.577,4.577,0,0,1,.369-.588,2.317,2.317,0,0,1,1.358-.835,2.4,2.4,0,0,1,1.584.234c.188.1.362.226.553.32A2.232,2.232,0,0,0,211.793,441.082Z" transform="translate(-187.016 -395.193)"/><path class="g" d="M300.813,463.85l.636.846a1.175,1.175,0,0,1,.147.234,3.89,3.89,0,0,1,.1.72,1.516,1.516,0,0,0,.186.429,9.731,9.731,0,0,0,.808,1.2,2.087,2.087,0,0,0,.5.5.824.824,0,0,0,.679.12.419.419,0,0,0-.226.2,2.456,2.456,0,0,0-.157,1.573,1.643,1.643,0,0,0,.176.515.77.77,0,0,0,.4.35.6.6,0,0,1-.7.5,1.183,1.183,0,0,1-.348-.173L302,470.2a2.931,2.931,0,0,1-.474-.356c-.19-.19-.324-.431-.509-.627-.316-.339-.78-.534-1-.936a4.32,4.32,0,0,1-.25-.825c-.057-.18-.139-.35-.193-.531a2.378,2.378,0,0,1,.209-1.7A6.942,6.942,0,0,1,300.813,463.85Z" transform="translate(-269.565 -416.191)"/><path class="n" d="M214.941,373.637a3.538,3.538,0,0,0-.946-.983,3.223,3.223,0,0,0-1.7-.722,1.845,1.845,0,0,0-.768.126c-.011-.759-.2-1.265-.673-1.188a2.684,2.684,0,0,0-2.2,1.31,4.241,4.241,0,0,0,.008,2,1.531,1.531,0,0,1-.019.533,1.868,1.868,0,0,1-.467.733,3.9,3.9,0,0,0-.673.942,1.382,1.382,0,0,0-.045,1.131.832.832,0,0,1,.113.3c.01.226-.226.376-.407.523-.663.549-.635,1.549-.64,2.411a12.192,12.192,0,0,1-1.153,5.091,1.557,1.557,0,0,0,1.742-.226,5.818,5.818,0,0,1-.4,1.14,1.251,1.251,0,0,0,1.519-.731,13.268,13.268,0,0,0,.515-1.794c.2-.591.555-1.1.707-1.7a1.566,1.566,0,0,1,.2-.566,1.482,1.482,0,0,1,.353-.3c.579-.415-.273-3.561-.046-4.238.339.075.955-1.549,1.307-3.2a1.673,1.673,0,0,0,.765.076.977.977,0,0,1,.274-.019.73.73,0,0,1,.239.1,5.878,5.878,0,0,0,.813.419,4.6,4.6,0,0,0,1.846.157A1.836,1.836,0,0,0,214.941,373.637Z" transform="translate(-186.087 -333.723)"/><g class="q" transform="translate(19.276 37.139)"><path d="M205.693,385.842a12.208,12.208,0,0,0,1.153-5.091c0-.862-.024-1.862.64-2.411.176-.147.417-.293.406-.523a.808.808,0,0,0-.113-.3,1.388,1.388,0,0,1,.044-1.131,3.929,3.929,0,0,1,.673-.942,1.9,1.9,0,0,0,.468-.733,1.561,1.561,0,0,0,.019-.533,4.227,4.227,0,0,1-.008-2,2.615,2.615,0,0,1,2.119-1.3.452.452,0,0,0-.226-.015,2.684,2.684,0,0,0-2.2,1.31,4.241,4.241,0,0,0,.008,2,1.533,1.533,0,0,1-.019.533,1.868,1.868,0,0,1-.467.733,3.9,3.9,0,0,0-.673.942,1.382,1.382,0,0,0-.045,1.131.831.831,0,0,1,.113.3c.01.226-.226.376-.407.523-.663.549-.635,1.549-.64,2.411a12.192,12.192,0,0,1-1.153,5.091,1.506,1.506,0,0,0,.854.159A1.462,1.462,0,0,1,205.693,385.842Z" transform="translate(-205.38 -370.859)"/><path d="M217.567,502.41a5.817,5.817,0,0,0,.395-1.14,1.433,1.433,0,0,1-.382.253,5.754,5.754,0,0,1-.329.887.838.838,0,0,0,.519.067A.833.833,0,0,1,217.567,502.41Z" transform="translate(-215.907 -486.516)"/><path d="M262.619,380.427a1.812,1.812,0,0,1,.511-.12l-.06-.006a1.808,1.808,0,0,0-.453.034C262.616,380.366,262.619,380.4,262.619,380.427Z" transform="translate(-256.142 -379.231)"/><path d="M268.583,401.562a5.948,5.948,0,0,1-.815-.419.71.71,0,0,0-.239-.1.847.847,0,0,0-.25.016.924.924,0,0,1,.173.081,5.871,5.871,0,0,0,.813.419,3.662,3.662,0,0,0,1.363.176A3.209,3.209,0,0,1,268.583,401.562Z" transform="translate(-260.277 -397.628)"/><path d="M260.2,400.57c-.006.024-.011.048-.016.072a1.626,1.626,0,0,0,.4.01A1.714,1.714,0,0,1,260.2,400.57Z" transform="translate(-253.98 -397.209)"/></g><path class="i" d="M182.755,435a.979.979,0,0,1-.264.785,1.721,1.721,0,0,1-.374.275.986.986,0,0,1-.445.167.838.838,0,0,1-.566-.247,3.791,3.791,0,0,1-.918-1.6,12.011,12.011,0,0,1-.694-2.369,19.352,19.352,0,0,0-.326-2.629c.226-.445.364-.935.617-1.363a6.2,6.2,0,0,0,.425-.8,2.744,2.744,0,0,0,.07-1.838.249.249,0,0,1,.294.016.6.6,0,0,1,.178.257,2.28,2.28,0,0,1,.175,1.08.437.437,0,0,0,.032.265.339.339,0,0,0,.287.121,2.525,2.525,0,0,0,.663-.121,6.191,6.191,0,0,1,2.044-.169.979.979,0,0,1,.4.1.372.372,0,0,1,.206.334l-1.635.239a.669.669,0,0,0-.339.113.226.226,0,0,0-.048.324.757.757,0,0,0,.113.076.339.339,0,0,1-.014.537.34.34,0,0,0-.113.077c-.067.089.023.208.05.317a.4.4,0,0,1-.2.407,1.383,1.383,0,0,1-.453.153,4.8,4.8,0,0,0-.933.318.5.5,0,0,0-.243.181.546.546,0,0,0,.028.458l.425,1.147c.067.18.133.36.217.532.113.226.242.437.353.66a6.925,6.925,0,0,1,.266.643C182.254,434.031,182.683,434.381,182.755,435Z" transform="translate(-162.86 -382.038)"/><path class="i" d="M376.434,440.178a.508.508,0,0,0-.187.273.113.113,0,0,0,.043.122.125.125,0,0,0,.076,0,.719.719,0,0,0,.328-.156.34.34,0,0,0-.1.079.113.113,0,0,0-.012.12.155.155,0,0,0,.107.057,1.048,1.048,0,0,0,.474-.023.636.636,0,0,0-.2.113.262.262,0,0,0-.088.2.1.1,0,0,0,.035.077.142.142,0,0,0,.052.018,1.275,1.275,0,0,0,.44,0,.226.226,0,0,0,.186-.113.277.277,0,0,0-.043-.213,1.179,1.179,0,0,1-.113-.539.219.219,0,0,0-.016-.113.2.2,0,0,0-.1-.071.823.823,0,0,0-.541-.107A1.116,1.116,0,0,0,376.434,440.178Z" transform="translate(-337.637 -394.939)"/><path class="g" d="M366.806,410.38l-5.4,2.921a.113.113,0,0,0,.008.2l.921.347a.216.216,0,0,1,.121.113l.716,1.471c.014.066.134.083.135.017l-.113-1.218a.435.435,0,0,1,.1-.245l2.8-2.742a.066.066,0,0,1,.061-.018.064.064,0,0,1,.035.1l-2.409,2.958a.539.539,0,0,0-.1.243l-.144,1.052c.011.092.084.127.141.044l.52-.61a.113.113,0,0,1,.152-.026l1.341.976a.113.113,0,0,0,.17-.067l1.1-5.4a.113.113,0,0,0-.158-.122Z" transform="translate(-324.428 -368.761)"/><ellipse class="g" cx="6.728" cy="1.294" rx="6.728" ry="1.294" transform="translate(97.025 89.596)"/><ellipse class="k" cx="0.783" cy="1.025" rx="0.783" ry="1.025" transform="translate(102.858 89.315)"/><ellipse class="k" cx="0.783" cy="1.025" rx="0.783" ry="1.025" transform="translate(102.858 88.063)"/><ellipse class="k" cx="0.783" cy="1.025" rx="0.783" ry="1.025" transform="translate(102.858 86.809)"/><ellipse class="k" cx="0.783" cy="1.025" rx="0.783" ry="1.025" transform="translate(102.858 85.556)"/><ellipse class="k" cx="0.783" cy="1.025" rx="0.783" ry="1.025" transform="translate(102.858 84.302)"/><ellipse class="k" cx="0.783" cy="1.025" rx="0.783" ry="1.025" transform="translate(102.858 83.05)"/><ellipse class="k" cx="0.783" cy="1.025" rx="0.783" ry="1.025" transform="translate(102.858 81.796)"/><path class="g" d="M924.44,651.2a3.959,3.959,0,0,0,.292-.429l-2.059-.339,2.227.017a3.764,3.764,0,0,0,.071-2.973l-2.986,1.549L924.739,647a3.753,3.753,0,1,0-6.2,4.2,3.877,3.877,0,0,0-.428.679l2.672,1.388-2.849-.956a47.974,47.974,0,0,1,1.008,8.6,7.6,7.6,0,0,0,5.495-9.713Z" transform="translate(-817.867 -576.953)"/><path class="f" d="M917.78,718.917a14.935,14.935,0,0,1,1.206,7.394,3.752,3.752,0,0,0,5.495-5.074C924.983,720.6,917.78,718.5,917.78,718.917Z" transform="translate(-817.907 -642.352)"/><ellipse class="g" cx="3.841" cy="0.739" rx="3.841" ry="0.739" transform="translate(36.667 86.687)"/><ellipse class="k" cx="0.447" cy="0.585" rx="0.447" ry="0.585" transform="translate(40.125 86.527)"/><ellipse class="k" cx="0.447" cy="0.585" rx="0.447" ry="0.585" transform="translate(40.125 85.812)"/><ellipse class="k" cx="0.447" cy="0.585" rx="0.447" ry="0.585" transform="translate(40.125 85.095)"/><ellipse class="k" cx="0.447" cy="0.585" rx="0.447" ry="0.585" transform="translate(40.125 84.38)"/><ellipse class="k" cx="0.447" cy="0.585" rx="0.447" ry="0.585" transform="translate(40.125 83.664)"/><ellipse class="k" cx="0.447" cy="0.585" rx="0.447" ry="0.585" transform="translate(40.125 82.949)"/><ellipse class="k" cx="0.447" cy="0.585" rx="0.447" ry="0.585" transform="translate(40.125 82.234)"/><path class="g" d="M375.228,704.114a2.12,2.12,0,0,1-.166-.246l1.174-.192-1.271.009a2.149,2.149,0,0,1-.041-1.7l1.7.885-1.573-1.156a2.143,2.143,0,1,1,3.538,2.4,2.069,2.069,0,0,1,.244.39l-1.525.792,1.627-.543a2.159,2.159,0,0,1,.113.688,8.488,8.488,0,0,0-.69,4.221,4.337,4.337,0,0,1-3.137-5.546Z" transform="translate(-336.33 -626.191)"/><path class="f" d="M379.054,742.812a8.488,8.488,0,0,0-.69,4.221,2.142,2.142,0,0,1-3.137-2.9C374.941,743.771,379.054,742.571,379.054,742.812Z" transform="translate(-336.33 -663.564)"/><ellipse class="g" cx="2.583" cy="0.497" rx="2.583" ry="0.497" transform="translate(9.315 80.988)"/><ellipse class="k" cx="0.301" cy="0.394" rx="0.301" ry="0.394" transform="translate(11.641 80.88)"/><ellipse class="k" cx="0.301" cy="0.394" rx="0.301" ry="0.394" transform="translate(11.641 80.399)"/><ellipse class="k" cx="0.301" cy="0.394" rx="0.301" ry="0.394" transform="translate(11.641 79.917)"/><ellipse class="k" cx="0.301" cy="0.394" rx="0.301" ry="0.394" transform="translate(11.641 79.436)"/><ellipse class="k" cx="0.301" cy="0.394" rx="0.301" ry="0.394" transform="translate(11.641 78.956)"/><ellipse class="k" cx="0.301" cy="0.394" rx="0.301" ry="0.394" transform="translate(11.641 78.475)"/><ellipse class="k" cx="0.301" cy="0.394" rx="0.301" ry="0.394" transform="translate(11.641 77.994)"/><path class="g" d="M128.18,688.022a1.245,1.245,0,0,1-.113-.165l.792-.129H128a1.439,1.439,0,0,1-.028-1.14l1.146.6-1.058-.777a1.44,1.44,0,1,1,2.376,1.612,1.461,1.461,0,0,1,.164.262l-1.023.531,1.093-.367a1.416,1.416,0,0,1,.076.462,5.714,5.714,0,0,0-.46,2.842,2.92,2.92,0,0,1-2.11-3.732Z" transform="translate(-117.363 -612.926)"/><path class="f" d="M130.76,714.063a5.714,5.714,0,0,0-.46,2.842,1.441,1.441,0,0,1-2.11-1.951C128,714.709,130.76,713.9,130.76,714.063Z" transform="translate(-117.372 -638.078)"/></g></g></svg>