<svg xmlns="http://www.w3.org/2000/svg" xmlns:xlink="http://www.w3.org/1999/xlink" width="216.598" height="164.246" viewBox="0 0 216.598 164.246"><defs><style>.a,.e,.l,.m{fill:#00a0c6;}.b{fill:#444053;}.c,.d,.k{fill:none;}.c,.d{stroke:#444053;}.c,.d,.j,.k{stroke-miterlimit:10;}.d{stroke-width:0.75px;}.e,.q,.x{opacity:0.1;}.f{fill:url(#a);}.g{fill:#fff;}.h,.i,.n{fill:#5a5773;}.h{opacity:0.04;}.j{fill:#f4f4f7;}.j,.k{stroke:#5a5773;}.j,.k,.l,.n{opacity:0.2;}.k{stroke-dasharray:12;}.m{opacity:0.5;}.o{fill:url(#b);}.p{fill:#2d293d;}.r{fill:#575988;}.s,.t{opacity:0.05;}.u{fill:#ffcdd3;}.v{fill:#dce6f2;}.w{fill:#656691;}.y{fill:#ffd037;}.z{fill:#65617d;}.aa{fill:#9d9cb5;}</style><linearGradient id="a" x1="0.5" y1="1" x2="0.5" gradientUnits="objectBoundingBox"><stop offset="0" stop-color="gray" stop-opacity="0.251"/><stop offset="0.54" stop-color="gray" stop-opacity="0.122"/><stop offset="1" stop-color="gray" stop-opacity="0.102"/></linearGradient><linearGradient id="b" x1="0.5" y1="1.009" x2="0.5" y2="-0.002" xlink:href="#a"/></defs><g transform="translate(0 -0.003)"><path class="a" d="M100.249,47s-.753,2.937,4.508,11.237,4.895,9.476,4.592,11.85-.285,3.673-3.342,6.588c0,0-9.157,3.006-10.381,4.881s2.022,8.69,2.022,8.69,3.118,8.279-8.079,11.455c0,0-8.762.012-11.191,1.942,0,0,.94-3.36-1.982-8.3s1.1-9.758,1.1-9.758,3.242-1.785,5.3-1.922,2.711-1.08,1.387-3.446c0,0-1.914-1-4.566,1.14s-4.631,3.661-6.941,3.482a9.111,9.111,0,0,1-7.766-5.428c-2.162-4.274-3.3-10.317-4.919-13.076a11.629,11.629,0,0,0-2.5-3.364s2.046,1.553,9.111-3.719,10.752-3.016,10.752-3.016,5.678,1.525,6.588,11.537c0,0,1.651,9.54,5.007,3.761,0,0-1.136-3.254-3.406-8.045s3.8-9.3,8.253-10.81A12.1,12.1,0,0,0,100.249,47Z" transform="translate(-57.5 -45.325)"/><path class="b" d="M88.41,137.132l-.02-.05c1.4-.583,7.844,2.909,13,5.941l-.028.046C94.089,138.793,89.49,136.685,88.41,137.132Z" transform="translate(-82.223 -117.372)"/><path class="b" d="M152.83,166.88l.056-.03c4.116,2.426,9.055,5.5,12.754,8,.351.238.717.473,1.09.695l-.058.094c-.373-.224-.741-.459-1.094-.7C161.883,172.446,156.944,169.3,152.83,166.88Z" transform="translate(-133.799 -141.249)"/><path class="b" d="M221.63,210.3l.092-.072c7.42,4.454,17.859,3.394,17.951,3.394l-1.152,1.308C238.429,214.937,229.1,214.786,221.63,210.3Z" transform="translate(-188.865 -175.969)"/><path class="c" d="M192.4,80.61s-2.43,6.766-.583,11.533-2,16.579-2,16.579-1.276,4.969-3.328,6.211c0,0-2.977,3.7-4.721,4.118s-5.757,4.172-5.652,6.246" transform="translate(-152.44 -72.225)"/><path class="c" d="M257.052,83s-1.713,3.474-4.262,3.444" transform="translate(-213.804 -74.138)"/><path class="c" d="M261.454,105.62s-1.036,4.777-7.454,6.113" transform="translate(-214.772 -92.242)"/><path class="c" d="M266.528,141.28A10.288,10.288,0,0,1,257,145.53" transform="translate(-217.174 -120.784)"/><path class="c" d="M261.882,186.69s-5.683,3.723-9.982,1.679" transform="translate(-213.092 -157.128)"/><path class="c" d="M237.56,83s1.485,3.142,3.128,2.2" transform="translate(-201.614 -74.138)"/><path class="c" d="M210.32,106.91s2,4.216,8.243,3.476" transform="translate(-179.812 -93.275)"/><path class="c" d="M207.3,138.67s5.494,3.338,9.95,2.434" transform="translate(-177.395 -118.695)"/><path class="c" d="M221.79,172.52s4.348,3.468,6.388,2.671" transform="translate(-188.993 -145.787)"/><path class="c" d="M216.69,185.47s1.176,3.643.02,4.332" transform="translate(-184.911 -156.152)"/><path class="c" d="M197.4,202.275s2.242-2.226,1.617-2.635" transform="translate(-169.472 -167.493)"/><path class="c" d="M174.417,120.22s1.962,9.321-.587,11.836" transform="translate(-150.607 -103.928)"/><path class="c" d="M135.67,194.933s8.882-5.7,9.656-9.073" transform="translate(-120.065 -156.464)"/><path class="c" d="M109.9,180.6s8.355-3.895,10.62-7.626" transform="translate(-99.439 -146.147)"/><path class="d" d="M138,105.26s4.043,6.744,1.517,11.463" transform="translate(-121.93 -91.954)"/><path class="d" d="M96.25,160.769s6.189-2.505,7.44-4.919" transform="translate(-88.514 -132.445)"/><path class="d" d="M102.79,115.56s2.07,3.817,1.106,5.476" transform="translate(-93.749 -100.198)"/><path class="c" d="M210.23,227.91s5.59-.749,6.189.711" transform="translate(-179.74 -189.966)"/><path class="c" d="M239.793,252.076s-.3-6.113-3.793-8.476" transform="translate(-200.366 -202.677)"/><path class="c" d="M178.22,241s5.867.693,7.941,4.52" transform="translate(-154.121 -200.596)"/><path class="c" d="M213.96,277.624a7.985,7.985,0,0,0-3.38-7.644" transform="translate(-180.02 -223.791)"/><path class="c" d="M157.05,268.069s4.867-.25,7.474,2.064" transform="translate(-137.177 -222.255)"/><path class="c" d="M183.735,295.5s-.455-3.553-1.725-4.226" transform="translate(-157.154 -240.831)"/><path class="e" d="M205.228,78.026c-10.954,5.512-22.934,7.915-34.614,9.768s-23.471,3.28-34.981,7.153c-7.4,2.491-15.226,6.526-18.875,12.794-3.517,6.019-2.218,12.437-.357,18.031,1.4,4.206,3.194,8.462,7.019,11.034,2.659,1.785,6.111,2.621,9.009,4.14,10.083,5.28,11.718,17.665,10.093,29.058-.763,5.344-2.072,10.758-2.054,16s1.529,10.429,5.686,13.523c4.12,3.066,10.307,3.689,16.37,3.194,12.319-1,24.706-6.107,36.5-11.6,26.124-12.152,51.147-26.639,76.113-41.09,9.235-5.348,18.512-10.722,27.014-17.056,4.721-3.518,9.383-7.558,11.563-12.393,2.777-6.137.659-12.822-4.939-15.583-9.383-4.631-25.07,1.475-33.161-4.574-4.47-3.33-5.053-9.423-4.324-15.142,1.561-12.289,8.013-25.834,3.088-36.233-3.382-7.143-12.281-11.3-22-10.271-10.181,1.078-21.464,7.772-24.5,16.795C224.766,64.866,214.9,73.149,205.228,78.026Z" transform="translate(-103.158 -38.62)"/><ellipse class="e" cx="19.985" cy="4.937" rx="19.985" ry="4.937" transform="translate(108.346 147.049)"/><rect class="f" width="189.715" height="107.467" rx="12.49" transform="translate(26.882 27.094)"/><rect class="g" width="189.134" height="105.599" rx="12.49" transform="translate(27.184 28.606)"/><rect class="g" width="189.134" height="105.599" rx="12.49" transform="translate(27.184 28.606)"/><rect class="h" width="189.134" height="105.599" rx="12.49" transform="translate(27.184 28.606)"/><path class="i" d="M381.854,175.83H194.64a.96.96,0,0,0-.96.96v4.064H382.814V176.79A.96.96,0,0,0,381.854,175.83Z" transform="translate(-166.494 -148.436)"/><g transform="translate(29.663 28.606)"><circle class="g" cx="1.298" cy="1.298" r="1.298"/><circle class="g" cx="1.298" cy="1.298" r="1.298" transform="translate(3.494)"/><circle class="g" cx="1.298" cy="1.298" r="1.298" transform="translate(6.987)"/></g><rect class="e" width="157.709" height="60.688" rx="10.19" transform="translate(39.844 55.793)"/><rect class="g" width="157.709" height="60.688" rx="10.19" transform="matrix(1, 0.025, -0.025, 1, 43.689, 49.861)"/><line class="j" x2="109.861" y2="2.793" transform="translate(67.28 62.738)"/><line class="j" x2="109.861" y2="2.793" transform="translate(67.062 71.321)"/><line class="j" x2="109.861" y2="2.793" transform="translate(66.844 79.901)"/><line class="j" x2="109.863" y2="2.793" transform="translate(66.625 88.483)"/><line class="k" x1="0.277" y2="10.91" transform="translate(76.333 86.407)"/><line class="j" x2="109.861" y2="2.791" transform="translate(66.407 97.065)"/><line class="k" y1="16.264" x2="0.413" transform="translate(88.758 81.368)"/><path class="l" d="M524.955,384.447a6.792,6.792,0,0,1-5.043-2.082,19.746,19.746,0,0,1-2.945-4.1c-.269-.453-.549-.92-.83-1.371a14.864,14.864,0,0,0-4.659-4.977,8.873,8.873,0,0,0-1.982-.906,1.4,1.4,0,0,1-1.26.856h-.066a1.4,1.4,0,0,1-1.347-1.212,6.078,6.078,0,0,0-1.839.377,11.232,11.232,0,0,0-4.27,3.46c-1.457,1.681-2.863,3.444-4.172,5.242q-.4.545-.8,1.1a29.925,29.925,0,0,1-4.791,5.638c-2.551,2.164-5.62,3.1-8.209,2.5-3.106-.721-5.328-3.466-6.915-5.777-.2-.3-.4-.6-.615-.9-1.481-2.2-3.012-4.466-5.272-5.789a8.924,8.924,0,0,0-9.782.713,17.613,17.613,0,0,0-3.256,3.863c-.327.475-.667.966-1.016,1.437-1.8,2.414-3.607,3.723-5.56,4.007a10.57,10.57,0,0,1-2.33,0c-.515-.036-1.048-.076-1.569-.062a7.544,7.544,0,0,0-6.3,3.927l-.275,11.491,86.3,2.2.483-19.011a1.2,1.2,0,0,1-1.681-.6Z" transform="translate(-363.521 -304.364)"/><line class="k" x1="0.685" y2="26.97" transform="translate(101.516 70.987)"/><line class="k" x1="0.431" y2="16.963" transform="translate(113.806 81.306)"/><line class="k" x1="0.387" y2="15.278" transform="translate(125.819 83.296)"/><line class="k" x1="0.743" y2="29.236" transform="translate(137.081 69.624)"/><line class="k" x1="0.777" y2="30.558" transform="translate(148.869 68.604)"/><line class="k" x1="0.495" y2="19.408" transform="translate(162.244 80.092)"/><path class="a" d="M778.618,364.118a1.4,1.4,0,0,0-2.354.795,1.357,1.357,0,0,0-.016.24.71.71,0,0,0,.012.16,1.4,1.4,0,0,0,.417.82,1.372,1.372,0,0,0,.93.4h.066a1.4,1.4,0,0,0,.98-.427,1.433,1.433,0,0,0,.281-.427,1.383,1.383,0,0,0,.1-.389,1.088,1.088,0,0,0,0-.182A1.4,1.4,0,0,0,778.618,364.118Zm-.07,1.437a.905.905,0,0,1-.182.262,1,1,0,0,1-1.7-.515.83.83,0,0,1-.018-.158.958.958,0,0,1,.024-.24,1,1,0,0,1,.954-.779h.046a1,1,0,0,1,.972.976v.062A.929.929,0,0,1,778.548,365.555Z" transform="translate(-632.764 -298.824)"/><circle class="a" cx="1.198" cy="1.198" r="1.198" transform="translate(161.553 78.633)"/><path class="a" d="M506.791,369.878a.826.826,0,0,0,.018.158c-.136,0-.271,0-.4.01a6.1,6.1,0,0,0-1.841.377,11.254,11.254,0,0,0-4.272,3.46c-1.457,1.679-2.863,3.444-4.174,5.24-.266.363-.527.731-.8,1.1a30.136,30.136,0,0,1-4.791,5.638c-2.553,2.162-5.624,3.094-8.215,2.493-3.1-.719-5.324-3.466-6.921-5.777-.2-.3-.411-.6-.615-.9-1.483-2.2-3.016-4.466-5.276-5.789a8.924,8.924,0,0,0-9.782.713,18.033,18.033,0,0,0-3.25,3.861c-.329.475-.669.968-1.018,1.437-1.8,2.414-3.609,3.723-5.562,4.007a10.69,10.69,0,0,1-2.33,0,15.263,15.263,0,0,0-1.571-.062,7.53,7.53,0,0,0-6.546,4.416l-.367-.16a7.945,7.945,0,0,1,6.9-4.655,14.9,14.9,0,0,1,1.613.064,10.388,10.388,0,0,0,2.242,0c1.843-.265,3.575-1.525,5.3-3.849.345-.465.683-.954,1.01-1.427a18.158,18.158,0,0,1,3.336-3.947,9.2,9.2,0,0,1,10.233-.745c2.34,1.371,3.9,3.679,5.408,5.913.2.3.4.6.613.9,1.547,2.252,3.7,4.925,6.68,5.614,2.467.573,5.408-.327,7.865-2.41A29.68,29.68,0,0,0,495,379.986q.392-.551.8-1.1c1.32-1.8,2.731-3.577,4.192-5.268a11.517,11.517,0,0,1,4.434-3.569,6.537,6.537,0,0,1,1.984-.4c.134,0,.272-.012.4,0A.956.956,0,0,0,506.791,369.878Z" transform="translate(-362.905 -303.558)"/><path class="a" d="M804.767,384.607c-2.342.874-4.817-.431-6.227-1.817a19.755,19.755,0,0,1-2.945-4.106c-.269-.451-.549-.92-.832-1.369a14.837,14.837,0,0,0-4.661-4.979,8.9,8.9,0,0,0-1.982-.9c-.128-.042-.258-.078-.4-.112a.927.927,0,0,0,.1-.389c.132.034.261.072.4.112a9.252,9.252,0,0,1,2.09.954,15.178,15.178,0,0,1,4.791,5.1c.285.455.565.924.838,1.381a19.364,19.364,0,0,0,2.881,4.023c1.324,1.3,3.641,2.537,5.807,1.729Z" transform="translate(-641.945 -304.588)"/><rect class="m" width="4.072" height="1.797" rx="0.898" transform="matrix(1, 0.025, -0.025, 1, 67.323, 60.949)"/><rect class="a" width="4.072" height="1.797" rx="0.898" transform="matrix(1, 0.025, -0.025, 1, 67.102, 69.529)"/><rect class="m" width="4.072" height="1.797" rx="0.898" transform="matrix(1, 0.025, -0.025, 1, 66.883, 78.112)"/><rect class="m" width="4.072" height="1.797" rx="0.898" transform="matrix(1, 0.025, -0.025, 1, 66.665, 86.692)"/><rect class="m" width="4.072" height="1.797" rx="0.898" transform="matrix(1, 0.025, -0.025, 1, 66.446, 95.274)"/><rect class="m" width="4.072" height="1.797" rx="0.898" transform="matrix(1, 0.025, -0.025, 1, 73.999, 99.061)"/><rect class="m" width="4.072" height="1.797" rx="0.898" transform="matrix(1, 0.025, -0.025, 1, 86.672, 99.383)"/><rect class="a" width="4.072" height="1.797" rx="0.898" transform="translate(98.977 100.244) rotate(1.718)"/><rect class="m" width="4.072" height="1.797" rx="0.898" transform="matrix(1, 0.025, -0.025, 1, 111.719, 100.021)"/><rect class="m" width="4.072" height="1.797" rx="0.898" transform="matrix(1, 0.025, -0.025, 1, 123.731, 100.329)"/><rect class="a" width="4.072" height="1.797" rx="0.898" transform="matrix(1, 0.025, -0.025, 1, 134.991, 100.614)"/><rect class="a" width="4.072" height="1.797" rx="0.898" transform="matrix(1, 0.025, -0.025, 1, 146.864, 100.917)"/><rect class="a" width="4.072" height="1.797" rx="0.898" transform="translate(159.721 102.068) rotate(1.718)"/><path class="a" d="M1029.206,642.877a1.976,1.976,0,1,1-1.4.579,1.977,1.977,0,0,1,1.4-.579m0-.307a2.286,2.286,0,1,0,2.286,2.282A2.286,2.286,0,0,0,1029.206,642.57Z" transform="translate(-833.394 -522)"/><path class="a" d="M1035.3,651.681l.12-.16a.635.635,0,0,0,.437.182c.2,0,.357-.1.357-.264s-.146-.292-.549-.292v-.184c.359,0,.5-.12.5-.276s-.122-.23-.3-.23a.586.586,0,0,0-.377.154l-.128-.154a.8.8,0,0,1,.515-.2c.309,0,.539.15.539.411,0,.184-.134.305-.329.371v.01a.429.429,0,0,1,.383.4c0,.284-.268.455-.587.455A.772.772,0,0,1,1035.3,651.681Z" transform="translate(-840.101 -528.155)"/><path class="i" d="M1076.5,643.547a1.976,1.976,0,1,1-1.4.579,1.976,1.976,0,0,1,1.4-.579m0-.307a2.284,2.284,0,1,0,1.617.669,2.286,2.286,0,0,0-1.617-.669Z" transform="translate(-871.243 -522.537)"/><path class="i" d="M1082.385,651.225a2.432,2.432,0,0,1,.014-.319h-.014c-.056.086-.12.172-.176.258l-.4.521h1.08v.21h-1.359v-.168l.811-1.066h.3v1.7h-.248Z" transform="translate(-877.102 -528.475)"/><path class="i" d="M1059.308,647.91a.21.21,0,0,1,.293,0l1.03,1.034a.2.2,0,0,1,0,.287l-1.014,1.018a.208.208,0,1,1-.3-.294l.87-.878-.884-.874a.2.2,0,0,1,0-.3Z" transform="translate(-859.264 -526.226)"/><path class="i" d="M1050.77,645.012a2.246,2.246,0,1,0,2.242-2.242A2.246,2.246,0,0,0,1050.77,645.012Zm.345,0a1.9,1.9,0,1,1,.557,1.341A1.881,1.881,0,0,1,1051.115,645.012Z" transform="translate(-852.482 -522.16)"/><rect class="n" width="45.364" height="4.761" rx="2.381" transform="translate(33.157 37.743)"/><path class="o" d="M548.721,386.082c-.331-1.2-.547-2.256-.547-2.256a4.7,4.7,0,0,0-.615-2.286l-.012-.329h0l-.094-2.435a8.288,8.288,0,0,1,.565-1.3c.411-.783-.136-3.569-.136-3.569s-1.779-3.891-1.479-6.414-3.765-11.01-3.765-11.01a10.885,10.885,0,0,1,.256-2.477,2.032,2.032,0,0,0,.028-.519v-.044a19.115,19.115,0,0,0-1.545-4.7l-.052-5.915a17.366,17.366,0,0,0-.843-8.141c-.537-1.613-.892-2.907-1.124-3.909-.026-.112-.052-.222-.074-.325,2.795-.537,4.913-.974,4.913-.974s-1.887-6.738-3.03-7.885S539,316.738,539,316.738s-.757-4.781.112-6.22a9.366,9.366,0,0,0,.908-3.865s2.048-1.613,2.286-2.3a11.3,11.3,0,0,0,.587-3.046c-.03-.809-.323-1.519-.252-1.948s-.693-2.016-.371-2.795a2.109,2.109,0,0,0,.112-.743v-.032a10.374,10.374,0,0,0-.261-1.986,5.642,5.642,0,0,0-2.128-1.036l-.054-.18-.14-.481c-.072-.044-.142-.082-.212-.116l-.012-.174-.046-.689.27-1.557c.543-2.725-3.072-2.995-3.072-2.995a1.887,1.887,0,0,0-1.056-.854c-.735-.228.036,4.064.385,4.326a16.5,16.5,0,0,1,1.507,2.172h0l.064.106a1.871,1.871,0,0,0-.158.18l.174.932.026.142a3.933,3.933,0,0,0-.537,1,2.1,2.1,0,0,1,.587,1.511,4.693,4.693,0,0,0,.289,1.861c-.04-.044-.523-.527-.98-.387s-1.737.577-1.737.577-.96.2-.864.417-.615,1.174-.615,1.174l-2.691-2.362c-.028-.072-.058-.144-.084-.22a6.05,6.05,0,0,1-.268-1.068,6.107,6.107,0,0,0,.82-.3,1.8,1.8,0,0,0,.7-.487,2.813,2.813,0,0,0,.375-1.136,16.789,16.789,0,0,1,.88-2.184,7,7,0,0,0,.367-3.863,2.561,2.561,0,0,0-.441-1.114c-.447-.567-1.224-.775-1.8-1.218s-.966-1.14-1.631-1.465a3.118,3.118,0,0,0-1.976-.092,10.6,10.6,0,0,0-3.641,1.475,1.889,1.889,0,0,1-1.214.451,1.645,1.645,0,0,1-.912-.617.05.05,0,0,1,.01-.036l-.03-.034a4.573,4.573,0,0,0-.327,1.958,2.042,2.042,0,0,0,.024.311.4.4,0,0,0,.01.108.649.649,0,0,1,0,.09h0a.533.533,0,0,1-.014.138,1.008,1.008,0,0,1-.23.361,2.087,2.087,0,0,0-.2.3.34.34,0,0,1,.032-.106,1.533,1.533,0,0,0-.238.828.812.812,0,0,0,.218.577,2.818,2.818,0,0,0,.437.325,4.8,4.8,0,0,0-.044.868,5.015,5.015,0,0,0,2.611,4.192l.1.22a6.234,6.234,0,0,1,.581,2.813,1.253,1.253,0,0,1-.024.2c-.032.036-.062.074-.09.112h0s-4.286.2-5.33-.669-2.462,2.33-2.462,2.33-1.525.357-1.843.072-2.11.038-2.11.038a3.883,3.883,0,0,0-2.717-.874,7.913,7.913,0,0,0-2.006-1.018h0l-.048-.016h0a2.207,2.207,0,0,0-.972-.086,19.7,19.7,0,0,1-2.825-2.573c-.651-.912-3.713-4.268-3.727-4.282l-.014-.17-.052-.5a2.036,2.036,0,0,1-.262.032q-.026-.074-.066-.174a9.619,9.619,0,0,0-.677-1.4s-.024-.639.156-.8a10.972,10.972,0,0,0-.174-2.5s-2.07-4.368-3.645-.986c0,0-3.134,2.27-.337,4.663,0,0,1.1.479,1.266.886.11.266.505,1,.771,1.489l.118.22-.03.026.056.415.022.162c-.5.309-.83.609-.739.82a4.777,4.777,0,0,1,.351,1.136s3.913,4.534,4.474,6.512c0,0,10.241,5.566,13.551,5.865l-.455,2.994a24.18,24.18,0,0,0-.04,2.428c.068.631-.26,3.543-.26,3.543s-.4,4.274-.866,4.887-.275,3.16-.275,3.16a21.415,21.415,0,0,1-.519,3.639,9.269,9.269,0,0,0,0,3.617s-1.521,3.891,2.374,1.144c0,0,1.958-.2,4.214-.361v.226c0,.291.012.6.022.938.054,2.2.158,5.212.343,7.492.331,4.031,1.868,11.978,1.868,11.978l.154,4.015a5.449,5.449,0,0,0-.07,1.152,7.457,7.457,0,0,0,1.236,3.977l.411,2.667a10.069,10.069,0,0,1,.843,2.795,1.467,1.467,0,0,1-.02.258,1.841,1.841,0,0,0-.02.411,22.578,22.578,0,0,0,.85,4.1s.158,2.931.6,3.084c.381.132-.437,1.709-.681,2.164a.418.418,0,0,0-.02-.084l-.05.09a2.061,2.061,0,0,0-.11.747,1.068,1.068,0,0,0,.527,1.012c.854.479,1.32.886.617,1.084a7.676,7.676,0,0,0-.767.2l-.04-.1a.467.467,0,0,0-.254.5,2.159,2.159,0,0,0,.3.984,10.581,10.581,0,0,0,1.274,2.122l.335-.052a1.677,1.677,0,0,1-.182.371,1.4,1.4,0,0,1-.479.459,1.528,1.528,0,0,1-.6.23,1.69,1.69,0,0,0-1.222.653,1.3,1.3,0,0,0,.232,2.01l3.182.962s5.428.5,5.094-.707-.547-2.256-.547-2.256a4.815,4.815,0,0,0-.521-2.132,2.43,2.43,0,0,0-.2-.309l.19-.03s.294-2.693.8-3.222c.116-.124.14-.214.11-.283.048-.148-.092-.228-.272-.27-.012.036-.024.07-.034.108a2.528,2.528,0,0,0-.513-.036s-.229-1.4.321-1.928a.533.533,0,0,0,.094-.421,2.269,2.269,0,0,0-.08-.569s-.012.022-.02.034a20.785,20.785,0,0,0-1.387-3.248,4.048,4.048,0,0,1,.24-1.8c.331-.523-.312-6.927-.312-6.927a21.025,21.025,0,0,0-.439-4.538,5.126,5.126,0,0,1,.353-3.164.437.437,0,0,0-.014-.092.1.1,0,0,0,.01-.022s-.026-.2-.07-.487v.03c-.12-.818-.345-2.3-.495-2.983-.214-.97-.174-5.656-.174-5.656l.715-2.028,1.537,3.394,1.669,4.534a3.9,3.9,0,0,1,.832,1.922v.451a2.733,2.733,0,0,0,.519,1.619s.479,2.152,1.114,2.681a2.478,2.478,0,0,1,.679,1.6,27.148,27.148,0,0,0,1.24,3.655,5.682,5.682,0,0,1,.4,2.126h0v.114s.148,1.12.18,2.066v.311a3.321,3.321,0,0,1-.062.769.067.067,0,0,1-.012.044v-.16a8.056,8.056,0,0,0-.15,1.968,5.052,5.052,0,0,0,.962,3.224c1.238,1.316,1.978,1.116,1.978,1.116s-.505,1.723-1.2,2.09a.354.354,0,0,0-.072.05.574.574,0,0,0-.022-.1.824.824,0,0,0-.182.641,4.548,4.548,0,0,0,.966,2.487,1.408,1.408,0,0,0,.6.323,1.009,1.009,0,0,1-.108.072,2.118,2.118,0,0,1-.238.124,1.15,1.15,0,0,1-.355.108,1.681,1.681,0,0,0-1.22.653,1.292,1.292,0,0,0,.23,2.008l3.184.962S549.054,387.284,548.721,386.082Z" transform="translate(-407.544 -234.931)"/><path class="p" d="M647.022,785.585l-3.08-.958a1.32,1.32,0,0,1-.226-2.01,1.618,1.618,0,0,1,1.18-.653,1.426,1.426,0,0,0,.573-.228,1.365,1.365,0,0,0,.465-.459,2.262,2.262,0,0,0,.3-1.188s3.3-1.106,4.25-.164a2.457,2.457,0,0,1,.427.577,4.952,4.952,0,0,1,.509,2.128s.21,1.054.533,2.256S647.022,785.585,647.022,785.585Z" transform="translate(-526.399 -631.631)"/><path class="p" d="M721.287,775.183l-3.082-.966a1.321,1.321,0,0,1-.226-2.01,1.607,1.607,0,0,1,1.18-.651,1.084,1.084,0,0,0,.343-.108,1.885,1.885,0,0,0,.232-.122,1.922,1.922,0,0,0,.765-1.647s3.3-1.106,4.252-.164a2.426,2.426,0,0,1,.335.421,4.833,4.833,0,0,1,.6,2.29s.212,1.056.533,2.256S721.287,775.183,721.287,775.183Z" transform="translate(-585.838 -623.3)"/><path class="q" d="M660.832,779.884a2.456,2.456,0,0,1,.427.577h0l-4.979.773a2.262,2.262,0,0,0,.3-1.188S659.881,778.942,660.832,779.884Z" transform="translate(-536.745 -631.598)"/><path class="q" d="M732.614,769.937l.036.936c-.727,1.312-4.5,1.176-5.62.575a1.885,1.885,0,0,0,.232-.122,1.922,1.922,0,0,0,.765-1.647s3.3-1.106,4.252-.164a2.429,2.429,0,0,1,.335.421Z" transform="translate(-593.371 -623.3)"/><path class="r" d="M648.246,554.681a8.351,8.351,0,0,0-.545,1.3l.13,3.358c-.8,1.435-5.236,1.138-5.861.4s-1.338-2.715-.671-3.082,1.154-2.086,1.154-2.086-.717.2-1.916-1.118-.976-4.348-.8-5.079a15.587,15.587,0,0,0-.124-3.146,6.3,6.3,0,0,0-.383-2.24,27.722,27.722,0,0,1-1.2-3.657,2.517,2.517,0,0,0-.657-1.6,7.3,7.3,0,0,1-1.082-2.683,2.8,2.8,0,0,1-.5-1.811,3.716,3.716,0,0,0-.809-2.184l-1.621-4.534-1.493-3.394-.689,2.028s-.032,4.683.176,5.654.563,3.555.563,3.555a5.232,5.232,0,0,0-.347,3.162,21.631,21.631,0,0,1,.429,4.54s.631,6.4.309,6.927a4.14,4.14,0,0,0-.228,1.8s1.887,3.673,1.353,4.2-.309,1.926-.309,1.926,1.2-.046.7.485-.769,3.222-.769,3.222l-5.117.8a10.668,10.668,0,0,1-1.236-2.124c-.741-1.547.074-1.407.751-1.6s.229-.6-.6-1.084-.4-1.645-.4-1.645,1.152-2.13.721-2.284-.587-3.084-.587-3.084-.984-3.454-.8-4.392-.8-3.162-.8-3.162l-.4-2.667a7.366,7.366,0,0,1-1.15-5.031l-.16-4.124s-1.5-7.945-1.823-11.978c-.2-2.583-.313-6.113-.361-8.317-.028-1.238-.038-2.056-.038-2.056l18.29-2.619a15.2,15.2,0,0,0,.437,2.715c.226,1,.571,2.3,1.094,3.911a17.947,17.947,0,0,1,.824,8.141l.058,5.915s1.767,3.891,1.479,5.264a11.337,11.337,0,0,0-.238,2.475s3.945,8.49,3.659,11.014,1.437,6.414,1.437,6.414S648.641,553.9,648.246,554.681Z" transform="translate(-508.564 -412.102)"/><path class="s" d="M700.34,640.06l5.562-.96S702.867,642.454,700.34,640.06Z" transform="translate(-572.009 -519.223)"/><path class="q" d="M719.426,611.9s.268,1.968-.916,2.759C718.51,614.659,720.666,614.236,719.426,611.9Z" transform="translate(-586.552 -497.453)"/><path class="q" d="M694.2,580.45s-4.526,4.027-6.236,3.773S694.2,580.45,694.2,580.45Z" transform="translate(-561.91 -472.282)"/><path class="q" d="M651.671,654.29s-3.521.94-3.573,2.372S651.671,654.29,651.671,654.29Z" transform="translate(-530.196 -531.381)"/><path class="s" d="M658.094,742.93s-4.979,1.128-3.532,1.711a24,24,0,0,0,3.807,1S659.986,745.667,658.094,742.93Z" transform="translate(-535.159 -602.325)"/><g class="t" transform="translate(112.52 95.644)"><path d="M648.164,753.919a1,1,0,0,1-.485-.709l-.048.092s-.425,1.166.4,1.645c.1.054.184.108.27.162.146-.034.307-.06.459-.106C649.441,754.807,648.992,754.4,648.164,753.919Z" transform="translate(-642.254 -706.197)"/><path d="M682.1,750.306c.134-.134.116-.459.016-.876a2.35,2.35,0,0,0-.238,1.242A.977.977,0,0,1,682.1,750.306Z" transform="translate(-669.754 -703.172)"/><path d="M673.979,648a5.791,5.791,0,0,0-.279,1.575,6.217,6.217,0,0,1,.347-1.09S674.021,648.3,673.979,648Z" transform="translate(-663.207 -621.99)"/><path d="M731.886,632.767a1.994,1.994,0,0,0,.03-.467c-.052.321-.084.617-.106.876C731.832,633.039,731.858,632.907,731.886,632.767Z" transform="translate(-709.717 -609.424)"/><path d="M676.966,719.948a2.791,2.791,0,0,0,.09-.948,3.219,3.219,0,0,0-.2,1.2A1.14,1.14,0,0,1,676.966,719.948Z" transform="translate(-665.733 -678.816)"/><path d="M655.133,763.7a16.628,16.628,0,0,0-.485,2.633l-5.117.8A10.559,10.559,0,0,1,648.3,765c-.064-.136-.118-.258-.16-.369-.3.154-.411.477.03,1.4a10.756,10.756,0,0,0,1.234,2.124l5.117-.8s.279-2.693.771-3.224C655.529,763.878,655.363,763.76,655.133,763.7Z" transform="translate(-642.539 -714.593)"/><path d="M626.65,559.445s.156,2.933.587,3.086h0c.2-.5.321-.96.128-1.028-.431-.154-.587-3.086-.587-3.086s-.984-3.452-.8-4.392-.8-3.162-.8-3.162l-.4-2.665a7.377,7.377,0,0,1-1.13-5.023l-.16-4.122s-1.5-7.945-1.823-11.978c-.2-2.581-.313-6.113-.361-8.317,0-.4-.016-.751-.022-1.048l-.146.02s0,.818.036,2.056c.05,2.2.154,5.733.363,8.315.325,4.033,1.823,11.978,1.823,11.978l.146,4.12a7.377,7.377,0,0,0,1.13,5.023l.4,2.667s.98,2.218.8,3.16S626.65,559.445,626.65,559.445Z" transform="translate(-621.14 -517.71)"/><path d="M722.117,764.436a4.923,4.923,0,0,1-.892-1.986c-.507.493.168,2.308.761,3.014.625.743,5.063,1.04,5.859-.4l-.032-.81C726.708,765.442,722.706,765.139,722.117,764.436Z" transform="translate(-701.102 -713.592)"/><path d="M755.655,746.972a8.341,8.341,0,0,0-.545,1.3l.022.6a9.13,9.13,0,0,1,.4-.868,2.594,2.594,0,0,0,.146-1.06A.13.13,0,0,0,755.655,746.972Z" transform="translate(-728.365 -701.179)"/><path d="M716.476,726.815a8.409,8.409,0,0,0,.379-1.026s-.717.2-1.917-1.118c-.872-.958-1-2.825-.92-4.05-.186.731-.409,3.761.8,5.077A2.993,2.993,0,0,0,716.476,726.815Z" transform="translate(-695.359 -680.113)"/><path d="M680.7,612.129a23.253,23.253,0,0,1,.182,2.515,3.256,3.256,0,0,1,.072-.4,14.993,14.993,0,0,0-.124-3.144,6.3,6.3,0,0,0-.383-2.242,27.719,27.719,0,0,1-1.2-3.657,2.52,2.52,0,0,0-.657-1.6,7.316,7.316,0,0,1-1.086-2.677,2.781,2.781,0,0,1-.5-1.811,3.724,3.724,0,0,0-.8-2.182l-1.635-4.542L673.089,589l-.689,2.036v.647l.559-1.647,1.493,3.394,1.623,4.536a3.662,3.662,0,0,1,.8,2.182,2.8,2.8,0,0,0,.5,1.813,7.318,7.318,0,0,0,1.082,2.683,2.533,2.533,0,0,1,.659,1.6,28.654,28.654,0,0,0,1.2,3.657A6.5,6.5,0,0,1,680.7,612.129Z" transform="translate(-662.167 -574.768)"/></g><path class="u" d="M699.578,296.98l-.26,1.565.046.689.032.509-1.765.252-.214-.359h0a17.219,17.219,0,0,0-1.461-2.174c-.339-.262-1.09-4.554-.377-4.326a1.865,1.865,0,0,1,1.022.856S700.1,294.257,699.578,296.98Z" transform="translate(-567.961 -242.317)"/><path class="q" d="M707.958,323.514l-1.765.252-.214-.359h0a1.567,1.567,0,0,1,1.946-.4Z" transform="translate(-576.523 -266.088)"/><path class="v" d="M708.079,324.984l-2.318.631-.064-.345-.168-.932a1.613,1.613,0,0,1,2.252-.4l.136.473Z" transform="translate(-576.163 -266.733)"/><path class="u" d="M504.657,291.092l-2.443,1.437s-.1-.2-.246-.463c-.255-.489-.639-1.226-.747-1.489-.164-.4-1.226-.89-1.226-.89-2.709-2.4.321-4.661.321-4.661,1.519-3.38,3.529,1,3.529,1a11.31,11.31,0,0,1,.17,2.5c-.174.166-.15.8-.15.8a9.354,9.354,0,0,1,.657,1.4C504.611,290.948,504.657,291.092,504.657,291.092Z" transform="translate(-410.759 -234.807)"/><path class="q" d="M517.079,319.083l-2.443,1.437s-.1-.2-.246-.463c.341-.307,1.551-1.369,1.964-1.34a3.171,3.171,0,0,0,.6,0C517.033,318.939,517.079,319.083,517.079,319.083Z" transform="translate(-423.181 -262.798)"/><path class="v" d="M517.707,320.376l-2.751,1.489-.08-.6-.056-.415s1.573-1.455,2.054-1.421a2.569,2.569,0,0,0,.733-.03l.052.505Z" transform="translate(-423.525 -263.345)"/><path class="u" d="M643.824,327.729s-12.178,1.851-9.922,1.02a3.064,3.064,0,0,0,2.254-2.743,6.272,6.272,0,0,0-.563-2.813,12.174,12.174,0,0,0-1.18-2.168s9.153-5.5,7.47-.759a7.455,7.455,0,0,0-.445,2.236,6.219,6.219,0,0,0,.325,2.234A6.682,6.682,0,0,0,643.824,327.729Z" transform="translate(-518.611 -262.495)"/><path class="q" d="M645.074,320.265a7.455,7.455,0,0,0-.445,2.236c-.852.775-1.821.763-3.06.811-.954.036-2,.307-2.779-.122a12.178,12.178,0,0,0-1.18-2.168S646.757,315.52,645.074,320.265Z" transform="translate(-521.802 -262.494)"/><circle class="u" cx="5.063" cy="5.063" r="5.063" transform="translate(114.349 51.028)"/><path class="q" d="M643.824,351.549s-12.178,1.851-9.922,1.02a3.064,3.064,0,0,0,2.254-2.743,6.891,6.891,0,0,1,2.565-1.489,3.673,3.673,0,0,1,2.216-.122,3.053,3.053,0,0,1,.82.343A6.682,6.682,0,0,0,643.824,351.549Z" transform="translate(-518.611 -286.315)"/><path class="q" d="M708.752,327.865l-2.318.631-.064-.345a2.07,2.07,0,0,1,2.22-.856Z" transform="translate(-576.835 -269.614)"/><path class="q" d="M517.931,322.4l-2.751,1.489-.08-.6a20.5,20.5,0,0,1,2.783-1.362Z" transform="translate(-423.749 -265.37)"/><path class="q" d="M639.841,507.965c-4.707.93-11.413,2.164-12.495,1.879a31.272,31.272,0,0,0-6.189.082c-.028-1.238-.038-2.056-.038-2.056l18.29-2.619A14.692,14.692,0,0,0,639.841,507.965Z" transform="translate(-508.604 -412.094)"/><path class="w" d="M556.832,360.612s-15.5,3.278-17.192,2.833-10.267.437-10.267.437c-3.769,2.741-2.3-1.146-2.3-1.146a9.5,9.5,0,0,1-.012-3.617,22.157,22.157,0,0,0,.5-3.637s-.184-2.547.262-3.16.832-4.885.832-4.885.313-2.909.247-3.543.034-2.427.034-2.427l.437-2.994c-3.194-.3-13.124-5.881-13.124-5.881-.545-1.98-4.338-6.516-4.338-6.516a4.842,4.842,0,0,0-.341-1.136c-.281-.671,3.492-2.178,3.492-2.178s2.982,3.376,3.613,4.288a19.361,19.361,0,0,0,2.739,2.575,2.1,2.1,0,0,1,.94.088.269.269,0,0,1,.05.014h0a7.657,7.657,0,0,1,1.946,1.02,3.693,3.693,0,0,1,2.629.878s1.733-.321,2.042-.036,1.785-.068,1.785-.068,1.367-3.2,2.38-2.328,5.16.675,5.16.675a6.123,6.123,0,0,1,2.679-1.639,3.673,3.673,0,0,1,2.216-.122,2.868,2.868,0,0,1,.892.4l2.611,2.368s.687-.962.6-1.172.836-.415.836-.415,1.218-.431,1.681-.575.91.343.948.387a5.009,5.009,0,0,1-.281-1.861,2.2,2.2,0,0,0-.569-1.511c1.347-3.713,4.823-.781,4.823-.781a6.991,6.991,0,0,1,.148,2.761c-.311.779.431,2.368.363,2.795s.214,1.142.246,1.948a11.262,11.262,0,0,1-.575,3.032c-.236.7-2.2,2.3-2.2,2.3a9.6,9.6,0,0,1-.872,3.863c-.838,1.435-.1,6.22-.1,6.22s1,3.707,2.1,4.857S556.832,360.612,556.832,360.612Z" transform="translate(-420.911 -266.034)"/><path class="q" d="M610.206,366.485s-.521-1.385-.952-1.5a10.11,10.11,0,0,1-1.254-.505l.254-.535s1.615.377,1.887.834A3.7,3.7,0,0,1,610.206,366.485Z" transform="translate(-498.103 -299.002)"/><path class="q" d="M560.277,358.58c-.07.429-3.837.956-3.837.956l1.839-2h0l.048.016h0A7.658,7.658,0,0,1,560.277,358.58Z" transform="translate(-456.836 -293.871)"/><circle class="r" cx="0.339" cy="0.339" r="0.339" transform="translate(91.93 58.957)"/><circle class="r" cx="0.339" cy="0.339" r="0.339" transform="translate(92.391 59.62)"/><circle class="r" cx="0.339" cy="0.339" r="0.339" transform="translate(92.84 60.231)"/><circle class="r" cx="0.339" cy="0.339" r="0.339" transform="translate(93.314 60.894)"/><circle class="r" cx="0.277" cy="0.277" r="0.277" transform="translate(133.441 59.377)"/><circle class="r" cx="0.277" cy="0.277" r="0.277" transform="translate(133.507 60.001)"/><circle class="r" cx="0.277" cy="0.277" r="0.277" transform="translate(133.569 60.626)"/><path class="q" d="M621.379,434.349c-.042-.05,10.006,11.682,17.168,4.4C638.556,438.753,626.863,440.8,621.379,434.349Z" transform="translate(-508.811 -355.347)"/><path class="q" d="M595,466.919s5.739-.064,6.4,1.561l.066,1.717a1.094,1.094,0,0,1-1.066.042c-.6-.291-4.124-1.918-5.314-1.024Z" transform="translate(-487.698 -381.414)"/><path class="w" d="M595.55,466.9s5.49-.062,6.123,1.489l.064,1.635a1.052,1.052,0,0,1-1.02.04c-.565-.275-3.945-1.829-5.083-.974Z" transform="translate(-488.138 -381.398)"/><path class="q" d="M608.29,404a18.494,18.494,0,0,0,2.372,3.727,14.938,14.938,0,0,0,3.611,3.23S608.418,404.775,608.29,404Z" transform="translate(-498.335 -331.056)"/><path class="q" d="M597.61,370.94s1.116,4.092,3.635,5.4Z" transform="translate(-489.787 -304.596)"/><path class="q" d="M590.1,373.3c-.028-.076-.725,3.3,3.374,4.991C593.477,378.3,591.745,377.783,590.1,373.3Z" transform="translate(-483.73 -306.488)"/><path class="q" d="M715.224,354.588a28.372,28.372,0,0,1,2.617,1.815S716.432,354.466,715.224,354.588Z" transform="translate(-583.921 -291.504)"/><path class="p" d="M631.814,296.564a1.061,1.061,0,0,0,.421.667,1.03,1.03,0,0,0,.481.088,10.278,10.278,0,0,0,4.556-.6,1.721,1.721,0,0,0,.679-.489,2.837,2.837,0,0,0,.361-1.134,16.094,16.094,0,0,1,.85-2.184,7.211,7.211,0,0,0,.351-3.877,2.6,2.6,0,0,0-.429-1.114c-.431-.569-1.186-.777-1.745-1.22s-.934-1.142-1.579-1.467a2.926,2.926,0,0,0-1.912-.1,10.025,10.025,0,0,0-3.512,1.479,1.778,1.778,0,0,1-1.174.449,1.628,1.628,0,0,1-.9-.637,4.721,4.721,0,0,0-.293,2.218.983.983,0,0,1,0,.333,1.011,1.011,0,0,1-.222.359,1.288,1.288,0,0,0-.182,1.6c.172.188.427.283.6.475.3.345.224.86.234,1.316a.673.673,0,0,0,.13.443.655.655,0,0,0,.629.126,1.691,1.691,0,0,1,.663-.09,1.1,1.1,0,0,1,.6.423A7.845,7.845,0,0,1,631.814,296.564Z" transform="translate(-513.592 -235.834)"/><g class="x" transform="translate(113.759 50.537)"><path d="M638.1,313.816a1.709,1.709,0,0,1-.677.487,10.1,10.1,0,0,1-4.558.6.8.8,0,0,1-.9-.757,7.98,7.98,0,0,0-1.4-2.943,1.107,1.107,0,0,0-.6-.421,1.722,1.722,0,0,0-.663.088.659.659,0,0,1-.631-.124.691.691,0,0,1-.13-.445c-.01-.455.066-.97-.232-1.314-.168-.2-.423-.287-.6-.477a1,1,0,0,1-.136-1.01,1.163,1.163,0,0,0-.02,1.357c.17.188.427.283.6.477.3.343.224.858.234,1.314a.673.673,0,0,0,.13.443.655.655,0,0,0,.629.126,1.728,1.728,0,0,1,.663-.09,1.1,1.1,0,0,1,.6.423,7.751,7.751,0,0,1,1.4,2.943,1.07,1.07,0,0,0,.421.669,1.055,1.055,0,0,0,.481.088,10.337,10.337,0,0,0,4.556-.6,1.737,1.737,0,0,0,.679-.487,1.407,1.407,0,0,0,.2-.419A.786.786,0,0,1,638.1,313.816Z" transform="translate(-627.344 -304.358)"/><path d="M630.325,294.225a.718.718,0,0,0,.144-.262.925.925,0,0,0,0-.331,4.687,4.687,0,0,1,.166-1.839l-.03-.034a4.723,4.723,0,0,0-.293,2.218A1.292,1.292,0,0,1,630.325,294.225Z" transform="translate(-629.697 -291.76)"/></g><path class="q" d="M645.77,356.837s6.35.6,6.883-.377" transform="translate(-528.333 -293.007)"/><path class="q" d="M706.8,342.865s3.512-.13,4.334,1.156" transform="translate(-577.18 -282.123)"/><path class="a" d="M1078.354,677s1.184,1.547-.547,3.885-3.156,4.31-2.579,5.767c0,0,2.611-4.34,4.735-4.4S1080.692,679.607,1078.354,677Z" transform="translate(-871.953 -549.557)"/><path class="q" d="M1078.62,677a1.841,1.841,0,0,1,.242.485c2.074,2.436,3.178,4.709,1.186,4.765-1.857.054-4.084,3.374-4.618,4.21a2,2,0,0,0,.064.2s2.611-4.34,4.735-4.4S1080.958,679.607,1078.62,677Z" transform="translate(-872.219 -549.557)"/><path class="y" d="M1101.344,685.474c0,.545-.062.986-.138.986s-.136-.441-.136-.986.076-.287.152-.287S1101.344,684.929,1101.344,685.474Z" transform="translate(-892.741 -556.06)"/><path class="y" d="M1102.472,688.59c-.479.26-.9.417-.932.351s.323-.331.8-.6.289-.072.327,0S1102.949,688.329,1102.472,688.59Z" transform="translate(-893.115 -558.526)"/><path class="a" d="M1049.439,677s-1.184,1.547.545,3.885,3.158,4.31,2.581,5.767c0,0-2.611-4.34-4.735-4.4S1047.1,679.607,1049.439,677Z" transform="translate(-849.291 -549.557)"/><path class="q" d="M1049.439,677a1.833,1.833,0,0,0-.241.485c-2.074,2.436-3.178,4.709-1.186,4.765,1.857.054,4.082,3.374,4.617,4.21a1.912,1.912,0,0,1-.064.2s-2.611-4.34-4.735-4.4S1047.1,679.607,1049.439,677Z" transform="translate(-849.291 -549.557)"/><path class="y" d="M1049.06,685.474c0,.545.062.986.138.986s.136-.441.136-.986-.076-.287-.152-.287S1049.06,684.929,1049.06,685.474Z" transform="translate(-851.114 -556.06)"/><path class="y" d="M1044.115,688.59c.479.26.9.417.932.351s-.323-.331-.8-.6-.292-.072-.328,0S1043.636,688.329,1044.115,688.59Z" transform="translate(-846.924 -558.526)"/><ellipse class="e" cx="12.377" cy="1.898" rx="12.377" ry="1.898" transform="translate(190.895 145.138)"/><path class="z" d="M1056.569,711.993l-.06.483-.082.683-.034.286-.084.683-.036.286-.084.681-.946,7.766c-.086.693-1.218,1.234-2.583,1.234h-4.923c-1.367,0-2.5-.541-2.581-1.234l-.95-7.766-.082-.681-.034-.286-.086-.683-.034-.286-.084-.683-.058-.483c-.048-.4.565-.723,1.338-.723h10.073C1056,711.27,1056.619,711.6,1056.569,711.993Z" transform="translate(-846.925 -576.986)"/><path class="aa" d="M999.253,678.69l-.084.683H986.712l-.082-.683Z" transform="translate(-789.668 -543.2)"/><path class="aa" d="M999.607,683.53l-.082.685H987.3l-.084-.685Z" transform="translate(-790.14 -547.074)"/><path class="aa" d="M999.96,688.38l-.082.683H987.894l-.084-.683Z" transform="translate(-790.612 -550.956)"/></g></svg>