<?xml version="1.0" encoding="utf-8"?>
<!-- Generator: Adobe Illustrator 24.1.2, SVG Export Plug-In . SVG Version: 6.00 Build 0)  -->
<svg version="1.1" id="Layer_1" xmlns="http://www.w3.org/2000/svg" xmlns:xlink="http://www.w3.org/1999/xlink" x="0px" y="0px"
	 viewBox="0 0 200 165.8" style="enable-background:new 0 0 200 165.8;" xml:space="preserve">
<style type="text/css">
	.st0{opacity:0.1;fill:#00A0C6;enable-background:new    ;}
	.st1{fill:#00A0C6;}
	.st2{fill:url(#SVGID_1_);}
	.st3{fill:#4C4981;}
	.st4{opacity:0.1;enable-background:new    ;}
	.st5{fill:#AE6E79;}
	.st6{fill:#444053;}
	.st7{fill:#FFFFFF;}
</style>
<g transform="translate(0)">
	<ellipse class="st0" cx="142.2" cy="163.7" rx="20.4" ry="2"/>
	<path class="st0" d="M87.6,1.5c9-3.3,20-0.5,29.3,3.7c29.4,13.2,50.8,38.2,67.8,63.7c6.2,9.2,12,18.9,14.3,29.2
		c4.7,21-7.6,42.7-28.5,50.3c-7.1,2.6-14.9,3.7-22.7,4.2c-13.9,1.1-28.3,0.6-42.1-3.3c-9.8-2.8-19.2-7.3-28.1-12.2
		c-24.9-13.9-47.7-31.8-64.1-53.8C6.3,73.7,0.2,62.8,0,51.7s7.1-22.3,19-24.2c4.9-0.8,10.1,0,15.2,0.9c7.5,1.2,15.1,2.5,22.5,2
		c7.6-0.6,17.6-3.5,19-10.9C77.2,11.7,78.6,4.8,87.6,1.5z"/>
	<path class="st1" d="M48.6,152.2c0,0,9.6-0.6,8.5,6.2c0.1,0.7-0.2,1.4-0.9,1.7c0,0,0-0.5-1-0.3c-0.3,0.1-0.7,0.1-1,0.1
		c-0.5,0-0.9-0.2-1.3-0.5l0,0c0,0-2.7-1.1-3.8-5.5c0,0-0.8-1-0.7-1.2l1.6,0.7c-0.3,0.7-0.4,1.4-0.1,2.1c0,0,0.1-2.1,0.4-2.1
		c0.1,0,0.8,0.4,0.8,0.4s-1,2-0.2,3.5c0,0-0.3-2.5,0.5-3.4l1.1,0.7c-0.6,1.2-0.7,2.6-0.4,3.8c0,0-0.2-2.6,0.6-3.7l1,0.8
		c0,0-1,2.1-0.4,3.5c0,0,0.1-3.1,0.6-3.3c0.4,0.3,0.7,0.7,1,1.1c0,0-0.7,1.5-0.3,2.3c0,0,0.3-2,0.5-2.1c0.5,0.7,0.8,1.5,1,2.3
		c0-0.9-0.3-1.7-0.8-2.4c0.5,0.1,1,0.3,1.4,0.7c0,0-0.1-1-1.6-1c-0.3-0.4-0.6-0.8-0.9-1.1c0.8-0.1,1.6,0,2.3,0.3
		c-0.7-0.6-1.7-0.8-2.6-0.5l-1-0.8c0.9-0.1,1.8-0.1,2.7,0c0,0-0.9-0.8-3-0.2l-1.1-0.7c0.9-0.2,1.7-0.3,2.6-0.2c-0.9-0.4-2-0.3-2.9,0
		l-0.8-0.4c0,0,1.2-0.2,1.5-0.3s0.4-0.1,0.4-0.1c-0.8-0.1-1.5,0-2.2,0.2C49.7,152.7,49.2,152.5,48.6,152.2z"/>
	<ellipse class="st0" cx="55.2" cy="160.7" rx="6.8" ry="1.1"/>
	<path class="st1" d="M35.7,147.7c0,0,5.4-0.3,4.8,3.5c0.1,0.4-0.1,0.8-0.5,1c0,0,0-0.3-0.6-0.2c-0.2,0-0.4,0-0.6,0
		c-0.3,0-0.5-0.1-0.7-0.3l0,0c-1.1-0.7-1.9-1.8-2.1-3.1c0,0-0.4-0.5-0.4-0.7l0.9,0.4c-0.2,0.4-0.2,0.8-0.1,1.2c0,0,0-1.2,0.2-1.2
		c0,0,0.5,0.2,0.5,0.2c-0.3,0.6-0.3,1.3-0.1,2c0,0-0.2-1.4,0.3-1.9L38,149c-0.3,0.7-0.4,1.4-0.2,2.2c-0.1-0.7,0-1.4,0.3-2.1l0.6,0.5
		c-0.3,0.6-0.4,1.3-0.2,2c0,0,0-1.7,0.4-1.9c0.2,0.2,0.4,0.4,0.6,0.6c0,0-0.4,0.8-0.2,1.3c0,0,0.2-1.2,0.3-1.2
		c0.3,0.4,0.5,0.8,0.6,1.3c0-0.5-0.2-1-0.4-1.4c0.3,0.1,0.6,0.2,0.8,0.4c0,0-0.1-0.5-0.9-0.6c-0.2-0.2-0.3-0.4-0.5-0.6
		c0.4,0,0.9,0,1.3,0.2c-0.4-0.4-1-0.5-1.5-0.3l-0.6-0.5c0.5-0.1,1-0.1,1.5,0c-0.5-0.3-1.1-0.4-1.7-0.1l-0.6-0.4
		c0.5-0.1,1-0.1,1.5-0.1c-0.5-0.2-1.1-0.2-1.7,0l-0.4-0.2c0,0,0.7-0.1,0.9-0.2s0.2-0.1,0.2-0.1c-0.4-0.1-0.9,0-1.3,0.1
		C36.3,148,36,147.9,35.7,147.7z"/>
	<ellipse class="st0" cx="39.5" cy="152.5" rx="3.8" ry="0.6"/>
	<path class="st1" d="M169.1,151.3c0,0,6.5-0.4,5.8,4.2c0.1,0.5-0.2,1-0.6,1.2c0,0,0-0.3-0.7-0.2c-0.2,0-0.5,0.1-0.7,0
		c-0.3,0-0.6-0.1-0.9-0.4l0,0c0,0-1.8-0.8-2.6-3.8c0,0-0.5-0.7-0.5-0.8l1.1,0.5c-0.2,0.5-0.2,1-0.1,1.5c0,0,0-1.4,0.2-1.4
		c0,0,0.6,0.3,0.6,0.3c-0.4,0.7-0.4,1.6-0.2,2.4c0,0-0.2-1.7,0.4-2.3l0.8,0.5c-0.4,0.8-0.5,1.7-0.2,2.6c-0.1-0.9,0.1-1.7,0.4-2.5
		l0.7,0.5c-0.4,0.7-0.5,1.6-0.3,2.4c0,0,0.1-2.1,0.4-2.2c0.3,0.2,0.5,0.5,0.7,0.8c0,0-0.5,1-0.2,1.6c0,0,0.2-1.4,0.3-1.4
		c0.3,0.5,0.5,1,0.7,1.6c0-0.6-0.2-1.2-0.5-1.6c0.4,0.1,0.7,0.2,0.9,0.5c0,0-0.1-0.7-1.1-0.7c-0.2-0.3-0.4-0.5-0.6-0.7
		c0.5,0,1.1,0,1.6,0.2c-0.5-0.4-1.2-0.6-1.8-0.3l-0.7-0.6c0.6-0.1,1.2-0.1,1.9,0c-0.6-0.4-1.4-0.4-2-0.1l-0.8-0.5
		c0.6-0.1,1.2-0.2,1.8-0.2c-0.6-0.2-1.4-0.2-2,0l-0.5-0.2c0,0,0.8-0.2,1.1-0.2s0.3-0.1,0.3-0.1c-0.5-0.1-1,0-1.5,0.2
		C169.9,151.7,169.5,151.5,169.1,151.3z"/>
	<ellipse class="st0" cx="173.6" cy="157.1" rx="4.6" ry="0.8"/>
	
		<linearGradient id="SVGID_1_" gradientUnits="userSpaceOnUse" x1="177.6803" y1="265.8895" x2="177.6803" y2="266.8895" gradientTransform="matrix(47.3853 0 0 -93.3809 -8280.5264 24993.7852)">
		<stop  offset="0" style="stop-color:#808080;stop-opacity:0.251"/>
		<stop  offset="0.54" style="stop-color:#808080;stop-opacity:0.122"/>
		<stop  offset="1" style="stop-color:#808080;stop-opacity:0.102"/>
	</linearGradient>
	<path class="st2" d="M162.6,103c-0.1-0.7-0.2-1.4-0.2-2.1c0-0.9-1.2-1.6-1.2-1.6s-0.7-1.7-1.2-1.9c-0.7-0.7-1.4-1.5-2-2.4
		c0-0.4-0.2-0.8-0.4-1.2c-0.4-0.6-0.8-1.2-1.2-1.8l0,0c-0.2-0.2-0.1-0.4-0.4-1.8c0-0.1,0-0.1-0.1-0.2c0,0,0-0.1,0-0.1
		c0.6-0.6,0.9-1.6,0.6-2.5c-0.1-0.2-0.2-0.3-0.3-0.4c-0.3-0.3-0.9-0.2-1.2-0.4l0.4-1.6c0.1-0.4,0.1-0.9-0.2-1.1
		c-0.1-0.1-0.3-0.1-0.4-0.1c-0.6-0.3-1-0.8-1.1-1.4c-0.1-0.6-0.2-1.2-0.1-1.8c0.1-0.6,0.2-1.1,0.3-1.7c0.1-1.1-0.1-2.2-0.7-3.1
		c-0.2-0.4-0.6-0.7-1-0.9c-0.4-0.2-0.8-0.2-1.1-0.4c-0.7-0.5-0.7-1.6-1.3-2.2c-0.7-0.6-1.7-0.7-2.5-0.4c-0.8,0.3-1.7,0.5-2.6,0.5
		c-0.6-0.1-1.1-0.3-1.7-0.4c-0.2,0-0.3,0-0.5,0v0c-0.4,0-0.8,0.3-0.9,0.7c0,0.1,0,0.2,0,0.3c0,0.2,0.1,0.5,0.1,0.7
		c0,0.2,0,0.4-0.2,0.5c-0.1,0.1-0.3,0.2-0.4,0.3c-0.1,0.1-0.1,0.2-0.1,0.4c0,0.4,0.4,0.7,0.7,0.8h0c-0.1,0.1-0.2,0.2-0.2,0.2
		c-0.9,1-1.3,2.2-1.3,3.5c0,2.1,1.3,4,3.2,4.9l0,0.1c-0.1,0.3-0.2,0.5-0.3,0.8c-0.4-0.1-0.9-0.1-1.3,0.1c-0.6,0.3-1.3,0.4-2,0.3
		c-1.2-0.2-2.4-0.3-3.6-0.4c-0.2,0.1-0.7-0.3-1.1,0.2s-0.5,0.9-0.8,1s-0.9,0.6-0.8,0.7s-0.8,0.7-0.8,0.7c-0.3,0.4-0.8,0.7-1.2,0.9
		c-0.5,0.2-1,0.4-1.4,0.7l-1.1,0.9c0,0-0.8,0.1-0.6-0.4s-0.4-1.3-0.4-1.3c-0.6-1.1-1-2.2-1.4-3.4c-0.3-1.1-0.7-2.1-1.1-3.1l-0.1,0
		l-0.1-0.2c-0.2-0.6-0.5-1.3-0.7-1.7c-0.4-0.8-0.6-0.9-0.6-0.9s-4.8-3.6-7.9-2.5s5.7,4.4,6.5,4.7c0.3,0.2,0.5,0.6,0.6,1
		c-0.7,0.3-1.3,0.9-1.7,1.5c0,0,1.9,4.2,2,5.3c0.3,1.4,0.7,2.7,1.3,4c0.4,1.3,1.6,2.2,3,2c0,0,3.5,0.6,4.3,0
		c0.5-0.5,1.2-0.9,1.8-1.2c0.3-0.1,0.5-0.3,0.7-0.5c0,0-1.2,7.3-1.7,8s-5.6,8.9-3.8,10.3c1.4,1.1,2.9,2.1,4.5,3
		c0.2,0.1,0.6-0.7,1.3-1.2v0.4c0,2.9,0.4,7.4,0.9,8.4c0.8,1.5,0.5,4.3,0.5,4.3c0.4,0.2,0.9,0.3,1.3,0.3c0,0.1,0.1,0.2,0.1,0.3
		c0.4,1.7,0.9,3.3,1.5,4.9c0.5,1.4,0.8,2.8,0.9,4.3c0.1,1.2,0.2,2.4,0.2,3.6c0.1,1.1,0.2,2.1,0.5,3.2l0,0c-0.2,2.3-0.6,6.7-0.6,8.3
		l0,0v0.1c0,0,0,0,0,0.1v0.1l0,0c0,0.1,0,0.2,0,0.3c0,0.2,0,0.3,0,0.5c-0.1,0.4-0.3,0.9-0.5,1.3c-0.1,0.2-0.2,0.4-0.2,0.6
		c-0.3,0.2-0.5,0.5-0.6,0.8c-0.2,1-0.6,3.6-0.6,3.6c0,0.7-0.2,1.3-0.4,2c-0.5,1-0.1,2.2,0.9,2.7c0.2,0.1,0.4,0.2,0.6,0.2
		c1.1,0.2,2.3-0.2,3-1.1l-0.1-6.4v0c0-0.1,0.1-0.1,0.1-0.2v0c0,0,0-0.1,0-0.1l0,0l0-0.1c0,0,0,0,0,0c0.2-0.6,0.3-1.3,0.2-1.9v-0.3
		c0,0,0-0.1,0-0.1v0l0-0.1v0c0,0,0-0.1,0-0.1c0,0,0,0,0,0c0-0.1,0-0.2,0.1-0.3v0l0-0.1l0,0c0-0.1,0.1-0.2,0.1-0.3v0c0,0,0-0.1,0-0.1
		v0c0-0.1,0.1-0.2,0.1-0.3l0,0l0-0.1l0,0l0.1-0.2l0,0l0.6,1.8c0.2,0.5,0.2,1.1,0.1,1.7c-0.2,0.3,0.2,1.6,0.4,1.7l-0.2,1.7
		c-0.1,0.9-0.2,1.8-0.2,2.8c0,0.1,0,0.2,0,0.3c-0.1,0.7,0,1.5,0.2,2.2c2,2.3,4.3,0.2,4.3,0.2s0.3-1.2,0-1.5s-0.1-1.1-0.1-1.1
		s0.1-2.2,0.1-3.8c-0.1-1.1-0.5-2.2-1.3-3l-0.1,0.1c-0.3-0.5-0.4-1.1-0.5-1.7c0.1-0.6-0.3-6.5-0.3-6.5c0.1-1.6,0.2-3.2,0.1-4.8l0,0
		c0-0.3,0.1-0.5,0.1-0.8c0.2-1.3,0.3-2.4,0.3-2.9l0,0v-0.1c0-0.2,0-0.3,0-0.3c0-0.2,0-0.4,0-0.7c0-0.7,0.2-1.4,0.2-1.4l0.5-3.1
		c0.2-0.8,0.5-1.6,1-2.4l0.1-0.1l0,0c0,0,0-0.1,0.1-0.1l0,0c0,0,0-0.1,0.1-0.1l0,0c0.1-0.2,0.2-0.3,0.3-0.5c0,0,0,0,0,0l0.1-0.2
		c0,0,0,0,0-0.1c0,0,0-0.1,0.1-0.2c0,0,0,0,0-0.1c0-0.1,0.1-0.1,0.1-0.2l0-0.1c0,0,0-0.1,0.1-0.1l0-0.1c0,0,0-0.1,0-0.1l0.1-0.1
		c0,0,0,0,0-0.1c0.1-0.4,0.3-0.7,0.4-1l0,0l0.1-0.3c1.3,0.1,2.1,0.1,2.1,0.1c0.2-1.6,0.3-3.2,0.3-4.7c0-1.3,0.1-2.5,0.3-3.8
		c0-0.1,0-0.2,0-0.3l0,0c0.6,0.5,1.1-1.1,1.1-1.1s-0.2-1.5-0.4-3.3l0-0.2c0.4,0.1,0.7,0.1,1.1,0.2c0,0,0.2,0,0.5-0.1
		c0.8,0.4,1.6,0.8,2.4,1.1l1.3-2.4c0.2-0.5,0.5-1,0.9-1.4c0.7-0.7,1.3-1.5,1.8-2.3c0.2-1,0.5-1.9,1-2.7
		C162.3,104.6,162.5,103.8,162.6,103z M157.1,104.8c-0.5,0.2-1,1.4-1,1.8s-0.6,2-1.1,2.2c-0.6,0.3-1.2,0.8-1.7,1.2
		c-0.2,0-0.3,0-0.5,0.1c-0.1-1-0.3-2.1-0.6-3.1c-0.4-0.7,0.4-3.1,0.4-3.1s0.1-2.4,0.6-2.9s0.4-2,0.4-2s0.1-0.6,0.2-0.9s0.7,0,0.7,0
		l0,0c0.7,0.4,1.3,1,1.5,1.8c0.4,1.1,0.9,2.1,1.7,3c0,0-0.2,0.7,0,1S157.6,104.6,157.1,104.8L157.1,104.8z"/>
	<path class="st3" d="M121.3,84c0.8-1.4,2.4-2.1,4-1.9v2.9h-1.7l-1.4-0.3L121.3,84z"/>
	<path class="st4" d="M121.3,84c0.8-1.4,2.4-2.1,4-1.9v2.9h-1.7l-1.4-0.3L121.3,84z"/>
	<path class="st5" d="M125.5,82.8l-2.1,1.5c0,0,0-0.3-0.1-0.7c-0.1-0.8-0.3-1.9-0.9-2.1c-0.8-0.3-9.5-3.6-6.4-4.7s7.8,2.5,7.8,2.5
		s0.2,0.1,0.6,0.9c0.2,0.4,0.5,1.1,0.7,1.7C125.3,82.4,125.5,82.8,125.5,82.8z"/>
	<path class="st3" d="M142.4,85.1l0.2-0.1l0.7,0.8l-0.6,1.2l-0.9-0.4l0.2-0.9L142.4,85.1z"/>
	<path class="st6" d="M139.2,154.3c0,0-0.6-0.1-0.9,0.9s-0.6,3.6-0.6,3.6c0,0.7-0.2,1.3-0.4,2c-0.3,0.4-0.6,2.7,1.5,2.9
		c1.1,0.2,2.3-0.2,3-1.1l-0.1-6.4L139.2,154.3z"/>
	<path class="st6" d="M146.4,154.6c0.7,0.8,1.2,1.9,1.3,3c0,1.6-0.1,3.8-0.1,3.8s-0.1,0.9,0.1,1.1s0,1.5,0,1.5s-2.3,2.1-4.2-0.2
		c-0.2-0.7-0.3-1.4-0.2-2.2c0.2-0.8,0.6-4.7,0.6-4.7L146.4,154.6z"/>
	<path class="st5" d="M149.6,125.5c-0.5,1.5-1.2,3.1-1.9,4.5c-0.4,0.8-0.7,1.6-0.9,2.4l-0.5,3.1c-0.1,0.7-0.2,1.4-0.2,2.1
		c0,0.7-1.3,11-1.3,11l-2,2.6c-0.4,0.8-0.7,1.7-0.8,2.6c0.1,0.8,0,1.6-0.4,2.3c0,0,0,2.4-0.1,2.9s0.3,2,0,2.3s-3.8,0.1-3.9-0.3
		c0.1-0.9,0.2-1.7,0.4-2.6l0.3-2c0,0,0.6-1.1,0.5-1.5s0.3-1.2,0.3-1.3s0.7-1.3,0.6-1.7s0.8-10.3,0.8-10.3l2.5-17.6L149.6,125.5z"/>
	<path class="st4" d="M149.6,125.5c0,0-0.2,0.6-0.5,1.3c-0.4,1.1-0.9,2.2-1.4,3.2c-0.4,0.8-0.7,1.6-1,2.4l-0.5,3.1
		c-0.1,0.7-0.2,1.4-0.2,2.1c0,0.3-0.2,2.1-0.4,4.1c-0.4,3.1-0.8,6.9-0.8,6.9l-2,2.6c0,0-0.1,0.2-0.2,0.5c-0.3,0.6-0.5,1.3-0.5,2.1
		c0.1,0.8,0,1.6-0.4,2.3c0,0,0,2.4-0.1,2.9s0.3,2,0,2.3s-3.8,0.1-3.9-0.3c0.1-0.9,0.2-1.7,0.4-2.6l0.3-2c0,0,0.6-1.1,0.5-1.5
		s0.3-1.2,0.3-1.3s0.7-1.3,0.6-1.7c-0.1-0.4,0.4-6.1,0.6-8.9c0.1-0.9,0.1-1.4,0.1-1.4l2.2-15.2l0.2-1.2l0.2-1.2L149.6,125.5z"/>
	<path class="st5" d="M147.5,162.1c0,0.3-3.4,0.7-3.9,0.4s0-3.9,0-3.9l0.2-1.7c-0.2,0-0.6-1.3-0.4-1.7c0.1-0.6,0-1.1-0.1-1.7
		l-0.6-1.8l-0.4-1.1c-0.8-2.5-1.5-5-1.9-7.5c-0.2-1-0.4-2.1-0.5-3.2c0-1.2-0.1-2.4-0.2-3.6c-0.2-1.5-0.5-2.9-0.9-4.3
		c-0.6-1.6-1.1-3.2-1.5-4.9c-0.2-0.8-0.4-1.4-0.4-1.4s3.7-0.3,5.9-0.4c1,0,1.7-0.1,1.7,0c-0.1,0.4-0.1,0.8-0.1,1.2
		c0,1.8,0.2,3.6,0.5,5.4c0.4,1.5,0.6,3.1,0.5,4.7c-0.1,0.8-0.1,1.6-0.1,2.4c0.3,0.9,0.4,1.7,0.4,2.6c0.1,1.6,0,3.2-0.1,4.8
		c0,0,0.4,5.9,0.3,6.5s0.8,2.3,0.8,2.7s0.2,2.7,0.2,2.7S147.4,161.8,147.5,162.1z"/>
	<path class="st5" d="M149.4,90.9l-0.4,0.5l-0.3,0.3l-1.6,1.7l-4.1,0.5l-2.2-0.6l-0.5-0.1c0,0,0-1.1,0.1-2.4
		c0.1-1.7,0.5-3.7,1.3-4.3c0.4-0.3,0.7-0.7,0.9-1.2c0.2-0.3,0.3-0.6,0.4-1c0,0,0-0.1,0-0.1c0.2-0.6,0.3-1.2,0.4-1.8
		c0,0,0.5-0.3,1.3-0.6c1.9-0.9,5.2-2.1,4.1,0.6c-0.2,0.4-0.3,0.8-0.4,1.2c0,0.1,0,0.1,0,0.2c-0.3,1-0.3,2,0.2,3l0,0
		c0,0.1,0.1,0.2,0.2,0.3c0.1,0.1,0.2,0.2,0.3,0.3l0.5,3l0,0.2L149.4,90.9z"/>
	<path class="st4" d="M148.7,82.5C148.5,83,148.8,82,148.7,82.5c-0.9,0.6-2.9,2.4-4.1,2.4c-0.6,0-1.2-0.1-1.7-0.4
		c0.2-0.6,0.3-1.3,0.4-1.9C143.4,82.5,150.3,78.7,148.7,82.5z"/>
	<path class="st5" d="M150.4,79.3c0,2.7-2.1,5-4.8,5.3c-0.2,0-0.4,0-0.6,0c-2.9,0-5.3-2.4-5.3-5.3s2.4-5.3,5.3-5.3
		C148,73.9,150.4,76.3,150.4,79.3z"/>
	<path class="st4" d="M151.2,102.8l-0.8,2c0,0-0.6,0-1.6,0.1c-3.2,0.1-10.4,0.2-10.7-0.6c-0.1-0.2-0.1-0.4-0.1-0.7
		c0-1.1,0.2-2.2,0.5-3.2c0,0,0.3-3.9,0.3-4.1s-0.3-2.9-0.3-2.9l0.6-2.2l1.6-1.1c0,0,0.7,1.1,1.2,1.2c0.4,0.1,0.7,0.4,1,0.6
		c0,0,1.4,0.9,1.9,0.4s4.1-2.6,4.1-2.6l1.9,2.1L151.2,102.8z"/>
	<path class="st7" d="M151.2,103.1l-0.8,2c0,0-0.6,0-1.6,0.1h-0.1c-0.4,0-0.9,0-1.4,0c-2.7,0.1-5.3,0-8-0.2
		c-0.7-0.1-1.2-0.2-1.2-0.4c0-0.1-0.1-0.2-0.1-0.4c0-0.1,0-0.2,0-0.3c0-1.1,0.2-2.2,0.5-3.2c0,0,0.3-3.9,0.3-4.1s-0.3-2.9-0.3-2.9
		l0.6-2.2l1.1-0.8l0.5-0.4c0.2,0.3,0.4,0.5,0.6,0.7c0.2,0.2,0.4,0.4,0.6,0.5c0.4,0.1,0.7,0.4,1,0.6c0,0,1.4,0.9,1.9,0.4
		c1.1-0.8,2.3-1.6,3.6-2.3c0.3-0.2,0.5-0.3,0.5-0.3l0.3,0.3l1.6,1.8L151.2,103.1z"/>
	<path class="st4" d="M125.5,82.8l-2.1,1.5c0,0,0-0.3-0.1-0.7c0.8-0.4,1.4-1,1.9-1.7C125.3,82.4,125.5,82.8,125.5,82.8z"/>
	<path class="st3" d="M132.9,87.9l-0.5-0.1c-0.3,0.4-0.7,0.7-1.2,0.9c-0.5,0.2-0.9,0.4-1.4,0.7l-1.1,0.9c0,0-0.8,0.1-0.6-0.4
		s-0.4-1.3-0.4-1.3c-0.6-1.1-1-2.2-1.4-3.4c-0.3-1-0.7-2.1-1.1-3c0,0-1.4,2.8-4,1.9c0,0,1.9,4.2,1.9,5.3c0.3,1.4,0.7,2.7,1.3,4
		c0.3,1.3,1.6,2.2,3,2c0,0,3.5,0.6,4.2,0c0.5-0.5,1.1-0.9,1.8-1.2c0.3-0.1,0.5-0.3,0.7-0.5v-2.9L132.9,87.9z"/>
	<path class="st4" d="M128.6,90.6c0,0,0.6,2.3,0.2,2.5L128.6,90.6z"/>
	<path class="st4" d="M148.9,105.1c-3.2,0.1-10.4,0.2-10.7-0.6c-0.1-0.2-0.1-0.4-0.1-0.7l10.6,0.6L148.9,105.1z"/>
	<path class="st4" d="M149.6,125.5c0,0-0.2,0.6-0.5,1.3c-1.3-0.1-3.1-0.2-4.8-0.2c-0.6,0-1.2,0-1.7,0c-1,0-1.9,0.1-2.8,0.3
		c-0.8,0.3-1.7,0.4-2.5,0.3c-0.2-0.8-0.4-1.4-0.4-1.4s3.7-0.3,5.9-0.4l0.2-1.2L149.6,125.5z"/>
	<path class="st6" d="M152.5,116.6l-0.4,0.9c0,0-0.1,0.3-0.1,0.7c-0.2,1.2-0.3,2.5-0.3,3.8c0,1.6-0.1,3.2-0.3,4.7c0,0-9-0.8-11.6,0
		s-3.9,0-3.9,0s0.3-2.8-0.5-4.3c-0.5-1-0.9-5.4-0.9-8.4c-0.1-0.9,0-1.7,0.2-2.6c0.5-0.7,2.8-7.2,2.8-7.2l0.5,0l1.4,0.1l7.9,0.4
		l1.2,0.1l0.1,0.4L152.5,116.6z"/>
	<path class="st3" d="M156.4,113.6l0.1,0.8c0,0-3.9-1.3-3.7-2.9s0-1.4,0-1.4l3.2,0.3L156.4,113.6z"/>
	<path class="st4" d="M156.4,113.6l0.1,0.8c0,0-3.9-1.3-3.7-2.9s0-1.4,0-1.4l3.2,0.3L156.4,113.6z"/>
	<path class="st4" d="M131.2,91.3c0.4,0.3,0.9,0.6,1.4,0.7c-0.1,0-0.3-0.1-0.4-0.2c-0.3-0.2-0.5-0.4-0.8-0.6
		c-0.2-0.2-0.5-0.4-0.8-0.5C130.8,90.9,131,91.1,131.2,91.3z"/>
	<path class="st4" d="M131.2,92.3c0.1,0.1,0.2,0.3,0.3,0.5c0.1,0.5,0.1,1,0,1.5l-0.6-1.5c-0.1-0.3-0.2-0.5-0.4-0.8
		c-0.1-0.1-0.4-0.5-0.4-0.6C130.3,91.1,131.1,92.1,131.2,92.3z"/>
	<path class="st4" d="M148.8,100.7c0.4-0.1,0.8-0.2,1.1-0.5c-0.6,0.1-1.3,0.3-1.9,0.5c-0.6,0.1-1.2,0.1-1.8-0.2
		C147.1,100.8,148,100.9,148.8,100.7z"/>
	<path class="st4" d="M147,96.2c-0.1,0-0.2,0-0.3-0.1c-0.5-0.3-1-0.6-1.4-0.9c-0.5-0.3-1-0.6-1.4-1C144.7,95.2,145.8,95.9,147,96.2z
		"/>
	<path class="st4" d="M148.3,101.4c0.3,0,0.5,0,0.8-0.1c0.3-0.1,0.5-0.2,0.6-0.4c-0.1,0-0.2,0-0.3,0c-0.8,0.3-1.6,0.4-2.4,0.3
		C147.4,101.4,147.9,101.4,148.3,101.4z"/>
	<path class="st4" d="M143.7,112.7c-0.5,0.2-1,0.3-1.6,0.3c-0.4,0-0.8,0-1.2,0l-2-0.1l-1-0.1c-0.1,0-0.6,0-0.4-0.2
		c0.1-0.1,0.8,0,1,0c0.3,0,0.7,0,1,0c0.7,0,1.3,0,2,0C142.3,112.6,143,112.6,143.7,112.7z"/>
	<path class="st4" d="M141.4,113.7c-0.4,0.1-0.8,0.1-1.1,0.2c-0.4,0-0.8,0.1-1.2,0c-0.8,0-1.5-0.2-2.3-0.5
		C138.4,113.6,139.9,113.6,141.4,113.7z"/>
	<path class="st4" d="M137.1,114.7c0.1,0,0.3,0.1,0.4,0.1c0.9,0.2,1.8,0.1,2.6-0.2c-0.2,0.3-0.6,0.5-1,0.5c-0.6,0.2-1.3,0.2-1.9,0.1
		c-0.2,0-0.7-0.1-0.8-0.3C136.3,114.7,137,114.7,137.1,114.7z"/>
	<path class="st4" d="M141.9,116.3c0.3,0.1,0.5,0.1,0.7,0.2c1,0.1,2,0,2.9-0.3c1.1-0.3,2.3-0.4,3.5-0.3c-0.3,0.1-0.5,0.1-0.7,0.2
		c-0.3,0.1-0.5,0.2-0.8,0.2c-0.5,0.1-1.1,0.2-1.6,0.3c-1.1,0.2-2.2,0.2-3.3,0.1c-0.6,0-1.2,0-1.8-0.2
		C141,116.4,141.4,116.3,141.9,116.3z"/>
	<path class="st4" d="M142.2,86.3c0,1.1-0.1,2.2-0.3,3.3c-0.1,0.3-0.3,0.9-0.5,1.6c-0.2,0.7-0.4,1.5-0.6,2.2s-0.3,1.1-0.3,1.1
		s-0.8,6.7-1,9.9c0,0.1,0,0.1,0,0.2c0,0.2,0,0.4-0.1,0.6c-0.5,3.2-3.2,8.1-4.1,8.5c-0.3,0.1-0.5,0.3-0.8,0.5c-0.1-0.9,0-1.7,0.2-2.6
		c0.5-0.7,2.8-7.2,2.8-7.2l0.5,0c0-0.1,0-0.2,0-0.3c0-1.1,0.2-2.2,0.5-3.2c0,0,0.3-3.9,0.3-4.1s-0.3-2.9-0.3-2.9l0.6-2.2l1.1-0.8
		c0.1-1.7,0.5-3.7,1.3-4.3c0.4-0.3,0.7-0.7,0.9-1.2c0.2,0-0.1-0.1-0.1-0.1L142.2,86.3z"/>
	<path class="st3" d="M142.6,85c-0.4-0.1-0.9-0.1-1.2,0.1c-0.6,0.3-1.3,0.4-2,0.3c-1.2-0.2-2.4-0.3-3.6-0.4c-0.2,0.1-0.7-0.3-1,0.2
		s-0.5,0.9-0.8,1s-0.9,0.6-0.8,0.7s-0.8,0.7-0.8,0.7l1.8,5.8c0,0-1.1,7.3-1.7,7.9s-5.5,8.8-3.8,10.3c1.4,1.1,2.9,2.1,4.5,3
		c0.2,0.1,0.9-1.2,1.9-1.6s4-5.9,4.2-9s1-10.1,1-10.1s1-3.8,1.4-4.8c0.2-1.1,0.4-2.2,0.3-3.3L142.6,85z"/>
	<path class="st4" d="M152.5,116.6l-0.4,0.9c0,0-0.1,0.3-0.1,0.7c-0.1,0-0.1,0-0.2-0.1c-0.6-0.5-4.2-4.2-4.4-7.4
		c-0.1-2.4-0.1-4.5,0-5.4c0-0.3,0-0.5,0-0.5l0,0c0,0,2.8-3.4,2.5-4.6s-1-7.6-1-7.6l-0.1-0.8l-0.2-1.4l-0.4-3.4l0.5,0.1
		c0.1,0.1,0.2,0.2,0.3,0.3l0.5,3l1.6,1.8l0.3,11l-0.8,2c0,0-0.6,0-1.6,0.1h-0.1L152.5,116.6z"/>
	<path class="st3" d="M154,98.3c0,0-0.7-0.3-0.7,0s-0.2,0.9-0.2,0.9s0.1,1.4-0.4,2s-0.6,2.9-0.6,2.9s-0.8,2.3-0.4,3.1
		c0.3,1,0.5,2.1,0.6,3.2c0.1,1,0.3,2.1,0.4,3.1c0.2,1.8,0.4,3.3,0.4,3.3s-0.4,1.6-1,1.1s-4.2-4.2-4.4-7.4c-0.1-2.3-0.1-4.3,0-5.3
		c0-0.4,0-0.7,0-0.7s2.8-3.4,2.5-4.6s-1-7.6-1-7.6l-0.1-1l-0.1-1.1l0-0.2l-0.4-3.4l0,0c1.1,0.2,2.2,0.6,3.2,1
		c0.8,0.4,1.7,0.7,2.6,0.9c0.7,0.2,1.2,0.7,1.4,1.4c0,0.1,0,0.1,0.1,0.2c0.3,1.4,0.2,1.6,0.4,1.8S154,98.3,154,98.3z"/>
	<path class="st4" d="M152.7,113.4c-1-0.2-2.5-0.7-2.4-1.7c0-1,1.2-1.3,2-1.4C152.4,111.3,152.6,112.4,152.7,113.4z"/>
	<path class="st5" d="M155.8,112.9c0,0.1-0.2,0.2-0.4,0.2c-0.5,0.1-1.1,0.2-1.6,0.3c0,0-3.4-0.3-3.3-1.8c0-1.1,1.6-1.4,2.4-1.5
		c0.2,0,0.4,0,0.6,0C153.4,110.1,155.9,112.6,155.8,112.9z"/>
	<path class="st4" d="M155.8,112.9c0,0.1-0.2,0.2-0.4,0.2c-0.9-1.2-2.1-2.7-2.7-2.8l0.2-0.2c0.2,0,0.4,0,0.6,0
		C153.4,110.1,155.9,112.6,155.8,112.9z"/>
	<path class="st3" d="M154.9,91.9l1,0.1c0.4,0.6,0.8,1.2,1.2,1.8c0.3,0.3,0.4,0.7,0.4,1.2c0.6,0.9,1.2,1.7,1.9,2.4
		c0.5,0.2,1.2,1.9,1.2,1.9s1.1,0.8,1.1,1.6c0,0.7,0.1,1.4,0.2,2.1c-0.1,0.8-0.3,1.6-0.7,2.4c-0.5,0.8-0.8,1.8-1,2.7
		c-0.5,0.8-1.1,1.6-1.8,2.3c-0.3,0.5-0.6,0.9-0.9,1.4l-1.3,2.4c0,0-2.7-4-3.7-4.2c0.5-0.5,1.1-0.9,1.7-1.3c0.6-0.2,1.1-1.8,1.1-2.2
		s0.5-1.6,1-1.8s0.8-0.4,0.6-0.8c-0.1-0.3-0.1-0.7,0-1c-0.7-0.9-1.3-1.9-1.6-3c-0.3-0.8-0.8-1.4-1.5-1.8l-0.8-1.9L154.9,91.9z"/>
	<path class="st4" d="M158.6,101c0.6-0.5,1.2-0.7,2-0.7c-0.5,0-0.9,0.2-1.3,0.5c-0.1,0.1-0.3,0.3-0.4,0.5c-0.1,0.2-1.1,1.4-1.2,1.2
		C157.5,102.1,158.4,101.2,158.6,101z"/>
	<path class="st4" d="M156.4,99.8c0.3,0,0.6-0.2,0.7-0.5c0.1-0.3,0.2-0.6,0.2-0.9c0.1-0.5,0.2-1,0.3-1.5c0.1-0.2,0.1-0.4,0-0.6
		c-0.1-0.2-0.1-0.3-0.2-0.4c-0.2,0.3-0.3,0.6-0.3,0.9c-0.1,0.3-0.2,0.7-0.3,1C156.7,98,156.4,99.8,156.4,99.8z"/>
	<path class="st4" d="M155.5,90c-0.1,0.1-0.2,0.2-0.3,0.3c-0.4,0.3-0.9,0.6-1,1.1c0,0.2,0,0.3-0.1,0.5c-0.1,0.2-0.4,0.2-0.7,0.2
		c-0.2,0-0.4-0.1-0.6-0.2c-0.3-0.2-0.3-0.6-0.5-0.9c-0.2-0.3-0.6-0.5-1-0.4c-0.4,0-0.7,0.1-1.1,0.1c-0.2,0-0.5,0-0.7,0
		c-0.1,0-0.2,0-0.2,0c-0.2,0-0.3-0.1-0.5-0.2c-0.1,0-0.2-0.1-0.2-0.1c-0.2-0.1-0.5-0.3-0.7-0.5c-0.4-0.3-0.6-0.8-0.6-1.3
		c0-0.3,0.2-0.6,0.2-0.9c0-0.9-0.3-1.7-1-2.3c-0.2-0.2-0.5-0.5-0.8-0.7c-0.4-0.4-0.7-0.8-0.9-1.3c-0.2-0.5-0.2-1.1-0.2-1.6
		c0.1-0.5,0.1-1.1,0-1.6c-0.2-1.9-1.8-3.4-3.5-4.2l-0.1,0c1.9-2.2,5.3-2.4,7.5-0.5c2.2,1.9,2.4,5.3,0.5,7.5
		c-0.3,0.3-0.5,0.6-0.9,0.8c0,0.1,0,0.1,0,0.2c-0.3,1-0.3,2,0.2,3l0,0c1.1,0.2,2.2,0.6,3.2,1c0.8,0.4,1.7,0.7,2.6,0.9
		C154.8,88.8,155.3,89.3,155.5,90z"/>
	<path class="st6" d="M140.7,74.4c0.1-0.1,0.3-0.2,0.4-0.3c0.3-0.4,0-1,0.1-1.5c0.2-0.5,0.8-0.8,1.4-0.7c0.6,0.1,1.1,0.3,1.7,0.4
		c0.9,0,1.7-0.2,2.6-0.5c0.8-0.3,1.8-0.2,2.5,0.4c0.6,0.7,0.5,1.8,1.3,2.2c0.4,0.2,0.7,0.3,1.1,0.4c0.4,0.2,0.7,0.5,1,0.9
		c0.6,0.9,0.8,2,0.7,3.1c-0.1,0.6-0.2,1.1-0.3,1.7c-0.1,0.6,0,1.2,0.1,1.8c0.1,0.6,0.5,1.2,1.1,1.4c0.1,0,0.3,0.1,0.4,0.1
		c0.3,0.2,0.3,0.7,0.2,1.1l-0.4,1.6c0.3,0.3,0.9,0.1,1.2,0.4c0.1,0.1,0.2,0.3,0.3,0.4c0.3,0.9,0,2-0.7,2.6c-0.4,0.3-0.9,0.6-1,1.1
		c0,0.2,0,0.3-0.1,0.5c-0.1,0.2-0.4,0.2-0.7,0.2c-0.2,0-0.4-0.1-0.6-0.2c-0.3-0.2-0.3-0.6-0.5-0.9c-0.2-0.3-0.6-0.5-1-0.4
		c-0.4,0-0.7,0.1-1.1,0.1c-0.9,0-1.7-0.3-2.3-0.8c-0.4-0.3-0.6-0.8-0.6-1.3c0-0.3,0.2-0.6,0.2-0.9c0-0.9-0.4-1.7-1-2.3
		c-0.7-0.5-1.3-1.2-1.7-2c-0.4-1,0-2.1-0.1-3.2c-0.2-1.9-1.8-3.4-3.5-4.2C140.9,75.3,140.3,74.9,140.7,74.4z"/>
	<path class="st4" d="M153.8,91.1c-0.3-0.2-0.3-0.6-0.5-0.9c-0.2-0.3-0.6-0.5-1-0.4c-0.4,0-0.7,0.1-1.1,0.1c-0.9,0-1.7-0.3-2.4-0.9
		c-0.4-0.3-0.6-0.8-0.6-1.3c0-0.3,0.2-0.6,0.2-0.9c0-0.9-0.3-1.7-1-2.3c-0.7-0.5-1.2-1.2-1.7-2c-0.4-1,0-2.1-0.1-3.2
		c-0.2-1.9-1.8-3.4-3.5-4.2c-0.4-0.2-1-0.7-0.6-1.2c0.1-0.1,0.3-0.2,0.4-0.3c0.3-0.4,0-1,0.1-1.5c0-0.1,0.1-0.2,0.1-0.3
		c-0.4,0-0.8,0.3-0.9,0.7c-0.1,0.5,0.2,1.1-0.1,1.5c-0.1,0.1-0.3,0.2-0.4,0.3c-0.4,0.5,0.2,1,0.6,1.2c1.7,0.8,3.3,2.3,3.5,4.2
		c0.1,1.1-0.3,2.2,0.1,3.2c0.4,0.8,1,1.5,1.7,2c0.7,0.6,1.1,1.4,1,2.3c-0.1,0.3-0.2,0.6-0.2,0.9c0,0.5,0.2,1,0.6,1.3
		c0.6,0.6,1.5,0.9,2.4,0.9c0.4,0,0.7-0.1,1.1-0.1c0.4,0,0.8,0.1,1,0.4c0.2,0.3,0.2,0.7,0.5,0.9c0.2,0.1,0.4,0.2,0.6,0.2
		c0.2,0,0.6,0.1,0.7-0.2c0-0.1,0.1-0.2,0.1-0.3C154.1,91.3,153.9,91.2,153.8,91.1z"/>
	<path class="st1" d="M124.8,79.3H111V65.7h13.8L124.8,79.3z M124.6,58.8h-13.4c0-21.1,20.1-19.9,20.1-33.2c0-7.3-6-13.3-13.4-13.2
		c0,0,0,0,0,0c-7.4,0.1-13.3,6.1-13.4,13.5H91.1C91.1,11,103-1,117.8-1.1c14.8-0.1,26.8,11.9,26.9,26.6
		C144.6,42.3,124.5,44.2,124.6,58.8L124.6,58.8z"/>
	<path class="st0" d="M56,75.2h-3.6v-3.5H56V75.2z M56,69.9h-3.4c0-5.4,5.2-5.1,5.2-8.6c0-1.9-1.6-3.4-3.4-3.4c0,0,0,0,0,0
		c-1.9,0-3.4,1.6-3.4,3.5h-3.4c-0.2-3.8,2.8-7,6.6-7.2c3.8-0.2,7,2.8,7.2,6.6c0,0.2,0,0.3,0,0.5C61.1,65.7,56,66.2,56,69.9L56,69.9z
		"/>
	<path class="st0" d="M82.9,99.6h-3.6v-3.5h3.6V99.6z M82.9,94.3h-3.4c0-5.4,5.2-5.1,5.2-8.6c0-1.9-1.5-3.4-3.4-3.4c0,0,0,0,0,0
		c-1.9,0-3.4,1.6-3.5,3.5h-3.4c-0.2-3.8,2.8-7,6.6-7.2c3.8-0.2,7,2.8,7.2,6.6c0,0.2,0,0.3,0,0.5C88.1,90.1,82.9,90.6,82.9,94.3z"/>
	<path class="st0" d="M99.3,56.4h-2.6v-2.5h2.6V56.4z M99.3,52.6h-2.5c0-3.9,3.7-3.7,3.7-6.2c0-1.4-1.1-2.5-2.5-2.5c0,0,0,0,0,0
		c-1.4,0-2.5,1.1-2.5,2.5H93c0.1-2.8,2.4-4.9,5.1-4.9c2.6,0.1,4.8,2.2,4.9,4.8C103,49.5,99.3,49.9,99.3,52.6L99.3,52.6z"/>
	<path class="st0" d="M143.3,60h-1.5v-1.4h1.5V60z M143.3,57.8h-1.4c0-2.2,2.1-2.1,2.1-3.5c0-0.8-0.6-1.4-1.4-1.4c0,0,0,0,0,0
		c-0.8,0-1.4,0.6-1.4,1.4h-1.4c0-1.6,1.3-2.8,2.9-2.8c1.5,0,2.7,1.2,2.8,2.8C145.4,56.1,143.3,56.3,143.3,57.8L143.3,57.8z"/>
	<path class="st0" d="M165.6,125.3h-1.5v-1.4h1.5V125.3z M165.5,123.1h-1.4c0-2.2,2.1-2.1,2.1-3.5c0-0.8-0.6-1.4-1.4-1.4
		c0,0,0,0,0,0c-0.8,0-1.4,0.6-1.4,1.4H162c0-1.6,1.3-2.8,2.9-2.8c1.5,0,2.7,1.2,2.8,2.8C167.7,121.3,165.6,121.5,165.5,123.1
		L165.5,123.1z"/>
</g>
</svg>
