<svg xmlns="http://www.w3.org/2000/svg" xmlns:xlink="http://www.w3.org/1999/xlink" width="208.108" height="150.067" viewBox="0 0 208.108 150.067"><defs><style>.a,.e,.g{fill:#00a0c6;}.a,.f,.o,.q{opacity:0.1;}.b{opacity:0.9;}.c{fill:#3a3768;}.d{fill:#e6e8ec;}.e{opacity:0.5;}.h{fill:url(#a);}.i{fill:#ee8e9e;}.j{fill:#65617d;}.k,.o{fill:#3f3d56;}.l{opacity:0.05;}.m{fill:#e8eaf2;}.n{fill:#303d5c;}.p{fill:url(#b);}</style><linearGradient id="a" x1="-1.02" y1="1" x2="-1.02" gradientUnits="objectBoundingBox"><stop offset="0" stop-color="gray" stop-opacity="0.251"/><stop offset="0.54" stop-color="gray" stop-opacity="0.122"/><stop offset="1" stop-color="gray" stop-opacity="0.102"/></linearGradient><linearGradient id="b" x1="0" y1="0.5" x2="1.001" y2="0.5" xlink:href="#a"/></defs><g transform="translate(-0.001 -0.006)"><path class="a" d="M155.917,67.4c-13.341-.462-26.049-4.77-38.182-9.483S93.58,47.988,80.559,45.491c-8.376-1.606-17.955-1.833-24.7,2.658-6.49,4.313-8.593,11.781-9.721,18.7-.849,5.207-1.348,10.682.976,15.563,1.615,3.385,4.483,6.231,6.466,9.472,6.9,11.281,2.026,25.193-5.455,36.206-3.5,5.168-7.575,10.1-10.28,15.6s-3.958,11.8-1.591,17.413c2.348,5.562,7.94,9.739,14,12.677,12.3,5.967,26.8,7.676,40.943,8.643,31.3,2.14,62.764,1.214,94.145.285,11.614-.344,23.277-.692,34.7-2.488,6.343-1,12.892-2.578,17.5-6.4a14.664,14.664,0,0,0,3.378-19.154c-6.571-10.2-24.743-12.735-29.337-23.684-2.529-6.026.068-12.741,3.742-18.329,7.883-11.991,21.1-22.511,21.791-36.215.479-9.413-5.873-18.841-15.693-23.294-10.3-4.669-24.568-4.081-32.164,3.647C181.439,64.752,167.7,67.813,155.917,67.4Z" transform="translate(-35 -44.092)"/><g class="b" transform="translate(72.656 15.835)"><rect class="c" width="1.825" height="15.052" rx="0.913" transform="translate(60.734 28.171)"/><rect class="c" width="1.024" height="4.956" rx="0.512" transform="translate(0.037 16.378)"/><rect class="c" width="1.155" height="8.627" rx="0.577" transform="translate(0 25.451)"/><rect class="c" width="1.1" height="8.7" rx="0.55" transform="translate(0.018 37.094)"/><rect class="c" width="61.103" height="124.181" rx="30.551" transform="translate(0.617)"/><rect class="d" width="8.533" height="1.733" rx="0.867" transform="translate(25.274 3.709)"/><circle class="d" cx="0.983" cy="0.983" r="0.983" transform="translate(35.096 3.591)"/></g><path class="e" d="M502.042,146.1h-7v.844a4,4,0,0,1-4,3.995h-22.3a4,4,0,0,1-4-3.995V146.1h-6.558a4.853,4.853,0,0,0-4.853,4.853V258.958a4.853,4.853,0,0,0,4.853,4.853h43.849a4.853,4.853,0,0,0,4.853-4.853V150.953A4.853,4.853,0,0,0,502.042,146.1Z" transform="translate(-376.293 -127.029)"/><rect class="d" width="53.598" height="4.947" transform="translate(77.091 27.349)"/><rect class="c" width="4.536" height="0.413" transform="translate(78.741 28.379)"/><rect class="c" width="4.536" height="0.413" transform="translate(78.741 29.616)"/><rect class="c" width="4.536" height="0.413" transform="translate(78.741 30.854)"/><path class="c" d="M713.285,196.815h-.168l-.064-.052a1.41,1.41,0,0,0,.328-.9,1.37,1.37,0,1,0-1.363,1.379,1.414,1.414,0,0,0,.9-.33l.063.053v.169l1.057,1.061.317-.319Zm-1.267,0a.948.948,0,1,1,.674-.279A.954.954,0,0,1,712.018,196.815Z" transform="translate(-586.206 -166.516)"/><circle class="d" cx="2.267" cy="2.267" r="2.267" transform="translate(78.741 39.099)"/><rect class="d" width="31.541" height="1.238" transform="translate(88.121 43.634)"/><rect class="d" width="31.541" height="1.238" transform="translate(88.224 46.313)"/><rect class="d" width="31.541" height="1.238" transform="translate(88.327 48.995)"/><circle class="d" cx="2.267" cy="2.267" r="2.267" transform="translate(78.741 54.561)"/><rect class="d" width="31.541" height="1.238" transform="translate(88.121 59.095)"/><rect class="d" width="31.541" height="1.238" transform="translate(88.224 61.775)"/><rect class="d" width="31.541" height="1.238" transform="translate(88.327 64.454)"/><circle class="d" cx="2.267" cy="2.267" r="2.267" transform="translate(78.741 70.022)"/><rect class="d" width="31.541" height="1.238" transform="translate(88.121 74.556)"/><rect class="d" width="31.541" height="1.238" transform="translate(88.224 77.236)"/><rect class="d" width="31.541" height="1.238" transform="translate(88.327 79.915)"/><circle class="d" cx="2.267" cy="2.267" r="2.267" transform="translate(78.741 85.483)"/><rect class="d" width="31.541" height="1.238" transform="translate(88.121 90.017)"/><rect class="d" width="31.541" height="1.238" transform="translate(88.224 92.697)"/><rect class="d" width="31.541" height="1.238" transform="translate(88.327 95.377)"/><circle class="d" cx="2.267" cy="2.267" r="2.267" transform="translate(78.741 100.944)"/><rect class="d" width="31.541" height="1.238" transform="translate(88.121 105.478)"/><rect class="d" width="31.541" height="1.238" transform="translate(88.224 108.158)"/><rect class="d" width="31.541" height="1.238" transform="translate(88.327 110.838)"/><circle class="d" cx="2.267" cy="2.267" r="2.267" transform="translate(78.741 116.405)"/><rect class="d" width="31.541" height="1.238" transform="translate(88.121 120.94)"/><rect class="d" width="31.541" height="1.238" transform="translate(88.224 123.619)"/><rect class="d" width="31.541" height="1.238" transform="translate(88.327 126.299)"/><circle class="f" cx="5.772" cy="5.772" r="5.772" transform="translate(113.992 121.765)"/><circle class="g" cx="5.153" cy="5.153" r="5.153" transform="translate(114.611 122.384)"/><path class="g" d="M303.987,158.325l-10.08,5.446a.21.21,0,0,0,.015.368l1.72.646a.418.418,0,0,1,.227.212l1.335,2.752c.026.122.25.153.252.029l-.2-2.273a.817.817,0,0,1,.184-.46l5.227-5.12a.129.129,0,0,1,.114-.033.12.12,0,0,1,.064.184l-4.5,5.536a1,1,0,0,0-.184.453l-.26,1.963c.022.171.157.236.263.083l.971-1.14a.2.2,0,0,1,.285-.048l2.5,1.823a.2.2,0,0,0,.319-.123l2.052-10.072a.2.2,0,0,0-.295-.227Z" transform="translate(-246.14 -136.984)"/><path class="g" d="M881.9,169.88l-10.08,5.453a.21.21,0,0,0,.017.368l1.718.648a.4.4,0,0,1,.227.212l1.337,2.75c.026.122.249.155.252.031l-.2-2.275a.807.807,0,0,1,.184-.459l5.225-5.12a.125.125,0,0,1,.114-.033.12.12,0,0,1,.066.184l-4.507,5.51a1.008,1.008,0,0,0-.184.455l-.271,1.963c.022.171.157.238.265.083l.971-1.138a.2.2,0,0,1,.285-.048l2.5,1.821a.2.2,0,0,0,.317-.123l2.052-10.072a.2.2,0,0,0-.295-.227Z" transform="translate(-717.619 -146.398)"/><path class="g" d="M558.436,61.617l-6.882,3.722a.144.144,0,0,0,.009.258l1.175.442a.282.282,0,0,1,.155.144l.921,1.879c.018.083.171.1.173.022l-.14-1.554a.563.563,0,0,1,.125-.313l3.569-3.5a.085.085,0,0,1,.077-.022.081.081,0,0,1,.044.131l-3.076,3.763a.688.688,0,0,0-.12.309l-.184,1.341c.015.118.1.162.184.057l.663-.777a.138.138,0,0,1,.184-.033l1.707,1.245a.138.138,0,0,0,.217-.085l1.4-6.877a.138.138,0,0,0-.2-.155Z" transform="translate(-456.357 -58.089)"/><path class="g" d="M771.115,42.6l-6.883,3.724a.144.144,0,0,0,.009.256l1.175.442a.278.278,0,0,1,.155.145l.912,1.877c.018.083.171.1.173.022l-.133-1.553a.566.566,0,0,1,.125-.315l3.569-3.5a.085.085,0,0,1,.077-.022.081.081,0,0,1,.044.131l-3.079,3.766a.69.69,0,0,0-.12.309l-.184,1.343c.015.116.107.16.184.055l.663-.777a.138.138,0,0,1,.193-.033l1.709,1.245a.136.136,0,0,0,.215-.085l1.391-6.877a.138.138,0,0,0-.2-.155Z" transform="translate(-629.867 -42.58)"/><path class="g" d="M852.244,294.959l-20.318-1.678a.368.368,0,0,0-.343.575l1.932,2.637a.72.72,0,0,1,.133.536l-.685,5.4c-.079.2.223.471.346.291l1.908-3.6a1.439,1.439,0,0,1,.72-.5l12.763-2.545a.226.226,0,0,1,.2.061.214.214,0,0,1-.088.35l-12.069,3.836a1.8,1.8,0,0,0-.705.5l-2.311,2.663c-.133.278,0,.5.313.381l2.554-.753a.368.368,0,0,1,.471.206l1.952,5.146a.368.368,0,0,0,.595.125l12.85-13.008a.368.368,0,0,0-.219-.624Z" transform="translate(-684.823 -247.102)"/><path class="h" d="M645.748,364.563a3.279,3.279,0,0,0,.693.7c.171.142.348.287.532.416.052.037.1.072.158.107,0,.009-.011.018-.015.029a.418.418,0,0,0-.048.256.552.552,0,0,0,.2.265,2.726,2.726,0,0,1,.831,1.5c.063.333-.162.691-.147,1.03a3,3,0,0,0,.262.961,5.191,5.191,0,0,0,1.142,1.978,6.4,6.4,0,0,0,1.28,3.155,10.26,10.26,0,0,0,2.16,1.893,4.2,4.2,0,0,0,.8.5,4.506,4.506,0,0,0,.79.212,40.73,40.73,0,0,0,6.941.785q.1,2.081.085,4.16a1.716,1.716,0,0,1-.1.672,2.987,2.987,0,0,1-.4.564,3.926,3.926,0,0,0-.516,2.554,23.529,23.529,0,0,0,.368,3.09c.241,1.308.02,2.751.484,4l.553,1.473a1.3,1.3,0,0,1,.109.437,1.925,1.925,0,0,1-.368.877,2.539,2.539,0,0,0-.322,1.339.278.278,0,0,0,.039.149c.061.081.184.074.284.059a11.934,11.934,0,0,1,1.23-.114,2.256,2.256,0,0,0-.2.293,4.316,4.316,0,0,0-.262.538,5.092,5.092,0,0,0-.35.961,1.175,1.175,0,0,0-.035.147c-.022.1-.042.2-.059.3a9.936,9.936,0,0,0-.109,1.768,18.732,18.732,0,0,1-.219,2.589,4.268,4.268,0,0,0,.223,1.967,4.655,4.655,0,0,0,.267,1.473,8.882,8.882,0,0,0,.184,1.554q.956,5.385,2.026,10.745c.064.311.125.621.208.921a7.536,7.536,0,0,0,1.379,2.728,12.4,12.4,0,0,1,1.44,2.306c-.042.2-.087.391-.133.584a41.72,41.72,0,0,0-1.127,5.146,7.133,7.133,0,0,1-.368,2.057,3.153,3.153,0,0,0-.368,1,1.1,1.1,0,0,0,.153.646c-.048.035-.094.072-.138.109l-.076.063a4.828,4.828,0,0,1-1.869.669,2.022,2.022,0,0,0-1.538,1.149,1.008,1.008,0,0,0-.031.123,1.629,1.629,0,0,0,.737,1.562,4.138,4.138,0,0,0,1.842.565,6,6,0,0,1,1.9.435,12.015,12.015,0,0,0,1.473.842l.094.028c-.12.072-.241.142-.368.206a5.547,5.547,0,0,1-1.766.553c-.622.087-1.367.127-1.687.67h0a1.2,1.2,0,0,0,.306,1.409,2.926,2.926,0,0,0,1.407.622,25.6,25.6,0,0,0,3.5.435l1.144.087c1.105.085,2.232.171,3.352.184a23.087,23.087,0,0,0,4.122-.359.449.449,0,0,0,.328-.158.468.468,0,0,0,.05-.262,20.148,20.148,0,0,0-.523-4.155c-.094-.409-.652.149-.965.5-.041-.2-.088-.407-.142-.6l.245-.116a.882.882,0,0,0,.449-.368.9.9,0,0,0,.048-.433,6.073,6.073,0,0,0-.527-2.621,5.553,5.553,0,0,0-1.042-1.269,48.414,48.414,0,0,0-1.02-8.406,11.486,11.486,0,0,0-1.523-4.024c-.1-.149-.212-.3-.322-.448a36.188,36.188,0,0,0-.492-4.039,1.043,1.043,0,0,1,0-.538,1.659,1.659,0,0,1,.3-.409c.49-.632.289-1.53.232-2.33a11.126,11.126,0,0,1,.459-3.407q.5-2.07,1-4.142a6.706,6.706,0,0,1,.35-1.147,11.332,11.332,0,0,1,.9-1.448,8.164,8.164,0,0,0,1.249-4.919c.184.066.368.134.564.208.138-1.157-.35-2.47,0-3.556a4.572,4.572,0,0,0,1.411-1.68c.273-.611.35-1.3.635-1.906a5.874,5.874,0,0,0,.483-1.022,7.137,7.137,0,0,0-.028-1.693c.018-1.232.921-2.376.718-3.593a9.172,9.172,0,0,1-.409-1.7,2.846,2.846,0,0,1,.238-.921c.678-1.8,1.346-3.707,1-5.6a6.335,6.335,0,0,1-.219-1.455,8.757,8.757,0,0,0,.217-1.667,1.265,1.265,0,0,0-.25-.584,7,7,0,0,0,.617-1.182,1.693,1.693,0,0,0,.164-.755,1.337,1.337,0,0,0-.532-.9,5.39,5.39,0,0,0-.921-.536.751.751,0,0,1-.271-.193,1.976,1.976,0,0,1-.153-.291c-.184-.315-.576-.414-.888-.6-1.123-.685-1.015-2.451-1.974-3.356a1.919,1.919,0,0,0-2.394-.127.587.587,0,0,1-.339.168.65.65,0,0,1-.328-.184,1.32,1.32,0,0,0-.81-.225,7.778,7.778,0,0,1-.243-2.149h.087a1.137,1.137,0,0,0,.335-.039,1.767,1.767,0,0,0,.976-1.127,8.567,8.567,0,0,0,.433-1.238c.011-.041.02-.081.029-.12.945.663,2.042,1.357,2.3,1.212.484-.267-2.164-2.151-2.164-2.151h0a2.108,2.108,0,0,0,.552-1.216,6.609,6.609,0,0,0,.022-2.661A3.142,3.142,0,0,0,674.2,355a3.644,3.644,0,0,1-1.03-.584h0a.664.664,0,0,1-.1-.136h0a.342.342,0,0,1-.041-.072,1,1,0,0,0-.11-.217c-.146-.168-.409-.116-.628-.09h-.19c-.785.017-1.545-.422-2.339-.422a5.95,5.95,0,0,0-2.378.851c-.155.07-.3.134-.44.2a1.987,1.987,0,0,0-1.105,1,1.557,1.557,0,0,0-.319.617,1.455,1.455,0,0,0-.041.317,5.269,5.269,0,0,0,2.368,8.84c.018.052.037.1.053.155a4.435,4.435,0,0,1,.23,1.473v.1A4,4,0,0,0,667,367.5a2.2,2.2,0,0,0-.958,1.177,1.153,1.153,0,0,0-.029.112,3.032,3.032,0,0,0-.866-.149.929.929,0,0,0-.737.223.679.679,0,0,0-.14.285c-.1.094-.122.256-.184.379-.223.389-.8.262-1.23.368-.47.116-.84.553-1.324.553a2.26,2.26,0,0,0-.552-.02c-.184.044-.324.293-.184.418a.587.587,0,0,0-.553.267c-.133.173-.221.379-.368.541a.564.564,0,0,0-.575-.223,2.13,2.13,0,0,0-.606.239.875.875,0,0,1-.267.094,1.153,1.153,0,0,1-.326-.029,2.6,2.6,0,0,0-1.525.214c-.42.2-.823-.166-1.289-.2a.721.721,0,0,1-.471-.146.921.921,0,0,1-.184-.368,1.842,1.842,0,0,0-1.348-1.193,1.569,1.569,0,0,0-.921-1.936,1.674,1.674,0,0,0-.575-1.459,2.686,2.686,0,0,1-.291-.228,1.4,1.4,0,0,1-.267-.494l-.409-1.083c-.184-.037-.322-.112-.494-.142V364.6a3.551,3.551,0,0,0-.184-1.087,6.088,6.088,0,0,0-.873-1.589,4.579,4.579,0,0,0-1.4-1.411,5.028,5.028,0,0,0-.6-.276l-1.053-.435a.511.511,0,0,0-.184-.052c-.284,0-.335.438-.184.672.32.473,1.042.606,1.247,1.142a.812.812,0,0,0-.753.586.411.411,0,0,1-.1.238c-.092.076-.238.031-.344.088-.184.1-.1.381-.125.593a2.853,2.853,0,0,1-.184.534A1.143,1.143,0,0,0,645.748,364.563ZM671,438.416c0-.109-.015-.217-.024-.324.022.057.042.116.064.173.184.486.392.965.61,1.438l-.037-.02a1.821,1.821,0,0,0-.5-.144.516.516,0,0,1-.14-.013A3.927,3.927,0,0,0,671,438.42Z" transform="translate(-533.097 -296.216)"/><path class="i" d="M762.4,407.8c-.02.77-.28,1.514-.32,2.282,2.263.112,4.5-.985,6.741-.65a3.117,3.117,0,0,1-1.16-1.856,7.75,7.75,0,0,1-.221-2.851,1.182,1.182,0,0,1,.029-.158,4.027,4.027,0,0,0,.239-1.2c-.076-.39-.444-.313-.777-.291a29.279,29.279,0,0,0-3.022.39c-.26.044-2.8.678-2.836.611a11.934,11.934,0,0,1,1.105,2.263A4.4,4.4,0,0,1,762.4,407.8Z" transform="translate(-627.348 -336.653)"/><path class="i" d="M645.764,394.843a3.316,3.316,0,0,0,.693.7c.171.142.348.285.532.414a2.274,2.274,0,0,0,1.133.46,3.015,3.015,0,0,0,2.026-.737,1.329,1.329,0,0,0,.193-.774,3.512,3.512,0,0,0-.184-1.081,6.034,6.034,0,0,0-.873-1.58,4.657,4.657,0,0,0-1.4-1.4,5.351,5.351,0,0,0-.6-.276l-1.053-.431a.512.512,0,0,0-.184-.052c-.284,0-.335.435-.184.669.32.471,1.042.6,1.247,1.136a.809.809,0,0,0-.753.582.405.405,0,0,1-.1.236c-.092.076-.238.033-.344.088-.184.1-.1.379-.125.591a2.86,2.86,0,0,1-.184.53A1.131,1.131,0,0,0,645.764,394.843Z" transform="translate(-533.113 -326.075)"/><path class="j" d="M795.42,818.757c-.173-.184-.459-.146-.7-.107a26.061,26.061,0,0,1-3.951.32c-.166-.808.315-1.595.47-2.407a2.124,2.124,0,0,1,.156-.608,1.389,1.389,0,0,1,1-.6c.713-.149,1.825-.414,2.223.3A10.794,10.794,0,0,1,795.42,818.757Z" transform="translate(-651.549 -672.882)"/><path class="k" d="M734.213,800.9a4.134,4.134,0,0,0,1.842.564,5.994,5.994,0,0,1,1.9.433,11.968,11.968,0,0,0,1.473.836,3.052,3.052,0,0,0,1.519.024,2.253,2.253,0,0,0,1.564-.849,2.611,2.611,0,0,0,.217-1.588c-.046-.613-.09-1.227-.136-1.842a.872.872,0,0,0-.114-.444c-.433-.634-1.488.263-2.054.263a3.958,3.958,0,0,1-2.5-1.079.8.8,0,0,0-.2-.147c-.254-.114-.51.1-.737.282l-.076.063a4.854,4.854,0,0,1-1.869.667,2.022,2.022,0,0,0-1.538,1.142.992.992,0,0,0-.031.122A1.6,1.6,0,0,0,734.213,800.9Z" transform="translate(-604.815 -658.081)"/><path class="l" d="M734.213,800.9a4.134,4.134,0,0,0,1.842.564,5.994,5.994,0,0,1,1.9.433,11.968,11.968,0,0,0,1.473.836,3.052,3.052,0,0,0,1.519.024,2.253,2.253,0,0,0,1.564-.849,2.611,2.611,0,0,0,.217-1.588c-.046-.613-.09-1.227-.136-1.842a.872.872,0,0,0-.114-.444c-.433-.634-1.488.263-2.054.263a3.958,3.958,0,0,1-2.5-1.079.8.8,0,0,0-.2-.147c-.254-.114-.51.1-.737.282l-.076.063a4.854,4.854,0,0,1-1.869.667,2.022,2.022,0,0,0-1.538,1.142.992.992,0,0,0-.031.122A1.6,1.6,0,0,0,734.213,800.9Z" transform="translate(-604.815 -658.081)"/><path class="m" d="M733.933,801.122a4.136,4.136,0,0,0,1.842.564,5.99,5.99,0,0,1,1.9.433,11.976,11.976,0,0,0,1.473.836,3.052,3.052,0,0,0,1.519.024,2.51,2.51,0,0,0,1.564-1.055,2.61,2.61,0,0,0,.217-1.588c-.046-.613-.09-1.227-.136-1.842a.872.872,0,0,0-.114-.444c-.433-.633-1.488.263-2.054.263a3.958,3.958,0,0,1-2.5-1.079.8.8,0,0,0-.2-.147c-.254-.114-.51.1-.737.282a5.267,5.267,0,0,0,.628,1.289,2.709,2.709,0,0,0,1.971,1.234,6.461,6.461,0,0,1,1.2.053c.387.1.737.5.61.875s-.606.446-1,.466a4.413,4.413,0,0,1-1.626-.112c-.317-.107-.606-.282-.921-.409-1.311-.553-2.967-.239-4.052-1.158a2.429,2.429,0,0,0-.331-.254C732.9,799.957,733.43,800.778,733.933,801.122Z" transform="translate(-604.535 -658.097)"/><path class="l" d="M733.933,801.122a4.136,4.136,0,0,0,1.842.564,5.99,5.99,0,0,1,1.9.433,11.976,11.976,0,0,0,1.473.836,3.052,3.052,0,0,0,1.519.024,2.51,2.51,0,0,0,1.564-1.055,2.61,2.61,0,0,0,.217-1.588c-.046-.613-.09-1.227-.136-1.842a.872.872,0,0,0-.114-.444c-.433-.633-1.488.263-2.054.263a3.958,3.958,0,0,1-2.5-1.079.8.8,0,0,0-.2-.147c-.254-.114-.51.1-.737.282a5.267,5.267,0,0,0,.628,1.289,2.709,2.709,0,0,0,1.971,1.234,6.461,6.461,0,0,1,1.2.053c.387.1.737.5.61.875s-.606.446-1,.466a4.413,4.413,0,0,1-1.626-.112c-.317-.107-.606-.282-.921-.409-1.311-.553-2.967-.239-4.052-1.158a2.429,2.429,0,0,0-.331-.254C732.9,799.957,733.43,800.778,733.933,801.122Z" transform="translate(-604.535 -658.097)"/><path class="n" d="M748.454,590.806a8.061,8.061,0,0,1-1.105,5.949,11.12,11.12,0,0,0-.9,1.44,6.649,6.649,0,0,0-.35,1.142l-1,4.129a11.149,11.149,0,0,0-.459,3.389c.057.8.258,1.689-.232,2.319a1.658,1.658,0,0,0-.3.405,1.038,1.038,0,0,0,0,.536c.5,2.991.877,6.12-.033,9.013-.823,2.623-.871,5.525-1.573,8.188a1.813,1.813,0,0,1-.435.908,1.438,1.438,0,0,1-.654.311,4.816,4.816,0,0,1-3.087-.49c-.678-.313-1.407-.864-1.348-1.608a3.416,3.416,0,0,1,.368-.991,6.818,6.818,0,0,0,.368-2.046,40.954,40.954,0,0,1,1.127-5.118,12.228,12.228,0,0,0,.339-5.194,45.456,45.456,0,0,0-3.343-10.279,1.2,1.2,0,0,0-.306-.459,3.265,3.265,0,0,1-.433-.3,1.3,1.3,0,0,1-.2-.54,5.849,5.849,0,0,0-.9-1.418c-.759-1.2-.518-2.748-.49-4.17a28.768,28.768,0,0,1,.055-4.142A3.881,3.881,0,0,1,735.9,588.6a4.994,4.994,0,0,1,2.039-.1A39.714,39.714,0,0,1,748.454,590.806Z" transform="translate(-604.827 -487.908)"/><path class="l" d="M748.454,590.806a8.061,8.061,0,0,1-1.105,5.949,11.12,11.12,0,0,0-.9,1.44,6.649,6.649,0,0,0-.35,1.142l-1,4.129a11.149,11.149,0,0,0-.459,3.389c.057.8.258,1.689-.232,2.319a1.658,1.658,0,0,0-.3.405,1.038,1.038,0,0,0,0,.536c.5,2.991.877,6.12-.033,9.013-.823,2.623-.871,5.525-1.573,8.188a1.813,1.813,0,0,1-.435.908,1.438,1.438,0,0,1-.654.311,4.816,4.816,0,0,1-3.087-.49c-.678-.313-1.407-.864-1.348-1.608a3.416,3.416,0,0,1,.368-.991,6.818,6.818,0,0,0,.368-2.046,40.954,40.954,0,0,1,1.127-5.118,12.228,12.228,0,0,0,.339-5.194,45.456,45.456,0,0,0-3.343-10.279,1.2,1.2,0,0,0-.306-.459,3.265,3.265,0,0,1-.433-.3,1.3,1.3,0,0,1-.2-.54,5.849,5.849,0,0,0-.9-1.418c-.759-1.2-.518-2.748-.49-4.17a28.768,28.768,0,0,1,.055-4.142A3.881,3.881,0,0,1,735.9,588.6a4.994,4.994,0,0,1,2.039-.1A39.714,39.714,0,0,1,748.454,590.806Z" transform="translate(-604.827 -487.908)"/><path class="n" d="M732.552,602.409a8.648,8.648,0,0,0,.184,1.6q.956,5.357,2.026,10.682c.064.309.125.617.208.921a7.484,7.484,0,0,0,1.379,2.713c3,3.741,3.262,9.174,4.89,13.684.109.306.219.611.335.921a22.807,22.807,0,0,0,1.006,2.241.633.633,0,0,0,.206.267.617.617,0,0,0,.328.064,9.549,9.549,0,0,0,4.236-.963.876.876,0,0,0,.449-.368.9.9,0,0,0,.048-.431,6.008,6.008,0,0,0-.527-2.606,5.525,5.525,0,0,0-1.042-1.263,47.92,47.92,0,0,0-1.02-8.361,11.4,11.4,0,0,0-1.523-4c-.6-.875-1.46-1.737-1.355-2.792.048-.464.241-1.041-.136-1.313-.164-.12-.409-.134-.519-.306a.565.565,0,0,1-.074-.262,6.488,6.488,0,0,1,.134-2.166,11.665,11.665,0,0,0,.322-1.411,1.771,1.771,0,0,0-.355-1.363c-.02-.963,0-1.963-.013-2.926a5.452,5.452,0,0,1,.136-1.634c.072-.252.184-.494.239-.751.2-.921-.3-2.026.3-2.763a4.062,4.062,0,0,1,.96-.678,3.511,3.511,0,0,0,1.319-1.9,10.471,10.471,0,0,0,.368-2.321,2.416,2.416,0,0,0,0-.5.935.935,0,0,0-.068-.25,1.526,1.526,0,0,0-1.131-.687,36.573,36.573,0,0,0-8.638-1.009c-1.076-.737-1.682-.471-2.136.306a7.871,7.871,0,0,0-.61,1.486c-.208.628-.221,4.153-.424,4.788C731.795,599.867,732.552,601.547,732.552,602.409Z" transform="translate(-603.631 -490.84)"/><path class="k" d="M808.836,469.149a8.377,8.377,0,0,1-.217,1.658,6.276,6.276,0,0,0,.219,1.448c.348,1.879-.32,3.781-1,5.568a2.814,2.814,0,0,0-.238.921,9.319,9.319,0,0,0,.409,1.693c.193,1.21-.7,2.348-.718,3.573a6.707,6.707,0,0,1,.028,1.683,5.793,5.793,0,0,1-.483,1.018c-.286.6-.368,1.289-.635,1.9a6.373,6.373,0,0,1-2.562,2.477,2.588,2.588,0,0,1-1.51-.934,2.315,2.315,0,0,1-.263-.821,21.152,21.152,0,0,1-.2-3.8,23.721,23.721,0,0,1,.173-3.276c.2-1.381.652-2.713.974-4.072a39.307,39.307,0,0,1,1.245-5.131,17.3,17.3,0,0,1,2.332-3.984c.346-.475.621-1.151,1.289-1.042A1.416,1.416,0,0,1,808.836,469.149Z" transform="translate(-660.463 -389.65)"/><path class="l" d="M808.836,469.149a8.377,8.377,0,0,1-.217,1.658,6.276,6.276,0,0,0,.219,1.448c.348,1.879-.32,3.781-1,5.568a2.814,2.814,0,0,0-.238.921,9.319,9.319,0,0,0,.409,1.693c.193,1.21-.7,2.348-.718,3.573a6.707,6.707,0,0,1,.028,1.683,5.793,5.793,0,0,1-.483,1.018c-.286.6-.368,1.289-.635,1.9a6.373,6.373,0,0,1-2.562,2.477,2.588,2.588,0,0,1-1.51-.934,2.315,2.315,0,0,1-.263-.821,21.152,21.152,0,0,1-.2-3.8,23.721,23.721,0,0,1,.173-3.276c.2-1.381.652-2.713.974-4.072a39.307,39.307,0,0,1,1.245-5.131,17.3,17.3,0,0,1,2.332-3.984c.346-.475.621-1.151,1.289-1.042A1.416,1.416,0,0,1,808.836,469.149Z" transform="translate(-660.463 -389.65)"/><path class="f" d="M761.07,404.068a11.935,11.935,0,0,1,1.105,2.263,5.186,5.186,0,0,0,1.249.151,4.785,4.785,0,0,0,3.748-2.1c.083-.368.6-.727.542-1.024-.076-.39-.444-.313-.777-.291a29.28,29.28,0,0,0-3.022.39C763.647,403.5,761.107,404.142,761.07,404.068Z" transform="translate(-627.348 -336.653)"/><circle class="i" cx="5.23" cy="5.23" r="5.23" transform="translate(130.838 59.227)"/><path class="f" d="M737.93,592.739c.9-.053,1.816-.018,2.724.018a9.476,9.476,0,0,1,1.693.173c.687.157,1.33.47,2.007.665a18.377,18.377,0,0,0,3.354.442,19.275,19.275,0,0,1,2.2.343.937.937,0,0,0-.068-.25,1.526,1.526,0,0,0-1.131-.687,36.576,36.576,0,0,0-8.638-1.009C738.991,591.7,738.385,591.966,737.93,592.739Z" transform="translate(-608.47 -490.81)"/><path class="k" d="M731.778,432.318c.228.263.534.553.873.468a1.2,1.2,0,0,0,.339-.184,5.113,5.113,0,0,1,2.052-.588,30.141,30.141,0,0,0,4.236-.95,4.322,4.322,0,0,1,1.251-.254,3.02,3.02,0,0,1,2.227,1.289c.554.694.943,1.508,1.5,2.206.389.5.851.936,1.214,1.453a6.371,6.371,0,0,1,.875,4.586,18.618,18.618,0,0,1-1.49,4.531,15.617,15.617,0,0,1-1.217,2.455,5.853,5.853,0,0,1-.47,3.643,3.657,3.657,0,0,0-.475,1.083,2.737,2.737,0,0,0,.033.794l.267,1.893c.081.576.162,1.155.267,1.728a4.991,4.991,0,0,1-.033,3.131c-.582,1.135.029,2.591-.123,3.868a19.416,19.416,0,0,0-5.109-1.217,18.216,18.216,0,0,1-3.352-.438c-.678-.2-1.32-.51-2.007-.667a9.3,9.3,0,0,0-1.693-.173,20.123,20.123,0,0,0-3.755.085c-.1.015-.223.022-.284-.059a.271.271,0,0,1-.039-.147,2.508,2.508,0,0,1,.322-1.332,1.9,1.9,0,0,0,.368-.873,1.288,1.288,0,0,0-.109-.435l-.552-1.473c-.464-1.238-.243-2.674-.484-3.974a23.289,23.289,0,0,1-.368-3.074,3.847,3.847,0,0,1,.516-2.543,2.9,2.9,0,0,0,.4-.552,1.7,1.7,0,0,0,.1-.669q.017-2.647-.145-5.291c.464-.834.949-1.687,1.413-2.519a10.814,10.814,0,0,0,1.306-3.048c.144-.722.138-1.464.241-2.192a.953.953,0,0,1,.184-.51.926.926,0,0,1,.737-.221A3.251,3.251,0,0,1,731.778,432.318Z" transform="translate(-598.754 -359.304)"/><path class="f" d="M653.31,417.005a2.275,2.275,0,0,0,1.133.46,3.016,3.016,0,0,0,2.026-.737,1.329,1.329,0,0,0,.193-.774.954.954,0,0,0-.225-.042,5.894,5.894,0,0,0-1.755.07,1.976,1.976,0,0,0-1.363,1.022Z" transform="translate(-539.434 -347.122)"/><path class="k" d="M671.07,428.883a3.65,3.65,0,0,1-1.105,1.041,3.559,3.559,0,0,1-1.716.263,41.2,41.2,0,0,1-7.183-.788,4.512,4.512,0,0,1-.79-.212,4.19,4.19,0,0,1-.8-.5,10.055,10.055,0,0,1-2.16-1.882,6.353,6.353,0,0,1-1.28-3.14A5.133,5.133,0,0,1,654.9,421.7a2.967,2.967,0,0,1-.261-.954c-.015-.339.21-.694.147-1.028a2.705,2.705,0,0,0-.831-1.492.552.552,0,0,1-.2-.263.412.412,0,0,1,.048-.254,1.966,1.966,0,0,1,1.361-1.024,5.905,5.905,0,0,1,1.757-.07,4.079,4.079,0,0,1,.575.153l.409,1.077a1.386,1.386,0,0,0,.267.492,2.663,2.663,0,0,0,.291.227,1.658,1.658,0,0,1,.575,1.451,1.56,1.56,0,0,1,.921,1.926,1.842,1.842,0,0,1,1.348,1.186.9.9,0,0,0,.184.368.72.72,0,0,0,.471.146c.462.028.866.392,1.289.2a2.6,2.6,0,0,1,1.525-.214,1.148,1.148,0,0,0,.326.028.822.822,0,0,0,.267-.092,2.188,2.188,0,0,1,.606-.239.567.567,0,0,1,.575.223c.147-.16.236-.368.368-.538a.591.591,0,0,1,.553-.267c-.14-.123,0-.368.184-.416a2.461,2.461,0,0,1,.552.02c.484,0,.855-.442,1.324-.552.433-.107,1.007.02,1.23-.368.077-.136.094-.32.227-.405a.442.442,0,0,1,.293-.033,2.862,2.862,0,0,1,.882.267,12.363,12.363,0,0,1-.131,5.407A4.743,4.743,0,0,1,671.07,428.883Z" transform="translate(-539.793 -347.693)"/><path class="f" d="M745.593,515.208l2.252,4.542c-.243-.42-.757-.584-1.162-.853a3.09,3.09,0,0,1-1.1-1.492,9.21,9.21,0,0,1-.425-1.842,1.665,1.665,0,0,1,0-.954C745.4,514.665,745.487,514.995,745.593,515.208Z" transform="translate(-614.302 -427.67)"/><path class="f" d="M778.928,534.827a19.949,19.949,0,0,0,1.689,1.319,15.6,15.6,0,0,1,3.148,3.868,6.255,6.255,0,0,1,.643,1.171c-.107.092-.267,0-.368-.1l-1.768-1.554a3.923,3.923,0,0,1-.589-.6c-.308-.414-.444-.921-.722-1.363a5.365,5.365,0,0,0-1.076-1.105c-.405-.348-2.273-1.926-1.818-2.54C778.39,534.1,778.659,534.56,778.928,534.827Z" transform="translate(-641.156 -443.432)"/><path class="k" d="M757.525,427.269a5.248,5.248,0,0,1,1.873-.617,3.925,3.925,0,0,1,1.19-.085c.368.046.722.184,1.092.208a4.923,4.923,0,0,0,1.521-.319,1.828,1.828,0,0,1,1.507.112.638.638,0,0,0,.328.175.584.584,0,0,0,.339-.166,1.926,1.926,0,0,1,2.394.127c.959.9.851,2.656,1.974,3.337.311.184.707.287.888.6a2.174,2.174,0,0,0,.153.289.769.769,0,0,0,.271.184,5.374,5.374,0,0,1,.921.532,1.33,1.33,0,0,1,.532.9,1.678,1.678,0,0,1-.164.751,7.052,7.052,0,0,1-6.853,4.381,1.084,1.084,0,0,1-.718-.223,1.364,1.364,0,0,1-.252-.414c-.528-1.105-1.519-1.926-2.151-2.98-.368-.628-.615-1.33-1.007-1.947a9.356,9.356,0,0,0-2.376-2.3,2.732,2.732,0,0,0-1.676-.75c-.552.024-.961.053-.757-.63A2.184,2.184,0,0,1,757.525,427.269Z" transform="translate(-623.619 -355.56)"/><path class="l" d="M757.525,427.269a5.248,5.248,0,0,1,1.873-.617,3.925,3.925,0,0,1,1.19-.085c.368.046.722.184,1.092.208a4.923,4.923,0,0,0,1.521-.319,1.828,1.828,0,0,1,1.507.112.638.638,0,0,0,.328.175.584.584,0,0,0,.339-.166,1.926,1.926,0,0,1,2.394.127c.959.9.851,2.656,1.974,3.337.311.184.707.287.888.6a2.174,2.174,0,0,0,.153.289.769.769,0,0,0,.271.184,5.374,5.374,0,0,1,.921.532,1.33,1.33,0,0,1,.532.9,1.678,1.678,0,0,1-.164.751,7.052,7.052,0,0,1-6.853,4.381,1.084,1.084,0,0,1-.718-.223,1.364,1.364,0,0,1-.252-.414c-.528-1.105-1.519-1.926-2.151-2.98-.368-.628-.615-1.33-1.007-1.947a9.356,9.356,0,0,0-2.376-2.3,2.732,2.732,0,0,0-1.676-.75c-.552.024-.961.053-.757-.63A2.184,2.184,0,0,1,757.525,427.269Z" transform="translate(-623.619 -355.56)"/><path class="k" d="M745.4,825.019a2.929,2.929,0,0,0,1.407.619,25.59,25.59,0,0,0,3.5.431l1.144.088c1.105.085,2.232.169,3.352.175a23.082,23.082,0,0,0,4.122-.357.449.449,0,0,0,.328-.158.458.458,0,0,0,.05-.26,19.942,19.942,0,0,0-.51-4.133c-.129-.552-1.129.693-1.175.737a1.139,1.139,0,0,1-.908.482,6.042,6.042,0,0,1-3.354-1.26,4.237,4.237,0,0,0-.621-.385,1.886,1.886,0,0,0-.5-.144,3.04,3.04,0,0,0-1.711.348c-.689.341-1.289.831-1.971,1.181a5.543,5.543,0,0,1-1.766.552c-.622.085-1.367.127-1.687.667h0A1.2,1.2,0,0,0,745.4,825.019Z" transform="translate(-614.218 -677.503)"/><path class="m" d="M745.071,825.256a2.908,2.908,0,0,0,1.407.617,25.306,25.306,0,0,0,3.5.433l1.144.088c1.105.085,2.232.169,3.352.175a23.08,23.08,0,0,0,4.122-.357.45.45,0,0,0,.328-.158,1.842,1.842,0,0,0,.256-.466,20.261,20.261,0,0,0-.715-4.138c-.129-.553-1.129.692-1.175.737a1.14,1.14,0,0,1-.908.483,6.043,6.043,0,0,1-3.354-1.26,4.238,4.238,0,0,0-.621-.385,1.887,1.887,0,0,0-.5-.144,4.115,4.115,0,0,0,1.949,2.133c1.239.615,2.713.309,4.1.381a.552.552,0,0,1,.289.07.585.585,0,0,1,.171.543c-.011.33-.053.718-.341.886a.991.991,0,0,1-.459.1,64.8,64.8,0,0,1-10.212-.368,5.562,5.562,0,0,1-1.658-.368,4.377,4.377,0,0,1-.965-.621C744.331,823.991,744.694,824.9,745.071,825.256Z" transform="translate(-613.887 -677.534)"/><path class="k" d="M755.6,367.764c.02.54-.35,1.589.661,1.289.6-.175.774-.888,1.538-.737s.941,1.105,1.2,1.718a3.293,3.293,0,0,0,2.383,1.926,1.433,1.433,0,0,0,.656,0,1.766,1.766,0,0,0,.976-1.122,8.553,8.553,0,0,0,.433-1.23,5.226,5.226,0,0,0,.157-.9h0a4.164,4.164,0,0,0,0-.624,5.065,5.065,0,0,0-1.689-3.2,15.116,15.116,0,0,0-3.059-2.065,4.442,4.442,0,0,0-1.127-.5,3.746,3.746,0,0,0-1.192-.05,4.179,4.179,0,0,0-1.516.355,2.123,2.123,0,0,0-.534.368,1.605,1.605,0,0,0-.462.772,2.833,2.833,0,0,0,.724,2.138A3.954,3.954,0,0,1,755.6,367.764Z" transform="translate(-621.563 -303.361)"/><path class="f" d="M670.35,443.848c.215-.553,1.123-2.052.862-2.578a6.889,6.889,0,0,0-.693,1.236C670.348,442.935,670.488,443.5,670.35,443.848Z" transform="translate(-553.336 -367.837)"/><path class="f" d="M754.595,368.849a2.82,2.82,0,0,1-.726-2.138,1.657,1.657,0,0,1,.589-.88,1.4,1.4,0,0,0-.149.368,2.823,2.823,0,0,0,.724,2.138,3.8,3.8,0,0,1,.847,1.842c.02.541-.35,1.591.663,1.289.6-.175.772-.89,1.538-.737s.939,1.105,1.2,1.718a3.291,3.291,0,0,0,2.383,1.925,1.432,1.432,0,0,0,.656,0,.968.968,0,0,0,.309-.151,1.339,1.339,0,0,1-.748.661,1.433,1.433,0,0,1-.656,0,3.3,3.3,0,0,1-2.385-1.926c-.258-.617-.427-1.556-1.2-1.718s-.936.553-1.538.737c-1.013.293-.643-.757-.663-1.289A3.732,3.732,0,0,0,754.595,368.849Z" transform="translate(-621.438 -306.291)"/><path class="f" d="M755.376,364.884a4.669,4.669,0,0,0,.311.444,5.317,5.317,0,0,0,.715.737c.155.134.315.26.483.379a7.716,7.716,0,0,0,.976.582,17.789,17.789,0,0,0,3.131,1.12l2.089.608c.256.184.726.543,1.243.906a5.215,5.215,0,0,0,.157-.9h0a4.164,4.164,0,0,0,0-.624,5.065,5.065,0,0,0-1.689-3.2,15.121,15.121,0,0,0-3.059-2.065,4.444,4.444,0,0,0-1.127-.5,3.744,3.744,0,0,0-1.192-.05,4.178,4.178,0,0,0-1.516.355,2.12,2.12,0,0,0-.534.368,2.042,2.042,0,0,0-.267.565A1.6,1.6,0,0,0,755.376,364.884Z" transform="translate(-622.437 -303.402)"/><path class="g" d="M755.38,359.752a4.64,4.64,0,0,0,.311.442,5.122,5.122,0,0,0,.715.737,5.6,5.6,0,0,0,.481.383,7.946,7.946,0,0,0,.976.584,18.09,18.09,0,0,0,3.131,1.12l2.089.606c.737.553,3.168,2.359,3.577,2.133.484-.265-2.164-2.14-2.164-2.14l-.122.092a1.939,1.939,0,0,0,.678-1.289,6.547,6.547,0,0,0,.022-2.648,3.13,3.13,0,0,0-1.519-2.09,3.633,3.633,0,0,1-1.03-.58.7.7,0,0,1-.1-.134.471.471,0,0,1-.041-.072.951.951,0,0,0-.11-.215c-.145-.168-.409-.118-.628-.09h-.07a.861.861,0,0,1-.12,0c-.785.018-1.545-.418-2.339-.418a6,6,0,0,0-2.378.845c-.155.07-.3.134-.44.2a1.9,1.9,0,0,0-1.2,1.265A1.589,1.589,0,0,0,755.38,359.752Z" transform="translate(-622.44 -298.41)"/><path class="f" d="M789.578,358.435a.38.38,0,0,0-.048.184.369.369,0,0,0,.131.282.647.647,0,0,0,.33.116,2.4,2.4,0,0,0,.258.02.691.691,0,0,0,.339-.057.416.416,0,0,0,.059-.039.7.7,0,0,1-.1-.134c-.02.015-.041.011-.118,0a1.941,1.941,0,0,1-.424-.072.488.488,0,0,1-.158-.077.463.463,0,0,1-.149-.228Z" transform="translate(-650.566 -300.254)"/><path class="f" d="M800.093,396.466a.993.993,0,0,1-.368.134,1.448,1.448,0,0,1-.28.044,1.55,1.55,0,0,1-.685-.184" transform="translate(-658.096 -331.28)"/><rect class="o" width="9.527" height="4.674" transform="translate(37.071 62.806)"/><rect class="o" width="9.527" height="4.674" transform="translate(37.071 75.928)"/><rect class="o" width="9.527" height="4.674" transform="translate(37.071 89.05)"/><rect class="o" width="9.527" height="4.674" transform="translate(37.071 102.173)"/><path class="p" d="M218.417,382.147c.265-.169.16-.623-.114-.777a1.336,1.336,0,0,0-.921-.044.368.368,0,0,0-.2-.4v-.068a.49.49,0,0,0-.107-.7,1.407,1.407,0,0,0-.858-.151,1.138,1.138,0,0,0-.368-.971.3.3,0,0,0-.2-.1c-.171,0-.228.23-.241.4a7.931,7.931,0,0,1-.221,1.328l-5.582,9.35c-.622.9,1.311-1.79.689-.891a8.051,8.051,0,0,1-1.105,1.367,5.43,5.43,0,0,1-1.243.831,1.463,1.463,0,0,1-.849-.239,3.435,3.435,0,0,1-.816-.809,15.955,15.955,0,0,1-1.317-1.958,2.457,2.457,0,0,1-.3-.7,6.429,6.429,0,0,0-.155-1.171,1.817,1.817,0,0,0-.239-.381l-.385-.514a.089.089,0,0,1,0-.022,2.9,2.9,0,0,0-1.234-1.842,3.35,3.35,0,0,0-1.658-.956c-.346-.044-.7.022-1.046-.022-.282-.035-.553-.142-.829-.184a3.642,3.642,0,0,0-.814-.017l-.116-.1a3.234,3.234,0,0,0,1.455-1.223c.267-.431.411-.921.658-1.368.3-.54.737-.985,1.085-1.5a5.557,5.557,0,0,0,.626-4.236,10.184,10.184,0,0,0-1.985-3.89,7.648,7.648,0,0,0-7.347-2.623c-.184.028-.368.063-.543.1a6.886,6.886,0,0,0-1.335.427,3.387,3.387,0,0,0-1.457,1.136,2.465,2.465,0,0,0-.254.471,2.7,2.7,0,0,0-.123.387,4,4,0,0,0-.066,1.216c.011.138.026.278.042.416a1.6,1.6,0,0,0,.026.208c.018.138.039.278.057.416.029.208.057.416.077.621a3.884,3.884,0,0,1,.022.438v.109a1.725,1.725,0,0,1-.048.322,1.66,1.66,0,0,1-.053.169,2.137,2.137,0,0,1-.254.468,6.26,6.26,0,0,1-.455.552l-.157.184L188,375.4a6.43,6.43,0,0,0-.562.761,3.615,3.615,0,0,0-.223.416,3.04,3.04,0,0,0-.125.335,2.411,2.411,0,0,0-.1.466c0,.041-.009.079-.011.12a2.012,2.012,0,0,0,0,.236,1.625,1.625,0,0,0,.026.232,1.78,1.78,0,0,0,.136.448c0,.02.02.041.029.059s.02.039.029.059.039.079.057.118a.857.857,0,0,1,.059.184v.064a.423.423,0,0,1,0,.068.737.737,0,0,1-.265.459c-.035.033-.074.064-.11.1l-.057.046-.116.092-.112.09a2.21,2.21,0,0,0-.271.271,9.981,9.981,0,0,0-3.009.295,4.108,4.108,0,0,1-1.081.2.538.538,0,0,1-.468-.2.707.707,0,0,1-.048-.429,3.7,3.7,0,0,0-.287-1.763.991.991,0,0,0-.289-.42.409.409,0,0,0-.477-.026,4.494,4.494,0,0,1-.123,3,9.892,9.892,0,0,1-.693,1.3c-.411.7-.641,1.5-1.006,2.221a31.287,31.287,0,0,1,.532,4.286,19.806,19.806,0,0,0,1.129,3.868,6.219,6.219,0,0,0,1.5,2.613,1.372,1.372,0,0,0,.921.4,1.627,1.627,0,0,0,.724-.273,2.819,2.819,0,0,0,.61-.449,1.389,1.389,0,0,0,.184-.239.9.9,0,0,0,.134.339c.438-.945.921-1.869,1.437-2.774a2.376,2.376,0,0,0,.431-.295c.009.031.017.064.024.1-.022.087-.044.175-.068.262s-.05.166-.076.247-.037.122-.057.184-.048.144-.074.216l-.088.234c-.022.055-.042.111-.066.166-.055.134-.112.269-.175.4a1.216,1.216,0,0,0,.153.063l.035.011a1.333,1.333,0,0,0,.142.035h.052l.107.011h.168a1.691,1.691,0,0,0,.379-.066c.024.1.046.193.07.289a10.3,10.3,0,0,1,.346,1.972,15.478,15.478,0,0,0,.046,2.265c.076.385.225.755.278,1.146a4.761,4.761,0,0,1-.02,1.105l-.25,2.648a2.264,2.264,0,0,1-.227.934c-.125.215-.326.462-.2.676a4.4,4.4,0,0,1,.632-.122c-.077.282-.147.564-.214.847a1.49,1.49,0,0,0-.05.654,4.148,4.148,0,0,1,.184.6,1.931,1.931,0,0,1-.317.908,3.146,3.146,0,0,0,.355,2.394l.991,2.249q.405.921.814,1.842c.241.553.484,1.105.716,1.658a53.687,53.687,0,0,1,2.593,7.774.91.91,0,0,0,.133.337c.138.184.387.238.589.35a1.1,1.1,0,0,1,.122,1.755c.116,1.352-.9,2.658-1.418,3.91-1.2,2.879-.983,6.122-1.4,9.209l.466-.273a.615.615,0,0,1,.151.1c-.011.057-.022.114-.037.173a2.74,2.74,0,0,1-.3.748,4.008,4.008,0,0,0-.748,1.418,8.66,8.66,0,0,0,.059.972v.09c-.041-.04-.1-.037-.2.037a1.182,1.182,0,0,0-.293.553c-.081.23-.145.466-.21.7l-.227.832a9.654,9.654,0,0,1-.486,1.462,6.147,6.147,0,0,0-.431.995,3.073,3.073,0,0,0-.076.853,2.593,2.593,0,0,0,.118.807,2.009,2.009,0,0,0,1.177,1.118,5.526,5.526,0,0,0,1.635.308,1.4,1.4,0,0,0,.429-.011,1.178,1.178,0,0,0,.418-.217,3.465,3.465,0,0,0,1.217-2.523,3.651,3.651,0,0,0-.1-.573c.046-1.022-.1-2.05-.024-3.068.015.116.033.23.05.346l.184,1.144a.241.241,0,0,0-.063-.107,2.635,2.635,0,0,0-.066,1.311,7.676,7.676,0,0,0,.368,1.271l.245.683a1.225,1.225,0,0,0,1.144.965,9.268,9.268,0,0,0,2.063.352.473.473,0,0,0,.273-.05,1.569,1.569,0,0,0,.122-.1,1.121,1.121,0,0,1,.2-.116,1.3,1.3,0,0,0,.632-.748,1.184,1.184,0,0,0-.116-.969,2.224,2.224,0,0,0-.28-.339l-1.228-1.3a7.05,7.05,0,0,0-.6-.637.225.225,0,0,0-.2-.066,6.328,6.328,0,0,1-.232-2.722c.017-.273.166-.84.227-1.3a2.076,2.076,0,0,0,.652-.352,1,1,0,0,0,.368-.553,94.881,94.881,0,0,1,2.56-9.325c.092-.3.184-.61.274-.921l.114-.39c.029-.107.063-.214.092-.32.052-.184.1-.359.149-.54.015-.048.028-.1.041-.145a.174.174,0,0,0,0-.029c.061-.221.118-.442.175-.663l.066-.254c.072-.282.14-.565.208-.847.009-.039.018-.079.026-.12a.519.519,0,0,0-.02-.3h0a.5.5,0,0,0-.072-.1c-.018-.022-.041-.046-.063-.068l-.068-.076a.679.679,0,0,1-.125-.236v-.258c0-.085-.011-.184-.017-.274a2.8,2.8,0,0,1,.081-.357c.02-.07.044-.14.066-.21s.053-.184.083-.262a.654.654,0,0,0,.164-.444c.111-.278.232-.553.368-.818a2.488,2.488,0,0,0,.33-.884,3.534,3.534,0,0,0-.107-.84,7.1,7.1,0,0,1,.759-3.418,15.175,15.175,0,0,0,.669-2.508,5.315,5.315,0,0,1,.553-1.914,2.871,2.871,0,0,0,.295-.508,2.042,2.042,0,0,0,.079-.58,6.362,6.362,0,0,1,.565-2.3,1.352,1.352,0,0,0,.147-.446.183.183,0,0,0,0-.031V409.7l.092-.013a12.215,12.215,0,0,0,.206-3.092,4.728,4.728,0,0,0-1.58-2.985h.018a.97.97,0,0,0,.451-.877,1.705,1.705,0,0,0-.635-1.337.65.65,0,0,1-.215-.221.672.672,0,0,1-.026-.291,1.484,1.484,0,0,0-.921-1.374.339.339,0,0,1-.149-.087.368.368,0,0,1-.037-.262,1.608,1.608,0,0,0-.775-1.473,2.525,2.525,0,0,0,.033-1.166.87.87,0,0,0-.853-.663c.317-.864-.133-1.825-.013-2.737.052-.39.208-.766.228-1.16a2.389,2.389,0,0,1,.1-1.057c.175-.32.588-.553.481-.891-.046-.147-.184-.247-.243-.39s.184-.368.319-.28c.061-.046.122-.1.184-.146a3.014,3.014,0,0,0,.109.54c.087.295.223.573.313.866a7.171,7.171,0,0,0,.409,1.343c.368.656,1.118.98,1.634,1.525.3.319.518.711.829,1.022a4.585,4.585,0,0,0,.774.58l1.658,1.076a1.879,1.879,0,0,0,.567.282.969.969,0,0,0,1.142-.821,1.087,1.087,0,0,1-.409-.252.152.152,0,0,0,.07-.011,2.623,2.623,0,0,0,1.068-.567,14.473,14.473,0,0,0,2.862-3.49c.869-1.324,5.057-4.829,5.057-4.829V385.04a5.129,5.129,0,0,0,1.394-1.186,1.538,1.538,0,0,0,.35-.908.8.8,0,0,0-.488-.8ZM183.6,385.552q-.122.774-.3,1.54a14.963,14.963,0,0,1-.5,1.739c-.022.059-.044.12-.064.184-.061-.111-.12-.221-.173-.333-.136-.282-.245-.576-.354-.869l-.692-1.869a.863.863,0,0,1-.046-.746.836.836,0,0,1,.4-.3,7.9,7.9,0,0,1,1.519-.516,4.455,4.455,0,0,0,.49-.129A7.305,7.305,0,0,0,183.6,385.552Zm.766-2.332a.282.282,0,0,1,0-.271.6.6,0,0,1,.184-.125.369.369,0,0,0,.052-.037Zm1.437-2.026a3.579,3.579,0,0,0-.553.567,5.817,5.817,0,0,0-.475.737.534.534,0,0,0-.2-.543,1.122,1.122,0,0,1-.184-.122.378.378,0,0,1,.076-.529,1.1,1.1,0,0,1,.552-.184l.827-.122c-.011.053-.028.122-.046.186Zm7.761,60.149a3.022,3.022,0,0,0-.048-.737c.1,0,.2,0,.306-.009Z" transform="translate(-152.405 -307.618)"/><path class="n" d="M214.3,370.429c-1.438.23-3.039.785-3.589,2.133a6.9,6.9,0,0,0,.013,3.262,2.494,2.494,0,0,1-.031.867,3.041,3.041,0,0,1-.761,1.193,6.345,6.345,0,0,0-1.1,1.534,2.25,2.25,0,0,0-.074,1.842,1.354,1.354,0,0,1,.184.483c.017.368-.368.611-.663.851-1.079.893-1.033,2.521-1.042,3.925a19.846,19.846,0,0,1-1.877,8.288,2.534,2.534,0,0,0,2.836-.368,9.471,9.471,0,0,1-.645,1.856,2.037,2.037,0,0,0,2.473-1.19,21.594,21.594,0,0,0,.838-2.921c.326-.961.9-1.8,1.151-2.763a2.546,2.546,0,0,1,.328-.921,2.413,2.413,0,0,1,.575-.49,5.606,5.606,0,0,0,2.026-2.763,11.223,11.223,0,0,0,3.4.392,3.774,3.774,0,0,0,2.906-1.595c.267-.431.411-.921.658-1.367.3-.54.737-.985,1.085-1.5a5.552,5.552,0,0,0,.624-4.236,10.164,10.164,0,0,0-1.984-3.886A7.619,7.619,0,0,0,214.3,370.429Z" transform="translate(-173.984 -309.951)"/><path class="g" d="M200.386,458.074q-.122.774-.295,1.536a14.825,14.825,0,0,1-.5,1.737,1.658,1.658,0,0,0-.157.8,1.437,1.437,0,0,0,.193.475c.656,1.166,1.542,2.293,1.617,3.63a1.915,1.915,0,0,0,.184.969q.762-1.635,1.68-3.192a9.881,9.881,0,0,0,1.536-3.429,6.494,6.494,0,0,0-.024-1.763,3.818,3.818,0,0,0-.632-1.853c-.435-.569-1.626-1.425-2.394-1.249C200.688,455.949,200.5,457.343,200.386,458.074Z" transform="translate(-169.151 -379.62)"/><path class="i" d="M330.276,445.606a6.009,6.009,0,0,0,3.523-2.717l2.026-2.923a5.274,5.274,0,0,0,1.076-2.258,7.439,7.439,0,0,0,2.026-4.59c.015-.171.072-.4.243-.4a.306.306,0,0,1,.2.094,1.138,1.138,0,0,1,.368.971,1.342,1.342,0,0,1,.856.149c.239.171.3.6.046.737a.368.368,0,0,1,.258.418,1.335,1.335,0,0,1,.921.042c.273.155.379.608.114.777a.8.8,0,0,1,.512.768,1.534,1.534,0,0,1-.35.906c-.775,1.041-2.147,1.462-3.046,2.394a7.236,7.236,0,0,0-.794,1.061L335.647,445a14.283,14.283,0,0,1-2.862,3.486,2.627,2.627,0,0,1-1.066.567,1.182,1.182,0,0,1-1.12-.311,1.836,1.836,0,0,1-.326-1.116C330.2,446.969,330.32,446.279,330.276,445.606Z" transform="translate(-275.873 -360.862)"/><path class="n" d="M262.181,792.014a2.233,2.233,0,0,1,.278.339,1.18,1.18,0,0,1,.118.967,1.313,1.313,0,0,1-.632.748,1.116,1.116,0,0,0-.2.114,1.554,1.554,0,0,1-.122.1.491.491,0,0,1-.273.052,9.484,9.484,0,0,1-2.063-.352,1.655,1.655,0,0,1-.851-.4,1.635,1.635,0,0,1-.291-.565l-.245-.681a7.89,7.89,0,0,1-.368-1.269,2.626,2.626,0,0,1,.066-1.309.394.394,0,0,1,.09.267,2.967,2.967,0,0,0,.525,1.271,1.018,1.018,0,0,0,.818.514,7.632,7.632,0,0,0,1.308.168.392.392,0,0,0,.184-.022.319.319,0,0,0,.149-.184.794.794,0,0,0,0-.538c-.116-.332-.442-.553-.6-.866-.114-.234.046-.49.282-.293a7.289,7.289,0,0,1,.6.635Z" transform="translate(-216.506 -652.146)"/><path class="i" d="M259.483,765.345a5.187,5.187,0,0,0,.483,3.2c.215.331.5.61.751.921a1.094,1.094,0,0,1,.269.553.851.851,0,0,1-.737.821,2.482,2.482,0,0,1-1.188-.171,2.175,2.175,0,0,1-1.774-2.33l-.245-1.571a4.985,4.985,0,0,1-.088-1.144,5.062,5.062,0,0,1,.308-1.236l.4-1.181a.552.552,0,0,1,.184-.293.512.512,0,0,1,.306-.057c.387.02,1.357.16,1.545.569C259.855,763.789,259.51,764.922,259.483,765.345Z" transform="translate(-216.073 -630.199)"/><path class="l" d="M259.483,765.345a5.187,5.187,0,0,0,.483,3.2c.215.331.5.61.751.921a1.094,1.094,0,0,1,.269.553.851.851,0,0,1-.737.821,2.482,2.482,0,0,1-1.188-.171,2.175,2.175,0,0,1-1.774-2.33l-.245-1.571a4.985,4.985,0,0,1-.088-1.144,5.062,5.062,0,0,1,.308-1.236l.4-1.181a.552.552,0,0,1,.184-.293.512.512,0,0,1,.306-.057c.387.02,1.357.16,1.545.569C259.855,763.789,259.51,764.922,259.483,765.345Z" transform="translate(-216.073 -630.199)"/><path class="n" d="M270.212,587.5a.185.185,0,0,1,0,.031,1.379,1.379,0,0,1-.147.446,6.38,6.38,0,0,0-.565,2.293,2.025,2.025,0,0,1-.079.578,2.868,2.868,0,0,1-.295.508,5.469,5.469,0,0,0-.552,1.912,14.921,14.921,0,0,1-.669,2.5,7.121,7.121,0,0,0-.757,3.415,3.5,3.5,0,0,1,.107.838,2.489,2.489,0,0,1-.33.884c-.136.265-.258.538-.368.816s-.223.606-.313.921a1.226,1.226,0,0,0,.068,1.123,1.441,1.441,0,0,1,.2.249.656.656,0,0,1,0,.424q-.212.9-.457,1.79c-.125.468-.258.932-.4,1.4-1.009,3.392-2.153,6.75-2.833,10.225-.1.5-.737.858-1.236.967a1.624,1.624,0,0,1-1.42-.379l-.1-.1a2.953,2.953,0,0,1-.553-2.2c.184-3.575,1.976-6.847,2.833-10.323a19.775,19.775,0,0,0,.553-3.833c.2-4.317.28-8.877-.939-13.023a3.362,3.362,0,0,1-.1-2.61,2.614,2.614,0,0,1,1.35-.987,8.686,8.686,0,0,1,6.735.171,2.426,2.426,0,0,1-.009.26,2.639,2.639,0,0,0,.134,1.19A1.485,1.485,0,0,1,270.212,587.5Z" transform="translate(-218.163 -484.908)"/><path class="n" d="M231.948,776.531l-.227.831a9.587,9.587,0,0,1-.486,1.462,6.223,6.223,0,0,0-.431.993,3.067,3.067,0,0,0-.074.851,2.539,2.539,0,0,0,.118.807,2,2,0,0,0,1.175,1.116,5.524,5.524,0,0,0,1.635.308,1.4,1.4,0,0,0,.429-.011,1.187,1.187,0,0,0,.416-.217,3.461,3.461,0,0,0,1.217-2.519,3.129,3.129,0,0,0-.129-.643c-.059-.079-.632.245-.387.514.368.4-.7.193-1.24.16a4.991,4.991,0,0,1-.7-.116l-.875-.184c-.285-.063-.615-.16-.716-.435s.12-.6.293-.866a5.67,5.67,0,0,0,.68-2.405c.02-.164.225-1.225-.2-.9a1.182,1.182,0,0,0-.293.553C232.077,776.061,232.013,776.3,231.948,776.531Z" transform="translate(-194.679 -640.281)"/><path class="l" d="M266.307,675.922a1.242,1.242,0,0,1-.068-1.123c.041-.14.085-.28.131-.418l-3.431-1.16c-.013.308-.026.615-.04.921a19.81,19.81,0,0,1-.553,3.834c-.856,3.474-2.658,6.746-2.833,10.314a2.857,2.857,0,0,0,.656,2.3,1.622,1.622,0,0,0,1.42.379c.5-.109,1.138-.468,1.236-.969.68-3.474,1.821-6.831,2.833-10.225q.473-1.58.853-3.186a.65.65,0,0,0,0-.422A1.291,1.291,0,0,0,266.307,675.922Z" transform="translate(-218.156 -557.069)"/><path class="i" d="M235.734,755.561a3.986,3.986,0,0,0-.748,1.416,8.611,8.611,0,0,0,.059.971,3.072,3.072,0,0,1-.142.792q-.5,1.81-1.155,3.571a.973.973,0,0,0-.09.484.843.843,0,0,0,.567.565,6,6,0,0,0,2.624.289,1.375,1.375,0,0,0,.737-.171,1.287,1.287,0,0,0,.416-1.033c.061-1.105-.127-2.232,0-3.341.044-.4.129-.8.193-1.2a3.53,3.53,0,0,0-.052-1.676,3.917,3.917,0,0,0-.628-1.055,3.293,3.293,0,0,0-.873-.869c-.1-.063-.4-.252-.506-.133-.053.061-.029.223-.039.3a2.785,2.785,0,0,1-.061.346A2.827,2.827,0,0,1,235.734,755.561Z" transform="translate(-197.069 -623.077)"/><path class="l" d="M263.368,588.8a.941.941,0,0,0-.063.781c.114.475.3.921.459,1.392a19.245,19.245,0,0,1,.589,2.531,7.4,7.4,0,0,1,.324,2.413,17.245,17.245,0,0,1,1.823,5.709c.07.512-1.068,1.175-1.046,1.693.042,1.026.862,1.105.256,1.93-.029.041.227.958.184,1-.247.3-.553.532-.823.81a6.238,6.238,0,0,0-.867,1.273c-1.565,2.823-3.825,6.028-3.131,9.181a.553.553,0,0,1-.3.567,1.5,1.5,0,0,1-.661.153h-.109a2.953,2.953,0,0,1-.553-2.2c.184-3.575,1.976-6.847,2.833-10.323a19.776,19.776,0,0,0,.553-3.833c.2-4.317.28-8.877-.939-13.023a3.362,3.362,0,0,1-.1-2.61,2.614,2.614,0,0,1,1.35-.987,8.686,8.686,0,0,1,6.735.171,2.425,2.425,0,0,1-.009.26,2.639,2.639,0,0,0,.134,1.19,1.484,1.484,0,0,1,.134.517c0,.011.063-.694.061-.685-1.4.2-2.864,1.12-4.265,1.32a9.8,9.8,0,0,0-2.14.471A.96.96,0,0,0,263.368,588.8Z" transform="translate(-218.105 -484.819)"/><path class="n" d="M224.5,559.857q-.285.9-.5,1.816a1.509,1.509,0,0,0-.052.652,3.733,3.733,0,0,1,.184.6,1.928,1.928,0,0,1-.315.908,3.122,3.122,0,0,0,.354,2.383l.991,2.249.814,1.842c.241.553.484,1.1.716,1.648a53.542,53.542,0,0,1,2.591,7.763.938.938,0,0,0,.133.339c.138.184.387.236.589.348a1.1,1.1,0,0,1,.122,1.753c.116,1.35-.9,2.654-1.418,3.9-1.2,2.875-.982,6.115-1.394,9.209l.466-.271c.448.2.431.838.672,1.267a2.029,2.029,0,0,0,1.982.687,1.509,1.509,0,0,0,.661-.153.553.553,0,0,0,.3-.567c-.7-3.153,1.564-6.356,3.131-9.183a6.131,6.131,0,0,1,.867-1.271c.265-.28.576-.516.823-.81a4.469,4.469,0,0,0,.737-3.076,17.229,17.229,0,0,0-1.96-7.264,7.591,7.591,0,0,0-.324-2.411,19.092,19.092,0,0,0-.587-2.523c-.155-.466-.344-.921-.459-1.394a.743.743,0,0,1,.5-1.066,9.854,9.854,0,0,1,2.144-.486l4.818-.693a12.188,12.188,0,0,0,.206-3.089,4.752,4.752,0,0,0-3.4-3.974.722.722,0,0,0-.63.041A25.08,25.08,0,0,0,224.5,559.857Z" transform="translate(-188.939 -463.53)"/><path class="i" d="M236.472,413.794a2.372,2.372,0,0,1-.212,1.379,2.171,2.171,0,0,1-.553.606,4.127,4.127,0,0,1-1.588.79,1.686,1.686,0,0,0-.95.414c-.339.409-.112,1.026.184,1.473a3.849,3.849,0,0,0,2.083,1.722c.711.193,1.473.074,2.2.2.527.09,1.022.308,1.542.433a4.554,4.554,0,0,0,4.183-1.168,5.969,5.969,0,0,1-1.972-2.111,3,3,0,0,1-.151-2.026,4.515,4.515,0,0,0,.473-1.971,2.05,2.05,0,0,0-1.448-1.361,9.321,9.321,0,0,0-1.814-.368c-.341-.046-2.5-.523-2.632-.287-.076.133.368.921.427,1.094A4.125,4.125,0,0,1,236.472,413.794Z" transform="translate(-196.534 -343.515)"/><circle class="i" cx="4.376" cy="4.376" r="4.376" transform="translate(38.275 63.101)"/><path class="g" d="M215.173,441.652l2.967.5a11.231,11.231,0,0,0,2.21.223,6.152,6.152,0,0,1,1.221,0c.28.046.552.153.831.184.346.044.7-.022,1.044.022a3.3,3.3,0,0,1,1.658.954,2.914,2.914,0,0,1,1.232,1.842.515.515,0,0,1-.035.254.746.746,0,0,1-.219.23,6.9,6.9,0,0,0-1.24,1.705,6.619,6.619,0,0,1-1.473,1.589c-.129-.083-.368.136-.319.278s.2.243.243.39c.1.335-.309.582-.481.89a2.421,2.421,0,0,0-.1,1.057c-.02.392-.184.768-.228,1.158-.12.912.33,1.871.013,2.733a.865.865,0,0,1,.853.663,2.494,2.494,0,0,1-.035,1.164,1.6,1.6,0,0,1,.775,1.464.352.352,0,0,0,.039.262.369.369,0,0,0,.149.087,1.473,1.473,0,0,1,.921,1.372.662.662,0,0,0,.028.289.649.649,0,0,0,.214.223,1.705,1.705,0,0,1,.637,1.333.964.964,0,0,1-.453.877,8.025,8.025,0,0,1-1.993.593,17.084,17.084,0,0,1-1.928.341,17.36,17.36,0,0,1-1.8.057l-3.971-.017c-1.105,0-2.232,0-3.345-.083a9.443,9.443,0,0,0-3.107.072c-.125-.212.076-.46.2-.674a2.27,2.27,0,0,0,.227-.934l.25-2.645a4.865,4.865,0,0,0,.018-1.105c-.053-.389-.2-.757-.276-1.144a15.4,15.4,0,0,1-.046-2.262,10.6,10.6,0,0,0-.346-1.971l-.774-3.23a11.556,11.556,0,0,0-.387-1.623q-.91-2.332-1.9-4.625a.488.488,0,0,1,.035-.411l.656-1.175a7.456,7.456,0,0,1,.6-.958,3.772,3.772,0,0,1,2.21-1.359,3.9,3.9,0,0,1,2.578.381c.306.164.589.368.9.521A3.635,3.635,0,0,0,215.173,441.652Z" transform="translate(-174.839 -366.943)"/><path class="g" d="M301.645,463.85l1.035,1.378a1.916,1.916,0,0,1,.239.381,6.334,6.334,0,0,1,.155,1.171,2.467,2.467,0,0,0,.3.7,15.848,15.848,0,0,0,1.315,1.956,3.4,3.4,0,0,0,.818.807,1.341,1.341,0,0,0,1.105.2.683.683,0,0,0-.368.328,4,4,0,0,0-.256,2.56,2.677,2.677,0,0,0,.287.838,1.254,1.254,0,0,0,.659.569.971.971,0,0,1-1.142.82,1.922,1.922,0,0,1-.567-.282l-1.658-1.074a4.777,4.777,0,0,1-.772-.58c-.309-.309-.527-.7-.829-1.02-.514-.553-1.269-.869-1.634-1.523a7.03,7.03,0,0,1-.407-1.343c-.092-.293-.227-.569-.315-.864a3.871,3.871,0,0,1,.341-2.763A11.3,11.3,0,0,1,301.645,463.85Z" transform="translate(-250.776 -386.259)"/><path class="n" d="M220.957,375.379a5.761,5.761,0,0,0-1.54-1.6,5.247,5.247,0,0,0-2.775-1.175,3,3,0,0,0-1.251.2c-.018-1.236-.326-2.059-1.1-1.934-1.438.23-3.039.785-3.59,2.133a6.9,6.9,0,0,0,.013,3.262,2.494,2.494,0,0,1-.031.867,3.041,3.041,0,0,1-.761,1.193,6.346,6.346,0,0,0-1.1,1.534,2.25,2.25,0,0,0-.074,1.842,1.354,1.354,0,0,1,.184.483c.017.368-.368.611-.663.851-1.079.893-1.033,2.521-1.042,3.925a19.847,19.847,0,0,1-1.877,8.288,2.534,2.534,0,0,0,2.836-.368,9.473,9.473,0,0,1-.645,1.856,2.037,2.037,0,0,0,2.473-1.19,21.6,21.6,0,0,0,.838-2.921c.326-.961.9-1.8,1.151-2.763a2.546,2.546,0,0,1,.328-.921,2.413,2.413,0,0,1,.575-.49c.943-.676-.444-5.8-.076-6.9.553.122,1.554-2.521,2.127-5.208a2.721,2.721,0,0,0,1.245.123,1.587,1.587,0,0,1,.446-.031,1.186,1.186,0,0,1,.389.158,9.562,9.562,0,0,0,1.324.681,7.5,7.5,0,0,0,3.006.256A2.989,2.989,0,0,0,220.957,375.379Z" transform="translate(-173.984 -310.396)"/><g class="q" transform="translate(31.38 60.465)"><path d="M205.89,395.249a19.874,19.874,0,0,0,1.877-8.288c0-1.4-.039-3.031,1.042-3.925.287-.239.68-.477.661-.851a1.315,1.315,0,0,0-.184-.483,2.259,2.259,0,0,1,.072-1.842,6.4,6.4,0,0,1,1.1-1.534,3.085,3.085,0,0,0,.762-1.193,2.541,2.541,0,0,0,.031-.867,6.88,6.88,0,0,1-.013-3.262c.532-1.306,2.048-1.866,3.45-2.109a.737.737,0,0,0-.368-.024c-1.438.23-3.039.785-3.59,2.133a6.9,6.9,0,0,0,.013,3.262,2.493,2.493,0,0,1-.031.867,3.04,3.04,0,0,1-.761,1.193,6.346,6.346,0,0,0-1.1,1.534,2.25,2.25,0,0,0-.074,1.842,1.353,1.353,0,0,1,.184.483c.017.368-.368.611-.663.851-1.079.893-1.033,2.521-1.042,3.925a19.846,19.846,0,0,1-1.877,8.288,2.453,2.453,0,0,0,1.391.26A2.381,2.381,0,0,1,205.89,395.249Z" transform="translate(-205.38 -370.859)"/><path d="M217.766,503.126a9.465,9.465,0,0,0,.643-1.856,2.333,2.333,0,0,1-.622.413,9.373,9.373,0,0,1-.536,1.444,1.363,1.363,0,0,0,.845.109A1.358,1.358,0,0,1,217.766,503.126Z" transform="translate(-215.064 -477.252)"/><path d="M262.62,380.508a2.947,2.947,0,0,1,.832-.2l-.1-.009a2.949,2.949,0,0,0-.737.055C262.616,380.408,262.62,380.456,262.62,380.508Z" transform="translate(-252.076 -378.561)"/><path d="M269.4,401.888a9.7,9.7,0,0,1-1.326-.681,1.154,1.154,0,0,0-.389-.158,1.382,1.382,0,0,0-.407.026,1.509,1.509,0,0,1,.282.133,9.564,9.564,0,0,0,1.324.681,5.963,5.963,0,0,0,2.219.287A5.227,5.227,0,0,1,269.4,401.888Z" transform="translate(-255.88 -395.484)"/><path d="M260.206,400.57c-.009.039-.018.077-.026.118a2.648,2.648,0,0,0,.65.017,2.8,2.8,0,0,1-.624-.134Z" transform="translate(-250.087 -395.098)"/></g><path class="i" d="M185.006,441.067a1.593,1.593,0,0,1-.429,1.278,2.8,2.8,0,0,1-.61.448,1.6,1.6,0,0,1-.724.273,1.363,1.363,0,0,1-.921-.4,6.172,6.172,0,0,1-1.494-2.61A19.558,19.558,0,0,1,179.7,436.2a31.49,31.49,0,0,0-.53-4.28c.368-.724.593-1.521,1-2.219a10.09,10.09,0,0,0,.692-1.3,4.466,4.466,0,0,0,.114-2.993.405.405,0,0,1,.479.026.974.974,0,0,1,.289.418,3.711,3.711,0,0,1,.285,1.759.711.711,0,0,0,.052.431.553.553,0,0,0,.468.2,4.112,4.112,0,0,0,1.079-.2,10.073,10.073,0,0,1,3.328-.274,1.593,1.593,0,0,1,.648.158.606.606,0,0,1,.335.543l-2.661.389a1.09,1.09,0,0,0-.553.184.368.368,0,0,0-.077.527,1.235,1.235,0,0,0,.184.123.553.553,0,0,1-.022.875.553.553,0,0,0-.184.125c-.109.146.037.339.081.516a.648.648,0,0,1-.319.663,2.25,2.25,0,0,1-.737.249,7.824,7.824,0,0,0-1.519.518.821.821,0,0,0-.4.295.889.889,0,0,0,.046.746l.692,1.868c.109.293.217.586.354.866.184.368.394.711.575,1.074a11.262,11.262,0,0,1,.433,1.046C184.191,439.487,184.889,440.058,185.006,441.067Z" transform="translate(-152.617 -354.842)"/><path class="i" d="M376.554,440.36a.827.827,0,0,0-.3.444.184.184,0,0,0,.07.2.2.2,0,0,0,.123,0,1.169,1.169,0,0,0,.534-.254.553.553,0,0,0-.16.129.184.184,0,0,0-.02.2.253.253,0,0,0,.175.092,1.708,1.708,0,0,0,.772-.037,1.032,1.032,0,0,0-.322.184.427.427,0,0,0-.144.332.158.158,0,0,0,.057.125.232.232,0,0,0,.085.029,2.079,2.079,0,0,0,.716,0,.368.368,0,0,0,.3-.184.451.451,0,0,0-.07-.346,1.921,1.921,0,0,1-.184-.877.355.355,0,0,0-.026-.184.322.322,0,0,0-.16-.116,1.341,1.341,0,0,0-.88-.175A1.817,1.817,0,0,0,376.554,440.36Z" transform="translate(-313.395 -366.71)"/><path class="g" d="M370.232,410.387l-8.789,4.755a.184.184,0,0,0,.013.328l1.5.565a.352.352,0,0,1,.2.184l1.166,2.394c.022.107.217.134.219.028l-.184-1.984a.709.709,0,0,1,.16-.4l4.556-4.464a.107.107,0,0,1,.1-.029.1.1,0,0,1,.057.168l-3.921,4.816a.876.876,0,0,0-.155.4l-.234,1.713c.018.149.136.206.23.072l.847-.993a.184.184,0,0,1,.247-.042l2.182,1.589a.184.184,0,0,0,.276-.109l1.794-8.789a.184.184,0,0,0-.258-.2Z" transform="translate(-301.244 -342.628)"/><ellipse class="g" cx="10.953" cy="2.107" rx="10.953" ry="2.107" transform="translate(157.948 145.86)"/><ellipse class="k" cx="1.274" cy="1.669" rx="1.274" ry="1.669" transform="translate(167.444 145.403)"/><ellipse class="k" cx="1.274" cy="1.669" rx="1.274" ry="1.669" transform="translate(167.444 143.364)"/><ellipse class="k" cx="1.274" cy="1.669" rx="1.274" ry="1.669" transform="translate(167.444 141.324)"/><ellipse class="k" cx="1.274" cy="1.669" rx="1.274" ry="1.669" transform="translate(167.444 139.283)"/><ellipse class="k" cx="1.274" cy="1.669" rx="1.274" ry="1.669" transform="translate(167.444 137.242)"/><ellipse class="k" cx="1.274" cy="1.669" rx="1.274" ry="1.669" transform="translate(167.444 135.204)"/><ellipse class="k" cx="1.274" cy="1.669" rx="1.274" ry="1.669" transform="translate(167.444 133.163)"/><path class="g" d="M928.65,655.014a6.452,6.452,0,0,0,.475-.7l-3.352-.553,3.625.028a6.127,6.127,0,0,0,.116-4.84l-4.86,2.521,4.483-3.295a6.109,6.109,0,1,0-10.089,6.835,6.314,6.314,0,0,0-.7,1.105l4.35,2.26-4.637-1.556a6.113,6.113,0,0,0,.984,5.735,6.107,6.107,0,1,0,9.6,0,6.114,6.114,0,0,0,0-7.551Z" transform="translate(-755.16 -534.144)"/><path class="f" d="M917.78,718.952a6.077,6.077,0,0,0,1.306,3.776,6.107,6.107,0,1,0,9.6,0C929.506,721.688,917.78,718.267,917.78,718.952Z" transform="translate(-755.196 -594.305)"/><ellipse class="g" cx="6.253" cy="1.203" rx="6.253" ry="1.203" transform="translate(59.691 141.125)"/><ellipse class="k" cx="0.727" cy="0.952" rx="0.727" ry="0.952" transform="translate(65.321 140.863)"/><ellipse class="k" cx="0.727" cy="0.952" rx="0.727" ry="0.952" transform="translate(65.321 139.699)"/><ellipse class="k" cx="0.727" cy="0.952" rx="0.727" ry="0.952" transform="translate(65.321 138.534)"/><ellipse class="k" cx="0.727" cy="0.952" rx="0.727" ry="0.952" transform="translate(65.321 137.37)"/><ellipse class="k" cx="0.727" cy="0.952" rx="0.727" ry="0.952" transform="translate(65.321 136.204)"/><ellipse class="k" cx="0.727" cy="0.952" rx="0.727" ry="0.952" transform="translate(65.321 135.04)"/><ellipse class="k" cx="0.727" cy="0.952" rx="0.727" ry="0.952" transform="translate(65.321 133.876)"/><path class="g" d="M375.516,706.3a3.462,3.462,0,0,1-.271-.4l1.912-.313-2.068.015a3.5,3.5,0,0,1-.066-2.763l2.775,1.44-2.56-1.882A3.488,3.488,0,1,1,381,706.3a3.379,3.379,0,0,1,.4.635l-2.483,1.289,2.648-.884a3.517,3.517,0,0,1,.184,1.12,13.818,13.818,0,0,0-1.123,6.871,7.059,7.059,0,0,1-5.106-9.028Z" transform="translate(-312.193 -579.438)"/><path class="f" d="M381.744,742.831a13.817,13.817,0,0,0-1.123,6.871,3.486,3.486,0,0,1-5.106-4.716C375.048,744.393,381.744,742.439,381.744,742.831Z" transform="translate(-312.193 -613.818)"/><ellipse class="g" cx="4.205" cy="0.809" rx="4.205" ry="0.809" transform="translate(15.165 131.846)"/><ellipse class="k" cx="0.49" cy="0.641" rx="0.49" ry="0.641" transform="translate(18.952 131.671)"/><ellipse class="k" cx="0.49" cy="0.641" rx="0.49" ry="0.641" transform="translate(18.952 130.889)"/><ellipse class="k" cx="0.49" cy="0.641" rx="0.49" ry="0.641" transform="translate(18.952 130.104)"/><ellipse class="k" cx="0.49" cy="0.641" rx="0.49" ry="0.641" transform="translate(18.952 129.321)"/><ellipse class="k" cx="0.49" cy="0.641" rx="0.49" ry="0.641" transform="translate(18.952 128.539)"/><ellipse class="k" cx="0.49" cy="0.641" rx="0.49" ry="0.641" transform="translate(18.952 127.756)"/><ellipse class="k" cx="0.49" cy="0.641" rx="0.49" ry="0.641" transform="translate(18.952 126.973)"/><path class="g" d="M128.375,689.49a2.031,2.031,0,0,1-.184-.269l1.289-.21h-1.391a2.343,2.343,0,0,1-.046-1.856l1.866.98-1.722-1.265a2.345,2.345,0,1,1,3.868,2.624,2.376,2.376,0,0,1,.267.427l-1.665.864,1.779-.6a2.3,2.3,0,0,1,.123.751,9.3,9.3,0,0,0-.75,4.626,4.753,4.753,0,0,1-3.435-6.075Z" transform="translate(-110.765 -567.236)"/><path class="f" d="M132.569,714.077a9.3,9.3,0,0,0-.75,4.626,2.346,2.346,0,0,1-3.435-3.176C128.068,715.128,132.569,713.813,132.569,714.077Z" transform="translate(-110.773 -590.373)"/></g></svg>