<svg width="52" height="48" viewBox="0 0 52 48" fill="none" xmlns="http://www.w3.org/2000/svg">
<path d="M25.7147 0L51.4295 10.2853V13.7147H48C48.0004 13.9432 47.9517 14.1691 47.8572 14.3771C47.7627 14.5851 47.6245 14.7704 47.4522 14.9203C47.103 15.254 46.6366 15.4369 46.1537 15.4295H5.27728C4.79455 15.436 4.32845 15.2533 3.97885 14.9203C3.80627 14.7704 3.6679 14.5852 3.57311 14.3772C3.47833 14.1692 3.42934 13.9433 3.42946 13.7147H2.63597e-06V10.2853L25.7147 0ZM6.85737 17.1426H13.7147V37.7147H17.1426V17.1426H24V37.7147H27.4279V17.1426H34.2853V37.7147H37.7147V17.1426H44.5705V37.7147H46.1506C46.6334 37.7082 47.0995 37.8909 47.4491 38.2239C47.6216 38.3737 47.7598 38.5589 47.8544 38.767C47.9489 38.975 47.9975 39.201 47.9969 39.4295V41.1442H3.42791V39.4295C3.42791 39.2011 3.47696 38.9755 3.57175 38.7677C3.66653 38.56 3.80484 38.3751 3.9773 38.2254C4.32644 37.8918 4.79285 37.7089 5.27573 37.7163H6.85582V17.1426H6.85737ZM49.5801 42.8574C50.0628 42.8508 50.5289 43.0336 50.8785 43.3665C51.051 43.5163 51.1893 43.7016 51.2838 43.9096C51.3784 44.1176 51.427 44.3436 51.4264 44.5721V48H2.63597e-06V44.5705C-0.000412839 44.3421 0.048291 44.1162 0.142813 43.9082C0.237336 43.7002 0.375468 43.5149 0.547849 43.365C0.896988 43.0313 1.36339 42.8484 1.84628 42.8558H49.5801V42.8574Z" fill="#2A2B54"/>
</svg>
