<svg width="26" height="33" viewBox="0 0 26 33" fill="none" xmlns="http://www.w3.org/2000/svg">
<path d="M11.5693 9.42506L11.5692 9.2497L11.4042 9.1901C9.62473 8.54694 8.3375 6.79463 8.3375 4.8525C8.3375 2.31037 10.3979 0.25 12.94 0.25C15.4821 0.25 17.5425 2.31037 17.5425 4.8525C17.5425 6.79508 16.2546 8.55264 14.4694 9.18296L14.3025 9.24191L14.3026 9.41893L14.3075 14.5577L14.3077 14.8075H14.5575H21.0275C21.7823 14.8075 22.395 15.4202 22.395 16.175V16.1755L22.4079 22.9237L22.4083 23.096L22.5694 23.157C24.3752 23.8405 25.63 25.5563 25.63 27.4975C25.63 30.0396 23.5696 32.1 21.0275 32.1C18.4854 32.1 16.425 30.0396 16.425 27.4975C16.425 25.5527 17.6616 23.8069 19.5033 23.1675L19.6717 23.109L19.6713 22.9307L19.66 17.7919L19.6594 17.5425H19.41H12.94H6.47H6.2191L6.22 17.7934L6.23828 22.9079L6.23889 23.0799L6.39973 23.1408C8.23641 23.8364 9.455 25.554 9.455 27.4975C9.455 30.0396 7.39447 32.1 4.8525 32.1C2.31053 32.1 0.25 30.0396 0.25 27.4975C0.25 25.5535 1.55414 23.7703 3.3152 23.1644L3.48383 23.1064L3.48386 22.9281L3.485 16.175V16.175C3.485 15.4202 4.09727 14.8075 4.8525 14.8075H11.3225H11.5727L11.5725 14.5573L11.5693 9.42506ZM14.8075 4.8525C14.8075 3.82157 13.9709 2.985 12.94 2.985C11.9091 2.985 11.0725 3.82157 11.0725 4.8525C11.0725 5.88343 11.9091 6.72 12.94 6.72C13.9709 6.72 14.8075 5.88343 14.8075 4.8525ZM6.72 27.4975C6.72 26.4666 5.88397 25.63 4.8525 25.63C3.82103 25.63 2.985 26.4666 2.985 27.4975C2.985 28.5284 3.82103 29.365 4.8525 29.365C5.88397 29.365 6.72 28.5284 6.72 27.4975ZM22.895 27.4975C22.895 26.4666 22.0584 25.63 21.0275 25.63C19.9966 25.63 19.16 26.4666 19.16 27.4975C19.16 28.5284 19.9966 29.365 21.0275 29.365C22.0584 29.365 22.895 28.5284 22.895 27.4975Z" fill="#2A2B54" stroke="#F6F7F8" stroke-width="0.5"/>
</svg>
