<svg xmlns="http://www.w3.org/2000/svg" width="30.267" height="30.266" viewBox="0 0 30.267 30.266"><defs><style>.a{fill:#2a2b54;}</style></defs><path class="a" d="M32.574,30.14H31.155l-.42-1.516a.639.639,0,0,0-.25-.4V17.213a.639.639,0,0,0,.25-.4l.42-1.516h1.922a.648.648,0,0,0,.643-.556l.532-2.282.014-.123a.64.64,0,0,0-.358-.568l0-.006c-.136-.072-13.577-7.187-14.471-7.679a.644.644,0,0,0-.615,0L4.355,11.758l0,.006A.64.64,0,0,0,4,12.332l.547,2.4a.648.648,0,0,0,.643.556H7.111l.42,1.516a.639.639,0,0,0,.25.4V28.221a.639.639,0,0,0-.25.4l-.42,1.516H5.693a.661.661,0,0,0-.607.418L4,33.527v.1a.647.647,0,0,0,.649.644H33.618a.647.647,0,0,0,.649-.644v-.1l-1.1-3A.65.65,0,0,0,32.574,30.14ZM8.862,17.35h1.486V28.084H8.862Zm2.817,11.275a.639.639,0,0,0-.25-.4V17.213a.639.639,0,0,0,.25-.4l.42-1.516h1.365l.42,1.516a.639.639,0,0,0,.25.4V28.22a.639.639,0,0,0-.25.4l-.42,1.516H12.1ZM15.214,17.35H16.7V28.084H15.214Zm1.845-1.081h-2.2l-.27-.976h2.744Zm-2.2,12.9h2.2l.27.975H14.585Zm3.176-.54a.639.639,0,0,0-.25-.4V17.213a.639.639,0,0,0,.25-.4l.42-1.516h1.365l.42,1.516a.639.639,0,0,0,.25.4V28.221a.639.639,0,0,0-.25.4l-.42,1.516H18.451ZM21.566,17.35h1.486V28.084H21.566Zm1.845-1.081h-2.2l-.27-.976h2.744Zm-2.2,12.9h2.2l.27.975H20.938Zm3.176-.54a.639.639,0,0,0-.25-.4V17.213a.639.639,0,0,0,.25-.4l.42-1.516h1.365l.42,1.516a.639.639,0,0,0,.25.4V28.22a.639.639,0,0,0-.25.4l-.42,1.516H24.8Zm5.022-.54H27.919V17.35H29.4ZM27.56,29.165h2.2l.27.975H27.29Zm2.2-12.9h-2.2l-.27-.976h2.744ZM19.13,5.14c1.463.787,8.779,4.662,12.339,6.547h-2.44c-1.077-.563-9.231-4.824-9.622-5.039l-.3-.132L9.319,11.688H6.793Zm7.565,6.547H11.633l7.5-3.961C20.177,8.279,24.224,10.4,26.695,11.688ZM5.534,14.212,5.2,12.768H33.069l-.337,1.444H5.534Zm5.443,1.081-.27.976H8.5l-.27-.976ZM8.5,29.165h2.2l.27.975H8.233ZM5.275,33.186l.718-1.964H32.272l.719,1.964Z" transform="translate(-4 -4)"/></svg>