<svg xmlns="http://www.w3.org/2000/svg" width="20.08" height="32.08" viewBox="0 0 20.08 32.08"><defs><style>.a{fill:#2a2b54;}</style></defs><path class="a" d="M22,24a3.947,3.947,0,0,0-2.019.567l-6.548-6.548a3.878,3.878,0,0,0,0-4.038L19.98,7.435A3.961,3.961,0,0,0,22,8a4.04,4.04,0,1,0-3.435-1.979l-6.546,6.546A3.947,3.947,0,0,0,10,12a4,4,0,0,0,0,8,3.947,3.947,0,0,0,2.019-.567l6.548,6.548A3.947,3.947,0,0,0,18,28a4,4,0,1,0,4-4ZM22,2a2,2,0,1,1-2,2A2,2,0,0,1,22,2ZM8,16a2,2,0,1,1,2,2A2,2,0,0,1,8,16ZM22,30a2,2,0,1,1,2-2A2,2,0,0,1,22,30Z" transform="translate(-6 0.08)"/></svg>