<svg width="29" height="29" viewBox="0 0 29 29" fill="none" xmlns="http://www.w3.org/2000/svg">
<path d="M10.3402 3.29198L10.4493 3.26173L10.4795 3.15265C10.9606 1.41619 12.4844 0.2 14.375 0.2C16.2714 0.2 17.8356 1.37721 18.3151 3.10808L18.3453 3.21716L18.4544 3.24741C19.6855 3.58886 20.6781 4.57593 21.1981 5.82678L21.2494 5.95H21.3828H23C26.065 5.95 28.55 8.43502 28.55 11.5V23C28.55 26.065 26.065 28.55 23 28.55H5.75C2.68502 28.55 0.2 26.065 0.2 23V11.5C0.2 8.43502 2.68502 5.95 5.75 5.95H7.45773H7.60962L7.65039 5.80368C7.79189 5.29589 8.14945 4.75334 8.63731 4.29112C9.12407 3.82993 9.7265 3.46219 10.3402 3.29198ZM7.64752 8.56189L7.602 8.425H7.45773H5.75C4.05111 8.425 2.675 9.80111 2.675 11.5V23C2.675 24.6989 4.05111 26.075 5.75 26.075H23C24.6989 26.075 26.075 24.6989 26.075 23V11.5C26.075 9.80111 24.6989 8.425 23 8.425H21.3382H21.2026L21.1524 8.551C20.4496 10.3157 18.987 11.3 17.25 11.3H11.5C9.75896 11.3 8.20834 10.2485 7.64752 8.56189ZM16.0125 4.3125C16.0125 3.40854 15.279 2.675 14.375 2.675C13.471 2.675 12.7375 3.40854 12.7375 4.3125C12.7375 4.99554 12.183 5.55 11.5 5.55C10.596 5.55 9.8625 6.28354 9.8625 7.1875C9.8625 8.09146 10.596 8.825 11.5 8.825H17.25C18.154 8.825 18.8875 8.09146 18.8875 7.1875C18.8875 6.28354 18.154 5.55 17.25 5.55C16.567 5.55 16.0125 4.99554 16.0125 4.3125ZM18.8875 14.375C18.8875 13.692 19.442 13.1375 20.125 13.1375C20.808 13.1375 21.3625 13.692 21.3625 14.375V21.5625C21.3625 22.2455 20.808 22.8 20.125 22.8C19.442 22.8 18.8875 22.2455 18.8875 21.5625V14.375ZM13.1375 17.25C13.1375 16.567 13.692 16.0125 14.375 16.0125C15.058 16.0125 15.6125 16.567 15.6125 17.25V21.5625C15.6125 22.2455 15.058 22.8 14.375 22.8C13.692 22.8 13.1375 22.2455 13.1375 21.5625V17.25ZM7.3875 20.125C7.3875 19.442 7.94196 18.8875 8.625 18.8875C9.30804 18.8875 9.8625 19.442 9.8625 20.125V21.5625C9.8625 22.2455 9.30804 22.8 8.625 22.8C7.94196 22.8 7.3875 22.2455 7.3875 21.5625V20.125Z" fill="#2A2B54" stroke="#F6F7F8" stroke-width="0.4"/>
</svg>
