<svg width="27" height="27" viewBox="0 0 27 27" fill="none" xmlns="http://www.w3.org/2000/svg">
<path d="M13.6441 3.22522L13.8274 3.22526L13.8826 3.05039C14.396 1.4221 16.0515 0.25 17.8333 0.25C19.6065 0.25 21.1248 1.33996 21.8058 3.06407L21.8682 3.22222H22.0383H25.2639C25.9466 3.22222 26.5 3.77602 26.5 4.45833C26.5 5.1405 25.9468 5.6942 25.2643 5.69444C25.2642 5.69444 25.264 5.69444 25.2639 5.69444L22.052 5.68111L21.8772 5.68039L21.8165 5.84429C21.1744 7.57795 19.6104 8.66667 17.8333 8.66667C16.0567 8.66667 14.5096 7.58136 13.8789 5.85711L13.8189 5.69297L13.6441 5.69299L1.48611 5.69444C1.4861 5.69444 1.48609 5.69444 1.48608 5.69444C0.803436 5.69443 0.25 5.14063 0.25 4.45833C0.25 3.77604 0.803419 3.22226 1.48605 3.22222C1.48607 3.22222 1.48609 3.22222 1.48611 3.22222L13.6441 3.22522ZM4.73586 12.1414L4.90263 12.1307L4.95653 11.9725C5.52087 10.3165 7.06575 9.16667 8.91667 9.16667C10.6934 9.16667 12.263 10.2848 12.8791 11.9618L12.9392 12.1254L13.1135 12.1256L25.2636 12.1389H25.2639C25.9466 12.1389 26.5 12.6927 26.5 13.375C26.5 14.0573 25.9466 14.6111 25.2639 14.6111H25.2638L13.1214 14.6156L12.9505 14.6156L12.8885 14.7748C12.2172 16.4982 10.6911 17.5833 8.91667 17.5833C7.06699 17.5833 5.52767 16.4258 4.96292 14.7686L4.91117 14.6167L4.75156 14.6005C4.68748 14.594 4.44194 14.5927 4.13965 14.5929C3.82619 14.5931 3.4265 14.5952 3.03321 14.5979C2.63981 14.6006 2.25241 14.6039 1.96339 14.6065L1.61511 14.6098L1.51791 14.6108L1.49234 14.611L1.48578 14.6111L1.48491 14.6111C0.802804 14.6105 0.25 14.0569 0.25 13.375C0.25 12.6927 0.803452 12.1389 1.48611 12.1389L1.48696 12.1389L1.49346 12.1389L1.51882 12.1391L1.61523 12.1396L1.96085 12.1412C2.24777 12.1426 2.63254 12.1442 3.02387 12.1454C3.79774 12.1478 4.62032 12.1488 4.73586 12.1414ZM13.6434 21.0407L13.8223 21.0405L13.8798 20.871C14.4275 19.2577 16.0545 18.0833 17.8333 18.0833C19.6104 18.0833 21.203 19.221 21.8092 20.8824L21.869 21.0462L22.0434 21.0467L25.2632 21.0556H25.2639C25.9466 21.0556 26.5 21.6094 26.5 22.2917C26.5 22.974 25.9466 23.5278 25.2639 23.5278H25.2638L22.0575 23.5292L21.8882 23.5293L21.8254 23.6865C21.1444 25.392 19.6066 26.5 17.8333 26.5C16.0545 26.5 14.4382 25.3565 13.8571 23.6966L13.7985 23.5293L13.6211 23.5292L1.48614 23.5278H1.48611C0.803452 23.5278 0.25 22.974 0.25 22.2917C0.25 21.6094 0.803452 21.0556 1.48611 21.0556H1.48642L13.6434 21.0407ZM19.5694 4.45833C19.5694 3.49998 18.7922 2.72222 17.8333 2.72222C16.8744 2.72222 16.0972 3.49998 16.0972 4.45833C16.0972 5.41669 16.8744 6.19444 17.8333 6.19444C18.7922 6.19444 19.5694 5.41669 19.5694 4.45833ZM10.6528 13.375C10.6528 12.4166 9.87557 11.6389 8.91667 11.6389C7.95777 11.6389 7.18056 12.4166 7.18056 13.375C7.18056 14.3334 7.95777 15.1111 8.91667 15.1111C9.87557 15.1111 10.6528 14.3334 10.6528 13.375ZM19.5694 22.2917C19.5694 21.3333 18.7922 20.5556 17.8333 20.5556C16.8744 20.5556 16.0972 21.3333 16.0972 22.2917C16.0972 23.25 16.8744 24.0278 17.8333 24.0278C18.7922 24.0278 19.5694 23.25 19.5694 22.2917Z" fill="#2A2B54" stroke="#F6F7F8" stroke-width="0.5"/>
</svg>
