<svg width="28" height="28" viewBox="0 0 28 28" fill="none" xmlns="http://www.w3.org/2000/svg">
<path d="M17.0513 0.59381L17.0513 0.593806C16.0568 0.368216 15.0351 0.25 14 0.25C6.40587 0.25 0.25 6.40587 0.25 14C0.25 21.5941 6.40587 27.75 14 27.75C21.5941 27.75 27.75 21.5941 27.75 14C27.75 12.9636 27.6318 11.9447 27.4062 10.9487C27.2658 10.3297 26.6615 9.94706 26.0421 10.0872L17.0513 0.59381ZM17.0513 0.59381C17.6703 0.734188 18.0529 1.33845 17.9128 1.9579M17.0513 0.59381L25.1806 11.4512M21.25 5.09175L21.1768 5.16498L14.8796 11.4608L14.7878 11.5525L21.25 5.09175ZM21.25 5.09175V4.98818M21.25 5.09175V4.98818M21.25 4.98818V1.4C21.25 0.765271 21.7653 0.25 22.4 0.25C23.0347 0.25 23.55 0.765271 23.55 1.4V4.2V4.45H23.8H26.6C27.2347 4.45 27.75 4.96527 27.75 5.6C27.75 6.23473 27.2347 6.75 26.6 6.75H23.0132H22.9097L22.8364 6.8232L16.5336 13.1246L16.4404 13.2178M21.25 4.98818L16.4404 13.2178M16.4404 13.2178L16.4647 13.3474L16.4404 13.2178ZM25.1806 11.4512C25.0405 10.8318 25.423 10.2276 26.042 10.0872L25.1806 11.4512ZM25.1806 11.4512C25.3702 12.2817 25.45 13.1379 25.45 14C25.45 20.3233 20.3233 25.45 14 25.45C7.67673 25.45 2.55 20.3233 2.55 14C2.55 7.67673 7.67673 2.55 14 2.55C14.8606 2.55 15.7182 2.62974 16.5486 2.81936M16.5486 2.81936C16.5488 2.81939 16.5489 2.81943 16.5491 2.81946L16.4934 3.06318L16.5486 2.81935C16.5486 2.81936 16.5486 2.81936 16.5486 2.81936ZM16.5486 2.81936C17.1681 2.95955 17.7724 2.57696 17.9128 1.9579M17.9128 1.9579C17.9128 1.95793 17.9128 1.95796 17.9128 1.95799L18.1563 2.01312L17.9128 1.9579ZM14.66 11.5303L14.66 11.5303L16.4647 13.3476L16.4649 13.3484L16.4656 13.3522L16.4683 13.367L16.4781 13.4225C16.4863 13.4696 16.4972 13.5345 16.508 13.6059C16.5307 13.7548 16.55 13.9117 16.55 14C16.55 15.4089 15.4089 16.55 14 16.55C12.5911 16.55 11.45 15.4089 11.45 14C11.45 12.5911 12.5911 11.45 14 11.45C14.0898 11.45 14.2489 11.4683 14.3988 11.4895C14.4708 11.4997 14.5364 11.51 14.584 11.5177L14.6401 11.5269L14.6551 11.5295L14.6589 11.5301L14.6598 11.5303L14.66 11.5303L14.66 11.5303ZM5.85 14C5.85 9.49847 9.49847 5.85 14 5.85C14.6347 5.85 15.15 6.36527 15.15 7C15.15 7.63473 14.6347 8.15 14 8.15C10.7693 8.15 8.15 10.7693 8.15 14C8.15 17.2307 10.7693 19.85 14 19.85C17.2307 19.85 19.85 17.2307 19.85 14C19.85 13.3653 20.3653 12.85 21 12.85C21.6347 12.85 22.15 13.3653 22.15 14C22.15 18.5015 18.5015 22.15 14 22.15C9.49847 22.15 5.85 18.5015 5.85 14Z" fill="#2A2B54" stroke="#F6F7F8" stroke-width="0.5"/>
</svg>
