<svg xmlns="http://www.w3.org/2000/svg" width="25.69" height="25.69" viewBox="0 0 25.69 25.69"><defs><style>.a{fill:#2a2b54;}</style></defs><path class="a" d="M13.648,13.762V0H12.042V13.762a3.2,3.2,0,0,0,0,6.195V25.69h1.606V19.957a3.2,3.2,0,0,0,0-6.195Zm-.8,4.7a1.606,1.606,0,1,1,1.606-1.606A1.607,1.607,0,0,1,12.845,18.465ZM25.69,11.24a3.207,3.207,0,0,0-2.408-3.1V0H21.676V8.142a3.2,3.2,0,0,0,0,6.195V25.69h1.606V14.337A3.207,3.207,0,0,0,25.69,11.24Zm-3.211,1.606a1.606,1.606,0,1,1,1.606-1.606A1.607,1.607,0,0,1,22.479,12.845ZM4.014,3.325V0H2.408V3.325a3.2,3.2,0,0,0,0,6.195V25.69H4.014V9.52a3.2,3.2,0,0,0,0-6.195Zm-.8,4.7A1.606,1.606,0,1,1,4.817,6.423,1.607,1.607,0,0,1,3.211,8.028Z"/></svg>