<svg xmlns="http://www.w3.org/2000/svg" width="29.638" height="29.638" viewBox="0 0 29.638 29.638"><defs><style>.a{fill:#2a2b54;}</style></defs><g transform="translate(-2 -2)"><path class="a" d="M15.337,28.674A13.337,13.337,0,1,1,28.674,15.337a1.482,1.482,0,0,1-1.482,1.482H16.819V27.192A1.482,1.482,0,0,1,15.337,28.674Zm0-23.711a10.373,10.373,0,0,0-1.482,20.643V15.337a1.482,1.482,0,0,1,1.482-1.482h10.27A10.373,10.373,0,0,0,15.337,4.964Z"/><path class="a" d="M14.482,26.337A1.482,1.482,0,0,1,13,24.855V14.482A1.482,1.482,0,0,1,14.482,13H24.855a1.482,1.482,0,0,1,1.482,1.482A11.855,11.855,0,0,1,14.482,26.337Zm1.482-10.373v7.291a8.891,8.891,0,0,0,7.291-7.291Z" transform="translate(5.301 5.301)"/></g></svg>