<svg width="29" height="29" viewBox="0 0 29 29" fill="none" xmlns="http://www.w3.org/2000/svg">
<path d="M18.2384 12.9465C18.5692 12.4268 18.7582 11.7653 18.7582 11.0093C18.7582 9.49726 17.5297 7.37101 15.5452 7.37101H15.0254V6.14251C15.0254 5.62276 14.6002 5.19751 14.0804 5.19751C13.5607 5.19751 13.1354 5.62276 13.1354 6.14251V7.37101H11.8124V6.14251C11.8124 5.62276 11.3872 5.19751 10.8674 5.19751C10.3477 5.19751 9.92243 5.62276 9.92243 6.14251V7.37101H8.55218C8.03243 7.37101 7.60718 7.79626 7.60718 8.31601C7.60718 8.83576 8.03243 9.26101 8.55218 9.26101H9.92243V19.089H8.55218C8.03243 19.089 7.60718 19.5143 7.60718 20.034C7.60718 20.5538 8.03243 20.979 8.55218 20.979H9.92243V22.2075C9.92243 22.7273 10.3477 23.1525 10.8674 23.1525C11.3872 23.1525 11.8124 22.7273 11.8124 22.2075V20.979H13.1354V22.2075C13.1354 22.7273 13.5607 23.1525 14.0804 23.1525C14.6002 23.1525 15.0254 22.7273 15.0254 22.2075V20.979H16.2539C19.0417 20.979 20.7427 19.4198 20.7427 16.8683C20.7427 14.9783 19.7504 13.4663 18.2384 12.9465ZM11.8597 9.26101H15.5924C16.3957 9.26101 16.9154 10.4423 16.9154 11.0093C16.9154 12.096 16.2067 12.663 14.8837 12.7103H11.8597V9.26101ZM16.2539 19.089H11.8597V14.6003H17.1044C18.4274 14.6948 18.8999 15.876 18.8999 16.821C18.8527 17.388 18.8527 19.089 16.2539 19.089Z" fill="#2A2B54"/>
<path d="M14.175 0C6.37875 0 0 6.37875 0 14.175C0 21.9713 6.37875 28.35 14.175 28.35C21.9713 28.35 28.35 21.9713 28.35 14.175C28.35 6.37875 21.9713 0 14.175 0ZM14.175 26.46C7.41825 26.46 1.89 20.9317 1.89 14.175C1.89 7.41825 7.41825 1.89 14.175 1.89C20.9317 1.89 26.46 7.41825 26.46 14.175C26.46 20.9317 20.9317 26.46 14.175 26.46Z" fill="#2A2B54"/>
</svg>
