<svg xmlns="http://www.w3.org/2000/svg" width="34.845" height="34.845" viewBox="0 0 34.845 34.845"><defs><style>.a{fill:#2a2b54;stroke:#2a2b54;}</style></defs><path class="a" d="M22.092,14.2l1.407.351.351-1.407,1.407.351L24.907,14.9a4.352,4.352,0,0,1,.743,8.186,4.319,4.319,0,0,1,1.493,4.331A4.544,4.544,0,0,1,21.516,30.5l-.469-.117L20.7,31.792l-1.407-.351.351-1.407-1.407-.351-.351,1.407-1.407-.351.351-1.407-1.407-.351.351-1.407,1.407.351,3.158-12.667-1.407-.351.351-1.407,1.407.351-.351,1.407-1.407-.351,1.758-1.057.351-1.407,1.407.351Zm-.351,1.407-1.4,5.63,2.815.7a2.9,2.9,0,1,0,1.4-5.63Zm-1.755,7.037-1.4,5.63,3.284.819a2.91,2.91,0,1,0,1.4-5.63Zm2.936,15.507a15.23,15.23,0,1,0-15.23-15.23A15.23,15.23,0,0,0,22.923,38.153Zm0,1.692A16.923,16.923,0,1,1,39.845,22.923,16.923,16.923,0,0,1,22.923,39.845Z" transform="translate(-5.5 -5.5)"/></svg>