<svg width="29" height="29" viewBox="0 0 29 29" fill="none" xmlns="http://www.w3.org/2000/svg">
<path d="M1.81399 11.3776L1.81391 11.2672L1.73226 11.1929C1.01789 10.5428 0.25 9.36313 0.25 7.875C0.25 7.83762 0.267048 7.71747 0.297352 7.57411C0.311528 7.50705 0.327063 7.44218 0.341868 7.38888C0.349273 7.36222 0.356079 7.33997 0.361998 7.32263C0.367792 7.30566 0.371154 7.29809 0.371604 7.29708C0.371652 7.29697 0.371667 7.29693 0.371648 7.29697L3.52165 0.996972C3.74596 0.54835 4.22385 0.25 4.725 0.25H23.625C24.1262 0.25 24.604 0.54835 24.8284 0.996972L27.9784 7.29697L27.9784 7.29708C27.9789 7.2981 27.9822 7.30567 27.988 7.32263C27.9939 7.33997 28.0007 7.36222 28.0081 7.38888C28.0229 7.44218 28.0385 7.50706 28.0526 7.57411C28.083 7.71747 28.1 7.83762 28.1 7.875C28.1 9.36196 27.3048 10.5765 26.5908 11.2277L26.5091 11.3022L26.5092 11.4127L26.525 25.2003L26.5253 25.45H26.775C27.5063 25.45 28.1 26.0437 28.1 26.775C28.1 27.5063 27.5063 28.1 26.775 28.1H1.575C0.843671 28.1 0.25 27.5063 0.25 26.775C0.25 26.0437 0.843671 25.45 1.575 25.45H1.8252L1.825 25.1998L1.81399 11.3776ZM5.70938 2.9H5.55519L5.48598 3.03778L2.95967 8.06674L2.92438 8.137L2.93565 8.21482C3.06552 9.11092 3.82313 9.7 4.725 9.7C5.73247 9.7 6.55 8.88247 6.55 7.875C6.55 7.49837 6.68669 7.15203 6.91936 6.91936C7.15203 6.68669 7.49837 6.55 7.875 6.55C8.60633 6.55 9.2 7.14367 9.2 7.875C9.2 8.88247 10.0175 9.7 11.025 9.7C12.0325 9.7 12.85 8.88247 12.85 7.875C12.85 7.49837 12.9867 7.15203 13.2194 6.91936C13.452 6.68669 13.7984 6.55 14.175 6.55C14.9063 6.55 15.5 7.14367 15.5 7.875C15.5 8.88247 16.3175 9.7 17.325 9.7C18.3325 9.7 19.15 8.88247 19.15 7.875C19.15 7.49837 19.2867 7.15203 19.5194 6.91936C19.752 6.68669 20.0984 6.55 20.475 6.55C21.2063 6.55 21.8 7.14367 21.8 7.875C21.8 8.88247 22.6175 9.7 23.625 9.7C24.0899 9.7 24.5149 9.50632 24.8345 9.24033C25.1508 8.97702 25.3897 8.62103 25.4539 8.26422L25.4688 8.18174L25.4309 8.10698L22.8637 3.03706L22.7943 2.9H22.6406H5.70938ZM8.04008 11.1897L7.87183 11.0366L7.70357 11.1897C6.90734 11.9143 5.88445 12.35 4.725 12.35H4.475V12.6V25.2V25.45H4.725H23.625H23.875V25.2V12.6V12.35H23.625C22.465 12.35 21.4437 11.9186 20.6463 11.1943L20.478 11.0415L20.3099 11.1945C19.5145 11.9183 18.4855 12.35 17.325 12.35C16.1603 12.35 15.1262 11.9422 14.334 11.2198L14.1655 11.0662L13.9971 11.2198C13.2041 11.9429 12.1886 12.35 11.025 12.35C9.8652 12.35 8.83604 11.914 8.04008 11.1897ZM17.325 19.15H17.575V18.9V15.75C17.575 15.0187 18.1687 14.425 18.9 14.425C19.6313 14.425 20.225 15.0187 20.225 15.75V20.475C20.225 21.2063 19.6313 21.8 18.9 21.8H9.45C8.71867 21.8 8.125 21.2063 8.125 20.475V15.75C8.125 15.0187 8.71867 14.425 9.45 14.425C10.1813 14.425 10.775 15.0187 10.775 15.75V18.9V19.15H11.025H17.325Z" fill="#2A2B54" stroke="#F6F7F8" stroke-width="0.5"/>
</svg>
