<svg xmlns="http://www.w3.org/2000/svg" width="49.756" height="50.861" viewBox="0 0 49.756 50.861"><defs><style>.a{fill:#2a2b54;}</style></defs><g transform="translate(24.195) rotate(39)"><path class="a" d="M5.321,10.643a5.321,5.321,0,1,1,5.321-5.321A5.321,5.321,0,0,1,5.321,10.643Zm0-8.362a3.033,3.033,0,1,1,0,.015Z" transform="translate(11.124 11.808)"/><path class="a" d="M1.143,38.445a1.155,1.155,0,0,1-.646-.2A1.133,1.133,0,0,1,0,37.3,13.622,13.622,0,0,1,6.927,25.2C5.407,16.483,5.407,6.951,15.822.185A1.143,1.143,0,0,1,17.068,2.1c-11.38,7.389-8.985,17.994-6.7,28.248.357,1.619.7,3.147.981,4.66a1.14,1.14,0,0,1-1.155,1.376c-3.231,0-8.59,1.992-8.643,2.014A1.216,1.216,0,0,1,1.143,38.445ZM7.391,27.582a11.334,11.334,0,0,0-5.01,8.088,35.972,35.972,0,0,1,6.431-1.52c-.22-1.072-.464-2.174-.715-3.314S7.619,28.692,7.391,27.582Z" transform="translate(0 0)"/><path class="a" d="M16.445,38.445a1.216,1.216,0,0,1-.4-.068c-.053,0-5.413-2.014-8.643-2.014a1.14,1.14,0,0,1-1.117-1.353c.281-1.52.623-3.041.981-4.66C9.543,20.094,11.9,9.49.52,2.1A1.143,1.143,0,0,1,1.766.185C12.158,6.943,12.2,16.483,10.66,25.2A13.622,13.622,0,0,1,17.586,37.3a1.133,1.133,0,0,1-.479.943,1.155,1.155,0,0,1-.661.2Zm-7.7-4.287a35.972,35.972,0,0,1,6.431,1.52,11.334,11.334,0,0,0-5.01-8.088c-.228,1.11-.471,2.2-.707,3.261S9,33.086,8.745,34.158Zm-7.6,4.287A1.14,1.14,0,0,1,0,37.3V26.176a1.14,1.14,0,0,1,2.281,0V37.3A1.14,1.14,0,0,1,1.143,38.445Z" transform="translate(15.302 0)"/><path class="a" d="M14.634,6.256H1.984a1.14,1.14,0,1,1,0-2.281H14.634a1.14,1.14,0,0,1,0,2.281Zm.844-3.976H1.14A1.14,1.14,0,0,1,1.14,0H15.477a1.14,1.14,0,0,1,0,2.281ZM8.309,15.645a1.08,1.08,0,0,1-.563-.152c-4.561-2.585-4.561-6.15-3.976-7.67A1.143,1.143,0,0,1,5.9,8.658c-.106.281-.829,2.683,2.972,4.858a1.14,1.14,0,0,1-.563,2.129Z" transform="translate(8.136 29.756)"/><path class="a" d="M1.134,8.561A1.14,1.14,0,0,1,.572,6.432c3.8-2.182,3.041-4.561,2.972-4.865A1.153,1.153,0,1,1,5.7.739c.608,1.52.563,5.086-3.976,7.67A1.08,1.08,0,0,1,1.134,8.561Z" transform="translate(15.311 36.84)"/></g></svg>