<svg xmlns="http://www.w3.org/2000/svg" width="35.953" height="29.405" viewBox="0 0 35.953 29.405"><defs><style>.a{fill:#2a2b54;}</style></defs><g transform="translate(-1.995 -6.005)"><path class="a" d="M37.576,17.577,20.421,6.14a.817.817,0,0,0-.9,0L2.367,17.577a.81.81,0,0,0-.131,1.258l2.451,2.451a.817.817,0,0,0,1.029.1L6.9,20.567V34.593a.817.817,0,0,0,.817.817H32.225a.817.817,0,0,0,.817-.817V20.6l1.185.817a.752.752,0,0,0,.449.106.817.817,0,0,0,.58-.237l2.451-2.451a.81.81,0,0,0-.131-1.258Zm-20.055,16.2V24.79h4.9v8.986Zm13.888,0H24.056v-9.8a.817.817,0,0,0-.817-.817H16.7a.817.817,0,0,0-.817.817v9.8H8.534V19.513l11.437-7.63,11.437,7.63ZM34.57,19.652,20.421,10.224a.817.817,0,0,0-.9,0L5.373,19.652,4.1,18.385,19.971,7.8l15.873,10.62Z" transform="translate(0)"/></g></svg>