<svg xmlns="http://www.w3.org/2000/svg" width="29.277" height="38.71" viewBox="0 0 29.277 38.71"><defs><style>.a{fill:#2a2b54;}</style></defs><path class="a" d="M96.344,18.252A.818.818,0,0,0,95.76,18H80.085A4.1,4.1,0,0,0,76,22.076V52.635a4.1,4.1,0,0,0,4.085,4.076h21.107a4.1,4.1,0,0,0,4.085-4.076V27.77a.829.829,0,0,0-.239-.569Zm.231,2.577,5.947,6.117H97.387a.8.8,0,0,1-.812-.8Zm4.617,34.256H80.085a2.467,2.467,0,0,1-2.459-2.449V22.076a2.467,2.467,0,0,1,2.459-2.449H94.949v6.517a2.432,2.432,0,0,0,2.438,2.429h6.264V52.635A2.467,2.467,0,0,1,101.192,55.084Z" transform="translate(-76 -18)"/><path class="a" d="M130.122,219.626h9.221a.813.813,0,0,0,0-1.626h-9.221a.813.813,0,1,0,0,1.626Zm18.98,1.87h-18.98a.813.813,0,1,0,0,1.626H149.1a.813.813,0,1,0,0-1.626Zm0,3.5h-18.98a.813.813,0,1,0,0,1.626H149.1a.813.813,0,1,0,0-1.626Zm0,3.5h-18.98a.813.813,0,0,0,0,1.626H149.1a.813.813,0,1,0,0-1.626Z" transform="translate(-124.974 -201.735)"/></svg>