<svg width="34" height="31" viewBox="0 0 34 31" fill="none" xmlns="http://www.w3.org/2000/svg">
<path d="M8.68056 3.37222V3.12222H8.43056C7.63744 3.12222 6.99444 2.47882 6.99444 1.68611C6.99444 0.8934 7.63744 0.25 8.43056 0.25H32.0361C32.8288 0.25 33.4722 0.893449 33.4722 1.68611C33.4722 2.47877 32.8288 3.12222 32.0361 3.12222H31.7861V3.37222V28.6639C31.7861 29.4566 31.1427 30.1 30.35 30.1H23.6056C22.8129 30.1 22.1694 29.4566 22.1694 28.6639V25.2917C22.1694 24.2229 21.3021 23.3556 20.2333 23.3556C19.1645 23.3556 18.2972 24.2229 18.2972 25.2917V28.6639C18.2972 29.4566 17.6538 30.1 16.8611 30.1H10.1167H3.37222C2.5791 30.1 1.93611 29.4566 1.93611 28.6639V10.1167V9.86667H1.68611C0.892992 9.86667 0.25 9.22327 0.25 8.43056C0.25 7.63784 0.892992 6.99444 1.68611 6.99444H3.37222H8.43056H8.68056V6.74444V3.37222ZM11.8028 3.12222H11.5528V3.37222V8.43056V26.9778V27.2278H11.8028H15.175H15.425V26.9778V25.2917C15.425 22.6359 17.5775 20.4833 20.2333 20.4833C22.8891 20.4833 25.0417 22.6359 25.0417 25.2917V26.9778V27.2278H25.2917H28.6639H28.9139V26.9778V3.37222V3.12222H28.6639H11.8028ZM5.05833 9.86667H4.80833V10.1167V26.9778V27.2278H5.05833H8.43056H8.68056V26.9778V10.1167V9.86667H8.43056H5.05833ZM15.425 8.43056C15.425 7.63789 16.0684 6.99444 16.8611 6.99444C17.6538 6.99444 18.2972 7.63789 18.2972 8.43056C18.2972 9.22322 17.6538 9.86667 16.8611 9.86667C16.0684 9.86667 15.425 9.22322 15.425 8.43056ZM22.1694 8.43056C22.1694 7.63789 22.8129 6.99444 23.6056 6.99444C24.3982 6.99444 25.0417 7.63789 25.0417 8.43056C25.0417 9.22322 24.3982 9.86667 23.6056 9.86667C22.8129 9.86667 22.1694 9.22322 22.1694 8.43056ZM15.425 15.175C15.425 14.3823 16.0684 13.7389 16.8611 13.7389C17.6538 13.7389 18.2972 14.3823 18.2972 15.175C18.2972 15.9677 17.6538 16.6111 16.8611 16.6111C16.0684 16.6111 15.425 15.9677 15.425 15.175ZM22.1694 15.175C22.1694 14.3823 22.8129 13.7389 23.6056 13.7389C24.3982 13.7389 25.0417 14.3823 25.0417 15.175C25.0417 15.9677 24.3982 16.6111 23.6056 16.6111C22.8129 16.6111 22.1694 15.9677 22.1694 15.175Z" fill="#2A2B54" stroke="#F6F7F8" stroke-width="0.5"/>
</svg>
