<svg xmlns="http://www.w3.org/2000/svg" width="27.794" height="35" viewBox="0 0 27.794 35"><defs><style>.a{fill:#2a2b54;}</style></defs><path class="a" d="M7.723,7.721h5.144V.518A.519.519,0,0,1,13.388,0h1.019a.516.516,0,0,1,.52.518v7.2h5.144a4.115,4.115,0,0,1,4.12,4.118v5.236l.968-.968a.516.516,0,0,1,.731,0l.721.721a.516.516,0,0,1,0,.734L23.89,20.287a1.029,1.029,0,0,1-1.456,0l-2.722-2.722a.521.521,0,0,1,0-.734l.721-.721a.514.514,0,0,1,.731,0l.968.968V11.838a2.057,2.057,0,0,0-2.061-2.059H7.723a2.059,2.059,0,0,0-2.061,2.058v5.236l.968-.968a.516.516,0,0,1,.731,0l.721.721a.516.516,0,0,1,0,.734L5.36,20.287a1.029,1.029,0,0,1-1.456,0L1.183,17.565a.521.521,0,0,1,0-.734L1.9,16.11a.514.514,0,0,1,.731,0l.968.968V11.838a4.118,4.118,0,0,1,4.12-4.117ZM26.765,35H19.559a1.029,1.029,0,0,1-1.029-1.029V24.706a1.029,1.029,0,0,1,1.029-1.029h7.206a1.029,1.029,0,0,1,1.029,1.029v9.265A1.029,1.029,0,0,1,26.765,35ZM8.235,35H1.029A1.029,1.029,0,0,1,0,33.971V24.706a1.029,1.029,0,0,1,1.029-1.029H8.235a1.029,1.029,0,0,1,1.029,1.029v9.265A1.029,1.029,0,0,1,8.235,35Z"/></svg>