<svg width="29" height="31" viewBox="0 0 29 31" fill="none" xmlns="http://www.w3.org/2000/svg">
<path d="M21.6859 0.418211L21.6861 0.418072C21.8829 0.308438 22.1294 0.25 22.3632 0.25H27.1553C27.8989 0.25 28.5026 0.853692 28.5026 1.59737V28.7526C28.5026 29.4963 27.8989 30.1 27.1553 30.1H20.8153C20.0716 30.1 19.4679 29.4963 19.4679 28.7526C19.4679 28.009 20.0716 27.4053 20.8153 27.4053H25.5579H25.8079V27.1553V3.19474V2.94474H25.5579H22.812H22.7473L22.6908 2.97612L9.46293 10.3144L9.33421 10.3858V10.533V12.7789V27.1553V27.4053H9.58421H14.2773C15.021 27.4053 15.6247 28.009 15.6247 28.7526C15.6247 29.4963 15.021 30.1 14.2773 30.1H7.98684H1.59737C0.853692 30.1 0.25 29.4963 0.25 28.7526V28.7432V28.7335V28.7237V28.7137V28.7036V28.6932V28.6827V28.672V28.6611V28.65V28.6388V28.6274V28.6158V28.604V28.5921V28.58V28.5677V28.5552V28.5426V28.5298V28.5169V28.5037V28.4905V28.477V28.4634V28.4496V28.4356V28.4215V28.4072V28.3928V28.3782V28.3634V28.3485V28.3334V28.3182V28.3028V28.2872V28.2715V28.2556V28.2396V28.2234V28.2071V28.1906V28.174V28.1572V28.1403V28.1232V28.1059V28.0886V28.071V28.0533V28.0355V28.0175V27.9994V27.9812V27.9628V27.9442V27.9255V27.9067V27.8877V27.8686V27.8494V27.83V27.8104V27.7908V27.771V27.751V27.731V27.7108V27.6904V27.6699V27.6493V27.6286V27.6077V27.5867V27.5656V27.5444V27.523V27.5015V27.4798V27.4581V27.4362V27.4142V27.392V27.3698V27.3474V27.3249V27.3023V27.2795V27.2567V27.2337V27.2106V27.1874V27.1641V27.1406V27.117V27.0934V27.0696V27.0457V27.0217V26.9975V26.9733V26.949V26.9245V26.8999V26.8753V26.8505V26.8256V26.8006V26.7755V26.7503V26.725V26.6996V26.6741V26.6485V26.6228V26.597V26.5711V26.5451V26.5189V26.4927V26.4664V26.44V26.4136V26.387V26.3603V26.3335V26.3067V26.2797V26.2527V26.2255V26.1983V26.171V26.1436V26.1161V26.0885V26.0609V26.0331V26.0053V25.9774V25.9494V25.9213V25.8931V25.8649V25.8366V25.8082V25.7797V25.7512V25.7225V25.6938V25.665V25.6362V25.6072V25.5782V25.5492V25.52V25.4908V25.4615V25.4321V25.4027V25.3732V25.3436V25.314V25.2843V25.2545V25.2247V25.1948V25.1648V25.1348V25.1047V25.0745V25.0443V25.0141V24.9837V24.9534V24.9229V24.8924V24.8618V24.8312V24.8006V24.7698V24.7391V24.7082V24.6774V24.6464V24.6154V24.5844V24.5533V24.5222V24.491V24.4598V24.4285V24.3972V24.3658V24.3344V24.303V24.2715V24.2399V24.2084V24.1767V24.1451V24.1134V24.0816V24.0499V24.0181V23.9862V23.9543V23.9224V23.8905V23.8585V23.8264V23.7944V23.7623V23.7302V23.6981V23.6659V23.6337V23.6015V23.5692V23.5369V23.5046V23.4723V23.4399V23.4075V23.3751V23.3427V23.3103V23.2778V23.2453V23.2128V23.1803V23.1477V23.1152V23.0826V23.05V23.0174V22.9848V22.9521V22.9195V22.8868V22.8541V22.8215V22.7888V22.7561V22.7233V22.6906V22.6579V22.6252V22.5924V22.5597V22.5269V22.4942V22.4614V22.4287V22.3959V22.3632V22.3304V22.2976V22.2649V22.2321V22.1994V22.1666V22.1339V22.1012V22.0684V22.0357V22.003V21.9703V21.9376V21.9049V21.8722V21.8395V21.8068V21.7742V21.7416V21.7089V21.6763V21.6437V21.6112V21.5786V21.5461V21.5135V21.481V21.4485V21.4161V21.3836V21.3512V21.3188V21.2864V21.254V21.2217V21.1894V21.1571V21.1249V21.0926V21.0604V21.0283V20.9961V20.964V20.9319V20.8999V20.8678V20.8359V20.8039V20.772V20.7401V20.7083V20.6764V20.6447V20.6129V20.5812V20.5496V20.518V20.4864V20.4548V20.4234V20.3919V20.3605V20.3291V20.2978V20.2665V20.2353V20.2041V20.173V20.1419V20.1109V20.0799V20.049V20.0181V19.9873V19.9565V19.9258V19.8951V19.8645V19.8339V19.8034V19.773V19.7426V19.7122V19.682V19.6518V19.6216V19.5915V19.5615V19.5315V19.5017V19.4718V19.442V19.4123V19.3827V19.3531V19.3236V19.2942V19.2648V19.2355V19.2063V19.1772V19.1481V19.1191V19.0901V19.0613V19.0325V19.0038V18.9752V18.9466V18.9181V18.8897V18.8614V18.8332V18.805V18.7769V18.7489V18.721V18.6932V18.6654V18.6378V18.6102V18.5827V18.5553V18.528V18.5008V18.4737V18.4466V18.4197V18.3928V18.366V18.3393V18.3128V18.2863V18.2599V18.2336V18.2074V18.1813V18.1553V18.1293V18.1035V18.0778V18.0522V18.0267V18.0013V17.976V17.9508V17.9257V17.9007V17.8758V17.851V17.8264V17.8018V17.7774V17.753V17.7288V17.7047V17.6806V17.6567V17.6329V17.6093V17.5857V17.5623V17.5389V17.5157V17.4926V17.4696V17.4468V17.424V17.4014V17.3789V17.3565V17.3343V17.3121V17.2901V17.2683V17.2465V17.2249V17.2033V17.182V17.1607V17.1396V17.1186V17.0977V17.077V17.0564V17.0359V17.0156V16.9954V16.9753V16.9553V16.9355V16.9159V16.8964V16.877V16.8577V16.8386V16.8196V16.8008V16.7821V16.7636V16.7452V16.7269V16.7088V16.6908V16.673V16.6553V16.6378V16.6204V16.6031V16.586V16.5691V16.5523V16.5357V16.5192V16.5029V16.4867V16.4707V16.4548V16.4391V16.4235V16.4081V16.3929V16.3778V16.3629V16.3481V16.3335V16.3191V16.3048V16.2907V16.2767V16.2629V16.2493V16.2359V16.2226V16.2094V16.1965V16.1837V16.1711V16.1586V16.1463V16.1342V16.1223V16.1105V16.099V16.0875V16.0763V16.0652V16.0543V16.0436V16.0331V16.0228V16.0126V16.0026V15.9928V15.9831V15.9737C0.25 15.464 0.553342 14.9782 1.00952 14.7501L6.50128 12.0042L6.63947 11.9351V11.7806V9.58421C6.63947 9.08793 6.88869 8.63873 7.30951 8.40509L7.30957 8.40505L21.6859 0.418211ZM6.63947 15.3747V14.9702L6.27767 15.1511L3.08293 16.7484L2.94474 16.8175V16.972V16.9849V16.9978V17.0109V17.0239V17.0371V17.0503V17.0636V17.077V17.0904V17.1039V17.1175V17.1311V17.1448V17.1586V17.1725V17.1864V17.2004V17.2144V17.2285V17.2427V17.257V17.2713V17.2857V17.3001V17.3146V17.3292V17.3438V17.3585V17.3733V17.3882V17.4031V17.418V17.4331V17.4482V17.4633V17.4785V17.4938V17.5092V17.5246V17.54V17.5556V17.5711V17.5868V17.6025V17.6183V17.6341V17.65V17.666V17.682V17.698V17.7142V17.7304V17.7466V17.7629V17.7793V17.7957V17.8122V17.8287V17.8453V17.8619V17.8786V17.8954V17.9122V17.9291V17.946V17.963V17.98V17.9971V18.0143V18.0315V18.0487V18.066V18.0834V18.1008V18.1183V18.1358V18.1533V18.171V18.1886V18.2064V18.2241V18.242V18.2598V18.2778V18.2957V18.3138V18.3318V18.35V18.3681V18.3864V18.4046V18.423V18.4413V18.4597V18.4782V18.4967V18.5153V18.5339V18.5525V18.5712V18.59V18.6087V18.6276V18.6465V18.6654V18.6843V18.7034V18.7224V18.7415V18.7607V18.7798V18.7991V18.8183V18.8377V18.857V18.8764V18.8959V18.9153V18.9349V18.9544V18.974V18.9937V19.0134V19.0331V19.0529V19.0727V19.0925V19.1124V19.1323V19.1523V19.1723V19.1923V19.2124V19.2325V19.2526V19.2728V19.293V19.3133V19.3336V19.3539V19.3743V19.3947V19.4151V19.4356V19.4561V19.4766V19.4972V19.5178V19.5385V19.5591V19.5798V19.6006V19.6214V19.6422V19.663V19.6839V19.7048V19.7257V19.7466V19.7676V19.7887V19.8097V19.8308V19.8519V19.873V19.8942V19.9154V19.9366V19.9579V19.9792V20.0005V20.0218V20.0432V20.0646V20.086V20.1074V20.1289V20.1504V20.1719V20.1935V20.2151V20.2367V20.2583V20.2799V20.3016V20.3233V20.345V20.3667V20.3885V20.4103V20.4321V20.4539V20.4758V20.4977V20.5196V20.5415V20.5634V20.5854V20.6074V20.6294V20.6514V20.6734V20.6955V20.7176V20.7397V20.7618V20.7839V20.8061V20.8283V20.8505V20.8727V20.8949V20.9171V20.9394V20.9617V20.9839V21.0063V21.0286V21.0509V21.0733V21.0956V21.118V21.1404V21.1628V21.1852V21.2077V21.2301V21.2526V21.2751V21.2976V21.32V21.3426V21.3651V21.3876V21.4102V21.4327V21.4553V21.4779V21.5005V21.5231V21.5457V21.5683V21.5909V21.6135V21.6362V21.6588V21.6815V21.7042V21.7268V21.7495V21.7722V21.7949V21.8176V21.8403V21.863V21.8857V21.9085V21.9312V21.9539V21.9767V21.9994V22.0222V22.0449V22.0677V22.0904V22.1132V22.136V22.1587V22.1815V22.2043V22.2271V22.2498V22.2726V22.2954V22.3182V22.3409V22.3637V22.3865V22.4093V22.4321V22.4548V22.4776V22.5004V22.5232V22.5459V22.5687V22.5915V22.6142V22.637V22.6598V22.6825V22.7053V22.728V22.7508V22.7735V22.7962V22.819V22.8417V22.8644V22.8871V22.9098V22.9325V22.9552V22.9779V23.0006V23.0233V23.0459V23.0686V23.0912V23.1139V23.1365V23.1591V23.1818V23.2044V23.227V23.2495V23.2721V23.2947V23.3172V23.3398V23.3623V23.3848V23.4074V23.4298V23.4523V23.4748V23.4973V23.5197V23.5422V23.5646V23.587V23.6094V23.6318V23.6541V23.6765V23.6988V23.7211V23.7434V23.7657V23.788V23.8102V23.8325V23.8547V23.8769V23.8991V23.9213V23.9434V23.9655V23.9877V24.0098V24.0318V24.0539V24.0759V24.0979V24.1199V24.1419V24.1639V24.1858V24.2077V24.2296V24.2515V24.2734V24.2952V24.317V24.3388V24.3605V24.3823V24.404V24.4257V24.4474V24.469V24.4906V24.5122V24.5338V24.5553V24.5768V24.5983V24.6198V24.6413V24.6627V24.6841V24.7054V24.7267V24.7481V24.7693V24.7906V24.8118V24.833V24.8542V24.8753V24.8964V24.9175V24.9385V24.9595V24.9805V25.0015V25.0224V25.0433V25.0642V25.085V25.1058V25.1266V25.1473V25.168V25.1887V25.2093V25.2299V25.2505V25.271V25.2915V25.312V25.3324V25.3528V25.3732V25.3935V25.4138V25.434V25.4542V25.4744V25.4946V25.5147V25.5347V25.5548V25.5748V25.5947V25.6146V25.6345V25.6544V25.6742V25.6939V25.7136V25.7333V25.753V25.7726V25.7921V25.8116V25.8311V25.8505V25.8699V25.8893V25.9086V25.9279V25.9471V25.9663V25.9854V26.0045V26.0235V26.0426V26.0615V26.0804V26.0993V26.1181V26.1369V26.1556V26.1743V26.193V26.2116V26.2301V26.2486V26.2671V26.2855V26.3039V26.3222V26.3404V26.3586V26.3768V26.3949V26.413V26.431V26.449V26.4669V26.4848V26.5026V26.5204V26.5381V26.5557V26.5734V26.5909V26.6084V26.6259V26.6433V26.6606V26.6779V26.6952V26.7124V26.7295V26.7466V26.7636V26.7806V26.7975V26.8144V26.8312V26.8479V26.8646V26.8813V26.8978V26.9144V26.9308V26.9473V26.9636V26.9799V26.9961V27.0123V27.0284V27.0445V27.0605V27.0764V27.0923V27.1082V27.1239V27.1396V27.1553V27.4053H3.19474H6.38947H6.63947V27.1553V15.3747ZM19.4184 9.58421C19.4184 8.84053 20.0221 8.23684 20.7658 8.23684C21.5095 8.23684 22.1132 8.84053 22.1132 9.58421C22.1132 10.3279 21.5095 10.9316 20.7658 10.9316C20.0221 10.9316 19.4184 10.3279 19.4184 9.58421ZM13.0289 15.9737C13.0289 15.23 13.6326 14.6263 14.3763 14.6263C15.12 14.6263 15.7237 15.23 15.7237 15.9737C15.7237 16.7174 15.12 17.3211 14.3763 17.3211C13.6326 17.3211 13.0289 16.7174 13.0289 15.9737ZM19.4184 15.9737C19.4184 15.23 20.0221 14.6263 20.7658 14.6263C21.5095 14.6263 22.1132 15.23 22.1132 15.9737C22.1132 16.7174 21.5095 17.3211 20.7658 17.3211C20.0221 17.3211 19.4184 16.7174 19.4184 15.9737ZM13.0289 22.3632C13.0289 21.6195 13.6326 21.0158 14.3763 21.0158C15.12 21.0158 15.7237 21.6195 15.7237 22.3632C15.7237 23.1068 15.12 23.7105 14.3763 23.7105C13.6326 23.7105 13.0289 23.1068 13.0289 22.3632ZM19.4184 22.3632C19.4184 21.6195 20.0221 21.0158 20.7658 21.0158C21.5095 21.0158 22.1132 21.6195 22.1132 22.3632C22.1132 23.1068 21.5095 23.7105 20.7658 23.7105C20.0221 23.7105 19.4184 23.1068 19.4184 22.3632Z" fill="#2A2B54" stroke="#F6F7F8" stroke-width="0.5"/>
</svg>
