<svg width="14" height="11" viewBox="0 0 14 11" fill="none" xmlns="http://www.w3.org/2000/svg">
<path d="M13.4724 1.70684L11.8929 0.0685251C11.8506 0.0246485 11.7932 0 11.7334 0C11.6735 0 11.6162 0.0246485 11.5738 0.0685251L4.73845 7.15844L1.96462 4.28133C1.92231 4.23745 1.86493 4.2128 1.80509 4.2128C1.74526 4.2128 1.68788 4.23745 1.64556 4.28133L0.0660651 5.91964C0.0237636 5.96353 0 6.02305 0 6.08511C0 6.14717 0.0237636 6.20669 0.0660651 6.25058L4.57892 10.9315C4.62123 10.9754 4.67861 11 4.73845 11C4.79828 11 4.85566 10.9754 4.89798 10.9315L13.4724 2.03778C13.5147 1.99389 13.5385 1.93437 13.5385 1.87231C13.5385 1.81025 13.5147 1.75073 13.4724 1.70684V1.70684Z" fill="#39C522"/>
</svg>
