<svg width="43" height="43" viewBox="0 0 43 43" fill="none" xmlns="http://www.w3.org/2000/svg">
<path d="M17.9163 24.1875C22.8639 24.1875 26.8747 20.1767 26.8747 15.2292C26.8747 10.2816 22.8639 6.27084 17.9163 6.27084C12.9688 6.27084 8.95801 10.2816 8.95801 15.2292C8.95801 20.1767 12.9688 24.1875 17.9163 24.1875Z" fill="#FFC7C7"/>
<path d="M23.8447 21.8987C22.2623 23.3061 20.2006 24.1875 17.9163 24.1875C15.632 24.1875 13.5704 23.3061 11.988 21.8987C7.03381 24.1554 3.58301 29.1383 3.58301 34.9375C3.58301 34.9378 3.58301 34.9382 3.58301 34.9385C3.58322 35.9277 4.38546 36.7294 5.37467 36.7292H30.458C30.4583 36.7292 30.4587 36.7292 30.459 36.7292C31.4482 36.729 32.2499 35.9267 32.2497 34.9375C32.2497 29.1383 28.7989 24.1554 23.8447 21.8987Z" fill="#FFB1B1"/>
<path d="M32.8479 24.1875C32.3727 24.188 31.9168 23.9991 31.5812 23.6625L29.192 21.2742C28.4988 20.5683 28.509 19.4341 29.2149 18.7408C29.9118 18.0564 31.0286 18.0564 31.7255 18.7408L32.8479 19.8624L36.3587 16.3507C37.0646 15.6575 38.1989 15.6677 38.8921 16.3736C39.5766 17.0705 39.5766 18.1872 38.8921 18.8842L34.1147 23.6625C33.7791 23.9991 33.3232 24.188 32.8479 24.1875Z" fill="#FF0001"/>
</svg>
