<svg xmlns="http://www.w3.org/2000/svg" xmlns:xlink="http://www.w3.org/1999/xlink" width="53" height="65" viewBox="0 0 53 65"><defs><style>.a{fill:#b2b1ff;}.b{clip-path:url(#a);}.c{fill:#6563ff;}</style><clipPath id="a"><rect class="a" width="53" height="65"/></clipPath></defs><g class="b"><path class="a" d="M52.813,22.75,29.707,0H9.9a9.981,9.981,0,0,0-7,2.856A9.674,9.674,0,0,0,0,9.75v45.5a9.675,9.675,0,0,0,2.9,6.894A9.981,9.981,0,0,0,9.9,65H42.91a10.036,10.036,0,0,0,3.789-.742,9.914,9.914,0,0,0,3.212-2.113,9.74,9.74,0,0,0,2.147-3.163,9.619,9.619,0,0,0,.754-3.731Z"/><path class="c" d="M49.36,22.75H32.854a6.654,6.654,0,0,1-4.666-1.9,6.45,6.45,0,0,1-1.933-4.594V0ZM32.854,52h-19.8a3.344,3.344,0,0,1-1.263-.247,3.3,3.3,0,0,1-1.071-.7A3.247,3.247,0,0,1,10,49.995a3.2,3.2,0,0,1,0-2.487,3.246,3.246,0,0,1,.715-1.054,3.305,3.305,0,0,1,1.071-.7,3.346,3.346,0,0,1,1.263-.247h19.8a3.327,3.327,0,0,1,2.334.952,3.215,3.215,0,0,1,0,4.6A3.327,3.327,0,0,1,32.856,52Zm0-13h-19.8a3.328,3.328,0,0,1-2.334-.952,3.215,3.215,0,0,1,0-4.6,3.328,3.328,0,0,1,2.334-.952h19.8a3.327,3.327,0,0,1,2.334.952,3.215,3.215,0,0,1,0,4.6A3.327,3.327,0,0,1,32.856,39ZM16.349,26h-3.3a3.328,3.328,0,0,1-2.334-.952,3.215,3.215,0,0,1,0-4.6,3.327,3.327,0,0,1,2.334-.952h3.3a3.327,3.327,0,0,1,2.334.952,3.215,3.215,0,0,1,0,4.6A3.328,3.328,0,0,1,16.351,26Z" transform="translate(3.453)"/></g></svg>