<svg width="89" height="24" viewBox="0 0 89 24" fill="none" xmlns="http://www.w3.org/2000/svg">
<path d="M0 12C0 5.37258 5.37258 0 12 0H77C83.6274 0 89 5.37258 89 12V12C89 18.6274 83.6274 24 77 24H12C5.37259 24 0 18.6274 0 12V12Z" fill="#F1F5F9"/>
<path d="M20.0013 8.00008C20.7346 8.00008 21.3346 8.60008 21.3346 9.33341C21.3346 10.0667 20.7346 10.6667 20.0013 10.6667C19.268 10.6667 18.668 10.0667 18.668 9.33341C18.668 8.60008 19.268 8.00008 20.0013 8.00008ZM20.0013 14.6667C21.8013 14.6667 23.868 15.5267 24.0013 16.0001H16.0013C16.1546 15.5201 18.208 14.6667 20.0013 14.6667ZM20.0013 6.66675C18.528 6.66675 17.3346 7.86008 17.3346 9.33341C17.3346 10.8067 18.528 12.0001 20.0013 12.0001C21.4746 12.0001 22.668 10.8067 22.668 9.33341C22.668 7.86008 21.4746 6.66675 20.0013 6.66675ZM20.0013 13.3334C18.2213 13.3334 14.668 14.2267 14.668 16.0001V17.3334H25.3346V16.0001C25.3346 14.2267 21.7813 13.3334 20.0013 13.3334Z" fill="#334155"/>
<path d="M41.7832 12.3848H38.3496V16H36.8672V7.46875H42.2871V8.66406H38.3496V11.2012H41.7832V12.3848ZM42.9316 12.7715C42.9316 12.1504 43.0547 11.5918 43.3008 11.0957C43.5469 10.5957 43.8926 10.2129 44.3379 9.94727C44.7832 9.67773 45.2949 9.54297 45.873 9.54297C46.7285 9.54297 47.4219 9.81836 47.9531 10.3691C48.4883 10.9199 48.7773 11.6504 48.8203 12.5605L48.8262 12.8945C48.8262 13.5195 48.7051 14.0781 48.4629 14.5703C48.2246 15.0625 47.8809 15.4434 47.4316 15.7129C46.9863 15.9824 46.4707 16.1172 45.8848 16.1172C44.9902 16.1172 44.2734 15.8203 43.7344 15.2266C43.1992 14.6289 42.9316 13.834 42.9316 12.8418V12.7715ZM44.3555 12.8945C44.3555 13.5469 44.4902 14.0586 44.7598 14.4297C45.0293 14.7969 45.4043 14.9805 45.8848 14.9805C46.3652 14.9805 46.7383 14.793 47.0039 14.418C47.2734 14.043 47.4082 13.4941 47.4082 12.7715C47.4082 12.1309 47.2695 11.623 46.9922 11.248C46.7188 10.873 46.3457 10.6855 45.873 10.6855C45.4082 10.6855 45.0391 10.8711 44.7656 11.2422C44.4922 11.6094 44.3555 12.1602 44.3555 12.8945ZM53.3496 10.9609C53.1621 10.9297 52.9688 10.9141 52.7695 10.9141C52.1172 10.9141 51.6777 11.1641 51.4512 11.6641V16H50.0273V9.66016H51.3867L51.4219 10.3691C51.7656 9.81836 52.2422 9.54297 52.8516 9.54297C53.0547 9.54297 53.2227 9.57031 53.3555 9.625L53.3496 10.9609ZM60.1582 11.5117L62.1211 7.46875H63.7617L60.9023 12.8594V16H59.4141V12.8594L56.5488 7.46875H58.1953L60.1582 11.5117ZM63.8965 12.7715C63.8965 12.1504 64.0195 11.5918 64.2656 11.0957C64.5117 10.5957 64.8574 10.2129 65.3027 9.94727C65.748 9.67773 66.2598 9.54297 66.8379 9.54297C67.6934 9.54297 68.3867 9.81836 68.918 10.3691C69.4531 10.9199 69.7422 11.6504 69.7852 12.5605L69.791 12.8945C69.791 13.5195 69.6699 14.0781 69.4277 14.5703C69.1895 15.0625 68.8457 15.4434 68.3965 15.7129C67.9512 15.9824 67.4355 16.1172 66.8496 16.1172C65.9551 16.1172 65.2383 15.8203 64.6992 15.2266C64.1641 14.6289 63.8965 13.834 63.8965 12.8418V12.7715ZM65.3203 12.8945C65.3203 13.5469 65.4551 14.0586 65.7246 14.4297C65.9941 14.7969 66.3691 14.9805 66.8496 14.9805C67.3301 14.9805 67.7031 14.793 67.9688 14.418C68.2383 14.043 68.373 13.4941 68.373 12.7715C68.373 12.1309 68.2344 11.623 67.957 11.248C67.6836 10.873 67.3105 10.6855 66.8379 10.6855C66.373 10.6855 66.0039 10.8711 65.7305 11.2422C65.457 11.6094 65.3203 12.1602 65.3203 12.8945ZM74.8359 15.3789C74.418 15.8711 73.8242 16.1172 73.0547 16.1172C72.3672 16.1172 71.8457 15.916 71.4902 15.5137C71.1387 15.1113 70.9629 14.5293 70.9629 13.7676V9.66016H72.3867V13.75C72.3867 14.5547 72.7207 14.957 73.3887 14.957C74.0801 14.957 74.5469 14.709 74.7891 14.2129V9.66016H76.2129V16H74.8711L74.8359 15.3789Z" fill="#334155"/>
</svg>
