<svg width="130" height="24" viewBox="0 0 130 24" fill="none" xmlns="http://www.w3.org/2000/svg">
<path d="M0 12C0 5.37258 5.37258 0 12 0H118C124.627 0 130 5.37258 130 12V12C130 18.6274 124.627 24 118 24H12C5.37258 24 0 18.6274 0 12V12Z" fill="#ECF3FF"/>
<path fill-rule="evenodd" clip-rule="evenodd" d="M18.0986 10.4498V11.1665H18.8154H19.532V10.4498V9.73315H18.8154H18.0986V10.4498ZM25.1986 10.4498V11.1665H25.932H26.6654V10.4498V9.73315H25.932H25.1986V10.4498ZM15.6986 12.8165V13.5331H16.432H17.1654V12.8165V12.0997H16.432H15.6986V12.8165ZM18.0986 12.8165V13.5331H18.8154H19.532V12.8165V12.0997H18.8154H18.0986V12.8165ZM22.832 12.8165V13.5331H23.5654H24.2986V12.8165V12.0997H23.5654H22.832V12.8165ZM25.1986 12.8165V13.5331H25.932H26.6654V12.8165V12.0997H25.932H25.1986V12.8165ZM13.332 15.1831V15.8997H14.0654H14.7986V15.1831V14.4665H14.0654H13.332V15.1831ZM15.6986 15.1831V15.8997H16.432H17.1654V15.1831V14.4665H16.432H15.6986V15.1831ZM18.0986 15.1831V15.8997H18.8154H19.532V15.1831V14.4665H18.8154H18.0986V15.1831ZM22.832 15.1831V15.8997H23.5654H24.2986V15.1831V14.4665H23.5654H22.832V15.1831ZM25.1986 15.1831V15.8997H25.932H26.6654V15.1831V14.4665H25.932H25.1986V15.1831Z" fill="#0095DF"/>
<path fill-rule="evenodd" clip-rule="evenodd" d="M20.4648 8.06665V8.79984H21.198H21.9314V8.06665V7.33325H21.198H20.4648V8.06665ZM20.4648 10.4498V11.1666H21.198H21.9314V10.4498V9.73324H21.198H20.4648V10.4498ZM20.4648 12.8166V13.5332H21.198H21.9314V12.8166V12.0998H21.198H20.4648V12.8166ZM20.4648 15.1832V15.8998H21.198H21.9314V15.1832V14.4666H21.198H20.4648V15.1832Z" fill="#7BCAEB"/>
<path d="M41.7832 12.3848H38.3496V16H36.8672V7.46875H42.2871V8.66406H38.3496V11.2012H41.7832V12.3848ZM42.9316 12.7715C42.9316 12.1504 43.0547 11.5918 43.3008 11.0957C43.5469 10.5957 43.8926 10.2129 44.3379 9.94727C44.7832 9.67773 45.2949 9.54297 45.873 9.54297C46.7285 9.54297 47.4219 9.81836 47.9531 10.3691C48.4883 10.9199 48.7773 11.6504 48.8203 12.5605L48.8262 12.8945C48.8262 13.5195 48.7051 14.0781 48.4629 14.5703C48.2246 15.0625 47.8809 15.4434 47.4316 15.7129C46.9863 15.9824 46.4707 16.1172 45.8848 16.1172C44.9902 16.1172 44.2734 15.8203 43.7344 15.2266C43.1992 14.6289 42.9316 13.834 42.9316 12.8418V12.7715ZM44.3555 12.8945C44.3555 13.5469 44.4902 14.0586 44.7598 14.4297C45.0293 14.7969 45.4043 14.9805 45.8848 14.9805C46.3652 14.9805 46.7383 14.793 47.0039 14.418C47.2734 14.043 47.4082 13.4941 47.4082 12.7715C47.4082 12.1309 47.2695 11.623 46.9922 11.248C46.7188 10.873 46.3457 10.6855 45.873 10.6855C45.4082 10.6855 45.0391 10.8711 44.7656 11.2422C44.4922 11.6094 44.3555 12.1602 44.3555 12.8945ZM53.3496 10.9609C53.1621 10.9297 52.9688 10.9141 52.7695 10.9141C52.1172 10.9141 51.6777 11.1641 51.4512 11.6641V16H50.0273V9.66016H51.3867L51.4219 10.3691C51.7656 9.81836 52.2422 9.54297 52.8516 9.54297C53.0547 9.54297 53.2227 9.57031 53.3555 9.625L53.3496 10.9609ZM62.1504 14.0137H58.8457L58.1543 16H56.6133L59.8359 7.46875H61.166L64.3945 16H62.8477L62.1504 14.0137ZM59.2617 12.8184H61.7344L60.498 9.2793L59.2617 12.8184ZM66.7441 16H65.3203V7H66.7441V16ZM69.8145 16H68.3906V7H69.8145V16ZM71.1035 12.7715C71.1035 12.1504 71.2266 11.5918 71.4727 11.0957C71.7188 10.5957 72.0645 10.2129 72.5098 9.94727C72.9551 9.67773 73.4668 9.54297 74.0449 9.54297C74.9004 9.54297 75.5938 9.81836 76.125 10.3691C76.6602 10.9199 76.9492 11.6504 76.9922 12.5605L76.998 12.8945C76.998 13.5195 76.877 14.0781 76.6348 14.5703C76.3965 15.0625 76.0527 15.4434 75.6035 15.7129C75.1582 15.9824 74.6426 16.1172 74.0566 16.1172C73.1621 16.1172 72.4453 15.8203 71.9062 15.2266C71.3711 14.6289 71.1035 13.834 71.1035 12.8418V12.7715ZM72.5273 12.8945C72.5273 13.5469 72.6621 14.0586 72.9316 14.4297C73.2012 14.7969 73.5762 14.9805 74.0566 14.9805C74.5371 14.9805 74.9102 14.793 75.1758 14.418C75.4453 14.043 75.5801 13.4941 75.5801 12.7715C75.5801 12.1309 75.4414 11.623 75.1641 11.248C74.8906 10.873 74.5176 10.6855 74.0449 10.6855C73.5801 10.6855 73.2109 10.8711 72.9375 11.2422C72.6641 11.6094 72.5273 12.1602 72.5273 12.8945ZM80.8066 14.9805C81.1621 14.9805 81.457 14.877 81.6914 14.6699C81.9258 14.4629 82.0508 14.207 82.0664 13.9023H83.4082C83.3926 14.2969 83.2695 14.666 83.0391 15.0098C82.8086 15.3496 82.4961 15.6191 82.1016 15.8184C81.707 16.0176 81.2812 16.1172 80.8242 16.1172C79.9375 16.1172 79.2344 15.8301 78.7148 15.2559C78.1953 14.6816 77.9355 13.8887 77.9355 12.877V12.7305C77.9355 11.7656 78.1934 10.9941 78.709 10.416C79.2246 9.83398 79.9277 9.54297 80.8184 9.54297C81.5723 9.54297 82.1855 9.76367 82.6582 10.2051C83.1348 10.6426 83.3848 11.2188 83.4082 11.9336H82.0664C82.0508 11.5703 81.9258 11.2715 81.6914 11.0371C81.4609 10.8027 81.166 10.6855 80.8066 10.6855C80.3457 10.6855 79.9902 10.8535 79.7402 11.1895C79.4902 11.5215 79.3633 12.0273 79.3594 12.707V12.9355C79.3594 13.623 79.4824 14.1367 79.7285 14.4766C79.9785 14.8125 80.3379 14.9805 80.8066 14.9805ZM88.2715 16C88.209 15.8789 88.1543 15.6816 88.1074 15.4082C87.6543 15.8809 87.0996 16.1172 86.4434 16.1172C85.8066 16.1172 85.2871 15.9355 84.8848 15.5723C84.4824 15.209 84.2812 14.7598 84.2812 14.2246C84.2812 13.5488 84.5312 13.0312 85.0312 12.6719C85.5352 12.3086 86.2539 12.127 87.1875 12.127H88.0605V11.7109C88.0605 11.3828 87.9688 11.1211 87.7852 10.9258C87.6016 10.7266 87.3223 10.627 86.9473 10.627C86.623 10.627 86.3574 10.709 86.1504 10.873C85.9434 11.0332 85.8398 11.2383 85.8398 11.4883H84.416C84.416 11.1406 84.5312 10.8164 84.7617 10.5156C84.9922 10.2109 85.3047 9.97266 85.6992 9.80078C86.0977 9.62891 86.541 9.54297 87.0293 9.54297C87.7715 9.54297 88.3633 9.73047 88.8047 10.1055C89.2461 10.4766 89.4727 11 89.4844 11.6758V14.5352C89.4844 15.1055 89.5645 15.5605 89.7246 15.9004V16H88.2715ZM86.707 14.9746C86.9883 14.9746 87.252 14.9062 87.498 14.7695C87.748 14.6328 87.9355 14.4492 88.0605 14.2188V13.0234H87.293C86.7656 13.0234 86.3691 13.1152 86.1035 13.2988C85.8379 13.4824 85.7051 13.7422 85.7051 14.0781C85.7051 14.3516 85.7949 14.5703 85.9746 14.7344C86.1582 14.8945 86.4023 14.9746 86.707 14.9746ZM92.7598 8.11914V9.66016H93.8789V10.7148H92.7598V14.2539C92.7598 14.4961 92.8066 14.6719 92.9004 14.7812C92.998 14.8867 93.1699 14.9395 93.416 14.9395C93.5801 14.9395 93.7461 14.9199 93.9141 14.8809V15.9824C93.5898 16.0723 93.2773 16.1172 92.9766 16.1172C91.8828 16.1172 91.3359 15.5137 91.3359 14.3066V10.7148H90.293V9.66016H91.3359V8.11914H92.7598ZM96.4863 16H95.0625V9.66016H96.4863V16ZM94.9746 8.01367C94.9746 7.79492 95.043 7.61328 95.1797 7.46875C95.3203 7.32422 95.5195 7.25195 95.7773 7.25195C96.0352 7.25195 96.2344 7.32422 96.375 7.46875C96.5156 7.61328 96.5859 7.79492 96.5859 8.01367C96.5859 8.22852 96.5156 8.4082 96.375 8.55273C96.2344 8.69336 96.0352 8.76367 95.7773 8.76367C95.5195 8.76367 95.3203 8.69336 95.1797 8.55273C95.043 8.4082 94.9746 8.22852 94.9746 8.01367ZM97.7754 12.7715C97.7754 12.1504 97.8984 11.5918 98.1445 11.0957C98.3906 10.5957 98.7363 10.2129 99.1816 9.94727C99.627 9.67773 100.139 9.54297 100.717 9.54297C101.572 9.54297 102.266 9.81836 102.797 10.3691C103.332 10.9199 103.621 11.6504 103.664 12.5605L103.67 12.8945C103.67 13.5195 103.549 14.0781 103.307 14.5703C103.068 15.0625 102.725 15.4434 102.275 15.7129C101.83 15.9824 101.314 16.1172 100.729 16.1172C99.834 16.1172 99.1172 15.8203 98.5781 15.2266C98.043 14.6289 97.7754 13.834 97.7754 12.8418V12.7715ZM99.1992 12.8945C99.1992 13.5469 99.334 14.0586 99.6035 14.4297C99.873 14.7969 100.248 14.9805 100.729 14.9805C101.209 14.9805 101.582 14.793 101.848 14.418C102.117 14.043 102.252 13.4941 102.252 12.7715C102.252 12.1309 102.113 11.623 101.836 11.248C101.562 10.873 101.189 10.6855 100.717 10.6855C100.252 10.6855 99.8828 10.8711 99.6094 11.2422C99.3359 11.6094 99.1992 12.1602 99.1992 12.8945ZM106.195 9.66016L106.236 10.3926C106.705 9.82617 107.32 9.54297 108.082 9.54297C109.402 9.54297 110.074 10.2988 110.098 11.8105V16H108.674V11.8926C108.674 11.4902 108.586 11.1934 108.41 11.002C108.238 10.8066 107.955 10.709 107.561 10.709C106.986 10.709 106.559 10.9688 106.277 11.4883V16H104.854V9.66016H106.195ZM115.107 14.2773C115.107 14.0234 115.002 13.8301 114.791 13.6973C114.584 13.5645 114.238 13.4473 113.754 13.3457C113.27 13.2441 112.865 13.1152 112.541 12.959C111.83 12.6152 111.475 12.1172 111.475 11.4648C111.475 10.918 111.705 10.4609 112.166 10.0938C112.627 9.72656 113.213 9.54297 113.924 9.54297C114.682 9.54297 115.293 9.73047 115.758 10.1055C116.227 10.4805 116.461 10.9668 116.461 11.5645H115.037C115.037 11.291 114.936 11.0645 114.732 10.8848C114.529 10.7012 114.26 10.6094 113.924 10.6094C113.611 10.6094 113.355 10.6816 113.156 10.8262C112.961 10.9707 112.863 11.1641 112.863 11.4062C112.863 11.625 112.955 11.7949 113.139 11.916C113.322 12.0371 113.693 12.1602 114.252 12.2852C114.811 12.4062 115.248 12.5527 115.564 12.7246C115.885 12.8926 116.121 13.0957 116.273 13.334C116.43 13.5723 116.508 13.8613 116.508 14.2012C116.508 14.7715 116.271 15.2344 115.799 15.5898C115.326 15.9414 114.707 16.1172 113.941 16.1172C113.422 16.1172 112.959 16.0234 112.553 15.8359C112.146 15.6484 111.83 15.3906 111.604 15.0625C111.377 14.7344 111.264 14.3809 111.264 14.002H112.646C112.666 14.3379 112.793 14.5977 113.027 14.7812C113.262 14.9609 113.572 15.0508 113.959 15.0508C114.334 15.0508 114.619 14.9805 114.814 14.8398C115.01 14.6953 115.107 14.5078 115.107 14.2773Z" fill="#0558E7"/>
</svg>
