<svg width="35" height="38" viewBox="0 0 35 38" fill="none" xmlns="http://www.w3.org/2000/svg">
<path d="M26.6667 1C26.355 1 26.0232 1.07958 25.75 1.23684L9.25 10.7105C8.66883 11.044 8.33333 11.6806 8.33333 12.3684V14.9737L2.03033 18.2307C1.41066 18.5509 1 19.2293 1 19.9474C1 21.8421 1 33.2105 1 35.1053C1 36.1512 1.82133 37 2.83333 37H10.1667H17.3863C18.3983 37 19.2197 36.1512 19.2197 35.1053C19.2197 34.0594 18.3983 33.2105 17.3863 33.2105H12V16.1579V13.4939L27.1818 4.78947H30.3333V33.2105H24.8902C23.8782 33.2105 23.0568 34.0594 23.0568 35.1053C23.0568 36.1512 23.8782 37 24.8902 37H32.1667C33.1787 37 34 36.1512 34 35.1053V2.89474C34 1.84884 33.1787 1 32.1667 1H26.6667ZM24.8333 10.4737C23.8213 10.4737 23 11.3225 23 12.3684C23 13.4143 23.8213 14.2632 24.8333 14.2632C25.8453 14.2632 26.6667 13.4143 26.6667 12.3684C26.6667 11.3225 25.8453 10.4737 24.8333 10.4737ZM17.5 18.0526C16.488 18.0526 15.6667 18.9015 15.6667 19.9474C15.6667 20.9933 16.488 21.8421 17.5 21.8421C18.512 21.8421 19.3333 20.9933 19.3333 19.9474C19.3333 18.9015 18.512 18.0526 17.5 18.0526ZM24.8333 18.0526C23.8213 18.0526 23 18.9015 23 19.9474C23 20.9933 23.8213 21.8421 24.8333 21.8421C25.8453 21.8421 26.6667 20.9933 26.6667 19.9474C26.6667 18.9015 25.8453 18.0526 24.8333 18.0526ZM8.33333 19.2368V33.2105H4.66667C4.66667 30.0501 4.66667 23.7293 4.66667 21.1316L8.33333 19.2368ZM17.5 25.6316C16.488 25.6316 15.6667 26.4804 15.6667 27.5263C15.6667 28.5722 16.488 29.4211 17.5 29.4211C18.512 29.4211 19.3333 28.5722 19.3333 27.5263C19.3333 26.4804 18.512 25.6316 17.5 25.6316ZM24.8333 25.6316C23.8213 25.6316 23 26.4804 23 27.5263C23 28.5722 23.8213 29.4211 24.8333 29.4211C25.8453 29.4211 26.6667 28.5722 26.6667 27.5263C26.6667 26.4804 25.8453 25.6316 24.8333 25.6316Z" fill="#186EFF" stroke="#E8F0FF" stroke-linecap="round" stroke-linejoin="round"/>
</svg>
