<svg width="30" height="30" viewBox="0 0 30 30" fill="none" xmlns="http://www.w3.org/2000/svg">
<path d="M21.3334 3C21.1181 3 20.8888 3.05305 20.7001 3.15789L9.3001 9.47368C8.89856 9.696 8.66676 10.1204 8.66676 10.5789V12.3158L4.31196 14.4871C3.88383 14.7006 3.6001 15.1528 3.6001 15.6316C3.6001 16.8947 3.6001 24.4737 3.6001 25.7368C3.6001 26.4341 4.16756 27 4.86676 27H9.93343H14.9216C15.6208 27 16.1882 26.4341 16.1882 25.7368C16.1882 25.0396 15.6208 24.4737 14.9216 24.4737H11.2001V13.1053V11.3293L21.6894 5.52631H23.8668V24.4737H20.106C19.4068 24.4737 18.8394 25.0396 18.8394 25.7368C18.8394 26.4341 19.4068 27 20.106 27H25.1334C25.8326 27 26.4001 26.4341 26.4001 25.7368V4.26316C26.4001 3.56589 25.8326 3 25.1334 3H21.3334ZM20.0668 9.31579C19.3676 9.31579 18.8001 9.88168 18.8001 10.5789C18.8001 11.2762 19.3676 11.8421 20.0668 11.8421C20.766 11.8421 21.3334 11.2762 21.3334 10.5789C21.3334 9.88168 20.766 9.31579 20.0668 9.31579ZM15.0001 14.3684C14.3009 14.3684 13.7334 14.9343 13.7334 15.6316C13.7334 16.3288 14.3009 16.8947 15.0001 16.8947C15.6993 16.8947 16.2668 16.3288 16.2668 15.6316C16.2668 14.9343 15.6993 14.3684 15.0001 14.3684ZM20.0668 14.3684C19.3676 14.3684 18.8001 14.9343 18.8001 15.6316C18.8001 16.3288 19.3676 16.8947 20.0668 16.8947C20.766 16.8947 21.3334 16.3288 21.3334 15.6316C21.3334 14.9343 20.766 14.3684 20.0668 14.3684ZM8.66676 15.1579V24.4737H6.13343C6.13343 22.3667 6.13343 18.1528 6.13343 16.421L8.66676 15.1579ZM15.0001 19.421C14.3009 19.421 13.7334 19.9869 13.7334 20.6842C13.7334 21.3815 14.3009 21.9474 15.0001 21.9474C15.6993 21.9474 16.2668 21.3815 16.2668 20.6842C16.2668 19.9869 15.6993 19.421 15.0001 19.421ZM20.0668 19.421C19.3676 19.421 18.8001 19.9869 18.8001 20.6842C18.8001 21.3815 19.3676 21.9474 20.0668 21.9474C20.766 21.9474 21.3334 21.3815 21.3334 20.6842C21.3334 19.9869 20.766 19.421 20.0668 19.421Z" fill="#2A2B54"/>
</svg>
