<svg width="30" height="30" viewBox="0 0 30 30" fill="none" xmlns="http://www.w3.org/2000/svg">
<path d="M14.6882 29.0101C22.7404 29.0101 29.2679 22.516 29.2679 14.5051C29.2679 6.49414 22.7404 0 14.6882 0C6.63599 0 0.108398 6.49414 0.108398 14.5051C0.108398 22.516 6.63599 29.0101 14.6882 29.0101Z" fill="#2A2B54" fill-opacity="0.25"/>
<path d="M11.8981 21.1271V12.9491H9.16562V21.1271H11.8981ZM10.5323 11.8308C10.7279 11.847 10.9247 11.8228 11.1104 11.7598C11.2961 11.6968 11.4668 11.5962 11.6116 11.4645C11.7564 11.3328 11.8723 11.1727 11.952 10.9943C12.0317 10.8159 12.0734 10.623 12.0747 10.4278C12.0759 10.2326 12.0366 10.0392 11.9592 9.8598C11.8817 9.68041 11.7679 9.51888 11.6247 9.38534C11.4816 9.2518 11.3122 9.14914 11.1273 9.08378C10.9424 9.01843 10.7459 8.9918 10.5502 9.00557C10.3548 8.98829 10.158 9.01134 9.972 9.07329C9.78601 9.13524 9.61489 9.23474 9.46936 9.36556C9.32383 9.49638 9.20703 9.6557 9.12628 9.83353C9.04554 10.0114 9.00258 10.2039 9.00011 10.399C8.99764 10.5941 9.03571 10.7876 9.11194 10.9674C9.18816 11.1472 9.30089 11.3094 9.44307 11.4438C9.58524 11.5783 9.75379 11.682 9.93816 11.7486C10.1225 11.8152 10.3187 11.8432 10.5145 11.8308H10.5323ZM13.4106 21.1262H16.1384V16.5594C16.1291 16.3344 16.161 16.1096 16.2325 15.8959C16.3346 15.6067 16.524 15.3559 16.7749 15.1778C17.0258 14.9997 17.3258 14.9031 17.634 14.9012C18.6226 14.9012 19.0186 15.6498 19.0186 16.7503V21.1253H21.7463V16.4378C21.7463 13.9261 20.3984 12.7572 18.6009 12.7572C18.1007 12.738 17.6048 12.8564 17.1679 13.0994C16.7309 13.3425 16.3698 13.7007 16.1243 14.1348H16.1431V12.9481H13.4153C13.4511 13.7155 13.4153 21.1262 13.4153 21.1262H13.4106Z" fill="white"/>
</svg>
