<?xml version="1.0" encoding="UTF-8"?>
<svg width="312px" height="72px" viewBox="0 0 312 72" version="1.1" xmlns="http://www.w3.org/2000/svg" xmlns:xlink="http://www.w3.org/1999/xlink">
    <!-- Generator: Sketch 58 (84663) - https://sketch.com -->
    <title>Untitled 2</title>
    <desc>Created with Sketch.</desc>
    <g id="Page-1" stroke="none" stroke-width="1" fill="none" fill-rule="evenodd">
        <g id="brand" transform="translate(0.000000, -1.000000)" fill="#4169E1" fill-rule="nonzero">
            <g id="Group" transform="translate(156.000000, 36.875000) scale(-1, 1) rotate(-180.000000) translate(-156.000000, -36.875000) translate(0.100000, 0.950000)">
                <path d="M221.15,69.4 C218.25,68 213.5,64.65 210.6,61.9 L205.35,56.95 L199.15,57.5 C193.65,58 192.9,57.85 192.9,56.35 C192.9,54.85 193.75,54.65 199.25,54.95 C205.45,55.25 205.65,55.2 210.5,50.95 C225.7,37.5 239.4,37.55 258,51.05 C265.15,56.25 265.15,56.35 258.65,61.15 C244.4,71.6 231.65,74.4 221.15,69.4 Z M236.35,60.25 C238.1,58.9 237.85,58.8 232.85,58.85 C227.85,58.85 227.55,59 229.35,60.35 C231.75,62.15 233.85,62.15 236.35,60.25 Z M248.7,55.95 C249.75,55.3 249.7,54.85 248.45,53.85 C247.6,53.15 246.9,52.9 246.9,53.35 C246.9,53.75 246,53.3 244.9,52.3 C243.8,51.3 242.9,50.75 242.9,51.1 C242.9,51.45 241.75,51.3 240.35,50.8 C238.95,50.25 238,50.15 238.25,50.6 C238.55,51.05 237.8,51.45 236.6,51.5 C235.4,51.55 234.95,51.4 235.65,51.1 C237.95,50.25 235.85,48.8 232.25,48.8 C229.75,48.8 228.85,49.2 229.2,50.1 C229.45,50.85 228.9,51.45 227.75,51.55 C226.55,51.65 226.1,51.25 226.55,50.5 C227,49.8 226.6,49.85 225.6,50.65 C224.65,51.45 223.9,51.75 223.9,51.35 C223.9,51 222.55,51.5 220.9,52.45 C214.8,56.05 216.85,56.8 232.65,56.8 C240.75,56.8 248,56.4 248.7,55.95 Z" id="Shape"></path>
                <path d="M50.85,46.05 C50.85,45.65 50.8,35.4 50.8,23.3 L50.8,1.3 L54.85,1 L58.9,0.7 L58.9,23.75 L58.9,46.8 L54.9,46.8 C52.7,46.8 50.9,46.45 50.85,46.05 Z" id="Path"></path>
                <polygon id="Path" points="63.9 23.8 63.9 0.8 68.4 0.8 72.9 0.8 72.9 23.8 72.9 46.8 68.4 46.8 63.9 46.8"></polygon>
                <path d="M16.85,43.05 C16.25,41.55 12.2,31.6 7.75,21 C3.3,10.35 -0.15,1.55 0.05,1.4 C2.65,-0.75 10.55,2.65 11.85,6.55 L13.35,10.8 L23.05,10.8 L32.75,10.8 L34.15,6.55 C35.45,2.7 43.15,-0.75 45.75,1.35 C45.95,1.55 42.45,10.35 38.05,21 C33.65,31.6 29.55,41.55 29,43.05 C28.05,45.55 27.5,45.8 22.9,45.8 C18.3,45.8 17.75,45.55 16.85,43.05 Z M26,26.55 C27.3,23.1 28.5,20.05 28.65,19.75 C28.8,19.4 26.35,19.25 23.15,19.35 C20,19.4 17.5,19.8 17.6,20.2 C18.35,23.15 22.5,32.8 23,32.8 C23.35,32.8 24.7,30 26,26.55 Z" id="Shape"></path>
                <path d="M206.4,43.45 C203.45,38.95 208,34.3 212.45,37.25 C215.35,39.15 215.6,41.85 213.05,44.15 C210.5,46.45 208.2,46.2 206.4,43.45 Z" id="Path"></path>
                <path d="M184.9,35.3 C184.9,32.45 184.45,31.75 182.4,31.2 C180.45,30.7 179.9,29.95 179.9,27.7 C179.9,25.25 180.3,24.8 182.4,24.8 C184.9,24.8 184.9,24.75 184.9,15.45 C184.9,2.6 188.4,-1.45 197.9,0.45 C200.6,1 200.9,1.45 200.9,4.8 C200.9,8.15 200.7,8.5 198.55,8.05 C194.5,7.3 192.9,10.1 192.9,17.85 L192.9,24.8 L196.9,24.8 C200.85,24.8 200.9,24.85 200.9,28.6 L200.9,32.35 L196.9,31.95 C192.9,31.6 192.9,31.6 192.9,35.2 C192.9,38.75 192.85,38.8 188.9,38.8 C185,38.8 184.9,38.7 184.9,35.3 Z" id="Path"></path>
                <path d="M85.9,30.95 C73.1,24.15 75.1,4.5 88.95,0.8 C106.25,-3.85 115.7,21.1 100.2,30.5 C95.6,33.25 90.55,33.45 85.9,30.95 Z M97.85,22.15 C102.15,16.7 99.1,7.8 92.9,7.8 C87.65,7.8 84.4,13.25 86.05,19.3 C87.65,25.25 94.15,26.8 97.85,22.15 Z" id="Shape"></path>
                <path d="M120.9,30.95 C111.3,25.85 109.35,12.5 117.1,4.9 C122.9,-0.75 131.5,-1.25 137.9,3.75 L140.4,5.7 L137.75,8.4 C135.25,10.95 135,11 132.8,9.45 C127.2,5.5 120.9,9.2 120.9,16.45 C120.9,23.2 127.25,27.05 132.45,23.4 C135.2,21.5 141.05,25.7 139.05,28.15 C135.3,32.65 126.6,34 120.9,30.95 Z" id="Path"></path>
                <path d="M152,30.9 C141.6,25.35 141.1,9.9 151.15,2.45 C154.6,-0.1 163.1,-0.25 165.75,2.2 C168,4.2 168.9,4.25 168.9,2.25 C168.9,1.05 169.75,0.75 172.5,1 L176.1,1.3 L176.25,16.55 L176.4,31.8 L172.65,31.8 C170,31.8 168.9,31.35 168.9,30.3 C168.9,29.1 168.3,29.2 165.65,30.8 C161.65,33.25 156.5,33.3 152,30.9 Z M165.85,22.15 C170.75,15.95 166.4,7 159.1,8.15 C148.95,9.75 149.7,24.8 159.9,24.8 C162.85,24.8 164.25,24.2 165.85,22.15 Z" id="Shape"></path>
                <path d="M230.9,32.1 C212.15,25.05 220.2,-3.95 239.55,0.95 C253.9,4.55 255.05,25.5 241.2,31.4 C237.9,32.8 233.6,33.1 230.9,32.1 Z M240.85,22.15 C243.7,18.5 243.55,13.35 240.45,10.25 C234.35,4.2 226.05,10.65 228.9,19.25 C230.9,25.35 237.15,26.85 240.85,22.15 Z" id="Shape"></path>
                <path d="M294.5,31.25 C285.25,26.45 287.3,15.1 297.75,13.2 C302.6,12.3 304.3,10.95 302.8,9.15 C301.45,7.55 296.75,7.35 295.2,8.9 C294.45,9.65 293.25,9.5 290.9,8.3 L287.7,6.65 L290,4.2 C295,-1.15 304.5,-0.8 309.35,4.9 C314.3,10.8 311.45,16.7 302.35,19.35 C298.15,20.6 296.9,21.4 296.9,22.9 C296.9,25.55 299.4,26.35 302.15,24.55 C304.15,23.25 308.05,23.6 309.7,25.25 C310.6,26.15 307.6,29.9 304.9,31.3 C301.25,33.2 298.2,33.2 294.5,31.25 Z" id="Path"></path>
                <polygon id="Path" points="205.9 16.3 205.9 0.8 210.15 0.8 214.4 0.8 214.4 16.3 214.4 31.8 210.15 31.8 205.9 31.8"></polygon>
                <path d="M255.9,16.3 L255.9,0.8 L260.4,0.8 L264.85,0.8 L264.25,8.15 C263.15,21.3 265.95,26.55 272.4,23.6 C274.85,22.5 274.9,22.25 274.9,11.65 L274.9,0.8 L279.4,0.8 L283.9,0.8 L283.9,11.35 C283.9,28.5 277,36.2 266.65,30.65 C265.05,29.8 264.4,29.8 264.1,30.65 C263.9,31.3 261.95,31.8 259.8,31.8 L255.9,31.8 L255.9,16.3 Z" id="Path"></path>
            </g>
        </g>
    </g>
</svg>