<?xml version="1.0" encoding="UTF-8"?>
<svg width="185px" height="40px" viewBox="0 0 185 40" version="1.1" xmlns="http://www.w3.org/2000/svg" xmlns:xlink="http://www.w3.org/1999/xlink">
  <title>Parallel Login Buton</title>
  <desc>Created by hand by Brian</desc>
  <g id="Page-1" stroke="none" stroke-width="1" fill="none" fill-rule="evenodd">
    <g id="login" transform="translate(-59.000000, -26.000000)">
      <g id="small" transform="translate(59.000000, 26.000000)">
        <rect id="Rectangle" fill="#167FFC" x="0" y="0" width="185" height="40" rx="3"></rect>
        <g transform="translate(61, 14)" id="svgGroup" stroke-linecap="round" fill-rule="evenodd" font-size="9pt" stroke="#fff" stroke-width="0.25mm" fill="#fff" style="stroke:#fff;stroke-width:0.25mm;fill:#fff">
          <path d="M 83.88 3.24 L 84.9 3.24 L 84.9 10.17 A 6.529 6.529 0 0 1 84.813 11.272 Q 84.712 11.86 84.494 12.324 A 2.848 2.848 0 0 1 83.917 13.148 Q 83.117 13.936 81.655 14.082 A 7.046 7.046 0 0 1 80.955 14.115 Q 79.86 14.115 78.878 13.793 Q 77.912 13.476 77.302 12.92 A 3.271 3.271 0 0 1 77.28 12.9 L 77.82 12.09 Q 78.39 12.6 79.208 12.885 Q 80.025 13.17 80.925 13.17 A 5.12 5.12 0 0 0 81.726 13.112 Q 82.629 12.968 83.13 12.473 Q 83.835 11.775 83.835 10.305 L 83.835 9.3 Q 83.34 10.05 82.538 10.44 A 3.918 3.918 0 0 1 81.068 10.82 A 4.679 4.679 0 0 1 80.76 10.83 A 4.375 4.375 0 0 1 79.39 10.62 A 3.99 3.99 0 0 1 78.743 10.343 Q 77.835 9.855 77.318 8.978 A 3.757 3.757 0 0 1 76.81 7.298 A 4.563 4.563 0 0 1 76.8 6.99 A 4.067 4.067 0 0 1 76.973 5.787 A 3.569 3.569 0 0 1 77.318 5.01 Q 77.835 4.14 78.735 3.66 Q 79.635 3.18 80.76 3.18 A 4.294 4.294 0 0 1 81.881 3.322 A 3.698 3.698 0 0 1 82.575 3.585 Q 83.385 3.99 83.88 4.755 L 83.88 3.24 Z M 99.18 6.555 L 99.18 11.13 L 98.115 11.13 L 98.115 6.66 Q 98.115 5.8 97.814 5.226 A 1.938 1.938 0 0 0 97.5 4.785 A 1.994 1.994 0 0 0 96.541 4.235 Q 96.226 4.152 95.853 4.142 A 3.899 3.899 0 0 0 95.745 4.14 Q 94.47 4.14 93.727 4.898 Q 93.002 5.637 92.985 6.928 A 4.727 4.727 0 0 0 92.985 6.99 L 92.985 11.13 L 91.92 11.13 L 91.92 3.24 L 92.94 3.24 L 92.94 4.695 Q 93.375 3.975 94.148 3.578 A 3.547 3.547 0 0 1 95.253 3.229 A 4.633 4.633 0 0 1 95.94 3.18 A 4.138 4.138 0 0 1 96.949 3.296 A 2.897 2.897 0 0 1 98.303 4.043 Q 99.082 4.809 99.169 6.197 A 5.732 5.732 0 0 1 99.18 6.555 Z M 16.5 6.24 L 16.5 11.13 L 15.48 11.13 L 15.48 9.9 A 2.39 2.39 0 0 1 14.602 10.764 A 2.956 2.956 0 0 1 14.422 10.86 A 3.225 3.225 0 0 1 13.556 11.139 A 4.49 4.49 0 0 1 12.765 11.205 Q 11.712 11.205 11.003 10.805 A 2.472 2.472 0 0 1 10.665 10.575 A 2.009 2.009 0 0 1 9.893 9.116 A 2.593 2.593 0 0 1 9.885 8.91 A 2.248 2.248 0 0 1 10.019 8.118 A 1.982 1.982 0 0 1 10.613 7.29 A 2.184 2.184 0 0 1 11.279 6.915 Q 11.894 6.691 12.803 6.676 A 7.955 7.955 0 0 1 12.93 6.675 L 15.435 6.675 L 15.435 6.195 A 2.912 2.912 0 0 0 15.375 5.585 Q 15.294 5.207 15.104 4.923 A 1.608 1.608 0 0 0 14.865 4.643 A 1.822 1.822 0 0 0 14.167 4.244 Q 13.887 4.154 13.546 4.124 A 4.001 4.001 0 0 0 13.2 4.11 Q 12.45 4.11 11.76 4.358 A 3.866 3.866 0 0 0 10.974 4.74 A 3.318 3.318 0 0 0 10.575 5.04 L 10.095 4.245 A 4.047 4.047 0 0 1 11.081 3.632 A 4.925 4.925 0 0 1 11.535 3.458 Q 12.375 3.18 13.305 3.18 Q 14.407 3.18 15.143 3.573 A 2.493 2.493 0 0 1 15.675 3.953 A 2.454 2.454 0 0 1 16.342 5.057 Q 16.5 5.577 16.5 6.24 Z M 31.365 6.24 L 31.365 11.13 L 30.345 11.13 L 30.345 9.9 A 2.39 2.39 0 0 1 29.467 10.764 A 2.956 2.956 0 0 1 29.287 10.86 A 3.225 3.225 0 0 1 28.421 11.139 A 4.49 4.49 0 0 1 27.63 11.205 Q 26.577 11.205 25.868 10.805 A 2.472 2.472 0 0 1 25.53 10.575 A 2.009 2.009 0 0 1 24.758 9.116 A 2.593 2.593 0 0 1 24.75 8.91 A 2.248 2.248 0 0 1 24.884 8.118 A 1.982 1.982 0 0 1 25.478 7.29 A 2.184 2.184 0 0 1 26.144 6.915 Q 26.759 6.691 27.668 6.676 A 7.955 7.955 0 0 1 27.795 6.675 L 30.3 6.675 L 30.3 6.195 A 2.912 2.912 0 0 0 30.24 5.585 Q 30.159 5.207 29.969 4.923 A 1.608 1.608 0 0 0 29.73 4.643 A 1.822 1.822 0 0 0 29.032 4.244 Q 28.752 4.154 28.411 4.124 A 4.001 4.001 0 0 0 28.065 4.11 Q 27.315 4.11 26.625 4.358 A 3.866 3.866 0 0 0 25.839 4.74 A 3.318 3.318 0 0 0 25.44 5.04 L 24.96 4.245 A 4.047 4.047 0 0 1 25.946 3.632 A 4.925 4.925 0 0 1 26.4 3.458 Q 27.24 3.18 28.17 3.18 Q 29.272 3.18 30.008 3.573 A 2.493 2.493 0 0 1 30.54 3.953 A 2.454 2.454 0 0 1 31.207 5.057 Q 31.365 5.577 31.365 6.24 Z M 49.215 7.185 L 49.2 7.515 L 42.6 7.515 Q 42.69 8.745 43.545 9.503 A 2.981 2.981 0 0 0 45.156 10.224 A 4.036 4.036 0 0 0 45.705 10.26 A 3.588 3.588 0 0 0 46.608 10.15 A 3.148 3.148 0 0 0 47.055 9.998 Q 47.67 9.735 48.12 9.225 L 48.72 9.915 Q 48.195 10.545 47.407 10.875 A 4.286 4.286 0 0 1 46.081 11.189 A 5.135 5.135 0 0 1 45.675 11.205 A 4.853 4.853 0 0 1 44.471 11.061 A 4.002 4.002 0 0 1 43.523 10.688 Q 42.585 10.17 42.06 9.255 Q 41.535 8.34 41.535 7.185 Q 41.535 6.03 42.037 5.115 Q 42.54 4.2 43.417 3.69 A 3.798 3.798 0 0 1 45.17 3.185 A 4.566 4.566 0 0 1 45.39 3.18 A 4.03 4.03 0 0 1 46.641 3.369 A 3.612 3.612 0 0 1 47.355 3.69 Q 48.225 4.2 48.72 5.108 A 4.057 4.057 0 0 1 49.182 6.599 A 5.092 5.092 0 0 1 49.215 7.185 Z M 59.58 11.13 L 59.58 0.63 L 60.69 0.63 L 60.69 10.17 L 66.57 10.17 L 66.57 11.13 L 59.58 11.13 Z M 3.93 7.815 L 1.11 7.815 L 1.11 11.13 L 0 11.13 L 0 0.63 L 3.93 0.63 A 6.793 6.793 0 0 1 5.182 0.738 Q 6.323 0.953 7.08 1.59 A 3.142 3.142 0 0 1 8.192 3.723 A 4.493 4.493 0 0 1 8.22 4.23 A 3.97 3.97 0 0 1 8.06 5.386 A 3.034 3.034 0 0 1 7.08 6.863 A 3.828 3.828 0 0 1 5.673 7.592 Q 5.108 7.756 4.433 7.799 A 7.806 7.806 0 0 1 3.93 7.815 Z M 70.078 11.003 A 4.317 4.317 0 0 0 71.415 11.205 A 4.846 4.846 0 0 0 71.696 11.197 A 4.027 4.027 0 0 0 73.47 10.688 Q 74.385 10.17 74.903 9.255 A 3.867 3.867 0 0 0 75.242 8.456 A 4.417 4.417 0 0 0 75.42 7.185 A 4.897 4.897 0 0 0 75.405 6.795 A 4.018 4.018 0 0 0 74.903 5.115 Q 74.385 4.2 73.47 3.69 A 3.914 3.914 0 0 0 72.744 3.377 A 4.379 4.379 0 0 0 71.415 3.18 A 4.896 4.896 0 0 0 71.099 3.19 A 4.063 4.063 0 0 0 69.36 3.69 Q 68.445 4.2 67.92 5.115 A 3.837 3.837 0 0 0 67.58 5.898 A 4.352 4.352 0 0 0 67.395 7.185 Q 67.395 8.34 67.92 9.255 Q 68.445 10.17 69.36 10.688 A 3.884 3.884 0 0 0 70.078 11.003 Z M 23.37 3.18 L 23.37 4.215 L 23.115 4.2 A 3.255 3.255 0 0 0 22.29 4.299 A 2.279 2.279 0 0 0 21.165 4.965 Q 20.46 5.73 20.46 7.11 L 20.46 11.13 L 19.395 11.13 L 19.395 3.24 L 20.415 3.24 L 20.415 4.785 Q 20.79 3.99 21.532 3.585 A 3.133 3.133 0 0 1 22.363 3.281 Q 22.736 3.199 23.168 3.184 A 5.66 5.66 0 0 1 23.37 3.18 Z M 34.26 11.13 L 34.26 0 L 35.325 0 L 35.325 11.13 L 34.26 11.13 Z M 38.295 11.13 L 38.295 0 L 39.36 0 L 39.36 11.13 L 38.295 11.13 Z M 51.39 11.13 L 51.39 0 L 52.455 0 L 52.455 11.13 L 51.39 11.13 Z M 3.9 1.59 L 1.11 1.59 L 1.11 6.84 L 3.9 6.84 Q 4.941 6.84 5.654 6.536 A 2.547 2.547 0 0 0 6.285 6.158 A 2.221 2.221 0 0 0 7.071 4.748 A 3.259 3.259 0 0 0 7.11 4.23 A 3.147 3.147 0 0 0 7.013 3.423 A 2.177 2.177 0 0 0 6.285 2.273 Q 5.633 1.733 4.521 1.62 A 6.149 6.149 0 0 0 3.9 1.59 Z M 71.415 10.26 A 3.167 3.167 0 0 0 72.352 10.125 A 2.804 2.804 0 0 0 72.922 9.878 Q 73.59 9.495 73.965 8.79 A 3.209 3.209 0 0 0 74.317 7.623 A 3.998 3.998 0 0 0 74.34 7.185 Q 74.34 6.285 73.965 5.58 Q 73.59 4.875 72.923 4.493 Q 72.255 4.11 71.415 4.11 A 3.167 3.167 0 0 0 70.478 4.245 A 2.804 2.804 0 0 0 69.908 4.493 Q 69.24 4.875 68.858 5.58 A 3.17 3.17 0 0 0 68.496 6.774 A 3.938 3.938 0 0 0 68.475 7.185 A 3.62 3.62 0 0 0 68.589 8.111 A 3.047 3.047 0 0 0 68.857 8.79 Q 69.24 9.495 69.908 9.878 Q 70.575 10.26 71.415 10.26 Z M 80.865 9.885 A 3.425 3.425 0 0 0 81.858 9.745 A 3.032 3.032 0 0 0 82.41 9.518 Q 83.1 9.15 83.483 8.49 A 2.854 2.854 0 0 0 83.854 7.273 A 3.499 3.499 0 0 0 83.865 6.99 Q 83.865 6.15 83.483 5.498 Q 83.1 4.845 82.418 4.478 A 3.078 3.078 0 0 0 81.288 4.133 A 3.814 3.814 0 0 0 80.865 4.11 A 3.491 3.491 0 0 0 79.934 4.23 A 3.01 3.01 0 0 0 79.328 4.47 Q 78.645 4.83 78.263 5.49 A 2.854 2.854 0 0 0 77.891 6.707 A 3.499 3.499 0 0 0 77.88 6.99 Q 77.88 7.83 78.263 8.49 Q 78.645 9.15 79.328 9.518 A 3.095 3.095 0 0 0 80.55 9.872 A 3.768 3.768 0 0 0 80.865 9.885 Z M 87.885 11.13 L 87.885 3.24 L 88.95 3.24 L 88.95 11.13 L 87.885 11.13 Z M 42.6 6.72 L 48.195 6.72 A 3.234 3.234 0 0 0 47.963 5.751 A 2.698 2.698 0 0 0 47.318 4.823 A 2.651 2.651 0 0 0 45.621 4.103 A 3.492 3.492 0 0 0 45.39 4.095 A 2.946 2.946 0 0 0 44.387 4.26 A 2.597 2.597 0 0 0 43.478 4.823 A 2.776 2.776 0 0 0 42.644 6.391 A 3.661 3.661 0 0 0 42.6 6.72 Z M 15.435 8.76 L 15.435 7.47 L 12.96 7.47 Q 10.99 7.47 10.937 8.804 A 1.885 1.885 0 0 0 10.935 8.88 A 1.454 1.454 0 0 0 11.022 9.392 A 1.273 1.273 0 0 0 11.46 9.968 A 1.778 1.778 0 0 0 12.022 10.246 Q 12.267 10.32 12.56 10.348 A 3.919 3.919 0 0 0 12.93 10.365 Q 13.83 10.365 14.475 9.953 Q 15.12 9.54 15.435 8.76 Z M 30.3 8.76 L 30.3 7.47 L 27.825 7.47 Q 25.855 7.47 25.802 8.804 A 1.885 1.885 0 0 0 25.8 8.88 A 1.454 1.454 0 0 0 25.887 9.392 A 1.273 1.273 0 0 0 26.325 9.968 A 1.778 1.778 0 0 0 26.887 10.246 Q 27.132 10.32 27.425 10.348 A 3.919 3.919 0 0 0 27.795 10.365 Q 28.695 10.365 29.34 9.953 Q 29.985 9.54 30.3 8.76 Z M 88.113 1.455 A 0.798 0.798 0 0 0 88.425 1.515 A 0.963 0.963 0 0 0 88.435 1.515 A 0.752 0.752 0 0 0 88.98 1.29 A 0.756 0.756 0 0 0 89.145 1.047 A 0.798 0.798 0 0 0 89.205 0.735 Q 89.205 0.435 88.98 0.218 Q 88.755 0 88.425 0 A 0.963 0.963 0 0 0 88.415 0 A 0.752 0.752 0 0 0 87.87 0.225 A 0.939 0.939 0 0 0 87.856 0.24 A 0.716 0.716 0 0 0 87.645 0.75 A 0.878 0.878 0 0 0 87.645 0.76 A 0.736 0.736 0 0 0 87.87 1.29 A 0.756 0.756 0 0 0 88.113 1.455 Z" vector-effect="non-scaling-stroke"/>
        </g>
        <g id="Group" transform="translate(11.954468, 8.554688)" stroke="#FFFFFF">
          <line x1="0.5" y1="0.58684082" x2="0.5" y2="22.1953125" id="Line" stroke-width="0.9" stroke-linecap="square"></line>
          <line x1="24.5955322" y1="0.58684082" x2="24.5955322" y2="22.1953125" id="Line" stroke-width="0.9" stroke-linecap="square"></line>
          <g id="p" transform="translate(7.044418, 3.435206)">
            <rect id="Rectangle" x="0.961853027" y="1.12786865" width="1" height="15.5824585"></rect>
            <ellipse id="Oval" stroke-width="1.7" cx="6.24804688" cy="6.40649414" rx="4.64685059" ry="5.16461182"></ellipse>
          </g>
        </g>
      </g>
    </g>
  </g>
</svg>
