<svg width="35" height="36" viewBox="0 0 35 36" fill="none" xmlns="http://www.w3.org/2000/svg">
<path d="M17.5 0C7.8351 0 0 8.0586 0 18C0 27.9414 7.8351 36 17.5 36C27.1652 36 35 27.9414 35 18C35 8.0586 27.1652 0 17.5 0ZM17.5 3.6C25.2315 3.6 31.5 10.0476 31.5 18C31.5 25.9524 25.2315 32.4 17.5 32.4C9.76797 32.4 3.5 25.9524 3.5 18C3.5 10.0476 9.76797 3.6 17.5 3.6ZM17.5 9C16.534 9 15.75 9.8064 15.75 10.8V16.2H10.5C9.53348 16.2 8.75 17.0064 8.75 18C8.75 18.9936 9.53348 19.8 10.5 19.8H15.75V25.2C15.75 26.1936 16.534 27 17.5 27C18.466 27 19.25 26.1936 19.25 25.2V19.8H24.5C25.466 19.8 26.25 18.9936 26.25 18C26.25 17.0064 25.466 16.2 24.5 16.2H19.25V10.8C19.25 9.8064 18.466 9 17.5 9Z" fill="#000000"/>
</svg>
