<svg width="13" height="13" viewBox="0 0 13 13" fill="none" xmlns="http://www.w3.org/2000/svg">
<path fill-rule="evenodd" clip-rule="evenodd" d="M12.864 6.432C12.864 7.70409 12.4868 8.94761 11.7801 10.0053C11.0734 11.063 10.0689 11.8874 8.89365 12.3743C7.71842 12.8611 6.42521 12.9886 5.17755 12.7405C3.92989 12.4924 2.78382 11.8799 1.88425 10.9805C0.984675 10.081 0.372007 8.93505 0.123714 7.68743C-0.124579 6.43981 0.00265324 5.14658 0.489323 3.97127C0.975992 2.79596 1.80024 1.79135 2.85785 1.08447C3.91545 0.377596 5.15892 0.000197775 6.431 0C8.13688 0 9.77288 0.677655 10.9791 1.88389C12.1853 3.09012 12.863 4.72613 12.863 6.432H12.864ZM5.282 4.851H4.22C4.2085 4.5648 4.25945 4.27953 4.36932 4.01501C4.47918 3.75049 4.64532 3.51307 4.85619 3.31923C5.06706 3.12539 5.31761 2.97979 5.59043 2.89254C5.86324 2.80529 6.15178 2.77849 6.436 2.814C7.559 2.814 8.585 3.401 8.585 4.614C8.57526 4.95256 8.47804 5.28284 8.3028 5.57268C8.12756 5.86253 7.88028 6.10207 7.585 6.268C6.993 6.718 6.773 6.886 6.773 7.463V7.75H5.721L5.715 7.378C5.71493 7.05187 5.80193 6.73163 5.967 6.45035C6.13207 6.16908 6.36924 5.93697 6.654 5.778C7.128 5.421 7.43 5.186 7.43 4.678C7.43189 4.54385 7.40486 4.41088 7.35074 4.28812C7.29663 4.16535 7.2167 4.05569 7.11641 3.96659C7.01611 3.87749 6.89779 3.81104 6.76951 3.77177C6.64123 3.7325 6.50599 3.72132 6.373 3.739C6.22535 3.72908 6.0773 3.75121 5.93901 3.80388C5.80072 3.85655 5.67546 3.93851 5.57182 4.04415C5.46818 4.14978 5.38862 4.27658 5.3386 4.41585C5.28857 4.55512 5.26927 4.70357 5.282 4.851ZM6.288 10.032C6.18387 10.0413 6.07894 10.0289 5.97989 9.99541C5.88085 9.96195 5.78985 9.90824 5.7127 9.83769C5.63555 9.76713 5.57393 9.68129 5.53178 9.58562C5.48962 9.48995 5.46785 9.38655 5.46785 9.282C5.46785 9.17745 5.48962 9.07405 5.53178 8.97838C5.57393 8.88271 5.63555 8.79687 5.7127 8.72631C5.78985 8.65576 5.88085 8.60205 5.97989 8.56859C6.07894 8.53514 6.18387 8.52268 6.288 8.532C6.393 8.52114 6.49911 8.53245 6.59946 8.5652C6.69981 8.59794 6.79217 8.65139 6.87056 8.72209C6.94894 8.79279 7.01161 8.87916 7.05451 8.97561C7.0974 9.07206 7.11957 9.17644 7.11957 9.282C7.11957 9.38756 7.0974 9.49194 7.05451 9.58839C7.01161 9.68484 6.94894 9.77121 6.87056 9.84191C6.79217 9.91261 6.69981 9.96606 6.59946 9.9988C6.49911 10.0315 6.393 10.0429 6.288 10.032Z" fill="#0461FF"/>
</svg>
