<svg width="34" height="34" viewBox="0 0 34 34" fill="none" xmlns="http://www.w3.org/2000/svg">
<path d="M26.9167 12.7496H19.8333C19.0819 12.7496 18.3612 12.451 17.8299 11.9197C17.2985 11.3883 17 10.6677 17 9.91622V2.83289L26.9167 12.7496Z" fill="#6563FF"/>
<path d="M26.9167 12.7496L17 2.83289H8.5C7.37283 2.83289 6.29183 3.28065 5.4948 4.07768C4.69777 4.87471 4.25 5.95572 4.25 7.08289V26.9162C4.25 28.0434 4.69777 29.1244 5.4948 29.9214C6.29183 30.7184 7.37283 31.1662 8.5 31.1662H22.6667C23.7938 31.1662 24.8748 30.7184 25.6719 29.9214C26.4689 29.1244 26.9167 28.0434 26.9167 26.9162V12.7496Z" fill="#CAFFC1"/>
<path d="M26.917 12.7496H19.8337C19.0822 12.7496 18.3615 12.451 17.8302 11.9197C17.2988 11.3883 17.0003 10.6677 17.0003 9.91622V2.83289L26.917 12.7496ZM23.2619 31.1667H19.8337C19.6476 31.1668 19.4633 31.1302 19.2914 31.059C19.1195 30.9879 18.9633 30.8835 18.8317 30.752C18.7001 30.6204 18.5958 30.4642 18.5246 30.2923C18.4535 30.1203 18.4169 29.9361 18.417 29.75V26.3218C18.417 26.1357 18.4536 25.9515 18.5248 25.7797C18.5961 25.6078 18.7005 25.4517 18.8321 25.3202L23.9038 20.2484C24.0353 20.1168 24.1915 20.0124 24.3633 19.9412C24.5352 19.87 24.7194 19.8334 24.9054 19.8334C25.0915 19.8334 25.2757 19.87 25.4475 19.9412C25.6194 20.0124 25.7756 20.1168 25.9071 20.2484L29.3352 23.6766C29.4668 23.8081 29.5712 23.9642 29.6424 24.1361C29.7136 24.308 29.7503 24.4922 29.7503 24.6782C29.7503 24.8642 29.7136 25.0485 29.6424 25.2203C29.5712 25.3922 29.4668 25.5483 29.3352 25.6798L24.2636 30.7516C24.1321 30.8832 23.9759 30.9876 23.804 31.0588C23.6322 31.13 23.4479 31.1667 23.2619 31.1667V31.1667ZM14.167 25.5H11.3337C10.9579 25.5 10.5976 25.3507 10.3319 25.0851C10.0662 24.8194 9.91699 24.459 9.91699 24.0833C9.91699 23.7076 10.0662 23.3473 10.3319 23.0816C10.5976 22.8159 10.9579 22.6667 11.3337 22.6667H14.167C14.5427 22.6667 14.903 22.8159 15.1687 23.0816C15.4344 23.3473 15.5837 23.7076 15.5837 24.0833C15.5837 24.459 15.4344 24.8194 15.1687 25.0851C14.903 25.3507 14.5427 25.5 14.167 25.5ZM19.8337 19.8333H11.3337C10.9579 19.8333 10.5976 19.6841 10.3319 19.4184C10.0662 19.1527 9.91699 18.7924 9.91699 18.4167C9.91699 18.0409 10.0662 17.6806 10.3319 17.4149C10.5976 17.1492 10.9579 17 11.3337 17H19.8337C20.2094 17 20.5697 17.1492 20.8354 17.4149C21.1011 17.6806 21.2503 18.0409 21.2503 18.4167C21.2503 18.7924 21.1011 19.1527 20.8354 19.4184C20.5697 19.6841 20.2094 19.8333 19.8337 19.8333ZM12.7503 14.1667H11.3337C10.9579 14.1667 10.5976 14.0174 10.3319 13.7517C10.0662 13.486 9.91699 13.1257 9.91699 12.75C9.91699 12.3743 10.0662 12.0139 10.3319 11.7483C10.5976 11.4826 10.9579 11.3333 11.3337 11.3333H12.7503C13.126 11.3333 13.4864 11.4826 13.7521 11.7483C14.0177 12.0139 14.167 12.3743 14.167 12.75C14.167 13.1257 14.0177 13.486 13.7521 13.7517C13.4864 14.0174 13.126 14.1667 12.7503 14.1667Z" fill="#39C522"/>
</svg>
