<svg width="26" height="26" viewBox="0 0 26 26" fill="none" xmlns="http://www.w3.org/2000/svg">
<path d="M20.4358 0.568359C20.1054 0.568359 19.7751 0.685103 19.5429 0.917334L16.7076 3.75256L15.7376 2.78136C14.98 2.02382 13.9728 1.655 12.9806 1.655C11.987 1.655 10.9811 2.02382 10.2235 2.78136L7.46642 5.53837H6.76724C6.08045 5.53837 5.52407 6.0947 5.52407 6.78145C5.52407 7.46697 6.08045 8.02333 6.76724 8.02333H8.00916C8.33951 8.02333 8.66986 7.90783 8.90334 7.67436L12.0094 4.56716C12.5534 4.02322 13.4065 4.02322 13.9505 4.56716L14.3007 4.91743L3.38921 15.8286C2.68877 16.529 2.1212 17.9211 1.52508 19.9826C1.27545 20.847 1.07553 21.7821 0.8644 22.7011C0.791127 23.0228 0.606059 23.8796 0.59364 23.9442C0.419771 24.8135 1.15996 25.5536 2.02931 25.381C2.09513 25.3674 2.95082 25.1823 3.27248 25.1091C4.1915 24.8979 5.12666 24.698 5.99104 24.4484C8.05262 23.8523 9.44482 23.2848 10.1453 22.5844L21.9509 10.7493C22.3372 10.363 22.3993 9.76939 22.1683 9.30492L25.057 6.43127C25.2892 6.19904 25.406 5.8687 25.406 5.53837C25.406 4.61317 25.0048 3.35138 23.8138 2.16042C22.6228 0.969464 21.361 0.568359 20.4358 0.568359ZM20.8655 3.15019C21.1785 3.29425 21.5461 3.4321 22.0714 3.95866C22.598 4.48397 22.7209 4.83047 22.8104 5.13845L20.4358 7.4794L18.4947 5.53837L20.8655 3.15019ZM16.0866 6.66473L19.2709 9.88743L8.35936 20.7985C8.07744 21.0804 6.91128 21.5735 5.29181 22.0417C4.71183 22.2081 4.08718 22.3559 3.46622 22.5074C3.61774 21.8864 3.76553 21.2617 3.93194 20.6818C4.40015 19.0624 4.89316 17.8963 5.17508 17.6144L16.0866 6.66473Z" fill="#0461FF"/>
</svg>
