<svg width="36" height="37" viewBox="0 0 36 37" fill="none" xmlns="http://www.w3.org/2000/svg">
<path d="M21.21 5.37073L31.1901 15.3499" stroke="#186EFF" stroke-width="2.2" stroke-miterlimit="10"/>
<path d="M17.1359 7.7467C12.3162 5.67098 6.13765 6.95056 1.6001 12.7256L7.15572 18.2828" stroke="#186EFF" stroke-width="2.2" stroke-miterlimit="10"/>
<path d="M28.8548 19.4642C30.9305 24.2839 29.6509 30.4624 23.8759 34.9999L18.3186 29.4443" stroke="#186EFF" stroke-width="2.2" stroke-miterlimit="10"/>
<path d="M13.9745 31.7001L4.89941 22.625C4.89941 22.625 12.2371 3.16643 34.5998 1.99988C33.3359 24.2651 13.9745 31.7001 13.9745 31.7001Z" stroke="#186EFF" stroke-width="2.2" stroke-miterlimit="10" stroke-linecap="square"/>
<path d="M18.9255 20.9749C20.7481 20.9749 22.2256 19.4975 22.2256 17.6749C22.2256 15.8524 20.7481 14.3749 18.9255 14.3749C17.103 14.3749 15.6255 15.8524 15.6255 17.6749C15.6255 19.4975 17.103 20.9749 18.9255 20.9749Z" stroke="#186EFF" stroke-width="2.2" stroke-miterlimit="10" stroke-linecap="square"/>
</svg>
