<svg width="30" height="30" viewBox="0 0 30 30" fill="none" xmlns="http://www.w3.org/2000/svg">
<rect width="30" height="30" rx="15" fill="white"/>
<path d="M17.375 4.97412L24.9962 12.5946" stroke="#2A2B54" stroke-width="2.13451" stroke-miterlimit="10"/>
<path d="M14.2638 6.78818C10.5833 5.20309 5.86519 6.18023 2.40015 10.5903L6.64262 14.834" stroke="#2A2B54" stroke-width="2.13451" stroke-miterlimit="10"/>
<path d="M23.2131 15.7363C24.7982 19.4168 23.821 24.1349 19.411 27.5999L15.1672 23.3575" stroke="#2A2B54" stroke-width="2.13451" stroke-miterlimit="10"/>
<path d="M11.8498 25.0801L4.91968 18.15C4.91968 18.15 10.523 3.29073 27.6 2.3999C26.6348 19.4025 11.8498 25.0801 11.8498 25.0801Z" stroke="#2A2B54" stroke-width="2.13451" stroke-miterlimit="10" stroke-linecap="square"/>
<path d="M15.6306 16.8902C17.0224 16.8902 18.1507 15.7619 18.1507 14.3701C18.1507 12.9784 17.0224 11.8501 15.6306 11.8501C14.2389 11.8501 13.1106 12.9784 13.1106 14.3701C13.1106 15.7619 14.2389 16.8902 15.6306 16.8902Z" stroke="#2A2B54" stroke-width="2.13451" stroke-miterlimit="10" stroke-linecap="square"/>
</svg>
