<svg width="23" height="28" viewBox="0 0 23 28" fill="none" xmlns="http://www.w3.org/2000/svg">
<path d="M23 9.80005L12.9375 0H4.31244C3.16871 0 2.07183 0.442494 1.26309 1.23014C0.454346 2.01778 0 3.08605 0 4.19995V23.7994C0 24.351 0.111545 24.8971 0.328265 25.4067C0.544986 25.9162 0.862638 26.3792 1.26309 26.7693C1.66353 27.1593 2.13893 27.4686 2.66214 27.6797C3.18535 27.8908 3.74613 27.9994 4.31244 27.9994H18.6874C19.2538 27.9994 19.8145 27.8908 20.3378 27.6797C20.861 27.4687 21.3364 27.1593 21.7369 26.7693C22.1373 26.3793 22.455 25.9163 22.6717 25.4067C22.8885 24.8971 23 24.351 23 23.7994V9.80005Z" fill="#FFB1B1"/>
<path d="M22.9996 9.80005H15.8121C15.0496 9.80005 14.3184 9.50505 13.7792 8.97994C13.24 8.45482 12.9371 7.74262 12.9371 7V0L22.9996 9.80005ZM8.62465 22.4004C8.3404 22.4003 8.06255 22.3182 7.82622 22.1643C7.58989 22.0105 7.4057 21.7919 7.29692 21.5361C7.18814 21.2804 7.15967 20.9989 7.21509 20.7274C7.27051 20.4559 7.40734 20.2065 7.60829 20.0106L13.3589 14.4101C13.6284 14.1475 13.994 14.0001 14.3752 14.0001C14.7565 14.0001 15.122 14.1475 15.3916 14.4101C15.6612 14.6726 15.8126 15.0286 15.8126 15.3999C15.8126 15.7712 15.6612 16.1272 15.3916 16.3898L9.64113 21.9902C9.50783 22.1204 9.34941 22.2237 9.17499 22.2941C9.00057 22.3645 8.81358 22.4006 8.62478 22.4004H8.62465Z" fill="#FF0000"/>
<path d="M14.3751 22.4004C14.1863 22.4006 13.9993 22.3645 13.8249 22.2941C13.6505 22.2237 13.4921 22.1204 13.3588 21.9902L7.60817 16.3896C7.47475 16.2596 7.36892 16.1053 7.29674 15.9354C7.22456 15.7655 7.18744 15.5835 7.1875 15.3997C7.18756 15.2158 7.22479 15.0338 7.29708 14.864C7.36937 14.6942 7.47529 14.5399 7.6088 14.4099C7.74232 14.28 7.9008 14.1769 8.07521 14.1066C8.24962 14.0363 8.43654 14.0002 8.62529 14.0002C8.81405 14.0003 9.00094 14.0366 9.17531 14.107C9.34967 14.1774 9.50809 14.2805 9.64152 14.4106L15.3915 20.0111C15.5924 20.2069 15.7293 20.4564 15.7847 20.7279C15.8401 20.9994 15.8116 21.2809 15.7029 21.5366C15.5941 21.7924 15.4099 22.011 15.1736 22.1648C14.9372 22.3187 14.6594 22.4008 14.3751 22.4009V22.4004Z" fill="#FF0001"/>
</svg>
