<svg width="24" height="29" viewBox="0 0 24 29" fill="none" xmlns="http://www.w3.org/2000/svg">
<path d="M24 10.1499L13.5 0H4.49994C3.30648 0 2.16191 0.458297 1.318 1.27407C0.4741 2.08984 0 3.19627 0 4.34995V24.6494C0 25.2207 0.116394 25.7863 0.342538 26.3141C0.568681 26.8418 0.900144 27.3214 1.318 27.7253C1.73586 28.1292 2.23193 28.4496 2.77789 28.6682C3.32385 28.8868 3.909 28.9994 4.49994 28.9994H19.4999C20.0909 28.9994 20.676 28.8869 21.222 28.6683C21.768 28.4497 22.2641 28.1293 22.6819 27.7253C23.0998 27.3214 23.4313 26.8419 23.6574 26.3141C23.8836 25.7863 24 25.2207 24 24.6494V10.1499Z" fill="#CAFFC1"/>
<path d="M23.9997 10.1499H16.4997C15.7041 10.1499 14.941 9.84435 14.3785 9.30052C13.8159 8.75669 13.4998 8.0191 13.4998 7.25V0L23.9997 10.1499ZM10.4997 23.2004C10.3027 23.2006 10.1076 23.1632 9.92558 23.0903C9.74357 23.0174 9.57827 22.9104 9.43917 22.7756L6.43925 19.8755C6.29998 19.7409 6.18951 19.5811 6.11415 19.4052C6.03878 19.2293 5.99999 19.0407 6 18.8503C6.00001 18.66 6.03881 18.4714 6.11418 18.2955C6.18956 18.1196 6.30004 17.9598 6.43931 17.8252C6.57859 17.6906 6.74393 17.5838 6.92589 17.5109C7.10786 17.4381 7.30289 17.4006 7.49984 17.4006C7.6968 17.4006 7.89182 17.4381 8.07378 17.511C8.25575 17.5838 8.42108 17.6906 8.56034 17.8253L10.4997 19.7L15.4393 14.9251C15.5785 14.7905 15.7439 14.6837 15.9258 14.6108C16.1078 14.538 16.3028 14.5005 16.4998 14.5005C16.6967 14.5005 16.8918 14.538 17.0737 14.6109C17.2557 14.6837 17.421 14.7905 17.5603 14.9251C17.6996 15.0598 17.81 15.2196 17.8854 15.3955C17.9608 15.5714 17.9995 15.7599 17.9995 15.9503C17.9995 16.1407 17.9607 16.3292 17.8854 16.5051C17.81 16.681 17.6995 16.8409 17.5602 16.9755L11.5596 22.7761C11.4205 22.9108 11.2553 23.0176 11.0734 23.0904C10.8915 23.1632 10.6966 23.2006 10.4997 23.2004V23.2004Z" fill="#39C522"/>
</svg>
