<svg width="16" height="20" viewBox="0 0 16 20" fill="none" xmlns="http://www.w3.org/2000/svg">
<path d="M7.99999 0C6.89499 0 5.99999 0.894997 5.99999 1.99999H0.999999C0.448 1.99999 0 2.44799 0 2.99999C0 3.55199 0.448 3.99999 0.999999 3.99999V16C0.999999 18.1899 2.805 19.9999 5 19.9999H11C13.195 19.9999 15 18.1949 15 16V3.99999C15.552 3.99999 16 3.55199 16 2.99999C16 2.44799 15.552 1.99999 15 1.99999H9.99999C9.99999 0.894997 9.10499 0 7.99999 0ZM3 3.99999H13V16C13 17.0969 12.11 17.9999 11.031 17.9999L5 17.9689C3.898 17.9689 3 17.0789 3 16V3.99999ZM5.99999 5.99998C5.44799 5.99998 5 6.44798 5 6.99998V15C5 15.552 5.44799 16 5.99999 16C6.55199 16 6.99999 15.552 6.99999 15V6.99998C6.99999 6.44798 6.55199 5.99998 5.99999 5.99998ZM9.99999 5.99998C9.44799 5.99998 8.99999 6.44798 8.99999 6.99998V15C8.99999 15.552 9.44799 16 9.99999 16C10.552 16 11 15.552 11 15V6.99998C11 6.44798 10.552 5.99998 9.99999 5.99998Z" fill="#8E9394"/>
</svg>
