<svg xmlns="http://www.w3.org/2000/svg" width="123.678" height="114.286" viewBox="0 0 123.678 114.286"><defs><style>.a{fill:#3f3d56;}.b{fill:#fff;}.c{fill:#00a0c6;}.d{fill:#e6e6e6;}.e{fill:#a0616a;}.f{fill:#2f2e41;}.g{fill:#575a89;}.h{opacity:0.2;}</style></defs><path class="a" d="M212.235,143.094a7.5,7.5,0,0,0-7.5,7.5V236.95a7.5,7.5,0,0,0,7.5,7.5h63.351a7.5,7.5,0,0,0,7.5-7.5V150.59a7.5,7.5,0,0,0-7.5-7.5Z" transform="translate(-204.739 -133.967)"/><rect class="b" width="70.547" height="90.703" transform="translate(3.898 14.452)"/><rect class="c" width="52.102" height="3.423" transform="translate(13.121 30.71)"/><rect class="c" width="52.102" height="3.423" transform="translate(13.121 39.837)"/><rect class="c" width="52.102" height="3.423" transform="translate(13.121 48.964)"/><rect class="c" width="52.102" height="3.423" transform="translate(13.121 58.092)"/><rect class="c" width="52.102" height="3.423" transform="translate(13.121 67.219)"/><rect class="c" width="52.102" height="3.423" transform="translate(13.121 76.346)"/><rect class="c" width="52.102" height="3.423" transform="translate(13.121 85.474)"/><rect class="d" width="52.522" height="67.528" transform="translate(14.292 18.155) rotate(-10.37)"/><rect class="c" width="38.79" height="2.548" transform="translate(23.224 28.825) rotate(-10.37)"/><rect class="c" width="38.79" height="2.548" transform="translate(24.448 35.51) rotate(-10.37)"/><rect class="c" width="38.79" height="2.548" transform="translate(25.671 42.194) rotate(-10.37)"/><rect class="c" width="38.79" height="2.548" transform="translate(26.894 48.878) rotate(-10.37)"/><rect class="c" width="38.79" height="2.548" transform="translate(28.117 55.562) rotate(-10.37)"/><rect class="c" width="38.79" height="2.548" transform="translate(29.34 62.247) rotate(-10.37)"/><rect class="c" width="38.79" height="2.548" transform="translate(30.564 68.931) rotate(-10.37)"/><rect class="d" width="14.861" height="19.107" transform="translate(87.905 84.039) rotate(-10.37)"/><rect class="b" width="10.976" height="0.721" transform="translate(90.433 87.059) rotate(-10.37)"/><rect class="b" width="10.976" height="0.721" transform="translate(90.779 88.95) rotate(-10.37)"/><rect class="b" width="10.976" height="0.721" transform="translate(91.125 90.841) rotate(-10.37)"/><rect class="b" width="10.976" height="0.721" transform="translate(91.471 92.733) rotate(-10.37)"/><rect class="b" width="10.976" height="0.721" transform="translate(91.817 94.624) rotate(-10.37)"/><rect class="b" width="10.976" height="0.721" transform="translate(92.163 96.515) rotate(-10.37)"/><rect class="b" width="10.976" height="0.721" transform="translate(92.509 98.407) rotate(-10.37)"/><path class="a" d="M378.978,89.508h-6.217V88.235a3.481,3.481,0,0,0-3.481-3.481h-6.729a3.481,3.481,0,0,0-3.481,3.481v1.273h-6.217a3.481,3.481,0,0,0-3.481,3.481v9.639H382.46V92.989A3.481,3.481,0,0,0,378.978,89.508Z" transform="translate(-326.745 -84.754)"/><path class="a" d="M438.607,694.223a10.953,10.953,0,0,1,3.3-1.755,3.476,3.476,0,0,1,3.273.6,2.005,2.005,0,0,1,.484,2.535,1.611,1.611,0,0,1-1.067.777,1.286,1.286,0,0,1-1.156-.452,1.179,1.179,0,0,1-.295-1.158,1.518,1.518,0,0,1,.973-.826,7.2,7.2,0,0,1,1.45-.3l2.017-.276,8.256-1.13,9.194-1.259a.287.287,0,0,0,.2-.351.293.293,0,0,0-.351-.2l-18.294,2.5c-.662.091-1.333.155-1.988.289a3.343,3.343,0,0,0-1.427.593,1.7,1.7,0,0,0-.007,2.647,1.887,1.887,0,0,0,2.716-.2,2.463,2.463,0,0,0,.187-3.018,3.659,3.659,0,0,0-3.569-1.465,9.724,9.724,0,0,0-4.189,1.954c-.3.206-.016.7.288.493Z" transform="translate(-401.667 -595.664)"/><path class="e" d="M850.753,579.591l.19,1.9s-1.141,4.183,1.331,4.183.57-4.183.57-4.183l.19-1.521Z" transform="translate(-749.622 -502.173)"/><path class="e" d="M946.866,539.1l-.873,1.7s-3.229,2.894-1.153,4.236,2.75-3.2,2.75-3.2l.985-1.174Z" transform="translate(-828.464 -468.015)"/><path class="f" d="M870.591,582.327l2.662,18.065,1.331,12.93s1.141,2.852,4.944.38l-.57-7.416-.38-6.655a72.617,72.617,0,0,0-.761-7.606c-.38-1.141.19-4.944.19-4.944l1.521-6.275Z" transform="translate(-766.418 -503.198)"/><path class="f" d="M874.718,786.211l-1.521,1.711s-2.282-.761-2.852.761,4.374,1.9,4.374,1.9,5.134.38,5.134,0-.138-3.289-.829-3.451S874.718,786.211,874.718,786.211Z" transform="translate(-766.171 -676.467)"/><path class="f" d="M916.777,577.275l2.662,19.015,1.331,12.93s1.141,2.852,4.944.38l-.57-7.416-.38-6.655a72.605,72.605,0,0,0-.761-7.606c-.38-1.141.19-4.944.19-4.944l-.38-7.036Z" transform="translate(-805.378 -499.097)"/><path class="f" d="M920.9,786.211l-1.521,1.711s-2.282-.761-2.852.761,4.373,1.9,4.373,1.9,5.134.38,5.134,0-.138-3.289-.829-3.451S920.9,786.211,920.9,786.211Z" transform="translate(-805.131 -676.467)"/><circle class="e" cx="3.993" cy="3.993" r="3.993" transform="translate(101.701 40.148)"/><path class="e" d="M676.986,293.685l1.711,2.852-4.374,1.9-.57-3.423Z" transform="translate(-568.344 -247.738)"/><path class="g" d="M858.555,394.734s-3.993-.38-5.514,2.092l-3.753,2.852a2.164,2.164,0,0,0-.836,2.006l3.258,24.615,4.754-.19,7.8-1.521,2.282-.57L865.4,413.94s-1.331-3.993.19-6.655l-.761-9.317-5.324-2.092Z" transform="translate(-747.726 -346.22)"/><path class="g" d="M847.8,428.747l-.285-.475s-.38,0-.38.761-.666,17.209-.666,17.209l-.19,6.275,3.613.38,1.331-11.789-.57-7.8Z" transform="translate(-745.913 -374.528)"/><path class="g" d="M936.224,413.079l2.662.38a17.669,17.669,0,0,1,2.662,3.613c1.141,2.092,4.564,6.085,3.8,9.127a84.888,84.888,0,0,1-3.042,8.557l-3.613-1.521s2.852-6.655,2.662-7.226-2.472-3.993-2.472-3.993Z" transform="translate(-821.782 -361.712)"/><path class="f" d="M852.741,335.7s-3.233-.19-1.141-2.282c0,0,1.711-.761,2.472-.38,0,0,1.141-.761,1.141-.38,0,0,3.993-1.141,4.564,2.852s-.38,5.895-.38,5.895l-2.662-.19s.57-3.233-1.521-2.852c0,0-1.711.57-1.9,0S852.741,335.7,852.741,335.7Z" transform="translate(-749.804 -293.744)"/><path class="h" d="M666.651,399.64l1.711-11.409-1.141-7.036.38,7.653-1.141,10.792Z" transform="translate(-562.192 -321.557)"/></svg>