<svg width="20" height="21" viewBox="0 0 20 21" fill="none" xmlns="http://www.w3.org/2000/svg">
<path d="M9.94737 21C9.33727 21 8.84211 20.5052 8.84211 19.8947V8.22095L5.52632 11.5014L3.97231 9.94737L9.15269 4.73163C9.58485 4.30058 10.3099 4.30058 10.7421 4.73163L15.9224 9.94737L14.3684 11.5014L11.0526 8.22095V19.8947C11.0526 20.5052 10.5575 21.0001 9.94737 21ZM1.10526 7.73684C0.495158 7.73684 0 7.24168 0 6.63158V4.42105C0 1.97953 1.97953 0 4.42105 0H15.4737C17.9152 0 19.8947 1.97953 19.8947 4.42105V6.63158C19.8947 7.24168 19.3996 7.73684 18.7895 7.73684C18.1794 7.73684 17.6842 7.24168 17.6842 6.63158V4.42105C17.6842 3.19974 16.695 2.21053 15.4737 2.21053H4.42105C3.19974 2.21053 2.21053 3.19974 2.21053 4.42105V6.63158C2.21053 7.24168 1.71537 7.73684 1.10526 7.73684Z" fill="#0461FF"/>
</svg>
