<svg width="24" height="24" viewBox="0 0 24 24" fill="none" xmlns="http://www.w3.org/2000/svg">
<path d="M12 24C18.6504 24 24 18.6504 24 12C24 5.3496 18.6504 0 12 0C5.3496 0 0 5.3496 0 12C0 18.6504 5.3496 24 12 24Z" fill="#2775CA"/>
<path d="M15.3002 13.8996C15.3002 12.15 14.2502 11.55 12.1502 11.2992C10.6502 11.0988 10.3502 10.6992 10.3502 9.99961C10.3502 9.30001 10.8506 8.85001 11.8502 8.85001C12.7502 8.85001 13.2506 9.15001 13.5002 9.90001C13.5506 10.05 13.7006 10.1496 13.8506 10.1496H14.651C14.8514 10.1496 15.0014 9.99961 15.0014 9.79921V9.74881C14.801 8.64841 13.901 7.79881 12.7514 7.69921V6.49921C12.7514 6.29881 12.6014 6.14881 12.3518 6.09961H11.6018C11.4014 6.09961 11.2514 6.24961 11.2022 6.49921V7.64881C9.70221 7.84921 8.75181 8.84881 8.75181 10.0992C8.75181 11.7492 9.75141 12.3996 11.8514 12.6492C13.2518 12.8988 13.7018 13.1988 13.7018 13.9992C13.7018 14.7996 13.0022 15.3492 12.0518 15.3492C10.7522 15.3492 10.3022 14.7996 10.1522 14.0496C10.1018 13.8492 9.95181 13.7496 9.80181 13.7496H8.95221C8.75181 13.7496 8.60181 13.8996 8.60181 14.1V14.1504C8.80221 15.4008 9.60141 16.3008 11.2514 16.5504V17.7504C11.2514 17.9508 11.4014 18.1008 11.651 18.15H12.401C12.6014 18.15 12.7514 18 12.8006 17.7504V16.5504C14.2994 16.2996 15.3002 15.2496 15.3002 13.8996Z" fill="white"/>
<path d="M9.44984 19.1496C5.54984 17.7492 3.54944 13.3992 5.00024 9.54963C5.75024 7.44963 7.40024 5.85003 9.44984 5.10003C9.65024 5.00043 9.74984 4.85043 9.74984 4.59963V3.90003C9.74984 3.69963 9.65024 3.54963 9.44984 3.50043C9.39944 3.50043 9.29984 3.50043 9.24944 3.55083C4.49984 5.05083 1.89944 10.1004 3.39944 14.8512C4.29944 17.6508 6.44984 19.8012 9.24944 20.7012C9.44984 20.8008 9.64904 20.7012 9.69944 20.5008C9.74984 20.4504 9.74984 20.4012 9.74984 20.3004V19.6008C9.74984 19.4496 9.59984 19.2504 9.44984 19.1496ZM14.749 3.54963C14.5486 3.45003 14.3494 3.54963 14.299 3.75003C14.2486 3.80043 14.2486 3.84963 14.2486 3.95043V4.65003C14.2486 4.85043 14.3986 5.04963 14.5486 5.15043C18.4486 6.55083 20.449 10.9008 18.9982 14.7504C18.2482 16.8504 16.5982 18.45 14.5486 19.2C14.3482 19.2996 14.2486 19.4496 14.2486 19.7004V20.4C14.2486 20.6004 14.3482 20.7504 14.5486 20.7996C14.599 20.7996 14.6986 20.7996 14.749 20.7492C19.4986 19.2492 22.099 14.1996 20.599 9.44883C19.699 6.60003 17.4994 4.44963 14.749 3.54963Z" fill="white"/>
</svg>
