<svg width="27" height="26" viewBox="0 0 27 26" fill="none" xmlns="http://www.w3.org/2000/svg">
<path d="M13.5001 1.10242e-06C11.2583 0.00136952 9.57104 1.18779 8.22672 3.59211L1.51888 16.0365C0.480735 17.8716 -0.00944711 19.162 0.000137828 20.5263C0.0217377 23.5806 2.44416 25.9891 5.4001 26H21.6C24.5596 26 26.9888 23.6272 27 20.5263C27.0048 19.1661 26.4767 17.7936 25.4391 16.0365L18.8156 3.6783C17.5726 1.27125 15.7725 -0.00136732 13.5001 1.10242e-06ZM13.5001 2.73684C14.691 2.73684 15.5955 3.38137 16.4109 4.96053L23.1187 17.4049C23.9526 18.8185 24.3027 19.7819 24.3 20.5263C24.2943 22.0959 23.0944 23.2632 21.6 23.2632H5.4001C3.91835 23.2577 2.71106 22.0699 2.70012 20.5263C2.69472 19.7655 3.04842 18.8349 3.88136 17.3625L10.5469 4.96053C11.4464 3.35126 12.3235 2.73684 13.5001 2.73684ZM13.5001 8.21053C12.7545 8.21053 12.1501 8.82358 12.1501 9.57895V15.0526C12.1501 15.808 12.7545 16.4211 13.5001 16.4211C14.2457 16.4211 14.85 15.808 14.85 15.0526V9.57895C14.85 8.82358 14.2457 8.21053 13.5001 8.21053ZM13.5001 17.7895C12.7545 17.7895 12.1501 18.4025 12.1501 19.1579C12.1501 19.9133 12.7545 20.5263 13.5001 20.5263C14.2457 20.5263 14.85 19.9133 14.85 19.1579C14.85 18.4025 14.2457 17.7895 13.5001 17.7895Z" fill="#AF421F"/>
</svg>
