<svg width="29" height="31" viewBox="0 0 29 31" fill="none" xmlns="http://www.w3.org/2000/svg">
<g clip-path="url(#clip0)">
<path d="M27.5501 11.8096H1.45012C1.25974 11.8097 1.07122 11.7715 0.895314 11.6974C0.719408 11.6233 0.559564 11.5146 0.424908 11.3776C0.290252 11.2406 0.183422 11.0779 0.110516 10.8989C0.0376099 10.7199 5.66617e-05 10.528 1.62024e-07 10.3341V5.90465C-0.00014371 5.59489 0.0955316 5.29295 0.273451 5.04167C0.45137 4.79039 0.702498 4.60253 0.991201 4.50475L14.0412 0.0761473C14.339 -0.0247721 14.661 -0.0247721 14.9588 0.0761473L28.0088 4.50475C28.2975 4.60253 28.5486 4.79039 28.7266 5.04167C28.9045 5.29295 29.0001 5.59489 29 5.90465V10.3333C29.0001 10.7247 28.8474 11.1 28.5756 11.3769C28.3038 11.6537 27.9352 11.8093 27.5507 11.8094L27.5501 11.8096ZM27.5501 31.0006H1.45012C1.06567 31.0006 0.696951 30.8452 0.425047 30.5685C0.153144 30.2918 0.000329431 29.9165 0.000215323 29.5251V26.5718C0.00146822 25.3976 0.460165 24.2719 1.27566 23.4417C2.09116 22.6114 3.19685 22.1444 4.35014 22.1432H24.6501C25.8034 22.1444 26.9091 22.6114 27.7246 23.4417C28.5401 24.2719 28.9987 25.3976 29 26.5718V29.5242C29.0001 29.9156 28.8474 30.291 28.5756 30.5678C28.3038 30.8447 27.9352 31.0002 27.5507 31.0004L27.5501 31.0006Z" fill="#A1FD91"/>
<path d="M3.40723 11.809V22.2545C3.7166 22.1822 4.03283 22.1447 4.35023 22.1426H24.6502C24.82 22.1499 24.9893 22.1674 25.1571 22.1951V11.809H3.40723Z" fill="#CAFFC1"/>
<path d="M9.20727 22.1426V11.809H3.40723V22.2545C3.7166 22.1822 4.03283 22.1447 4.35023 22.1426H9.20727Z" fill="#39C522"/>
<path d="M19.3574 11.809V22.1426H24.6501C24.82 22.1499 24.9892 22.1674 25.157 22.1951V11.809H19.3574Z" fill="#39C522"/>
</g>
<defs>
<clipPath id="clip0">
<rect width="29" height="31" fill="white"/>
</clipPath>
</defs>
</svg>
